<svg width="43" height="38" viewBox="0 0 43 38" fill="none" xmlns="http://www.w3.org/2000/svg">
<path d="M14.7 18.912C14.712 18.876 14.712 18.828 14.712 18.744C14.712 18.648 14.64 18.6 14.508 18.6H14.124C13.944 18.6 13.824 18.732 13.812 18.84L13.5 21H12.228L12.528 18.912C12.54 18.876 12.54 18.828 12.54 18.744C12.54 18.648 12.468 18.6 12.336 18.6H11.952C11.772 18.6 11.652 18.732 11.64 18.84L11.328 21H10.344C10.212 21 10.128 21.084 10.128 21.216V21.72C10.128 21.852 10.212 21.936 10.344 21.936H11.196L10.932 23.796H9.96C9.828 23.796 9.744 23.904 9.744 24.012V24.516C9.744 24.624 9.828 24.732 9.96 24.732H10.8L10.524 26.652C10.512 26.748 10.5 26.82 10.5 26.856C10.5 26.952 10.56 27 10.692 27H11.1C11.28 27 11.388 26.928 11.4 26.772L11.688 24.732H12.972L12.696 26.652C12.684 26.748 12.672 26.82 12.672 26.856C12.672 26.952 12.732 27 12.864 27H13.272C13.452 27 13.56 26.928 13.572 26.772L13.86 24.732H14.844C14.952 24.732 15.06 24.624 15.06 24.516V24.012C15.06 23.904 14.952 23.796 14.844 23.796H13.992L14.268 21.936H15.228C15.336 21.936 15.444 21.852 15.444 21.72V21.216C15.444 21.084 15.336 21 15.228 21H14.4L14.7 18.912ZM13.368 21.936L13.104 23.796H11.82L12.096 21.936H13.368ZM18.1993 20.64C18.1993 20.772 18.2953 20.88 18.4753 20.88H18.9313C19.0993 20.88 19.1953 20.796 19.2073 20.64C19.2193 20.376 19.3513 20.112 19.5793 19.836C19.8073 19.56 20.1073 19.428 20.4553 19.428C21.1273 19.428 21.6913 19.944 21.6913 20.604C21.6913 21.78 20.3833 22.62 19.3633 23.532C18.6553 24.156 18.0913 25.068 18.0913 26.124V26.784C18.0913 26.916 18.1753 27 18.3073 27H22.4833C22.6153 27 22.6993 26.916 22.6993 26.784V26.28C22.6993 26.148 22.6153 26.064 22.4833 26.064H19.0993C19.0993 24.816 20.4073 23.928 21.4273 23.064C22.1353 22.452 22.6993 21.6 22.6993 20.676C22.6993 20.052 22.4833 19.536 22.0513 19.116C21.6193 18.696 21.0913 18.48 20.4673 18.48C19.8313 18.48 19.3033 18.708 18.8593 19.164C18.4153 19.608 18.1993 20.1 18.1993 20.64Z" fill="#7C9870"/>
<path d="M32.7071 3.79289C32.3166 3.40237 31.6834 3.40237 31.2929 3.79289C30.9024 4.18342 30.9024 4.81658 31.2929 5.20711L32.7071 3.79289ZM35.5 8L34.7929 8.70711C34.985 8.89918 35.2469 9.00486 35.5185 8.99983C35.7901 8.9948 36.048 8.8795 36.2328 8.68045L35.5 8ZM42.7328 1.68045C43.1086 1.27574 43.0852 0.643009 42.6805 0.267206C42.2757 -0.108596 41.643 -0.0851618 41.2672 0.319549L42.7328 1.68045ZM31.2929 5.20711L34.7929 8.70711L36.2071 7.29289L32.7071 3.79289L31.2929 5.20711ZM36.2328 8.68045L42.7328 1.68045L41.2672 0.319549L34.7672 7.31955L36.2328 8.68045Z" fill="#7C9870"/>
<path d="M14.9516 4H14.7046C13.7012 4 12.8518 4.80793 12.8518 5.81141V7.55631L7.58775 6.02324C7.43986 5.98014 7.28085 5.99784 7.14638 6.07263C7.01163 6.14772 6.91286 6.27333 6.87146 6.42178L0.0223489 30.0264C-0.0655811 30.3373 0.113705 30.661 0.424029 30.751L24.0295 37.6044C24.3384 37.6943 24.6621 37.5178 24.7543 37.2095L25.4852 34.6955H31.4008C31.7279 34.6932 31.9937 34.4306 32 34.1034V9.52388C32 9.201 31.7236 8.96975 31.4008 8.96975H17.648L16.7984 8.68484V5.81141C16.7984 4.80793 15.9551 4 14.9516 4V4ZM14.0212 5.81141C14.0212 5.45284 14.3458 5.16935 14.7046 5.16935H14.9516C15.3104 5.16935 15.6291 5.45284 15.6291 5.81141V8.34511L14.0212 7.89575V5.81141ZM25.8249 33.5262L30.8306 16.327V33.5262H25.8249ZM30.8306 10.1391V12.7622L21.6757 10.1391H30.8306ZM30.335 13.8364L23.8011 36.318L1.31589 29.7912L7.85468 7.30908L15.6291 9.56271V13.5521C15.6291 13.9155 15.3344 14.2099 14.9713 14.2099C14.6079 14.2099 14.3135 13.9155 14.3135 13.5521V11.1229C14.3135 10.8 14.0517 10.5382 13.7289 10.5382C13.406 10.5382 13.1442 10.8 13.1442 11.1229V13.5521C13.1442 14.5613 13.9621 15.3792 14.9713 15.3792C15.9802 15.3792 16.7984 14.5613 16.7984 13.5521V9.90244L30.335 13.8364Z" fill="#7C9870"/>
</svg>
