<svg width="208" height="162" viewBox="0 0 208 162" fill="none" xmlns="http://www.w3.org/2000/svg">
<mask id="mask0" mask-type="alpha" maskUnits="userSpaceOnUse" x="0" y="0" width="208" height="162">
<rect width="208" height="162" fill="#C4C4C4"/>
</mask>
<g mask="url(#mask0)">
<path d="M128.748 37.6012C128.748 31.8349 128.748 26.0685 128.748 20.3021C128.748 19.5581 128.934 19.3721 129.678 19.3721C134.887 19.3721 140.281 19.3721 145.489 19.3721C146.234 19.3721 146.42 19.5581 146.42 20.3021C146.42 21.7902 146.42 23.4643 146.42 24.9524C146.42 25.6965 146.234 25.8825 145.489 25.6965C143.443 25.6965 141.211 25.6965 139.165 25.6965C138.235 25.6965 138.049 25.8825 138.235 26.8125C138.235 28.3006 138.235 29.6027 138.235 31.0908C138.235 31.8349 138.421 32.0209 139.165 32.0209C141.025 32.0209 142.699 32.2069 144.559 32.7649C146.792 33.509 148.094 35.3691 148.094 37.7872C148.094 41.8795 148.094 46.1578 148.094 50.25C148.094 52.8542 146.792 54.3423 144.373 55.0864C142.513 55.6444 140.653 55.8304 138.793 55.8304C135.817 55.8304 132.655 55.8304 129.678 55.8304C128.934 55.8304 128.748 55.6444 128.748 54.9003C128.748 49.134 128.748 43.3676 128.748 37.6012ZM137.677 43.3676C137.677 45.4137 137.677 47.6459 137.677 49.692C137.677 49.878 137.491 50.25 138.049 50.4361C138.421 50.4361 138.979 50.4361 139.165 49.878C139.165 49.692 139.165 49.32 139.165 49.134C139.165 45.4137 139.165 41.5075 139.165 37.7872C139.165 37.6012 139.165 37.4152 139.165 37.2292C139.165 36.6712 138.607 36.4852 138.235 36.4852C137.677 36.4852 137.863 36.8572 137.863 37.2292C137.677 39.2753 137.677 41.3215 137.677 43.3676Z" fill="black" fill-opacity="0.3"/>
<path d="M134.701 116.284C134.701 111.634 134.701 106.984 134.701 102.333C134.701 101.589 134.515 101.403 133.399 101.403C132.283 101.403 130.981 101.775 130.237 101.217C129.865 100.845 130.051 99.7293 130.051 98.9852C130.051 97.6831 130.051 96.567 130.051 95.265C130.051 94.7069 130.237 94.5209 130.981 94.5209C137.677 94.5209 144.374 94.5209 151.07 94.5209C151.814 94.5209 152 94.7069 152 95.265C152 97.1251 152 98.7992 152 100.659C152 101.217 151.628 101.403 150.884 101.403C150.14 101.403 149.396 101.403 148.652 101.403C147.722 101.403 147.35 101.589 147.35 102.333C147.35 102.891 147.35 103.449 147.35 104.008C147.35 112.75 147.35 121.493 147.35 130.049C147.35 130.793 146.978 131.165 145.862 130.979C142.327 130.979 138.979 130.979 135.445 130.979C134.329 130.979 134.143 130.793 134.143 130.049C134.701 125.585 134.701 120.935 134.701 116.284Z" fill="black" fill-opacity="0.3"/>
<path d="M147.908 75.5476C147.908 81.1279 147.908 86.8943 147.908 92.4747C147.908 93.2187 147.722 93.4047 146.606 93.4047C144.932 93.4047 143.071 93.4047 141.211 93.4047C140.467 93.4047 140.095 93.2187 140.281 92.6607C140.281 91.1726 140.281 89.6845 140.281 88.3824C140.281 78.5238 140.281 68.4791 140.281 58.6205C140.281 57.6904 140.653 57.5044 141.769 57.5044C143.257 57.5044 144.746 57.5044 146.234 57.5044C147.908 57.5044 147.908 57.5044 147.908 58.6205C147.908 64.2009 147.908 69.7812 147.908 75.5476Z" fill="black" fill-opacity="0.3"/>
<path d="M53.2276 56.0164C53.2276 44.2976 53.2276 32.7649 53.2276 21.0461C53.2276 19.372 53.5997 19 55.2738 19C73.1309 19 91.1741 19.186 109.031 19C110.705 19 111.077 19.558 111.077 21.0461C111.077 44.1116 110.891 67.3631 110.891 90.4286C110.891 91.9167 110.705 92.6607 108.845 92.6607C101.033 92.4747 93.2202 92.4747 85.4077 92.6607C83.7336 92.6607 83.3616 92.2887 83.3616 90.6146C83.3616 73.3155 83.5476 55.8304 83.5476 38.5313C83.5476 37.6012 83.9196 36.6711 82.2455 36.6711C80.7574 36.6711 80.3854 37.0432 80.3854 38.5313C80.3854 55.8304 80.3854 73.1295 80.3854 90.4286C80.3854 92.1027 80.0134 92.8467 78.1532 92.6607C70.3407 92.4747 62.7142 92.4747 54.9017 92.6607C53.4136 92.6607 53.0416 92.2887 53.0416 90.8006C53.2276 79.2679 53.2276 67.7351 53.2276 56.0164Z" fill="black" fill-opacity="0.3"/>
<path d="M120.192 38.5313C120.378 35.9272 120.564 33.137 120.75 30.5328C120.936 26.9986 121.308 23.6503 121.494 20.1161C121.494 19.5581 121.68 19.5581 122.238 19.5581C123.912 19.5581 125.586 19.5581 127.446 19.5581C128.004 19.5581 128.19 19.7441 128.19 20.3021C128.004 22.3483 127.818 24.3944 127.632 26.2545C127.26 30.7188 126.702 34.9971 126.33 39.4614C125.958 42.9956 125.586 46.3438 125.214 49.878C125.028 51.1801 124.656 52.4822 123.912 53.5983C122.796 55.2724 121.308 56.0165 119.448 56.2025C118.332 56.2025 117.03 56.2025 115.914 56.0164C115.355 56.0164 115.169 55.6444 115.169 55.0864C115.169 53.9703 114.983 52.6682 114.983 51.5522C114.983 50.9941 114.983 50.9941 115.542 50.9941C116.472 50.9941 117.402 50.9941 118.332 50.9941C119.076 50.9941 119.634 50.6221 119.82 49.878C120.192 48.762 120.006 47.6459 120.192 46.5298C120.192 45.9718 119.82 46.1578 119.634 46.1578C118.518 46.1578 117.216 46.1578 116.1 45.9718C115.542 45.9718 115.356 45.7858 115.356 45.2277C114.797 38.1593 114.425 31.0908 113.867 24.0224C113.681 22.7203 113.681 21.4182 113.681 20.1161C113.681 19.5581 113.867 19.3721 114.239 19.3721C116.1 19.3721 117.96 19.3721 119.634 19.3721C120.378 19.3721 120.564 19.5581 120.564 20.3021C120.564 25.8825 120.75 31.6488 120.75 37.2292C120.006 37.7872 120.006 38.1593 120.192 38.5313C120.006 38.5313 120.192 38.5313 120.192 38.5313Z" fill="black" fill-opacity="0.3"/>
<path d="M53.2276 112.564C53.2276 106.798 53.2276 101.217 53.2276 95.451C53.2276 94.5209 53.4136 94.3349 54.3437 94.5209C58.0639 94.5209 61.4122 94.5209 65.1324 94.5209C65.8765 94.5209 66.0625 94.7069 66.0625 95.451C66.0625 104.008 66.0625 112.564 66.0625 121.121C66.0625 121.865 66.2485 122.051 66.9925 122.051C67.7366 122.051 67.5505 121.493 67.5505 121.121C67.5505 112.564 67.5505 104.194 67.5505 95.637C67.5505 94.5209 67.5506 94.5209 68.6666 94.5209C72.3869 94.5209 75.7351 94.5209 79.4553 94.5209C80.1994 94.5209 80.3854 94.7069 80.3854 95.451C80.3854 104.008 80.3854 112.378 80.3854 120.935C80.3854 121.865 80.3854 122.051 81.3155 122.051C83.3616 122.051 82.8036 122.051 82.8036 123.911C82.8036 128.375 82.8036 132.839 82.8036 137.118C82.8036 137.862 82.6175 138.048 81.8735 138.048C77.9672 138.048 75.177 138.048 71.4568 138.048C70.7128 138.048 70.5267 137.862 70.5267 137.118C70.5267 135.258 70.5267 133.397 70.5267 131.351C70.5267 130.607 70.3407 130.421 69.5967 130.421C64.2023 130.421 59.366 130.421 53.9717 130.421C53.2276 130.421 53.0416 130.235 53.0416 129.491C53.2276 123.911 53.2276 118.144 53.2276 112.564Z" fill="black" fill-opacity="0.3"/>
<path d="M138.793 75.5476C138.793 81.128 138.793 86.7083 138.793 92.2887C138.793 93.0327 138.607 93.4048 137.677 93.4048C135.259 93.4048 130.609 93.2188 128.004 93.4048C127.26 93.4048 126.888 93.2188 126.888 92.4747C126.888 83.1741 127.074 74.0595 127.074 64.7589C127.074 64.0149 126.888 63.8288 126.144 63.8288C125.4 63.8288 125.4 64.2009 125.4 64.5729C125.214 71.8274 125.028 79.2678 124.842 86.5223C124.842 87.8244 124.656 89.1265 124.098 90.4286C123.354 92.4747 121.866 93.5908 119.634 93.7768C118.146 93.9628 114.798 93.7768 113.123 93.5908C112.565 93.4048 112.193 93.2187 112.193 92.6607C112.193 90.9866 112.193 89.1265 112.193 87.4524C112.193 86.8943 112.193 86.7083 112.937 86.7083C113.681 86.8943 113.681 86.1503 113.681 85.7783C113.867 83.7321 113.867 81.686 113.867 79.8259C114.053 72.5714 114.239 65.5029 114.612 58.2485C114.612 57.6904 114.798 57.5044 115.356 57.5044C121.494 57.5044 131.725 57.6904 137.863 57.6904C138.607 57.6904 138.607 58.0625 138.607 58.6205C138.793 64.2009 138.793 69.7812 138.793 75.5476Z" fill="black" fill-opacity="0.3"/>
<path d="M86.1518 134.141L88.5699 133.769H88.9419L88.5699 134.886C89.128 134.514 89.5 134.141 89.872 133.955C90.244 133.769 90.43 133.769 90.8021 133.769C91.1741 133.769 91.5461 133.955 91.9181 134.328C92.1042 134.7 92.2902 135.072 92.2902 135.63C92.2902 136.932 91.7321 138.234 90.8021 139.35C89.872 140.28 88.9419 140.838 88.0119 140.838C87.8259 140.838 87.6399 140.838 87.6399 140.838C87.4539 140.838 87.2678 140.652 87.0818 140.652L86.7098 141.954C86.5238 142.512 86.5238 142.698 86.5238 143.07C86.5238 143.256 86.5238 143.256 86.7098 143.442C86.8958 143.442 87.0818 143.628 87.4539 143.628V143.814H83.5476V143.628C83.9196 143.628 84.1056 143.442 84.2916 143.256C84.4777 143.07 84.6637 142.698 84.8497 141.954L86.7098 135.816C86.8958 135.444 86.8958 135.072 86.8958 134.886V134.7L86.7098 134.514C86.7098 134.514 86.5238 134.514 86.1518 134.514V134.141ZM87.2678 139.722C87.4539 139.908 87.4539 140.094 87.6399 140.28C87.8259 140.28 87.8259 140.466 88.0119 140.466C88.1979 140.466 88.3839 140.466 88.3839 140.28C88.5699 140.28 88.7559 140.094 88.9419 139.722C89.128 139.536 89.314 139.164 89.5 138.792C89.686 138.42 89.872 137.862 90.058 137.49C90.244 136.932 90.244 136.56 90.244 136.002C90.244 135.63 90.244 135.444 90.058 135.258C89.872 135.072 89.686 135.072 89.5 135.072C89.314 135.072 89.128 135.072 88.9419 135.258C88.7559 135.444 88.3839 135.63 88.1979 136.002L87.2678 139.722Z" fill="black" fill-opacity="0.3"/>
<path d="M95.2664 137.862C95.2664 138.234 95.2664 138.42 95.2664 138.606C95.2664 138.978 95.4524 139.35 95.6384 139.536C95.8244 139.722 96.1964 139.908 96.5684 139.908C96.9405 139.908 97.3125 139.908 97.4985 139.722C97.8705 139.536 98.2426 139.35 98.6146 138.792L98.8006 138.978C98.2426 139.722 97.6845 140.094 97.1265 140.466C96.5685 140.838 96.0104 140.838 95.4524 140.838C94.7083 140.838 94.1503 140.652 93.7783 140.28C93.4062 139.908 93.4062 139.35 93.4062 138.978C93.4062 138.234 93.5923 137.304 94.1503 136.56C94.7083 135.816 95.2664 135.071 96.0104 134.699C96.7545 134.141 97.6845 133.955 98.4286 133.955C98.8006 133.955 99.1726 134.141 99.3586 134.327C99.5446 134.513 99.7306 134.699 99.7306 135.071C99.7306 135.444 99.5446 135.816 99.3586 136.188C98.9866 136.56 98.8006 136.932 98.2425 137.304C97.8705 137.49 97.3125 137.862 96.7545 137.862C96.1964 137.676 95.8244 137.676 95.2664 137.862ZM95.2664 137.49C95.6384 137.49 96.0104 137.304 96.1964 137.304C96.3824 137.118 96.7545 136.932 96.9405 136.746C97.1265 136.56 97.3125 136.188 97.4985 135.816C97.6845 135.443 97.6845 135.071 97.6845 134.699C97.6845 134.513 97.6845 134.513 97.4985 134.327C97.4985 134.327 97.3125 134.141 97.1265 134.141C96.9405 134.141 96.5684 134.327 96.3824 134.699C96.0104 135.257 95.6384 136.188 95.2664 137.49Z" fill="black" fill-opacity="0.3"/>
<path d="M104.939 138.792L105.125 138.978C104.567 139.536 104.195 139.908 103.637 140.28C103.079 140.652 102.335 140.838 101.777 140.838C101.405 140.838 101.033 140.652 100.661 140.466C100.289 140.28 100.103 140.094 99.9166 139.722C99.7306 139.35 99.7306 138.978 99.7306 138.606C99.7306 137.862 99.9166 137.118 100.475 136.188C100.847 135.444 101.405 134.885 102.149 134.327C102.893 133.955 103.637 133.583 104.195 133.583C104.753 133.583 105.125 133.769 105.497 133.955C105.683 134.141 105.869 134.513 105.869 134.885C105.869 135.257 105.683 135.444 105.497 135.63C105.311 135.816 105.125 136.002 104.753 136.002C104.567 136.002 104.381 136.002 104.195 135.816C104.009 135.629 104.009 135.444 104.009 135.257C104.009 135.071 104.195 134.699 104.381 134.513C104.567 134.327 104.567 134.327 104.567 134.141C104.567 134.141 104.567 133.955 104.381 133.955C104.195 133.955 104.195 133.769 104.009 133.769C103.637 133.769 103.265 133.955 102.893 134.327C102.335 134.699 101.963 135.257 101.777 136.002C101.591 136.746 101.405 137.304 101.405 137.862C101.405 138.42 101.591 138.792 101.777 138.978C101.963 139.35 102.335 139.35 102.707 139.35C103.079 139.35 103.265 139.35 103.637 139.164C104.381 139.35 104.753 139.164 104.939 138.792Z" fill="black" fill-opacity="0.3"/>
<path d="M110.147 133.955L109.217 137.118C109.775 136.188 110.333 135.444 110.519 135.258C110.891 134.699 111.263 134.513 111.635 134.327C111.821 134.141 112.193 134.141 112.379 134.141C112.751 134.141 112.937 134.327 113.123 134.513C113.309 134.699 113.309 134.885 113.309 135.071C113.309 135.257 113.309 135.63 113.123 136.188L112.751 137.304C113.309 136.374 113.867 135.63 114.053 135.443C114.426 134.885 114.798 134.699 115.17 134.513C115.356 134.327 115.542 134.327 115.914 134.327C116.1 134.327 116.472 134.327 116.472 134.513C116.658 134.699 116.658 134.885 116.658 135.258C116.658 135.63 116.658 136.002 116.472 136.374L115.728 139.164C115.542 139.536 115.542 139.908 115.542 139.908C115.542 139.908 115.542 139.908 115.542 140.094C115.542 140.094 115.542 140.094 115.728 140.094H115.914C116.1 139.908 116.286 139.722 116.472 139.536L116.658 139.35L116.844 139.536C116.472 140.094 116.1 140.652 115.728 140.838C115.356 141.21 114.984 141.21 114.612 141.21C114.239 141.21 114.053 141.21 113.867 141.024C113.681 140.838 113.681 140.652 113.681 140.466C113.681 140.28 113.681 139.908 113.867 139.536L114.798 136.746C114.984 136.374 114.984 136.188 114.984 136.002C114.984 136.002 114.984 136.002 114.984 135.816C114.984 135.816 114.984 135.816 114.798 135.816H114.612C114.426 135.816 114.426 136.002 114.24 136.188C114.053 136.374 113.681 136.746 113.495 137.304C113.123 137.862 112.937 138.234 112.751 138.606C112.565 138.978 112.565 139.35 112.379 139.722L112.007 141.21H110.147L111.449 136.56C111.449 136.374 111.635 136.188 111.635 136.002C111.635 136.002 111.635 136.002 111.635 135.816C111.635 135.816 111.635 135.816 111.449 135.816C111.263 135.816 110.891 136.002 110.519 136.56C109.961 137.304 109.403 138.234 108.845 139.164L108.287 141.21H106.427L107.915 136.56C108.101 136.188 108.101 135.816 108.101 135.63V135.443L107.915 135.258C107.915 135.258 107.729 135.258 107.357 135.258V135.071L109.775 134.699L110.147 133.955Z" fill="black" fill-opacity="0.3"/>
<path d="M122.61 133.955C122.982 133.955 123.354 134.141 123.726 134.141C124.098 134.327 124.284 134.513 124.47 134.885C124.656 135.257 124.656 135.63 124.656 136.002C124.656 136.746 124.47 137.49 123.912 138.42C123.54 139.164 122.796 139.908 122.238 140.28C121.494 140.652 120.75 141.024 120.006 141.024C119.262 141.024 118.89 140.838 118.518 140.466C118.146 140.094 117.96 139.536 117.96 138.978C117.96 138.234 118.146 137.676 118.332 137.118C118.518 136.56 118.89 136.002 119.448 135.63C119.82 135.257 120.378 134.885 120.936 134.513C121.494 134.141 122.052 133.955 122.61 133.955ZM122.424 134.327C122.238 134.327 121.866 134.327 121.866 134.513C121.494 134.885 121.122 135.444 120.75 136.56C120.378 137.676 120.192 138.606 120.006 139.536C120.006 139.722 120.006 139.908 120.192 140.094C120.378 140.28 120.564 140.28 120.75 140.28C120.936 140.28 121.122 140.28 121.308 140.094C121.494 139.908 121.866 139.536 122.052 138.978C122.424 138.42 122.61 137.676 122.796 136.932C122.982 136.188 123.168 135.443 123.168 134.885C123.168 134.699 123.168 134.513 122.982 134.327C122.61 134.327 122.424 134.327 122.424 134.327Z" fill="black" fill-opacity="0.3"/>
<path d="M126.33 134.327L128.749 133.955H129.121L128.749 135.071C129.307 134.699 129.679 134.327 130.051 134.141C130.423 133.955 130.609 133.955 130.981 133.955C131.353 133.955 131.725 134.141 132.097 134.513C132.283 134.885 132.469 135.257 132.469 135.816C132.469 137.118 131.911 138.42 130.981 139.536C130.051 140.466 129.121 141.024 128.19 141.024C128.004 141.024 127.818 141.024 127.818 141.024C127.632 141.024 127.446 140.838 127.26 140.838L126.888 142.14C126.702 142.698 126.702 142.884 126.702 143.256C126.702 143.442 126.702 143.442 126.888 143.628C127.074 143.814 127.26 143.814 127.632 143.814V144H123.726V143.814C124.098 143.814 124.284 143.628 124.47 143.442C124.656 143.256 124.842 142.884 125.028 142.14L126.888 136.002C127.074 135.63 127.074 135.257 127.074 135.071V134.885L126.888 134.699C126.888 134.699 126.702 134.699 126.33 134.699V134.327ZM127.26 139.908C127.446 140.094 127.446 140.28 127.632 140.466C127.818 140.466 127.818 140.652 128.004 140.652C128.19 140.652 128.376 140.652 128.376 140.466C128.563 140.466 128.748 140.28 128.935 139.908C129.121 139.722 129.307 139.35 129.493 138.978C129.679 138.606 129.865 138.048 130.051 137.676C130.237 137.118 130.237 136.746 130.237 136.188C130.237 135.816 130.237 135.63 130.051 135.444C129.865 135.257 129.679 135.258 129.493 135.258C129.307 135.258 129.121 135.257 128.935 135.444C128.748 135.63 128.376 135.816 128.19 136.188L127.26 139.908Z" fill="black" fill-opacity="0.3"/>
<path d="M140.095 134.141L138.607 138.978L138.421 139.536V139.722V139.908C138.421 139.908 138.421 139.908 138.607 139.908C138.793 139.908 138.793 139.908 138.979 139.722C138.979 139.722 139.165 139.35 139.537 138.978L139.723 139.164C139.351 139.722 138.979 140.28 138.607 140.466C138.235 140.838 137.863 140.838 137.305 140.838C137.119 140.838 136.747 140.838 136.747 140.652C136.561 140.466 136.561 140.28 136.561 140.094C136.561 139.908 136.561 139.536 136.747 138.978L136.933 138.42C136.375 139.35 135.817 140.094 135.259 140.466C134.887 140.652 134.701 140.838 134.329 140.838C133.957 140.838 133.585 140.652 133.399 140.28C133.213 139.908 133.027 139.536 133.027 138.978C133.027 138.234 133.213 137.49 133.585 136.56C133.957 135.63 134.515 134.886 135.259 134.514C135.817 134.141 136.375 133.769 136.747 133.769C136.933 133.769 137.305 133.769 137.305 133.955C137.491 134.141 137.677 134.327 137.677 134.886L137.863 133.955L140.095 134.141ZM137.677 135.444C137.677 135.072 137.677 134.7 137.491 134.514C137.491 134.327 137.305 134.328 137.119 134.328C136.933 134.328 136.747 134.327 136.561 134.514C136.189 134.886 135.817 135.444 135.445 136.374C135.073 137.304 134.887 138.048 134.887 138.792C134.887 138.978 134.887 139.164 135.073 139.35C135.073 139.536 135.259 139.536 135.445 139.536C135.631 139.536 135.817 139.35 136.189 139.164C136.561 138.792 136.747 138.42 137.119 137.862C137.491 137.118 137.677 136.188 137.677 135.444Z" fill="black" fill-opacity="0.3"/>
<path d="M146.42 134.327H148.28L146.792 139.164C146.606 139.536 146.606 139.722 146.606 139.722C146.606 139.908 146.606 139.908 146.792 139.908C146.978 139.908 147.35 139.536 147.722 138.978L148.094 139.164C147.536 139.908 147.164 140.466 146.792 140.652C146.42 140.838 146.048 141.024 145.676 141.024C145.304 141.024 145.118 140.838 144.932 140.838C144.746 140.652 144.746 140.466 144.746 140.28C144.746 140.094 144.746 139.722 144.932 139.164L145.304 137.676H143.257L142.327 141.024H140.467L141.769 136.374C141.955 136.002 141.955 135.63 141.955 135.444C141.955 135.258 141.955 135.258 141.769 135.071C141.769 135.071 141.397 134.885 141.211 134.885V134.699L143.629 134.327H144.002L143.071 137.49H145.118L146.42 134.327Z" fill="black" fill-opacity="0.3"/>
<path d="M102.149 112.192C101.777 113.866 101.219 115.54 100.847 117.028C99.9167 120.377 98.9867 123.911 98.0566 127.259C97.8706 128.375 97.4985 129.305 97.3125 130.421C97.1265 130.979 97.1265 131.165 96.5685 131.165C92.6622 131.165 88.57 131.165 84.6637 131.165C84.1057 131.165 83.9197 130.979 83.9197 130.421C83.9197 118.702 84.1057 106.798 84.1057 95.0789C84.1057 94.5209 84.2917 94.3349 84.8497 94.3349C88.384 94.3349 91.9182 94.3349 95.2664 94.3349C95.8245 94.3349 96.0105 94.5209 95.8245 95.0789C95.0804 99.1712 94.3363 103.263 93.5923 107.542C93.2203 109.402 92.8482 111.448 92.6622 113.308H92.8483C93.2203 112.192 93.5923 110.89 93.7783 109.774C94.8944 105.868 96.0105 101.775 96.9405 97.8691C97.1265 96.939 97.3125 96.009 97.4986 95.0789C97.4986 94.5209 97.6846 94.3349 98.2426 94.3349C102.335 94.3349 106.241 94.3349 110.333 94.3349C110.891 94.3349 110.891 94.5209 110.891 95.0789C110.891 106.798 110.705 118.702 110.705 130.421C110.705 130.979 110.519 131.165 110.147 130.979C106.613 130.979 103.079 130.979 99.5447 130.979C98.9867 130.979 98.8006 130.793 98.9867 130.235C99.9167 125.213 100.847 120.191 101.777 114.982C101.963 113.866 102.149 112.936 102.335 111.82L102.149 112.192Z" fill="black" fill-opacity="0.3"/>
<path d="M112.565 112.75C112.565 109.03 112.565 105.31 112.565 101.589C112.565 100.101 112.937 98.6131 113.681 97.125C114.798 95.4509 116.286 94.5208 118.146 94.1488C120.192 93.7768 122.238 93.7768 124.284 94.3348C127.26 95.2649 129.12 97.497 129.307 100.473C129.307 104.007 129.307 107.542 129.307 111.262C129.307 111.82 129.12 111.82 128.748 111.82C126.702 111.82 124.47 111.82 122.424 111.82C121.68 111.82 121.866 111.448 121.866 111.076C121.866 107.914 121.866 104.565 121.866 101.403C121.866 101.031 121.866 100.845 121.866 100.473C121.866 100.101 121.494 99.9152 121.308 99.9152C120.936 99.9152 120.75 99.9152 120.564 100.287C120.378 100.659 120.378 100.845 120.378 101.217C120.378 108.658 120.378 116.284 120.192 123.725C120.192 124.097 120.192 124.283 120.192 124.655C120.192 125.027 120.564 125.213 120.936 125.213C121.308 125.213 121.494 125.027 121.68 124.655C121.68 124.469 121.68 124.097 121.68 123.911C121.68 120.749 121.68 117.4 121.68 114.238C121.68 113.68 121.866 113.308 122.424 113.494C124.47 113.494 126.516 113.494 128.562 113.494C129.12 113.494 129.307 113.68 129.307 114.238C129.307 117.772 129.306 121.307 129.12 124.841C128.934 127.445 127.818 129.677 125.214 130.793C122.238 131.909 119.076 131.909 116.286 130.793C113.495 129.677 112.565 127.073 112.565 124.283C112.565 120.377 112.565 116.656 112.565 112.75Z" fill="black" fill-opacity="0.3"/>
</g>
</svg>
