<svg width="235" height="296" viewBox="0 0 235 296" fill="none" xmlns="http://www.w3.org/2000/svg">
<path d="M179.274 44.0477C179.274 30.3929 179.274 16.7381 179.274 3.08339C179.274 1.32149 179.714 0.881012 181.476 0.881012C193.81 0.881012 206.583 0.881012 218.917 0.881012C220.679 0.881012 221.119 1.32149 221.119 3.08339C221.119 6.6072 221.119 10.5715 221.119 14.0953C221.119 15.8572 220.679 16.2976 218.917 15.8572C214.071 15.8572 208.786 15.8572 203.94 15.8572C201.738 15.8572 201.298 16.2977 201.738 18.5001C201.738 22.0239 201.738 25.1072 201.738 28.631C201.738 30.3929 202.179 30.8334 203.94 30.8334C208.345 30.8334 212.31 31.2738 216.714 32.5953C222 34.3572 225.083 38.7619 225.083 44.4881C225.083 54.1786 225.083 64.3095 225.083 74C225.083 80.1667 222 83.6905 216.274 85.4524C211.869 86.7738 207.464 87.2143 203.059 87.2143C196.012 87.2143 188.524 87.2143 181.476 87.2143C179.714 87.2143 179.274 86.7738 179.274 85.0119C179.274 71.3571 179.274 57.7024 179.274 44.0477ZM200.417 57.7024C200.417 62.5476 200.417 67.8334 200.417 72.6786C200.417 73.1191 199.976 74 201.298 74.4405C202.179 74.4405 203.5 74.4405 203.94 73.1191C203.94 72.6786 203.94 71.7977 203.94 71.3572C203.94 62.5477 203.94 53.2976 203.94 44.4881C203.94 44.0476 203.94 43.6071 203.94 43.1667C203.94 41.8452 202.619 41.4048 201.738 41.4048C200.417 41.4048 200.857 42.2857 200.857 43.1667C200.417 48.0119 200.417 52.8572 200.417 57.7024Z" fill="black"/>
<path d="M193.369 230.369C193.369 219.357 193.369 208.345 193.369 197.333C193.369 195.572 192.929 195.131 190.286 195.131C187.643 195.131 184.56 196.012 182.798 194.691C181.917 193.81 182.357 191.167 182.357 189.405C182.357 186.322 182.357 183.679 182.357 180.595C182.357 179.274 182.798 178.833 184.56 178.833C200.417 178.833 216.274 178.833 232.131 178.833C233.893 178.833 234.333 179.274 234.333 180.595C234.333 185 234.333 188.964 234.333 193.369C234.333 194.691 233.453 195.131 231.691 195.131C229.929 195.131 228.167 195.131 226.405 195.131C224.203 195.131 223.322 195.572 223.322 197.333C223.322 198.655 223.322 199.976 223.322 201.298C223.322 222 223.322 242.703 223.322 262.964C223.322 264.726 222.441 265.607 219.798 265.167C211.429 265.167 203.5 265.167 195.131 265.167C192.488 265.167 192.048 264.726 192.048 262.964C193.369 252.393 193.369 241.381 193.369 230.369Z" fill="black"/>
<path d="M224.643 133.905C224.643 147.119 224.643 160.774 224.643 173.988C224.643 175.75 224.202 176.19 221.559 176.19C217.595 176.19 213.19 176.19 208.786 176.19C207.024 176.19 206.143 175.75 206.583 174.428C206.583 170.905 206.583 167.381 206.583 164.297C206.583 140.952 206.583 117.167 206.583 93.8213C206.583 91.6189 207.464 91.1785 210.107 91.1785C213.631 91.1785 217.155 91.1785 220.678 91.1785C224.643 91.1785 224.643 91.1784 224.643 93.8213C224.643 107.036 224.643 120.25 224.643 133.905Z" fill="black"/>
<path d="M0.440436 87.6547C0.440436 59.9047 0.440436 32.5952 0.440436 4.8452C0.440436 0.880912 1.32142 0 5.2857 0C47.5714 0 90.2976 0.440476 132.583 0C136.548 0 137.429 1.32139 137.429 4.8452C137.429 59.4642 136.988 114.524 136.988 169.143C136.988 172.667 136.548 174.428 132.143 174.428C113.643 173.988 95.1428 173.988 76.6428 174.428C72.6785 174.428 71.7976 173.548 71.7976 169.583C71.7976 128.619 72.2381 87.2143 72.2381 46.25C72.2381 44.0476 73.119 41.8452 69.1547 41.8452C65.6309 41.8452 64.75 42.7262 64.75 46.25C64.75 87.2143 64.75 128.179 64.75 169.143C64.75 173.107 63.869 174.869 59.4643 174.428C40.9643 173.988 22.9048 173.988 4.40476 174.428C0.880952 174.428 0 173.548 0 170.024C0.440476 142.714 0.440436 115.405 0.440436 87.6547Z" fill="black"/>
<path d="M159.012 46.2501C159.452 40.0834 159.893 33.4763 160.333 27.3096C160.774 18.9405 161.655 11.0119 162.095 2.64289C162.095 1.32146 162.536 1.32145 163.857 1.32145C167.821 1.32145 171.786 1.32145 176.19 1.32145C177.512 1.32145 177.952 1.76196 177.952 3.08339C177.512 7.92863 177.071 12.7739 176.631 17.1786C175.75 27.7501 174.428 37.881 173.547 48.4525C172.666 56.8215 171.785 64.7501 170.905 73.1191C170.464 76.2025 169.583 79.2858 167.821 81.9286C165.178 85.8929 161.655 87.6549 157.25 88.0954C154.607 88.0954 151.524 88.0953 148.881 87.6549C147.559 87.6549 147.119 86.7739 147.119 85.4525C147.119 82.8096 146.678 79.7263 146.678 77.0834C146.678 75.762 146.678 75.762 148 75.762C150.202 75.762 152.405 75.762 154.607 75.762C156.369 75.762 157.69 74.881 158.131 73.1191C159.012 70.4763 158.571 67.8334 159.012 65.1905C159.012 63.8691 158.131 64.3096 157.69 64.3096C155.047 64.3096 151.964 64.3096 149.321 63.8692C148 63.8692 147.559 63.4286 147.559 62.1072C146.238 45.3691 145.357 28.631 144.036 11.8929C143.595 8.80959 143.595 5.72623 143.595 2.64289C143.595 1.32146 144.035 0.881012 144.916 0.881012C149.321 0.881012 153.726 0.881012 157.69 0.881012C159.452 0.881012 159.893 1.32149 159.893 3.08339C159.893 16.2977 160.333 29.9524 160.333 43.1667C158.571 44.4881 158.571 45.3691 159.012 46.2501C158.571 46.2501 159.012 46.2501 159.012 46.2501Z" fill="black"/>
<path d="M0.440436 221.56C0.440436 207.905 0.440436 194.691 0.440436 181.036C0.440436 178.833 0.880939 178.393 3.08332 178.833C11.8928 178.833 19.8214 178.833 28.631 178.833C30.3929 178.833 30.8333 179.274 30.8333 181.036C30.8333 201.298 30.8333 221.56 30.8333 241.822C30.8333 243.583 31.2738 244.024 33.0357 244.024C34.7976 244.024 34.3571 242.702 34.3571 241.822C34.3571 221.56 34.3571 201.738 34.3571 181.476C34.3571 178.833 34.3571 178.833 37 178.833C45.8095 178.833 53.7381 178.833 62.5476 178.833C64.3095 178.833 64.75 179.274 64.75 181.036C64.75 201.298 64.75 221.119 64.75 241.381C64.75 243.583 64.75 244.024 66.9524 244.024C71.7976 244.024 70.4762 244.024 70.4762 248.429C70.4762 259 70.4762 269.572 70.4762 279.702C70.4762 281.464 70.0357 281.905 68.2738 281.905C59.0238 281.905 52.4166 281.905 43.6071 281.905C41.8452 281.905 41.4047 281.464 41.4047 279.702C41.4047 275.298 41.4047 270.893 41.4047 266.048C41.4047 264.286 40.9643 263.845 39.2024 263.845C26.4285 263.845 14.9762 263.845 2.20238 263.845C0.440476 263.845 0 263.405 0 261.643C0.440476 248.429 0.440436 234.774 0.440436 221.56Z" fill="black"/>
<path d="M203.059 133.905C203.059 147.119 203.059 160.333 203.059 173.548C203.059 175.309 202.619 176.19 200.417 176.19C194.69 176.19 183.678 175.75 177.512 176.19C175.75 176.19 174.869 175.75 174.869 173.988C174.869 151.964 175.309 130.381 175.309 108.357C175.309 106.595 174.869 106.155 173.107 106.155C171.345 106.155 171.345 107.036 171.345 107.917C170.905 125.095 170.464 142.714 170.024 159.893C170.024 162.976 169.583 166.059 168.262 169.143C166.5 173.988 162.976 176.631 157.69 177.071C154.167 177.512 146.238 177.071 142.274 176.631C140.952 176.19 140.071 175.75 140.071 174.428C140.071 170.464 140.071 166.059 140.071 162.095C140.071 160.774 140.071 160.333 141.833 160.333C143.595 160.774 143.595 159.012 143.595 158.131C144.036 153.286 144.036 148.44 144.036 144.036C144.476 126.857 144.917 110.119 145.797 92.9403C145.797 91.6189 146.238 91.1785 147.559 91.1785C162.095 91.1785 186.321 91.6189 200.857 91.6189C202.619 91.6189 202.619 92.4999 202.619 93.8213C203.059 107.036 203.059 120.25 203.059 133.905Z" fill="black"/>
<path d="M78.4046 272.655L84.1308 271.774H85.0118L84.1308 274.417C85.4522 273.536 86.3332 272.655 87.2141 272.214C88.0951 271.774 88.5356 271.774 89.4165 271.774C90.2975 271.774 91.1784 272.214 92.0594 273.095C92.4999 273.976 92.9403 274.857 92.9403 276.179C92.9403 279.262 91.6189 282.345 89.4165 284.988C87.2141 287.191 85.0118 288.512 82.8094 288.512C82.3689 288.512 81.9284 288.512 81.9284 288.512C81.488 288.512 81.0475 288.072 80.607 288.072L79.7261 291.155C79.2856 292.476 79.2856 292.917 79.2856 293.798C79.2856 294.238 79.2856 294.238 79.7261 294.679C80.1665 294.679 80.607 295.119 81.488 295.119V295.56H72.238V295.119C73.1189 295.119 73.5594 294.679 73.9999 294.238C74.4403 293.798 74.8808 292.917 75.3213 291.155L79.7261 276.619C80.1665 275.738 80.1666 274.857 80.1666 274.417V273.976L79.7261 273.536C79.7261 273.536 79.2856 273.536 78.4046 273.536V272.655ZM81.0475 285.869C81.488 286.31 81.488 286.75 81.9284 287.191C82.3689 287.191 82.3689 287.631 82.8094 287.631C83.2499 287.631 83.6904 287.631 83.6904 287.191C84.1309 287.191 84.5713 286.75 85.0118 285.869C85.4522 285.429 85.8927 284.548 86.3332 283.667C86.7737 282.786 87.2142 281.464 87.6546 280.583C88.0951 279.262 88.0951 278.381 88.0951 277.06C88.0951 276.179 88.0951 275.738 87.6546 275.298C87.2142 274.857 86.7737 274.857 86.3332 274.857C85.8927 274.857 85.4522 274.857 85.0118 275.298C84.5713 275.738 83.6904 276.179 83.2499 277.06L81.0475 285.869Z" fill="black"/>
<path d="M99.9881 281.464C99.9881 282.345 99.9881 282.786 99.9881 283.226C99.9881 284.107 100.429 284.988 100.869 285.429C101.309 285.869 102.19 286.31 103.071 286.31C103.952 286.31 104.833 286.309 105.274 285.869C106.155 285.429 107.036 284.988 107.917 283.667L108.357 284.107C107.036 285.869 105.714 286.75 104.393 287.631C103.071 288.512 101.75 288.512 100.429 288.512C98.6666 288.512 97.3452 288.071 96.4643 287.19C95.5833 286.31 95.5833 284.988 95.5833 284.107C95.5833 282.345 96.0238 280.143 97.3452 278.381C98.6666 276.619 99.988 274.857 101.75 273.976C103.512 272.655 105.714 272.214 107.476 272.214C108.357 272.214 109.238 272.655 109.679 273.095C110.119 273.536 110.559 273.976 110.559 274.857C110.559 275.738 110.119 276.619 109.679 277.5C108.798 278.381 108.357 279.262 107.036 280.143C106.155 280.583 104.833 281.464 103.512 281.464C102.19 281.024 101.31 281.024 99.9881 281.464ZM99.9881 280.583C100.869 280.583 101.75 280.143 102.19 280.143C102.631 279.702 103.512 279.262 103.952 278.821C104.393 278.381 104.833 277.5 105.274 276.619C105.714 275.738 105.714 274.857 105.714 273.976C105.714 273.536 105.714 273.536 105.274 273.095C105.274 273.095 104.833 272.655 104.393 272.655C103.952 272.655 103.071 273.095 102.631 273.976C101.75 275.298 100.869 277.5 99.9881 280.583Z" fill="black"/>
<path d="M122.893 283.667L123.333 284.107C122.012 285.429 121.131 286.31 119.809 287.19C118.488 288.071 116.726 288.512 115.405 288.512C114.524 288.512 113.643 288.071 112.762 287.631C111.881 287.19 111.44 286.75 111 285.869C110.559 284.988 110.559 284.107 110.559 283.226C110.559 281.464 111 279.702 112.321 277.5C113.202 275.738 114.524 274.417 116.286 273.095C118.048 272.214 119.809 271.333 121.131 271.333C122.452 271.333 123.333 271.774 124.214 272.214C124.655 272.655 125.095 273.536 125.095 274.417C125.095 275.298 124.655 275.738 124.214 276.179C123.774 276.619 123.333 277.06 122.452 277.06C122.012 277.06 121.571 277.059 121.131 276.619C120.69 276.179 120.69 275.738 120.69 275.298C120.69 274.857 121.131 273.976 121.571 273.536C122.012 273.095 122.012 273.095 122.012 272.655C122.012 272.655 122.012 272.214 121.571 272.214C121.131 272.214 121.131 271.774 120.69 271.774C119.809 271.774 118.928 272.214 118.048 273.095C116.726 273.976 115.845 275.298 115.405 277.06C114.964 278.821 114.524 280.143 114.524 281.464C114.524 282.786 114.964 283.667 115.405 284.107C115.845 284.988 116.726 284.988 117.607 284.988C118.488 284.988 118.929 284.988 119.809 284.548C121.571 284.988 122.452 284.548 122.893 283.667Z" fill="black"/>
<path d="M135.226 272.214L133.024 279.702C134.345 277.5 135.667 275.738 136.107 275.298C136.988 273.976 137.869 273.536 138.75 273.095C139.19 272.655 140.071 272.655 140.512 272.655C141.393 272.655 141.833 273.095 142.274 273.536C142.714 273.976 142.714 274.417 142.714 274.857C142.714 275.298 142.714 276.179 142.274 277.5L141.393 280.143C142.714 277.94 144.036 276.179 144.476 275.738C145.357 274.417 146.238 273.976 147.119 273.536C147.559 273.095 148 273.095 148.881 273.095C149.321 273.095 150.202 273.095 150.202 273.536C150.643 273.976 150.643 274.417 150.643 275.298C150.643 276.179 150.643 277.059 150.202 277.94L148.44 284.548C148 285.429 148 286.31 148 286.31C148 286.31 148 286.309 148 286.75C148 286.75 148 286.75 148.44 286.75H148.881C149.321 286.309 149.762 285.869 150.202 285.429L150.643 284.988L151.083 285.429C150.202 286.75 149.321 288.071 148.44 288.512C147.559 289.393 146.679 289.393 145.798 289.393C144.917 289.393 144.476 289.393 144.036 288.952C143.595 288.512 143.595 288.071 143.595 287.631C143.595 287.19 143.595 286.309 144.036 285.429L146.238 278.821C146.679 277.94 146.678 277.5 146.678 277.059C146.678 277.059 146.678 277.059 146.678 276.619C146.678 276.619 146.679 276.619 146.238 276.619H145.798C145.357 276.619 145.357 277.06 144.917 277.5C144.476 277.94 143.595 278.821 143.155 280.143C142.274 281.464 141.833 282.345 141.393 283.226C140.952 284.107 140.952 284.988 140.512 285.869L139.631 289.393H135.226L138.309 278.381C138.309 277.94 138.75 277.5 138.75 277.059C138.75 277.059 138.75 277.059 138.75 276.619C138.75 276.619 138.75 276.619 138.309 276.619C137.869 276.619 136.988 277.06 136.107 278.381C134.786 280.143 133.464 282.345 132.143 284.548L130.821 289.393H126.417L129.94 278.381C130.381 277.5 130.381 276.619 130.381 276.179V275.738L129.94 275.298C129.94 275.298 129.5 275.298 128.619 275.298V274.857L134.345 273.976L135.226 272.214Z" fill="black"/>
<path d="M164.738 272.214C165.619 272.214 166.5 272.655 167.381 272.655C168.262 273.095 168.702 273.536 169.143 274.417C169.583 275.298 169.583 276.179 169.583 277.059C169.583 278.821 169.143 280.583 167.821 282.786C166.941 284.548 165.179 286.31 163.857 287.19C162.095 288.071 160.333 288.952 158.571 288.952C156.81 288.952 155.929 288.512 155.048 287.631C154.167 286.75 153.726 285.429 153.726 284.107C153.726 282.345 154.167 281.024 154.607 279.702C155.048 278.381 155.929 277.06 157.25 276.179C158.131 275.298 159.452 274.417 160.774 273.536C162.095 272.655 163.417 272.214 164.738 272.214ZM164.298 273.095C163.857 273.095 162.976 273.095 162.976 273.536C162.095 274.417 161.214 275.738 160.333 278.381C159.452 281.024 159.012 283.226 158.571 285.429C158.571 285.869 158.571 286.309 159.012 286.75C159.452 287.19 159.893 287.19 160.333 287.19C160.774 287.19 161.214 287.19 161.655 286.75C162.095 286.309 162.976 285.429 163.417 284.107C164.298 282.786 164.738 281.024 165.179 279.262C165.619 277.5 166.06 275.738 166.06 274.417C166.06 273.976 166.06 273.536 165.619 273.095C164.738 273.095 164.298 273.095 164.298 273.095Z" fill="black"/>
<path d="M173.547 273.095L179.274 272.214H180.155L179.274 274.857C180.595 273.976 181.476 273.095 182.357 272.655C183.238 272.214 183.678 272.214 184.559 272.214C185.44 272.214 186.321 272.655 187.202 273.536C187.643 274.417 188.083 275.298 188.083 276.619C188.083 279.702 186.762 282.786 184.559 285.429C182.357 287.631 180.155 288.952 177.952 288.952C177.512 288.952 177.071 288.952 177.071 288.952C176.631 288.952 176.19 288.512 175.75 288.512L174.869 291.595C174.428 292.917 174.428 293.357 174.428 294.238C174.428 294.679 174.428 294.679 174.869 295.119C175.309 295.56 175.75 295.559 176.631 295.559V296H167.381V295.559C168.262 295.559 168.702 295.119 169.143 294.679C169.583 294.238 170.024 293.357 170.464 291.595L174.869 277.059C175.309 276.179 175.309 275.298 175.309 274.857V274.417L174.869 273.976C174.869 273.976 174.428 273.976 173.547 273.976V273.095ZM175.75 286.31C176.19 286.75 176.19 287.19 176.631 287.631C177.071 287.631 177.071 288.071 177.512 288.071C177.952 288.071 178.393 288.071 178.393 287.631C178.833 287.631 179.274 287.19 179.714 286.31C180.155 285.869 180.595 284.988 181.036 284.107C181.476 283.226 181.917 281.905 182.357 281.024C182.797 279.702 182.798 278.821 182.798 277.5C182.798 276.619 182.797 276.179 182.357 275.738C181.917 275.298 181.476 275.298 181.036 275.298C180.595 275.298 180.155 275.298 179.714 275.738C179.274 276.179 178.393 276.619 177.952 277.5L175.75 286.31Z" fill="black"/>
<path d="M206.143 272.655L202.619 284.107L202.178 285.429V285.869V286.31C202.178 286.31 202.178 286.31 202.619 286.31C203.059 286.31 203.059 286.31 203.5 285.869C203.5 285.869 203.94 284.988 204.821 284.107L205.262 284.548C204.381 285.869 203.5 287.191 202.619 287.631C201.738 288.512 200.857 288.512 199.535 288.512C199.095 288.512 198.214 288.512 198.214 288.072C197.774 287.631 197.774 287.191 197.774 286.75C197.774 286.31 197.774 285.429 198.214 284.107L198.655 282.786C197.333 284.988 196.012 286.75 194.69 287.631C193.809 288.072 193.369 288.512 192.488 288.512C191.607 288.512 190.726 288.072 190.286 287.191C189.845 286.31 189.405 285.429 189.405 284.107C189.405 282.345 189.845 280.583 190.726 278.381C191.607 276.179 192.928 274.417 194.69 273.536C196.012 272.655 197.333 271.774 198.214 271.774C198.655 271.774 199.535 271.774 199.535 272.214C199.976 272.655 200.417 273.095 200.417 274.417L200.857 272.214L206.143 272.655ZM200.417 275.738C200.417 274.857 200.416 273.976 199.976 273.536C199.976 273.095 199.536 273.095 199.095 273.095C198.655 273.095 198.214 273.095 197.774 273.536C196.893 274.417 196.012 275.738 195.131 277.941C194.25 280.143 193.809 281.905 193.809 283.667C193.809 284.107 193.809 284.548 194.25 284.988C194.25 285.429 194.69 285.429 195.131 285.429C195.571 285.429 196.012 284.988 196.893 284.548C197.774 283.667 198.214 282.786 199.095 281.464C199.976 279.703 200.417 277.5 200.417 275.738Z" fill="black"/>
<path d="M221.119 273.095H225.524L222 284.548C221.56 285.429 221.56 285.869 221.56 285.869C221.56 286.31 221.56 286.31 222 286.31C222.441 286.31 223.322 285.429 224.202 284.107L225.083 284.548C223.762 286.31 222.881 287.631 222 288.071C221.119 288.512 220.238 288.952 219.357 288.952C218.476 288.952 218.036 288.512 217.595 288.512C217.155 288.071 217.155 287.631 217.155 287.191C217.155 286.75 217.155 285.869 217.595 284.548L218.476 281.024H213.631L211.429 288.952H207.024L210.107 277.941C210.548 277.06 210.548 276.179 210.548 275.738C210.548 275.298 210.548 275.298 210.107 274.857C210.107 274.857 209.226 274.417 208.786 274.417V273.976L214.512 273.095H215.393L213.191 280.583H218.036L221.119 273.095Z" fill="black"/>
<path d="M116.286 220.679C115.405 224.643 114.083 228.607 113.202 232.131C111 240.06 108.798 248.429 106.595 256.357C106.155 259 105.274 261.202 104.833 263.845C104.393 265.167 104.393 265.607 103.071 265.607C93.8215 265.607 84.131 265.607 74.881 265.607C73.5596 265.607 73.1191 265.167 73.1191 263.845C73.1191 236.095 73.5596 207.905 73.5596 180.155C73.5596 178.833 74 178.393 75.3215 178.393C83.6905 178.393 92.0596 178.393 99.9881 178.393C101.31 178.393 101.75 178.833 101.31 180.155C99.5477 189.845 97.7857 199.536 96.0238 209.667C95.1429 214.071 94.2619 218.917 93.8214 223.321H94.2619C95.1429 220.679 96.0239 217.595 96.4643 214.952C99.1072 205.702 101.75 196.012 103.952 186.762C104.393 184.56 104.833 182.357 105.274 180.155C105.274 178.833 105.714 178.393 107.036 178.393C116.726 178.393 125.976 178.393 135.667 178.393C136.988 178.393 136.988 178.833 136.988 180.155C136.988 207.905 136.548 236.095 136.548 263.845C136.548 265.167 136.107 265.607 135.226 265.167C126.857 265.167 118.488 265.167 110.119 265.167C108.798 265.167 108.357 264.726 108.798 263.405C111 251.512 113.202 239.619 115.405 227.286C115.845 224.643 116.286 222.441 116.726 219.798L116.286 220.679Z" fill="black"/>
<path d="M140.952 222C140.952 213.19 140.952 204.381 140.952 195.571C140.952 192.048 141.833 188.524 143.595 185C146.238 181.036 149.762 178.833 154.167 177.952C159.012 177.071 163.857 177.071 168.702 178.393C175.75 180.595 180.155 185.881 180.595 192.929C180.595 201.298 180.595 209.667 180.595 218.476C180.595 219.798 180.155 219.798 179.274 219.798C174.429 219.798 169.143 219.798 164.298 219.798C162.536 219.798 162.976 218.917 162.976 218.036C162.976 210.548 162.976 202.619 162.976 195.131C162.976 194.25 162.976 193.809 162.976 192.929C162.976 192.048 162.095 191.607 161.655 191.607C160.774 191.607 160.333 191.607 159.893 192.488C159.452 193.369 159.452 193.809 159.452 194.69C159.452 212.31 159.452 230.369 159.012 247.988C159.012 248.869 159.012 249.309 159.012 250.19C159.012 251.071 159.893 251.512 160.774 251.512C161.655 251.512 162.095 251.071 162.536 250.19C162.536 249.75 162.536 248.869 162.536 248.429C162.536 240.94 162.536 233.012 162.536 225.524C162.536 224.202 162.976 223.321 164.298 223.762C169.143 223.762 173.988 223.762 178.833 223.762C180.155 223.762 180.595 224.202 180.595 225.524C180.595 233.893 180.595 242.262 180.155 250.631C179.714 256.798 177.071 262.083 170.905 264.726C163.857 267.369 156.369 267.369 149.762 264.726C143.155 262.083 140.952 255.917 140.952 249.309C140.952 240.059 140.952 231.25 140.952 222Z" fill="black"/>
</svg>
