<svg width="40" height="33" viewBox="0 0 40 33" fill="none" xmlns="http://www.w3.org/2000/svg">
<g filter="url(#filter0_d)">
<path d="M34.3125 21.25H32.4688V19.0625C32.4688 18.9465 32.4227 18.8352 32.3406 18.7532C32.2586 18.6711 32.1473 18.625 32.0312 18.625H21.75V16.4378H32.0312C32.1473 16.4378 32.2586 16.3917 32.3406 16.3096C32.4227 16.2276 32.4688 16.1163 32.4688 16.0003V11.9368C32.4662 9.83247 31.629 7.81511 30.141 6.32722C28.653 4.83933 26.6355 4.0024 24.5312 4.00002H21.75V3.10552C22.1523 3.07666 22.5276 2.89261 22.7967 2.59222C23.0659 2.29183 23.2077 1.89862 23.1924 1.49559C23.177 1.09257 23.0057 0.711278 22.7145 0.432225C22.4233 0.153172 22.0351 -0.00180429 21.6318 1.58529e-05H18.3682C17.9649 -0.00180429 17.5767 0.153172 17.2855 0.432225C16.9943 0.711278 16.823 1.09257 16.8076 1.49559C16.7923 1.89862 16.9341 2.29183 17.2033 2.59222C17.4724 2.89261 17.8477 3.07666 18.25 3.10552V4.00002H15.4688C13.3643 4.0024 11.3468 4.83943 9.85872 6.32749C8.37067 7.81554 7.53363 9.83309 7.53125 11.9375V16C7.53132 16.116 7.57743 16.2273 7.65946 16.3093C7.7415 16.3913 7.85274 16.4374 7.96875 16.4375H18.25V18.625H7.96875C7.85274 18.6251 7.7415 18.6712 7.65946 18.7532C7.57743 18.8353 7.53132 18.9465 7.53125 19.0625V21.25H5.6875C5.24015 21.2505 4.81128 21.4285 4.49493 21.7448C4.17858 22.0611 4.0006 22.4899 4 22.9373V24.3123C4.00007 24.4283 4.04618 24.5395 4.12821 24.6216C4.21025 24.7036 4.32149 24.7497 4.4375 24.7498H35.5625C35.62 24.7498 35.6768 24.7384 35.7299 24.7165C35.783 24.6945 35.8312 24.6622 35.8719 24.6216C35.9125 24.581 35.9447 24.5328 35.9667 24.4797C35.9887 24.4266 36 24.3697 36 24.3123V22.9373C35.9994 22.4899 35.8214 22.0611 35.5051 21.7448C35.1887 21.4285 34.7598 21.2505 34.3125 21.25V21.25ZM17.6875 1.55602C17.6876 1.37547 17.7593 1.20233 17.8869 1.07464C18.0146 0.946947 18.1877 0.875148 18.3682 0.875016H21.6318C21.7222 0.873282 21.8121 0.889605 21.8962 0.92303C21.9803 0.956456 22.0569 1.00631 22.1215 1.06969C22.1861 1.13306 22.2374 1.20868 22.2725 1.29212C22.3075 1.37556 22.3255 1.46515 22.3255 1.55564C22.3255 1.64614 22.3075 1.73572 22.2725 1.81916C22.2374 1.9026 22.1861 1.97822 22.1215 2.04159C22.0569 2.10497 21.9803 2.15483 21.8962 2.18825C21.8121 2.22168 21.7222 2.238 21.6318 2.23627H18.3682C18.1878 2.23613 18.0148 2.16444 17.8872 2.03691C17.7596 1.90938 17.6878 1.73643 17.6875 1.55602V1.55602ZM19.125 3.12702H20.875V4.00002H19.125V3.12702ZM8.40625 11.9368C8.40857 10.0645 9.15342 8.2695 10.4774 6.94565C11.8014 5.62179 13.5964 4.87713 15.4688 4.87502H24.5312C26.4037 4.87713 28.1988 5.6219 29.5229 6.94591C30.8469 8.26993 31.5916 10.0651 31.5938 11.9375V15.5625H8.40625V11.9368ZM19.125 16.4368H20.875V18.625H19.125V16.4368ZM8.40625 19.5H31.5938V21.25H8.40625V19.5ZM35.125 23.875H4.875V22.9375C4.87526 22.7221 4.96095 22.5156 5.11327 22.3633C5.26558 22.211 5.47209 22.1253 5.6875 22.125H34.3125C34.5279 22.1253 34.7344 22.211 34.8867 22.3633C35.039 22.5156 35.1247 22.7221 35.125 22.9375V23.875Z" fill="black"/>
<path d="M21.615 1.58529e-05H18.3682C18.368 1.48869e-05 18.3678 1.39651e-05 18.3676 1.30874e-05C17.9645 -0.00163975 17.5765 0.153321 17.2855 0.432225C17.2785 0.438952 17.2715 0.445738 17.2647 0.452582C16.9861 0.729672 16.8226 1.10228 16.8076 1.49559C16.8068 1.51565 16.8065 1.53569 16.8065 1.55569L17.125 1.55581M21.615 1.58529e-05L16.8716 2.00002C16.829 1.85737 16.8067 1.70833 16.8065 1.55731L17.125 1.55684M21.615 1.58529e-05L21.6195 0.236266H18.3682V0.875016C18.3669 0.875017 18.3656 0.875022 18.3643 0.87503C18.1886 0.876176 18.0202 0.945169 17.8942 1.06744C17.8918 1.06982 17.8894 1.07222 17.8869 1.07464C17.8702 1.09135 17.8545 1.10883 17.8397 1.12702H17.125V1.50768V1.55581M21.615 1.58529e-05L17.125 2.00002M17.125 1.55581V1.55684M17.125 1.55581L17.6875 1.55602L17.125 1.55684M17.125 1.55684V2.00002M17.125 2.00002H17.8529C17.8546 2.00192 17.8562 2.00382 17.8579 2.00571C17.8673 2.01638 17.8771 2.02679 17.8872 2.03691C17.9866 2.13622 18.1135 2.20168 18.25 2.22584V2.87502M21.6318 0.875016C21.6331 0.874991 21.6344 0.874969 21.6357 0.874952C21.6431 0.874853 21.6505 0.874875 21.6578 0.875016C21.7395 0.87658 21.8202 0.89282 21.8962 0.92303C21.9763 0.954863 22.0496 1.0016 22.1122 1.06072C22.1153 1.06368 22.1184 1.06667 22.1215 1.06969C22.14 1.08783 22.1574 1.10697 22.1737 1.12702H22.6657H22.875V1.50768V1.55564V2.00002H23.1284C23.1712 1.85685 23.1934 1.70723 23.1935 1.55564C23.1935 1.53566 23.1932 1.51564 23.1924 1.49559C23.1853 1.30827 23.1444 1.12565 23.0735 0.955808C22.9948 0.767211 22.879 0.594369 22.7311 0.448348C22.7256 0.442937 22.7201 0.437562 22.7145 0.432225C22.5698 0.293554 22.4011 0.185522 22.2185 0.112146C22.0337 0.0378657 21.8346 -0.000899794 21.6318 1.58529e-05V0.236266H21.6328H21.6509L21.6701 0.236633C21.6576 0.236395 21.6452 0.236332 21.6328 0.236445C21.6325 0.236448 21.6321 0.236452 21.6318 0.236455V0.875016ZM21.6318 0.875016L21.6195 0.236633C21.4613 0.239665 21.3048 0.271137 21.1575 0.329683C20.9945 0.39446 20.8461 0.491082 20.7209 0.613895C20.6412 0.692058 20.572 0.779835 20.5147 0.875016H20.9771H21.3743H21.6318ZM18.25 2.87502V3.10552V3.12702V4.00002H18.1858L18.1694 4.22885C18.1962 4.23085 18.2231 4.23245 18.25 4.23364C18.2888 4.23536 18.3278 4.23624 18.3668 4.23627H18.3682H19.125V4.00002H18.875V3.12702H19.125V3.10552V2.87502V2.63664C18.9051 2.79056 18.6418 2.87482 18.3697 2.87502L18.3692 2.23627H18.3682V2.87502H18.3678H18.2665H18.25ZM18.25 2.87502H17.5402M19.3009 0.622177C19.3775 0.698732 19.4437 0.783742 19.4987 0.875016H19.0483H18.3692L18.3697 0.236266C18.719 0.236522 19.0539 0.375308 19.3009 0.622177Z" stroke="black" stroke-width="4"/>
</g>
<defs>
<filter id="filter0_d" x="0" y="0" width="40" height="32.7498" filterUnits="userSpaceOnUse" color-interpolation-filters="sRGB">
<feFlood flood-opacity="0" result="BackgroundImageFix"/>
<feColorMatrix in="SourceAlpha" type="matrix" values="0 0 0 0 0 0 0 0 0 0 0 0 0 0 0 0 0 0 127 0"/>
<feOffset dy="4"/>
<feGaussianBlur stdDeviation="2"/>
<feColorMatrix type="matrix" values="0 0 0 0 0 0 0 0 0 0 0 0 0 0 0 0 0 0 0.25 0"/>
<feBlend mode="normal" in2="BackgroundImageFix" result="effect1_dropShadow"/>
<feBlend mode="normal" in="SourceGraphic" in2="effect1_dropShadow" result="shape"/>
</filter>
</defs>
</svg>
