<svg width="32" height="34" viewBox="0 0 32 34" fill="none" xmlns="http://www.w3.org/2000/svg">
<path d="M14.7 14.912C14.712 14.876 14.712 14.828 14.712 14.744C14.712 14.648 14.64 14.6 14.508 14.6H14.124C13.944 14.6 13.824 14.732 13.812 14.84L13.5 17H12.228L12.528 14.912C12.54 14.876 12.54 14.828 12.54 14.744C12.54 14.648 12.468 14.6 12.336 14.6H11.952C11.772 14.6 11.652 14.732 11.64 14.84L11.328 17H10.344C10.212 17 10.128 17.084 10.128 17.216V17.72C10.128 17.852 10.212 17.936 10.344 17.936H11.196L10.932 19.796H9.96C9.828 19.796 9.744 19.904 9.744 20.012V20.516C9.744 20.624 9.828 20.732 9.96 20.732H10.8L10.524 22.652C10.512 22.748 10.5 22.82 10.5 22.856C10.5 22.952 10.56 23 10.692 23H11.1C11.28 23 11.388 22.928 11.4 22.772L11.688 20.732H12.972L12.696 22.652C12.684 22.748 12.672 22.82 12.672 22.856C12.672 22.952 12.732 23 12.864 23H13.272C13.452 23 13.56 22.928 13.572 22.772L13.86 20.732H14.844C14.952 20.732 15.06 20.624 15.06 20.516V20.012C15.06 19.904 14.952 19.796 14.844 19.796H13.992L14.268 17.936H15.228C15.336 17.936 15.444 17.852 15.444 17.72V17.216C15.444 17.084 15.336 17 15.228 17H14.4L14.7 14.912ZM13.368 17.936L13.104 19.796H11.82L12.096 17.936H13.368ZM18.4633 14.816C18.3193 14.852 18.2473 14.924 18.2473 15.044V15.548C18.2473 15.692 18.3073 15.764 18.4153 15.764C18.4513 15.764 18.4873 15.764 18.5233 15.752H18.5593L19.8793 15.548V22.076H18.3073C18.1753 22.076 18.0913 22.184 18.0913 22.292V22.784C18.0913 22.916 18.1753 23 18.3073 23H22.4713C22.5793 23 22.6873 22.916 22.6873 22.784V22.292C22.6873 22.184 22.5793 22.076 22.4713 22.076H20.8873V14.816C20.8873 14.684 20.7793 14.6 20.6713 14.6H19.8193L18.4633 14.816Z" fill="black"/>
<path d="M14.9516 0H14.7046C13.7012 0 12.8518 0.807927 12.8518 1.81141V3.55631L7.58775 2.02324C7.43987 1.98014 7.28085 1.99784 7.14638 2.07263C7.01163 2.14772 6.91286 2.27333 6.87146 2.42178L0.0223489 26.0264C-0.0655811 26.3373 0.113705 26.661 0.424029 26.751L24.0295 33.6044C24.3384 33.6943 24.6621 33.5179 24.7543 33.2095L25.4852 30.6955H31.4008C31.7279 30.6932 31.9937 30.4306 32 30.1034V5.52388C32 5.201 31.7236 4.96975 31.4008 4.96975H17.648L16.7984 4.68484V1.81141C16.7984 0.807927 15.9551 0 14.9516 0ZM14.0212 1.81141C14.0212 1.45284 14.3458 1.16935 14.7046 1.16935H14.9516C15.3104 1.16935 15.6291 1.45284 15.6291 1.81141V4.34511L14.0212 3.89575V1.81141ZM25.8249 29.5262L30.8306 12.327V29.5262H25.8249ZM30.8306 6.13911V8.76216L21.6757 6.13911H30.8306ZM30.335 9.83644L23.8011 32.318L1.31589 25.7912L7.85468 3.30908L15.6291 5.56271V9.5521C15.6291 9.91552 15.3344 10.2099 14.9713 10.2099C14.6079 10.2099 14.3135 9.91552 14.3135 9.5521V7.12289C14.3135 6.80001 14.0517 6.53822 13.7289 6.53822C13.406 6.53822 13.1442 6.80001 13.1442 7.12289V9.5521C13.1442 10.5613 13.9621 11.3792 14.9713 11.3792C15.9802 11.3792 16.7984 10.5613 16.7984 9.5521V5.90244L30.335 9.83644Z" fill="black"/>
</svg>
