<svg width="43" height="34" viewBox="0 0 43 34" fill="none" xmlns="http://www.w3.org/2000/svg">
<path d="M14.7 15.912C14.712 15.876 14.712 15.828 14.712 15.744C14.712 15.648 14.64 15.6 14.508 15.6H14.124C13.944 15.6 13.824 15.732 13.812 15.84L13.5 18H12.228L12.528 15.912C12.54 15.876 12.54 15.828 12.54 15.744C12.54 15.648 12.468 15.6 12.336 15.6H11.952C11.772 15.6 11.652 15.732 11.64 15.84L11.328 18H10.344C10.212 18 10.128 18.084 10.128 18.216V18.72C10.128 18.852 10.212 18.936 10.344 18.936H11.196L10.932 20.796H9.96C9.828 20.796 9.744 20.904 9.744 21.012V21.516C9.744 21.624 9.828 21.732 9.96 21.732H10.8L10.524 23.652C10.512 23.748 10.5 23.82 10.5 23.856C10.5 23.952 10.56 24 10.692 24H11.1C11.28 24 11.388 23.928 11.4 23.772L11.688 21.732H12.972L12.696 23.652C12.684 23.748 12.672 23.82 12.672 23.856C12.672 23.952 12.732 24 12.864 24H13.272C13.452 24 13.56 23.928 13.572 23.772L13.86 21.732H14.844C14.952 21.732 15.06 21.624 15.06 21.516V21.012C15.06 20.904 14.952 20.796 14.844 20.796H13.992L14.268 18.936H15.228C15.336 18.936 15.444 18.852 15.444 18.72V18.216C15.444 18.084 15.336 18 15.228 18H14.4L14.7 15.912ZM13.368 18.936L13.104 20.796H11.82L12.096 18.936H13.368ZM18.4633 15.816C18.3193 15.852 18.2473 15.924 18.2473 16.044V16.548C18.2473 16.692 18.3073 16.764 18.4153 16.764C18.4513 16.764 18.4873 16.764 18.5233 16.752H18.5593L19.8793 16.548V23.076H18.3073C18.1753 23.076 18.0913 23.184 18.0913 23.292V23.784C18.0913 23.916 18.1753 24 18.3073 24H22.4713C22.5793 24 22.6873 23.916 22.6873 23.784V23.292C22.6873 23.184 22.5793 23.076 22.4713 23.076H20.8873V15.816C20.8873 15.684 20.7793 15.6 20.6713 15.6H19.8193L18.4633 15.816Z" fill="#7C9870"/>
<path d="M32.7142 3.8715C32.3277 3.47705 31.6945 3.47066 31.3001 3.85722C30.9056 4.24378 30.8992 4.87691 31.2858 5.27136L32.7142 3.8715ZM35.5 8.14286L34.7858 8.84279C34.9784 9.03929 35.2434 9.14777 35.5185 9.14269C35.7936 9.1376 36.0544 9.01939 36.2396 8.8159L35.5 8.14286ZM42.7396 1.67304C43.1113 1.26457 43.0815 0.632105 42.673 0.260395C42.2646 -0.111315 41.6321 -0.0815135 41.2604 0.326959L42.7396 1.67304ZM31.2858 5.27136L34.7858 8.84279L36.2142 7.44293L32.7142 3.8715L31.2858 5.27136ZM36.2396 8.8159L42.7396 1.67304L41.2604 0.326959L34.7604 7.46982L36.2396 8.8159Z" fill="#7C9870"/>
<path d="M14.9516 1H14.7046C13.7012 1 12.8518 1.80793 12.8518 2.81141V4.55631L7.58775 3.02324C7.43987 2.98014 7.28085 2.99784 7.14638 3.07263C7.01163 3.14772 6.91286 3.27333 6.87146 3.42178L0.0223489 27.0264C-0.0655811 27.3373 0.113705 27.661 0.424029 27.751L24.0295 34.6044C24.3384 34.6943 24.6621 34.5179 24.7543 34.2095L25.4852 31.6955H31.4008C31.7279 31.6932 31.9937 31.4306 32 31.1034V6.52388C32 6.201 31.7236 5.96975 31.4008 5.96975H17.648L16.7984 5.68484V2.81141C16.7984 1.80793 15.9551 1 14.9516 1ZM14.0212 2.81141C14.0212 2.45284 14.3458 2.16935 14.7046 2.16935H14.9516C15.3104 2.16935 15.6291 2.45284 15.6291 2.81141V5.34511L14.0212 4.89575V2.81141ZM25.8249 30.5262L30.8306 13.327V30.5262H25.8249ZM30.8306 7.13911V9.76216L21.6757 7.13911H30.8306ZM30.335 10.8364L23.8011 33.318L1.31589 26.7912L7.85468 4.30908L15.6291 6.56271V10.5521C15.6291 10.9155 15.3344 11.2099 14.9713 11.2099C14.6079 11.2099 14.3135 10.9155 14.3135 10.5521V8.12289C14.3135 7.80001 14.0517 7.53822 13.7289 7.53822C13.406 7.53822 13.1442 7.80001 13.1442 8.12289V10.5521C13.1442 11.5613 13.9621 12.3792 14.9713 12.3792C15.9802 12.3792 16.7984 11.5613 16.7984 10.5521V6.90244L30.335 10.8364Z" fill="#7C9870"/>
</svg>
