<svg width="99" height="125" viewBox="0 0 99 125" fill="none" xmlns="http://www.w3.org/2000/svg">
<path d="M75.7484 18.6012C75.7484 12.8349 75.7484 7.0685 75.7484 1.30213C75.7484 0.558082 75.9344 0.37207 76.6785 0.37207C81.8868 0.37207 87.2812 0.37207 92.4895 0.37207C93.2335 0.37207 93.4196 0.558082 93.4196 1.30213C93.4196 2.79023 93.4196 4.46433 93.4196 5.95243C93.4196 6.69648 93.2335 6.88248 92.4895 6.69646C90.4434 6.69646 88.2112 6.69646 86.1651 6.69646C85.235 6.69646 85.049 6.88249 85.235 7.81255C85.235 9.30064 85.235 10.6027 85.235 12.0908C85.235 12.8349 85.421 13.0209 86.1651 13.0209C88.0252 13.0209 89.6993 13.2069 91.5594 13.7649C93.7916 14.509 95.0937 16.3691 95.0937 18.7872C95.0937 22.8795 95.0937 27.1578 95.0937 31.25C95.0937 33.8542 93.7916 35.3423 91.3734 36.0864C89.5133 36.6444 87.6532 36.8304 85.793 36.8304C82.8169 36.8304 79.6547 36.8304 76.6785 36.8304C75.9344 36.8304 75.7484 36.6444 75.7484 35.9003C75.7484 30.134 75.7484 24.3676 75.7484 18.6012ZM84.677 24.3676C84.677 26.4137 84.677 28.6459 84.677 30.692C84.677 30.878 84.491 31.25 85.049 31.4361C85.421 31.4361 85.9791 31.4361 86.1651 30.878C86.1651 30.692 86.1651 30.32 86.1651 30.134C86.1651 26.4137 86.1651 22.5075 86.1651 18.7872C86.1651 18.6012 86.1651 18.4152 86.1651 18.2292C86.1651 17.6712 85.607 17.4852 85.235 17.4852C84.677 17.4852 84.863 17.8572 84.863 18.2292C84.677 20.2753 84.677 22.3215 84.677 24.3676Z" fill="black" fill-opacity="0.3"/>
<path d="M81.7009 97.2843C81.7009 92.634 81.7009 87.9837 81.7009 83.3334C81.7009 82.5894 81.5149 82.4033 80.3989 82.4033C79.2828 82.4033 77.9807 82.7754 77.2367 82.2173C76.8646 81.8453 77.0506 80.7293 77.0506 79.9852C77.0506 78.6831 77.0506 77.567 77.0506 76.265C77.0506 75.7069 77.2367 75.5209 77.9807 75.5209C84.6771 75.5209 91.3736 75.5209 98.07 75.5209C98.8141 75.5209 99.0001 75.7069 99.0001 76.265C99.0001 78.1251 99.0001 79.7992 99.0001 81.6593C99.0001 82.2173 98.628 82.4033 97.884 82.4033C97.1399 82.4033 96.3959 82.4033 95.6518 82.4033C94.7218 82.4033 94.3498 82.5894 94.3498 83.3334C94.3498 83.8914 94.3498 84.4495 94.3498 85.0075C94.3498 93.7501 94.3498 102.493 94.3498 111.049C94.3498 111.793 93.9777 112.165 92.8617 111.979C89.3274 111.979 85.9792 111.979 82.445 111.979C81.3289 111.979 81.1429 111.793 81.1429 111.049C81.7009 106.585 81.7009 101.935 81.7009 97.2843Z" fill="black" fill-opacity="0.3"/>
<path d="M94.9077 56.5476C94.9077 62.1279 94.9077 67.8943 94.9077 73.4747C94.9077 74.2187 94.7217 74.4047 93.6056 74.4047C91.9315 74.4047 90.0714 74.4047 88.2113 74.4047C87.4672 74.4047 87.0952 74.2187 87.2812 73.6607C87.2812 72.1726 87.2812 70.6845 87.2812 69.3824C87.2812 59.5238 87.2812 49.4791 87.2812 39.6205C87.2812 38.6904 87.6533 38.5044 88.7693 38.5044C90.2574 38.5044 91.7455 38.5044 93.2336 38.5044C94.9077 38.5044 94.9077 38.5044 94.9077 39.6205C94.9077 45.2009 94.9077 50.7812 94.9077 56.5476Z" fill="black" fill-opacity="0.3"/>
<path d="M0.227621 37.0164C0.227621 25.2976 0.227621 13.7649 0.227621 2.04611C0.227621 0.372007 0.599656 0 2.27376 0C20.1309 0 38.1741 0.186012 56.0312 0C57.7053 0 58.0774 0.558019 58.0774 2.04611C58.0774 25.1116 57.8913 48.3631 57.8913 71.4286C57.8913 72.9167 57.7053 73.6607 55.8452 73.6607C48.0327 73.4747 40.2202 73.4747 32.4077 73.6607C30.7336 73.6607 30.3616 73.2887 30.3616 71.6146C30.3616 54.3155 30.5476 36.8304 30.5476 19.5313C30.5476 18.6012 30.9196 17.6711 29.2455 17.6711C27.7574 17.6711 27.3854 18.0432 27.3854 19.5313C27.3854 36.8304 27.3854 54.1295 27.3854 71.4286C27.3854 73.1027 27.0134 73.8467 25.1532 73.6607C17.3407 73.4747 9.71425 73.4747 1.90175 73.6607C0.41365 73.6607 0.041626 73.2887 0.041626 71.8006C0.227638 60.2679 0.227621 48.7351 0.227621 37.0164Z" fill="black" fill-opacity="0.3"/>
<path d="M67.1919 19.5313C67.3779 16.9272 67.5639 14.137 67.7499 11.5328C67.9359 7.99857 68.3079 4.65034 68.494 1.11611C68.494 0.558071 68.68 0.558065 69.238 0.558065C70.9121 0.558065 72.5862 0.558065 74.4464 0.558065C75.0044 0.558065 75.1904 0.744094 75.1904 1.30213C75.0044 3.34826 74.8184 5.39439 74.6324 7.25451C74.2603 11.7188 73.7023 15.9971 73.3303 20.4614C72.9583 23.9956 72.5862 27.3438 72.2142 30.878C72.0282 32.1801 71.6562 33.4822 70.9121 34.5983C69.796 36.2724 68.308 37.0165 66.4478 37.2025C65.3318 37.2025 64.0297 37.2025 62.9136 37.0164C62.3556 37.0164 62.1696 36.6444 62.1696 36.0864C62.1696 34.9703 61.9835 33.6682 61.9835 32.5522C61.9835 31.9941 61.9835 31.9941 62.5416 31.9941C63.4716 31.9941 64.4017 31.9941 65.3318 31.9941C66.0758 31.9941 66.6338 31.6221 66.8199 30.878C67.1919 29.762 67.0059 28.6459 67.1919 27.5298C67.1919 26.9718 66.8198 27.1578 66.6338 27.1578C65.5178 27.1578 64.2157 27.1578 63.0996 26.9718C62.5416 26.9718 62.3556 26.7858 62.3556 26.2277C61.7975 19.1593 61.4255 12.0908 60.8675 5.02237C60.6815 3.72029 60.6815 2.41819 60.6815 1.11611C60.6815 0.558071 60.8675 0.37207 61.2395 0.37207C63.0996 0.37207 64.9597 0.37207 66.6338 0.37207C67.3779 0.37207 67.5639 0.558082 67.5639 1.30213C67.5639 6.88249 67.7499 12.6488 67.7499 18.2292C67.0059 18.7872 67.0059 19.1593 67.1919 19.5313C67.0059 19.5313 67.1919 19.5313 67.1919 19.5313Z" fill="black" fill-opacity="0.3"/>
<path d="M0.227621 93.5641C0.227621 87.7977 0.227621 82.2173 0.227621 76.451C0.227621 75.5209 0.413644 75.3349 1.3437 75.5209C5.06395 75.5209 8.41217 75.5209 12.1324 75.5209C12.8765 75.5209 13.0625 75.7069 13.0625 76.451C13.0625 85.0075 13.0625 93.5641 13.0625 102.121C13.0625 102.865 13.2485 103.051 13.9925 103.051C14.7366 103.051 14.5505 102.493 14.5505 102.121C14.5505 93.5641 14.5505 85.1935 14.5505 76.637C14.5505 75.5209 14.5506 75.5209 15.6666 75.5209C19.3869 75.5209 22.7351 75.5209 26.4553 75.5209C27.1994 75.5209 27.3854 75.7069 27.3854 76.451C27.3854 85.0075 27.3854 93.378 27.3854 101.935C27.3854 102.865 27.3854 103.051 28.3155 103.051C30.3616 103.051 29.8036 103.051 29.8036 104.911C29.8036 109.375 29.8036 113.839 29.8036 118.118C29.8036 118.862 29.6175 119.048 28.8735 119.048C24.9672 119.048 22.177 119.048 18.4568 119.048C17.7128 119.048 17.5267 118.862 17.5267 118.118C17.5267 116.258 17.5267 114.397 17.5267 112.351C17.5267 111.607 17.3407 111.421 16.5967 111.421C11.2023 111.421 6.36604 111.421 0.971686 111.421C0.227638 111.421 0.041626 111.235 0.041626 110.491C0.227638 104.911 0.227621 99.1444 0.227621 93.5641Z" fill="black" fill-opacity="0.3"/>
<path d="M85.7931 56.5476C85.7931 62.128 85.7931 67.7083 85.7931 73.2887C85.7931 74.0327 85.6071 74.4048 84.677 74.4048C82.2589 74.4048 77.6085 74.2188 75.0044 74.4048C74.2603 74.4048 73.8883 74.2188 73.8883 73.4747C73.8883 64.1741 74.0743 55.0595 74.0743 45.7589C74.0743 45.0149 73.8883 44.8288 73.1443 44.8288C72.4002 44.8288 72.4002 45.2009 72.4002 45.5729C72.2142 52.8274 72.0282 60.2678 71.8422 67.5223C71.8422 68.8244 71.6562 70.1265 71.0981 71.4286C70.3541 73.4747 68.866 74.5908 66.6338 74.7768C65.1457 74.9628 61.7975 74.7768 60.1234 74.5908C59.5654 74.4048 59.1934 74.2187 59.1934 73.6607C59.1934 71.9866 59.1934 70.1265 59.1934 68.4524C59.1934 67.8943 59.1934 67.7083 59.9374 67.7083C60.6815 67.8943 60.6815 67.1503 60.6815 66.7783C60.8675 64.7321 60.8675 62.686 60.8675 60.8259C61.0535 53.5714 61.2395 46.5029 61.6115 39.2485C61.6115 38.6904 61.7975 38.5044 62.3556 38.5044C68.494 38.5044 78.7246 38.6904 84.863 38.6904C85.6071 38.6904 85.6071 39.0625 85.6071 39.6205C85.7931 45.2009 85.7931 50.7812 85.7931 56.5476Z" fill="black" fill-opacity="0.3"/>
<path d="M33.1517 115.141L35.5699 114.769H35.9419L35.5699 115.886C36.1279 115.514 36.4999 115.141 36.8719 114.955C37.244 114.769 37.43 114.769 37.802 114.769C38.174 114.769 38.5461 114.955 38.9181 115.328C39.1041 115.7 39.2901 116.072 39.2901 116.63C39.2901 117.932 38.7321 119.234 37.802 120.35C36.8719 121.28 35.9419 121.838 35.0118 121.838C34.8258 121.838 34.6398 121.838 34.6398 121.838C34.4538 121.838 34.2678 121.652 34.0818 121.652L33.7097 122.954C33.5237 123.512 33.5237 123.698 33.5237 124.07C33.5237 124.256 33.5237 124.256 33.7097 124.442C33.8958 124.442 34.0818 124.628 34.4538 124.628V124.814H30.5475V124.628C30.9196 124.628 31.1056 124.442 31.2916 124.256C31.4776 124.07 31.6636 123.698 31.8496 122.954L33.7097 116.816C33.8958 116.444 33.8958 116.072 33.8958 115.886V115.7L33.7097 115.514C33.7097 115.514 33.5237 115.514 33.1517 115.514V115.141ZM34.2678 120.722C34.4538 120.908 34.4538 121.094 34.6398 121.28C34.8258 121.28 34.8258 121.466 35.0118 121.466C35.1978 121.466 35.3839 121.466 35.3839 121.28C35.5699 121.28 35.7559 121.094 35.9419 120.722C36.1279 120.536 36.3139 120.164 36.4999 119.792C36.6859 119.42 36.872 118.862 37.058 118.49C37.244 117.932 37.244 117.56 37.244 117.002C37.244 116.63 37.244 116.444 37.058 116.258C36.872 116.072 36.6859 116.072 36.4999 116.072C36.3139 116.072 36.1279 116.072 35.9419 116.258C35.7559 116.444 35.3839 116.63 35.1978 117.002L34.2678 120.722Z" fill="black" fill-opacity="0.3"/>
<path d="M42.2664 118.862C42.2664 119.234 42.2664 119.42 42.2664 119.606C42.2664 119.978 42.4524 120.35 42.6384 120.536C42.8244 120.722 43.1964 120.908 43.5684 120.908C43.9405 120.908 44.3125 120.908 44.4985 120.722C44.8705 120.536 45.2426 120.35 45.6146 119.792L45.8006 119.978C45.2426 120.722 44.6845 121.094 44.1265 121.466C43.5685 121.838 43.0104 121.838 42.4524 121.838C41.7083 121.838 41.1503 121.652 40.7783 121.28C40.4062 120.908 40.4062 120.35 40.4062 119.978C40.4062 119.234 40.5923 118.304 41.1503 117.56C41.7083 116.816 42.2664 116.071 43.0104 115.699C43.7545 115.141 44.6845 114.955 45.4286 114.955C45.8006 114.955 46.1726 115.141 46.3586 115.327C46.5446 115.513 46.7306 115.699 46.7306 116.071C46.7306 116.444 46.5446 116.816 46.3586 117.188C45.9866 117.56 45.8006 117.932 45.2425 118.304C44.8705 118.49 44.3125 118.862 43.7545 118.862C43.1964 118.676 42.8244 118.676 42.2664 118.862ZM42.2664 118.49C42.6384 118.49 43.0104 118.304 43.1964 118.304C43.3824 118.118 43.7545 117.932 43.9405 117.746C44.1265 117.56 44.3125 117.188 44.4985 116.816C44.6845 116.443 44.6845 116.071 44.6845 115.699C44.6845 115.513 44.6845 115.513 44.4985 115.327C44.4985 115.327 44.3125 115.141 44.1265 115.141C43.9405 115.141 43.5684 115.327 43.3824 115.699C43.0104 116.257 42.6384 117.188 42.2664 118.49Z" fill="black" fill-opacity="0.3"/>
<path d="M51.9389 119.792L52.125 119.978C51.5669 120.536 51.1949 120.908 50.6369 121.28C50.0788 121.652 49.3348 121.838 48.7767 121.838C48.4047 121.838 48.0327 121.652 47.6607 121.466C47.2886 121.28 47.1026 121.094 46.9166 120.722C46.7306 120.35 46.7306 119.978 46.7306 119.606C46.7306 118.862 46.9166 118.118 47.4747 117.188C47.8467 116.444 48.4047 115.885 49.1488 115.327C49.8928 114.955 50.6369 114.583 51.1949 114.583C51.7529 114.583 52.1249 114.769 52.497 114.955C52.683 115.141 52.869 115.513 52.869 115.885C52.869 116.257 52.683 116.444 52.497 116.63C52.311 116.816 52.1249 117.002 51.7529 117.002C51.5669 117.002 51.3809 117.002 51.1949 116.816C51.0089 116.629 51.0089 116.444 51.0089 116.257C51.0089 116.071 51.1949 115.699 51.3809 115.513C51.5669 115.327 51.5669 115.327 51.5669 115.141C51.5669 115.141 51.5669 114.955 51.3809 114.955C51.1949 114.955 51.1949 114.769 51.0089 114.769C50.6368 114.769 50.2648 114.955 49.8928 115.327C49.3348 115.699 48.9627 116.257 48.7767 117.002C48.5907 117.746 48.4047 118.304 48.4047 118.862C48.4047 119.42 48.5907 119.792 48.7767 119.978C48.9627 120.35 49.3348 120.35 49.7068 120.35C50.0788 120.35 50.2648 120.35 50.6369 120.164C51.3809 120.35 51.7529 120.164 51.9389 119.792Z" fill="black" fill-opacity="0.3"/>
<path d="M57.1472 114.955L56.2172 118.118C56.7752 117.188 57.3332 116.444 57.5193 116.258C57.8913 115.699 58.2633 115.513 58.6353 115.327C58.8214 115.141 59.1934 115.141 59.3794 115.141C59.7514 115.141 59.9374 115.327 60.1234 115.513C60.3094 115.699 60.3094 115.885 60.3094 116.071C60.3094 116.257 60.3094 116.63 60.1234 117.188L59.7514 118.304C60.3094 117.374 60.8675 116.63 61.0535 116.443C61.4255 115.885 61.7975 115.699 62.1696 115.513C62.3556 115.327 62.5416 115.327 62.9136 115.327C63.0996 115.327 63.4716 115.327 63.4716 115.513C63.6576 115.699 63.6577 115.885 63.6577 116.258C63.6577 116.63 63.6576 117.002 63.4716 117.374L62.7276 120.164C62.5416 120.536 62.5416 120.908 62.5416 120.908C62.5416 120.908 62.5416 120.908 62.5416 121.094C62.5416 121.094 62.5416 121.094 62.7276 121.094H62.9136C63.0996 120.908 63.2856 120.722 63.4716 120.536L63.6577 120.35L63.8437 120.536C63.4716 121.094 63.0996 121.652 62.7276 121.838C62.3556 122.21 61.9835 122.21 61.6115 122.21C61.2395 122.21 61.0535 122.21 60.8675 122.024C60.6815 121.838 60.6815 121.652 60.6815 121.466C60.6815 121.28 60.6815 120.908 60.8675 120.536L61.7975 117.746C61.9836 117.374 61.9835 117.188 61.9835 117.002C61.9835 117.002 61.9835 117.002 61.9835 116.816C61.9835 116.816 61.9836 116.816 61.7975 116.816H61.6115C61.4255 116.816 61.4255 117.002 61.2395 117.188C61.0535 117.374 60.6815 117.746 60.4955 118.304C60.1234 118.862 59.9374 119.234 59.7514 119.606C59.5654 119.978 59.5654 120.35 59.3794 120.722L59.0074 122.21H57.1472L58.4493 117.56C58.4493 117.374 58.6353 117.188 58.6353 117.002C58.6353 117.002 58.6353 117.002 58.6353 116.816C58.6353 116.816 58.6353 116.816 58.4493 116.816C58.2633 116.816 57.8913 117.002 57.5193 117.56C56.9612 118.304 56.4032 119.234 55.8452 120.164L55.2871 122.21H53.427L54.9151 117.56C55.1011 117.188 55.1011 116.816 55.1011 116.63V116.443L54.9151 116.258C54.9151 116.258 54.7291 116.258 54.3571 116.258V116.071L56.7752 115.699L57.1472 114.955Z" fill="black" fill-opacity="0.3"/>
<path d="M69.6102 114.955C69.9822 114.955 70.3543 115.141 70.7263 115.141C71.0983 115.327 71.2843 115.513 71.4703 115.885C71.6563 116.257 71.6563 116.63 71.6563 117.002C71.6563 117.746 71.4703 118.49 70.9123 119.42C70.5403 120.164 69.7962 120.908 69.2382 121.28C68.4941 121.652 67.7501 122.024 67.006 122.024C66.262 122.024 65.89 121.838 65.5179 121.466C65.1459 121.094 64.9599 120.536 64.9599 119.978C64.9599 119.234 65.1459 118.676 65.3319 118.118C65.5179 117.56 65.89 117.002 66.448 116.63C66.82 116.257 67.3781 115.885 67.9361 115.513C68.4941 115.141 69.0522 114.955 69.6102 114.955ZM69.4242 115.327C69.2382 115.327 68.8662 115.327 68.8662 115.513C68.4941 115.885 68.1221 116.444 67.7501 117.56C67.3781 118.676 67.1921 119.606 67.006 120.536C67.006 120.722 67.006 120.908 67.192 121.094C67.3781 121.28 67.5641 121.28 67.7501 121.28C67.9361 121.28 68.1221 121.28 68.3081 121.094C68.4941 120.908 68.8661 120.536 69.0522 119.978C69.4242 119.42 69.6102 118.676 69.7962 117.932C69.9822 117.188 70.1682 116.443 70.1682 115.885C70.1682 115.699 70.1682 115.513 69.9822 115.327C69.6102 115.327 69.4242 115.327 69.4242 115.327Z" fill="black" fill-opacity="0.3"/>
<path d="M73.3304 115.327L75.7485 114.955H76.1205L75.7485 116.071C76.3065 115.699 76.6786 115.327 77.0506 115.141C77.4226 114.955 77.6086 114.955 77.9807 114.955C78.3527 114.955 78.7247 115.141 79.0967 115.513C79.2827 115.885 79.4688 116.257 79.4688 116.816C79.4688 118.118 78.9107 119.42 77.9807 120.536C77.0506 121.466 76.1205 122.024 75.1905 122.024C75.0045 122.024 74.8185 122.024 74.8185 122.024C74.6324 122.024 74.4464 121.838 74.2604 121.838L73.8884 123.14C73.7024 123.698 73.7024 123.884 73.7024 124.256C73.7024 124.442 73.7024 124.442 73.8884 124.628C74.0744 124.814 74.2604 124.814 74.6324 124.814V125H70.7262V124.814C71.0982 124.814 71.2842 124.628 71.4702 124.442C71.6562 124.256 71.8423 123.884 72.0283 123.14L73.8884 117.002C74.0744 116.63 74.0744 116.257 74.0744 116.071V115.885L73.8884 115.699C73.8884 115.699 73.7024 115.699 73.3304 115.699V115.327ZM74.2604 120.908C74.4464 121.094 74.4464 121.28 74.6324 121.466C74.8184 121.466 74.8184 121.652 75.0044 121.652C75.1905 121.652 75.3765 121.652 75.3765 121.466C75.5625 121.466 75.7485 121.28 75.9345 120.908C76.1205 120.722 76.3065 120.35 76.4925 119.978C76.6786 119.606 76.8646 119.048 77.0506 118.676C77.2366 118.118 77.2366 117.746 77.2366 117.188C77.2366 116.816 77.2366 116.63 77.0506 116.444C76.8646 116.257 76.6786 116.258 76.4925 116.258C76.3065 116.258 76.1205 116.257 75.9345 116.444C75.7485 116.63 75.3765 116.816 75.1905 117.188L74.2604 120.908Z" fill="black" fill-opacity="0.3"/>
<path d="M87.0951 115.141L85.607 119.978L85.421 120.536V120.722V120.908C85.421 120.908 85.421 120.908 85.607 120.908C85.793 120.908 85.793 120.908 85.979 120.722C85.979 120.722 86.1651 120.35 86.5371 119.978L86.7231 120.164C86.3511 120.722 85.9791 121.28 85.607 121.466C85.235 121.838 84.863 121.838 84.3049 121.838C84.1189 121.838 83.7469 121.838 83.7469 121.652C83.5609 121.466 83.5609 121.28 83.5609 121.094C83.5609 120.908 83.5609 120.536 83.7469 119.978L83.9329 119.42C83.3749 120.35 82.8168 121.094 82.2588 121.466C81.8868 121.652 81.7008 121.838 81.3288 121.838C80.9567 121.838 80.5847 121.652 80.3987 121.28C80.2127 120.908 80.0267 120.536 80.0267 119.978C80.0267 119.234 80.2127 118.49 80.5847 117.56C80.9567 116.63 81.5148 115.886 82.2588 115.514C82.8168 115.141 83.3749 114.769 83.7469 114.769C83.9329 114.769 84.3049 114.769 84.3049 114.955C84.4909 115.141 84.677 115.327 84.677 115.886L84.863 114.955L87.0951 115.141ZM84.677 116.444C84.677 116.072 84.677 115.7 84.4909 115.514C84.4909 115.327 84.3049 115.328 84.1189 115.328C83.9329 115.328 83.7469 115.327 83.5609 115.514C83.1889 115.886 82.8168 116.444 82.4448 117.374C82.0728 118.304 81.8868 119.048 81.8868 119.792C81.8868 119.978 81.8868 120.164 82.0728 120.35C82.0728 120.536 82.2588 120.536 82.4448 120.536C82.6308 120.536 82.8168 120.35 83.1889 120.164C83.5609 119.792 83.7469 119.42 84.1189 118.862C84.491 118.118 84.677 117.188 84.677 116.444Z" fill="black" fill-opacity="0.3"/>
<path d="M93.4197 115.327H95.2798L93.7917 120.164C93.6057 120.536 93.6057 120.722 93.6057 120.722C93.6057 120.908 93.6057 120.908 93.7917 120.908C93.9777 120.908 94.3497 120.536 94.7217 119.978L95.0938 120.164C94.5357 120.908 94.1637 121.466 93.7917 121.652C93.4197 121.838 93.0476 122.024 92.6756 122.024C92.3036 122.024 92.1176 121.838 91.9316 121.838C91.7456 121.652 91.7455 121.466 91.7455 121.28C91.7455 121.094 91.7456 120.722 91.9316 120.164L92.3036 118.676H90.2575L89.3274 122.024H87.4673L88.7694 117.374C88.9554 117.002 88.9554 116.63 88.9554 116.444C88.9554 116.258 88.9554 116.258 88.7694 116.071C88.7694 116.071 88.3973 115.885 88.2113 115.885V115.699L90.6295 115.327H91.0015L90.0714 118.49H92.1176L93.4197 115.327Z" fill="black" fill-opacity="0.3"/>
<path d="M49.1489 93.192C48.7768 94.8661 48.2188 96.5402 47.8468 98.0283C46.9167 101.377 45.9867 104.911 45.0566 108.259C44.8706 109.375 44.4985 110.305 44.3125 111.421C44.1265 111.979 44.1265 112.165 43.5685 112.165C39.6622 112.165 35.57 112.165 31.6637 112.165C31.1057 112.165 30.9197 111.979 30.9197 111.421C30.9197 99.7024 31.1057 87.7977 31.1057 76.0789C31.1057 75.5209 31.2917 75.3349 31.8497 75.3349C35.384 75.3349 38.9182 75.3349 42.2664 75.3349C42.8245 75.3349 43.0105 75.5209 42.8245 76.0789C42.0804 80.1712 41.3363 84.2634 40.5923 88.5417C40.2203 90.4018 39.8482 92.448 39.6622 94.3081H39.8483C40.2203 93.192 40.5923 91.8899 40.7783 90.7739C41.8944 86.8676 43.0105 82.7753 43.9405 78.8691C44.1265 77.939 44.3125 77.009 44.4986 76.0789C44.4986 75.5209 44.6846 75.3349 45.2426 75.3349C49.3349 75.3349 53.2411 75.3349 57.3334 75.3349C57.8914 75.3349 57.8914 75.5209 57.8914 76.0789C57.8914 87.7977 57.7054 99.7024 57.7054 111.421C57.7054 111.979 57.5194 112.165 57.1474 111.979C53.6131 111.979 50.0789 111.979 46.5447 111.979C45.9867 111.979 45.8006 111.793 45.9867 111.235C46.9167 106.213 47.8468 101.191 48.7768 95.9822C48.9629 94.8661 49.1489 93.9361 49.3349 92.82L49.1489 93.192Z" fill="black" fill-opacity="0.3"/>
<path d="M59.5655 93.75C59.5655 90.0298 59.5655 86.3095 59.5655 82.5893C59.5655 81.1012 59.9375 79.6131 60.6815 78.125C61.7976 76.4509 63.2857 75.5208 65.1458 75.1488C67.192 74.7768 69.2381 74.7768 71.2842 75.3348C74.2604 76.2649 76.1206 78.497 76.3066 81.4732C76.3066 85.0074 76.3066 88.5417 76.3066 92.2619C76.3066 92.82 76.1205 92.82 75.7485 92.82C73.7024 92.82 71.4702 92.82 69.4241 92.82C68.6801 92.82 68.8661 92.448 68.8661 92.0759C68.8661 88.9137 68.8661 85.5655 68.8661 82.4033C68.8661 82.0313 68.8661 81.8452 68.8661 81.4732C68.8661 81.1012 68.4941 80.9152 68.308 80.9152C67.936 80.9152 67.75 80.9152 67.564 81.2872C67.378 81.6592 67.378 81.8453 67.378 82.2173C67.378 89.6578 67.378 97.2842 67.192 104.725C67.192 105.097 67.192 105.283 67.192 105.655C67.192 106.027 67.564 106.213 67.936 106.213C68.3081 106.213 68.4941 106.027 68.6801 105.655C68.6801 105.469 68.6801 105.097 68.6801 104.911C68.6801 101.749 68.6801 98.4003 68.6801 95.2381C68.6801 94.6801 68.8661 94.3081 69.4241 94.4941C71.4702 94.4941 73.5164 94.4941 75.5625 94.4941C76.1205 94.4941 76.3066 94.6801 76.3066 95.2381C76.3066 98.7724 76.3066 102.307 76.1205 105.841C75.9345 108.445 74.8184 110.677 72.2143 111.793C69.2381 112.909 66.0759 112.909 63.2857 111.793C60.4956 110.677 59.5655 108.073 59.5655 105.283C59.5655 101.377 59.5655 97.6563 59.5655 93.75Z" fill="black" fill-opacity="0.3"/>
</svg>
