<svg width="130" height="31" viewBox="0 0 130 31" fill="none" xmlns="http://www.w3.org/2000/svg">
<path d="M70.3052 14.3767C70.3052 10.0136 70.3052 5.55133 70.3052 1.18825C70.3052 0.593284 70.5035 0.494126 70.9993 0.494126C72.9825 0.494126 74.8666 0.494126 76.8498 0.494126C77.4448 0.494126 77.5439 0.692445 77.5439 1.18825C77.5439 8.427 77.5439 15.6658 77.5439 22.9045C77.5439 23.4003 77.5439 23.5986 78.1389 23.5986C78.7339 23.5986 78.6347 23.3012 78.6347 22.9045C78.6347 15.6658 78.6347 8.52617 78.6347 1.28742C78.6347 0.59329 78.7339 0.394958 79.5272 0.394958C81.4112 0.49412 83.2953 0.49412 85.1793 0.394958C85.7743 0.394958 85.8735 0.593284 85.8735 1.18825C85.8735 8.32784 85.8735 15.5666 85.8735 22.7062C85.8735 23.4003 86.0718 23.6978 86.7659 23.4995C86.9642 23.4995 87.0634 23.4995 87.2617 23.4995C87.6584 23.4003 87.7575 23.5986 87.7575 23.9953C87.7575 27.0693 87.7575 27.1684 87.7575 30.1433C87.7575 30.6391 87.6584 30.7382 87.1626 30.7382C85.1793 30.7382 83.0969 30.7382 81.1137 30.7382C80.6179 30.7382 80.5188 30.6391 80.5188 30.1433C80.5188 28.755 80.5188 30.3416 80.5188 28.8542C80.5188 28.2592 80.3204 28.16 79.8246 28.16C76.949 28.16 73.9741 28.16 71.0985 28.16C70.5035 28.16 70.4043 27.9617 70.4043 27.4659C70.3052 23.3012 70.3052 18.8389 70.3052 14.3767Z" fill="black"/>
<path d="M108.78 14.3749C108.78 16.7548 108.78 19.2338 108.78 21.6137C108.78 21.812 108.78 22.0103 108.78 22.2087C108.78 22.6053 108.978 22.8036 109.374 22.8036C109.771 22.8036 109.969 22.6053 109.969 22.1095C109.969 21.1179 109.969 20.1263 109.969 19.1347C109.969 17.9447 109.969 16.7548 109.969 15.4657C109.969 15.0691 110.069 14.8707 110.465 14.8707C112.647 14.8707 114.729 14.8707 116.911 14.8707C117.208 14.8707 117.406 14.9699 117.406 15.3666C117.406 17.5481 117.506 19.7296 117.307 21.9112C117.109 25.9768 115.027 28.1583 110.961 28.6541C109.176 28.8524 107.391 28.7533 105.606 28.1583C102.929 27.1667 101.739 25.1835 101.442 22.5061C101.243 20.4238 101.342 18.4405 101.342 16.3582C101.342 13.0859 101.243 9.81354 101.442 6.54123C101.64 2.77311 103.821 0.49241 107.59 0.0957657C109.374 -0.102556 111.06 -0.00340135 112.746 0.492404C115.622 1.38485 116.911 3.36808 117.208 6.24374C117.407 8.62361 117.307 11.0035 117.307 13.3833C117.307 13.78 117.208 13.8791 116.812 13.8791C114.63 13.8791 112.548 13.8791 110.366 13.8791C109.87 13.8791 109.87 13.6808 109.87 13.2842C109.87 11.1026 109.87 8.92109 109.87 6.73955C109.87 6.44207 109.87 6.14459 109.474 6.04543C108.978 5.8471 108.68 6.14458 108.68 6.73955C108.68 7.73116 108.68 8.6236 108.68 9.61521V14.3749H108.78Z" fill="black"/>
<path d="M35.202 14.3747C35.202 10.0116 35.202 5.54934 35.202 1.18625C35.202 0.591284 35.4003 0.492126 35.8961 0.492126C39.9617 0.492126 44.0273 0.492126 48.0929 0.492126C48.5887 0.492126 48.787 0.591284 48.787 1.18625C48.787 2.37618 48.787 3.56612 48.787 4.75605C48.787 5.25186 48.5887 5.45017 48.0929 5.35101C46.4071 5.35101 44.8205 5.35101 43.1348 5.35101C42.4407 5.35101 42.3415 5.54934 42.3415 6.1443C42.3415 7.23507 42.4407 8.32585 42.3415 9.41662C42.3415 10.0116 42.5399 10.2099 43.1348 10.2099C44.5231 10.2099 45.9113 10.3091 47.2004 10.8049C48.9853 11.3998 49.9769 12.7881 49.9769 14.573C49.9769 17.7461 49.9769 20.9193 49.9769 24.1916C49.9769 26.1748 48.9853 27.3648 47.1012 27.9597C45.713 28.3564 44.3248 28.4555 42.8373 28.5547C40.4575 28.5547 38.1768 28.5547 35.7969 28.5547C35.202 28.5547 35.1028 28.3564 35.1028 27.8606C35.202 23.2992 35.202 18.8369 35.202 14.3747ZM42.0441 18.8369C42.0441 20.4235 42.0441 22.1092 42.0441 23.6958C42.0441 23.8941 41.9449 24.1916 42.3415 24.1916C42.639 24.1916 43.0357 24.1916 43.1348 23.795C43.234 23.5966 43.1348 23.3983 43.234 23.2992C43.234 20.4235 43.234 17.4487 43.234 14.573C43.234 14.3747 43.234 14.2755 43.234 14.0772C43.1348 13.6805 42.8373 13.5814 42.4407 13.5814C41.9449 13.5814 42.1432 13.978 42.1432 14.1764C42.044 15.6638 42.0441 17.2503 42.0441 18.8369Z" fill="black"/>
<path d="M120.282 17.054C120.282 13.4842 120.282 9.91441 120.282 6.34462C120.282 5.84881 120.183 5.65049 119.588 5.65049C118.993 5.65049 118.299 5.94798 117.902 5.55134C117.605 5.1547 117.803 4.46056 117.803 3.86559C117.803 2.87398 117.803 1.98154 117.803 0.98993C117.803 0.593286 117.902 0.394958 118.299 0.394958C121.968 0.394958 125.736 0.394958 129.405 0.394958C129.802 0.394958 130 0.494119 130 0.890763C130 2.27902 130 3.66728 130 5.05554C130 5.45218 129.802 5.6505 129.405 5.55134C129.008 5.55134 128.612 5.55134 128.215 5.55134C127.719 5.55134 127.422 5.6505 127.521 6.24546C127.521 6.64211 127.521 7.03875 127.521 7.43539C127.521 14.0792 127.521 20.8221 127.521 27.4659C127.521 28.0609 127.323 28.2592 126.728 28.2592C124.844 28.2592 122.86 28.2592 120.976 28.2592C120.381 28.2592 120.282 28.0609 120.282 27.5651C120.282 24.1936 120.282 20.6238 120.282 17.054Z" fill="black"/>
<path d="M69.1153 14.575C69.1153 18.9381 69.1153 23.4003 69.1153 27.7634C69.1153 28.3584 69.0161 28.5567 68.4211 28.4575C67.4295 28.4575 66.5371 28.4575 65.5455 28.4575C65.1488 28.4575 64.9505 28.3584 65.0497 27.8626C65.0497 26.7718 65.0497 25.5818 65.0497 24.4911C65.0497 16.7565 65.0497 9.02197 65.0497 1.28742C65.0497 0.59329 65.248 0.394958 65.843 0.394958C66.6363 0.494119 67.4295 0.394958 68.2228 0.394958C69.1153 0.394958 69.1153 0.394968 69.1153 1.28742V14.575Z" fill="black"/>
<path d="M0.099167 14.4758C0.099167 10.0136 0.099167 5.65049 0.099167 1.18825C0.099167 0.593283 0.198331 0.394958 0.892458 0.394958C7.73456 0.394958 14.4775 0.394958 21.3196 0.394958C21.9146 0.394958 22.1129 0.593283 22.1129 1.18825C22.1129 10.0136 22.1129 18.7398 22.1129 27.5651C22.1129 28.16 22.0137 28.3584 21.3196 28.3584C18.3448 28.3584 15.37 28.3584 12.3951 28.3584C11.8002 28.3584 11.6018 28.16 11.6018 27.5651C11.6018 20.9213 11.6018 14.3767 11.6018 7.73288C11.6018 7.4354 11.701 7.03876 11.106 7.03876C10.5111 7.03876 10.4119 7.23708 10.4119 7.73288C10.4119 14.2775 10.4119 20.9213 10.4119 27.4659C10.4119 28.16 10.3127 28.3584 9.51946 28.3584C6.54463 28.2592 3.66897 28.3584 0.694139 28.3584C0.099173 28.3584 0 28.2592 0 27.6642C0.099161 23.3011 0.099167 18.8389 0.099167 14.4758Z" fill="black"/>
<path d="M63.9587 14.3766C63.9587 18.7397 63.9587 23.202 63.9587 27.565C63.9587 28.16 63.8596 28.3583 63.1654 28.3583C61.7772 28.2592 60.3889 28.3583 59.0007 28.3583C58.4057 28.3583 58.3065 28.2592 58.3065 27.6642C58.3065 20.128 58.3065 12.5917 58.3065 4.95636C58.3065 4.65888 58.5049 4.16307 57.8107 4.16307C57.3149 4.16307 57.1166 4.26223 57.0175 4.8572C56.9183 11.2035 56.8191 17.5498 56.72 23.8961C56.72 24.7885 56.6208 25.5818 56.3233 26.3751C55.9267 27.7634 54.9351 28.4575 53.5468 28.6558C52.6544 28.755 51.6628 28.755 50.7703 28.5566C50.4729 28.4575 50.2745 28.3583 50.2745 28.0608C50.2745 26.9701 50.2745 25.8793 50.2745 24.7885C50.2745 24.5902 50.2745 24.2927 50.572 24.2927C51.167 24.3919 51.167 23.9952 51.167 23.5986C51.167 21.8137 51.2661 20.128 51.2661 18.3431C51.3653 12.5917 51.4644 6.84043 51.5636 1.0891C51.5636 0.494131 51.7619 0.394958 52.2577 0.394958C55.8275 0.394958 59.4965 0.394958 63.0663 0.394958C63.6612 0.394958 63.7604 0.593292 63.7604 1.0891C63.9587 5.55133 63.9587 10.0136 63.9587 14.3766Z" fill="black"/>
<path d="M92.0214 18.1435C92.418 15.367 92.9138 12.4914 93.3105 9.71484C93.7071 6.83917 94.1038 3.9635 94.5996 0.988665C94.6987 0.592021 94.7979 0.393699 95.1945 0.49286C96.6819 0.49286 98.1693 0.49286 99.5576 0.49286C100.153 0.49286 100.351 0.691185 100.351 1.28615C100.351 9.3182 100.351 17.4494 100.351 25.4814C100.351 26.3739 100.351 27.1672 100.351 28.0596C100.351 28.4563 100.252 28.5554 99.8551 28.5554C98.4668 28.5554 97.0786 28.5554 95.6903 28.5554C95.1945 28.5554 95.1945 28.3571 95.2937 27.9605C95.492 25.9773 95.5912 23.994 95.7895 22.0108C96.087 18.9368 96.2853 15.962 96.5828 12.888C96.6819 12.1939 96.7811 11.4997 96.5828 10.7065C96.4836 11.5989 96.2853 12.4913 96.1861 13.3838C95.6903 16.9536 95.0954 20.5234 94.5996 24.0932C94.4012 25.2831 94.2029 26.4731 94.1038 27.663C94.0046 28.258 93.9054 28.4563 93.2113 28.4563C91.7239 28.3571 90.2365 28.4563 88.8482 28.4563C88.4516 28.4563 88.2533 28.3571 88.2533 27.9605C88.2533 19.036 88.2533 10.0123 88.2533 1.08783C88.2533 0.691188 88.3524 0.49286 88.7491 0.49286C90.1373 0.49286 91.4264 0.49286 92.8147 0.49286C93.3105 0.49286 93.3105 0.691188 93.3105 1.08783C93.013 4.65763 92.7155 8.32658 92.418 11.8964C92.2197 13.9788 92.1205 16.0612 91.9222 18.1435C91.9222 18.0444 91.9222 18.0444 92.0214 18.1435Z" fill="black"/>
<path d="M28.5587 15.17C28.7571 13.0876 28.8562 11.0052 29.0546 8.92282C29.2529 6.24547 29.4512 3.56811 29.6495 0.890764C29.6495 0.49412 29.8478 0.394958 30.1453 0.394958C31.4344 0.394958 32.7235 0.394958 34.1118 0.394958C34.5084 0.394958 34.7067 0.494126 34.6076 0.989931C34.4093 2.57651 34.3101 4.06392 34.1118 5.6505C33.7151 9.02198 33.4176 12.4926 33.021 15.8641C32.7235 18.5414 32.5252 21.2188 32.1286 23.8962C32.0294 24.8878 31.6327 25.8794 31.1369 26.7718C30.3437 28.0609 29.1537 28.6559 27.7655 28.755C26.873 28.755 25.9806 28.755 25.0881 28.6559C24.5923 28.5567 24.4932 28.3584 24.4932 27.9618C24.4932 27.0693 24.394 26.1768 24.2948 25.1852C24.2948 24.7886 24.2948 24.6894 24.6915 24.6894C25.3856 24.6894 26.0797 24.6894 26.873 24.6894C27.468 24.6894 27.7655 24.392 27.9638 23.8962C28.1621 23.0037 28.1621 22.2104 28.1621 21.318C28.1621 20.9213 27.8646 21.0205 27.6663 21.0205C26.7739 21.0205 25.7822 20.9213 24.8898 20.9213C24.4931 20.9213 24.394 20.8222 24.2948 20.3263C23.8982 14.8725 23.5015 9.41863 23.1049 3.96476C23.0057 2.97315 23.0057 1.98154 22.9066 0.989931C22.9066 0.593287 23.0057 0.494126 23.4024 0.494126C24.7906 0.494126 26.1789 0.494126 27.5671 0.494126C28.1621 0.494126 28.2613 0.692445 28.2613 1.18825C28.2613 5.55134 28.3604 9.91442 28.3604 14.2775C28.4596 14.575 28.4596 14.8725 28.5587 15.17C28.4596 15.17 28.4596 15.17 28.5587 15.17Z" fill="black"/>
</svg>
