<?xml version="1.0" standalone="no"?>
<!DOCTYPE svg PUBLIC "-//W3C//DTD SVG 1.1//EN" "http://www.w3.org/Graphics/SVG/1.1/DTD/svg11.dtd" >
<svg>
<metadata>
Created by FontForge 20090914 at Sun May 24 21:45:53 2020
 By www-data
Copyright &#194;&#169; 2018 by Francesco Canovaro. All rights reserved.
</metadata>
<defs>
<font id="Extenda-50Mega" horiz-adv-x="730" >
  <font-face 
    font-family="Extenda 50 Mega"
    font-weight="450"
    font-stretch="normal"
    units-per-em="2048"
    panose-1="2 11 0 3 2 2 0 0 0 2"
    ascent="1638"
    descent="-410"
    x-height="1065"
    cap-height="1360"
    bbox="-626 -614.002 1658 2080"
    underline-thickness="95"
    underline-position="-50"
    unicode-range="U+000D-U+FB05"
  />
<missing-glyph horiz-adv-x="539" 
 />
    <glyph glyph-name="arrowleft" unicode="&#x3c;&#x2d;" horiz-adv-x="688" 
d="M20 658l176 233h246l-73 -123h294v-219h-294l73 -123h-246z" />
    <glyph glyph-name="arrowup" unicode="&#x3c;&#x2d;&#x2d;&#x2d;" horiz-adv-x="779" 
d="M268 609l-123 -73v246l233 176l232 -176v-246l-123 73v-254h-219v254z" />
    <glyph glyph-name="arrowright" unicode="&#x2d;&#x3e;" horiz-adv-x="655" 
d="M281 766l-73 123h246l176 -233l-176 -232h-245l72 123h-254v219h254z" />
    <glyph glyph-name="arrowdown" unicode="&#x2d;&#x3e;&#x3e;&#x3e;" horiz-adv-x="506" 
d="M20 530l1 247l123 -73v254h218l1 -254l123 72v-246l-233 -175z" />
    <glyph glyph-name="arrowboth" unicode="&#x3c;&#x2d;&#x3e;" horiz-adv-x="929" 
d="M23 658l176 233h246l-72 -123h184l-73 123l246 1l176 -232l-176 -234h-246l73 123h-184l72 -123h-246z" />
    <glyph glyph-name="arrowupdn" unicode="&#x3c;&#x2d;&#x2d;&#x3e;" horiz-adv-x="516" 
d="M25 394v245l124 -72v184l-124 -73v247l232 175l234 -175v-246l-124 72v-184l124 73v-246l-232 -176z" />
    <glyph glyph-name="uni2196" unicode="&#x3c;&#x2d;&#x2d;" horiz-adv-x="606" 
d="M245 545l-35 -138l-175 174l40 288l290 41l173 -174l-138 -36l179 -180l-154 -154z" />
    <glyph glyph-name="uni2197" unicode="&#x3c;&#x2d;&#x2d;&#x2d;&#x2d;" horiz-adv-x="603" 
d="M209 700l-138 36l173 174l289 -41l40 -288l-173 -174l-36 138l-180 -179l-154 154z" />
    <glyph glyph-name="uni2198" unicode="&#x2d;&#x3e;&#x3e;" horiz-adv-x="617" 
d="M75 572l138 36l-179 180l154 154l180 -179l36 138l174 -174l-41 -289l-288 -40z" />
    <glyph glyph-name="uni2199" unicode="&#x2d;&#x3e;&#x3e;&#x3e;&#x3e;" horiz-adv-x="608" 
d="M75 425l-40 288l175 174l35 -138l180 179l154 -154l-179 -180l138 -36l-174 -174z" />
    <glyph glyph-name="f_f" unicode="ff" horiz-adv-x="1082" 
d="M78 839l-77.999 -0.00292969v225h78v143c0 56.667 10.5 98.834 31.5 126.501s53 45.834 96 54.501s105.167 13 186.5 13c37.333 0 75.5 -1.66699 114.5 -5s71.667 -6.83301 98 -10.5s42.833 -6.16699 49.5 -7.5c-19.333 -8 -34.333 -23.333 -45 -46
s-16.834 -40.167 -18.501 -52.5s-4.16699 -32.166 -7.5 -59.499c-23.333 0.666992 -67.333 1 -132 1c-19.333 0 -29 -9 -29 -27v-130h183v143c0 58 11.333 100.833 34 128.5s54.667 45.5 96 53.5s99.333 12 174 12c29.333 0 66 -2 110 -6c22 -2 39 -3 51 -3v-172l-92 1
c-19.333 0 -29 -9 -29 -27v-130h119v-225h-119v-839h-344v839h-183v-839h-344v839z" />
    <glyph glyph-name="f_f_i" unicode="ffi" horiz-adv-x="1470" 
d="M78 839l-78 0.000976562v223h78v143c0 52.667 8.33301 94.334 25 125.001s50 53.834 100 69.501s124.333 23.5 223 23.5c34.667 0 69.5 -2.33301 104.5 -7s64 -9.5 87 -14.5l43.5 -9.5c-48 -20.667 -72.833 -54.334 -74.5 -101.001s-2.5 -71 -2.5 -73l-133 1
c-19.333 0 -29 -9 -29 -27v-130h181v141c0 55.333 8.66699 98.166 26 128.499s52.833 53.166 106.5 68.499s135.167 23 244.5 23c176 0 305.333 -5.33301 388 -16c32.667 -12.667 55.667 -34.834 69 -66.501s20 -66.167 20 -103.5c0 -38.667 -5.66699 -69 -17 -91
s-30.333 -37.833 -57 -47.5s-64 -14.5 -112 -14.5c-43.333 0 -77.833 5.83301 -103.5 17.5s-44.5 33.834 -56.5 66.501v55l-129 -5c-12.667 0 -21.5 -2 -26.5 -6s-7.5 -11.333 -7.5 -22v-128h114v-223h-114v-839h-345v839h-181v-839h-344v839zM1098 1065
c30 -18.667 87.001 -27.999 171.001 -27.999c75.333 1.33301 133.666 10.666 174.999 27.999v-1065h-346v1065z" />
    <glyph glyph-name="f_f_l" unicode="ffl" horiz-adv-x="1470" 
d="M78 839l-77.999 -0.000976562v223h78v143c0 52.667 8.33301 94.334 25 125.001s50 53.834 100 69.501s124.333 23.5 223 23.5c34.667 0 69.5 -2.33301 104.5 -7s64 -9.5 87 -14.5l43.5 -9.5c-48 -20.667 -72.833 -54.334 -74.5 -101.001s-2.5 -71 -2.5 -73
c-23.333 0.666992 -67.666 1 -132.999 1c-19.333 0 -29 -9 -29 -27v-130h183v143c0 53.333 7.83301 94.833 23.5 124.5s50.167 52.667 103.5 69s134.666 24.5 243.999 24.5c202 0 330.167 -13.167 384.5 -39.5s82.166 -39.5 83.499 -39.5v-1344h-344v1218l-122 1
c-19.333 0 -29 -9 -29 -27v-130h119v-223h-119v-839h-344v839h-183v-839h-344v839z" />
    <glyph glyph-name="f_i" unicode="fi" horiz-adv-x="945" 
d="M78 839l-78 -0.00195312v223h78v141c0 56 8.5 99 25.5 129s52.333 52.667 106 68s135.167 23 244.5 23c176 0 305.333 -5.33301 388 -16c34 -6.66699 57.5 -25.167 70.5 -55.5s19.5 -70.5 19.5 -120.5c0 -38.667 -5.66699 -69 -17 -91s-30.5 -37.833 -57.5 -47.5
s-64.5 -14.5 -112.5 -14.5c-43.333 0 -77.833 5.83301 -103.5 17.5s-44.5 33.834 -56.5 66.501v61c-46.667 -1.33301 -82.667 -2.66602 -108 -3.99902l-21 -1c-12.667 0 -21.5 -2 -26.5 -6s-7.5 -11.333 -7.5 -22v-128h114v-223h-114v-839h-344v839zM573 1065
c29.333 -18.667 86.333 -27.999 171 -27.999c74.667 1.33301 133 10.666 175 27.999v-1065h-346v1065z" />
    <glyph glyph-name="f_l" unicode="fl" horiz-adv-x="943" 
d="M78 839h-78.001v223h78v143c0 54 8.83301 95.833 26.5 125.5s57.334 52.5 119.001 68.5s157.167 24 286.5 24c100.667 0 181 -7.5 241 -22.5s102.167 -28.167 126.5 -39.5s37.5 -17 39.5 -17v-1344h-344v1218l-122 1c-19.333 0 -29 -9 -29 -27v-130h119v-223h-119v-839
h-344v839z" />
    <glyph glyph-name="zero.nalt" unicode="&#x28;&#x30;&#x29;" horiz-adv-x="1211" 
d="M167.5 123c-99 86.667 -148.5 215 -148.5 385v349c1.33301 168.667 51.5 295.834 150.5 381.501s244.5 128.5 436.5 128.5c193.333 0 339.333 -43.333 438 -130s148 -214.667 148 -384v-350c-1.33301 -168.667 -51.333 -295.834 -150 -381.501s-244 -128.5 -436 -128.5
c-193.333 0 -339.5 43.333 -438.5 130zM890 253.5c64.667 56.333 97.665 139.833 98.998 250.5v349c0 111.333 -32.167 195.5 -96.5 252.5s-159.833 85.5 -286.5 85.5c-125.333 0 -220.333 -28 -285 -84s-97.667 -139.333 -99 -250v-349c0 -112 32.333 -196.5 97 -253.5
s160.334 -85.5 287.001 -85.5c124.667 0 219.334 28.167 284.001 84.5zM396.998 349.5c-43.333 40.333 -65.0029 93.5 -65.0029 159.5v340c0.666992 66 23.334 119 68.001 159s111.667 60 201 60c94.667 0 163.334 -20 206.001 -60s64 -92.667 64 -158v-340
c0 -66 -22.167 -119.333 -66.5 -160s-112.166 -61 -203.499 -61c-92.667 0 -160.667 20.167 -204 60.5zM622.495 450c4.33301 11.333 6.5 31.333 6.5 60v338c0 28.667 -2.16699 48.5 -6.5 59.5s-11.166 16.5 -20.499 16.5s-16.333 -5.5 -21 -16.5s-7 -30.833 -7 -59.5v-338
c0 -28.667 2.33301 -48.667 7 -60s11.667 -17 21 -17s16.166 5.66699 20.499 17z" />
    <glyph glyph-name="one.nalt" unicode="&#x28;&#x31;&#x29;" horiz-adv-x="1211" 
d="M167.5 123c-99 86.667 -148.5 215 -148.5 385v349c1.33301 168.667 51.5 295.834 150.5 381.501s244.5 128.5 436.5 128.5c193.333 0 339.333 -43.333 438 -130s148 -214.667 148 -384v-350c-1.33301 -168.667 -51.333 -295.834 -150 -381.501s-244 -128.5 -436 -128.5
c-193.333 0 -339.5 43.333 -438.5 130zM890 253.5c64.667 56.333 97.665 139.833 98.998 250.5v349c0 111.333 -32.167 195.5 -96.5 252.5s-159.833 85.5 -286.5 85.5c-125.333 0 -220.333 -28 -285 -84s-97.667 -139.333 -99 -250v-349c0 -112 32.333 -196.5 97 -253.5
s160.334 -85.5 287.001 -85.5c124.667 0 219.334 28.167 284.001 84.5zM491.998 887l-67 -20l-2 156l109 31h203v-749h-248z" />
    <glyph glyph-name="two.nalt" unicode="&#x28;&#x32;&#x29;" horiz-adv-x="1211" 
d="M167.5 123c-99 86.667 -148.5 215 -148.5 385v349c1.33301 168.667 51.5 295.834 150.5 381.501s244.5 128.5 436.5 128.5c193.333 0 339.333 -43.333 438 -130s148 -214.667 148 -384v-350c-1.33301 -168.667 -51.333 -295.834 -150 -381.501s-244 -128.5 -436 -128.5
c-193.333 0 -339.5 43.333 -438.5 130zM890 253.5c64.667 56.333 97.665 139.833 98.998 250.5v349c0 111.333 -32.167 195.5 -96.5 252.5s-159.833 85.5 -286.5 85.5c-125.333 0 -220.333 -28 -285 -84s-97.667 -139.333 -99 -250v-349c0 -112 32.333 -196.5 97 -253.5
s160.334 -85.5 287.001 -85.5c124.667 0 219.334 28.167 284.001 84.5zM359.998 441c65.333 66 114.663 119.668 147.996 161.001s56.833 77.666 70.5 108.999s21.167 64.666 22.5 99.999v95c0 8.66699 -2.5 15.334 -7.5 20.001s-11.833 7 -20.5 7
c-10 0 -17.5 -3.33301 -22.5 -10s-6.83301 -16.334 -5.5 -29.001v-140h-184v140c0.666992 53.333 17.5 95.833 50.5 127.5s94.5 47.5 184.5 47.5c84 0 147 -14.667 189 -44s63.667 -67.666 65 -114.999v-93c0 -43.333 -7.16699 -84 -21.5 -122
s-34.166 -75.167 -59.499 -111.5s-59.333 -78.833 -102 -127.5l1 -16c28.667 0 58.334 2.5 89.001 7.5s48.334 7.83301 53.001 8.5c26.667 4 40.334 6 41.001 6v-158h-491v137z" />
    <glyph glyph-name="three.nalt" unicode="&#x28;&#x33;&#x29;" horiz-adv-x="1211" 
d="M1044 1237c98.667 -86.667 148 -214.667 148 -384v-350c-1.33301 -168.667 -51.333 -295.834 -150 -381.501s-244 -128.5 -436 -128.5c-193.333 0 -339.5 43.333 -438.5 130s-148.5 215 -148.5 385v349c1.33301 168.667 51.5 295.834 150.5 381.501
s244.5 128.5 436.5 128.5c193.333 0 339.333 -43.333 438 -130zM989 853c0 111.333 -32.1689 195.5 -96.502 252.5s-159.833 85.5 -286.5 85.5c-125.333 0 -220.333 -28 -285 -84s-97.667 -139.333 -99 -250v-349c0 -112 32.333 -196.5 97 -253.5
s160.334 -85.5 287.001 -85.5c124.667 0 219.334 28.167 284.001 84.5s97.667 139.833 99 250.5v349zM817.998 699.5c36.667 -17.667 54.999 -50.167 54.999 -97.5v-160c0 -53.333 -22.333 -93.5 -67 -120.5s-110.667 -40.5 -198 -40.5c-82.667 0 -145 13.5 -187 40.5
s-63 66.833 -63 119.5l1 79h225v-74c-0.666992 -23.333 8 -35 26 -35c8.66699 0 15.334 3 20.001 9s7 14.667 7 26v160c0 24 -12.333 36 -37 36h-193v105l237 160l1 8l-258 -2v133h450v-157l-201 -163h16c74 0 129.333 -8.83301 166 -26.5zM357.997 441z" />
    <glyph glyph-name="four.nalt" unicode="&#x28;&#x34;&#x29;" horiz-adv-x="1211" 
d="M167.5 123c-99 86.667 -148.5 215 -148.5 385v349c1.33301 168.667 51.5 295.834 150.5 381.501s244.5 128.5 436.5 128.5c193.333 0 339.333 -43.333 438 -130s148 -214.667 148 -384v-350c-1.33301 -168.667 -51.333 -295.834 -150 -381.501s-244 -128.5 -436 -128.5
c-193.333 0 -339.5 43.333 -438.5 130zM890 253.5c64.667 56.333 97.665 139.833 98.998 250.5v349c0 111.333 -32.167 195.5 -96.5 252.5s-159.833 85.5 -286.5 85.5c-125.333 0 -220.333 -28 -285 -84s-97.667 -139.333 -99 -250v-349c0 -112 32.333 -196.5 97 -253.5
s160.334 -85.5 287.001 -85.5c124.667 0 219.334 28.167 284.001 84.5zM568.998 415h-246v138l131 501h362l1 -501h43v-138h-43v-111h-248v111zM582.998 553l6 368h-19l-48 -368h61z" />
    <glyph glyph-name="five.nalt" unicode="&#x28;&#x35;&#x29;" horiz-adv-x="1211" 
d="M1044 1237c98.667 -86.667 148 -214.667 148 -384v-350c-1.33301 -168.667 -51.333 -295.834 -150 -381.501s-244 -128.5 -436 -128.5c-193.333 0 -339.5 43.333 -438.5 130s-148.5 215 -148.5 385v349c1.33301 168.667 51.5 295.834 150.5 381.501
s244.5 128.5 436.5 128.5c193.333 0 339.333 -43.333 438 -130zM989 853c0 111.333 -32.1689 195.5 -96.502 252.5s-159.833 85.5 -286.5 85.5c-125.333 0 -220.333 -28 -285 -84s-97.667 -139.333 -99 -250v-349c0 -112 32.333 -196.5 97 -253.5
s160.334 -85.5 287.001 -85.5c124.667 0 219.334 28.167 284.001 84.5s97.667 139.833 99 250.5v349zM811.498 719.5c32.333 -22.333 48.5 -57.167 48.5 -104.5v-157c0 -58.667 -22.667 -102 -68 -130s-115.333 -42 -210 -42c-80.667 0 -140.167 13.167 -178.5 39.5
s-57.833 67.166 -58.5 122.499l1 90h226v-84c0 -21.333 9 -32 27 -32c17.333 0 26 10.667 26 32v156c0 23.333 -11.667 35 -35 35h-204l-28 40l32 370h432v-252h-179v114h-53v-160l70 -2c68.667 -1.33301 119.167 -13.166 151.5 -35.499zM344.998 447.999z" />
    <glyph glyph-name="six.nalt" unicode="&#x28;&#x36;&#x29;" horiz-adv-x="1211" 
d="M167.5 123c-99 86.667 -148.5 215 -148.5 385v349c1.33301 168.667 51.5 295.834 150.5 381.501s244.5 128.5 436.5 128.5c193.333 0 339.333 -43.333 438 -130s148 -214.667 148 -384v-350c-1.33301 -168.667 -51.333 -295.834 -150 -381.501s-244 -128.5 -436 -128.5
c-193.333 0 -339.5 43.333 -438.5 130zM890 253.5c64.667 56.333 97.665 139.833 98.998 250.5v349c0 111.333 -32.167 195.5 -96.5 252.5s-159.833 85.5 -286.5 85.5c-125.333 0 -220.333 -28 -285 -84s-97.667 -139.333 -99 -250v-349c0 -112 32.333 -196.5 97 -253.5
s160.334 -85.5 287.001 -85.5c124.667 0 219.334 28.167 284.001 84.5zM399.498 329c-41.667 28 -62.5 70.667 -62.5 128v188c0 124.667 59 261 177 409h260c-52 -74.667 -95 -178 -129 -310h6c4.66699 11.333 13.5 21.5 26.5 30.5s28.833 13.5 47.5 13.5
c42.667 0 78 -14.333 106 -43s42 -66.667 42 -114v-172c0 -54 -22.167 -96.167 -66.5 -126.5s-112.5 -45.5 -204.5 -45.5c-93.333 0 -160.833 14 -202.5 42zM625.998 420.5c4.66699 7 7 18.5 7 34.5v169c0 30 -8.33301 45 -25 45c-20.667 0 -31 -15 -31 -45v-169
c0 -30 9.33301 -45 28 -45c9.33301 0 16.333 3.5 21 10.5z" />
    <glyph glyph-name="seven.nalt" unicode="&#x28;&#x37;&#x29;" horiz-adv-x="1211" 
d="M167.5 123c-99 86.667 -148.5 215 -148.5 385v349c1.33301 168.667 51.5 295.834 150.5 381.501s244.5 128.5 436.5 128.5c193.333 0 339.333 -43.333 438 -130s148 -214.667 148 -384v-350c-1.33301 -168.667 -51.333 -295.834 -150 -381.501s-244 -128.5 -436 -128.5
c-193.333 0 -339.5 43.333 -438.5 130zM890 253.5c64.667 56.333 97.665 139.833 98.998 250.5v349c0 111.333 -32.167 195.5 -96.5 252.5s-159.833 85.5 -286.5 85.5c-125.333 0 -220.333 -28 -285 -84s-97.667 -139.333 -99 -250v-349c0 -112 32.333 -196.5 97 -253.5
s160.334 -85.5 287.001 -85.5c124.667 0 219.334 28.167 284.001 84.5zM564.998 896h-172v153h446v-132l-181 -618h-268z" />
    <glyph glyph-name="eight.nalt" unicode="&#x28;&#x38;&#x29;" horiz-adv-x="1211" 
d="M167.5 123c-99 86.667 -148.5 215 -148.5 385v349c1.33301 168.667 51.5 295.834 150.5 381.501s244.5 128.5 436.5 128.5c193.333 0 339.333 -43.333 438 -130s148 -214.667 148 -384v-350c-1.33301 -168.667 -51.333 -295.834 -150 -381.501s-244 -128.5 -436 -128.5
c-193.333 0 -339.5 43.333 -438.5 130zM890 253.5c64.667 56.333 97.665 139.833 98.998 250.5v349c0 111.333 -32.167 195.5 -96.5 252.5s-159.833 85.5 -286.5 85.5c-125.333 0 -220.333 -28 -285 -84s-97.667 -139.333 -99 -250v-349c0 -112 32.333 -196.5 97 -253.5
s160.334 -85.5 287.001 -85.5c124.667 0 219.334 28.167 284.001 84.5zM403.498 325c-43 26 -64.5 65.667 -64.5 119v149c0 26 3.16699 46.5 9.5 61.5s18.166 29.167 35.499 42.5c-12.667 8 -22.667 19.667 -30 35s-11.333 32 -12 50v138c0 50.667 21.333 88.167 64 112.5
s108.334 36.5 197.001 36.5s154.334 -12.167 197.001 -36.5s64 -61.833 64 -112.5v-138c-0.666992 -18 -4.66699 -34.667 -12 -50s-17 -27 -29 -35c17.333 -13.333 29.166 -27.333 35.499 -42s9.5 -35 9.5 -61v-150c0 -53.333 -21.667 -93 -65 -119s-110 -39 -200 -39
s-156.5 13 -199.5 39zM630.998 775v136c0 27.333 -9.33301 41 -28 41c-18 0 -27 -13.667 -27 -41v-136c0 -27.333 9 -41 27 -41c18.667 0 28 13.667 28 41zM630.998 448l-0.000976562 152c0 16 -2.16699 27.167 -6.5 33.5s-11.5 9.5 -21.5 9.5
c-9.33301 0 -16.166 -3.16699 -20.499 -9.5s-6.5 -17.5 -6.5 -33.5v-152c0 -26.667 9 -40 27 -40c18.667 0 28 13.333 28 40z" />
    <glyph glyph-name="nine.nalt" unicode="&#x28;&#x39;&#x29;" horiz-adv-x="1211" 
d="M167.5 123c-99 86.667 -148.5 215 -148.5 385v349c1.33301 168.667 51.5 295.834 150.5 381.501s244.5 128.5 436.5 128.5c193.333 0 339.333 -43.333 438 -130s148 -214.667 148 -384v-350c-1.33301 -168.667 -51.333 -295.834 -150 -381.501s-244 -128.5 -436 -128.5
c-193.333 0 -339.5 43.333 -438.5 130zM890 253.5c64.667 56.333 97.665 139.833 98.998 250.5v349c0 111.333 -32.167 195.5 -96.5 252.5s-159.833 85.5 -286.5 85.5c-125.333 0 -220.333 -28 -285 -84s-97.667 -139.333 -99 -250v-349c0 -112 32.333 -196.5 97 -253.5
s160.334 -85.5 287.001 -85.5c124.667 0 219.334 28.167 284.001 84.5zM505.498 450c23.667 53.333 42.499 107.001 56.499 161.001h-7c-4 -11.333 -12.5 -21.333 -25.5 -30s-29.167 -13 -48.5 -13c-42.667 0 -78 14.333 -106 43s-42 66.667 -42 114v171
c0 54 22.333 96.333 67 127s112.667 46 204 46c93.333 0 160.833 -14.167 202.5 -42.5s62.5 -70.833 62.5 -127.5v-189c0 -61.333 -15 -124.833 -45 -190.5s-75.667 -138.167 -137 -217.5h-260c28.667 45.333 54.834 94.666 78.501 147.999zM628.997 732.001v169
c0 30 -9.33301 45 -28 45s-28 -15 -28 -45v-169c0 -30 8.33301 -45 25 -45c20.667 0 31 15 31 45z" />
    <glyph glyph-name=".notdef" horiz-adv-x="539" 
 />
    <glyph glyph-name="NULL" horiz-adv-x="0" 
 />
    <glyph glyph-name="NULL" horiz-adv-x="0" 
 />
    <glyph glyph-name="nonmarkingreturn" unicode="&#xd;" horiz-adv-x="539" 
 />
    <glyph glyph-name="DLE" horiz-adv-x="1679" 
 />
    <glyph glyph-name="space" unicode=" " horiz-adv-x="313" 
 />
    <glyph glyph-name="exclam" unicode="!" horiz-adv-x="393" 
d="M369 483l-40 -138h-261l-42 139v893h343v-894zM302 297.5c23.333 -11 39.335 -28.168 48.002 -51.501s13 -55.666 13 -96.999c0 -44 -4.33301 -78.167 -13 -102.5s-24.834 -42.166 -48.501 -53.499s-58.167 -17 -103.5 -17s-79.833 5.83301 -103.5 17.5
s-39.667 29.5 -48 53.5s-12.5 58 -12.5 102c0 41.333 4.16699 73.666 12.5 96.999s24.166 40.5 47.499 51.5s58 16.5 104 16.5s80.667 -5.5 104 -16.5z" />
    <glyph glyph-name="quotedbl" unicode="&#x22;" horiz-adv-x="677" 
d="M23 662v649h310l-50 -650zM361 662v649h310l-50 -650z" />
    <glyph glyph-name="numbersign" unicode="#" horiz-adv-x="898" 
d="M779 812l-33 -259h80v-198h-106l-44 -347h-295l45 347h-61l-44 -347h-295l45 347h-75l1 198h100l34 259h-81l2 198h105l46 350h291l-45 -350h62l46 350h292l-45 -350h77v-198h-102zM486 812h-62l-33 -259h61z" />
    <glyph glyph-name="dollar" unicode="$" horiz-adv-x="735" 
d="M407 940.5c19.333 -25 47.3291 -56.4961 83.9961 -94.4961c48.667 -50 88.334 -96.333 119.001 -139s57 -100.167 79 -172.5s33 -161.166 33 -266.499v-52c-2.66699 -74.667 -31.167 -132.334 -85.5 -173.001s-127.166 -62.667 -218.499 -66v-127h-99v129
c-107.333 8.66699 -183.166 35.667 -227.499 81s-66.833 103 -67.5 173v220h317v-223c0 -19.333 9.66699 -29 29 -29c9.33301 0 16.333 2.66699 21 8s7 12.333 7 21c0 61.333 -4.33301 109.333 -13 144c-9.33301 39.333 -22.333 74.666 -39 105.999
s-34.5 58.666 -53.5 81.999s-44.167 52 -75.5 86c-42 44 -75.667 83.333 -101 118s-46.666 78 -63.999 130s-26 114.333 -26 187v40c2.66699 85.333 28.5 148.666 77.5 189.999s120.833 64.333 215.5 69v160h99v-161c97.333 -8 170 -34.333 218 -79
s72.333 -103.334 73 -176.001v-164h-305v168c0 8 -2.66699 14.667 -8 20s-12.333 8 -21 8s-15.667 -2.66699 -21 -8s-8 -12.333 -8 -21c0 -36 5.66699 -70.333 17 -103c10 -32 24.667 -60.5 44 -85.5z" />
    <glyph glyph-name="percent" unicode="%" horiz-adv-x="1261" 
d="M89 669c-42 40 -63 93.333 -63 160v340c0.666992 66 22.667 119 66 159s108.333 60 195 60c91.333 0 157.5 -20 198.5 -60s61.5 -92.667 61.5 -158v-340c0 -66 -21.333 -119.333 -64 -160s-108 -61 -196 -61c-90 0 -156 20 -198 60zM791 1359h186l-512 -1361h-180z
M307.5 770c4.33301 11.333 6.5 31.333 6.5 60v338c0 28 -2.16699 47.667 -6.5 59s-11.166 17 -20.499 17s-16.166 -5.33301 -20.499 -16s-6.5 -30.667 -6.5 -60v-338c0 -28.667 2.16699 -48.667 6.5 -60s11.166 -17 20.499 -17s16.166 5.66699 20.499 17zM777.5 39.5
c-42.333 40.333 -63.502 93.834 -63.502 160.501v340c0 66 21.833 119 65.5 159s108.834 60 195.501 60c91.333 0 157.5 -20 198.5 -60s61.5 -92.667 61.5 -158v-340c0 -66.667 -21.333 -120.334 -64 -161.001s-108 -61 -196 -61c-89.333 0 -155.166 20.167 -197.499 60.5z
M995.498 141.001c4.33301 11.333 6.5 31.334 6.5 60.001v338c0 28 -2.16699 47.5 -6.5 58.5s-11.166 16.5 -20.499 16.5s-16.166 -5.33301 -20.499 -16s-6.5 -30.334 -6.5 -59.001v-338c0 -28.667 2.16699 -48.667 6.5 -60s11.166 -17 20.499 -17s16.166 5.66699 20.499 17z
" />
    <glyph glyph-name="ampersand" unicode="&#x26;" horiz-adv-x="827" 
d="M826 576l-38.999 -0.000976562v-332c-0.666992 -63.333 -11.667 -114.5 -33 -153.5s-58.333 -68.5 -111 -88.5s-126.667 -30 -222 -30c-130.667 0 -229.334 20.333 -296.001 61s-100 100.667 -100 180v319c0 72.667 22.667 125 68 157c-35.333 29.333 -53 72 -53 128v324
c0 77.333 32 136 96 176s159 60 285 60c119.333 0 209.5 -22.5 270.5 -67.5s91.5 -111.167 91.5 -198.5v-211h-341l-1 213c-1.33301 23.333 -11 35 -29 35c-19.333 0 -29 -11.667 -29 -35v-340c0 -9.33301 2.83301 -16.666 8.5 -21.999s12.5 -8 20.5 -8v-149
c-8 0 -14.833 -3.16699 -20.5 -9.5s-8.5 -14.833 -8.5 -25.5v-326c0 -22.667 9.66699 -34 29 -34c20 0 30 11.667 30 35v557h345v-66h39v-149z" />
    <glyph glyph-name="quotesingle" unicode="'" horiz-adv-x="337" 
d="M23 712v649h310l-50 -650z" />
    <glyph glyph-name="parenleft" unicode="(" horiz-adv-x="450" 
d="M190 -180c-60.667 25.333 -103 63.332 -127 113.999s-36 118.334 -36 203.001v1087c0 84.667 12 152.5 36 203.5s66.5 89.167 127.5 114.5s146.167 38 255.5 38l1 -212c-26.667 0 -45.667 -8 -57 -24s-17 -34.667 -17 -56v-1215c0 -21.333 5.66699 -40 17 -56
s30.333 -24 57 -24l-1 -211c-110 0 -195.333 12.667 -256 38z" />
    <glyph glyph-name="parenright" unicode=")" horiz-adv-x="459" 
d="M12 -7c26.667 0 45.667 8.16895 57 24.502s17 35.166 17 56.499v1214c0 22 -5.5 40.833 -16.5 56.5s-30.167 23.5 -57.5 23.5l2 212c109.333 0 194.333 -12.667 255 -38s103 -63.333 127 -114s36 -118.334 36 -203.001v-1088c0 -84 -12 -151.5 -36 -202.5
s-66.333 -89.167 -127 -114.5s-145.667 -38 -255 -38z" />
    <glyph glyph-name="asterisk" unicode="*" horiz-adv-x="544" 
d="M207 1021l-6 4l-81 -97l-108 188l124 21v7l-124 21l108 189l80 -97l7 4l-44 118h218l-44 -117l7 -5l80 97l109 -189l-123 -21v-8l123 -20l-109 -189l-79 97l-8 -4l44 -117h-218z" />
    <glyph glyph-name="plus" unicode="+" horiz-adv-x="512" 
d="M141 461h-115v232h115v114h231v-114h114v-232h-114v-115h-231v115z" />
    <glyph glyph-name="comma" unicode="," horiz-adv-x="345" 
d="M28 275h306l-95 -464h-251z" />
    <glyph glyph-name="hyphen" unicode="-" horiz-adv-x="510" 
d="M26 693h460v-232h-460v232z" />
    <glyph glyph-name="period" unicode="." horiz-adv-x="367" 
d="M83.5 -10.5c-23 9 -39.333 25.502 -49 49.502s-14.5 59.333 -14.5 106c0 49.333 4.83301 86.666 14.5 111.999s26 42.666 49 51.999s56.5 14 100.5 14c44.667 0 78.5 -4.66699 101.5 -14s39.333 -26.5 49 -51.5s14.5 -62.5 14.5 -112.5c0 -46.667 -5 -82 -15 -106
s-26.5 -40.5 -49.5 -49.5s-56.5 -13.5 -100.5 -13.5s-77.5 4.5 -100.5 13.5z" />
    <glyph glyph-name="slash" unicode="/" horiz-adv-x="606" 
d="M280 1422h342l-314 -1630l-346 -1z" />
    <glyph glyph-name="zero" unicode="0" horiz-adv-x="776" 
d="M113 68.5c-62 61 -93 151.168 -93 270.501v689c0 116 31 204.167 93 264.5s153.667 90.5 275 90.5s213 -30.333 275 -91s93 -150.334 93 -269.001v-684c0 -119.333 -31 -209.5 -93 -270.5s-153.667 -91.5 -275 -91.5s-213 30.5 -275 91.5zM418 250.001v862
c0 19.333 -9.66699 29 -29 29s-29 -9.66699 -29 -29v-862c0 -19.333 9.66699 -29 29 -29s29 9.66699 29 29z" />
    <glyph glyph-name="one" unicode="1" horiz-adv-x="437" 
d="M83 1086l-87 -30l-2 256l145 48h272v-1360h-335z" />
    <glyph glyph-name="two" unicode="2" horiz-adv-x="703" 
d="M22 222c103.333 182.667 180.67 341.668 232.003 477.001s77 244.666 77 327.999v97c-0.666992 23.333 -11 35 -31 35c-16.667 0 -25.667 -13 -27 -39c-0.666992 -5.33301 -1 -97 -1 -275h-247v273c2.66699 90 29.667 156.333 81 199s128.666 64 231.999 64
c115.333 0 200.666 -19.5 255.999 -58.5s83.333 -99.167 84 -180.5v-102c0 -95.333 -17.833 -212 -53.5 -350s-88.834 -292 -159.501 -462v-7h216v-221h-659v222z" />
    <glyph glyph-name="three" unicode="3" 
d="M659 732c34.667 -32 52.333 -79.333 53 -142v-358c0 -84 -30.167 -147.667 -90.5 -191s-149.166 -65 -266.499 -65c-110.667 0 -194.334 21.5 -251.001 64.5s-85 106.167 -85 189.5c0 124 0.333008 194.667 1 212h307v-204c1.33301 -28 10.666 -42 27.999 -42
c18.667 0 28 14 28 42v359c0 28.667 -12.333 43 -37 43h-263v186l171 12l121 308l-315 -2v216h602v-264l-130 -305l-25 -11c66.667 0 117.334 -16 152.001 -48zM18.999 230z" />
    <glyph glyph-name="four" unicode="4" horiz-adv-x="739" 
d="M351 282h-342v225l171 853h493l2 -853h53v-225h-53v-282h-324v282zM351 507v619h-12l-62 -619h74z" />
    <glyph glyph-name="five" unicode="5" horiz-adv-x="734" 
d="M647.5 765c43 -36 64.833 -90.666 65.5 -163.999v-353c0 -92.667 -30.667 -161.167 -92 -205.5s-156.333 -66.5 -285 -66.5c-108.667 0 -188.667 20.667 -240 62s-77.333 105.666 -78 192.999l1 211h309v-194c0 -34.667 9.33301 -52 28 -52s28 15 28 45v354
c0 30.667 -13.667 46 -41 46h-270l-36 62l44 657h578v-339h-243v114h-56v-310l87 -2c90.667 -2.66699 157.5 -22 200.5 -58zM18 231.001z" />
    <glyph glyph-name="six" unicode="6" horiz-adv-x="764" 
d="M108 41c-60 44 -90 111.997 -90 203.997v402c2 137.333 23.5 264.833 64.5 382.5s102.833 227.834 185.5 330.501h358c-128 -162 -207.333 -342 -238 -540l7 -2c6 11.333 15.167 22.5 27.5 33.5s24.166 18.167 35.499 21.5c96.667 0 168.334 -20.167 215.001 -60.5
s70.667 -103.166 72 -188.499v-376c0 -93.333 -29.167 -162.166 -87.5 -206.499s-148.833 -66.5 -271.5 -66.5c-125.333 0 -218 22 -278 66zM410 249.997v372c-0.666992 34 -9 51 -25 51c-20 0 -30.667 -16.667 -32 -50v-373c0 -34 9.66699 -51 29 -51c18.667 0 28 17 28 51
z" />
    <glyph glyph-name="seven" unicode="7" horiz-adv-x="630" 
d="M237 1124h-220v236h598v-219l-233 -1141h-370z" />
    <glyph glyph-name="eight" unicode="8" horiz-adv-x="758" 
d="M112.5 34.5c-58.333 40.333 -87.499 102.833 -87.499 187.5v334c0.666992 40 5.16699 71.167 13.5 93.5s23.833 44.5 46.5 66.5c-16.667 12.667 -29.834 30.834 -39.501 54.501s-14.834 49.5 -15.501 77.5v300c0 79.333 28.833 138 86.5 176s146.5 57 266.5 57
s208.5 -19 265.5 -57s85.5 -96.667 85.5 -176v-300c-0.666992 -28 -5.66699 -53.833 -15 -77.5s-21.666 -41.834 -36.999 -54.501c22.667 -22.667 38 -45 46 -67s12 -52.667 12 -92v-335c0 -84.667 -29 -147.167 -87 -187.5s-148 -60.5 -270 -60.5
s-212.167 20.167 -270.5 60.5zM411.001 830v298c0 32.667 -9.33301 49 -28 49s-28 -16.333 -28 -49v-298c0 -32.667 9.33301 -49 28 -49s28 16.333 28 49zM411.001 234v336c0 19.333 -2.16699 32.666 -6.5 39.999s-11.5 11 -21.5 11s-17.167 -3.66699 -21.5 -11
s-6.5 -20.666 -6.5 -39.999v-336c0 -32 9.33301 -48 28 -48s28 16 28 48z" />
    <glyph glyph-name="nine" unicode="9" horiz-adv-x="767" 
d="M377 539l-7.00098 2.99707c-6 -11.333 -15.167 -22.666 -27.5 -33.999s-24.166 -18.333 -35.499 -21c-98 0 -170.333 20.167 -217 60.5s-70 102.833 -70 187.5v377c0 92.667 29.167 161.167 87.5 205.5s148.833 66.5 271.5 66.5c125.333 0 218 -22 278 -66
s90 -111.667 90 -203v-402c0 -149.333 -22.333 -282.666 -67 -399.999s-113 -221.666 -205 -312.999h-359c162.667 196 249.667 375.667 261 539zM411.999 736.997v372c0 34 -9.66699 51 -29 51c-18.667 0 -28 -17 -28 -51v-372c0 -33.333 8.33301 -50 25 -50
c21.333 0 32 16.667 32 50z" />
    <glyph glyph-name="colon" unicode=":" horiz-adv-x="365" 
d="M81.5 -10.5c-23 9 -39.333 25.502 -49 49.502s-14.5 59.333 -14.5 106c0 49.333 4.83301 86.666 14.5 111.999s26 42.666 49 51.999s56.5 14 100.5 14c44.667 0 78.5 -4.66699 101.5 -14s39.333 -26.5 49 -51.5s14.5 -62.5 14.5 -112.5c0 -46.667 -5 -82 -15 -106
s-26.5 -40.5 -49.5 -49.5s-56.5 -13.5 -100.5 -13.5s-77.5 4.5 -100.5 13.5zM81.5 639.502c-23 9 -39.333 25.502 -49 49.502s-14.5 59.333 -14.5 106c0 49.333 4.83301 86.666 14.5 111.999s26 42.666 49 51.999s56.5 14 100.5 14c44.667 0 78.5 -4.66699 101.5 -14
s39.333 -26.5 49 -51.5s14.5 -62.5 14.5 -112.5c0 -46.667 -5 -82 -15 -106s-26.5 -40.5 -49.5 -49.5s-56.5 -13.5 -100.5 -13.5s-77.5 4.5 -100.5 13.5z" />
    <glyph glyph-name="semicolon" unicode=";" horiz-adv-x="365" 
d="M33 275h306l-95 -464h-251zM81.5 639.5c-23 9 -39.333 25.502 -49 49.502s-14.5 59.333 -14.5 106c0 49.333 4.83301 86.666 14.5 111.999s26 42.666 49 51.999s56.5 14 100.5 14c44.667 0 78.5 -4.66699 101.5 -14s39.333 -26.5 49 -51.5s14.5 -62.5 14.5 -112.5
c0 -46.667 -5 -82 -15 -106s-26.5 -40.5 -49.5 -49.5s-56.5 -13.5 -100.5 -13.5s-77.5 4.5 -100.5 13.5z" />
    <glyph glyph-name="less" unicode="&#x3c;" horiz-adv-x="628" 
d="M26 448v259l577 254v-296l-249 -88l249 -87v-296z" />
    <glyph glyph-name="equal" unicode="=" horiz-adv-x="553" 
d="M26 834l502 1v-219h-502v218zM26 536h502v-218h-502v218z" />
    <glyph glyph-name="greater" unicode="&#x3e;" horiz-adv-x="628" 
d="M26 490l249 87l-249 88v296l577 -254v-259l-577 -254v296z" />
    <glyph glyph-name="question" unicode="?" horiz-adv-x="686" 
d="M197 426l-20.998 206.999c-4.66699 14 -7 26.667 -7 38c0 26.667 12.167 49.5 36.5 68.5s65.166 30.167 122.499 33.5c20 9.33301 30.333 24.666 31 45.999v310c-0.666992 26 -10.667 39 -30 39c-10 0 -17.833 -3.16699 -23.5 -9.5s-8.5 -15.5 -8.5 -27.5v-280h-279v275
c-2 86.667 24.833 152 80.5 196s139.167 66 250.5 66c106 0 186.167 -20.5 240.5 -61.5s81.5 -101.833 81.5 -182.5v-312c-0.666992 -29.333 -6.33398 -54.166 -17.001 -74.499s-23.167 -36.666 -37.5 -48.999s-32.5 -25.5 -54.5 -39.5
c-17.333 -11.333 -30.833 -21 -40.5 -29s-16.167 -17 -19.5 -27l-12 -186l-15 -82h-261zM246.002 -9.50098c-23.333 9.66699 -40.335 27 -51.002 52s-16 60.5 -16 106.5c0 44 5.33301 77.833 16 101.5s27.834 40.167 51.501 49.5s56.167 14 97.5 14
s73.833 -4.66699 97.5 -14s40.834 -25.833 51.501 -49.5s16 -57.5 16 -101.5c0 -46 -5.33301 -81.5 -16 -106.5s-27.667 -42.333 -51 -52s-56 -14.5 -98 -14.5s-74.667 4.83301 -98 14.5z" />
    <glyph glyph-name="at" unicode="@" horiz-adv-x="1150" 
d="M250 -261c-80.667 36 -139.174 91.498 -175.507 166.498s-54.5 174.167 -54.5 297.5l1 631c0.666992 180 50.334 312.667 149.001 398s239.667 128 423 128c110.667 0 206.334 -17.333 287.001 -52s142.5 -85.667 185.5 -153s64.5 -148.666 64.5 -243.999v-574
c0 -94.667 -23.5 -174.167 -70.5 -238.5s-124.5 -96.5 -232.5 -96.5c-113.333 0 -189.666 33 -228.999 99c-8 -28 -23.167 -50.333 -45.5 -67s-54.166 -25 -95.499 -25c-108 0 -162.667 85.667 -164 257v527c0 47.333 7.33301 90.5 22 129.5s37 70.167 67 93.5
s66.667 35 110 35c76 0 137 -19 183 -57l23 36c50.667 -12.667 104 -28.667 160 -48v-708c0 -23.333 2.33301 -39.166 7 -47.499s11 -12.5 19 -12.5c8.66699 0 15.334 4.33301 20.001 13s7 24.334 7 47.001v703c0 32 -11.167 61.167 -33.5 87.5s-57.166 47.5 -104.499 63.5
s-106.666 24 -177.999 24c-102 0 -178.667 -11.167 -230 -33.5s-85.5 -55.333 -102.5 -99s-25.5 -104.5 -25.5 -182.5v-630c0.666992 -94.667 18.167 -169.334 52.5 -224.001s94.833 -83 181.5 -85h363v-187c-44.667 -8 -86.667 -14.833 -126 -20.5s-84 -8.5 -134 -8.5
c-135.333 2 -243.333 21 -324 57zM605.993 273.998l-0.000976562 529.999c-3.33301 20.667 -7.16602 35.834 -11.499 45.501s-9.83301 14.5 -16.5 14.5c-16 0 -24 -23.333 -24 -70v-522c0.666992 -48 8.66699 -72 24 -72c18.667 0 28 24.667 28 74z" />
    <glyph glyph-name="A" unicode="A" horiz-adv-x="786" 
d="M426 173h-65l-6 -173h-352l201 1360h378l202 -1360h-352zM419 364l-21 576h-12l-19 -576h52z" />
    <glyph glyph-name="B" unicode="B" horiz-adv-x="781" 
d="M26 1360l365 -0.00195312c86.667 0 156.167 -7.16699 208.5 -21.5s90.5 -36.666 114.5 -66.999s36 -70.833 36 -121.5v-307c0 -86 -29.667 -141 -89 -165c32 -12.667 56.167 -33 72.5 -61s24.5 -61.667 24.5 -101v-306c0 -50.667 -11.833 -91.167 -35.5 -121.5
s-61.667 -52.666 -114 -66.999s-121.833 -21.5 -208.5 -21.5h-374v1360zM378 764.998c14.667 0 25.167 3.50098 31.5 10.501s9.5 19.167 9.5 36.5v302c0 15.333 -2.5 26.166 -7.5 32.499s-13.833 9.5 -26.5 9.5h-23v-391h16zM385 203.999
c12.667 0 21.5 3.16797 26.5 9.50098s7.5 17.166 7.5 32.499v301c0 17.333 -3.16699 29.5 -9.5 36.5s-16.833 10.5 -31.5 10.5h-16v-390h23z" />
    <glyph glyph-name="C" unicode="C" horiz-adv-x="824" 
d="M119 68.5c-66 61 -99.002 151.168 -99.002 270.501v684c0 118.667 33 208.334 99 269.001s163.667 91 293 91c126 0 222.167 -29.333 288.5 -88s100.833 -145.334 103.5 -260.001v-324h-364v356c0 19.333 -9.66699 29 -29 29s-29 -9.66699 -29 -29v-772
c0 -19.333 9.66699 -29 29 -29s29 9.66699 29 29v354h364v-324c-3.33301 -114.667 -38.166 -201.334 -104.499 -260.001s-162.166 -88 -287.499 -88c-129.333 0 -227 30.5 -293 91.5z" />
    <glyph glyph-name="D" unicode="D" horiz-adv-x="802" 
d="M26 1360l370 0.000976562c126.667 0 222.5 -28.833 287.5 -86.5s97.5 -142.834 97.5 -255.501v-674c0 -113.333 -32.167 -199 -96.5 -257s-159.833 -87 -286.5 -87h-372v1360zM391 277.001c13.333 0 22.166 4.33301 26.499 13s6.5 26 6.5 52v673
c0 27.333 -2.16699 45.5 -6.5 54.5s-13.166 13.5 -26.499 13.5h-24v-806h24z" />
    <glyph glyph-name="E" unicode="E" horiz-adv-x="604" 
d="M26 1360h563v-236h-206v-363h164v-173h-164v-359h210v-229h-567v1360z" />
    <glyph glyph-name="F" unicode="F" horiz-adv-x="606" 
d="M26 1360h560v-235h-208v-392h169v-231h-169v-502h-352v1360z" />
    <glyph glyph-name="G" unicode="G" horiz-adv-x="823" 
d="M119 67c-66 60 -99.002 148.667 -99.002 266v693c0 118 33 207 99 267s163.667 90 293 90c126.667 0 222.334 -25.5 287.001 -76.5s97.334 -126.833 98.001 -227.5v-307l-357 1v330c0 19.333 -9.66699 29 -29 29s-29 -9.66699 -29 -29v-884c0 -19.333 10 -29 30 -29
c11.333 0 21.333 2.66699 30 8v360h-27l1 169h383v-668c-98 -54.667 -227 -82 -387 -82c-129.333 0 -227 30 -293 90z" />
    <glyph glyph-name="H" unicode="H" horiz-adv-x="796" 
d="M26 1360h344v-568h56v568h344v-1360h-344v560h-56v-560h-344v1360z" />
    <glyph glyph-name="I" unicode="I" horiz-adv-x="405" 
d="M26 1360h353v-1360h-353v1360z" />
    <glyph glyph-name="J" unicode="J" horiz-adv-x="494" 
d="M13 234h65c26.667 0 40 14.333 40 43l1 1083h351v-1104c0 -84.667 -20.833 -148.5 -62.5 -191.5s-103.167 -64.5 -184.5 -64.5h-210v234z" />
    <glyph glyph-name="K" unicode="K" horiz-adv-x="822" 
d="M26 1360h353l-7 -569h24l41 569h371l-97 -680l101 -680h-373l-43 558l-23 1l6 -559h-353v1360z" />
    <glyph glyph-name="L" unicode="L" horiz-adv-x="559" 
d="M26 1360h353v-1111h164v-249h-517v1360z" />
    <glyph glyph-name="M" unicode="M" horiz-adv-x="1026" 
d="M26 1360h434l45 -867h15l47 867h433v-1360h-300l50 858h-18l-94 -858h-250l-97 858h-17l53 -858h-301v1360z" />
    <glyph glyph-name="N" unicode="N" horiz-adv-x="787" 
d="M26 1360h369l25 -180l67 -615l17 1l-47 794h304v-1360h-369l-25 176l-78 679l-17 1l55 -856h-301v1360z" />
    <glyph glyph-name="O" unicode="O" horiz-adv-x="824" 
d="M20 1028c0 116 33 204.168 99 264.501s163.667 90.5 293 90.5s227 -30.333 293 -91s99 -150.334 99 -269.001v-684c0 -119.333 -33 -209.5 -99 -270.5s-163.667 -91.5 -293 -91.5c-254 0 -384.667 120.667 -392 362v689zM412 266.001c18.667 0 28 9.66699 28 29v772
c0 19.333 -9.33301 29 -28 29s-28 -9.66699 -28 -29v-772c0 -19.333 9.33301 -29 28 -29z" />
    <glyph glyph-name="P" unicode="P" horiz-adv-x="772" 
d="M26 1360h350.002c82 0 149.833 -7.16699 203.5 -21.5s95.5 -41.333 125.5 -81s45 -96.167 45 -169.5v-501c-0.666992 -70 -15.834 -124.667 -45.501 -164s-69.834 -66.333 -120.501 -81s-112 -22 -184 -22h-21v-320h-353v1360zM387.002 535
c11.333 0 19.5 3.16797 24.5 9.50098s7.5 17.166 7.5 32.499v501c0 16 -2.5 27.167 -7.5 33.5s-13.833 9.5 -26.5 9.5h-23v-586h25z" />
    <glyph glyph-name="Q" unicode="Q" horiz-adv-x="825" 
d="M860 -219c-58 -31.333 -147.666 -47 -268.999 -47c-101.333 0 -179 21.167 -233 63.5s-83.333 105.5 -88 189.5v5c-82.667 20 -145 59 -187 117s-63 134.667 -63 230v684c0 118.667 33 208.334 99 269.001s163.667 91 293 91s227 -30.333 293 -91
s99 -150.334 99 -269.001v-684c0 -94.667 -20.833 -171 -62.5 -229s-103.5 -97 -185.5 -117l1 -6c6 -23.333 28.333 -35 67 -35c30 0 67 6.33301 111 19l41 12c13.333 4 20.666 6 21.999 6zM382.001 295c0 -19.333 9.66699 -29 29 -29s29 9.66699 29 29v772
c0 19.333 -9.66699 29 -29 29s-29 -9.66699 -29 -29v-772z" />
    <glyph glyph-name="R" unicode="R" horiz-adv-x="773" 
d="M419 0l-20 473.001h-38v-473h-335v1360h350c82 0 149.833 -7.16699 203.5 -21.5s95.5 -41.333 125.5 -81s45 -96.167 45 -169.5v-371c0 -78.667 -23 -137.334 -69 -176.001l72 -541h-334zM387 663.001c11.333 0 19.5 3.33301 24.5 10s7.5 18 7.5 34v371
c0 16 -2.5 27.167 -7.5 33.5s-13.833 9.5 -26.5 9.5h-23v-458h25z" />
    <glyph glyph-name="S" unicode="S" horiz-adv-x="746" 
d="M24 233l-0.00683594 220.002h317v-223c0 -19.333 9.66699 -29 29 -29c9.33301 0 16.333 2.66699 21 8s7 12.333 7 21c0 61.333 -4.33301 109.333 -13 144c-9.33301 39.333 -22.333 74.666 -39 105.999s-34.5 58.666 -53.5 81.999s-44.167 52 -75.5 86
c-42 44 -75.667 83.333 -101 118s-46.666 78 -63.999 130s-26 114.333 -26 187v40c2.66699 91.333 31.834 157.5 87.501 198.5s137.834 61.5 246.501 61.5c116.667 0 203.834 -22.833 261.501 -68.5s86.834 -108.5 87.501 -188.5v-164h-305v168c0 8 -2.66699 14.667 -8 20
s-12.333 8 -21 8s-15.667 -2.66699 -21 -8s-8 -12.333 -8 -21c0 -36 5.66699 -70.333 17 -103c10 -32 24.667 -60.5 44 -85.5s47.333 -56.5 84 -94.5c48.667 -50 88.334 -96.333 119.001 -139s57 -100.167 79 -172.5s33 -161.166 33 -266.499v-52
c-2.66699 -78.667 -34 -138.334 -94 -179.001s-140 -61 -240 -61c-241.333 0 -362.666 85.667 -363.999 257z" />
    <glyph glyph-name="T" unicode="T" horiz-adv-x="609" 
d="M129 1103h-121v257h593v-257h-121v-1103h-351v1103z" />
    <glyph glyph-name="U" unicode="U" horiz-adv-x="795" 
d="M118.5 40c-63 44.667 -94.5 110.999 -94.5 198.999v1121h347v-1080c0 -15.333 2.33301 -27.166 7 -35.499s11.667 -12.5 21 -12.5c18.667 0 28 16 28 48v1080h344v-1121c0 -88 -31.333 -154.333 -94 -199s-155.667 -67 -279 -67s-216.5 22.333 -279.5 67z" />
    <glyph glyph-name="V" unicode="V" horiz-adv-x="786" 
d="M3 1360h352l32 -940h12l33 940h352l-202 -1360h-378z" />
    <glyph glyph-name="W" unicode="W" horiz-adv-x="1189" 
d="M355 1360l32 -940h12l33 940h326l32 -940h13l31 940h353l-181 -1360h-379l-27 801h-11l-26 -801h-379l-181 1360h352z" />
    <glyph glyph-name="X" unicode="X" horiz-adv-x="811" 
d="M109 679l-89 681h353l24 -553h14l28 553h352l-91 -670l101 -690h-361l-26 544h-13l-29 -544h-362z" />
    <glyph glyph-name="Y" unicode="Y" horiz-adv-x="784" 
d="M216 425l-216 935h357l28 -638h14l22 638h362l-214 -934v-426h-353v425z" />
    <glyph glyph-name="Z" unicode="Z" horiz-adv-x="665" 
d="M14 205l219 906h-208v249h619l-1 -202l-217 -908h223v-250h-635v205z" />
    <glyph glyph-name="bracketleft" unicode="[" horiz-adv-x="455" 
d="M26 1582h418v-220h-73v-1362h73v-218h-418v1800z" />
    <glyph glyph-name="backslash" unicode="\" horiz-adv-x="551" 
d="M245 -154l-275 1602h342l280 -1602h-347z" />
    <glyph glyph-name="bracketright" unicode="]" horiz-adv-x="453" 
d="M9 0h73v1362h-73v220h418v-1800h-418v218z" />
    <glyph glyph-name="asciicircum" unicode="^" horiz-adv-x="682" 
d="M201 1437h277l194 -735l-295 2l-37 478l-38 -478l-294 -2z" />
    <glyph glyph-name="underscore" unicode="_" horiz-adv-x="467" 
d="M20 -30h425v-157h-425v157z" />
    <glyph glyph-name="grave" unicode="`" horiz-adv-x="362" 
d="M9 1404l283 2l63 -298h-242z" />
    <glyph glyph-name="a" unicode="a" horiz-adv-x="725" 
d="M116.5 1c-29.667 16 -53.1689 39.001 -70.502 69.001s-26 64.667 -26 104v277c0.666992 54 12.334 94.167 35.001 120.5s55.834 43.5 99.501 51.5s106.5 12 188.5 12c2 0 5.66699 -0.166992 11 -0.5s18 -0.5 38 -0.5v216c0 15.333 -2.16699 26.666 -6.5 33.999
s-12.166 11 -23.499 11c-18.667 0 -28 -12.667 -28 -38v-187l-285 -1v187c0.666992 54.667 12.667 99 36 133s60.333 59.167 111 75.5s117.667 24.5 201 24.5c89.333 0 162 -18 218 -54s84 -91.667 84 -167v-868h-290l-33 77c-12.667 -32.667 -32.5 -57.5 -59.5 -74.5
s-60.5 -25.5 -100.5 -25.5c-36.667 0 -69.834 8 -99.501 24zM381.998 190.501c6 7 9.33398 17.165 10.001 30.498v305h-19c-14.667 -0.666992 -24.834 -4.66699 -30.501 -12s-8.5 -17.666 -8.5 -30.999v-275c0 -17.333 8.33301 -26.666 25 -27.999c9.33301 0 17 3.5 23 10.5
z" />
    <glyph glyph-name="b" unicode="b" horiz-adv-x="732" 
d="M247 47l-22 -47h-199v1359h344v-276l-9 -50c29.333 38.667 80 58 152 58c66 0 115.833 -25 149.5 -75s50.5 -123.667 50.5 -221v-523c0 -97.333 -20.833 -171 -62.5 -221s-103.167 -75 -184.5 -75c-85.333 0 -158.333 23.667 -219 71zM393 219v597
c0 31.333 -8.66699 47 -26 47c-12.667 0 -23 -5 -31 -15v-592c0 -35.333 10 -53 30 -53c11.333 0 20.333 5.33301 27 16z" />
    <glyph glyph-name="c" unicode="c" 
d="M107 52c-58 50 -87 123.668 -87 221.001v522c0 97.333 29 170.666 87 219.999s144 74 258 74c111.333 0 196 -23.833 254 -71.5s88.333 -118.167 91 -211.5v-246h-317v260c0 19.333 -9.33301 29 -28 29c-19.333 0 -29 -9.66699 -29 -29v-575
c0 -19.333 9.66699 -29 29 -29c18.667 0 28 9.66699 28 29v269h317v-250c-2.66699 -94.667 -33 -166.167 -91 -214.5s-142.667 -72.5 -254 -72.5c-114 0 -200 25 -258 75z" />
    <glyph glyph-name="d" unicode="d" horiz-adv-x="732" 
d="M68 50c-32.667 50 -49 124 -49 222v523c0 97.333 16.833 171 50.5 221s83.5 75 149.5 75c72 0 122.667 -19.333 152 -58l-9 50v276h344v-1359h-294l-32 75c-24 -66.667 -80 -100 -168 -100c-63.333 0 -111.333 25 -144 75zM383 216
c5.33301 7.33301 8.00098 17.333 8.00098 30v605c-10 8 -20 12 -30 12c-17.333 0 -26 -22 -26 -66v-525c0 -20.667 2.16699 -37 6.5 -49s10.833 -18 19.5 -18c9.33301 0 16.666 3.66699 21.999 11z" />
    <glyph glyph-name="e" unicode="e" 
d="M336 455v-284.998c0 -19.333 9.66699 -29 29 -29c18.667 0 28 9.66699 28 29v227h301v-219c-16 -66.667 -51.667 -116.834 -107 -150.501s-129.333 -50.5 -222 -50.5c-114 0 -200 25 -258 75s-87 123.667 -87 221v522c0 97.333 29 170.666 87 219.999s144 74 258 74
s200 -23.833 258 -71.5s87 -118.167 87 -211.5c0 -21.333 -2.66699 -138.333 -8 -351h-366zM336 874.002v-278h57v278c0 19.333 -9.33301 29 -28 29c-19.333 0 -29 -9.66699 -29 -29z" />
    <glyph glyph-name="f" unicode="f" horiz-adv-x="553" 
d="M78 835h-78v230h78v160c0 118.667 72.333 178 217 178c126 0 207.667 -4 245 -12v-166l-89 1c-19.333 0 -29 -10.667 -29 -32v-129h119v-230h-119v-835h-344v835z" />
    <glyph glyph-name="g" unicode="g" horiz-adv-x="700" 
d="M87 -357.5c-48.667 27 -72.9971 70.1709 -72.9971 129.504v238c0 24 6 42.667 18 56s31.667 22.666 59 27.999c-25.333 10 -43.666 24.333 -54.999 43s-17 43.667 -17 75v34c0 29.333 4.33301 54.333 13 75s22.667 39.667 42 57
c-15.333 17.333 -26.333 36.666 -33 57.999s-10 47.333 -10 78v354c1.33301 77.333 25.166 133.5 71.499 168.5s120.833 52.5 223.5 52.5c40.667 0 75.5 -2.33301 104.5 -7s55.833 -12.334 80.5 -23.001c9.33301 12 20.833 20.667 34.5 26s30.834 8 51.501 8h98v-178l-56 1
c-0.666992 24 -11.334 38 -32.001 42c8.66699 -20.667 13 -50.334 13 -89.001v-355c0 -76 -23.167 -131.167 -69.5 -165.5s-121.5 -51.5 -225.5 -51.5c-27.333 0 -51.333 1.66699 -72 5l-8 -7v-35c0 -8.66699 3.83301 -15 11.5 -19s20.167 -6.33301 37.5 -7
c9.33301 -0.666992 22.666 -1 39.999 -1c26.667 0 55 2 85 6c28 3.33301 51.333 5 70 5c64 0 111 -15.667 141 -47s45.667 -80.333 47 -147v-218c0 -80.667 -27.833 -139.167 -83.5 -175.5s-145.834 -54.5 -270.501 -54.5c-108.667 0 -187.334 13.5 -236.001 40.5z
M350.003 479.504c4 7 6 20.167 6 39.5v351c0 20 -2 33.5 -6 40.5s-11.333 10.5 -22 10.5c-11.333 0 -19 -3.5 -23 -10.5s-6 -20.5 -6 -40.5v-351c0 -19.333 2 -32.5 6 -39.5s11.333 -10.5 22 -10.5c11.333 0 19 3.5 23 10.5zM357.003 -188.996v215
c-0.666992 30.667 -9.66699 46 -27 46l-31 -1v-261c0 -23.333 9.33301 -35 28 -35c20 0 30 12 30 36z" />
    <glyph glyph-name="h" unicode="h" horiz-adv-x="740" 
d="M25 1360l345 0.000976562l1 -294c24 7.33301 47 12.666 69 15.999s46.667 5 74 5c50.667 0 90.167 -9 118.5 -27s48.5 -47.5 60.5 -88.5s18 -97.833 18 -170.5v-801h-317v796c0 26 -1.5 43.5 -4.5 52.5s-9.5 13.5 -19.5 13.5c-8 0 -14.5 -4 -19.5 -12s-9.5 -22 -13.5 -42
v-808h-312v1360z" />
    <glyph glyph-name="i" unicode="i" horiz-adv-x="398" 
d="M84 1090c-25.333 8 -43.334 23.167 -54.001 45.5s-16 56.166 -16 101.499c0 46 5.5 80.167 16.5 102.5s29.167 37.5 54.5 45.5s63.333 12 114 12s88.834 -4 114.501 -12s44 -23.167 55 -45.5s16.5 -56.5 16.5 -102.5c0 -45.333 -5.5 -79.166 -16.5 -101.499
s-29.333 -37.5 -55 -45.5s-64.167 -12 -115.5 -12c-50.667 0 -88.667 4 -114 12zM25.999 1055c56.667 -8 115 -12 175 -12c65.333 0 122.333 4 171 12v-1055h-346v1055z" />
    <glyph glyph-name="j" unicode="j" horiz-adv-x="398" 
d="M84 1090c-25.333 8 -43.334 23.167 -54.001 45.5s-16 56.166 -16 101.499c0 46 5.5 80.167 16.5 102.5s29.167 37.5 54.5 45.5s63.333 12 114 12s88.834 -4 114.501 -12s44 -23.167 55 -45.5s16.5 -56.5 16.5 -102.5c0 -45.333 -5.5 -79.166 -16.5 -101.499
s-29.333 -37.5 -55 -45.5s-64.167 -12 -115.5 -12c-50.667 0 -88.667 4 -114 12zM-47.001 -157l27.9971 0.000976562c16 0 27.5 3.16699 34.5 9.5s10.5 18.166 10.5 35.499v1167c56.667 -8 114.334 -12 173.001 -12c55.333 0 97.5 2 126.5 6s44.5 6 46.5 6v-1152
c0 -69.333 -11.667 -121.5 -35 -156.5s-57.166 -58.167 -101.499 -69.5s-105.166 -17 -182.499 -17h-100v183z" />
    <glyph glyph-name="k" unicode="k" horiz-adv-x="772" 
d="M26 1360h352l-21 -748l24 3l42 450h335l-80 -516l87 -549h-341l-44 426l-23 2l8 -428h-339v1360z" />
    <glyph glyph-name="l" unicode="l" horiz-adv-x="398" 
d="M26 1360h346v-1360h-346v1360z" />
    <glyph glyph-name="m" unicode="m" horiz-adv-x="1111" 
d="M1033 1020c34.667 -46 51.998 -114.334 51.998 -205.001v-815h-317v810c0 17.333 -2.33301 30.5 -7 39.5s-11.334 13.5 -20.001 13.5c-20 0 -30 -18.333 -30 -55v-808h-317v810c0 35.333 -9 53 -27 53c-9.33301 0 -16.666 -5.16699 -21.999 -15.5s-8 -25.166 -8 -44.499
v-803h-311v1065h282l36 -64c32.667 58.667 89.667 88 171 88c74.667 0 128.334 -31.333 161.001 -94c17.333 30.667 43 54 77 70s75.667 24 125 24c68.667 0 120.334 -23 155.001 -69z" />
    <glyph glyph-name="n" unicode="n" horiz-adv-x="737" 
d="M26 1065h281.997l36 -64c14.667 26.667 36.334 48 65.001 64s64 24 106 24c68 0 117.667 -23.167 149 -69.5s47 -117.5 47 -213.5v-806h-317v801c0 26 -2.16699 42.833 -6.5 50.5s-11.166 11.5 -20.499 11.5c-11.333 0 -19.166 -5.16699 -23.499 -15.5
s-6.5 -28.5 -6.5 -54.5v-793h-311v1065z" />
    <glyph glyph-name="o" unicode="o" horiz-adv-x="735" 
d="M109.5 49c-58.333 48 -87.5 119.333 -87.5 214v540c0 94.667 29.167 166 87.5 214s144.5 72 258.5 72c113.333 0 199.166 -24 257.499 -72s87.5 -119.333 87.5 -214v-540c0 -94.667 -29.167 -166 -87.5 -214s-144.166 -72 -257.499 -72c-114 0 -200.167 24 -258.5 72z
M388.5 217c5 6.66699 7.5 16 7.5 28v575c0 25.333 -9.33301 38 -28 38c-19.333 0 -29 -12.667 -29 -38v-575c0 -12 2.5 -21.333 7.5 -28s12.167 -10 21.5 -10c8.66699 0 15.5 3.33301 20.5 10z" />
    <glyph glyph-name="p" unicode="p" horiz-adv-x="729" 
d="M663.5 1015c33 -50 49.501 -124 49.501 -222v-522c0 -97.333 -17.333 -171 -52 -221s-86.334 -75 -155.001 -75c-46 0 -96.667 11.333 -152 34v-304h-329l1 1360h290l32 -78c24 68.667 80 103 168 103c65.333 0 114.5 -25 147.5 -75zM393.001 820
c0 28 -8.66699 42 -26 42c-20.667 0 -31 -16.333 -31 -49v-576c6 -22.667 16.667 -34 32 -34c10.667 0 19 4.66699 25 14v603z" />
    <glyph glyph-name="q" unicode="q" horiz-adv-x="736" 
d="M710 1065l0.000976562 -1359h-345v276l10 50c-30.667 -38.667 -81.334 -58 -152.001 -58c-66 0 -116 25 -150 75s-51 123.667 -51 221v523c0 97.333 20.833 171 62.5 221s103.167 75 184.5 75c87.333 0 160.333 -23.667 219 -71l23 47h199zM400.001 814
c0 32 -10 48 -30 48c-11.333 0 -20.333 -4.66699 -27 -14v-603c0 -28.667 8.66699 -43 26 -43c16 0 26.333 11 31 33v579z" />
    <glyph glyph-name="r" unicode="r" horiz-adv-x="511" 
d="M26 1065h274l43 -56c20 46 51 69 93 69c25.333 0 48 -3.66699 68 -11v-229c-2 0.666992 -8.83301 1.5 -20.5 2.5s-20.5 1.5 -26.5 1.5c-56.667 0 -85 -30.333 -85 -91v-751h-346v1065z" />
    <glyph glyph-name="s" unicode="s" horiz-adv-x="673" 
d="M96.5 35.5c-49 39.667 -73.833 90.167 -74.5 151.5v175l288 -8v-174c0 -8.66699 2.16699 -15.667 6.5 -21s11.5 -8 21.5 -8c18.667 0 28 10 28 30c0 25.333 -1.5 49 -4.5 71s-7.5 47.333 -13.5 76c-8 27.333 -21.333 50 -40 68s-46.334 40 -83.001 66
c-42 29.333 -76.5 57.333 -103.5 84s-50 63.334 -69 110.001s-28.5 105.667 -28.5 177v41c0 74 25.5 128.167 76.5 162.5s126.167 51.5 225.5 51.5c103.333 0 181.333 -18.167 234 -54.5s79 -88.833 79 -157.5v-148l-277 4v156c0 6 -2.5 11.667 -7.5 17s-11.833 8 -20.5 8
c-10.667 0 -18 -2.83301 -22 -8.5s-6 -11.834 -6 -18.501c0 -44.667 8 -80.334 24 -107.001c7.33301 -24.667 17.333 -45.667 30 -63s26.334 -31.5 41.001 -42.5s34 -23.833 58 -38.5c40.667 -24.667 73.667 -49.334 99 -74.001s47 -63.667 65 -117s27 -125.666 27 -216.999
v-53c0 -63.333 -27.5 -112.166 -82.5 -146.499s-127.833 -51.5 -218.5 -51.5c-119.333 0 -203.5 19.833 -252.5 59.5z" />
    <glyph glyph-name="t" unicode="t" horiz-adv-x="504" 
d="M131.5 60.5c-37 40.333 -55.501 98.833 -55.501 175.5v603h-67v199l85 54l81 225l244 1v-253h83v-226h-84v-572c0 -11.333 2.83301 -20.5 8.5 -27.5s13.834 -10.5 24.501 -10.5h50l1 -229h-210c-70 0 -123.5 20.167 -160.5 60.5z" />
    <glyph glyph-name="u" unicode="u" horiz-adv-x="725" 
d="M109 45c-57.333 45.333 -86 112.333 -86 201v819h311v-820c0 -12 2.5 -21.333 7.5 -28s12.167 -10 21.5 -10s16.5 3.33301 21.5 10s7.5 16 7.5 28v820h310v-825c0 -86.667 -28.5 -152.167 -85.5 -196.5s-141.167 -66.5 -252.5 -66.5c-112.667 0 -197.667 22.667 -255 68z
" />
    <glyph glyph-name="v" unicode="v" horiz-adv-x="729" 
d="M9 1065h323l20 -573l4 -178h17l3 178l21 573h323l-155 -1065h-402z" />
    <glyph glyph-name="w" unicode="w" horiz-adv-x="1065" 
d="M9 1065h314l20 -563l4 -184h17l3 184l21 563h289l21 -563l2 -184h18l3 184l20 563h315l-155 -1065h-339l-21 729h-18l-20 -729h-340z" />
    <glyph glyph-name="x" unicode="x" horiz-adv-x="781" 
d="M106 531l-86 534h340l25 -433h12l28 433h339l-88 -525l98 -540h-348l-26 426h-13l-28 -426h-348z" />
    <glyph glyph-name="y" unicode="y" horiz-adv-x="729" 
d="M124 -104l102.999 -0.00195312c13.333 0 22.333 5.66699 27 17s7.33398 25.333 8.00098 42l4 103h-119l-138 1007h323l20 -573l4 -178h17l3 178l21 573h323l-117 -1151c-14 -63.333 -33.667 -112.166 -59 -146.499s-54.5 -57.666 -87.5 -69.999s-71.5 -18.5 -115.5 -18.5
h-217v217z" />
    <glyph glyph-name="z" unicode="z" horiz-adv-x="637" 
d="M14 143l175 676h-165v246h594l-1 -140l-173 -678h179v-247h-609v143z" />
    <glyph glyph-name="braceleft" unicode="{" horiz-adv-x="521" 
d="M249.5 -200.5c-56.333 11.667 -96.833 36.167 -121.5 73.5s-37 96 -37 176v424c0 26.667 -2 46.834 -6 60.501s-12.167 23.667 -24.5 30s-31.166 9.5 -56.499 9.5v213c25.333 0 44.166 3.33301 56.499 10s20.5 16.834 24.5 30.501s6 33.5 6 59.5v428
c0 80 12.333 138.5 37 175.5s65.167 61.333 121.5 73s142.833 17.5 259.5 17.5l2 -212c-28 0 -47.333 -4.83301 -58 -14.5s-16 -23.834 -16 -42.501v-475c0 -32.667 -6 -64.667 -18 -96s-30.667 -50.666 -56 -57.999v-5c25.333 -6.66699 44 -25.834 56 -57.501
s18 -63.834 18 -96.501v-471c0 -19.333 5.33301 -34 16 -44s30 -15 58 -15l-2 -211c-116.667 0 -203.167 5.83301 -259.5 17.5z" />
    <glyph glyph-name="bar" unicode="|" horiz-adv-x="406" 
d="M26 1689h354v-2012h-354v2012z" />
    <glyph glyph-name="braceright" unicode="}" horiz-adv-x="521" 
d="M12 -7c28 0 47.5 4.99902 58.5 14.999s16.5 24.667 16.5 44v471c0 32.667 6 64.834 18 96.501s30.667 50.834 56 57.501v5c-25.333 7.33301 -44 26.666 -56 57.999s-18 63.333 -18 96v475c0 18.667 -5.5 32.834 -16.5 42.501s-30.5 14.5 -58.5 14.5l2 212
c116.667 0 203.167 -5.83301 259.5 -17.5s97 -36 122 -73s37.5 -95.5 37.5 -175.5v-428c0 -26.667 2 -46.667 6 -60s12 -23.333 24 -30s30.667 -10 56 -10v-213c-25.333 0 -44 -3.16699 -56 -9.5s-20 -16.333 -24 -30s-6 -33.834 -6 -60.501v-424
c0 -80 -12.5 -138.667 -37.5 -176s-65.667 -61.833 -122 -73.5s-142.833 -17.5 -259.5 -17.5z" />
    <glyph glyph-name="asciitilde" unicode="~" horiz-adv-x="493" 
d="M17 583c0 58.667 13 101.832 39 129.499s66 41.5 120 41.5c36 0 63.333 -4.83301 82 -14.5s30.334 -24.834 35.001 -45.501l1 -40c4 -18 11.667 -27 23 -27c5.33301 0 9.33301 2.5 12 7.5s4 13.167 4 24.5v85l143 -1v-165c0 -57.333 -13 -99.666 -39 -126.999
s-66.333 -41 -121 -41c-34 0 -60.333 4.83301 -79 14.5s-30.667 24.834 -36 45.501l-2 41c-4.66699 17.333 -12.334 26 -23.001 26c-11.333 0 -17 -11 -17 -33v-83h-142v162z" />
    <glyph glyph-name="exclamdown" unicode="&#xa1;" horiz-adv-x="393" 
d="M93.5 785c-23.667 11.333 -39.834 28.501 -48.501 51.501s-13 55.167 -13 96.5c0 44 4.33301 78.167 13 102.5s24.834 42.166 48.501 53.499s58.167 17 103.5 17c46 0 80.667 -5.83301 104 -17.5s39.333 -29.5 48 -53.5s13 -58 13 -102
c0 -41.333 -4.16699 -73.5 -12.5 -96.5s-24.333 -40.167 -48 -51.5s-58.5 -17 -104.5 -17c-45.333 0 -79.833 5.66699 -103.5 17zM26 599.001l41 138h261l41 -139v-893h-343v894z" />
    <glyph glyph-name="cent" unicode="&#xa2;" 
d="M393 560v260.002c0 19.333 -9.33301 29 -28 29c-19.333 0 -29 -9.66699 -29 -29v-575c0 -19.333 9.66699 -29 29 -29c18.667 0 28 9.66699 28 29v269h317v-250c-2.66699 -88 -29 -156 -79 -204s-123.333 -75.333 -220 -82v-128h-98v129
c-97.333 7.33301 -170.5 35.666 -219.5 84.999s-73.5 119 -73.5 209v522c0 89.333 24.667 158.666 74 207.999s122.333 77.333 219 84v165h98v-164c96 -6.66699 169.167 -33.667 219.5 -81s76.833 -114.333 79.5 -201v-246h-317z" />
    <glyph glyph-name="sterling" unicode="&#xa3;" horiz-adv-x="688" 
d="M10 177c13.333 4.66699 21.834 10.1689 25.501 16.502s5.5 19.833 5.5 40.5v319h-28v97h27v497c0 56.667 11.5 102.167 34.5 136.5s58.167 59.166 105.5 74.499s109.666 23 186.999 23c94 0 168.167 -20 222.5 -60s81.833 -107.333 82.5 -202v-203h-269v184
c0 27.333 -9.66699 41 -29 41c-10.667 0 -18.167 -3.83301 -22.5 -11.5s-6.5 -18.834 -6.5 -33.501v-446h245v-97h-245v-324h326v-229l-661 -1v178z" />
    <glyph glyph-name="currency" unicode="&#xa4;" horiz-adv-x="808" 
d="M9 167l105.001 103.001c-5.33301 20 -8 41 -8 63v527c1.33301 25.333 3.66602 45.333 6.99902 60l-105 103l249 199l90 -88c18.667 4 37.667 6 57 6c20 0 39.333 -2 58 -6l90 88l248 -200l-104 -100c4 -16.667 6.66699 -37.334 8 -62.001v-527
c0 -20.667 -2.66699 -42.667 -8 -66l104 -100l-249 -199l-90 87c-22 -3.33301 -41.667 -5 -59 -5c-16 0 -34.667 1.66699 -56 5l-89 -88zM443.001 334.001v524c0 22 -13 33 -39 33c-25.333 0 -38 -11 -38 -33v-524c0 -24 13 -36 39 -36c25.333 0 38 12 38 36z" />
    <glyph glyph-name="yen" unicode="&#xa5;" horiz-adv-x="784" 
d="M71 660h72l-142 700h356l25 -677h14l25 677h363l-142 -699h68v-94h-639v93zM217 420h-146v94l638 1v-95h-139v-420h-353v420z" />
    <glyph glyph-name="brokenbar" unicode="&#xa6;" horiz-adv-x="404" 
d="M26 1689h354v-977h-354v977zM26 656h354v-979h-354v979z" />
    <glyph glyph-name="section" unicode="&#xa7;" horiz-adv-x="751" 
d="M414 1140l0.000976562 112.001c0 19.333 -9.66699 29 -29 29c-8.66699 0 -15.5 -2.83301 -20.5 -8.5s-7.5 -12.5 -7.5 -20.5c0 -35.333 4.33301 -68.333 13 -99c7.33301 -14.667 18 -28.834 32 -42.501s33.667 -30.834 59 -51.501
c51.333 -42 94.666 -83.333 129.999 -124s66.333 -97.334 93 -170.001s40 -162.667 40 -270v-52c0 -39.333 -10 -70.666 -30 -93.999s-49.667 -40.333 -89 -51c34 -35.333 60.5 -78.666 79.5 -129.999s28.5 -118 28.5 -200v-40c0 -76.667 -30 -134.834 -90 -174.501
s-140 -59.5 -240 -59.5c-132.667 0 -225.5 22.833 -278.5 68.5s-79.833 106.5 -80.5 182.5v109h312v-112c1.33301 -19.333 11 -29 29 -29c9.33301 0 16.5 2.66699 21.5 8s7.5 12.333 7.5 21c0 33.333 -4.66699 66.333 -14 99c-8 16.667 -19.5 33 -34.5 49
s-36.167 35.667 -63.5 59c-50.667 44.667 -93.167 87.5 -127.5 128.5s-64.333 96.5 -90 166.5s-38.5 155 -38.5 255v52c0 40.667 10.333 72.667 31 96s52 40 94 50c-36 34.667 -63.833 77.167 -83.5 127.5s-29.5 117.5 -29.5 201.5v40c0 76.667 30 134.834 90 174.501
s140 59.5 240 59.5c132.667 0 225.5 -22.833 278.5 -68.5s79.833 -106.5 80.5 -182.5v-109h-313zM393.001 615.001c-10.667 40 -27.333 77 -50 111c2 -66 7 -115 15 -147c11.333 -40 28 -74.667 50 -104c-2 62 -7 108.667 -15 140z" />
    <glyph glyph-name="dieresis" unicode="&#xa8;" horiz-adv-x="465" 
d="M52 1118.5c-14 7 -24.168 19.833 -30.501 38.5s-9.5 46.667 -9.5 84c0 40 3.16699 70 9.5 90s16.333 33.5 30 40.5s33.834 10.5 60.501 10.5c27.333 0 48 -3.5 62 -10.5s24.167 -20.5 30.5 -40.5s9.5 -50 9.5 -90c0 -37.333 -3.16699 -65.333 -9.5 -84
s-16.5 -31.5 -30.5 -38.5s-34.333 -10.5 -61 -10.5s-47 3.5 -61 10.5zM291.999 1118.5c-14 7 -24.167 19.833 -30.5 38.5s-9.5 46.667 -9.5 84c0 40 3.16699 70 9.5 90s16.333 33.5 30 40.5s33.834 10.5 60.501 10.5c27.333 0 48.166 -3.5 62.499 -10.5
s24.666 -20.5 30.999 -40.5s9.5 -50 9.5 -90c0 -37.333 -3.16699 -65.333 -9.5 -84s-16.666 -31.5 -30.999 -38.5s-34.833 -10.5 -61.5 -10.5s-47 3.5 -61 10.5z" />
    <glyph glyph-name="copyright" unicode="&#xa9;" horiz-adv-x="1001" 
d="M246.5 -124.5c-72.333 36.333 -128.167 88.167 -167.5 155.5s-59 146 -59 236l1 529c0 90.667 19.5 169.834 58.5 237.501s94.667 119.834 167 156.501s157.166 55 254.499 55c96.667 0 181.167 -18.333 253.5 -55s128.166 -88.834 167.499 -156.501
s59 -146.834 59 -237.501v-530c0 -90 -19.667 -168.5 -59 -235.5s-95.166 -118.667 -167.499 -155s-156.833 -54.5 -253.5 -54.5c-97.333 0 -182.166 18.167 -254.499 54.5zM709.499 -57.499c59.667 30.333 106.167 73.333 139.5 129s50.333 120.834 51 195.501v529
c0 75.333 -16.333 141.166 -49 197.499s-79 99.666 -139 129.999s-130.333 45.5 -211 45.5s-151 -15.167 -211 -45.5s-106.333 -73.666 -139 -129.999s-49 -122.166 -49 -197.499v-529c0.666992 -74.667 17.5 -139.834 50.5 -195.501s79.333 -98.667 139 -129
s129.5 -45.5 209.5 -45.5c79.333 0 148.833 15.167 208.5 45.5zM284.999 77.001c-54.667 44.667 -82 110.333 -82 197v522c0 86.667 27.333 152 82 196s126.334 66 215.001 66c86.667 0 157.167 -21.333 211.5 -64s82.833 -105.667 85.5 -189v-246h-271v259
c0 8.66699 -2.33301 15.334 -7 20.001s-11 7 -19 7s-14.5 -2.33301 -19.5 -7s-7.5 -11.334 -7.5 -20.001v-568c0 -8.66699 2.5 -15.5 7.5 -20.5s11.5 -7.5 19.5 -7.5s14.333 2.5 19 7.5s7 11.833 7 20.5v266h271v-250c-2.66699 -84 -31.167 -147.667 -85.5 -191
s-124.833 -65 -211.5 -65c-88.667 0 -160.334 22.333 -215.001 67z" />
    <glyph glyph-name="ordfeminine" unicode="&#xaa;" horiz-adv-x="543" 
d="M53 804c-23.333 20.667 -35.001 53.665 -35.001 98.998v110c0 42.667 16.5 73.834 49.5 93.501s85.833 29.5 158.5 29.5h74v109c0 22 -10 33 -30 33c-16 0 -24 -11.667 -24 -35v-78h-207v84c0 50 18.667 86.333 56 109s97 34 179 34c86.667 0 149.667 -11.5 189 -34.5
s59 -59.833 59 -110.5v-460h-212l-23 52c-14 -23.333 -30.667 -40.166 -50 -50.499s-43.666 -15.5 -72.999 -15.5c-50.667 0 -87.667 10.333 -111 31zM292.999 889.998c4.66699 5.33301 7 13.667 7 25v148h-22c-21.333 0 -32 -13.667 -32 -41v-115
c0 -17.333 8.66699 -26 26 -26c9.33301 0.666992 16.333 3.66699 21 9z" />
    <glyph glyph-name="guillemotleft" unicode="&#xab;" horiz-adv-x="804" 
d="M1 596l142 448l287 -22l-135 -426l136 -425l-288 -24zM361 596l142 448l287 -22l-135 -426l136 -425l-288 -24z" />
    <glyph glyph-name="logicalnot" unicode="&#xac;" horiz-adv-x="688" 
d="M415 461h-389v231h636v-352h-247v121z" />
    <glyph glyph-name="uni00AD" unicode="&#xad;" horiz-adv-x="510" 
d="M26 693h460v-232h-460v232z" />
    <glyph glyph-name="registered" unicode="&#xae;" horiz-adv-x="1001" 
d="M246.5 -124.5c-72.333 36.333 -128.167 88.167 -167.5 155.5s-59 146 -59 236l1 529c0 90.667 19.5 169.834 58.5 237.501s94.667 119.834 167 156.501s157.166 55 254.499 55c96.667 0 181.167 -18.333 253.5 -55s128.166 -88.834 167.499 -156.501
s59 -146.834 59 -237.501v-530c0 -90 -19.667 -168.5 -59 -235.5s-95.166 -118.667 -167.499 -155s-156.833 -54.5 -253.5 -54.5c-97.333 0 -182.166 18.167 -254.499 54.5zM709.499 -57.499c59.667 30.333 106.167 73.333 139.5 129s50.333 120.834 51 195.501v529
c0 75.333 -16.333 141.166 -49 197.499s-79 99.666 -139 129.999s-130.333 45.5 -211 45.5s-151 -15.167 -211 -45.5s-106.333 -73.666 -139 -129.999s-49 -122.166 -49 -197.499v-529c0.666992 -74.667 17.5 -139.834 50.5 -195.501s79.333 -98.667 139 -129
s129.5 -45.5 209.5 -45.5c79.333 0 148.833 15.167 208.5 45.5zM233.999 1032h259c60 0 109.5 -5.16699 148.5 -15.5s69.333 -29.166 91 -56.499s32.5 -66 32.5 -116v-273c-0.666992 -58.667 -18 -102.334 -52 -131.001l50 -384h-237l-15 328h-36v-328h-241v976z
M497.999 531.001c9.33301 0 16.167 2.5 20.5 7.5s6.5 13.833 6.5 26.5v273c0 12 -2 20.5 -6 25.5s-11.333 7.5 -22 7.5h-21v-340h22z" />
    <glyph glyph-name="macron" unicode="&#xaf;" horiz-adv-x="467" 
d="M29 1265h409v-157h-409v157z" />
    <glyph glyph-name="degree" unicode="&#xb0;" horiz-adv-x="501" 
d="M85.5 1003c-41.667 36 -62.501 89 -62.501 159v51c0.666992 69.333 21.834 121.5 63.501 156.5s96.5 52.5 164.5 52.5c68.667 0 123.834 -17.5 165.501 -52.5s62.5 -86.833 62.5 -155.5v-52c0 -70 -21 -123 -63 -159s-97 -54 -165 -54c-68.667 0 -123.834 18 -165.501 54
zM278.999 1150v71c0 19.333 -9.33301 29 -28 29s-28 -9.66699 -28 -29v-71c0 -19.333 9.33301 -29 28 -29s28 9.66699 28 29z" />
    <glyph glyph-name="plusminus" unicode="&#xb1;" horiz-adv-x="513" 
d="M141 594h-115v231h115v115h231v-115h114v-231h-114v-110h-231v110zM26 459h460v-232h-460v232z" />
    <glyph glyph-name="uni00B2" unicode="&#xb2;" horiz-adv-x="533" 
d="M20 924c65.333 66 114.831 119.668 148.498 161.001s57.334 77.666 71.001 108.999s21.167 64.666 22.5 99.999v95c0 8.66699 -2.5 15.334 -7.5 20.001s-11.833 7 -20.5 7c-20.667 0 -30.334 -13 -29.001 -39c0 -90.667 0.333008 -137.334 1 -140.001h-184v140
c0.666992 53.333 17.5 95.833 50.5 127.5s94.5 47.5 184.5 47.5c84 0 146.833 -14.667 188.5 -44s63.167 -67.666 64.5 -114.999v-93c0 -43.333 -7.16699 -84 -21.5 -122s-34.166 -75 -59.499 -111s-59 -78.667 -101 -128v-16c28.667 0 58.667 2.5 90 7.5l53 8.5
c26.667 4 40.334 6 41.001 6v-158h-492v137z" />
    <glyph glyph-name="uni00B3" unicode="&#xb3;" horiz-adv-x="552" 
d="M534 1013c0 -52.667 -0.334961 -79.334 -1.00195 -80.001c0.666992 -53.333 -21.333 -93.666 -66 -120.999s-110.667 -41 -198 -41c-82.667 0 -145 13.5 -187 40.5s-63 67.167 -63 120.5v78h225v-74c0 -23.333 9 -35 27 -35c8.66699 0 15.334 3 20.001 9s7 14.667 7 26
v161c0 23.333 -12.333 35 -37 35h-193v105l237 161l1 7l-258 -1v133h450v-158l-201 -162h15c74.667 0 130.334 -9 167.001 -27s54.667 -50.333 54 -97c0.666992 0 1 -26.667 1 -80z" />
    <glyph glyph-name="acute" unicode="&#xb4;" horiz-adv-x="362" 
d="M72 1406l283 -2l-104 -296h-242z" />
    <glyph glyph-name="uni00B5" unicode="&#xb5;" horiz-adv-x="734" 
d="M25 1055h312v-807c4 -21.333 8.33301 -35.833 13 -43.5s11.334 -11.5 20.001 -11.5c6.66699 0 11.667 1.33301 15 4s5.66602 8.5 6.99902 17.5s2 23.833 2 44.5v796h317v-801c0 -98 -15.333 -170 -46 -216s-81 -69 -151 -69c-38 0 -65.833 1.66699 -83.5 5
s-37.5 8.33301 -59.5 15l-1 -293h-345v1359z" />
    <glyph glyph-name="paragraph" unicode="&#xb6;" horiz-adv-x="910" 
d="M231 906c-71.333 -0.666992 -125.667 18.832 -163 58.499s-56 95.5 -56 167.5c0 70.667 19.333 126.334 58 167.001s94 61 166 61h265v-1594h-268zM556.999 1360h329v-252h-51v-1344h-278v1596z" />
    <glyph glyph-name="periodcentered" unicode="&#xb7;" horiz-adv-x="355" 
d="M76.5 452.5c-23 9 -39.333 25.502 -49 49.502s-14.5 59.333 -14.5 106c0 49.333 4.83301 86.666 14.5 111.999s26 42.666 49 51.999s56.5 14 100.5 14c44.667 0 78.5 -4.66699 101.5 -14s39.333 -26.5 49 -51.5s14.5 -62.5 14.5 -112.5c0 -46.667 -5 -82 -15 -106
s-26.5 -40.5 -49.5 -49.5s-56.5 -13.5 -100.5 -13.5s-77.5 4.5 -100.5 13.5z" />
    <glyph glyph-name="cedilla" unicode="&#xb8;" horiz-adv-x="457" 
d="M73 -512l29.001 145.999c12 -4.66699 28.667 -7 50 -7c29.333 0 44 8.66699 44 26v92c0 17.333 -28 27 -84 29l30 246l190 -2l-17 -139c37.333 -9.33301 65.666 -26.666 84.999 -51.999s29 -58 29 -98v-93c0 -58 -17.333 -101.833 -52 -131.5s-86 -44.5 -154 -44.5
c-62.667 0 -112.667 9.33301 -150 28z" />
    <glyph glyph-name="uni00B9" unicode="&#xb9;" horiz-adv-x="334" 
d="M66 1370l-67 -20l-1 156l109 31h203v-749h-248z" />
    <glyph glyph-name="ordmasculine" unicode="&#xba;" horiz-adv-x="542" 
d="M76 813.5c-40.667 29 -61 75.833 -61 140.5v256c0 64 20.333 110.5 61 139.5s105.667 43.5 195 43.5s154.333 -14.5 195 -43.5s61 -75.5 61 -139.5v-256c0 -64.667 -20.333 -111.5 -61 -140.5s-105.667 -43.5 -195 -43.5s-154.333 14.5 -195 43.5zM295 943v277
c0 19.333 -8 29 -24 29c-16.667 0 -25 -9.66699 -25 -29v-277c0 -19.333 8.33301 -29 25 -29c16 0 24 9.66699 24 29z" />
    <glyph glyph-name="guillemotright" unicode="&#xbb;" horiz-adv-x="790" 
d="M4 171l136 425l-136 426l288 22l142 -448l-142 -449zM357 171l136 425l-136 426l288 22l142 -448l-142 -449z" />
    <glyph glyph-name="onequarter" unicode="&#xbc;" horiz-adv-x="570" 
d="M171 1322l-67 -20l-2 156l109 31h203v-749h-248zM19 695h531v-49h-531v49zM264 -34h-246v138l131 501h361l2 -501h42v-138h-42v-112h-248v112zM277 104l7 367h-19l-48 -367h60z" />
    <glyph glyph-name="onehalf" unicode="&#xbd;" horiz-adv-x="568" 
d="M170 1321l-67 -20l-1 156l109 31h203v-749h-248zM19 695h531v-49h-531v49zM37 -16c65.333 66 114.831 119.668 148.498 161.001s57.334 77.666 71.001 108.999s21.167 64.666 22.5 99.999v95c0 8.66699 -2.5 15.334 -7.5 20.001s-11.833 7 -20.5 7
c-20.667 0 -30.334 -13 -29.001 -39c0 -90.667 0.333008 -137 1 -139h-184v139c0.666992 53.333 17.5 95.833 50.5 127.5s94.5 47.5 184.5 47.5c84 0 146.833 -14.5 188.5 -43.5s63.167 -67.167 64.5 -114.5v-94c0 -43.333 -7.16699 -84 -21.5 -122
s-34.166 -75 -59.499 -111s-59 -78.667 -101 -128v-16c28.667 0 58.667 2.5 90 7.5l53 8.5c26.667 4 40.334 6 41.001 6v-158h-492v137z" />
    <glyph glyph-name="questiondown" unicode="&#xbf;" horiz-adv-x="691" 
d="M443 1075.5c23.333 -9.66699 40.333 -27.002 51 -52.002s16 -60.5 16 -106.5c0 -44 -5.33301 -77.833 -16 -101.5s-27.667 -40.167 -51 -49.5s-55.666 -14 -96.999 -14c-42 0 -74.667 4.66699 -98 14s-40.333 25.833 -51 49.5s-16 57.5 -16 101.5
c0 46.667 5.33301 82.334 16 107.001s27.667 41.834 51 51.501s56 14.5 98 14.5c41.333 0 73.666 -4.83301 96.999 -14.5zM492 639.998l22 -206.999c4 -10.667 6 -23 6 -37c0 -26.667 -12 -49.667 -36 -69s-65 -30.666 -123 -33.999c-19.333 -8.66699 -29.333 -24 -30 -46
v-310c1.33301 -26 11 -39 29 -39c21.333 0 32 12.333 32 37v280h279v-275c2 -86.667 -24.833 -152 -80.5 -196s-139.167 -66 -250.5 -66c-106 0 -186.167 20.5 -240.5 61.5s-81.5 101.833 -81.5 182.5v312c0.666992 29.333 6.33398 54.166 17.001 74.499
s23.167 36.666 37.5 48.999s32.833 25.5 55.5 39.5c17.333 12 30.666 21.833 39.999 29.5s16 16.5 20 26.5l12 187l14 81h262z" />
    <glyph glyph-name="Agrave" unicode="&#xc0;" horiz-adv-x="786" 
d="M426 173h-65l-6 -173h-352l201 1360h378l202 -1360h-352zM419 364l-21 576h-12l-19 -576h52zM169 1699l283 2l63 -298h-242z" />
    <glyph glyph-name="Aacute" unicode="&#xc1;" horiz-adv-x="786" 
d="M426 173h-65l-6 -173h-352l201 1360h378l202 -1360h-352zM419 364l-21 576h-12l-19 -576h52zM322 1701l283 -2l-104 -296h-242z" />
    <glyph glyph-name="Acircumflex" unicode="&#xc2;" horiz-adv-x="786" 
d="M426 173h-65l-6 -173h-352l201 1360h378l202 -1360h-352zM419 364l-21 576h-12l-19 -576h52zM164 1404l74 254h305l75 -254l-192 -1l-35 176l-36 -176z" />
    <glyph glyph-name="Atilde" unicode="&#xc3;" horiz-adv-x="786" 
d="M426 173h-65l-6 -173h-352l201 1360h378l202 -1360h-352zM419 364l-21 576h-12l-19 -576h52zM162 1514c0 38 5.66602 67.168 16.999 87.501s28.333 34.166 51 41.499s53.334 11 92.001 11c35.333 0 62.333 -4.83301 81 -14.5s30.334 -25.167 35.001 -46.5l1 -56
c4 -18 11.667 -27 23 -27c10.667 0 16 10.667 16 32v101h143v-97c0 -38 -5.66699 -67.167 -17 -87.5s-28.333 -34.5 -51 -42.5s-53.334 -12 -92.001 -12c-34.667 0 -61.167 4.16699 -79.5 12.5s-30.166 22.833 -35.499 43.5l-2 57c-4.66699 18 -12.334 27 -23.001 27
s-16 -11.333 -16 -34v-99l-143 4v99z" />
    <glyph glyph-name="Adieresis" unicode="&#xc4;" horiz-adv-x="786" 
d="M426 173h-65l-6 -173h-352l201 1360h378l202 -1360h-352zM419 364l-21 576h-12l-19 -576h52zM209 1413.5c-14 7 -24.168 19.833 -30.501 38.5s-9.5 46.667 -9.5 84c0 40 3.16699 70 9.5 90s16.333 33.5 30 40.5s33.834 10.5 60.501 10.5c27.333 0 48 -3.5 62 -10.5
s24.167 -20.5 30.5 -40.5s9.5 -50 9.5 -90c0 -37.333 -3.16699 -65.333 -9.5 -84s-16.5 -31.5 -30.5 -38.5s-34.333 -10.5 -61 -10.5s-47 3.5 -61 10.5zM448.999 1413.5c-14 7 -24.167 19.833 -30.5 38.5s-9.5 46.667 -9.5 84c0 40 3.16699 70 9.5 90s16.333 33.5 30 40.5
s33.834 10.5 60.501 10.5c27.333 0 48.166 -3.5 62.499 -10.5s24.666 -20.5 30.999 -40.5s9.5 -50 9.5 -90c0 -37.333 -3.16699 -65.333 -9.5 -84s-16.666 -31.5 -30.999 -38.5s-34.833 -10.5 -61.5 -10.5s-47 3.5 -61 10.5z" />
    <glyph glyph-name="Aring" unicode="&#xc5;" horiz-adv-x="786" 
d="M426 173h-65l-6 -173h-352l201 1360h378l202 -1360h-352zM419 364l-21 576h-12l-19 -576h52zM214 1537v55.999c0 44 15 77.333 45 100s74.333 34.334 133 35.001c58.667 0 103 -11.333 133 -34s45 -56 45 -100v-57c0 -44 -15 -77.167 -45 -99.5s-74.333 -33.5 -133 -33.5
c-118.667 0 -178 44.333 -178 133zM428 1538v56.001c0 18 -12.333 27 -37 27c-12 0 -21.167 -2.33301 -27.5 -7s-9.5 -11.334 -9.5 -20.001v-56c0 -19.333 12.333 -29 37 -29s37 9.66699 37 29z" />
    <glyph glyph-name="AE" unicode="&#xc6;" horiz-adv-x="1025" 
d="M266 1360h740v-236h-211v-363h168v-173h-168v-359h215v-229h-568l1 178h-65l-13 -178h-352zM443 369l1 572h-12l-7 -163l-29 -409h47z" />
    <glyph glyph-name="Ccedilla" unicode="&#xc7;" horiz-adv-x="824" 
d="M440 711v355.998c0 19.333 -9.66699 29 -29 29s-29 -9.66699 -29 -29v-772c0 -19.333 9.66699 -29 29 -29s29 9.66699 29 29v354h364v-324c-2.66699 -100 -29.334 -178.667 -80.001 -236s-124 -92.666 -220 -105.999l-13 -102c76.667 -19.333 115 -69.666 115 -150.999
v-92c0 -58.667 -17.333 -102.667 -52 -132s-86 -44 -154 -44c-65.333 0 -115.333 9.33301 -150 28l28 145c13.333 -4 30 -6 50 -6c29.333 0 44 8.33301 44 25v92c0 18 -28 27.667 -84 29l26 209c-97.333 14 -170.666 50.833 -219.999 110.5s-74 141.167 -74 244.5v684
c0 118.667 33 208.334 99 269.001s163.667 91 293 91c126 0 222.167 -29.333 288.5 -88s100.833 -145.334 103.5 -260.001v-324h-364z" />
    <glyph glyph-name="Egrave" unicode="&#xc8;" horiz-adv-x="604" 
d="M26 1360h563v-236h-206v-363h164v-173h-164v-359h210v-229h-567v1360zM88 1699l283 2l63 -298h-242z" />
    <glyph glyph-name="Eacute" unicode="&#xc9;" horiz-adv-x="604" 
d="M26 1360h563v-236h-206v-363h164v-173h-164v-359h210v-229h-567v1360zM241 1701l283 -2l-104 -296h-242z" />
    <glyph glyph-name="Ecircumflex" unicode="&#xca;" horiz-adv-x="604" 
d="M26 1360h563v-236h-206v-363h164v-173h-164v-359h210v-229h-567v1360zM83 1404l74 294h305l75 -294l-192 -1l-35 176l-36 -176z" />
    <glyph glyph-name="Edieresis" unicode="&#xcb;" horiz-adv-x="604" 
d="M26 1360h563v-236h-206v-363h164v-173h-164v-359h210v-229h-567v1360zM128 1413.5c-14 7 -24.168 19.833 -30.501 38.5s-9.5 46.667 -9.5 84c0 40 3.16699 70 9.5 90s16.333 33.5 30 40.5s33.834 10.5 60.501 10.5c27.333 0 48 -3.5 62 -10.5s24.167 -20.5 30.5 -40.5
s9.5 -50 9.5 -90c0 -37.333 -3.16699 -65.333 -9.5 -84s-16.5 -31.5 -30.5 -38.5s-34.333 -10.5 -61 -10.5s-47 3.5 -61 10.5zM367.999 1413.5c-14 7 -24.167 19.833 -30.5 38.5s-9.5 46.667 -9.5 84c0 40 3.16699 70 9.5 90s16.333 33.5 30 40.5s33.834 10.5 60.501 10.5
c27.333 0 48.166 -3.5 62.499 -10.5s24.666 -20.5 30.999 -40.5s9.5 -50 9.5 -90c0 -37.333 -3.16699 -65.333 -9.5 -84s-16.666 -31.5 -30.999 -38.5s-34.833 -10.5 -61.5 -10.5s-47 3.5 -61 10.5z" />
    <glyph glyph-name="Igrave" unicode="&#xcc;" horiz-adv-x="405" 
d="M26 1360h353v-1360h-353v1360zM-20 1699l283 2l63 -298h-242z" />
    <glyph glyph-name="Iacute" unicode="&#xcd;" horiz-adv-x="405" 
d="M26 1360h353v-1360h-353v1360zM133 1701l283 -2l-104 -296h-242z" />
    <glyph glyph-name="Icircumflex" unicode="&#xce;" horiz-adv-x="405" 
d="M26 1360h353v-1360h-353v1360zM-25 1404l74 294h305l75 -294l-192 -1l-35 176l-36 -176z" />
    <glyph glyph-name="Idieresis" unicode="&#xcf;" horiz-adv-x="405" 
d="M26 1360h353v-1360h-353v1360zM20 1413.5c-14 7 -24.168 19.833 -30.501 38.5s-9.5 46.667 -9.5 84c0 40 3.16699 70 9.5 90s16.333 33.5 30 40.5s33.834 10.5 60.501 10.5c27.333 0 48 -3.5 62 -10.5s24.167 -20.5 30.5 -40.5s9.5 -50 9.5 -90
c0 -37.333 -3.16699 -65.333 -9.5 -84s-16.5 -31.5 -30.5 -38.5s-34.333 -10.5 -61 -10.5s-47 3.5 -61 10.5zM259.999 1413.5c-14 7 -24.167 19.833 -30.5 38.5s-9.5 46.667 -9.5 84c0 40 3.16699 70 9.5 90s16.333 33.5 30 40.5s33.834 10.5 60.501 10.5
c27.333 0 48.166 -3.5 62.499 -10.5s24.666 -20.5 30.999 -40.5s9.5 -50 9.5 -90c0 -37.333 -3.16699 -65.333 -9.5 -84s-16.666 -31.5 -30.999 -38.5s-34.833 -10.5 -61.5 -10.5s-47 3.5 -61 10.5z" />
    <glyph glyph-name="Eth" unicode="&#xd0;" horiz-adv-x="821" 
d="M612.5 1323c57.667 -24.667 103.333 -62.667 137 -114s50.5 -115 50.5 -191v-675c0 -108.667 -33.167 -193 -99.5 -253s-160.833 -90 -283.5 -90h-372v572h-34v192h34v596h371c73.333 0 138.833 -12.333 196.5 -37zM447.999 1018c0 32.667 -0.833008 56.5 -2.5 71.5
s-4.83398 25 -9.50098 30s-11.667 7.5 -21 7.5h-24v-895h24c9.33301 0 16.333 2.5 21 7.5s7.83398 15.167 9.50098 30.5s2.5 39.333 2.5 72v676z" />
    <glyph glyph-name="Ntilde" unicode="&#xd1;" horiz-adv-x="787" 
d="M26 1360h369l25 -180l67 -615l17 1l-47 794h304v-1360h-369l-25 176l-78 679l-17 1l55 -856h-301v1360zM172 1506c0 58.667 13 101.833 39 129.5s66.333 41.5 121 41.5c35.333 0 62.333 -4.83301 81 -14.5s30.334 -24.834 35.001 -45.501l1 -57c4 -18 11.667 -27 23 -27
c10.667 0 16 11 16 33v101l143 -1v-102c0 -57.333 -13 -99.666 -39 -126.999s-66.333 -41 -121 -41c-34 0 -60.333 4.83301 -79 14.5s-30.667 25.167 -36 46.5l-2 57c-4.66699 17.333 -12.334 26 -23.001 26s-16 -11 -16 -33v-100h-143v99z" />
    <glyph glyph-name="Ograve" unicode="&#xd2;" horiz-adv-x="824" 
d="M20 1028c0 116 33 204.168 99 264.501s163.667 90.5 293 90.5s227 -30.333 293 -91s99 -150.334 99 -269.001v-684c0 -119.333 -33 -209.5 -99 -270.5s-163.667 -91.5 -293 -91.5c-254 0 -384.667 120.667 -392 362v689zM412 266.001c18.667 0 28 9.66699 28 29v772
c0 19.333 -9.33301 29 -28 29s-28 -9.66699 -28 -29v-772c0 -19.333 9.33301 -29 28 -29zM191 1722l283 2l63 -298h-242z" />
    <glyph glyph-name="Oacute" unicode="&#xd3;" horiz-adv-x="824" 
d="M20 1028c0 116 33 204.168 99 264.501s163.667 90.5 293 90.5s227 -30.333 293 -91s99 -150.334 99 -269.001v-684c0 -119.333 -33 -209.5 -99 -270.5s-163.667 -91.5 -293 -91.5c-254 0 -384.667 120.667 -392 362v689zM412 266.001c18.667 0 28 9.66699 28 29v772
c0 19.333 -9.33301 29 -28 29s-28 -9.66699 -28 -29v-772c0 -19.333 9.33301 -29 28 -29zM344 1724l283 -2l-104 -296h-242z" />
    <glyph glyph-name="Ocircumflex" unicode="&#xd4;" horiz-adv-x="824" 
d="M20 1028c0 116 33 204.168 99 264.501s163.667 90.5 293 90.5s227 -30.333 293 -91s99 -150.334 99 -269.001v-684c0 -119.333 -33 -209.5 -99 -270.5s-163.667 -91.5 -293 -91.5c-254 0 -384.667 120.667 -392 362v689zM412 266.001c18.667 0 28 9.66699 28 29v772
c0 19.333 -9.33301 29 -28 29s-28 -9.66699 -28 -29v-772c0 -19.333 9.33301 -29 28 -29zM185 1427l74 254h305l75 -254l-192 -1l-35 176l-36 -176z" />
    <glyph glyph-name="Otilde" unicode="&#xd5;" horiz-adv-x="824" 
d="M20 1028c0 116 33 204.168 99 264.501s163.667 90.5 293 90.5s227 -30.333 293 -91s99 -150.334 99 -269.001v-684c0 -119.333 -33 -209.5 -99 -270.5s-163.667 -91.5 -293 -91.5c-254 0 -384.667 120.667 -392 362v689zM412 266.001c18.667 0 28 9.66699 28 29v772
c0 19.333 -9.33301 29 -28 29s-28 -9.66699 -28 -29v-772c0 -19.333 9.33301 -29 28 -29zM182 1528c0 58.667 13 101.833 39 129.5s66.333 41.5 121 41.5c35.333 0 62.333 -4.83301 81 -14.5s30.334 -24.834 35.001 -45.501l1 -57c4 -18 11.667 -27 23 -27
c10.667 0 16 11 16 33v101l143 -1v-102c0 -57.333 -13 -99.666 -39 -126.999s-66.333 -41 -121 -41c-34 0 -60.333 4.83301 -79 14.5s-30.667 25.167 -36 46.5l-2 57c-4.66699 17.333 -12.334 26 -23.001 26s-16 -11 -16 -33v-100h-143v99z" />
    <glyph glyph-name="Odieresis" unicode="&#xd6;" horiz-adv-x="824" 
d="M20 1028c0 116 33 204.168 99 264.501s163.667 90.5 293 90.5s227 -30.333 293 -91s99 -150.334 99 -269.001v-684c0 -119.333 -33 -209.5 -99 -270.5s-163.667 -91.5 -293 -91.5c-254 0 -384.667 120.667 -392 362v689zM412 266.001c18.667 0 28 9.66699 28 29v772
c0 19.333 -9.33301 29 -28 29s-28 -9.66699 -28 -29v-772c0 -19.333 9.33301 -29 28 -29zM230 1436.5c-14 7 -24.168 19.833 -30.501 38.5s-9.5 46.667 -9.5 84c0 40 3.16699 70 9.5 90s16.333 33.5 30 40.5s33.834 10.5 60.501 10.5c27.333 0 48 -3.5 62 -10.5
s24.167 -20.5 30.5 -40.5s9.5 -50 9.5 -90c0 -37.333 -3.16699 -65.333 -9.5 -84s-16.5 -31.5 -30.5 -38.5s-34.333 -10.5 -61 -10.5s-47 3.5 -61 10.5zM469.999 1436.5c-14 7 -24.167 19.833 -30.5 38.5s-9.5 46.667 -9.5 84c0 40 3.16699 70 9.5 90s16.333 33.5 30 40.5
s33.834 10.5 60.501 10.5c27.333 0 48.166 -3.5 62.499 -10.5s24.666 -20.5 30.999 -40.5s9.5 -50 9.5 -90c0 -37.333 -3.16699 -65.333 -9.5 -84s-16.666 -31.5 -30.999 -38.5s-34.833 -10.5 -61.5 -10.5s-47 3.5 -61 10.5z" />
    <glyph glyph-name="multiply" unicode="&#xd7;" horiz-adv-x="531" 
d="M26 467l87 87l-88 87l152 152l87 -88l87 87l152 -151l-87 -87l87 -87l-152 -151l-87 87l-87 -88z" />
    <glyph glyph-name="Oslash" unicode="&#xd8;" horiz-adv-x="828" 
d="M806 1022l-0.000976562 -684c0 -119.333 -33 -209.5 -99 -270.5s-163.667 -91.5 -293 -91.5c-22.667 0 -44.667 1 -66 3l-51 -107l-268 137l41 129c-29.333 53.333 -45 120 -47 200v689c0 116 33 204.167 99 264.5s163.333 90.5 292 90.5
c28.667 0 53.334 -1.33301 74.001 -4l47 107l269 -147l-37 -126c26 -52 39 -115.333 39 -190zM441.999 1066c0 19.333 -9.33301 29 -28 29s-28 -9.66699 -28 -29v-772c0 -19.333 9.33301 -29 28 -29s28 9.66699 28 29v772z" />
    <glyph glyph-name="Ugrave" unicode="&#xd9;" horiz-adv-x="795" 
d="M118.5 40c-63 44.667 -94.5 110.999 -94.5 198.999v1121h347v-1080c0 -15.333 2.33301 -27.166 7 -35.499s11.667 -12.5 21 -12.5c18.667 0 28 16 28 48v1080h344v-1121c0 -88 -31.333 -154.333 -94 -199s-155.667 -67 -279 -67s-216.5 22.333 -279.5 67zM178 1699l283 2
l63 -298h-242z" />
    <glyph glyph-name="Uacute" unicode="&#xda;" horiz-adv-x="795" 
d="M118.5 40c-63 44.667 -94.5 110.999 -94.5 198.999v1121h347v-1080c0 -15.333 2.33301 -27.166 7 -35.499s11.667 -12.5 21 -12.5c18.667 0 28 16 28 48v1080h344v-1121c0 -88 -31.333 -154.333 -94 -199s-155.667 -67 -279 -67s-216.5 22.333 -279.5 67zM331 1701
l283 -2l-104 -296h-242z" />
    <glyph glyph-name="Ucircumflex" unicode="&#xdb;" horiz-adv-x="795" 
d="M118.5 40c-63 44.667 -94.5 110.999 -94.5 198.999v1121h347v-1080c0 -15.333 2.33301 -27.166 7 -35.499s11.667 -12.5 21 -12.5c18.667 0 28 16 28 48v1080h344v-1121c0 -88 -31.333 -154.333 -94 -199s-155.667 -67 -279 -67s-216.5 22.333 -279.5 67zM173 1404
l74 294h305l75 -294l-192 -1l-35 176l-36 -176z" />
    <glyph glyph-name="Udieresis" unicode="&#xdc;" horiz-adv-x="795" 
d="M118.5 40c-63 44.667 -94.5 110.999 -94.5 198.999v1121h347v-1080c0 -15.333 2.33301 -27.166 7 -35.499s11.667 -12.5 21 -12.5c18.667 0 28 16 28 48v1080h344v-1121c0 -88 -31.333 -154.333 -94 -199s-155.667 -67 -279 -67s-216.5 22.333 -279.5 67zM218 1413.5
c-14 7 -24.168 19.833 -30.501 38.5s-9.5 46.667 -9.5 84c0 40 3.16699 70 9.5 90s16.333 33.5 30 40.5s33.834 10.5 60.501 10.5c27.333 0 48 -3.5 62 -10.5s24.167 -20.5 30.5 -40.5s9.5 -50 9.5 -90c0 -37.333 -3.16699 -65.333 -9.5 -84s-16.5 -31.5 -30.5 -38.5
s-34.333 -10.5 -61 -10.5s-47 3.5 -61 10.5zM457.999 1413.5c-14 7 -24.167 19.833 -30.5 38.5s-9.5 46.667 -9.5 84c0 40 3.16699 70 9.5 90s16.333 33.5 30 40.5s33.834 10.5 60.501 10.5c27.333 0 48.166 -3.5 62.499 -10.5s24.666 -20.5 30.999 -40.5s9.5 -50 9.5 -90
c0 -37.333 -3.16699 -65.333 -9.5 -84s-16.666 -31.5 -30.999 -38.5s-34.833 -10.5 -61.5 -10.5s-47 3.5 -61 10.5z" />
    <glyph glyph-name="Yacute" unicode="&#xdd;" horiz-adv-x="784" 
d="M216 425l-216 935h357l28 -638h14l22 638h362l-214 -934v-426h-353v425zM323 1657l283 -2l-104 -252h-242z" />
    <glyph glyph-name="Thorn" unicode="&#xde;" horiz-adv-x="770" 
d="M26 1360h353v-194h14c74 0 136.833 -7.33301 188.5 -22s92.667 -42.5 123 -83.5s45.5 -99.167 45.5 -174.5v-426c-0.666992 -71.333 -16.5 -126.833 -47.5 -166.5s-72.5 -67 -124.5 -82s-114 -22.5 -186 -22.5h-13v-200h-353v1371zM378 415
c14 0 24.332 3.33301 30.999 10s10 19 10 37v426c0 19.333 -3.16699 32.5 -9.5 39.5s-17.166 10.5 -32.499 10.5h-15v-523h16z" />
    <glyph glyph-name="germandbls" unicode="&#xdf;" horiz-adv-x="772" 
d="M27 1185c0 99.333 33.8291 167.833 101.496 205.5s143.834 56.5 228.501 56.5c110 0 195 -18.667 255 -56s90.333 -93.333 91 -168v-268c0 -38 -6.83301 -69.333 -20.5 -94s-31.5 -41.667 -53.5 -51l36 -18.5c21.333 -11 40 -32 56 -63s24 -68.833 24 -113.5v-348
c0 -102.667 -35.5 -172.834 -106.5 -210.501s-155.5 -56.5 -253.5 -56.5h-12v228h10c10.667 0 19.334 3.83301 26.001 11.5s10 19.167 10 34.5v348c0 16.667 -3.16699 29.334 -9.5 38.001s-15.166 13 -26.499 13h-10v182h9c22.667 0 34 15 34 45v269
c-0.666992 13.333 -4.16699 23.833 -10.5 31.5s-15.166 11.5 -26.499 11.5c-26.667 0 -40 -14.333 -40 -43v-1169h-312v1185z" />
    <glyph glyph-name="agrave" unicode="&#xe0;" horiz-adv-x="725" 
d="M116.5 1c-29.667 16 -53.1689 39.001 -70.502 69.001s-26 64.667 -26 104v277c0.666992 54 12.334 94.167 35.001 120.5s55.834 43.5 99.501 51.5s106.5 12 188.5 12c2 0 5.66699 -0.166992 11 -0.5s18 -0.5 38 -0.5v216c0 15.333 -2.16699 26.666 -6.5 33.999
s-12.166 11 -23.499 11c-18.667 0 -28 -12.667 -28 -38v-187l-285 -1v187c0.666992 54.667 12.667 99 36 133s60.333 59.167 111 75.5s117.667 24.5 201 24.5c89.333 0 162 -18 218 -54s84 -91.667 84 -167v-868h-290l-33 77c-12.667 -32.667 -32.5 -57.5 -59.5 -74.5
s-60.5 -25.5 -100.5 -25.5c-36.667 0 -69.834 8 -99.501 24zM381.998 190.501c6 7 9.33398 17.165 10.001 30.498v305h-19c-14.667 -0.666992 -24.834 -4.66699 -30.501 -12s-8.5 -17.666 -8.5 -30.999v-275c0 -17.333 8.33301 -26.666 25 -27.999c9.33301 0 17 3.5 23 10.5
zM147.999 1428l283 2l63 -298h-242z" />
    <glyph glyph-name="aacute" unicode="&#xe1;" horiz-adv-x="725" 
d="M116.5 1c-29.667 16 -53.1689 39.001 -70.502 69.001s-26 64.667 -26 104v277c0.666992 54 12.334 94.167 35.001 120.5s55.834 43.5 99.501 51.5s106.5 12 188.5 12c2 0 5.66699 -0.166992 11 -0.5s18 -0.5 38 -0.5v216c0 15.333 -2.16699 26.666 -6.5 33.999
s-12.166 11 -23.499 11c-18.667 0 -28 -12.667 -28 -38v-187l-285 -1v187c0.666992 54.667 12.667 99 36 133s60.333 59.167 111 75.5s117.667 24.5 201 24.5c89.333 0 162 -18 218 -54s84 -91.667 84 -167v-868h-290l-33 77c-12.667 -32.667 -32.5 -57.5 -59.5 -74.5
s-60.5 -25.5 -100.5 -25.5c-36.667 0 -69.834 8 -99.501 24zM381.998 190.501c6 7 9.33398 17.165 10.001 30.498v305h-19c-14.667 -0.666992 -24.834 -4.66699 -30.501 -12s-8.5 -17.666 -8.5 -30.999v-275c0 -17.333 8.33301 -26.666 25 -27.999c9.33301 0 17 3.5 23 10.5
zM300.999 1430l283 -2l-104 -296h-242z" />
    <glyph glyph-name="acircumflex" unicode="&#xe2;" horiz-adv-x="725" 
d="M116.5 1c-29.667 16 -53.1689 39.001 -70.502 69.001s-26 64.667 -26 104v277c0.666992 54 12.334 94.167 35.001 120.5s55.834 43.5 99.501 51.5s106.5 12 188.5 12c2 0 5.66699 -0.166992 11 -0.5s18 -0.5 38 -0.5v216c0 15.333 -2.16699 26.666 -6.5 33.999
s-12.166 11 -23.499 11c-18.667 0 -28 -12.667 -28 -38v-187l-285 -1v187c0.666992 54.667 12.667 99 36 133s60.333 59.167 111 75.5s117.667 24.5 201 24.5c89.333 0 162 -18 218 -54s84 -91.667 84 -167v-868h-290l-33 77c-12.667 -32.667 -32.5 -57.5 -59.5 -74.5
s-60.5 -25.5 -100.5 -25.5c-36.667 0 -69.834 8 -99.501 24zM381.998 190.501c6 7 9.33398 17.165 10.001 30.498v305h-19c-14.667 -0.666992 -24.834 -4.66699 -30.501 -12s-8.5 -17.666 -8.5 -30.999v-275c0 -17.333 8.33301 -26.666 25 -27.999c9.33301 0 17 3.5 23 10.5
zM141.999 1133l74 254h305l75 -254l-192 -1l-35 176l-36 -176z" />
    <glyph glyph-name="atilde" unicode="&#xe3;" horiz-adv-x="725" 
d="M116.5 1c-29.667 16 -53.1689 39.001 -70.502 69.001s-26 64.667 -26 104v277c0.666992 54 12.334 94.167 35.001 120.5s55.834 43.5 99.501 51.5s106.5 12 188.5 12c2 0 5.66699 -0.166992 11 -0.5s18 -0.5 38 -0.5v216c0 15.333 -2.16699 26.666 -6.5 33.999
s-12.166 11 -23.499 11c-18.667 0 -28 -12.667 -28 -38v-187l-285 -1v187c0.666992 54.667 12.667 99 36 133s60.333 59.167 111 75.5s117.667 24.5 201 24.5c89.333 0 162 -18 218 -54s84 -91.667 84 -167v-868h-290l-33 77c-12.667 -32.667 -32.5 -57.5 -59.5 -74.5
s-60.5 -25.5 -100.5 -25.5c-36.667 0 -69.834 8 -99.501 24zM381.998 190.501c6 7 9.33398 17.165 10.001 30.498v305h-19c-14.667 -0.666992 -24.834 -4.66699 -30.501 -12s-8.5 -17.666 -8.5 -30.999v-275c0 -17.333 8.33301 -26.666 25 -27.999c9.33301 0 17 3.5 23 10.5
zM138.999 1235c0 58.667 13 101.833 39 129.5s66.333 41.5 121 41.5c35.333 0 62.333 -4.83301 81 -14.5s30.334 -24.834 35.001 -45.501l1 -57c4 -18 11.667 -27 23 -27c10.667 0 16 11 16 33v101l143 -1v-102c0 -57.333 -13 -99.666 -39 -126.999s-66.333 -41 -121 -41
c-34 0 -60.333 4.83301 -79 14.5s-30.667 25.167 -36 46.5l-2 57c-4.66699 17.333 -12.334 26 -23.001 26s-16 -11 -16 -33v-100h-143v99z" />
    <glyph glyph-name="adieresis" unicode="&#xe4;" horiz-adv-x="725" 
d="M116.5 1c-29.667 16 -53.1689 39.001 -70.502 69.001s-26 64.667 -26 104v277c0.666992 54 12.334 94.167 35.001 120.5s55.834 43.5 99.501 51.5s106.5 12 188.5 12c2 0 5.66699 -0.166992 11 -0.5s18 -0.5 38 -0.5v216c0 15.333 -2.16699 26.666 -6.5 33.999
s-12.166 11 -23.499 11c-18.667 0 -28 -12.667 -28 -38v-187l-285 -1v187c0.666992 54.667 12.667 99 36 133s60.333 59.167 111 75.5s117.667 24.5 201 24.5c89.333 0 162 -18 218 -54s84 -91.667 84 -167v-868h-290l-33 77c-12.667 -32.667 -32.5 -57.5 -59.5 -74.5
s-60.5 -25.5 -100.5 -25.5c-36.667 0 -69.834 8 -99.501 24zM381.998 190.501c6 7 9.33398 17.165 10.001 30.498v305h-19c-14.667 -0.666992 -24.834 -4.66699 -30.501 -12s-8.5 -17.666 -8.5 -30.999v-275c0 -17.333 8.33301 -26.666 25 -27.999c9.33301 0 17 3.5 23 10.5
zM186.999 1142.5c-14 7 -24.168 19.833 -30.501 38.5s-9.5 46.667 -9.5 84c0 40 3.16699 70 9.5 90s16.333 33.5 30 40.5s33.834 10.5 60.501 10.5c27.333 0 48 -3.5 62 -10.5s24.167 -20.5 30.5 -40.5s9.5 -50 9.5 -90c0 -37.333 -3.16699 -65.333 -9.5 -84
s-16.5 -31.5 -30.5 -38.5s-34.333 -10.5 -61 -10.5s-47 3.5 -61 10.5zM426.998 1142.5c-14 7 -24.167 19.833 -30.5 38.5s-9.5 46.667 -9.5 84c0 40 3.16699 70 9.5 90s16.333 33.5 30 40.5s33.834 10.5 60.501 10.5c27.333 0 48.166 -3.5 62.499 -10.5
s24.666 -20.5 30.999 -40.5s9.5 -50 9.5 -90c0 -37.333 -3.16699 -65.333 -9.5 -84s-16.666 -31.5 -30.999 -38.5s-34.833 -10.5 -61.5 -10.5s-47 3.5 -61 10.5z" />
    <glyph glyph-name="aring" unicode="&#xe5;" horiz-adv-x="725" 
d="M116.5 1c-29.667 16 -53.1689 39.001 -70.502 69.001s-26 64.667 -26 104v277c0.666992 54 12.334 94.167 35.001 120.5s55.834 43.5 99.501 51.5s106.5 12 188.5 12c2 0 5.66699 -0.166992 11 -0.5s18 -0.5 38 -0.5v216c0 15.333 -2.16699 26.666 -6.5 33.999
s-12.166 11 -23.499 11c-18.667 0 -28 -12.667 -28 -38v-187l-285 -1v187c0.666992 54.667 12.667 99 36 133s60.333 59.167 111 75.5s117.667 24.5 201 24.5c89.333 0 162 -18 218 -54s84 -91.667 84 -167v-868h-290l-33 77c-12.667 -32.667 -32.5 -57.5 -59.5 -74.5
s-60.5 -25.5 -100.5 -25.5c-36.667 0 -69.834 8 -99.501 24zM381.998 190.501c6 7 9.33398 17.165 10.001 30.498v305h-19c-14.667 -0.666992 -24.834 -4.66699 -30.501 -12s-8.5 -17.666 -8.5 -30.999v-275c0 -17.333 8.33301 -26.666 25 -27.999c9.33301 0 17 3.5 23 10.5
zM191.999 1266v55.999c0 44 15 77.333 45 100s74.333 34.334 133 35.001c58.667 0 103 -11.333 133 -34s45 -56 45 -100v-57c0 -44 -15 -77.167 -45 -99.5s-74.333 -33.5 -133 -33.5c-118.667 0 -178 44.333 -178 133zM405.999 1267v56.001c0 18 -12.333 27 -37 27
c-12 0 -21.167 -2.33301 -27.5 -7s-9.5 -11.334 -9.5 -20.001v-56c0 -19.333 12.333 -29 37 -29s37 9.66699 37 29z" />
    <glyph glyph-name="ae" unicode="&#xe6;" horiz-adv-x="1106" 
d="M527 48c-20.667 -22.667 -51.6719 -40.002 -93.0049 -52.002s-89.666 -18 -144.999 -18c-88 0 -154.333 16.5 -199 49.5s-67 81.833 -67 146.5v289c0 56.667 22.667 99.5 68 128.5s112.333 43.5 201 43.5l103 -1v216c0 14.667 -2.66699 25.834 -8 33.501
s-12.666 11.5 -21.999 11.5c-18 0 -27 -10.333 -27 -31l-1 -194l-285 -1v209c0 69.333 26.833 121.833 80.5 157.5s132.834 53.5 237.501 53.5c86.667 0 153.334 -10.667 200.001 -32c46.667 21.333 113.334 32 200.001 32c104 0 183 -23.833 237 -71.5
s81 -118.167 81 -211.5c0 -34 -2.33301 -101.667 -7 -203c-4 -74.667 -6 -124 -6 -148h-366v-285c0 -19.333 9.66699 -29 29 -29c18.667 0 28 9.66699 28 29v227h301v-219c-16 -63.333 -52.167 -112.666 -108.5 -147.999s-129.833 -53 -220.5 -53
c-94.667 0 -165 23.667 -211 71zM765.995 586.998v278c0 19.333 -9.33301 29 -28 29c-19.333 0 -29 -9.66699 -29 -29v-278h57zM394.995 220.998l0.000976562 304.998h-19c-12.667 -0.666992 -22.334 -4.66699 -29.001 -12s-10 -17.666 -10 -30.999v-275
c0 -17.333 8.33301 -26.666 25 -27.999c20.667 0 31.667 13.667 33 41z" />
    <glyph glyph-name="ccedilla" unicode="&#xe7;" 
d="M393 560v260.002c0 19.333 -9.33301 29 -28 29c-19.333 0 -29 -9.66699 -29 -29v-575c0 -19.333 9.66699 -29 29 -29c18.667 0 28 9.66699 28 29v269h317v-250c-2 -80.667 -24.333 -144.5 -67 -191.5s-104.667 -76.833 -186 -89.5l-13 -102c76.667 -18 115 -68 115 -150
v-93c0 -58 -17.333 -101.833 -52 -131.5s-86 -44.5 -154 -44.5c-63.333 0 -113.333 9.66699 -150 29l28 145c12 -4.66699 29 -7 51 -7c29.333 0 44 8.66699 44 26l-1 92c0 18 -28 27.667 -84 29l26 208c-81.333 13.333 -142.833 44.166 -184.5 92.499
s-62.5 113.833 -62.5 196.5v522c0 97.333 29 170.666 87 219.999s144 74 258 74c111.333 0 196 -23.833 254 -71.5s88.333 -118.167 91 -211.5v-246h-317z" />
    <glyph glyph-name="egrave" unicode="&#xe8;" 
d="M336 455v-284.998c0 -19.333 9.66699 -29 29 -29c18.667 0 28 9.66699 28 29v227h301v-219c-16 -66.667 -51.667 -116.834 -107 -150.501s-129.333 -50.5 -222 -50.5c-114 0 -200 25 -258 75s-87 123.667 -87 221v522c0 97.333 29 170.666 87 219.999s144 74 258 74
s200 -23.833 258 -71.5s87 -118.167 87 -211.5c0 -21.333 -2.66699 -138.333 -8 -351h-366zM336 874.002v-278h57v278c0 19.333 -9.33301 29 -28 29c-19.333 0 -29 -9.66699 -29 -29zM146 1446l283 2l63 -298h-242z" />
    <glyph glyph-name="eacute" unicode="&#xe9;" 
d="M336 455v-284.998c0 -19.333 9.66699 -29 29 -29c18.667 0 28 9.66699 28 29v227h301v-219c-16 -66.667 -51.667 -116.834 -107 -150.501s-129.333 -50.5 -222 -50.5c-114 0 -200 25 -258 75s-87 123.667 -87 221v522c0 97.333 29 170.666 87 219.999s144 74 258 74
s200 -23.833 258 -71.5s87 -118.167 87 -211.5c0 -21.333 -2.66699 -138.333 -8 -351h-366zM336 874.002v-278h57v278c0 19.333 -9.33301 29 -28 29c-19.333 0 -29 -9.66699 -29 -29zM299 1448l283 -2l-104 -296h-242z" />
    <glyph glyph-name="ecircumflex" unicode="&#xea;" 
d="M336 455v-284.998c0 -19.333 9.66699 -29 29 -29c18.667 0 28 9.66699 28 29v227h301v-219c-16 -66.667 -51.667 -116.834 -107 -150.501s-129.333 -50.5 -222 -50.5c-114 0 -200 25 -258 75s-87 123.667 -87 221v522c0 97.333 29 170.666 87 219.999s144 74 258 74
s200 -23.833 258 -71.5s87 -118.167 87 -211.5c0 -21.333 -2.66699 -138.333 -8 -351h-366zM336 874.002v-278h57v278c0 19.333 -9.33301 29 -28 29c-19.333 0 -29 -9.66699 -29 -29zM141 1151l74 254h305l75 -254l-192 -1l-35 176l-36 -176z" />
    <glyph glyph-name="edieresis" unicode="&#xeb;" 
d="M336 455v-284.998c0 -19.333 9.66699 -29 29 -29c18.667 0 28 9.66699 28 29v227h301v-219c-16 -66.667 -51.667 -116.834 -107 -150.501s-129.333 -50.5 -222 -50.5c-114 0 -200 25 -258 75s-87 123.667 -87 221v522c0 97.333 29 170.666 87 219.999s144 74 258 74
s200 -23.833 258 -71.5s87 -118.167 87 -211.5c0 -21.333 -2.66699 -138.333 -8 -351h-366zM336 874.002v-278h57v278c0 19.333 -9.33301 29 -28 29c-19.333 0 -29 -9.66699 -29 -29zM185 1160.5c-14 7 -24.168 19.833 -30.501 38.5s-9.5 46.667 -9.5 84
c0 40 3.16699 70 9.5 90s16.333 33.5 30 40.5s33.834 10.5 60.501 10.5c27.333 0 48 -3.5 62 -10.5s24.167 -20.5 30.5 -40.5s9.5 -50 9.5 -90c0 -37.333 -3.16699 -65.333 -9.5 -84s-16.5 -31.5 -30.5 -38.5s-34.333 -10.5 -61 -10.5s-47 3.5 -61 10.5zM424.999 1160.5
c-14 7 -24.167 19.833 -30.5 38.5s-9.5 46.667 -9.5 84c0 40 3.16699 70 9.5 90s16.333 33.5 30 40.5s33.834 10.5 60.501 10.5c27.333 0 48.166 -3.5 62.499 -10.5s24.666 -20.5 30.999 -40.5s9.5 -50 9.5 -90c0 -37.333 -3.16699 -65.333 -9.5 -84
s-16.666 -31.5 -30.999 -38.5s-34.833 -10.5 -61.5 -10.5s-47 3.5 -61 10.5z" />
    <glyph glyph-name="igrave" unicode="&#xec;" horiz-adv-x="396" 
d="M26 1065h344v-1065h-344v1065zM-22 1404l283 2l63 -298h-242z" />
    <glyph glyph-name="iacute" unicode="&#xed;" horiz-adv-x="396" 
d="M26 1065h344v-1065h-344v1065zM131 1406l283 -2l-104 -296h-242z" />
    <glyph glyph-name="icircumflex" unicode="&#xee;" horiz-adv-x="396" 
d="M26 1065h344v-1065h-344v1065zM-27 1109l74 294h305l75 -294l-192 -1l-35 176l-36 -176z" />
    <glyph glyph-name="idieresis" unicode="&#xef;" horiz-adv-x="396" 
d="M26 1065h344v-1065h-344v1065zM18 1118.5c-14 7 -24.168 19.833 -30.501 38.5s-9.5 46.667 -9.5 84c0 40 3.16699 70 9.5 90s16.333 33.5 30 40.5s33.834 10.5 60.501 10.5c27.333 0 48 -3.5 62 -10.5s24.167 -20.5 30.5 -40.5s9.5 -50 9.5 -90
c0 -37.333 -3.16699 -65.333 -9.5 -84s-16.5 -31.5 -30.5 -38.5s-34.333 -10.5 -61 -10.5s-47 3.5 -61 10.5zM257.999 1118.5c-14 7 -24.167 19.833 -30.5 38.5s-9.5 46.667 -9.5 84c0 40 3.16699 70 9.5 90s16.333 33.5 30 40.5s33.834 10.5 60.501 10.5
c27.333 0 48.166 -3.5 62.499 -10.5s24.666 -20.5 30.999 -40.5s9.5 -50 9.5 -90c0 -37.333 -3.16699 -65.333 -9.5 -84s-16.666 -31.5 -30.999 -38.5s-34.833 -10.5 -61.5 -10.5s-47 3.5 -61 10.5z" />
    <glyph glyph-name="eth" unicode="&#xf0;" horiz-adv-x="731" 
d="M711 818l-0.00195312 -545.003c0 -98 -29.333 -171.833 -88 -221.5s-146 -74.5 -262 -74.5c-112.667 0 -197.667 25.167 -255 75.5s-86 124.833 -86 223.5v529c0.666992 90.667 24 158.834 70 204.501s113.667 68.5 203 68.5c10.667 -3.33301 22 -11 34 -23
s21 -24 27 -36l7 3c-11.333 52.667 -27.666 103.334 -48.999 152.001l-81 -11l-63 112l85 12c-19.333 32.667 -43.666 67 -72.999 103l307 38c26 -32 50 -65 72 -99l77 11l60 -112l-73 -10c58.667 -121.333 88 -254.666 88 -399.999zM391.998 819.997
c0 26 -10.333 39 -31 39c-17.333 0 -26 -13 -26 -39v-575c0 -12 2.5 -21.333 7.5 -28s12.167 -10 21.5 -10c8.66699 0 15.5 3.33301 20.5 10s7.5 16 7.5 28v575z" />
    <glyph glyph-name="ntilde" unicode="&#xf1;" horiz-adv-x="737" 
d="M26 1065h281.997l36 -64c14.667 26.667 36.334 48 65.001 64s64 24 106 24c68 0 117.667 -23.167 149 -69.5s47 -117.5 47 -213.5v-806h-317v801c0 26 -2.16699 42.833 -6.5 50.5s-11.166 11.5 -20.499 11.5c-11.333 0 -19.166 -5.16699 -23.499 -15.5
s-6.5 -28.5 -6.5 -54.5v-793h-311v1065zM132.997 1226c0 58.667 13 101.833 39 129.5s66.333 41.5 121 41.5c35.333 0 62.333 -4.83301 81 -14.5s30.334 -24.834 35.001 -45.501l1 -57c4 -18 11.667 -27 23 -27c10.667 0 16 11 16 33v101l143 -1v-102
c0 -57.333 -13 -99.666 -39 -126.999s-66.333 -41 -121 -41c-34 0 -60.333 4.83301 -79 14.5s-30.667 25.167 -36 46.5l-2 57c-4.66699 17.333 -12.334 26 -23.001 26s-16 -11 -16 -33v-100h-143v99z" />
    <glyph glyph-name="ograve" unicode="&#xf2;" horiz-adv-x="735" 
d="M109.5 49c-58.333 48 -87.5 119.333 -87.5 214v540c0 94.667 29.167 166 87.5 214s144.5 72 258.5 72c113.333 0 199.166 -24 257.499 -72s87.5 -119.333 87.5 -214v-540c0 -94.667 -29.167 -166 -87.5 -214s-144.166 -72 -257.499 -72c-114 0 -200.167 24 -258.5 72z
M388.5 217c5 6.66699 7.5 16 7.5 28v575c0 25.333 -9.33301 38 -28 38c-19.333 0 -29 -12.667 -29 -38v-575c0 -12 2.5 -21.333 7.5 -28s12.167 -10 21.5 -10c8.66699 0 15.5 3.33301 20.5 10zM146 1428l283 2l63 -298h-242z" />
    <glyph glyph-name="oacute" unicode="&#xf3;" horiz-adv-x="735" 
d="M109.5 49c-58.333 48 -87.5 119.333 -87.5 214v540c0 94.667 29.167 166 87.5 214s144.5 72 258.5 72c113.333 0 199.166 -24 257.499 -72s87.5 -119.333 87.5 -214v-540c0 -94.667 -29.167 -166 -87.5 -214s-144.166 -72 -257.499 -72c-114 0 -200.167 24 -258.5 72z
M388.5 217c5 6.66699 7.5 16 7.5 28v575c0 25.333 -9.33301 38 -28 38c-19.333 0 -29 -12.667 -29 -38v-575c0 -12 2.5 -21.333 7.5 -28s12.167 -10 21.5 -10c8.66699 0 15.5 3.33301 20.5 10zM299 1430l283 -2l-104 -296h-242z" />
    <glyph glyph-name="ocircumflex" unicode="&#xf4;" horiz-adv-x="735" 
d="M109.5 49c-58.333 48 -87.5 119.333 -87.5 214v540c0 94.667 29.167 166 87.5 214s144.5 72 258.5 72c113.333 0 199.166 -24 257.499 -72s87.5 -119.333 87.5 -214v-540c0 -94.667 -29.167 -166 -87.5 -214s-144.166 -72 -257.499 -72c-114 0 -200.167 24 -258.5 72z
M388.5 217c5 6.66699 7.5 16 7.5 28v575c0 25.333 -9.33301 38 -28 38c-19.333 0 -29 -12.667 -29 -38v-575c0 -12 2.5 -21.333 7.5 -28s12.167 -10 21.5 -10c8.66699 0 15.5 3.33301 20.5 10zM141 1133l74 254h305l75 -254l-192 -1l-35 176l-36 -176z" />
    <glyph glyph-name="otilde" unicode="&#xf5;" horiz-adv-x="735" 
d="M109.5 49c-58.333 48 -87.5 119.333 -87.5 214v540c0 94.667 29.167 166 87.5 214s144.5 72 258.5 72c113.333 0 199.166 -24 257.499 -72s87.5 -119.333 87.5 -214v-540c0 -94.667 -29.167 -166 -87.5 -214s-144.166 -72 -257.499 -72c-114 0 -200.167 24 -258.5 72z
M388.5 217c5 6.66699 7.5 16 7.5 28v575c0 25.333 -9.33301 38 -28 38c-19.333 0 -29 -12.667 -29 -38v-575c0 -12 2.5 -21.333 7.5 -28s12.167 -10 21.5 -10c8.66699 0 15.5 3.33301 20.5 10zM137 1235c0 58.667 13 101.833 39 129.5s66.333 41.5 121 41.5
c35.333 0 62.333 -4.83301 81 -14.5s30.334 -24.834 35.001 -45.501l1 -57c4 -18 11.667 -27 23 -27c10.667 0 16 11 16 33v101l143 -1v-102c0 -57.333 -13 -99.666 -39 -126.999s-66.333 -41 -121 -41c-34 0 -60.333 4.83301 -79 14.5s-30.667 25.167 -36 46.5l-2 57
c-4.66699 17.333 -12.334 26 -23.001 26s-16 -11 -16 -33v-100h-143v99z" />
    <glyph glyph-name="odieresis" unicode="&#xf6;" horiz-adv-x="735" 
d="M109.5 49c-58.333 48 -87.5 119.333 -87.5 214v540c0 94.667 29.167 166 87.5 214s144.5 72 258.5 72c113.333 0 199.166 -24 257.499 -72s87.5 -119.333 87.5 -214v-540c0 -94.667 -29.167 -166 -87.5 -214s-144.166 -72 -257.499 -72c-114 0 -200.167 24 -258.5 72z
M388.5 217c5 6.66699 7.5 16 7.5 28v575c0 25.333 -9.33301 38 -28 38c-19.333 0 -29 -12.667 -29 -38v-575c0 -12 2.5 -21.333 7.5 -28s12.167 -10 21.5 -10c8.66699 0 15.5 3.33301 20.5 10zM185 1142.5c-14 7 -24.168 19.833 -30.501 38.5s-9.5 46.667 -9.5 84
c0 40 3.16699 70 9.5 90s16.333 33.5 30 40.5s33.834 10.5 60.501 10.5c27.333 0 48 -3.5 62 -10.5s24.167 -20.5 30.5 -40.5s9.5 -50 9.5 -90c0 -37.333 -3.16699 -65.333 -9.5 -84s-16.5 -31.5 -30.5 -38.5s-34.333 -10.5 -61 -10.5s-47 3.5 -61 10.5zM424.999 1142.5
c-14 7 -24.167 19.833 -30.5 38.5s-9.5 46.667 -9.5 84c0 40 3.16699 70 9.5 90s16.333 33.5 30 40.5s33.834 10.5 60.501 10.5c27.333 0 48.166 -3.5 62.499 -10.5s24.666 -20.5 30.999 -40.5s9.5 -50 9.5 -90c0 -37.333 -3.16699 -65.333 -9.5 -84
s-16.666 -31.5 -30.999 -38.5s-34.833 -10.5 -61.5 -10.5s-47 3.5 -61 10.5z" />
    <glyph glyph-name="divide" unicode="&#xf7;" horiz-adv-x="510" 
d="M26 693h460v-232h-460v232zM175.5 172.5c-19 7.66699 -32.668 20.499 -41.001 38.499s-12.5 44 -12.5 78c0 36.667 4.16699 64.834 12.5 84.501s21.833 33.334 40.5 41.001s45.334 11.5 80.001 11.5s61.5 -3.83301 80.5 -11.5s32.667 -21.334 41 -41.001
s12.5 -47.834 12.5 -84.501c0 -34 -4.16699 -60.167 -12.5 -78.5s-22 -31.166 -41 -38.499s-45.833 -11 -80.5 -11c-34 0 -60.5 3.83301 -79.5 11.5zM175.499 741.499c-19 7.66699 -32.668 20.499 -41.001 38.499s-12.5 44 -12.5 78c0 36.667 4.16699 64.834 12.5 84.501
s21.833 33.334 40.5 41.001s45.334 11.5 80.001 11.5s61.5 -3.83301 80.5 -11.5s32.667 -21.334 41 -41.001s12.5 -47.834 12.5 -84.501c0 -34 -4.16699 -60.167 -12.5 -78.5s-22 -31.166 -41 -38.499s-45.833 -11 -80.5 -11c-34 0 -60.5 3.83301 -79.5 11.5z" />
    <glyph glyph-name="oslash" unicode="&#xf8;" horiz-adv-x="731" 
d="M713 803l-0.000976562 -540c0 -94.667 -29.167 -166 -87.5 -214s-144.166 -72 -257.499 -72c-21.333 0 -37 0.333008 -47 1l-50 -103l-242 115l51 88c-38.667 46.667 -58 108.334 -58 185.001v540c0 94.667 29.167 166 87.5 214s144.5 72 258.5 72
c26 0 53 -1.66699 81 -5l48 99l206 -110l-48 -85c38.667 -46.667 58 -108.334 58 -185.001zM395.999 820c0 25.333 -9.33301 38 -28 38c-19.333 0 -29 -12.667 -29 -38v-575c0 -12 2.5 -21.333 7.5 -28s12.167 -10 21.5 -10c8.66699 0 15.5 3.33301 20.5 10s7.5 16 7.5 28
v575z" />
    <glyph glyph-name="ugrave" unicode="&#xf9;" horiz-adv-x="725" 
d="M109 45c-57.333 45.333 -86 112.333 -86 201v819h311v-820c0 -12 2.5 -21.333 7.5 -28s12.167 -10 21.5 -10s16.5 3.33301 21.5 10s7.5 16 7.5 28v820h310v-825c0 -86.667 -28.5 -152.167 -85.5 -196.5s-141.167 -66.5 -252.5 -66.5c-112.667 0 -197.667 22.667 -255 68z
M140 1404l283 2l63 -298h-242z" />
    <glyph glyph-name="uacute" unicode="&#xfa;" horiz-adv-x="725" 
d="M109 45c-57.333 45.333 -86 112.333 -86 201v819h311v-820c0 -12 2.5 -21.333 7.5 -28s12.167 -10 21.5 -10s16.5 3.33301 21.5 10s7.5 16 7.5 28v820h310v-825c0 -86.667 -28.5 -152.167 -85.5 -196.5s-141.167 -66.5 -252.5 -66.5c-112.667 0 -197.667 22.667 -255 68z
M293 1406l283 -2l-104 -296h-242z" />
    <glyph glyph-name="ucircumflex" unicode="&#xfb;" horiz-adv-x="725" 
d="M109 45c-57.333 45.333 -86 112.333 -86 201v819h311v-820c0 -12 2.5 -21.333 7.5 -28s12.167 -10 21.5 -10s16.5 3.33301 21.5 10s7.5 16 7.5 28v820h310v-825c0 -86.667 -28.5 -152.167 -85.5 -196.5s-141.167 -66.5 -252.5 -66.5c-112.667 0 -197.667 22.667 -255 68z
M135 1109l74 294h305l75 -294l-192 -1l-35 176l-36 -176z" />
    <glyph glyph-name="udieresis" unicode="&#xfc;" horiz-adv-x="725" 
d="M109 45c-57.333 45.333 -86 112.333 -86 201v819h311v-820c0 -12 2.5 -21.333 7.5 -28s12.167 -10 21.5 -10s16.5 3.33301 21.5 10s7.5 16 7.5 28v820h310v-825c0 -86.667 -28.5 -152.167 -85.5 -196.5s-141.167 -66.5 -252.5 -66.5c-112.667 0 -197.667 22.667 -255 68z
M179 1118.5c-14 7 -24.168 19.833 -30.501 38.5s-9.5 46.667 -9.5 84c0 40 3.16699 70 9.5 90s16.333 33.5 30 40.5s33.834 10.5 60.501 10.5c27.333 0 48 -3.5 62 -10.5s24.167 -20.5 30.5 -40.5s9.5 -50 9.5 -90c0 -37.333 -3.16699 -65.333 -9.5 -84
s-16.5 -31.5 -30.5 -38.5s-34.333 -10.5 -61 -10.5s-47 3.5 -61 10.5zM418.999 1118.5c-14 7 -24.167 19.833 -30.5 38.5s-9.5 46.667 -9.5 84c0 40 3.16699 70 9.5 90s16.333 33.5 30 40.5s33.834 10.5 60.501 10.5c27.333 0 48.166 -3.5 62.499 -10.5
s24.666 -20.5 30.999 -40.5s9.5 -50 9.5 -90c0 -37.333 -3.16699 -65.333 -9.5 -84s-16.666 -31.5 -30.999 -38.5s-34.833 -10.5 -61.5 -10.5s-47 3.5 -61 10.5z" />
    <glyph glyph-name="yacute" unicode="&#xfd;" horiz-adv-x="729" 
d="M124 -104l102.999 -0.00195312c13.333 0 22.333 5.66699 27 17s7.33398 25.333 8.00098 42l4 103h-119l-138 1007h323l20 -573l4 -178h17l3 178l21 573h323l-117 -1151c-14 -63.333 -33.667 -112.166 -59 -146.499s-54.5 -57.666 -87.5 -69.999s-71.5 -18.5 -115.5 -18.5
h-217v217zM295.999 1362l283 -2l-104 -252h-242z" />
    <glyph glyph-name="thorn" unicode="&#xfe;" horiz-adv-x="736" 
d="M27 1382l344 1.00098l-1 -303l-37 -82l6 -8c13.333 28 34.5 51.333 63.5 70s68.5 28 118.5 28c66.667 0 115.5 -24 146.5 -72s46.5 -124 46.5 -228v-512c0 -95.333 -15.167 -169 -45.5 -221s-83.5 -78 -159.5 -78c-34.667 0 -62.167 2.66699 -82.5 8
s-44.5 13.666 -72.5 24.999v-305h-328zM388.5 216.001c3 9.33301 4.5 29.333 4.5 60v513c0 30 -1.5 49.667 -4.5 59s-9.16699 14 -18.5 14c-11.333 0 -19.833 -5.5 -25.5 -16.5s-8.5 -30.167 -8.5 -57.5v-524c3.33301 -25.333 7.5 -42 12.5 -50s12.5 -12 22.5 -12
c8.66699 0 14.5 4.66699 17.5 14z" />
    <glyph glyph-name="ydieresis" unicode="&#xff;" horiz-adv-x="729" 
d="M124 -104l102.999 -0.00195312c13.333 0 22.333 5.66699 27 17s7.33398 25.333 8.00098 42l4 103h-119l-138 1007h323l20 -573l4 -178h17l3 178l21 573h323l-117 -1151c-14 -63.333 -33.667 -112.166 -59 -146.499s-54.5 -57.666 -87.5 -69.999s-71.5 -18.5 -115.5 -18.5
h-217v217zM181.999 1118.5c-14 7 -24.168 19.833 -30.501 38.5s-9.5 46.667 -9.5 84c0 40 3.16699 70 9.5 90s16.333 33.5 30 40.5s33.834 10.5 60.501 10.5c27.333 0 48 -3.5 62 -10.5s24.167 -20.5 30.5 -40.5s9.5 -50 9.5 -90c0 -37.333 -3.16699 -65.333 -9.5 -84
s-16.5 -31.5 -30.5 -38.5s-34.333 -10.5 -61 -10.5s-47 3.5 -61 10.5zM421.998 1118.5c-14 7 -24.167 19.833 -30.5 38.5s-9.5 46.667 -9.5 84c0 40 3.16699 70 9.5 90s16.333 33.5 30 40.5s33.834 10.5 60.501 10.5c27.333 0 48.166 -3.5 62.499 -10.5
s24.666 -20.5 30.999 -40.5s9.5 -50 9.5 -90c0 -37.333 -3.16699 -65.333 -9.5 -84s-16.666 -31.5 -30.999 -38.5s-34.833 -10.5 -61.5 -10.5s-47 3.5 -61 10.5z" />
    <glyph glyph-name="Amacron" unicode="&#x100;" horiz-adv-x="786" 
d="M426 173h-65l-6 -173h-352l201 1360h378l202 -1360h-352zM419 364l-21 576h-12l-19 -576h52zM187 1560h409v-157h-409v157z" />
    <glyph glyph-name="amacron" unicode="&#x101;" horiz-adv-x="725" 
d="M116.5 1c-29.667 16 -53.1689 39.001 -70.502 69.001s-26 64.667 -26 104v277c0.666992 54 12.334 94.167 35.001 120.5s55.834 43.5 99.501 51.5s106.5 12 188.5 12c2 0 5.66699 -0.166992 11 -0.5s18 -0.5 38 -0.5v216c0 15.333 -2.16699 26.666 -6.5 33.999
s-12.166 11 -23.499 11c-18.667 0 -28 -12.667 -28 -38v-187l-285 -1v187c0.666992 54.667 12.667 99 36 133s60.333 59.167 111 75.5s117.667 24.5 201 24.5c89.333 0 162 -18 218 -54s84 -91.667 84 -167v-868h-290l-33 77c-12.667 -32.667 -32.5 -57.5 -59.5 -74.5
s-60.5 -25.5 -100.5 -25.5c-36.667 0 -69.834 8 -99.501 24zM381.998 190.501c6 7 9.33398 17.165 10.001 30.498v305h-19c-14.667 -0.666992 -24.834 -4.66699 -30.501 -12s-8.5 -17.666 -8.5 -30.999v-275c0 -17.333 8.33301 -26.666 25 -27.999c9.33301 0 17 3.5 23 10.5
zM164.999 1289h409v-157h-409v157z" />
    <glyph glyph-name="Abreve" unicode="&#x102;" horiz-adv-x="786" 
d="M426 173h-65l-6 -173h-352l201 1360h378l202 -1360h-352zM419 364l-21 576h-12l-19 -576h52zM256.5 1418.5c-33 11 -56.833 28.833 -71.5 53.5s-22.334 57.667 -23.001 99v118h204v-118c0.666992 -16.667 2.83398 -28.5 6.50098 -35.5s9.83398 -10.5 18.501 -10.5
c9.33301 0 16 3.5 20 10.5s6 18.833 6 35.5v118h203v-118c-0.666992 -41.333 -8.33398 -74.333 -23.001 -99s-38.5 -42.5 -71.5 -53.5s-77.833 -16.5 -134.5 -16.5s-101.5 5.5 -134.5 16.5z" />
    <glyph glyph-name="abreve" unicode="&#x103;" horiz-adv-x="725" 
d="M116.5 1c-29.667 16 -53.1689 39.001 -70.502 69.001s-26 64.667 -26 104v277c0.666992 54 12.334 94.167 35.001 120.5s55.834 43.5 99.501 51.5s106.5 12 188.5 12c2 0 5.66699 -0.166992 11 -0.5s18 -0.5 38 -0.5v216c0 15.333 -2.16699 26.666 -6.5 33.999
s-12.166 11 -23.499 11c-18.667 0 -28 -12.667 -28 -38v-187l-285 -1v187c0.666992 54.667 12.667 99 36 133s60.333 59.167 111 75.5s117.667 24.5 201 24.5c89.333 0 162 -18 218 -54s84 -91.667 84 -167v-868h-290l-33 77c-12.667 -32.667 -32.5 -57.5 -59.5 -74.5
s-60.5 -25.5 -100.5 -25.5c-36.667 0 -69.834 8 -99.501 24zM381.998 190.501c6 7 9.33398 17.165 10.001 30.498v305h-19c-14.667 -0.666992 -24.834 -4.66699 -30.501 -12s-8.5 -17.666 -8.5 -30.999v-275c0 -17.333 8.33301 -26.666 25 -27.999c9.33301 0 17 3.5 23 10.5
zM234.499 1147.5c-33 11 -56.833 28.833 -71.5 53.5s-22.334 57.667 -23.001 99v118h204v-118c0.666992 -16.667 2.83398 -28.5 6.50098 -35.5s9.83398 -10.5 18.501 -10.5c9.33301 0 16 3.5 20 10.5s6 18.833 6 35.5v118h203v-118
c-0.666992 -41.333 -8.33398 -74.333 -23.001 -99s-38.5 -42.5 -71.5 -53.5s-77.833 -16.5 -134.5 -16.5s-101.5 5.5 -134.5 16.5z" />
    <glyph glyph-name="Aogonek" unicode="&#x104;" horiz-adv-x="786" 
d="M796 -317c-49.333 -55.333 -127 -82.999 -233 -82.999c-68.667 0 -120.5 12.167 -155.5 36.5s-52.5 60.166 -52.5 107.499c0 94.667 50 180 150 256h-73l-6 173h-65l-6 -173h-352l201 1360h378l202 -1360h-2c-78.667 -74 -117.667 -140.333 -117 -199
c0 -16.667 7.33301 -25 22 -25c12 0 27.333 10 46 30zM419 364.001l-21 576h-12l-19 -576h52z" />
    <glyph glyph-name="aogonek" unicode="&#x105;" horiz-adv-x="725" 
d="M712 -317c-49.333 -55.333 -127.002 -82.998 -233.002 -82.998c-68.667 0 -120.5 12.167 -155.5 36.5s-52.5 60.166 -52.5 107.499c0 94.667 50 180 150 256h-12l-33 77c-12.667 -32.667 -32.5 -57.5 -59.5 -74.5s-60.5 -25.5 -100.5 -25.5
c-36.667 0 -69.834 8 -99.501 24s-53.167 39 -70.5 69s-26 64.667 -26 104v277c0.666992 54 12.334 94.167 35.001 120.5s55.834 43.5 99.501 51.5s106.5 12 188.5 12c2 0 5.66699 -0.166992 11 -0.5s18 -0.5 38 -0.5v216c0 15.333 -2.16699 26.666 -6.5 33.999
s-12.166 11 -23.499 11c-18.667 0 -28 -12.667 -28 -38v-187l-285 -1v187c0.666992 54.667 12.667 99 36 133s60.333 59.167 111 75.5s117.667 24.5 201 24.5c89.333 0 162 -18 218 -54s84 -91.667 84 -167v-868h-1c-78.667 -72.667 -118 -139 -118 -199
c0 -16.667 7.66699 -25 23 -25c10.667 0 26 10 46 30zM391.998 526.002l-18.999 -0.00195312c-14.667 -0.666992 -24.834 -4.66699 -30.501 -12s-8.5 -17.666 -8.5 -30.999v-275c0 -17.333 8.33301 -26.666 25 -27.999c9.33301 0 17 3.5 23 10.5s9.33301 17.167 10 30.5v305
z" />
    <glyph glyph-name="Cacute" unicode="&#x106;" horiz-adv-x="824" 
d="M119 68.5c-66 61 -99.002 151.168 -99.002 270.501v684c0 118.667 33 208.334 99 269.001s163.667 91 293 91c126 0 222.167 -29.333 288.5 -88s100.833 -145.334 103.5 -260.001v-324h-364v356c0 19.333 -9.66699 29 -29 29s-29 -9.66699 -29 -29v-772
c0 -19.333 9.66699 -29 29 -29s29 9.66699 29 29v354h364v-324c-3.33301 -114.667 -38.166 -201.334 -104.499 -260.001s-162.166 -88 -287.499 -88c-129.333 0 -227 30.5 -293 91.5zM342.998 1724l283 -2l-104 -296h-242z" />
    <glyph glyph-name="cacute" unicode="&#x107;" 
d="M107 52c-58 50 -87 123.668 -87 221.001v522c0 97.333 29 170.666 87 219.999s144 74 258 74c111.333 0 196 -23.833 254 -71.5s88.333 -118.167 91 -211.5v-246h-317v260c0 19.333 -9.33301 29 -28 29c-19.333 0 -29 -9.66699 -29 -29v-575
c0 -19.333 9.66699 -29 29 -29c18.667 0 28 9.66699 28 29v269h317v-250c-2.66699 -94.667 -33 -166.167 -91 -214.5s-142.667 -72.5 -254 -72.5c-114 0 -200 25 -258 75zM296 1430l283 -2l-104 -296h-242z" />
    <glyph glyph-name="Ccircumflex" unicode="&#x108;" horiz-adv-x="824" 
d="M119 68.5c-66 61 -99.002 151.168 -99.002 270.501v684c0 118.667 33 208.334 99 269.001s163.667 91 293 91c126 0 222.167 -29.333 288.5 -88s100.833 -145.334 103.5 -260.001v-324h-364v356c0 19.333 -9.66699 29 -29 29s-29 -9.66699 -29 -29v-772
c0 -19.333 9.66699 -29 29 -29s29 9.66699 29 29v354h364v-324c-3.33301 -114.667 -38.166 -201.334 -104.499 -260.001s-162.166 -88 -287.499 -88c-129.333 0 -227 30.5 -293 91.5zM184.998 1427l74 294h305l75 -294l-192 -1l-35 176l-36 -176z" />
    <glyph glyph-name="ccircumflex" unicode="&#x109;" 
d="M107 52c-58 50 -87 123.668 -87 221.001v522c0 97.333 29 170.666 87 219.999s144 74 258 74c111.333 0 196 -23.833 254 -71.5s88.333 -118.167 91 -211.5v-246h-317v260c0 19.333 -9.33301 29 -28 29c-19.333 0 -29 -9.66699 -29 -29v-575
c0 -19.333 9.66699 -29 29 -29c18.667 0 28 9.66699 28 29v269h317v-250c-2.66699 -94.667 -33 -166.167 -91 -214.5s-142.667 -72.5 -254 -72.5c-114 0 -200 25 -258 75zM138 1133l74 294h305l75 -294l-192 -1l-35 176l-36 -176z" />
    <glyph glyph-name="Cdotaccent" unicode="&#x10a;" horiz-adv-x="824" 
d="M119 68.5c-66 61 -99.002 151.168 -99.002 270.501v684c0 118.667 33 208.334 99 269.001s163.667 91 293 91c126 0 222.167 -29.333 288.5 -88s100.833 -145.334 103.5 -260.001v-324h-364v356c0 19.333 -9.66699 29 -29 29s-29 -9.66699 -29 -29v-772
c0 -19.333 9.66699 -29 29 -29s29 9.66699 29 29v354h364v-324c-3.33301 -114.667 -38.166 -201.334 -104.499 -260.001s-162.166 -88 -287.499 -88c-129.333 0 -227 30.5 -293 91.5zM332.498 1436.5c-19 7.66699 -32.668 20.499 -41.001 38.499s-12.5 44 -12.5 78
c0 36.667 4.16699 64.834 12.5 84.501s21.833 33.334 40.5 41.001s45.334 11.5 80.001 11.5s61.5 -3.83301 80.5 -11.5s32.667 -21.334 41 -41.001s12.5 -47.834 12.5 -84.501c0 -34 -4.16699 -60.167 -12.5 -78.5s-22 -31.166 -41 -38.499s-45.833 -11 -80.5 -11
c-34 0 -60.5 3.83301 -79.5 11.5z" />
    <glyph glyph-name="cdotaccent" unicode="&#x10b;" 
d="M107 52c-58 50 -87 123.668 -87 221.001v522c0 97.333 29 170.666 87 219.999s144 74 258 74c111.333 0 196 -23.833 254 -71.5s88.333 -118.167 91 -211.5v-246h-317v260c0 19.333 -9.33301 29 -28 29c-19.333 0 -29 -9.66699 -29 -29v-575
c0 -19.333 9.66699 -29 29 -29c18.667 0 28 9.66699 28 29v269h317v-250c-2.66699 -94.667 -33 -166.167 -91 -214.5s-142.667 -72.5 -254 -72.5c-114 0 -200 25 -258 75zM285.5 1142.5c-19 7.66699 -32.668 20.499 -41.001 38.499s-12.5 44 -12.5 78
c0 36.667 4.16699 64.834 12.5 84.501s21.833 33.334 40.5 41.001s45.334 11.5 80.001 11.5s61.5 -3.83301 80.5 -11.5s32.667 -21.334 41 -41.001s12.5 -47.834 12.5 -84.501c0 -34 -4.16699 -60.167 -12.5 -78.5s-22 -31.166 -41 -38.499s-45.833 -11 -80.5 -11
c-34 0 -60.5 3.83301 -79.5 11.5z" />
    <glyph glyph-name="Ccaron" unicode="&#x10c;" horiz-adv-x="824" 
d="M119 68.5c-66 61 -99.002 151.168 -99.002 270.501v684c0 118.667 33 208.334 99 269.001s163.667 91 293 91c126 0 222.167 -29.333 288.5 -88s100.833 -145.334 103.5 -260.001v-324h-364v356c0 19.333 -9.66699 29 -29 29s-29 -9.66699 -29 -29v-772
c0 -19.333 9.66699 -29 29 -29s29 9.66699 29 29v354h364v-324c-3.33301 -114.667 -38.166 -201.334 -104.499 -260.001s-162.166 -88 -287.499 -88c-129.333 0 -227 30.5 -293 91.5zM177.998 1721l198 1l35 -176l36 176l197 -1l-86 -294h-294z" />
    <glyph glyph-name="ccaron" unicode="&#x10d;" 
d="M107 52c-58 50 -87 123.668 -87 221.001v522c0 97.333 29 170.666 87 219.999s144 74 258 74c111.333 0 196 -23.833 254 -71.5s88.333 -118.167 91 -211.5v-246h-317v260c0 19.333 -9.33301 29 -28 29c-19.333 0 -29 -9.66699 -29 -29v-575
c0 -19.333 9.66699 -29 29 -29c18.667 0 28 9.66699 28 29v269h317v-250c-2.66699 -94.667 -33 -166.167 -91 -214.5s-142.667 -72.5 -254 -72.5c-114 0 -200 25 -258 75zM131 1427l198 1l35 -176l36 176l197 -1l-86 -294h-294z" />
    <glyph glyph-name="Dcaron" unicode="&#x10e;" horiz-adv-x="802" 
d="M26 1360l370 0.000976562c126.667 0 222.5 -28.833 287.5 -86.5s97.5 -142.834 97.5 -255.501v-674c0 -113.333 -32.167 -199 -96.5 -257s-159.833 -87 -286.5 -87h-372v1360zM391 277.001c13.333 0 22.166 4.33301 26.499 13s6.5 26 6.5 52v673
c0 27.333 -2.16699 45.5 -6.5 54.5s-13.166 13.5 -26.499 13.5h-24v-806h24zM163 1698l198 1l35 -176l36 176l197 -1l-86 -294h-294z" />
    <glyph glyph-name="dcaron" unicode="&#x10f;" horiz-adv-x="1051" 
d="M68 50c-32.667 50 -49 124 -49 222v523c0 97.333 16.833 171 50.5 221s83.5 75 149.5 75c72 0 122.667 -19.333 152 -58l-9 50v276h344v-1359h-294l-32 75c-24 -66.667 -80 -100 -168 -100c-63.333 0 -111.333 25 -144 75zM383 216
c5.33301 7.33301 8.00098 17.333 8.00098 30v605c-10 8 -20 12 -30 12c-17.333 0 -26 -22 -26 -66v-525c0 -20.667 2.16699 -37 6.5 -49s10.833 -18 19.5 -18c9.33301 0 16.666 3.66699 21.999 11zM781.001 1043.5c10 31.667 15 63.833 15 96.5h-46l-1 266h294v-234
c0 -86 -20.667 -164.667 -62 -236h-244c19.333 40 34 75.833 44 107.5z" />
    <glyph glyph-name="Dcroat" unicode="&#x110;" horiz-adv-x="821" 
d="M612.5 1323c57.667 -24.667 103.333 -62.667 137 -114s50.5 -115 50.5 -191v-675c0 -108.667 -33.167 -193 -99.5 -253s-160.833 -90 -283.5 -90h-372v572h-34v192h34v596h371c73.333 0 138.833 -12.333 196.5 -37zM447.999 1018c0 32.667 -0.833008 56.5 -2.5 71.5
s-4.83398 25 -9.50098 30s-11.667 7.5 -21 7.5h-24v-895h24c9.33301 0 16.333 2.5 21 7.5s7.83398 15.167 9.50098 30.5s2.5 39.333 2.5 72v676z" />
    <glyph glyph-name="dcroat" unicode="&#x111;" horiz-adv-x="767" 
d="M752 1135h-46v-1135h-294l-32 75c-24 -66.667 -80 -100 -168 -100c-63.333 0 -111.333 25 -144 75s-49 124 -49 222v523c0 97.333 16.833 171 50.5 221s83.5 75 149.5 75c72 0 122.667 -19.333 152 -58l-9 50v52h-81v172h81v52h344v-52h46v-172zM391 851
c-10 8 -19.999 12 -29.999 12c-17.333 0 -26 -22 -26 -66v-525c0 -20.667 2.16699 -37 6.5 -49s10.833 -18 19.5 -18c9.33301 0 16.666 3.66699 21.999 11s8 17.333 8 30v605z" />
    <glyph glyph-name="Emacron" unicode="&#x112;" horiz-adv-x="604" 
d="M26 1360h563v-236h-206v-363h164v-173h-164v-359h210v-229h-567v1360zM106 1560h409v-157h-409v157z" />
    <glyph glyph-name="emacron" unicode="&#x113;" 
d="M336 455v-284.998c0 -19.333 9.66699 -29 29 -29c18.667 0 28 9.66699 28 29v227h301v-219c-16 -66.667 -51.667 -116.834 -107 -150.501s-129.333 -50.5 -222 -50.5c-114 0 -200 25 -258 75s-87 123.667 -87 221v522c0 97.333 29 170.666 87 219.999s144 74 258 74
s200 -23.833 258 -71.5s87 -118.167 87 -211.5c0 -21.333 -2.66699 -138.333 -8 -351h-366zM336 874.002v-278h57v278c0 19.333 -9.33301 29 -28 29c-19.333 0 -29 -9.66699 -29 -29zM163 1307h409v-157h-409v157z" />
    <glyph glyph-name="Ebreve" unicode="&#x114;" horiz-adv-x="604" 
d="M26 1360h563v-236h-206v-363h164v-173h-164v-359h210v-229h-567v1360zM175.5 1418.5c-33 11 -56.833 28.833 -71.5 53.5s-22.334 57.667 -23.001 99v118h204v-118c0.666992 -16.667 2.83398 -28.5 6.50098 -35.5s9.83398 -10.5 18.501 -10.5c9.33301 0 16 3.5 20 10.5
s6 18.833 6 35.5v118h203v-118c-0.666992 -41.333 -8.33398 -74.333 -23.001 -99s-38.5 -42.5 -71.5 -53.5s-77.833 -16.5 -134.5 -16.5s-101.5 5.5 -134.5 16.5z" />
    <glyph glyph-name="ebreve" unicode="&#x115;" 
d="M336 455v-284.998c0 -19.333 9.66699 -29 29 -29c18.667 0 28 9.66699 28 29v227h301v-219c-16 -66.667 -51.667 -116.834 -107 -150.501s-129.333 -50.5 -222 -50.5c-114 0 -200 25 -258 75s-87 123.667 -87 221v522c0 97.333 29 170.666 87 219.999s144 74 258 74
s200 -23.833 258 -71.5s87 -118.167 87 -211.5c0 -21.333 -2.66699 -138.333 -8 -351h-366zM336 874.002v-278h57v278c0 19.333 -9.33301 29 -28 29c-19.333 0 -29 -9.66699 -29 -29zM231.5 1163c-33 9.33301 -56.667 24.833 -71 46.5s-21.5 51.167 -21.5 88.5v103h204v-99
c0 -15.333 1.83301 -26.166 5.5 -32.499s10.167 -9.5 19.5 -9.5s16 3.16699 20 9.5s6 17.166 6 32.499v99h202v-103c0 -37.333 -7.16699 -66.833 -21.5 -88.5s-38 -37.167 -71 -46.5s-78.167 -14 -135.5 -14c-58 0 -103.5 4.66699 -136.5 14z" />
    <glyph glyph-name="Edotaccent" unicode="&#x116;" horiz-adv-x="604" 
d="M26 1360h563v-236h-206v-363h164v-173h-164v-359h210v-229h-567v1360zM230.5 1413.5c-19 7.66699 -32.668 20.499 -41.001 38.499s-12.5 44 -12.5 78c0 36.667 4.16699 64.834 12.5 84.501s21.833 33.334 40.5 41.001s45.334 11.5 80.001 11.5s61.5 -3.83301 80.5 -11.5
s32.667 -21.334 41 -41.001s12.5 -47.834 12.5 -84.501c0 -34 -4.16699 -60.167 -12.5 -78.5s-22 -31.166 -41 -38.499s-45.833 -11 -80.5 -11c-34 0 -60.5 3.83301 -79.5 11.5z" />
    <glyph glyph-name="edotaccent" unicode="&#x117;" 
d="M336 455v-284.998c0 -19.333 9.66699 -29 29 -29c18.667 0 28 9.66699 28 29v227h301v-219c-16 -66.667 -51.667 -116.834 -107 -150.501s-129.333 -50.5 -222 -50.5c-114 0 -200 25 -258 75s-87 123.667 -87 221v522c0 97.333 29 170.666 87 219.999s144 74 258 74
s200 -23.833 258 -71.5s87 -118.167 87 -211.5c0 -21.333 -2.66699 -138.333 -8 -351h-366zM336 874.002v-278h57v278c0 19.333 -9.33301 29 -28 29c-19.333 0 -29 -9.66699 -29 -29zM287.5 1160.5c-19 7.66699 -32.668 20.499 -41.001 38.499s-12.5 44 -12.5 78
c0 36.667 4.16699 64.834 12.5 84.501s21.833 33.334 40.5 41.001s45.334 11.5 80.001 11.5s61.5 -3.83301 80.5 -11.5s32.667 -21.334 41 -41.001s12.5 -47.834 12.5 -84.501c0 -34 -4.16699 -60.167 -12.5 -78.5s-22 -31.166 -41 -38.499s-45.833 -11 -80.5 -11
c-34 0 -60.5 3.83301 -79.5 11.5z" />
    <glyph glyph-name="Eogonek" unicode="&#x118;" horiz-adv-x="604" 
d="M606 -317c-49.333 -55.333 -126.667 -82.999 -232 -82.999c-68.667 0 -120.5 12.167 -155.5 36.5s-52.5 60.166 -52.5 107.499c0 94.667 50 180 150 256h-290v1360h563v-236h-206v-363h164v-173h-164v-359h210v-229c-78.667 -72.667 -118 -139 -118 -199
c0 -16.667 7.33301 -25 22 -25c12 0 27.333 10 46 30z" />
    <glyph glyph-name="eogonek" unicode="&#x119;" 
d="M336 455v-284.997c0 -19.333 9.66699 -29 29 -29c18.667 0 28 9.66699 28 29v227h301v-219c-20.667 -86.667 -75 -145.667 -163 -177c-71.333 -68 -107 -131 -107 -189c0 -16 7.66699 -24 23 -24c10.667 0 25.667 10 45 30l64 -123c-49.333 -55.333 -127 -83 -233 -83
c-68.667 0 -120.5 12.167 -155.5 36.5s-52.5 60.166 -52.5 107.499c0 85.333 41 163.333 123 234c-72 16.667 -126.333 48.667 -163 96s-55 109.666 -55 186.999v522c0 97.333 29 170.666 87 219.999s144 74 258 74s200 -23.833 258 -71.5s87 -118.167 87 -211.5
c0 -21.333 -2.66699 -138.333 -8 -351h-366zM336 874.003v-278h57v278c0 19.333 -9.33301 29 -28 29c-19.333 0 -29 -9.66699 -29 -29z" />
    <glyph glyph-name="Ecaron" unicode="&#x11a;" horiz-adv-x="604" 
d="M26 1360h563v-236h-206v-363h164v-173h-164v-359h210v-229h-567v1360zM76 1698l198 1l35 -176l36 176l197 -1l-86 -294h-294z" />
    <glyph glyph-name="ecaron" unicode="&#x11b;" 
d="M336 455v-284.998c0 -19.333 9.66699 -29 29 -29c18.667 0 28 9.66699 28 29v227h301v-219c-16 -66.667 -51.667 -116.834 -107 -150.501s-129.333 -50.5 -222 -50.5c-114 0 -200 25 -258 75s-87 123.667 -87 221v522c0 97.333 29 170.666 87 219.999s144 74 258 74
s200 -23.833 258 -71.5s87 -118.167 87 -211.5c0 -21.333 -2.66699 -138.333 -8 -351h-366zM336 874.002v-278h57v278c0 19.333 -9.33301 29 -28 29c-19.333 0 -29 -9.66699 -29 -29zM134 1445l198 1l35 -176l36 176l197 -1l-86 -294h-294z" />
    <glyph glyph-name="Gcircumflex" unicode="&#x11c;" horiz-adv-x="823" 
d="M119 67c-66 60 -99.002 148.667 -99.002 266v693c0 118 33 207 99 267s163.667 90 293 90c126.667 0 222.334 -25.5 287.001 -76.5s97.334 -126.833 98.001 -227.5v-307l-357 1v330c0 19.333 -9.66699 29 -29 29s-29 -9.66699 -29 -29v-884c0 -19.333 10 -29 30 -29
c11.333 0 21.333 2.66699 30 8v360h-27l1 169h383v-668c-98 -54.667 -227 -82 -387 -82c-129.333 0 -227 30 -293 90zM184.998 1427l74 294h305l75 -294l-192 -1l-35 176l-36 -176z" />
    <glyph glyph-name="gcircumflex" unicode="&#x11d;" horiz-adv-x="711" 
d="M98 -357.5c-48.667 27 -72.9971 70.1709 -72.9971 129.504v238c0 24 6 42.667 18 56s31.667 22.666 59 27.999c-25.333 10 -43.666 24.333 -54.999 43s-17 43.667 -17 75v34c0 29.333 4.33301 54.333 13 75s22.667 39.667 42 57
c-15.333 17.333 -26.333 36.666 -33 57.999s-10 47.333 -10 78v354c1.33301 77.333 25.166 133.5 71.499 168.5s120.833 52.5 223.5 52.5c40.667 0 75.5 -2.33301 104.5 -7s55.833 -12.334 80.5 -23.001c9.33301 12 20.833 20.667 34.5 26s30.834 8 51.501 8h98v-178l-56 1
c-0.666992 24 -11.334 38 -32.001 42c8.66699 -20.667 13 -50.334 13 -89.001v-355c0 -76 -23.167 -131.167 -69.5 -165.5s-121.5 -51.5 -225.5 -51.5c-27.333 0 -51.333 1.66699 -72 5l-8 -7v-35c0 -8.66699 3.83301 -15 11.5 -19s20.167 -6.33301 37.5 -7
c9.33301 -0.666992 22.666 -1 39.999 -1c26.667 0 55 2 85 6c28 3.33301 51.333 5 70 5c64 0 111 -15.667 141 -47s45.667 -80.333 47 -147v-218c0 -80.667 -27.833 -139.167 -83.5 -175.5s-145.834 -54.5 -270.501 -54.5c-108.667 0 -187.334 13.5 -236.001 40.5z
M361.003 479.504c4 7 6 20.167 6 39.5v351c0 20 -2 33.5 -6 40.5s-11.333 10.5 -22 10.5c-11.333 0 -19 -3.5 -23 -10.5s-6 -20.5 -6 -40.5v-351c0 -19.333 2 -32.5 6 -39.5s11.333 -10.5 22 -10.5c11.333 0 19 3.5 23 10.5zM368.003 -188.996v215
c-0.666992 30.667 -9.66699 46 -27 46l-31 -1v-261c0 -23.333 9.33301 -35 28 -35c20 0 30 12 30 36zM110.003 1137l74 294h305l75 -294l-192 -1l-35 176l-36 -176z" />
    <glyph glyph-name="Gbreve" unicode="&#x11e;" horiz-adv-x="823" 
d="M119 67c-66 60 -99.002 148.667 -99.002 266v693c0 118 33 207 99 267s163.667 90 293 90c126.667 0 222.334 -25.5 287.001 -76.5s97.334 -126.833 98.001 -227.5v-307l-357 1v330c0 19.333 -9.66699 29 -29 29s-29 -9.66699 -29 -29v-884c0 -19.333 10 -29 30 -29
c11.333 0 21.333 2.66699 30 8v360h-27l1 169h383v-668c-98 -54.667 -227 -82 -387 -82c-129.333 0 -227 30 -293 90zM277.498 1441.5c-33 11 -56.833 28.833 -71.5 53.5s-22.334 57.667 -23.001 99v118h204v-118c0.666992 -16.667 2.83398 -28.5 6.50098 -35.5
s9.83398 -10.5 18.501 -10.5c9.33301 0 16 3.5 20 10.5s6 18.833 6 35.5v118h203v-118c-0.666992 -41.333 -8.33398 -74.333 -23.001 -99s-38.5 -42.5 -71.5 -53.5s-77.833 -16.5 -134.5 -16.5s-101.5 5.5 -134.5 16.5z" />
    <glyph glyph-name="gbreve" unicode="&#x11f;" horiz-adv-x="700" 
d="M87 -357.5c-48.667 27 -72.9971 70.1709 -72.9971 129.504v238c0 24 6 42.667 18 56s31.667 22.666 59 27.999c-25.333 10 -43.666 24.333 -54.999 43s-17 43.667 -17 75v34c0 29.333 4.33301 54.333 13 75s22.667 39.667 42 57
c-15.333 17.333 -26.333 36.666 -33 57.999s-10 47.333 -10 78v354c1.33301 77.333 25.166 133.5 71.499 168.5s120.833 52.5 223.5 52.5c40.667 0 75.5 -2.33301 104.5 -7s55.833 -12.334 80.5 -23.001c9.33301 12 20.833 20.667 34.5 26s30.834 8 51.501 8h98v-178l-56 1
c-0.666992 24 -11.334 38 -32.001 42c8.66699 -20.667 13 -50.334 13 -89.001v-355c0 -76 -23.167 -131.167 -69.5 -165.5s-121.5 -51.5 -225.5 -51.5c-27.333 0 -51.333 1.66699 -72 5l-8 -7v-35c0 -8.66699 3.83301 -15 11.5 -19s20.167 -6.33301 37.5 -7
c9.33301 -0.666992 22.666 -1 39.999 -1c26.667 0 55 2 85 6c28 3.33301 51.333 5 70 5c64 0 111 -15.667 141 -47s45.667 -80.333 47 -147v-218c0 -80.667 -27.833 -139.167 -83.5 -175.5s-145.834 -54.5 -270.501 -54.5c-108.667 0 -187.334 13.5 -236.001 40.5z
M350.003 479.504c4 7 6 20.167 6 39.5v351c0 20 -2 33.5 -6 40.5s-11.333 10.5 -22 10.5c-11.333 0 -19 -3.5 -23 -10.5s-6 -20.5 -6 -40.5v-351c0 -19.333 2 -32.5 6 -39.5s11.333 -10.5 22 -10.5c11.333 0 19 3.5 23 10.5zM357.003 -188.996v215
c-0.666992 30.667 -9.66699 46 -27 46l-31 -1v-261c0 -23.333 9.33301 -35 28 -35c20 0 30 12 30 36zM191.503 1147.5c-33 11 -56.833 28.833 -71.5 53.5s-22.334 57.667 -23.001 99v118h204v-118c0.666992 -16.667 2.83398 -28.5 6.50098 -35.5s9.83398 -10.5 18.501 -10.5
c9.33301 0 16 3.5 20 10.5s6 18.833 6 35.5v118h203v-118c-0.666992 -41.333 -8.33398 -74.333 -23.001 -99s-38.5 -42.5 -71.5 -53.5s-77.833 -16.5 -134.5 -16.5s-101.5 5.5 -134.5 16.5z" />
    <glyph glyph-name="Gdotaccent" unicode="&#x120;" horiz-adv-x="823" 
d="M119 67c-66 60 -99.002 148.667 -99.002 266v693c0 118 33 207 99 267s163.667 90 293 90c126.667 0 222.334 -25.5 287.001 -76.5s97.334 -126.833 98.001 -227.5v-307l-357 1v330c0 19.333 -9.66699 29 -29 29s-29 -9.66699 -29 -29v-884c0 -19.333 10 -29 30 -29
c11.333 0 21.333 2.66699 30 8v360h-27l1 169h383v-668c-98 -54.667 -227 -82 -387 -82c-129.333 0 -227 30 -293 90zM332.498 1436.5c-19 7.66699 -32.668 20.499 -41.001 38.499s-12.5 44 -12.5 78c0 36.667 4.16699 64.834 12.5 84.501s21.833 33.334 40.5 41.001
s45.334 11.5 80.001 11.5s61.5 -3.83301 80.5 -11.5s32.667 -21.334 41 -41.001s12.5 -47.834 12.5 -84.501c0 -34 -4.16699 -60.167 -12.5 -78.5s-22 -31.166 -41 -38.499s-45.833 -11 -80.5 -11c-34 0 -60.5 3.83301 -79.5 11.5z" />
    <glyph glyph-name="gdotaccent" unicode="&#x121;" horiz-adv-x="700" 
d="M87 -357.5c-48.667 27 -72.9971 70.1709 -72.9971 129.504v238c0 24 6 42.667 18 56s31.667 22.666 59 27.999c-25.333 10 -43.666 24.333 -54.999 43s-17 43.667 -17 75v34c0 29.333 4.33301 54.333 13 75s22.667 39.667 42 57
c-15.333 17.333 -26.333 36.666 -33 57.999s-10 47.333 -10 78v354c1.33301 77.333 25.166 133.5 71.499 168.5s120.833 52.5 223.5 52.5c40.667 0 75.5 -2.33301 104.5 -7s55.833 -12.334 80.5 -23.001c9.33301 12 20.833 20.667 34.5 26s30.834 8 51.501 8h98v-178l-56 1
c-0.666992 24 -11.334 38 -32.001 42c8.66699 -20.667 13 -50.334 13 -89.001v-355c0 -76 -23.167 -131.167 -69.5 -165.5s-121.5 -51.5 -225.5 -51.5c-27.333 0 -51.333 1.66699 -72 5l-8 -7v-35c0 -8.66699 3.83301 -15 11.5 -19s20.167 -6.33301 37.5 -7
c9.33301 -0.666992 22.666 -1 39.999 -1c26.667 0 55 2 85 6c28 3.33301 51.333 5 70 5c64 0 111 -15.667 141 -47s45.667 -80.333 47 -147v-218c0 -80.667 -27.833 -139.167 -83.5 -175.5s-145.834 -54.5 -270.501 -54.5c-108.667 0 -187.334 13.5 -236.001 40.5z
M350.003 479.504c4 7 6 20.167 6 39.5v351c0 20 -2 33.5 -6 40.5s-11.333 10.5 -22 10.5c-11.333 0 -19 -3.5 -23 -10.5s-6 -20.5 -6 -40.5v-351c0 -19.333 2 -32.5 6 -39.5s11.333 -10.5 22 -10.5c11.333 0 19 3.5 23 10.5zM357.003 -188.996v215
c-0.666992 30.667 -9.66699 46 -27 46l-31 -1v-261c0 -23.333 9.33301 -35 28 -35c20 0 30 12 30 36zM246.503 1142.5c-19 7.66699 -32.668 20.499 -41.001 38.499s-12.5 44 -12.5 78c0 36.667 4.16699 64.834 12.5 84.501s21.833 33.334 40.5 41.001
s45.334 11.5 80.001 11.5s61.5 -3.83301 80.5 -11.5s32.667 -21.334 41 -41.001s12.5 -47.834 12.5 -84.501c0 -34 -4.16699 -60.167 -12.5 -78.5s-22 -31.166 -41 -38.499s-45.833 -11 -80.5 -11c-34 0 -60.5 3.83301 -79.5 11.5z" />
    <glyph glyph-name="uni0122" unicode="&#x122;" horiz-adv-x="823" 
d="M119 67c-66 60 -99.002 148.667 -99.002 266v693c0 118 33 207 99 267s163.667 90 293 90c126.667 0 222.334 -25.5 287.001 -76.5s97.334 -126.833 98.001 -227.5v-307l-357 1v330c0 19.333 -9.66699 29 -29 29s-29 -9.66699 -29 -29v-884c0 -19.333 10 -29 30 -29
c11.333 0 21.333 2.66699 30 8v360h-27l1 169h383v-668c-98 -54.667 -227 -82 -387 -82c-129.333 0 -227 30 -293 90zM259.998 -68h306l-88 -341h-251z" />
    <glyph glyph-name="uni0123" unicode="&#x123;" horiz-adv-x="700" 
d="M87 -357.5c-48.667 27 -72.9971 70.1709 -72.9971 129.504v238c0 24 6 42.667 18 56s31.667 22.666 59 27.999c-25.333 10 -43.666 24.333 -54.999 43s-17 43.667 -17 75v34c0 29.333 4.33301 54.333 13 75s22.667 39.667 42 57
c-15.333 17.333 -26.333 36.666 -33 57.999s-10 47.333 -10 78v354c1.33301 77.333 25.166 133.5 71.499 168.5s120.833 52.5 223.5 52.5c40.667 0 75.5 -2.33301 104.5 -7s55.833 -12.334 80.5 -23.001c9.33301 12 20.833 20.667 34.5 26s30.834 8 51.501 8h98v-178l-56 1
c-0.666992 24 -11.334 38 -32.001 42c8.66699 -20.667 13 -50.334 13 -89.001v-355c0 -76 -23.167 -131.167 -69.5 -165.5s-121.5 -51.5 -225.5 -51.5c-27.333 0 -51.333 1.66699 -72 5l-8 -7v-35c0 -8.66699 3.83301 -15 11.5 -19s20.167 -6.33301 37.5 -7
c9.33301 -0.666992 22.666 -1 39.999 -1c26.667 0 55 2 85 6c28 3.33301 51.333 5 70 5c64 0 111 -15.667 141 -47s45.667 -80.333 47 -147v-218c0 -80.667 -27.833 -139.167 -83.5 -175.5s-145.834 -54.5 -270.501 -54.5c-108.667 0 -187.334 13.5 -236.001 40.5z
M350.003 479.504c4 7 6 20.167 6 39.5v351c0 20 -2 33.5 -6 40.5s-11.333 10.5 -22 10.5c-11.333 0 -19 -3.5 -23 -10.5s-6 -20.5 -6 -40.5v-351c0 -19.333 2 -32.5 6 -39.5s11.333 -10.5 22 -10.5c11.333 0 19 3.5 23 10.5zM357.003 -188.996v215
c-0.666992 30.667 -9.66699 46 -27 46l-31 -1v-261c0 -23.333 9.33301 -35 28 -35c20 0 30 12 30 36zM255.003 1433h250l-33 -301h-306z" />
    <glyph glyph-name="Hcircumflex" unicode="&#x124;" horiz-adv-x="796" 
d="M26 1360h344v-568h56v568h344v-1360h-344v560h-56v-560h-344v1360zM171 1404l74 294h305l75 -294l-192 -1l-35 176l-36 -176z" />
    <glyph glyph-name="hcircumflex" unicode="&#x125;" horiz-adv-x="740" 
d="M25 1360l345 0.000976562l1 -294c24 7.33301 47 12.666 69 15.999s46.667 5 74 5c50.667 0 90.167 -9 118.5 -27s48.5 -47.5 60.5 -88.5s18 -97.833 18 -170.5v-801h-317v796c0 26 -1.5 43.5 -4.5 52.5s-9.5 13.5 -19.5 13.5c-8 0 -14.5 -4 -19.5 -12s-9.5 -22 -13.5 -42
v-808h-312v1360zM-15 1403l74 294h305l75 -294l-192 -1l-35 176l-36 -176z" />
    <glyph glyph-name="Hbar" unicode="&#x126;" horiz-adv-x="798" 
d="M27 1360h343v-268h58v268h344v-1360h-344v594h-58v-594h-343v1360zM428 752v183h-58v-183h58z" />
    <glyph glyph-name="hbar" unicode="&#x127;" horiz-adv-x="741" 
d="M632.5 1060c28.333 -18 48.666 -47.501 60.999 -88.501s18.5 -97.833 18.5 -170.5v-801h-318v796c0 26.667 -1.33301 44.334 -4 53.001s-9 13 -19 13c-8 0 -14.667 -4 -20 -12s-9.66602 -22 -12.999 -42v-808h-312v1131h-40v172h40v57h344v-57h87v-172h-85v-65
c46 14 93.333 21 142 21c50.667 0 90.167 -9 118.5 -27z" />
    <glyph glyph-name="Itilde" unicode="&#x128;" horiz-adv-x="405" 
d="M26 1360h353v-1360h-353v1360zM-28 1506c0 58.667 13 101.833 39 129.5s66.333 41.5 121 41.5c35.333 0 62.333 -4.83301 81 -14.5s30.334 -24.834 35.001 -45.501l1 -57c4 -18 11.667 -27 23 -27c10.667 0 16 11 16 33v101l143 -1v-102
c0 -57.333 -13 -99.666 -39 -126.999s-66.333 -41 -121 -41c-34 0 -60.333 4.83301 -79 14.5s-30.667 25.167 -36 46.5l-2 57c-4.66699 17.333 -12.334 26 -23.001 26s-16 -11 -16 -33v-100h-143v99z" />
    <glyph glyph-name="itilde" unicode="&#x129;" horiz-adv-x="396" 
d="M26 1065h344v-1065h-344v1065zM-30 1211c0 58.667 13 101.833 39 129.5s66.333 41.5 121 41.5c35.333 0 62.333 -4.83301 81 -14.5s30.334 -24.834 35.001 -45.501l1 -57c4 -18 11.667 -27 23 -27c10.667 0 16 11 16 33v101l143 -1v-102
c0 -57.333 -13 -99.666 -39 -126.999s-66.333 -41 -121 -41c-34 0 -60.333 4.83301 -79 14.5s-30.667 25.167 -36 46.5l-2 57c-4.66699 17.333 -12.334 26 -23.001 26s-16 -11 -16 -33v-100h-143v99z" />
    <glyph glyph-name="Imacron" unicode="&#x12a;" horiz-adv-x="405" 
d="M26 1360h353v-1360h-353v1360zM-2 1560h409v-157h-409v157z" />
    <glyph glyph-name="imacron" unicode="&#x12b;" horiz-adv-x="396" 
d="M26 1065h344v-1065h-344v1065zM-4 1265h409v-157h-409v157z" />
    <glyph glyph-name="Ibreve" unicode="&#x12c;" horiz-adv-x="788" 
d="M26 1360h353v-1360h-353v1360zM53.5 1418.5c-33 11 -56.833 28.833 -71.5 53.5s-22.334 57.667 -23.001 99v118h204v-118c0.666992 -16.667 2.83398 -28.5 6.50098 -35.5s9.83398 -10.5 18.501 -10.5c9.33301 0 16 3.5 20 10.5s6 18.833 6 35.5v118h203v-118
c-0.666992 -41.333 -8.33398 -74.333 -23.001 -99s-38.5 -42.5 -71.5 -53.5s-77.833 -16.5 -134.5 -16.5s-101.5 5.5 -134.5 16.5z" />
    <glyph glyph-name="ibreve" unicode="&#x12d;" horiz-adv-x="396" 
d="M26 1065h344v-1065h-344v1065zM65.5 1123.5c-33 11 -56.833 28.833 -71.5 53.5s-22.334 57.667 -23.001 99v118h204v-118c0.666992 -16.667 2.83398 -28.5 6.50098 -35.5s9.83398 -10.5 18.501 -10.5c9.33301 0 16 3.5 20 10.5s6 18.833 6 35.5v118h203v-118
c-0.666992 -41.333 -8.33398 -74.333 -23.001 -99s-38.5 -42.5 -71.5 -53.5s-77.833 -16.5 -134.5 -16.5s-101.5 5.5 -134.5 16.5z" />
    <glyph glyph-name="Iogonek" unicode="&#x12e;" horiz-adv-x="405" 
d="M391 -316c-49.333 -55.333 -126.667 -82.999 -232 -82.999c-68.667 0 -120.5 12.167 -155.5 36.5s-52.5 60.166 -52.5 107.499c0 94.667 49.667 179.667 149 255h-74v1360h353v-1360h-2c-78 -72.667 -117 -139 -117 -199c0 -16 7.33301 -24 22 -24c12 0 27.333 10 46 30z
" />
    <glyph glyph-name="iogonek" unicode="&#x12f;" horiz-adv-x="398" 
d="M84 1090c-25.333 8 -43.334 23.167 -54.001 45.5s-16 56.166 -16 101.499c0 46 5.5 80.167 16.5 102.5s29.167 37.5 54.5 45.5s63.333 12 114 12s88.834 -4 114.501 -12s44 -23.167 55 -45.5s16.5 -56.5 16.5 -102.5c0 -45.333 -5.5 -79.166 -16.5 -101.499
s-29.333 -37.5 -55 -45.5s-64.167 -12 -115.5 -12c-50.667 0 -88.667 4 -114 12zM321.999 -194l63 -122.999c-49.333 -55.333 -127 -83 -233 -83c-68.667 0 -120.5 12.167 -155.5 36.5s-52.5 60.166 -52.5 107.499c0 94.667 50 180 150 256h-68v1055
c56.667 -8 115 -12 175 -12c65.333 0 122.333 4 171 12v-1055h-1c-78.667 -74 -117.667 -140.333 -117 -199c0 -16.667 7.33301 -25 22 -25c12 0 27.333 10 46 30z" />
    <glyph glyph-name="Idotaccent" unicode="&#x130;" horiz-adv-x="405" 
d="M26 1360h353v-1360h-353v1360zM122.5 1413.5c-19 7.66699 -32.668 20.499 -41.001 38.499s-12.5 44 -12.5 78c0 36.667 4.16699 64.834 12.5 84.501s21.833 33.334 40.5 41.001s45.334 11.5 80.001 11.5s61.5 -3.83301 80.5 -11.5s32.667 -21.334 41 -41.001
s12.5 -47.834 12.5 -84.501c0 -34 -4.16699 -60.167 -12.5 -78.5s-22 -31.166 -41 -38.499s-45.833 -11 -80.5 -11c-34 0 -60.5 3.83301 -79.5 11.5z" />
    <glyph glyph-name="dotlessi" unicode="&#x131;" horiz-adv-x="396" 
d="M26 1065h344v-1065h-344v1065z" />
    <glyph glyph-name="IJ" unicode="&#x132;" horiz-adv-x="809" 
d="M26 234h366c26.667 0 40 14.333 40 43v1083h351v-1104c0 -83.333 -21.833 -146.833 -65.5 -190.5s-104.167 -65.5 -181.5 -65.5h-510v234zM26 1360h353v-1077h-353v1077z" />
    <glyph glyph-name="ij" unicode="&#x133;" horiz-adv-x="796" 
d="M84 1090c-25.333 8 -43.334 23.167 -54.001 45.5s-16 56.166 -16 101.499c0 46 5.5 80.167 16.5 102.5s29.167 37.5 54.5 45.5s63.333 12 114 12s88.834 -4 114.501 -12s44 -23.167 55 -45.5s16.5 -56.5 16.5 -102.5c0 -45.333 -5.5 -79.166 -16.5 -101.499
s-29.333 -37.5 -55 -45.5s-64.167 -12 -115.5 -12c-50.667 0 -88.667 4 -114 12zM25.999 1055c56.667 -8 115 -12 175 -12c65.333 0 122.333 4 171 12v-1055h-346v1055zM481.999 1090c-25.333 8 -43.334 23.167 -54.001 45.5s-16 56.166 -16 101.499
c0 46 5.5 80.167 16.5 102.5s29.167 37.5 54.5 45.5s63.333 12 114 12s88.834 -4 114.501 -12s44 -23.167 55 -45.5s16.5 -56.5 16.5 -102.5c0 -45.333 -5.5 -79.166 -16.5 -101.499s-29.333 -37.5 -55 -45.5s-64.167 -12 -115.5 -12c-50.667 0 -88.667 4 -114 12z
M350.998 -157l27.9971 0.000976562c16 0 27.5 3.16699 34.5 9.5s10.5 18.166 10.5 35.499v1167c56.667 -8 114.334 -12 173.001 -12c55.333 0 97.5 2 126.5 6s44.5 6 46.5 6v-1152c0 -69.333 -11.667 -121.5 -35 -156.5s-57.166 -58.167 -101.499 -69.5
s-105.166 -17 -182.499 -17h-100v183z" />
    <glyph glyph-name="Jcircumflex" unicode="&#x134;" horiz-adv-x="528" 
d="M14 234h65c26.667 0 40 14.333 40 43l1 1083h351v-1104c0 -84.667 -20.833 -148.5 -62.5 -191.5s-103.167 -64.5 -184.5 -64.5h-210v234zM74 1404l74 294h305l75 -294l-192 -1l-35 176l-36 -176z" />
    <glyph glyph-name="jcircumflex" unicode="&#x135;" horiz-adv-x="396" 
d="M-47 -157l27.999 0.000976562c16 0 27.5 3.16699 34.5 9.5s10.5 18.166 10.5 35.499v1177h345v-1162c0 -68.667 -11.5 -120.5 -34.5 -155.5s-56.667 -58.167 -101 -69.5s-105.166 -17 -182.499 -17h-100v182zM-26.001 1109l74 294h305l75 -294l-192 -1l-35 176l-36 -176z
" />
    <glyph glyph-name="uni0136" unicode="&#x136;" horiz-adv-x="822" 
d="M26 1360h353l-7 -569h24l41 569h371l-97 -680l101 -680h-373l-43 558l-23 1l6 -559h-353v1360zM253 -45h306l-88 -341h-251z" />
    <glyph glyph-name="uni0137" unicode="&#x137;" horiz-adv-x="772" 
d="M26 1360h352l-21 -748l24 3l42 450h335l-80 -516l87 -549h-341l-44 426l-23 2l8 -428h-339v1360zM242 -45h306l-88 -341h-251z" />
    <glyph glyph-name="kgreenlandic" unicode="&#x138;" horiz-adv-x="772" 
d="M26 1065h344l-11 -449l22 3l42 446h335l-80 -512l87 -553h-341l-44 429l-23 3l8 -432h-339v1065z" />
    <glyph glyph-name="Lacute" unicode="&#x139;" horiz-adv-x="559" 
d="M26 1360h353v-1111h164v-249h-517v1360zM139 1701l283 -2l-104 -296h-242z" />
    <glyph glyph-name="lacute" unicode="&#x13a;" horiz-adv-x="398" 
d="M26 1360h346v-1360h-346v1360zM132 1701l283 -2l-104 -296h-242z" />
    <glyph glyph-name="uni013B" unicode="&#x13b;" horiz-adv-x="559" 
d="M26 1360h353v-1111h164v-249h-517v1360zM138 -45h306l-88 -341h-251z" />
    <glyph glyph-name="uni013C" unicode="&#x13c;" horiz-adv-x="398" 
d="M26 1360h346v-1360h-346v1360zM58 -45h306l-88 -341h-251z" />
    <glyph glyph-name="Lcaron" unicode="&#x13d;" horiz-adv-x="731" 
d="M26 1360h353v-1111h164v-249h-517v1360zM452 997.5c10 31.667 15 63.833 15 96.5h-46l-1 266h294v-234c0 -86 -20.667 -164.667 -62 -236h-244c19.333 40 34 75.833 44 107.5z" />
    <glyph glyph-name="lcaron" unicode="&#x13e;" horiz-adv-x="641" 
d="M26 1360h346v-1360h-346v1360zM399 947l2 413h244l-24 -414z" />
    <glyph glyph-name="Ldot" unicode="&#x13f;" horiz-adv-x="595" 
d="M27 1360l352 0.00195312v-476c-8.66699 0 -18.667 -5.5 -30 -16.5s-21 -27.5 -29 -49.5s-12 -48.333 -12 -79s4 -56.834 12 -78.501s17.5 -37.834 28.5 -48.501s21.167 -16 30.5 -16v-347h165v-249h-517v1360zM392 637.502c-16.667 6.33301 -28.833 17.333 -36.5 33
s-11.5 38.167 -11.5 67.5c0 44 8.66699 74 26 90s47.666 24 90.999 24c30 0 53.333 -3.33301 70 -10s28.834 -18.167 36.501 -34.5s11.5 -39.5 11.5 -69.5s-3.83301 -52.833 -11.5 -68.5s-19.667 -26.5 -36 -32.5s-39.833 -9 -70.5 -9c-29.333 0 -52.333 3.16699 -69 9.5z
" />
    <glyph glyph-name="ldot" unicode="&#x140;" horiz-adv-x="625" 
d="M26 1360h346v-1360h-346v1360zM443.5 542c-15.667 8 -27.0029 22 -34.0029 42s-10.5 48.333 -10.5 85c0 40.667 3.33301 71.5 10 92.5s17.834 35.667 33.501 44s37.834 12.5 66.501 12.5c29.333 0 51.833 -4.16699 67.5 -12.5s26.834 -23 33.501 -44s10 -51.833 10 -92.5
c0 -37.333 -3.33301 -65.833 -10 -85.5s-18 -33.5 -34 -41.5s-38.333 -12 -67 -12c-28 0 -49.833 4 -65.5 12z" />
    <glyph glyph-name="Lslash" unicode="&#x141;" horiz-adv-x="548" 
d="M543 249v-249h-517v609l-30 -10v137l30 10v614h353v-500l57 18v-137l-57 -18v-474h164z" />
    <glyph glyph-name="lslash" unicode="&#x142;" horiz-adv-x="421" 
d="M412 248v-248.001h-200c-36 0 -67.167 5 -93.5 15s-48.333 31.5 -66 64.5s-26.5 81.833 -26.5 146.5v383l-31 -10v137l31 10v614h346v-502l39 13v-137l-39 -13v-443c0 -9.33301 2.5 -16.666 7.5 -21.999s11.833 -8 20.5 -8h12z" />
    <glyph glyph-name="Nacute" unicode="&#x143;" horiz-adv-x="787" 
d="M26 1360h369l25 -180l67 -615l17 1l-47 794h304v-1360h-369l-25 176l-78 679l-17 1l55 -856h-301v1360zM333 1701l283 -2l-104 -296h-242z" />
    <glyph glyph-name="nacute" unicode="&#x144;" horiz-adv-x="737" 
d="M26 1065h281.997l36 -64c14.667 26.667 36.334 48 65.001 64s64 24 106 24c68 0 117.667 -23.167 149 -69.5s47 -117.5 47 -213.5v-806h-317v801c0 26 -2.16699 42.833 -6.5 50.5s-11.166 11.5 -20.499 11.5c-11.333 0 -19.166 -5.16699 -23.499 -15.5
s-6.5 -28.5 -6.5 -54.5v-793h-311v1065zM294.997 1421l283 -2l-104 -296h-242z" />
    <glyph glyph-name="uni0145" unicode="&#x145;" horiz-adv-x="787" 
d="M26 1360h369l25 -180l67 -615l17 1l-47 794h304v-1360h-369l-25 176l-78 679l-17 1l55 -856h-301v1360zM240 -45h306l-88 -341h-251z" />
    <glyph glyph-name="uni0146" unicode="&#x146;" horiz-adv-x="737" 
d="M26 1065h281.997l36 -64c14.667 26.667 36.334 48 65.001 64s64 24 106 24c68 0 117.667 -23.167 149 -69.5s47 -117.5 47 -213.5v-806h-317v801c0 26 -2.16699 42.833 -6.5 50.5s-11.166 11.5 -20.499 11.5c-11.333 0 -19.166 -5.16699 -23.499 -15.5
s-6.5 -28.5 -6.5 -54.5v-793h-311v1065zM212.997 -45h306l-88 -341h-251z" />
    <glyph glyph-name="Ncaron" unicode="&#x147;" horiz-adv-x="787" 
d="M26 1360h369l25 -180l67 -615l17 1l-47 794h304v-1360h-369l-25 176l-78 679l-17 1l55 -856h-301v1360zM168 1698l198 1l35 -176l36 176l197 -1l-86 -294h-294z" />
    <glyph glyph-name="ncaron" unicode="&#x148;" horiz-adv-x="737" 
d="M26 1065h281.997l36 -64c14.667 26.667 36.334 48 65.001 64s64 24 106 24c68 0 117.667 -23.167 149 -69.5s47 -117.5 47 -213.5v-806h-317v801c0 26 -2.16699 42.833 -6.5 50.5s-11.166 11.5 -20.499 11.5c-11.333 0 -19.166 -5.16699 -23.499 -15.5
s-6.5 -28.5 -6.5 -54.5v-793h-311v1065zM129.997 1418l198 1l35 -176l36 176l197 -1l-86 -294h-294z" />
    <glyph glyph-name="napostrophe" unicode="&#x149;" horiz-adv-x="1014" 
d="M17 1377h280l-46 -491l-234 -1v492zM302 1065h282.999l35 -64c14.667 26.667 36.334 48 65.001 64s64 24 106 24c68 0 117.833 -23.167 149.5 -69.5s47.5 -117.5 47.5 -213.5v-806h-318v801c0 26 -2 42.833 -6 50.5s-11 11.5 -21 11.5
c-10.667 0 -18.167 -5.16699 -22.5 -15.5s-6.5 -28.5 -6.5 -54.5v-793h-312v1065z" />
    <glyph glyph-name="Eng" unicode="&#x14a;" horiz-adv-x="787" 
d="M303 -108h65c14 0 24.5 3.66699 31.5 11s10.167 18 9.5 32l-1 81l-147 802h-8l90 -818h-317v1360h352l25 -156l123 -662h8l-90 818h317l-1 -1445c0 -83.333 -21.833 -146.833 -65.5 -190.5s-104.167 -65.5 -181.5 -65.5h-210v233z" />
    <glyph glyph-name="eng" unicode="&#x14b;" horiz-adv-x="737" 
d="M321 -98h27.9961c16.667 0 28.334 3.33301 35.001 10s10 18.667 10 36v853c0 26 -2.16699 42.833 -6.5 50.5s-11.166 11.5 -20.499 11.5c-11.333 0 -19.166 -5.16699 -23.499 -15.5s-6.5 -28.5 -6.5 -54.5v-793h-311v1065h282l36 -64c14.667 26.667 36.334 48 65.001 64
s64 24 106 24c68 0 117.667 -23.167 149 -69.5s47 -117.5 47 -213.5v-812c0 -68.667 -10.167 -122 -30.5 -160s-52.5 -64.833 -96.5 -80.5s-104.333 -23.5 -181 -23.5h-82v172z" />
    <glyph glyph-name="Omacron" unicode="&#x14c;" horiz-adv-x="824" 
d="M20 1028c0 116 33 204.168 99 264.501s163.667 90.5 293 90.5s227 -30.333 293 -91s99 -150.334 99 -269.001v-684c0 -119.333 -33 -209.5 -99 -270.5s-163.667 -91.5 -293 -91.5c-254 0 -384.667 120.667 -392 362v689zM412 266.001c18.667 0 28 9.66699 28 29v772
c0 19.333 -9.33301 29 -28 29s-28 -9.66699 -28 -29v-772c0 -19.333 9.33301 -29 28 -29zM208 1583h409v-157h-409v157z" />
    <glyph glyph-name="omacron" unicode="&#x14d;" horiz-adv-x="735" 
d="M109.5 49c-58.333 48 -87.5 119.333 -87.5 214v540c0 94.667 29.167 166 87.5 214s144.5 72 258.5 72c113.333 0 199.166 -24 257.499 -72s87.5 -119.333 87.5 -214v-540c0 -94.667 -29.167 -166 -87.5 -214s-144.166 -72 -257.499 -72c-114 0 -200.167 24 -258.5 72z
M388.5 217c5 6.66699 7.5 16 7.5 28v575c0 25.333 -9.33301 38 -28 38c-19.333 0 -29 -12.667 -29 -38v-575c0 -12 2.5 -21.333 7.5 -28s12.167 -10 21.5 -10c8.66699 0 15.5 3.33301 20.5 10zM163 1289h409v-157h-409v157z" />
    <glyph glyph-name="Obreve" unicode="&#x14e;" horiz-adv-x="824" 
d="M20 1028c0 116 33 204.168 99 264.501s163.667 90.5 293 90.5s227 -30.333 293 -91s99 -150.334 99 -269.001v-684c0 -119.333 -33 -209.5 -99 -270.5s-163.667 -91.5 -293 -91.5c-254 0 -384.667 120.667 -392 362v689zM412 266.001c18.667 0 28 9.66699 28 29v772
c0 19.333 -9.33301 29 -28 29s-28 -9.66699 -28 -29v-772c0 -19.333 9.33301 -29 28 -29zM280.5 1461.5c-33 11 -56.833 28.833 -71.5 53.5s-22.334 57.667 -23.001 99v118h204v-118c0.666992 -16.667 2.83398 -28.5 6.50098 -35.5s9.83398 -10.5 18.501 -10.5
c9.33301 0 16 3.5 20 10.5s6 18.833 6 35.5v118h203v-118c-0.666992 -41.333 -8.33398 -74.333 -23.001 -99s-38.5 -42.5 -71.5 -53.5s-77.833 -16.5 -134.5 -16.5s-101.5 5.5 -134.5 16.5z" />
    <glyph glyph-name="obreve" unicode="&#x14f;" horiz-adv-x="733" 
d="M109.5 49c-58.333 48 -87.5 119.333 -87.5 214v540c0 94.667 29.167 166 87.5 214s144.5 72 258.5 72c113.333 0 199.166 -24 257.499 -72s87.5 -119.333 87.5 -214v-540c0 -94.667 -29.167 -166 -87.5 -214s-144.166 -72 -257.499 -72c-114 0 -200.167 24 -258.5 72z
M388.5 217c5 6.66699 7.5 16 7.5 28v575c0 25.333 -9.33301 38 -28 38c-19.333 0 -29 -12.667 -29 -38v-575c0 -12 2.5 -21.333 7.5 -28s12.167 -10 21.5 -10c8.66699 0 15.5 3.33301 20.5 10zM235.5 1159.5c-33 11 -56.833 28.833 -71.5 53.5s-22.334 57.667 -23.001 99
v118h204v-118c0.666992 -16.667 2.83398 -28.5 6.50098 -35.5s9.83398 -10.5 18.501 -10.5c9.33301 0 16 3.5 20 10.5s6 18.833 6 35.5v118h203v-118c-0.666992 -41.333 -8.33398 -74.333 -23.001 -99s-38.5 -42.5 -71.5 -53.5s-77.833 -16.5 -134.5 -16.5
s-101.5 5.5 -134.5 16.5z" />
    <glyph glyph-name="Ohungarumlaut" unicode="&#x150;" horiz-adv-x="824" 
d="M20 1028c0 116 33 204.168 99 264.501s163.667 90.5 293 90.5s227 -30.333 293 -91s99 -150.334 99 -269.001v-684c0 -119.333 -33 -209.5 -99 -270.5s-163.667 -91.5 -293 -91.5c-254 0 -384.667 120.667 -392 362v689zM412 266.001c18.667 0 28 9.66699 28 29v772
c0 19.333 -9.33301 29 -28 29s-28 -9.66699 -28 -29v-772c0 -19.333 9.33301 -29 28 -29zM300 1723l188 -1l-104 -296h-147zM509 1723l188 -1l-104 -296h-147z" />
    <glyph glyph-name="ohungarumlaut" unicode="&#x151;" horiz-adv-x="735" 
d="M109.5 49c-58.333 48 -87.5 119.333 -87.5 214v540c0 94.667 29.167 166 87.5 214s144.5 72 258.5 72c113.333 0 199.166 -24 257.499 -72s87.5 -119.333 87.5 -214v-540c0 -94.667 -29.167 -166 -87.5 -214s-144.166 -72 -257.499 -72c-114 0 -200.167 24 -258.5 72z
M388.5 217c5 6.66699 7.5 16 7.5 28v575c0 25.333 -9.33301 38 -28 38c-19.333 0 -29 -12.667 -29 -38v-575c0 -12 2.5 -21.333 7.5 -28s12.167 -10 21.5 -10c8.66699 0 15.5 3.33301 20.5 10zM256 1429l188 -1l-104 -296h-147zM465 1429l188 -1l-104 -296h-147z" />
    <glyph glyph-name="OE" unicode="&#x152;" horiz-adv-x="1027" 
d="M119 69c-66 61.333 -99 152 -99 272v690c1.33301 116 35 203.667 101 263s163 89 291 89c22.667 0 56.667 -3.66699 102 -11c53.333 -8 92 -12 116 -12h383v-236h-206v-363h163v-173h-163v-359h210v-229h-388c-24 0 -62.667 -4 -116 -12
c-45.333 -7.33301 -79 -11 -101 -11c-129.333 0 -227 30.667 -293 92zM440 295v772c0 19.333 -9.66699 29 -29 29s-29 -9.66699 -29 -29v-772c0 -19.333 9.66699 -29 29 -29s29 9.66699 29 29z" />
    <glyph glyph-name="oe" unicode="&#x153;" horiz-adv-x="1105" 
d="M107 49c-58 48 -86.999 119.335 -86.999 214.002v540c0 94.667 29 166 87 214s144 72 258 72c83.333 0 147.666 -13.333 192.999 -40c48 26.667 108.667 40 182 40c114 0 200 -23.833 258 -71.5s87 -118.167 87 -211.5c0 -48.667 -1.33301 -116.334 -4 -203.001
c-2.66699 -74.667 -4 -124 -4 -148h-366v-285c0 -19.333 9.66699 -29 29 -29s29 9.66699 29 29v227h300v-219c-16 -66.667 -51.667 -116.834 -107 -150.501s-129.333 -50.5 -222 -50.5c-72.667 0 -133 13.333 -181 40c-45.333 -26.667 -110 -40 -194 -40
c-114 0 -200 24 -258 72zM769.001 587.002v278c0 19.333 -9.66699 29 -29 29s-29 -9.66699 -29 -29v-278h58zM385.501 217.002c5 6.66699 7.5 16 7.5 28v575c0 25.333 -9.33301 38 -28 38c-19.333 0 -29 -12.667 -29 -38v-575c0 -12 2.5 -21.333 7.5 -28
s12.167 -10 21.5 -10c8.66699 0 15.5 3.33301 20.5 10z" />
    <glyph glyph-name="Racute" unicode="&#x154;" horiz-adv-x="773" 
d="M419 0l-20 473.001h-38v-473h-335v1360h350c82 0 149.833 -7.16699 203.5 -21.5s95.5 -41.333 125.5 -81s45 -96.167 45 -169.5v-371c0 -78.667 -23 -137.334 -69 -176.001l72 -541h-334zM387 663.001c11.333 0 19.5 3.33301 24.5 10s7.5 18 7.5 34v371
c0 16 -2.5 27.167 -7.5 33.5s-13.833 9.5 -26.5 9.5h-23v-458h25zM319 1729l283 -2l-104 -296h-242z" />
    <glyph glyph-name="racute" unicode="&#x155;" horiz-adv-x="511" 
d="M26 1065h274l43 -56c20 46 51 69 93 69c25.333 0 48 -3.66699 68 -11v-229c-2 0.666992 -8.83301 1.5 -20.5 2.5s-20.5 1.5 -26.5 1.5c-56.667 0 -85 -30.333 -85 -91v-751h-346v1065zM197 1410l283 -2l-104 -296h-242z" />
    <glyph glyph-name="uni0156" unicode="&#x156;" horiz-adv-x="773" 
d="M419 0l-20 473.001h-38v-473h-335v1360h350c82 0 149.833 -7.16699 203.5 -21.5s95.5 -41.333 125.5 -81s45 -96.167 45 -169.5v-371c0 -78.667 -23 -137.334 -69 -176.001l72 -541h-334zM387 663.001c11.333 0 19.5 3.33301 24.5 10s7.5 18 7.5 34v371
c0 16 -2.5 27.167 -7.5 33.5s-13.833 9.5 -26.5 9.5h-23v-458h25zM236 -76.999h306l-88 -341h-251z" />
    <glyph glyph-name="uni0157" unicode="&#x157;" horiz-adv-x="511" 
d="M26 1065h274l43 -56c20 46 51 69 93 69c25.333 0 48 -3.66699 68 -11v-229c-2 0.666992 -8.83301 1.5 -20.5 2.5s-20.5 1.5 -26.5 1.5c-56.667 0 -85 -30.333 -85 -91v-751h-346v1065zM58 -45h306l-88 -341h-251z" />
    <glyph glyph-name="Rcaron" unicode="&#x158;" horiz-adv-x="773" 
d="M419 0l-20 473.001h-38v-473h-335v1360h350c82 0 149.833 -7.16699 203.5 -21.5s95.5 -41.333 125.5 -81s45 -96.167 45 -169.5v-371c0 -78.667 -23 -137.334 -69 -176.001l72 -541h-334zM387 663.001c11.333 0 19.5 3.33301 24.5 10s7.5 18 7.5 34v371
c0 16 -2.5 27.167 -7.5 33.5s-13.833 9.5 -26.5 9.5h-23v-458h25zM154 1726l198 1l35 -176l36 176l197 -1l-86 -294h-294z" />
    <glyph glyph-name="rcaron" unicode="&#x159;" horiz-adv-x="511" 
d="M26 1065h274l43 -56c20 46 51 69 93 69c25.333 0 48 -3.66699 68 -11v-229c-2 0.666992 -8.83301 1.5 -20.5 2.5s-20.5 1.5 -26.5 1.5c-56.667 0 -85 -30.333 -85 -91v-751h-346v1065zM32 1407l198 1l35 -176l36 176l197 -1l-86 -294h-294z" />
    <glyph glyph-name="Sacute" unicode="&#x15a;" horiz-adv-x="746" 
d="M24 233l-0.00683594 220.002h317v-223c0 -19.333 9.66699 -29 29 -29c9.33301 0 16.333 2.66699 21 8s7 12.333 7 21c0 61.333 -4.33301 109.333 -13 144c-9.33301 39.333 -22.333 74.666 -39 105.999s-34.5 58.666 -53.5 81.999s-44.167 52 -75.5 86
c-42 44 -75.667 83.333 -101 118s-46.666 78 -63.999 130s-26 114.333 -26 187v40c2.66699 91.333 31.834 157.5 87.501 198.5s137.834 61.5 246.501 61.5c116.667 0 203.834 -22.833 261.501 -68.5s86.834 -108.5 87.501 -188.5v-164h-305v168c0 8 -2.66699 14.667 -8 20
s-12.333 8 -21 8s-15.667 -2.66699 -21 -8s-8 -12.333 -8 -21c0 -36 5.66699 -70.333 17 -103c10 -32 24.667 -60.5 44 -85.5s47.333 -56.5 84 -94.5c48.667 -50 88.334 -96.333 119.001 -139s57 -100.167 79 -172.5s33 -161.166 33 -266.499v-52
c-2.66699 -78.667 -34 -138.334 -94 -179.001s-140 -61 -240 -61c-241.333 0 -362.666 85.667 -363.999 257zM304.993 1726l283 -2l-104 -296h-242z" />
    <glyph glyph-name="sacute" unicode="&#x15b;" horiz-adv-x="673" 
d="M96.5 35.5c-49 39.667 -73.833 90.167 -74.5 151.5v175l288 -8v-174c0 -8.66699 2.16699 -15.667 6.5 -21s11.5 -8 21.5 -8c18.667 0 28 10 28 30c0 25.333 -1.5 49 -4.5 71s-7.5 47.333 -13.5 76c-8 27.333 -21.333 50 -40 68s-46.334 40 -83.001 66
c-42 29.333 -76.5 57.333 -103.5 84s-50 63.334 -69 110.001s-28.5 105.667 -28.5 177v41c0 74 25.5 128.167 76.5 162.5s126.167 51.5 225.5 51.5c103.333 0 181.333 -18.167 234 -54.5s79 -88.833 79 -157.5v-148l-277 4v156c0 6 -2.5 11.667 -7.5 17s-11.833 8 -20.5 8
c-10.667 0 -18 -2.83301 -22 -8.5s-6 -11.834 -6 -18.501c0 -44.667 8 -80.334 24 -107.001c7.33301 -24.667 17.333 -45.667 30 -63s26.334 -31.5 41.001 -42.5s34 -23.833 58 -38.5c40.667 -24.667 73.667 -49.334 99 -74.001s47 -63.667 65 -117s27 -125.666 27 -216.999
v-53c0 -63.333 -27.5 -112.166 -82.5 -146.499s-127.833 -51.5 -218.5 -51.5c-119.333 0 -203.5 19.833 -252.5 59.5zM263 1429l283 -2l-104 -296h-242z" />
    <glyph glyph-name="Scircumflex" unicode="&#x15c;" horiz-adv-x="753" 
d="M24 233l-0.00683594 220.002h317v-223c0 -19.333 9.66699 -29 29 -29c9.33301 0 16.333 2.66699 21 8s7 12.333 7 21c0 61.333 -4.33301 109.333 -13 144c-9.33301 39.333 -22.333 74.666 -39 105.999s-34.5 58.666 -53.5 81.999s-44.167 52 -75.5 86
c-42 44 -75.667 83.333 -101 118s-46.666 78 -63.999 130s-26 114.333 -26 187v40c2.66699 91.333 31.834 157.5 87.501 198.5s137.834 61.5 246.501 61.5c116.667 0 203.834 -22.833 261.501 -68.5s86.834 -108.5 87.501 -188.5v-164h-305v168c0 8 -2.66699 14.667 -8 20
s-12.333 8 -21 8s-15.667 -2.66699 -21 -8s-8 -12.333 -8 -21c0 -36 5.66699 -70.333 17 -103c10 -32 24.667 -60.5 44 -85.5s47.333 -56.5 84 -94.5c48.667 -50 88.334 -96.333 119.001 -139s57 -100.167 79 -172.5s33 -161.166 33 -266.499v-52
c-2.66699 -78.667 -34 -138.334 -94 -179.001s-140 -61 -240 -61c-241.333 0 -362.666 85.667 -363.999 257zM160.993 1431l74 294h305l75 -294l-192 -1l-35 176l-36 -176z" />
    <glyph glyph-name="scircumflex" unicode="&#x15d;" horiz-adv-x="675" 
d="M98.5 35.5c-49 39.667 -73.833 90.167 -74.5 151.5v175l288 -8v-174c0 -8.66699 2.16699 -15.667 6.5 -21s11.5 -8 21.5 -8c18.667 0 28 10 28 30c0 25.333 -1.5 49 -4.5 71s-7.5 47.333 -13.5 76c-8 27.333 -21.333 50 -40 68s-46.334 40 -83.001 66
c-42 29.333 -76.5 57.333 -103.5 84s-50 63.334 -69 110.001s-28.5 105.667 -28.5 177v41c0 74 25.5 128.167 76.5 162.5s126.167 51.5 225.5 51.5c103.333 0 181.333 -18.167 234 -54.5s79 -88.833 79 -157.5v-148l-277 4v156c0 6 -2.5 11.667 -7.5 17s-11.833 8 -20.5 8
c-10.667 0 -18 -2.83301 -22 -8.5s-6 -11.834 -6 -18.501c0 -44.667 8 -80.334 24 -107.001c7.33301 -24.667 17.333 -45.667 30 -63s26.334 -31.5 41.001 -42.5s34 -23.833 58 -38.5c40.667 -24.667 73.667 -49.334 99 -74.001s47 -63.667 65 -117s27 -125.666 27 -216.999
v-53c0 -63.333 -27.5 -112.166 -82.5 -146.499s-127.833 -51.5 -218.5 -51.5c-119.333 0 -203.5 19.833 -252.5 59.5zM106 1142l74 294h305l75 -294l-192 -1l-35 176l-36 -176z" />
    <glyph glyph-name="Scedilla" unicode="&#x15e;" horiz-adv-x="746" 
d="M407 940.5c19.333 -25 47.3271 -56.499 83.9941 -94.499c48.667 -50 88.334 -96.333 119.001 -139s57 -100.167 79 -172.5s33 -161.166 33 -266.499v-52c-2 -68 -25.667 -121.833 -71 -161.5s-107 -64.167 -185 -73.5l-13 -101c76.667 -19.333 115 -69.666 115 -150.999
v-92c0 -58.667 -17.333 -102.667 -52 -132s-86 -44 -154 -44c-64.667 0 -114.667 9.33301 -150 28l28 145c13.333 -4.66699 30.333 -7 51 -7c29.333 0 44 8.66699 44 26l-1 92c0 18 -27.667 27.667 -83 29l26 209c-92 12.667 -157 41.167 -195 85.5
s-57.333 99.166 -58 164.499v220h317v-223c0 -19.333 9.66699 -29 29 -29c9.33301 0 16.333 2.66699 21 8s7 12.333 7 21c0 61.333 -4.33301 109.333 -13 144c-9.33301 39.333 -22.333 74.666 -39 105.999s-34.5 58.666 -53.5 81.999s-44.167 52 -75.5 86
c-42 44 -75.667 83.333 -101 118s-46.666 78 -63.999 130s-26 114.333 -26 187v40c2.66699 91.333 31.834 157.5 87.501 198.5s137.834 61.5 246.501 61.5c116.667 0 203.834 -22.833 261.501 -68.5s86.834 -108.5 87.501 -188.5v-164h-305v168c0 8 -2.66699 14.667 -8 20
s-12.333 8 -21 8s-15.667 -2.66699 -21 -8s-8 -12.333 -8 -21c0 -36 5.66699 -70.333 17 -103c10 -32 24.667 -60.5 44 -85.5z" />
    <glyph glyph-name="scedilla" unicode="&#x15f;" horiz-adv-x="673" 
d="M360 716c12.667 -17.333 26.334 -31.499 41.001 -42.499s34 -23.833 58 -38.5c40.667 -24.667 73.667 -49.334 99 -74.001s47 -63.667 65 -117s27 -125.666 27 -216.999v-53c0 -52.667 -19.333 -95.334 -58 -128.001s-91.667 -54 -159 -64l-13 -102
c76.667 -19.333 115 -69.666 115 -150.999v-92c0 -58.667 -17.333 -102.667 -52 -132s-86 -44 -154 -44c-64.667 0 -114.667 9.33301 -150 28l28 145c11.333 -4 28.333 -6 51 -6c29.333 0 44 8.33301 44 25v92c0 18 -28 27.667 -84 29l25 209
c-80 11.333 -136.667 35.5 -170 72.5s-50.333 80.833 -51 131.5v175l288 -8v-174c0 -8.66699 2.16699 -15.667 6.5 -21s11.5 -8 21.5 -8c18.667 0 28 10 28 30c0 25.333 -1.5 49 -4.5 71s-7.5 47.333 -13.5 76c-8 27.333 -21.333 50 -40 68s-46.334 40 -83.001 66
c-42 29.333 -76.5 57.333 -103.5 84s-50 63.334 -69 110.001s-28.5 105.667 -28.5 177v41c0 74 25.5 128.167 76.5 162.5s126.167 51.5 225.5 51.5c103.333 0 181.333 -18.167 234 -54.5s79 -88.833 79 -157.5v-148l-277 4v156c0 6 -2.5 11.667 -7.5 17s-11.833 8 -20.5 8
c-10.667 0 -18 -2.83301 -22 -8.5s-6 -11.834 -6 -18.501c0 -44.667 8 -80.334 24 -107.001c7.33301 -24.667 17.333 -45.667 30 -63z" />
    <glyph glyph-name="Scaron" unicode="&#x160;" horiz-adv-x="746" 
d="M24 233l-0.00683594 220.002h317v-223c0 -19.333 9.66699 -29 29 -29c9.33301 0 16.333 2.66699 21 8s7 12.333 7 21c0 61.333 -4.33301 109.333 -13 144c-9.33301 39.333 -22.333 74.666 -39 105.999s-34.5 58.666 -53.5 81.999s-44.167 52 -75.5 86
c-42 44 -75.667 83.333 -101 118s-46.666 78 -63.999 130s-26 114.333 -26 187v40c2.66699 91.333 31.834 157.5 87.501 198.5s137.834 61.5 246.501 61.5c116.667 0 203.834 -22.833 261.501 -68.5s86.834 -108.5 87.501 -188.5v-164h-305v168c0 8 -2.66699 14.667 -8 20
s-12.333 8 -21 8s-15.667 -2.66699 -21 -8s-8 -12.333 -8 -21c0 -36 5.66699 -70.333 17 -103c10 -32 24.667 -60.5 44 -85.5s47.333 -56.5 84 -94.5c48.667 -50 88.334 -96.333 119.001 -139s57 -100.167 79 -172.5s33 -161.166 33 -266.499v-52
c-2.66699 -78.667 -34 -138.334 -94 -179.001s-140 -61 -240 -61c-241.333 0 -362.666 85.667 -363.999 257zM139.993 1723l198 1l35 -176l36 176l197 -1l-86 -294h-294z" />
    <glyph glyph-name="scaron" unicode="&#x161;" horiz-adv-x="673" 
d="M96.5 35.5c-49 39.667 -73.833 90.167 -74.5 151.5v175l288 -8v-174c0 -8.66699 2.16699 -15.667 6.5 -21s11.5 -8 21.5 -8c18.667 0 28 10 28 30c0 25.333 -1.5 49 -4.5 71s-7.5 47.333 -13.5 76c-8 27.333 -21.333 50 -40 68s-46.334 40 -83.001 66
c-42 29.333 -76.5 57.333 -103.5 84s-50 63.334 -69 110.001s-28.5 105.667 -28.5 177v41c0 74 25.5 128.167 76.5 162.5s126.167 51.5 225.5 51.5c103.333 0 181.333 -18.167 234 -54.5s79 -88.833 79 -157.5v-148l-277 4v156c0 6 -2.5 11.667 -7.5 17s-11.833 8 -20.5 8
c-10.667 0 -18 -2.83301 -22 -8.5s-6 -11.834 -6 -18.501c0 -44.667 8 -80.334 24 -107.001c7.33301 -24.667 17.333 -45.667 30 -63s26.334 -31.5 41.001 -42.5s34 -23.833 58 -38.5c40.667 -24.667 73.667 -49.334 99 -74.001s47 -63.667 65 -117s27 -125.666 27 -216.999
v-53c0 -63.333 -27.5 -112.166 -82.5 -146.499s-127.833 -51.5 -218.5 -51.5c-119.333 0 -203.5 19.833 -252.5 59.5zM98 1426l198 1l35 -176l36 176l197 -1l-86 -294h-294z" />
    <glyph glyph-name="uni0162" unicode="&#x162;" horiz-adv-x="609" 
d="M396 0l-13 -96.001c76.667 -19.333 115 -69.666 115 -150.999v-92c0 -58.667 -17.333 -102.667 -52 -132s-86 -44 -154 -44c-64.667 0 -114.667 9.33301 -150 28l28 145c14 -4 31 -6 51 -6c29.333 0 44 8.33301 44 25v92c0 18 -28 27.667 -84 29l25 202h-77v1103h-121
v257h593v-257h-121v-1103h-84z" />
    <glyph glyph-name="uni0163" unicode="&#x163;" horiz-adv-x="504" 
d="M418 839l-0.00195312 -572.001c0 -11.333 2.83301 -20.5 8.5 -27.5s13.834 -10.5 24.501 -10.5h50l1 -229h-133l-12 -96c76 -19.333 114 -69.666 114 -150.999v-92c0 -117.333 -68.333 -176 -205 -176c-65.333 0 -115.666 9.33301 -150.999 28l29 145
c13.333 -4 30 -6 50 -6c29.333 0 44 8.33301 44 25v92c0 18 -28 27.667 -84 29l27 225c-34 17.333 -60 44 -78 80s-27 80.333 -27 133v603h-67v199l85 54l81 225l244 1v-253h83v-226h-84z" />
    <glyph glyph-name="Tcaron" unicode="&#x164;" horiz-adv-x="609" 
d="M129 1103h-121v257h593v-257h-121v-1103h-351v1103zM72 1698l198 1l35 -176l36 176l197 -1l-86 -294h-294z" />
    <glyph glyph-name="tcaron" unicode="&#x165;" horiz-adv-x="504" 
d="M131.5 60.5c-37 40.333 -55.501 98.833 -55.501 175.5v603h-67v199l85 54l81 225l244 1v-253h83v-226h-84v-572c0 -11.333 2.83301 -20.5 8.5 -27.5s13.834 -10.5 24.501 -10.5h50l1 -229h-210c-70 0 -123.5 20.167 -160.5 60.5zM41.999 1655l198 1l35 -176l36 176
l197 -1l-86 -294h-294z" />
    <glyph glyph-name="Tbar" unicode="&#x166;" horiz-adv-x="609" 
d="M480 1103v-432h53v-75h-53v-596h-351v596h-51v75h51v432h-121v257h593v-257h-121z" />
    <glyph glyph-name="tbar" unicode="&#x167;" horiz-adv-x="509" 
d="M220.5 17c-43 11.333 -77.833 34.167 -104.5 68.5s-40 84.5 -40 150.5v275h-58v107h58v247h-66v173l85 54l80 225l245 1v-253h83v-200h-84v-247h84v-107h-84v-275c0 -25.333 10.667 -38 32 -38h51v-198h-124c-62 0 -114.5 5.66699 -157.5 17z" />
    <glyph glyph-name="Utilde" unicode="&#x168;" horiz-adv-x="795" 
d="M118.5 40c-63 44.667 -94.5 110.999 -94.5 198.999v1121h347v-1080c0 -15.333 2.33301 -27.166 7 -35.499s11.667 -12.5 21 -12.5c18.667 0 28 16 28 48v1080h344v-1121c0 -88 -31.333 -154.333 -94 -199s-155.667 -67 -279 -67s-216.5 22.333 -279.5 67zM170 1506
c0 58.667 13 101.833 39 129.5s66.333 41.5 121 41.5c35.333 0 62.333 -4.83301 81 -14.5s30.334 -24.834 35.001 -45.501l1 -57c4 -18 11.667 -27 23 -27c10.667 0 16 11 16 33v101l143 -1v-102c0 -57.333 -13 -99.666 -39 -126.999s-66.333 -41 -121 -41
c-34 0 -60.333 4.83301 -79 14.5s-30.667 25.167 -36 46.5l-2 57c-4.66699 17.333 -12.334 26 -23.001 26s-16 -11 -16 -33v-100h-143v99z" />
    <glyph glyph-name="utilde" unicode="&#x169;" horiz-adv-x="725" 
d="M109 45c-57.333 45.333 -86 112.333 -86 201v819h311v-820c0 -12 2.5 -21.333 7.5 -28s12.167 -10 21.5 -10s16.5 3.33301 21.5 10s7.5 16 7.5 28v820h310v-825c0 -86.667 -28.5 -152.167 -85.5 -196.5s-141.167 -66.5 -252.5 -66.5c-112.667 0 -197.667 22.667 -255 68z
M131 1210c0 58.667 13 101.833 39 129.5s66.333 41.5 121 41.5c35.333 0 62.333 -4.83301 81 -14.5s30.334 -24.834 35.001 -45.501l1 -57c4 -18 11.667 -27 23 -27c10.667 0 16 11 16 33v101l143 -1v-102c0 -57.333 -13 -99.666 -39 -126.999s-66.333 -41 -121 -41
c-34 0 -60.333 4.83301 -79 14.5s-30.667 25.167 -36 46.5l-2 57c-4.66699 17.333 -12.334 26 -23.001 26s-16 -11 -16 -33v-100h-143v99z" />
    <glyph glyph-name="Umacron" unicode="&#x16a;" horiz-adv-x="795" 
d="M118.5 40c-63 44.667 -94.5 110.999 -94.5 198.999v1121h347v-1080c0 -15.333 2.33301 -27.166 7 -35.499s11.667 -12.5 21 -12.5c18.667 0 28 16 28 48v1080h344v-1121c0 -88 -31.333 -154.333 -94 -199s-155.667 -67 -279 -67s-216.5 22.333 -279.5 67zM196 1560h409
v-157h-409v157z" />
    <glyph glyph-name="umacron" unicode="&#x16b;" horiz-adv-x="725" 
d="M109 45c-57.333 45.333 -86 112.333 -86 201v819h311v-820c0 -12 2.5 -21.333 7.5 -28s12.167 -10 21.5 -10s16.5 3.33301 21.5 10s7.5 16 7.5 28v820h310v-825c0 -86.667 -28.5 -152.167 -85.5 -196.5s-141.167 -66.5 -252.5 -66.5c-112.667 0 -197.667 22.667 -255 68z
M157 1265h409v-157h-409v157z" />
    <glyph glyph-name="Ubreve" unicode="&#x16c;" horiz-adv-x="795" 
d="M118.5 40c-63 44.667 -94.5 110.999 -94.5 198.999v1121h347v-1080c0 -15.333 2.33301 -27.166 7 -35.499s11.667 -12.5 21 -12.5c18.667 0 28 16 28 48v1080h344v-1121c0 -88 -31.333 -154.333 -94 -199s-155.667 -67 -279 -67s-216.5 22.333 -279.5 67zM265.5 1418.5
c-33 11 -56.833 28.833 -71.5 53.5s-22.334 57.667 -23.001 99v118h204v-118c0.666992 -16.667 2.83398 -28.5 6.50098 -35.5s9.83398 -10.5 18.501 -10.5c9.33301 0 16 3.5 20 10.5s6 18.833 6 35.5v118h203v-118c-0.666992 -41.333 -8.33398 -74.333 -23.001 -99
s-38.5 -42.5 -71.5 -53.5s-77.833 -16.5 -134.5 -16.5s-101.5 5.5 -134.5 16.5z" />
    <glyph glyph-name="ubreve" unicode="&#x16d;" horiz-adv-x="725" 
d="M109 45c-57.333 45.333 -86 112.333 -86 201v819h311v-820c0 -12 2.5 -21.333 7.5 -28s12.167 -10 21.5 -10s16.5 3.33301 21.5 10s7.5 16 7.5 28v820h310v-825c0 -86.667 -28.5 -152.167 -85.5 -196.5s-141.167 -66.5 -252.5 -66.5c-112.667 0 -197.667 22.667 -255 68z
M230.5 1118.5c-33 11 -56.833 28.833 -71.5 53.5s-22.334 57.667 -23.001 99v118h204v-118c0.666992 -16.667 2.83398 -28.5 6.50098 -35.5s9.83398 -10.5 18.501 -10.5c9.33301 0 16 3.5 20 10.5s6 18.833 6 35.5v118h203v-118
c-0.666992 -41.333 -8.33398 -74.333 -23.001 -99s-38.5 -42.5 -71.5 -53.5s-77.833 -16.5 -134.5 -16.5s-101.5 5.5 -134.5 16.5z" />
    <glyph glyph-name="Uring" unicode="&#x16e;" horiz-adv-x="795" 
d="M118.5 40c-63 44.667 -94.5 110.999 -94.5 198.999v1121h347v-1080c0 -15.333 2.33301 -27.166 7 -35.499s11.667 -12.5 21 -12.5c18.667 0 28 16 28 48v1080h344v-1121c0 -88 -31.333 -154.333 -94 -199s-155.667 -67 -279 -67s-216.5 22.333 -279.5 67zM222 1537
v55.999c0 44 15 77.333 45 100s74.333 34.334 133 35.001c58.667 0 103 -11.333 133 -34s45 -56 45 -100v-57c0 -44 -15 -77.167 -45 -99.5s-74.333 -33.5 -133 -33.5c-118.667 0 -178 44.333 -178 133zM436 1538v56.001c0 18 -12.333 27 -37 27
c-12 0 -21.167 -2.33301 -27.5 -7s-9.5 -11.334 -9.5 -20.001v-56c0 -19.333 12.333 -29 37 -29s37 9.66699 37 29z" />
    <glyph glyph-name="uring" unicode="&#x16f;" horiz-adv-x="725" 
d="M109 45c-57.333 45.333 -86 112.333 -86 201v819h311v-820c0 -12 2.5 -21.333 7.5 -28s12.167 -10 21.5 -10s16.5 3.33301 21.5 10s7.5 16 7.5 28v820h310v-825c0 -86.667 -28.5 -152.167 -85.5 -196.5s-141.167 -66.5 -252.5 -66.5c-112.667 0 -197.667 22.667 -255 68z
M184 1242v55.999c0 44 15 77.333 45 100s74.333 34.334 133 35.001c58.667 0 103 -11.333 133 -34s45 -56 45 -100v-57c0 -44 -15 -77.167 -45 -99.5s-74.333 -33.5 -133 -33.5c-118.667 0 -178 44.333 -178 133zM398 1243v56.001c0 18 -12.333 27 -37 27
c-12 0 -21.167 -2.33301 -27.5 -7s-9.5 -11.334 -9.5 -20.001v-56c0 -19.333 12.333 -29 37 -29s37 9.66699 37 29z" />
    <glyph glyph-name="Uhungarumlaut" unicode="&#x170;" horiz-adv-x="795" 
d="M118.5 40c-63 44.667 -94.5 110.999 -94.5 198.999v1121h347v-1080c0 -15.333 2.33301 -27.166 7 -35.499s11.667 -12.5 21 -12.5c18.667 0 28 16 28 48v1080h344v-1121c0 -88 -31.333 -154.333 -94 -199s-155.667 -67 -279 -67s-216.5 22.333 -279.5 67zM288 1700
l188 -1l-104 -296h-147zM497 1700l188 -1l-104 -296h-147z" />
    <glyph glyph-name="uhungarumlaut" unicode="&#x171;" horiz-adv-x="725" 
d="M109 45c-57.333 45.333 -86 112.333 -86 201v819h311v-820c0 -12 2.5 -21.333 7.5 -28s12.167 -10 21.5 -10s16.5 3.33301 21.5 10s7.5 16 7.5 28v820h310v-825c0 -86.667 -28.5 -152.167 -85.5 -196.5s-141.167 -66.5 -252.5 -66.5c-112.667 0 -197.667 22.667 -255 68z
M250 1405l188 -1l-104 -296h-147zM459 1405l188 -1l-104 -296h-147z" />
    <glyph glyph-name="Uogonek" unicode="&#x172;" horiz-adv-x="795" 
d="M771 1360l-0.000976562 -1121c0 -113.333 -51.667 -190.666 -155 -231.999c-72.667 -68.667 -109 -132.334 -109 -191.001c0 -16 7.33301 -24 22 -24c12 0 27.333 10 46 30l63 -124c-49.333 -54.667 -126.666 -82 -231.999 -82c-68.667 0 -120.5 12 -155.5 36
s-52.5 59.667 -52.5 107c0 79.333 35 152.333 105 219c-92 10.667 -161.5 37.834 -208.5 81.501s-70.5 103.5 -70.5 179.5v1121h347v-1080c0 -15.333 2.33301 -27.166 7 -35.499s11.667 -12.5 21 -12.5c18.667 0 28 16 28 48v1080h344z" />
    <glyph glyph-name="uogonek" unicode="&#x173;" horiz-adv-x="725" 
d="M702 1065v-824.999c0 -115.333 -49.667 -193 -149 -233c-75.333 -70 -113 -135 -113 -195c0 -16 7.66699 -24 23 -24c10.667 0 26 10 46 30l63 -123c-49.333 -55.333 -127 -83 -233 -83c-68.667 0 -120.5 12.167 -155.5 36.5s-52.5 60.166 -52.5 107.499
c0 84 39.667 160.667 119 230c-151.333 28 -227 114.667 -227 260v819h311v-820c0 -12 2.5 -21.333 7.5 -28s12.167 -10 21.5 -10s16.5 3.33301 21.5 10s7.5 16 7.5 28v820h310z" />
    <glyph glyph-name="Wcircumflex" unicode="&#x174;" horiz-adv-x="1189" 
d="M355 1360l32 -940h12l33 940h326l32 -940h13l31 940h353l-181 -1360h-379l-27 801h-11l-26 -801h-379l-181 1360h352zM368 1404l74 294h305l75 -294l-192 -1l-35 176l-36 -176z" />
    <glyph glyph-name="wcircumflex" unicode="&#x175;" horiz-adv-x="1065" 
d="M9 1065h314l20 -563l4 -184h17l3 184l21 563h289l21 -563l2 -184h18l3 184l20 563h315l-155 -1065h-339l-21 729h-18l-20 -729h-340zM305 1109l74 294h305l75 -294l-192 -1l-35 176l-36 -176z" />
    <glyph glyph-name="Ycircumflex" unicode="&#x176;" horiz-adv-x="784" 
d="M216 425l-216 935h357l28 -638h14l22 638h362l-214 -934v-426h-353v425zM165 1404l74 294h305l75 -294l-192 -1l-35 176l-36 -176z" />
    <glyph glyph-name="ycircumflex" unicode="&#x177;" horiz-adv-x="729" 
d="M124 -104l102.999 -0.00195312c13.333 0 22.333 5.66699 27 17s7.33398 25.333 8.00098 42l4 103h-119l-138 1007h323l20 -573l4 -178h17l3 178l21 573h323l-117 -1151c-14 -63.333 -33.667 -112.166 -59 -146.499s-54.5 -57.666 -87.5 -69.999s-71.5 -18.5 -115.5 -18.5
h-217v217zM137.999 1109l74 294h305l75 -294l-192 -1l-35 176l-36 -176z" />
    <glyph glyph-name="Ydieresis" unicode="&#x178;" horiz-adv-x="784" 
d="M216 425l-216 935h357l28 -638h14l22 638h362l-214 -934v-426h-353v425zM209 1413.5c-14 7 -24.168 19.833 -30.501 38.5s-9.5 46.667 -9.5 84c0 40 3.16699 70 9.5 90s16.333 33.5 30 40.5s33.834 10.5 60.501 10.5c27.333 0 48 -3.5 62 -10.5s24.167 -20.5 30.5 -40.5
s9.5 -50 9.5 -90c0 -37.333 -3.16699 -65.333 -9.5 -84s-16.5 -31.5 -30.5 -38.5s-34.333 -10.5 -61 -10.5s-47 3.5 -61 10.5zM448.999 1413.5c-14 7 -24.167 19.833 -30.5 38.5s-9.5 46.667 -9.5 84c0 40 3.16699 70 9.5 90s16.333 33.5 30 40.5s33.834 10.5 60.501 10.5
c27.333 0 48.166 -3.5 62.499 -10.5s24.666 -20.5 30.999 -40.5s9.5 -50 9.5 -90c0 -37.333 -3.16699 -65.333 -9.5 -84s-16.666 -31.5 -30.999 -38.5s-34.833 -10.5 -61.5 -10.5s-47 3.5 -61 10.5z" />
    <glyph glyph-name="Zacute" unicode="&#x179;" horiz-adv-x="665" 
d="M14 205l219 906h-208v249h619l-1 -202l-217 -908h223v-250h-635v205zM273 1701l283 -2l-104 -296h-242z" />
    <glyph glyph-name="zacute" unicode="&#x17a;" horiz-adv-x="637" 
d="M14 143l175 676h-165v246h594l-1 -140l-173 -678h179v-247h-609v143zM249 1406l283 -2l-104 -296h-242z" />
    <glyph glyph-name="Zdotaccent" unicode="&#x17b;" horiz-adv-x="665" 
d="M14 205l219 906h-208v249h619l-1 -202l-217 -908h223v-250h-635v205zM261.5 1413.5c-19 7.66699 -32.668 20.499 -41.001 38.499s-12.5 44 -12.5 78c0 36.667 4.16699 64.834 12.5 84.501s21.833 33.334 40.5 41.001s45.334 11.5 80.001 11.5s61.5 -3.83301 80.5 -11.5
s32.667 -21.334 41 -41.001s12.5 -47.834 12.5 -84.501c0 -34 -4.16699 -60.167 -12.5 -78.5s-22 -31.166 -41 -38.499s-45.833 -11 -80.5 -11c-34 0 -60.5 3.83301 -79.5 11.5z" />
    <glyph glyph-name="zdotaccent" unicode="&#x17c;" horiz-adv-x="637" 
d="M14 143l175 676h-165v246h594l-1 -140l-173 -678h179v-247h-609v143zM238.5 1118.5c-19 7.66699 -32.668 20.499 -41.001 38.499s-12.5 44 -12.5 78c0 36.667 4.16699 64.834 12.5 84.501s21.833 33.334 40.5 41.001s45.334 11.5 80.001 11.5s61.5 -3.83301 80.5 -11.5
s32.667 -21.334 41 -41.001s12.5 -47.834 12.5 -84.501c0 -34 -4.16699 -60.167 -12.5 -78.5s-22 -31.166 -41 -38.499s-45.833 -11 -80.5 -11c-34 0 -60.5 3.83301 -79.5 11.5z" />
    <glyph glyph-name="Zcaron" unicode="&#x17d;" horiz-adv-x="665" 
d="M14 205l219 906h-208v249h619l-1 -202l-217 -908h223v-250h-635v205zM107 1698l198 1l35 -176l36 176l197 -1l-86 -294h-294z" />
    <glyph glyph-name="zcaron" unicode="&#x17e;" horiz-adv-x="637" 
d="M14 143l175 676h-165v246h594l-1 -140l-173 -678h179v-247h-609v143zM84 1403l198 1l35 -176l36 176l197 -1l-86 -294h-294z" />
    <glyph glyph-name="longs" unicode="&#x17f;" horiz-adv-x="547" 
d="M78 839h-78v226h78v140c0 74 18 128.833 54 164.5s98.333 53.5 187 53.5c40 0 76.5 -1.66699 109.5 -5s59.833 -7 80.5 -11s31 -6.33301 31 -7v-180c-16 0.666992 -44.667 1 -86 1c-11.333 0 -19.5 -2.66699 -24.5 -8s-7.5 -14 -7.5 -26v-1187h-344v839z" />
    <glyph glyph-name="florin" unicode="&#x192;" horiz-adv-x="614" 
d="M-1 191l69.998 0.00195312c13.333 0 23.5 3.16699 30.5 9.5s11.167 17.833 12.5 34.5l7 604h-54v223h77l3 143c6.66699 73.333 29.834 128 69.501 164s103.834 54 192.501 54c40 0 74.833 -1.66699 104.5 -5s52.834 -7 69.501 -11s25 -6.33301 25 -7v-182l-88 1
c-9.33301 0 -16.666 -2.33301 -21.999 -7s-8 -11.334 -8 -20.001l-1 -130h119v-223h-142l-12 -634c-6.66699 -73.333 -29.834 -128 -69.501 -164s-103.834 -54 -192.501 -54c-38 0 -71 1.5 -99 4.5s-49.333 6.16699 -64 9.5s-23.667 5.66602 -27 6.99902z" />
    <glyph glyph-name="Ohorn" unicode="&#x1a0;" horiz-adv-x="880" 
d="M883 1420l-0.00195312 -90.001c0 -30 -9.16699 -54.167 -27.5 -72.5s-46.166 -32.166 -83.499 -41.499l-8 -2c26.667 -51.333 40 -115 40 -191v-684c0 -119.333 -33 -209.5 -99 -270.5s-163.667 -91.5 -293 -91.5c-254 0 -384.667 120.667 -392 362v689
c0 116 33 204.167 99 264.5s163.667 90.5 293 90.5c108.667 0 195.334 -21.667 260.001 -65c5.33301 4 8 9 8 15v87h203zM439.998 1067c0 19.333 -9.33301 29 -28 29s-28 -9.66699 -28 -29v-772c0 -19.333 9.33301 -29 28 -29s28 9.66699 28 29v772z" />
    <glyph glyph-name="ohorn" unicode="&#x1a1;" horiz-adv-x="735" 
d="M826 1106l-0.000976562 -90.001c0 -30 -9 -54.167 -27 -72.5s-46 -32.166 -84 -41.499l-14 -3c8 -28.667 12 -60.667 12 -96v-540c0 -94.667 -29.167 -166 -87.5 -214s-144.166 -72 -257.499 -72c-114 0 -200.167 24 -258.5 72s-87.5 119.333 -87.5 214v540
c0 94.667 29.167 166 87.5 214s144.5 72 258.5 72c111.333 0 196.333 -23.333 255 -70l1 87h202zM395.999 819.999c0 25.333 -9.33301 38 -28 38c-19.333 0 -29 -12.667 -29 -38v-575c0 -12 2.5 -21.333 7.5 -28s12.167 -10 21.5 -10c8.66699 0 15.5 3.33301 20.5 10
s7.5 16 7.5 28v575z" />
    <glyph glyph-name="Uhorn" unicode="&#x1af;" horiz-adv-x="895" 
d="M1003 1396v-90.001c0 -30 -9 -54 -27 -72s-46 -31.667 -84 -41c-24 -6 -64.333 -9.66699 -121 -11v-943c0 -88 -31.333 -154.333 -94 -199s-155.667 -67 -279 -67s-216.5 22.333 -279.5 67s-94.5 111 -94.5 199v1121h347v-1080c0 -15.333 2.33301 -27.166 7 -35.499
s11.667 -12.5 21 -12.5c18.667 0 28 16 28 48v1080h344v-74c19.333 3.33301 29 11 29 23v87h203z" />
    <glyph glyph-name="uhorn" unicode="&#x1b0;" horiz-adv-x="725" 
d="M937 1101l-0.000976562 -90.001c0 -30 -9.16699 -54.167 -27.5 -72.5s-46.166 -32.166 -83.499 -41.499c-20 -5.33301 -61.333 -9 -124 -11v-646c0 -86.667 -28.5 -152.167 -85.5 -196.5s-141.167 -66.5 -252.5 -66.5c-112.667 0 -197.667 22.667 -255 68
s-86 112.333 -86 201v819h311v-820c0 -12 2.5 -21.333 7.5 -28s12.167 -10 21.5 -10s16.5 3.33301 21.5 10s7.5 16 7.5 28v820h310v-75c21.333 4 32 12 32 24v87h203z" />
    <glyph glyph-name="uni01CD" unicode="&#x1cd;" horiz-adv-x="786" 
d="M426 173h-65l-6 -173h-352l201 1360h378l202 -1360h-352zM419 364l-21 576h-12l-19 -576h52zM157 1698l198 1l35 -176l36 176l197 -1l-86 -294h-294z" />
    <glyph glyph-name="uni01CE" unicode="&#x1ce;" horiz-adv-x="725" 
d="M116.5 1c-29.667 16 -53.1689 39.001 -70.502 69.001s-26 64.667 -26 104v277c0.666992 54 12.334 94.167 35.001 120.5s55.834 43.5 99.501 51.5s106.5 12 188.5 12c2 0 5.66699 -0.166992 11 -0.5s18 -0.5 38 -0.5v216c0 15.333 -2.16699 26.666 -6.5 33.999
s-12.166 11 -23.499 11c-18.667 0 -28 -12.667 -28 -38v-187l-285 -1v187c0.666992 54.667 12.667 99 36 133s60.333 59.167 111 75.5s117.667 24.5 201 24.5c89.333 0 162 -18 218 -54s84 -91.667 84 -167v-868h-290l-33 77c-12.667 -32.667 -32.5 -57.5 -59.5 -74.5
s-60.5 -25.5 -100.5 -25.5c-36.667 0 -69.834 8 -99.501 24zM381.998 190.501c6 7 9.33398 17.165 10.001 30.498v305h-19c-14.667 -0.666992 -24.834 -4.66699 -30.501 -12s-8.5 -17.666 -8.5 -30.999v-275c0 -17.333 8.33301 -26.666 25 -27.999c9.33301 0 17 3.5 23 10.5
zM134.999 1427l198 1l35 -176l36 176l197 -1l-86 -294h-294z" />
    <glyph glyph-name="uni01CF" unicode="&#x1cf;" horiz-adv-x="405" 
d="M26 1360h353v-1360h-353v1360zM-32 1698l198 1l35 -176l36 176l197 -1l-86 -294h-294z" />
    <glyph glyph-name="uni01D0" unicode="&#x1d0;" horiz-adv-x="396" 
d="M26 1065h344v-1065h-344v1065zM-34 1403l198 1l35 -176l36 176l197 -1l-86 -294h-294z" />
    <glyph glyph-name="uni01D1" unicode="&#x1d1;" horiz-adv-x="824" 
d="M20 1028c0 116 33 204.168 99 264.501s163.667 90.5 293 90.5s227 -30.333 293 -91s99 -150.334 99 -269.001v-684c0 -119.333 -33 -209.5 -99 -270.5s-163.667 -91.5 -293 -91.5c-254 0 -384.667 120.667 -392 362v689zM412 266.001c18.667 0 28 9.66699 28 29v772
c0 19.333 -9.33301 29 -28 29s-28 -9.66699 -28 -29v-772c0 -19.333 9.33301 -29 28 -29zM178 1721l198 1l35 -176l36 176l197 -1l-86 -294h-294z" />
    <glyph glyph-name="uni01D2" unicode="&#x1d2;" horiz-adv-x="735" 
d="M109.5 49c-58.333 48 -87.5 119.333 -87.5 214v540c0 94.667 29.167 166 87.5 214s144.5 72 258.5 72c113.333 0 199.166 -24 257.499 -72s87.5 -119.333 87.5 -214v-540c0 -94.667 -29.167 -166 -87.5 -214s-144.166 -72 -257.499 -72c-114 0 -200.167 24 -258.5 72z
M388.5 217c5 6.66699 7.5 16 7.5 28v575c0 25.333 -9.33301 38 -28 38c-19.333 0 -29 -12.667 -29 -38v-575c0 -12 2.5 -21.333 7.5 -28s12.167 -10 21.5 -10c8.66699 0 15.5 3.33301 20.5 10zM134 1427l198 1l35 -176l36 176l197 -1l-86 -294h-294z" />
    <glyph glyph-name="uni01D3" unicode="&#x1d3;" horiz-adv-x="795" 
d="M118.5 40c-63 44.667 -94.5 110.999 -94.5 198.999v1121h347v-1080c0 -15.333 2.33301 -27.166 7 -35.499s11.667 -12.5 21 -12.5c18.667 0 28 16 28 48v1080h344v-1121c0 -88 -31.333 -154.333 -94 -199s-155.667 -67 -279 -67s-216.5 22.333 -279.5 67zM166 1698l198 1
l35 -176l36 176l197 -1l-86 -294h-294z" />
    <glyph glyph-name="uni01D4" unicode="&#x1d4;" horiz-adv-x="725" 
d="M109 45c-57.333 45.333 -86 112.333 -86 201v819h311v-820c0 -12 2.5 -21.333 7.5 -28s12.167 -10 21.5 -10s16.5 3.33301 21.5 10s7.5 16 7.5 28v820h310v-825c0 -86.667 -28.5 -152.167 -85.5 -196.5s-141.167 -66.5 -252.5 -66.5c-112.667 0 -197.667 22.667 -255 68z
M128 1403l198 1l35 -176l36 176l197 -1l-86 -294h-294z" />
    <glyph glyph-name="uni01D5" unicode="&#x1d5;" horiz-adv-x="795" 
d="M118.5 40c-63 44.667 -94.5 110.999 -94.5 198.999v1121h347v-1080c0 -15.333 2.33301 -27.166 7 -35.499s11.667 -12.5 21 -12.5c18.667 0 28 16 28 48v1080h344v-1121c0 -88 -31.333 -154.333 -94 -199s-155.667 -67 -279 -67s-216.5 22.333 -279.5 67zM218 1413.5
c-14 7 -24.168 19.833 -30.501 38.5s-9.5 46.667 -9.5 84c0 40 3.16699 70 9.5 90s16.333 33.5 30 40.5s33.834 10.5 60.501 10.5c27.333 0 48 -3.5 62 -10.5s24.167 -20.5 30.5 -40.5s9.5 -50 9.5 -90c0 -37.333 -3.16699 -65.333 -9.5 -84s-16.5 -31.5 -30.5 -38.5
s-34.333 -10.5 -61 -10.5s-47 3.5 -61 10.5zM457.999 1413.5c-14 7 -24.167 19.833 -30.5 38.5s-9.5 46.667 -9.5 84c0 40 3.16699 70 9.5 90s16.333 33.5 30 40.5s33.834 10.5 60.501 10.5c27.333 0 48.166 -3.5 62.499 -10.5s24.666 -20.5 30.999 -40.5s9.5 -50 9.5 -90
c0 -37.333 -3.16699 -65.333 -9.5 -84s-16.666 -31.5 -30.999 -38.5s-34.833 -10.5 -61.5 -10.5s-47 3.5 -61 10.5zM193.999 1878h409v-157h-409v157z" />
    <glyph glyph-name="uni01D6" unicode="&#x1d6;" horiz-adv-x="725" 
d="M109 45c-57.333 45.333 -86 112.333 -86 201v819h311v-820c0 -12 2.5 -21.333 7.5 -28s12.167 -10 21.5 -10s16.5 3.33301 21.5 10s7.5 16 7.5 28v820h310v-825c0 -86.667 -28.5 -152.167 -85.5 -196.5s-141.167 -66.5 -252.5 -66.5c-112.667 0 -197.667 22.667 -255 68z
M179 1118.5c-14 7 -24.168 19.833 -30.501 38.5s-9.5 46.667 -9.5 84c0 40 3.16699 70 9.5 90s16.333 33.5 30 40.5s33.834 10.5 60.501 10.5c27.333 0 48 -3.5 62 -10.5s24.167 -20.5 30.5 -40.5s9.5 -50 9.5 -90c0 -37.333 -3.16699 -65.333 -9.5 -84
s-16.5 -31.5 -30.5 -38.5s-34.333 -10.5 -61 -10.5s-47 3.5 -61 10.5zM418.999 1118.5c-14 7 -24.167 19.833 -30.5 38.5s-9.5 46.667 -9.5 84c0 40 3.16699 70 9.5 90s16.333 33.5 30 40.5s33.834 10.5 60.501 10.5c27.333 0 48.166 -3.5 62.499 -10.5
s24.666 -20.5 30.999 -40.5s9.5 -50 9.5 -90c0 -37.333 -3.16699 -65.333 -9.5 -84s-16.666 -31.5 -30.999 -38.5s-34.833 -10.5 -61.5 -10.5s-47 3.5 -61 10.5zM155.999 1582h409v-157h-409v157z" />
    <glyph glyph-name="uni01D7" unicode="&#x1d7;" horiz-adv-x="795" 
d="M118.5 40c-63 44.667 -94.5 110.999 -94.5 198.999v1121h347v-1080c0 -15.333 2.33301 -27.166 7 -35.499s11.667 -12.5 21 -12.5c18.667 0 28 16 28 48v1080h344v-1121c0 -88 -31.333 -154.333 -94 -199s-155.667 -67 -279 -67s-216.5 22.333 -279.5 67zM218 1413.5
c-14 7 -24.168 19.833 -30.501 38.5s-9.5 46.667 -9.5 84c0 40 3.16699 70 9.5 90s16.333 33.5 30 40.5s33.834 10.5 60.501 10.5c27.333 0 48 -3.5 62 -10.5s24.167 -20.5 30.5 -40.5s9.5 -50 9.5 -90c0 -37.333 -3.16699 -65.333 -9.5 -84s-16.5 -31.5 -30.5 -38.5
s-34.333 -10.5 -61 -10.5s-47 3.5 -61 10.5zM457.999 1413.5c-14 7 -24.167 19.833 -30.5 38.5s-9.5 46.667 -9.5 84c0 40 3.16699 70 9.5 90s16.333 33.5 30 40.5s33.834 10.5 60.501 10.5c27.333 0 48.166 -3.5 62.499 -10.5s24.666 -20.5 30.999 -40.5s9.5 -50 9.5 -90
c0 -37.333 -3.16699 -65.333 -9.5 -84s-16.666 -31.5 -30.999 -38.5s-34.833 -10.5 -61.5 -10.5s-47 3.5 -61 10.5zM329.999 2019l283 -2l-104 -296h-242z" />
    <glyph glyph-name="uni01D8" unicode="&#x1d8;" horiz-adv-x="725" 
d="M109 45c-57.333 45.333 -86 112.333 -86 201v819h311v-820c0 -12 2.5 -21.333 7.5 -28s12.167 -10 21.5 -10s16.5 3.33301 21.5 10s7.5 16 7.5 28v820h310v-825c0 -86.667 -28.5 -152.167 -85.5 -196.5s-141.167 -66.5 -252.5 -66.5c-112.667 0 -197.667 22.667 -255 68z
M179 1118.5c-14 7 -24.168 19.833 -30.501 38.5s-9.5 46.667 -9.5 84c0 40 3.16699 70 9.5 90s16.333 33.5 30 40.5s33.834 10.5 60.501 10.5c27.333 0 48 -3.5 62 -10.5s24.167 -20.5 30.5 -40.5s9.5 -50 9.5 -90c0 -37.333 -3.16699 -65.333 -9.5 -84
s-16.5 -31.5 -30.5 -38.5s-34.333 -10.5 -61 -10.5s-47 3.5 -61 10.5zM418.999 1118.5c-14 7 -24.167 19.833 -30.5 38.5s-9.5 46.667 -9.5 84c0 40 3.16699 70 9.5 90s16.333 33.5 30 40.5s33.834 10.5 60.501 10.5c27.333 0 48.166 -3.5 62.499 -10.5
s24.666 -20.5 30.999 -40.5s9.5 -50 9.5 -90c0 -37.333 -3.16699 -65.333 -9.5 -84s-16.666 -31.5 -30.999 -38.5s-34.833 -10.5 -61.5 -10.5s-47 3.5 -61 10.5zM290.999 1723l283 -2l-104 -296h-242z" />
    <glyph glyph-name="uni01D9" unicode="&#x1d9;" horiz-adv-x="795" 
d="M118.5 40c-63 44.667 -94.5 110.999 -94.5 198.999v1121h347v-1080c0 -15.333 2.33301 -27.166 7 -35.499s11.667 -12.5 21 -12.5c18.667 0 28 16 28 48v1080h344v-1121c0 -88 -31.333 -154.333 -94 -199s-155.667 -67 -279 -67s-216.5 22.333 -279.5 67zM218 1413.5
c-14 7 -24.168 19.833 -30.501 38.5s-9.5 46.667 -9.5 84c0 40 3.16699 70 9.5 90s16.333 33.5 30 40.5s33.834 10.5 60.501 10.5c27.333 0 48 -3.5 62 -10.5s24.167 -20.5 30.5 -40.5s9.5 -50 9.5 -90c0 -37.333 -3.16699 -65.333 -9.5 -84s-16.5 -31.5 -30.5 -38.5
s-34.333 -10.5 -61 -10.5s-47 3.5 -61 10.5zM457.999 1413.5c-14 7 -24.167 19.833 -30.5 38.5s-9.5 46.667 -9.5 84c0 40 3.16699 70 9.5 90s16.333 33.5 30 40.5s33.834 10.5 60.501 10.5c27.333 0 48.166 -3.5 62.499 -10.5s24.666 -20.5 30.999 -40.5s9.5 -50 9.5 -90
c0 -37.333 -3.16699 -65.333 -9.5 -84s-16.666 -31.5 -30.999 -38.5s-34.833 -10.5 -61.5 -10.5s-47 3.5 -61 10.5zM164.999 2016l198 1l35 -176l36 176l197 -1l-86 -294h-294z" />
    <glyph glyph-name="uni01DA" unicode="&#x1da;" horiz-adv-x="725" 
d="M109 45c-57.333 45.333 -86 112.333 -86 201v819h311v-820c0 -12 2.5 -21.333 7.5 -28s12.167 -10 21.5 -10s16.5 3.33301 21.5 10s7.5 16 7.5 28v820h310v-825c0 -86.667 -28.5 -152.167 -85.5 -196.5s-141.167 -66.5 -252.5 -66.5c-112.667 0 -197.667 22.667 -255 68z
M179 1118.5c-14 7 -24.168 19.833 -30.501 38.5s-9.5 46.667 -9.5 84c0 40 3.16699 70 9.5 90s16.333 33.5 30 40.5s33.834 10.5 60.501 10.5c27.333 0 48 -3.5 62 -10.5s24.167 -20.5 30.5 -40.5s9.5 -50 9.5 -90c0 -37.333 -3.16699 -65.333 -9.5 -84
s-16.5 -31.5 -30.5 -38.5s-34.333 -10.5 -61 -10.5s-47 3.5 -61 10.5zM418.999 1118.5c-14 7 -24.167 19.833 -30.5 38.5s-9.5 46.667 -9.5 84c0 40 3.16699 70 9.5 90s16.333 33.5 30 40.5s33.834 10.5 60.501 10.5c27.333 0 48.166 -3.5 62.499 -10.5
s24.666 -20.5 30.999 -40.5s9.5 -50 9.5 -90c0 -37.333 -3.16699 -65.333 -9.5 -84s-16.666 -31.5 -30.999 -38.5s-34.833 -10.5 -61.5 -10.5s-47 3.5 -61 10.5zM125.999 1720l198 1l35 -176l36 176l197 -1l-86 -294h-294z" />
    <glyph glyph-name="uni01DB" unicode="&#x1db;" horiz-adv-x="795" 
d="M118.5 40c-63 44.667 -94.5 110.999 -94.5 198.999v1121h347v-1080c0 -15.333 2.33301 -27.166 7 -35.499s11.667 -12.5 21 -12.5c18.667 0 28 16 28 48v1080h344v-1121c0 -88 -31.333 -154.333 -94 -199s-155.667 -67 -279 -67s-216.5 22.333 -279.5 67zM218 1413.5
c-14 7 -24.168 19.833 -30.501 38.5s-9.5 46.667 -9.5 84c0 40 3.16699 70 9.5 90s16.333 33.5 30 40.5s33.834 10.5 60.501 10.5c27.333 0 48 -3.5 62 -10.5s24.167 -20.5 30.5 -40.5s9.5 -50 9.5 -90c0 -37.333 -3.16699 -65.333 -9.5 -84s-16.5 -31.5 -30.5 -38.5
s-34.333 -10.5 -61 -10.5s-47 3.5 -61 10.5zM457.999 1413.5c-14 7 -24.167 19.833 -30.5 38.5s-9.5 46.667 -9.5 84c0 40 3.16699 70 9.5 90s16.333 33.5 30 40.5s33.834 10.5 60.501 10.5c27.333 0 48.166 -3.5 62.499 -10.5s24.666 -20.5 30.999 -40.5s9.5 -50 9.5 -90
c0 -37.333 -3.16699 -65.333 -9.5 -84s-16.666 -31.5 -30.999 -38.5s-34.833 -10.5 -61.5 -10.5s-47 3.5 -61 10.5zM176.999 2017l283 2l63 -298h-242z" />
    <glyph glyph-name="uni01DC" unicode="&#x1dc;" horiz-adv-x="725" 
d="M109 45c-57.333 45.333 -86 112.333 -86 201v819h311v-820c0 -12 2.5 -21.333 7.5 -28s12.167 -10 21.5 -10s16.5 3.33301 21.5 10s7.5 16 7.5 28v820h310v-825c0 -86.667 -28.5 -152.167 -85.5 -196.5s-141.167 -66.5 -252.5 -66.5c-112.667 0 -197.667 22.667 -255 68z
M179 1118.5c-14 7 -24.168 19.833 -30.501 38.5s-9.5 46.667 -9.5 84c0 40 3.16699 70 9.5 90s16.333 33.5 30 40.5s33.834 10.5 60.501 10.5c27.333 0 48 -3.5 62 -10.5s24.167 -20.5 30.5 -40.5s9.5 -50 9.5 -90c0 -37.333 -3.16699 -65.333 -9.5 -84
s-16.5 -31.5 -30.5 -38.5s-34.333 -10.5 -61 -10.5s-47 3.5 -61 10.5zM418.999 1118.5c-14 7 -24.167 19.833 -30.5 38.5s-9.5 46.667 -9.5 84c0 40 3.16699 70 9.5 90s16.333 33.5 30 40.5s33.834 10.5 60.501 10.5c27.333 0 48.166 -3.5 62.499 -10.5
s24.666 -20.5 30.999 -40.5s9.5 -50 9.5 -90c0 -37.333 -3.16699 -65.333 -9.5 -84s-16.666 -31.5 -30.999 -38.5s-34.833 -10.5 -61.5 -10.5s-47 3.5 -61 10.5zM137.999 1721l283 2l63 -298h-242z" />
    <glyph glyph-name="uni01DE" unicode="&#x1de;" horiz-adv-x="786" 
d="M426 173h-65l-6 -173h-352l201 1360h378l202 -1360h-352zM419 364l-21 576h-12l-19 -576h52zM209 1413.5c-14 7 -24.168 19.833 -30.501 38.5s-9.5 46.667 -9.5 84c0 40 3.16699 70 9.5 90s16.333 33.5 30 40.5s33.834 10.5 60.501 10.5c27.333 0 48 -3.5 62 -10.5
s24.167 -20.5 30.5 -40.5s9.5 -50 9.5 -90c0 -37.333 -3.16699 -65.333 -9.5 -84s-16.5 -31.5 -30.5 -38.5s-34.333 -10.5 -61 -10.5s-47 3.5 -61 10.5zM448.999 1413.5c-14 7 -24.167 19.833 -30.5 38.5s-9.5 46.667 -9.5 84c0 40 3.16699 70 9.5 90s16.333 33.5 30 40.5
s33.834 10.5 60.501 10.5c27.333 0 48.166 -3.5 62.499 -10.5s24.666 -20.5 30.999 -40.5s9.5 -50 9.5 -90c0 -37.333 -3.16699 -65.333 -9.5 -84s-16.666 -31.5 -30.999 -38.5s-34.833 -10.5 -61.5 -10.5s-47 3.5 -61 10.5zM184.999 1878h409v-157h-409v157z" />
    <glyph glyph-name="uni01DF" unicode="&#x1df;" horiz-adv-x="725" 
d="M116.5 1c-29.667 16 -53.1689 39.001 -70.502 69.001s-26 64.667 -26 104v277c0.666992 54 12.334 94.167 35.001 120.5s55.834 43.5 99.501 51.5s106.5 12 188.5 12c2 0 5.66699 -0.166992 11 -0.5s18 -0.5 38 -0.5v216c0 15.333 -2.16699 26.666 -6.5 33.999
s-12.166 11 -23.499 11c-18.667 0 -28 -12.667 -28 -38v-187l-285 -1v187c0.666992 54.667 12.667 99 36 133s60.333 59.167 111 75.5s117.667 24.5 201 24.5c89.333 0 162 -18 218 -54s84 -91.667 84 -167v-868h-290l-33 77c-12.667 -32.667 -32.5 -57.5 -59.5 -74.5
s-60.5 -25.5 -100.5 -25.5c-36.667 0 -69.834 8 -99.501 24zM381.998 190.501c6 7 9.33398 17.165 10.001 30.498v305h-19c-14.667 -0.666992 -24.834 -4.66699 -30.501 -12s-8.5 -17.666 -8.5 -30.999v-275c0 -17.333 8.33301 -26.666 25 -27.999c9.33301 0 17 3.5 23 10.5
zM186.999 1142.5c-14 7 -24.168 19.833 -30.501 38.5s-9.5 46.667 -9.5 84c0 40 3.16699 70 9.5 90s16.333 33.5 30 40.5s33.834 10.5 60.501 10.5c27.333 0 48 -3.5 62 -10.5s24.167 -20.5 30.5 -40.5s9.5 -50 9.5 -90c0 -37.333 -3.16699 -65.333 -9.5 -84
s-16.5 -31.5 -30.5 -38.5s-34.333 -10.5 -61 -10.5s-47 3.5 -61 10.5zM426.998 1142.5c-14 7 -24.167 19.833 -30.5 38.5s-9.5 46.667 -9.5 84c0 40 3.16699 70 9.5 90s16.333 33.5 30 40.5s33.834 10.5 60.501 10.5c27.333 0 48.166 -3.5 62.499 -10.5
s24.666 -20.5 30.999 -40.5s9.5 -50 9.5 -90c0 -37.333 -3.16699 -65.333 -9.5 -84s-16.666 -31.5 -30.999 -38.5s-34.833 -10.5 -61.5 -10.5s-47 3.5 -61 10.5zM162.998 1607h409v-157h-409v157z" />
    <glyph glyph-name="Gcaron" unicode="&#x1e6;" horiz-adv-x="823" 
d="M119 67c-66 60 -99.002 148.667 -99.002 266v693c0 118 33 207 99 267s163.667 90 293 90c126.667 0 222.334 -25.5 287.001 -76.5s97.334 -126.833 98.001 -227.5v-307l-357 1v330c0 19.333 -9.66699 29 -29 29s-29 -9.66699 -29 -29v-884c0 -19.333 10 -29 30 -29
c11.333 0 21.333 2.66699 30 8v360h-27l1 169h383v-668c-98 -54.667 -227 -82 -387 -82c-129.333 0 -227 30 -293 90zM177.998 1681l198 1l35 -136l36 136l197 -1l-86 -254h-294z" />
    <glyph glyph-name="gcaron" unicode="&#x1e7;" horiz-adv-x="700" 
d="M87 -357.5c-48.667 27 -72.9971 70.1709 -72.9971 129.504v238c0 24 6 42.667 18 56s31.667 22.666 59 27.999c-25.333 10 -43.666 24.333 -54.999 43s-17 43.667 -17 75v34c0 29.333 4.33301 54.333 13 75s22.667 39.667 42 57
c-15.333 17.333 -26.333 36.666 -33 57.999s-10 47.333 -10 78v354c1.33301 77.333 25.166 133.5 71.499 168.5s120.833 52.5 223.5 52.5c40.667 0 75.5 -2.33301 104.5 -7s55.833 -12.334 80.5 -23.001c9.33301 12 20.833 20.667 34.5 26s30.834 8 51.501 8h98v-178l-56 1
c-0.666992 24 -11.334 38 -32.001 42c8.66699 -20.667 13 -50.334 13 -89.001v-355c0 -76 -23.167 -131.167 -69.5 -165.5s-121.5 -51.5 -225.5 -51.5c-27.333 0 -51.333 1.66699 -72 5l-8 -7v-35c0 -8.66699 3.83301 -15 11.5 -19s20.167 -6.33301 37.5 -7
c9.33301 -0.666992 22.666 -1 39.999 -1c26.667 0 55 2 85 6c28 3.33301 51.333 5 70 5c64 0 111 -15.667 141 -47s45.667 -80.333 47 -147v-218c0 -80.667 -27.833 -139.167 -83.5 -175.5s-145.834 -54.5 -270.501 -54.5c-108.667 0 -187.334 13.5 -236.001 40.5z
M350.003 479.504c4 7 6 20.167 6 39.5v351c0 20 -2 33.5 -6 40.5s-11.333 10.5 -22 10.5c-11.333 0 -19 -3.5 -23 -10.5s-6 -20.5 -6 -40.5v-351c0 -19.333 2 -32.5 6 -39.5s11.333 -10.5 22 -10.5c11.333 0 19 3.5 23 10.5zM357.003 -188.996v215
c-0.666992 30.667 -9.66699 46 -27 46l-31 -1v-261c0 -23.333 9.33301 -35 28 -35c20 0 30 12 30 36zM92.0029 1387l198 1l35 -136l36 136l197 -1l-86 -254h-294z" />
    <glyph glyph-name="Aringacute" unicode="&#x1fa;" horiz-adv-x="786" 
d="M426 173h-65l-6 -173h-352l201 1360h378l202 -1360h-352zM419 364l-21 576h-12l-19 -576h52zM214 1537v55.999c0 44 15 77.333 45 100s74.333 34.334 133 35.001c58.667 0 103 -11.333 133 -34s45 -56 45 -100v-57c0 -44 -15 -77.167 -45 -99.5s-74.333 -33.5 -133 -33.5
c-118.667 0 -178 44.333 -178 133zM428 1538v56.001c0 18 -12.333 27 -37 27c-12 0 -21.167 -2.33301 -27.5 -7s-9.5 -11.334 -9.5 -20.001v-56c0 -19.333 12.333 -29 37 -29s37 9.66699 37 29zM323 2018l283 -2l-104 -252h-242z" />
    <glyph glyph-name="aringacute" unicode="&#x1fb;" horiz-adv-x="725" 
d="M116.5 1c-29.667 16 -53.1689 39.001 -70.502 69.001s-26 64.667 -26 104v277c0.666992 54 12.334 94.167 35.001 120.5s55.834 43.5 99.501 51.5s106.5 12 188.5 12c2 0 5.66699 -0.166992 11 -0.5s18 -0.5 38 -0.5v216c0 15.333 -2.16699 26.666 -6.5 33.999
s-12.166 11 -23.499 11c-18.667 0 -28 -12.667 -28 -38v-187l-285 -1v187c0.666992 54.667 12.667 99 36 133s60.333 59.167 111 75.5s117.667 24.5 201 24.5c89.333 0 162 -18 218 -54s84 -91.667 84 -167v-868h-290l-33 77c-12.667 -32.667 -32.5 -57.5 -59.5 -74.5
s-60.5 -25.5 -100.5 -25.5c-36.667 0 -69.834 8 -99.501 24zM381.998 190.501c6 7 9.33398 17.165 10.001 30.498v305h-19c-14.667 -0.666992 -24.834 -4.66699 -30.501 -12s-8.5 -17.666 -8.5 -30.999v-275c0 -17.333 8.33301 -26.666 25 -27.999c9.33301 0 17 3.5 23 10.5
zM191.999 1266v55.999c0 44 15 77.333 45 100s74.333 34.334 133 35.001c58.667 0 103 -11.333 133 -34s45 -56 45 -100v-57c0 -44 -15 -77.167 -45 -99.5s-74.333 -33.5 -133 -33.5c-118.667 0 -178 44.333 -178 133zM405.999 1267v56.001c0 18 -12.333 27 -37 27
c-12 0 -21.167 -2.33301 -27.5 -7s-9.5 -11.334 -9.5 -20.001v-56c0 -19.333 12.333 -29 37 -29s37 9.66699 37 29zM300.999 1747l283 -2l-104 -252h-242z" />
    <glyph glyph-name="AEacute" unicode="&#x1fc;" horiz-adv-x="1039" 
d="M266 1360h740v-236h-211v-363h168v-173h-168v-359h215v-229h-568l1 178h-65l-13 -178h-352zM443 369l1 572h-12l-7 -163l-29 -409h47zM638 1701l283 -2l-104 -296h-242z" />
    <glyph glyph-name="aeacute" unicode="&#x1fd;" horiz-adv-x="1106" 
d="M527 48c-20.667 -22.667 -51.6719 -40.002 -93.0049 -52.002s-89.666 -18 -144.999 -18c-88 0 -154.333 16.5 -199 49.5s-67 81.833 -67 146.5v289c0 56.667 22.667 99.5 68 128.5s112.333 43.5 201 43.5l103 -1v216c0 14.667 -2.66699 25.834 -8 33.501
s-12.666 11.5 -21.999 11.5c-18 0 -27 -10.333 -27 -31l-1 -194l-285 -1v209c0 69.333 26.833 121.833 80.5 157.5s132.834 53.5 237.501 53.5c86.667 0 153.334 -10.667 200.001 -32c46.667 21.333 113.334 32 200.001 32c104 0 183 -23.833 237 -71.5
s81 -118.167 81 -211.5c0 -34 -2.33301 -101.667 -7 -203c-4 -74.667 -6 -124 -6 -148h-366v-285c0 -19.333 9.66699 -29 29 -29c18.667 0 28 9.66699 28 29v227h301v-219c-16 -63.333 -52.167 -112.666 -108.5 -147.999s-129.833 -53 -220.5 -53
c-94.667 0 -165 23.667 -211 71zM765.995 586.998v278c0 19.333 -9.33301 29 -28 29c-19.333 0 -29 -9.66699 -29 -29v-278h57zM394.995 220.998l0.000976562 304.998h-19c-12.667 -0.666992 -22.334 -4.66699 -29.001 -12s-10 -17.666 -10 -30.999v-275
c0 -17.333 8.33301 -26.666 25 -27.999c20.667 0 31.667 13.667 33 41zM501.996 1430l283 -2l-104 -296h-242z" />
    <glyph glyph-name="Oslashacute" unicode="&#x1fe;" horiz-adv-x="828" 
d="M806 1022l-0.000976562 -684c0 -119.333 -33 -209.5 -99 -270.5s-163.667 -91.5 -293 -91.5c-22.667 0 -44.667 1 -66 3l-51 -107l-268 137l41 129c-29.333 53.333 -45 120 -47 200v689c0 116 33 204.167 99 264.5s163.333 90.5 292 90.5
c28.667 0 53.334 -1.33301 74.001 -4l21 48h-228l62 297l283 -1l-85 -241l263 -143l-37 -126c26 -52 39 -115.333 39 -190zM441.999 1066c0 19.333 -9.33301 29 -28 29s-28 -9.66699 -28 -29v-772c0 -19.333 9.33301 -29 28 -29s28 9.66699 28 29v772z" />
    <glyph glyph-name="oslashacute" unicode="&#x1ff;" horiz-adv-x="721" 
d="M713 803l-0.000976562 -540c0 -94.667 -29.167 -166 -87.5 -214s-144.166 -72 -257.499 -72c-21.333 0 -37 0.333008 -47 1l-50 -103l-242 115l51 88c-38.667 46.667 -58 108.334 -58 185.001v540c0 94.667 29.167 166 87.5 214s144.5 72 258.5 72
c26 0 53 -1.66699 81 -5l48 99l206 -110l-48 -85c38.667 -46.667 58 -108.334 58 -185.001zM395.999 820c0 25.333 -9.33301 38 -28 38c-19.333 0 -29 -12.667 -29 -38v-575c0 -12 2.5 -21.333 7.5 -28s12.167 -10 21.5 -10c8.66699 0 15.5 3.33301 20.5 10s7.5 16 7.5 28
v575zM289.999 1434l283 -2l-104 -252h-242z" />
    <glyph glyph-name="uni0218" unicode="&#x218;" horiz-adv-x="746" 
d="M24 233l-0.00683594 220.002h317v-223c0 -19.333 9.66699 -29 29 -29c9.33301 0 16.333 2.66699 21 8s7 12.333 7 21c0 61.333 -4.33301 109.333 -13 144c-9.33301 39.333 -22.333 74.666 -39 105.999s-34.5 58.666 -53.5 81.999s-44.167 52 -75.5 86
c-42 44 -75.667 83.333 -101 118s-46.666 78 -63.999 130s-26 114.333 -26 187v40c2.66699 91.333 31.834 157.5 87.501 198.5s137.834 61.5 246.501 61.5c116.667 0 203.834 -22.833 261.501 -68.5s86.834 -108.5 87.501 -188.5v-164h-305v168c0 8 -2.66699 14.667 -8 20
s-12.333 8 -21 8s-15.667 -2.66699 -21 -8s-8 -12.333 -8 -21c0 -36 5.66699 -70.333 17 -103c10 -32 24.667 -60.5 44 -85.5s47.333 -56.5 84 -94.5c48.667 -50 88.334 -96.333 119.001 -139s57 -100.167 79 -172.5s33 -161.166 33 -266.499v-52
c-2.66699 -78.667 -34 -138.334 -94 -179.001s-140 -61 -240 -61c-241.333 0 -362.666 85.667 -363.999 257zM221.993 -69.998h306l-88 -341h-251z" />
    <glyph glyph-name="uni0219" unicode="&#x219;" horiz-adv-x="673" 
d="M96.5 35.5c-49 39.667 -73.833 90.167 -74.5 151.5v175l288 -8v-174c0 -8.66699 2.16699 -15.667 6.5 -21s11.5 -8 21.5 -8c18.667 0 28 10 28 30c0 25.333 -1.5 49 -4.5 71s-7.5 47.333 -13.5 76c-8 27.333 -21.333 50 -40 68s-46.334 40 -83.001 66
c-42 29.333 -76.5 57.333 -103.5 84s-50 63.334 -69 110.001s-28.5 105.667 -28.5 177v41c0 74 25.5 128.167 76.5 162.5s126.167 51.5 225.5 51.5c103.333 0 181.333 -18.167 234 -54.5s79 -88.833 79 -157.5v-148l-277 4v156c0 6 -2.5 11.667 -7.5 17s-11.833 8 -20.5 8
c-10.667 0 -18 -2.83301 -22 -8.5s-6 -11.834 -6 -18.501c0 -44.667 8 -80.334 24 -107.001c7.33301 -24.667 17.333 -45.667 30 -63s26.334 -31.5 41.001 -42.5s34 -23.833 58 -38.5c40.667 -24.667 73.667 -49.334 99 -74.001s47 -63.667 65 -117s27 -125.666 27 -216.999
v-53c0 -63.333 -27.5 -112.166 -82.5 -146.499s-127.833 -51.5 -218.5 -51.5c-119.333 0 -203.5 19.833 -252.5 59.5zM189 -70h306l-88 -341h-251z" />
    <glyph glyph-name="uni021A" unicode="&#x21a;" horiz-adv-x="612" 
d="M129 1103h-121v257h593v-257h-121v-1103h-351v1103zM158 -45h306l-88 -341h-251z" />
    <glyph glyph-name="uni021B" unicode="&#x21b;" horiz-adv-x="494" 
d="M121.5 60.5c-37 40.333 -55.501 98.833 -55.501 175.5v603h-67v199l85 54l81 225l244 1v-253h83v-226h-84v-572c0 -11.333 2.83301 -20.5 8.5 -27.5s13.834 -10.5 24.501 -10.5h50l1 -229h-210c-70 0 -123.5 20.167 -160.5 60.5zM164.999 -45h306l-88 -341h-251z" />
    <glyph glyph-name="uni0228" unicode="&#x228;" horiz-adv-x="604" 
d="M402 0l-13 -96.001c76.667 -19.333 115 -69.666 115 -150.999v-92c0 -58.667 -17.333 -102.667 -52 -132s-86 -44 -154 -44c-64.667 0 -114.667 9.33301 -150 28l28 145c14 -4 31 -6 51 -6c29.333 0 44 8.33301 44 25v92c0 18 -28 27.667 -84 29l25 202h-186v1360h563
v-236h-206v-363h164v-173h-164v-359h210v-229h-191z" />
    <glyph glyph-name="uni0229" unicode="&#x229;" 
d="M336 455v-285c0 -19.333 9.66699 -29 29 -29c18.667 0 28 9.66699 28 29v227h301v-219c-26 -108 -103.333 -172.667 -232 -194l-15 -123c76.667 -18 115 -68 115 -150v-93c0 -58 -17.333 -101.833 -52 -131.5s-86 -44.5 -154 -44.5c-63.333 0 -113.333 9.66699 -150 29
l28 145c12 -4.66699 29 -7 51 -7c29.333 0 44 8.66699 44 26l-1 92c0 18 -27.667 27.667 -83 29l28 227c-84 12.667 -147.167 43.334 -189.5 92.001s-63.5 114.667 -63.5 198v522c0 97.333 29 170.666 87 219.999s144 74 258 74s200 -23.833 258 -71.5
s87 -118.167 87 -211.5c0 -21.333 -2.66699 -138.333 -8 -351h-366zM336 874v-278h57v278c0 19.333 -9.33301 29 -28 29c-19.333 0 -29 -9.66699 -29 -29z" />
    <glyph glyph-name="uni022A" unicode="&#x22a;" horiz-adv-x="824" 
d="M20 1028c0 116 33 204.168 99 264.501s163.667 90.5 293 90.5s227 -30.333 293 -91s99 -150.334 99 -269.001v-684c0 -119.333 -33 -209.5 -99 -270.5s-163.667 -91.5 -293 -91.5c-254 0 -384.667 120.667 -392 362v689zM412 266.001c18.667 0 28 9.66699 28 29v772
c0 19.333 -9.33301 29 -28 29s-28 -9.66699 -28 -29v-772c0 -19.333 9.33301 -29 28 -29zM230 1436.5c-14 7 -24.168 19.833 -30.501 38.5s-9.5 46.667 -9.5 84c0 40 3.16699 70 9.5 90s16.333 33.5 30 40.5s33.834 10.5 60.501 10.5c27.333 0 48 -3.5 62 -10.5
s24.167 -20.5 30.5 -40.5s9.5 -50 9.5 -90c0 -37.333 -3.16699 -65.333 -9.5 -84s-16.5 -31.5 -30.5 -38.5s-34.333 -10.5 -61 -10.5s-47 3.5 -61 10.5zM469.999 1436.5c-14 7 -24.167 19.833 -30.5 38.5s-9.5 46.667 -9.5 84c0 40 3.16699 70 9.5 90s16.333 33.5 30 40.5
s33.834 10.5 60.501 10.5c27.333 0 48.166 -3.5 62.499 -10.5s24.666 -20.5 30.999 -40.5s9.5 -50 9.5 -90c0 -37.333 -3.16699 -65.333 -9.5 -84s-16.666 -31.5 -30.999 -38.5s-34.833 -10.5 -61.5 -10.5s-47 3.5 -61 10.5zM205.999 1900h409v-157h-409v157z" />
    <glyph glyph-name="uni022B" unicode="&#x22b;" horiz-adv-x="735" 
d="M109.5 49c-58.333 48 -87.5 119.333 -87.5 214v540c0 94.667 29.167 166 87.5 214s144.5 72 258.5 72c113.333 0 199.166 -24 257.499 -72s87.5 -119.333 87.5 -214v-540c0 -94.667 -29.167 -166 -87.5 -214s-144.166 -72 -257.499 -72c-114 0 -200.167 24 -258.5 72z
M388.5 217c5 6.66699 7.5 16 7.5 28v575c0 25.333 -9.33301 38 -28 38c-19.333 0 -29 -12.667 -29 -38v-575c0 -12 2.5 -21.333 7.5 -28s12.167 -10 21.5 -10c8.66699 0 15.5 3.33301 20.5 10zM186 1142.5c-14 7 -24.168 19.833 -30.501 38.5s-9.5 46.667 -9.5 84
c0 40 3.16699 70 9.5 90s16.333 33.5 30 40.5s33.834 10.5 60.501 10.5c27.333 0 48 -3.5 62 -10.5s24.167 -20.5 30.5 -40.5s9.5 -50 9.5 -90c0 -37.333 -3.16699 -65.333 -9.5 -84s-16.5 -31.5 -30.5 -38.5s-34.333 -10.5 -61 -10.5s-47 3.5 -61 10.5zM425.999 1142.5
c-14 7 -24.167 19.833 -30.5 38.5s-9.5 46.667 -9.5 84c0 40 3.16699 70 9.5 90s16.333 33.5 30 40.5s33.834 10.5 60.501 10.5c27.333 0 48.166 -3.5 62.499 -10.5s24.666 -20.5 30.999 -40.5s9.5 -50 9.5 -90c0 -37.333 -3.16699 -65.333 -9.5 -84
s-16.666 -31.5 -30.999 -38.5s-34.833 -10.5 -61.5 -10.5s-47 3.5 -61 10.5zM160.999 1607h409v-157h-409v157z" />
    <glyph glyph-name="uni0237" unicode="&#x237;" horiz-adv-x="396" 
d="M-47 -157l27.999 0.000976562c16 0 27.5 3.16699 34.5 9.5s10.5 18.166 10.5 35.499v1177h345v-1162c0 -68.667 -11.5 -120.5 -34.5 -155.5s-56.667 -58.167 -101 -69.5s-105.166 -17 -182.499 -17h-100v182z" />
    <glyph glyph-name="uni02B0" unicode="&#x2b0;" horiz-adv-x="740" 
d="M25 1360l345 0.000976562l1 -294c24 7.33301 47 12.666 69 15.999s46.667 5 74 5c50.667 0 90.167 -9 118.5 -27s48.5 -47.5 60.5 -88.5s18 -97.833 18 -170.5v-801h-317v796c0 26 -1.5 43.5 -4.5 52.5s-9.5 13.5 -19.5 13.5c-8 0 -14.5 -4 -19.5 -12s-9.5 -22 -13.5 -42
v-808h-312v1360z" />
    <glyph glyph-name="uni02B2" unicode="&#x2b2;" horiz-adv-x="398" 
d="M84 1090c-25.333 8 -43.334 23.167 -54.001 45.5s-16 56.166 -16 101.499c0 46 5.5 80.167 16.5 102.5s29.167 37.5 54.5 45.5s63.333 12 114 12s88.834 -4 114.501 -12s44 -23.167 55 -45.5s16.5 -56.5 16.5 -102.5c0 -45.333 -5.5 -79.166 -16.5 -101.499
s-29.333 -37.5 -55 -45.5s-64.167 -12 -115.5 -12c-50.667 0 -88.667 4 -114 12zM-47.001 -157l27.9971 0.000976562c16 0 27.5 3.16699 34.5 9.5s10.5 18.166 10.5 35.499v1167c56.667 -8 114.334 -12 173.001 -12c55.333 0 97.5 2 126.5 6s44.5 6 46.5 6v-1152
c0 -69.333 -11.667 -121.5 -35 -156.5s-57.166 -58.167 -101.499 -69.5s-105.166 -17 -182.499 -17h-100v183z" />
    <glyph glyph-name="uni02B7" unicode="&#x2b7;" horiz-adv-x="1065" 
d="M9 1065h314l20 -563l4 -184h17l3 184l21 563h289l21 -563l2 -184h18l3 184l20 563h315l-155 -1065h-339l-21 729h-18l-20 -729h-340z" />
    <glyph glyph-name="circumflex" unicode="&#x2c6;" horiz-adv-x="423" 
d="M-17 1109l74 294h305l75 -294l-192 -1l-35 176l-36 -176z" />
    <glyph glyph-name="caron" unicode="&#x2c7;" horiz-adv-x="434" 
d="M-15 1403l198 1l35 -176l36 176l197 -1l-86 -294h-294z" />
    <glyph glyph-name="uni02C9" unicode="&#x2c9;" horiz-adv-x="529" 
d="M49 1286h430v-177h-430v177z" />
    <glyph glyph-name="breve" unicode="&#x2d8;" horiz-adv-x="470" 
d="M101.5 1123.5c-33 11 -56.833 28.833 -71.5 53.5s-22.334 57.667 -23.001 99v118h204v-118c0.666992 -16.667 2.83398 -28.5 6.50098 -35.5s9.83398 -10.5 18.501 -10.5c9.33301 0 16 3.5 20 10.5s6 18.833 6 35.5v118h203v-118
c-0.666992 -41.333 -8.33398 -74.333 -23.001 -99s-38.5 -42.5 -71.5 -53.5s-77.833 -16.5 -134.5 -16.5s-101.5 5.5 -134.5 16.5z" />
    <glyph glyph-name="dotaccent" unicode="&#x2d9;" horiz-adv-x="311" 
d="M75.5 1118.5c-19 7.66699 -32.668 20.499 -41.001 38.499s-12.5 44 -12.5 78c0 36.667 4.16699 64.834 12.5 84.501s21.833 33.334 40.5 41.001s45.334 11.5 80.001 11.5s61.5 -3.83301 80.5 -11.5s32.667 -21.334 41 -41.001s12.5 -47.834 12.5 -84.501
c0 -34 -4.16699 -60.167 -12.5 -78.5s-22 -31.166 -41 -38.499s-45.833 -11 -80.5 -11c-34 0 -60.5 3.83301 -79.5 11.5z" />
    <glyph glyph-name="ring" unicode="&#x2da;" horiz-adv-x="406" 
d="M71 1147.5c-30 26.333 -44.999 64.833 -44.999 115.5v89c0 49.333 15 87 45 113s74.333 39 133 39c57.333 0 101.166 -12.833 131.499 -38.5s45.833 -63.167 46.5 -112.5v-90c0 -50.667 -15.167 -89.167 -45.5 -115.5s-74.5 -39.5 -132.5 -39.5
c-58.667 0 -103 13.167 -133 39.5zM240.001 1264l-0.00195312 89c-1.33301 23.333 -13.666 35 -36.999 35s-35.666 -12 -36.999 -36v-88c0 -25.333 12.333 -38 37 -38s37 12.667 37 38z" />
    <glyph glyph-name="ogonek" unicode="&#x2db;" horiz-adv-x="487" 
d="M80.5 -348c-35 24 -52.501 59.667 -52.501 107c0 57.333 18.333 111.333 55 162s91 97.334 163 140.001l209 -45c-78.667 -72.667 -118 -139.334 -118 -200.001c0 -16 7.33301 -24 22 -24c12 0 27.333 10 46 30l63 -124c-49.333 -54.667 -126.666 -82 -231.999 -82
c-68.667 0 -120.5 12 -155.5 36z" />
    <glyph glyph-name="tilde" unicode="&#x2dc;" horiz-adv-x="491" 
d="M16 1220c0 58.667 13 101.833 39 129.5s66.333 41.5 121 41.5c35.333 0 62.333 -4.83301 81 -14.5s30.334 -24.834 35.001 -45.501l1 -57c4 -18 11.667 -27 23 -27c10.667 0 16 11 16 33v101l143 -1v-102c0 -57.333 -13 -99.666 -39 -126.999s-66.333 -41 -121 -41
c-34 0 -60.333 4.83301 -79 14.5s-30.667 25.167 -36 46.5l-2 57c-4.66699 17.333 -12.334 26 -23.001 26s-16 -11 -16 -33v-100h-143v99z" />
    <glyph glyph-name="hungarumlaut" unicode="&#x2dd;" horiz-adv-x="458" 
d="M91 1405l188 -1l-104 -296h-147zM300 1405l188 -1l-104 -296h-147z" />
    <glyph glyph-name="uni02E1" unicode="&#x2e1;" horiz-adv-x="398" 
d="M26 1360h346v-1360h-346v1360z" />
    <glyph glyph-name="gravecomb" unicode="&#x300;" horiz-adv-x="0" 
d="M-353 1360l283 2l63 -254h-242z" />
    <glyph glyph-name="acutecomb" unicode="&#x301;" horiz-adv-x="0" 
d="M-290 1362l283 -2l-104 -252h-242z" />
    <glyph glyph-name="uni0302" unicode="&#x302;" horiz-adv-x="0" 
d="M-440 1109l74 254h305l75 -254l-192 -1l-35 176l-36 -176z" />
    <glyph glyph-name="tildecomb" unicode="&#x303;" horiz-adv-x="0" 
d="M-475 1220c0 38 5.66602 67.168 16.999 87.501s28.333 34.166 51 41.499s53.334 11 92.001 11c35.333 0 62.333 -4.83301 81 -14.5s30.334 -25.167 35.001 -46.5l1 -56c4 -18 11.667 -27 23 -27c10.667 0 16 10.667 16 32v101h143v-97c0 -38 -5.66699 -67.167 -17 -87.5
s-28.333 -34.5 -51 -42.5s-53.334 -12 -92.001 -12c-34.667 0 -61.167 4.16699 -79.5 12.5s-30.166 22.833 -35.499 43.5l-2 57c-4.66699 18 -12.334 27 -23.001 27s-16 -11.333 -16 -34v-99l-143 4v99z" />
    <glyph glyph-name="uni0304" unicode="&#x304;" horiz-adv-x="0" 
d="M-514 1265h409v-157h-409v157z" />
    <glyph glyph-name="uni0306" unicode="&#x306;" horiz-adv-x="0" 
d="M-390.5 1121c-33 9.33301 -56.667 24.833 -71 46.5s-21.5 51.167 -21.5 88.5v103h204v-99c0 -15.333 1.83301 -26.166 5.5 -32.499s10.167 -9.5 19.5 -9.5s16 3.16699 20 9.5s6 17.166 6 32.499v99h202v-103c0 -37.333 -7.16699 -66.833 -21.5 -88.5
s-38 -37.167 -71 -46.5s-78.167 -14 -135.5 -14c-58 0 -103.5 4.66699 -136.5 14z" />
    <glyph glyph-name="uni0307" unicode="&#x307;" horiz-adv-x="0" 
d="M-237.5 1112.5c-18.333 5.66699 -31.499 16.834 -39.499 33.501s-12 42 -12 76c0 36.667 4 63.834 12 81.501s21 29.5 39 35.5s45.333 9 82 9c37.333 0 65.166 -3 83.499 -9s31.333 -17.833 39 -35.5s11.5 -44.834 11.5 -81.501c0 -34 -4 -59.333 -12 -76
s-21.167 -27.834 -39.5 -33.501s-45.833 -8.5 -82.5 -8.5c-36 0 -63.167 2.83301 -81.5 8.5z" />
    <glyph glyph-name="uni0308" unicode="&#x308;" horiz-adv-x="0" 
d="M-413 1118.5c-14 7 -24.168 19.833 -30.501 38.5s-9.5 46.667 -9.5 84c0 40 3.16699 70 9.5 90s16.333 33.5 30 40.5s33.834 10.5 60.501 10.5c27.333 0 48 -3.5 62 -10.5s24.167 -20.5 30.5 -40.5s9.5 -50 9.5 -90c0 -37.333 -3.16699 -65.333 -9.5 -84
s-16.5 -31.5 -30.5 -38.5s-34.333 -10.5 -61 -10.5s-47 3.5 -61 10.5zM-173.001 1118.5c-14 7 -24.167 19.833 -30.5 38.5s-9.5 46.667 -9.5 84c0 40 3.16699 70 9.5 90s16.333 33.5 30 40.5s33.834 10.5 60.501 10.5c27.333 0 48.166 -3.5 62.499 -10.5
s24.666 -20.5 30.999 -40.5s9.5 -50 9.5 -90c0 -37.333 -3.16699 -65.333 -9.5 -84s-16.666 -31.5 -30.999 -38.5s-34.833 -10.5 -61.5 -10.5s-47 3.5 -61 10.5z" />
    <glyph glyph-name="hookabovecomb" unicode="&#x309;" horiz-adv-x="0" 
d="M-319 1206c48 2.66699 71.999 10.001 71.999 22.001v92c0 14 -16.667 21 -50 21c-25.333 0 -48.666 -1.66699 -69.999 -5l-21 105c54 15.333 106.333 23 157 23c124.667 0 187 -44.333 187 -133v-92c0 -60.667 -37.667 -100 -113 -118
c-34.667 -8.66699 -87.667 -13.334 -159 -14.001z" />
    <glyph glyph-name="uni030A" unicode="&#x30a;" horiz-adv-x="0" 
d="M-381 1242v55.999c0 44 15 77.333 45 100s74.333 34.334 133 35.001c58.667 0 103 -11.333 133 -34s45 -56 45 -100v-57c0 -44 -15 -77.167 -45 -99.5s-74.333 -33.5 -133 -33.5c-118.667 0 -178 44.333 -178 133zM-167 1243v56.001c0 18 -12.333 27 -37 27
c-12 0 -21.167 -2.33301 -27.5 -7s-9.5 -11.334 -9.5 -20.001v-56c0 -19.333 12.333 -29 37 -29s37 9.66699 37 29z" />
    <glyph glyph-name="uni030B" unicode="&#x30b;" horiz-adv-x="0" 
d="M-372 1365l189 -1l-100 -256h-147zM-163 1365l189 -1l-100 -256h-147z" />
    <glyph glyph-name="uni030C" unicode="&#x30c;" horiz-adv-x="0" 
d="M-449 1363l198 1l35 -136l36 136l197 -1l-86 -254h-294z" />
    <glyph glyph-name="uni0312" unicode="&#x312;" horiz-adv-x="0" 
d="M-283 1409h250l-33 -301h-306z" />
    <glyph glyph-name="uni031B" unicode="&#x31b;" horiz-adv-x="0" 
d="M-327 1187c26.667 0 46.666 2 59.999 6s20 10.667 20 20v88h203v-91c0 -30 -9 -54 -27 -72s-46 -31.667 -84 -41c-29.333 -6.66699 -83.666 -10.667 -162.999 -12z" />
    </font>
</defs>
</svg>
