<?xml version="1.0" standalone="no"?>
<!DOCTYPE svg PUBLIC "-//W3C//DTD SVG 1.1//EN" "http://www.w3.org/Graphics/SVG/1.1/DTD/svg11.dtd" >
<svg>
<metadata>
Created by FontForge 20090914 at Sun May 24 21:45:04 2020
 By www-data
Copyright &#194;&#169; 2018 by Francesco Canovaro. All rights reserved.
</metadata>
<defs>
<font id="Extenda-15Nano" horiz-adv-x="266" >
  <font-face 
    font-family="Extenda 15 Nano"
    font-weight="250"
    font-stretch="normal"
    units-per-em="2048"
    panose-1="2 11 0 3 2 2 0 0 0 2"
    ascent="1638"
    descent="-410"
    x-height="1065"
    cap-height="1360"
    bbox="-629 -579 1167 2014"
    underline-thickness="95"
    underline-position="-49"
    unicode-range="U+000D-U+FB05"
  />
<missing-glyph horiz-adv-x="539" 
 />
    <glyph glyph-name="arrowleft" unicode="&#x3c;&#x2d;" horiz-adv-x="272" 
d="M25 676l77 103h75l-46 -69h115v-66h-115l46 -69h-75z" />
    <glyph glyph-name="arrowup" unicode="&#x3c;&#x2d;&#x2d;&#x2d;" horiz-adv-x="283" 
d="M107 679l-69 -46v76l103 76l102 -76v-76l-69 46v-110h-67v110z" />
    <glyph glyph-name="arrowright" unicode="&#x2d;&#x3e;" horiz-adv-x="267" 
d="M137 711l-46 69h75l76 -103l-76 -102h-75l46 69h-110v67h110z" />
    <glyph glyph-name="arrowdown" unicode="&#x2d;&#x3e;&#x3e;&#x3e;" horiz-adv-x="249" 
d="M23 646v75l69 -46v110h66v-110l69 46v-75l-103 -77z" />
    <glyph glyph-name="arrowboth" unicode="&#x3c;&#x2d;&#x3e;" horiz-adv-x="363" 
d="M26 676l76 103h75l-46 -69h100l-45 69h75l76 -102l-76 -102h-75l45 69h-100l46 -69h-75z" />
    <glyph glyph-name="arrowupdn" unicode="&#x3c;&#x2d;&#x2d;&#x3e;" horiz-adv-x="254" 
d="M25 598v75l69 -46v100l-69 -45v75l102 76l102 -76v-75l-68 45v-100l68 46v-75l-101 -76z" />
    <glyph glyph-name="uni2196" unicode="&#x3c;&#x2d;&#x2d;" horiz-adv-x="261" 
d="M104 654l-16 -80l-53 53l18 127l126 18l54 -53l-81 -17l77 -78l-47 -46z" />
    <glyph glyph-name="uni2197" unicode="&#x3c;&#x2d;&#x2d;&#x2d;&#x2d;" horiz-adv-x="252" 
d="M107 702l-82 16l54 54l126 -19l18 -126l-53 -53l-16 80l-78 -76l-47 46z" />
    <glyph glyph-name="uni2198" unicode="&#x2d;&#x3e;&#x3e;" horiz-adv-x="263" 
d="M30 635l81 16l-77 78l47 47l78 -78l16 81l53 -53l-19 -126l-125 -18z" />
    <glyph glyph-name="uni2199" unicode="&#x2d;&#x3e;&#x3e;&#x3e;&#x3e;" horiz-adv-x="262" 
d="M53 598l-18 126l53 53l16 -81l78 78l47 -47l-77 -78l81 -16l-54 -53z" />
    <glyph glyph-name="f_f" unicode="ff" horiz-adv-x="370" 
d="M36 997h-38.999v68h39v215c0 30.667 8.5 52.667 25.5 66s43.5 20 79.5 20c18.667 0 39 -0.5 61 -1.5s36.333 -1.83301 43 -2.5c-12 -2.66699 -21.333 -10.167 -28 -22.5s-11.334 -24.833 -14.001 -37.5c-2.66699 0.666992 -21.667 1 -57 1c-18 0 -27 -8.33301 -27 -25
v-213h95v215c0 30.667 8.33301 52.667 25 66s43 20 79 20l42 -1l-1 -63l-35 1c-18 0 -27 -8.33301 -27 -25v-213h61v-68h-61v-997h-83v997h-95v-997h-83v997z" />
    <glyph glyph-name="f_f_i" unicode="ffi" horiz-adv-x="493" 
d="M36 997l-39.0039 -0.00195312v68h39v214c0 30.667 8.16699 53.334 24.5 68.001s44.5 22 84.5 22c12 0 29.5 -1.16699 52.5 -3.5s38.167 -3.83301 45.5 -4.5c-12 -4 -20.5 -11.333 -25.5 -22s-8.83301 -23 -11.5 -37l-60 1c-10 0 -17 -2 -21 -6s-6 -10.333 -6 -19v-213h95
v211c0 25.333 4.16699 44.666 12.5 57.999s20.833 22.333 37.5 27s39.667 7 69 7c23.333 0 48 -0.666992 74 -2s43.333 -2.66602 52 -3.99902c7.33301 -28.667 11 -76.667 11 -144c0 -33.333 -1 -57.333 -3 -72s-6 -24.5 -12 -29.5s-16 -7.5 -30 -7.5
c-11.333 0 -19.666 2.16699 -24.999 6.5s-9.16602 13.333 -11.499 27s-4.16602 35.834 -5.49902 66.501v94l-50 -1c-15.333 0 -25.166 -1.5 -29.499 -4.5s-6.5 -10.833 -6.5 -23.5v-209h52v-68h-52v-997h-83v997h-95v-997h-83v997zM382.996 1065c10 -2 24 -3 42 -3
c14.667 0 28.667 1 42 3v-1065h-84v1065z" />
    <glyph glyph-name="f_f_l" unicode="ffl" horiz-adv-x="493" 
d="M36 997l-39 -0.00195312v68h39v214c0 30.667 8.16699 53.334 24.5 68.001s44.5 22 84.5 22c12 0 29.5 -1.16699 52.5 -3.5s38.167 -3.83301 45.5 -4.5c-12 -4 -20.5 -11.333 -25.5 -22s-8.83301 -23 -11.5 -37c-2.66699 0.666992 -22.667 1 -60 1
c-18 0 -27 -8.33301 -27 -25v-213h95v214c0 30.667 8.16699 53.334 24.5 68.001s45.5 22 87.5 22c34.667 0 74 -3.66699 118 -11l23 -3v-1355h-84v1302l-59 1c-18 0 -27 -8.33301 -27 -25v-213h61v-68h-61v-997h-83v997h-95v-997h-83v997z" />
    <glyph glyph-name="f_i" unicode="fi" horiz-adv-x="315" 
d="M36 997l-39.002 -0.00195312v68h39v211c0 25.333 4.16699 44.666 12.5 57.999s20.833 22.333 37.5 27s39.667 7 69 7c23.333 0 48 -0.666992 74 -2s43.333 -2.66602 52 -3.99902c4 -6 6.83301 -21.333 8.5 -46s2.5 -60.667 2.5 -108c0 -33.333 -1 -57.166 -3 -71.499
s-6 -24 -12 -29s-16 -7.5 -30 -7.5c-11.333 0 -19.666 2.16699 -24.999 6.5s-9.16602 13.333 -11.499 27s-4.16602 35.834 -5.49902 66.501v103c-8 -0.666992 -24.667 -1 -50 -1c-14.667 0 -24.334 -1.5 -29.001 -4.5s-7 -10.833 -7 -23.5v-209h52v-68h-52v-997h-83v997z
M204.998 1065c10 -2 24 -3 42 -3c16 0 30 1 42 3v-1065h-84v1065z" />
    <glyph glyph-name="f_l" unicode="fl" horiz-adv-x="315" 
d="M36 997l-38.999 0.000976562v68h39v214c0 31.333 8.66699 54.166 26 68.499s48.666 21.5 93.999 21.5c28 0 64 -3.66699 108 -11l25 -3v-1355h-84v1302l-59 1c-18 0 -27 -8.33301 -27 -25v-213h61v-68h-61v-997h-83v997z" />
    <glyph glyph-name="zero.nalt" unicode="&#x28;&#x30;&#x29;" horiz-adv-x="489" 
d="M80.5 225c-37 36 -55.5 89.333 -55.5 160l1 588c0 70.667 18.5 124.167 55.5 160.5s91.833 54.5 164.5 54.5c72 0 126.333 -18 163 -54s55 -89.667 55 -161v-588c0 -70.667 -18.333 -124 -55 -160s-91 -54 -163 -54c-73.333 0 -128.5 18 -165.5 54zM359.5 270.5
c25.667 25.667 38.5 63.834 38.5 114.501v588c0 50.667 -12.833 88.834 -38.5 114.501s-63.5 38.5 -113.5 38.5c-50.667 0 -89 -12.833 -115 -38.5s-39 -63.834 -39 -114.501v-588c0 -50.667 13 -88.834 39 -114.501s64.333 -38.5 115 -38.5c50 0 87.833 12.833 113.5 38.5z
M170.5 321c-16.333 16 -24.498 38.667 -24.498 68v575c0 29.333 8.16699 52 24.5 68s40.833 24 73.5 24c33.333 0 58.166 -8 74.499 -24s24.5 -38.667 24.5 -68v-575c0 -29.333 -8.33301 -52 -25 -68s-41.334 -24 -74.001 -24s-57.167 8 -73.5 24zM272.002 389v575
c0 22.667 -9.33301 34 -28 34s-28 -11.333 -28 -34v-575c0 -23.333 9.33301 -35 28 -35s28 11.667 28 35z" />
    <glyph glyph-name="one.nalt" unicode="&#x28;&#x31;&#x29;" horiz-adv-x="489" 
d="M80.5 225c-37 36 -55.5 89.333 -55.5 160l1 588c0 70.667 18.5 124.167 55.5 160.5s91.833 54.5 164.5 54.5c72 0 126.333 -18 163 -54s55 -89.667 55 -161v-588c0 -70.667 -18.333 -124 -55 -160s-91 -54 -163 -54c-73.333 0 -128.5 18 -165.5 54zM359.5 270.5
c25.667 25.667 38.5 63.834 38.5 114.501v588c0 50.667 -12.833 88.834 -38.5 114.501s-63.5 38.5 -113.5 38.5c-50.667 0 -89 -12.833 -115 -38.5s-39 -63.834 -39 -114.501v-588c0 -50.667 13 -88.834 39 -114.501s64.333 -38.5 115 -38.5c50 0 87.833 12.833 113.5 38.5z
M211 979l-43 -16v64l51 18h63v-737h-71v671z" />
    <glyph glyph-name="two.nalt" unicode="&#x28;&#x32;&#x29;" horiz-adv-x="489" 
d="M80.5 225c-37 36 -55.5 89.333 -55.5 160l1 588c0 70.667 18.5 124.167 55.5 160.5s91.833 54.5 164.5 54.5c72 0 126.333 -18 163 -54s55 -89.667 55 -161v-588c0 -70.667 -18.333 -124 -55 -160s-91 -54 -163 -54c-73.333 0 -128.5 18 -165.5 54zM359.5 270.5
c25.667 25.667 38.5 63.834 38.5 114.501v588c0 50.667 -12.833 88.834 -38.5 114.501s-63.5 38.5 -113.5 38.5c-50.667 0 -89 -12.833 -115 -38.5s-39 -63.834 -39 -114.501v-588c0 -50.667 13 -88.834 39 -114.501s64.333 -38.5 115 -38.5c50 0 87.833 12.833 113.5 38.5z
M147 368l73.999 206.001c15.333 44.667 27.333 87 36 127s13 79.333 13 118v153c0 19.333 -9.66699 29 -29 29s-29 -10 -29 -30c0 -151.333 0.333008 -228.333 1 -231h-65v231c0 58 32.333 87 97 87c32.667 0 57.167 -7.33301 73.5 -22s24.5 -35.667 24.5 -63v-153
c0 -55.333 -6 -106.333 -18 -153s-32.667 -112 -62 -196c-17.333 -46.667 -29 -79.334 -35 -98.001v-8l63 1c12.667 0.666992 30.334 1 53.001 1v-59h-197v60z" />
    <glyph glyph-name="three.nalt" unicode="&#x28;&#x33;&#x29;" horiz-adv-x="489" 
d="M80.5 225c-37 36 -55.5 89.333 -55.5 160l1 588c0 70.667 18.5 124.167 55.5 160.5s91.833 54.5 164.5 54.5c72 0 126.333 -18 163 -54s55 -89.667 55 -161v-588c0 -70.667 -18.333 -124 -55 -160s-91 -54 -163 -54c-73.333 0 -128.5 18 -165.5 54zM359.5 270.5
c25.667 25.667 38.5 63.834 38.5 114.501v588c0 50.667 -12.833 88.834 -38.5 114.501s-63.5 38.5 -113.5 38.5c-50.667 0 -89 -12.833 -115 -38.5s-39 -63.834 -39 -114.501v-588c0 -50.667 13 -88.834 39 -114.501s64.333 -38.5 115 -38.5c50 0 87.833 12.833 113.5 38.5z
M149 381v118h68v-118c0 -9.33301 2.5 -16.666 7.5 -21.999s11.833 -8 20.5 -8s15.5 2.66699 20.5 8s7.5 12.666 7.5 21.999v270c0 19.333 -11 29 -33 29h-85v54l119 250v5h-121v57h185v-64l-118 -251h26c64.667 0 97 -27 97 -81v-269c0 -56.667 -32.667 -85 -98 -85
c-64 0 -96 28.333 -96 85z" />
    <glyph glyph-name="four.nalt" unicode="&#x28;&#x34;&#x29;" horiz-adv-x="489" 
d="M80.5 225c-37 36 -55.5 89.333 -55.5 160l1 588c0 70.667 18.5 124.167 55.5 160.5s91.833 54.5 164.5 54.5c72 0 126.333 -18 163 -54s55 -89.667 55 -161v-588c0 -70.667 -18.333 -124 -55 -160s-91 -54 -163 -54c-73.333 0 -128.5 18 -165.5 54zM359.5 270.5
c25.667 25.667 38.5 63.834 38.5 114.501v588c0 50.667 -12.833 88.834 -38.5 114.501s-63.5 38.5 -113.5 38.5c-50.667 0 -89 -12.833 -115 -38.5s-39 -63.834 -39 -114.501v-588c0 -50.667 13 -88.834 39 -114.501s64.333 -38.5 115 -38.5c50 0 87.833 12.833 113.5 38.5z
M252 437h-128v57l75 554h123l2 -554h30v-57h-30v-130h-72v130zM254 494l1 497h-8l-57 -497h64z" />
    <glyph glyph-name="five.nalt" unicode="&#x28;&#x35;&#x29;" horiz-adv-x="489" 
d="M80.5 225c-37 36 -55.5 89.333 -55.5 160l1 588c0 70.667 18.5 124.167 55.5 160.5s91.833 54.5 164.5 54.5c72 0 126.333 -18 163 -54s55 -89.667 55 -161v-588c0 -70.667 -18.333 -124 -55 -160s-91 -54 -163 -54c-73.333 0 -128.5 18 -165.5 54zM359.5 270.5
c25.667 25.667 38.5 63.834 38.5 114.501v588c0 50.667 -12.833 88.834 -38.5 114.501s-63.5 38.5 -113.5 38.5c-50.667 0 -89 -12.833 -115 -38.5s-39 -63.834 -39 -114.501v-588c0 -50.667 13 -88.834 39 -114.501s64.333 -38.5 115 -38.5c50 0 87.833 12.833 113.5 38.5z
M146 382v137.999h68v-138c0 -19.333 9.33301 -29 28 -29s28 9.66699 28 29v266c0 22.667 -12.667 34 -38 34h-68l-17 20l4 346h184v-251h-63v193h-56v-254h34c30 -0.666992 52.333 -8.16699 67 -22.5s22 -36.166 22 -65.499v-265c0 -57.333 -33 -86 -99 -86
c-62.667 0 -94 28.333 -94 85z" />
    <glyph glyph-name="six.nalt" unicode="&#x28;&#x36;&#x29;" horiz-adv-x="489" 
d="M80.5 225c-37 36 -55.5 89.333 -55.5 160l1 588c0 70.667 18.5 124.167 55.5 160.5s91.833 54.5 164.5 54.5c72 0 126.333 -18 163 -54s55 -89.667 55 -161v-588c0 -70.667 -18.333 -124 -55 -160s-91 -54 -163 -54c-73.333 0 -128.5 18 -165.5 54zM359.5 270.5
c25.667 25.667 38.5 63.834 38.5 114.501v588c0 50.667 -12.833 88.834 -38.5 114.501s-63.5 38.5 -113.5 38.5c-50.667 0 -89 -12.833 -115 -38.5s-39 -63.834 -39 -114.501v-588c0 -50.667 13 -88.834 39 -114.501s64.333 -38.5 115 -38.5c50 0 87.833 12.833 113.5 38.5z
M146 382v317.999c0 70 7.33301 135.333 22 196s36 111 64 151h72c-25.333 -36 -44.833 -83.833 -58.5 -143.5s-21.5 -123.167 -23.5 -190.5h4c2 12.667 7.16699 22.5 15.5 29.5s19.5 10.5 33.5 10.5c22 0 38.833 -7.16699 50.5 -21.5s17.5 -35.166 17.5 -62.499v-287
c0 -57.333 -33 -86 -99 -86c-65.333 0 -98 28.667 -98 86zM265.5 358.499c5 5 7.49902 12.5 7.49902 22.5v287c0 10.667 -2.16699 18.667 -6.5 24s-10.166 8 -17.499 8c-21.333 0 -32 -10.667 -32 -32v-287c0 -20 9.33301 -30 28 -30c8.66699 0 15.5 2.5 20.5 7.5z" />
    <glyph glyph-name="seven.nalt" unicode="&#x28;&#x37;&#x29;" horiz-adv-x="489" 
d="M80.5 225c-37 36 -55.5 89.333 -55.5 160l1 588c0 70.667 18.5 124.167 55.5 160.5s91.833 54.5 164.5 54.5c72 0 126.333 -18 163 -54s55 -89.667 55 -161v-588c0 -70.667 -18.333 -124 -55 -160s-91 -54 -163 -54c-73.333 0 -128.5 18 -165.5 54zM359.5 270.5
c25.667 25.667 38.5 63.834 38.5 114.501v588c0 50.667 -12.833 88.834 -38.5 114.501s-63.5 38.5 -113.5 38.5c-50.667 0 -89 -12.833 -115 -38.5s-39 -63.834 -39 -114.501v-588c0 -50.667 13 -88.834 39 -114.501s64.333 -38.5 115 -38.5c50 0 87.833 12.833 113.5 38.5z
M266 987h-111v59h185v-49l-112 -690h-74z" />
    <glyph glyph-name="eight.nalt" unicode="&#x28;&#x38;&#x29;" horiz-adv-x="489" 
d="M80.5 225c-37 36 -55.5 89.333 -55.5 160l1 588c0 70.667 18.5 124.167 55.5 160.5s91.833 54.5 164.5 54.5c72 0 126.333 -18 163 -54s55 -89.667 55 -161v-588c0 -70.667 -18.333 -124 -55 -160s-91 -54 -163 -54c-73.333 0 -128.5 18 -165.5 54zM359.5 270.5
c25.667 25.667 38.5 63.834 38.5 114.501v588c0 50.667 -12.833 88.834 -38.5 114.501s-63.5 38.5 -113.5 38.5c-50.667 0 -89 -12.833 -115 -38.5s-39 -63.834 -39 -114.501v-588c0 -50.667 13 -88.834 39 -114.501s64.333 -38.5 115 -38.5c50 0 87.833 12.833 113.5 38.5z
M145 379v251.999c0 32 8 52.667 24 62c-16 8 -24 24.333 -24 49v231c0 56 32.667 84 98 84c64.667 0 97 -28 97 -84v-231c0 -23.333 -7.66699 -39.666 -23 -48.999c15.333 -10.667 23 -31 23 -61v-253c0 -56 -32.333 -84 -97 -84c-65.333 0 -98 28 -98 84zM271 742.999v229
c0 20.667 -9.33301 31 -28 31s-28 -10.333 -28 -31v-229c0 -18 9.33301 -27 28 -27s28 9 28 27zM271 379.999v254c0 21.333 -9.33301 32 -28 32s-28 -10.667 -28 -32v-254c0 -20.667 9.33301 -31 28 -31s28 10.333 28 31z" />
    <glyph glyph-name="nine.nalt" unicode="&#x28;&#x39;&#x29;" horiz-adv-x="489" 
d="M80.5 225c-37 36 -55.5 89.333 -55.5 160l1 588c0 70.667 18.5 124.167 55.5 160.5s91.833 54.5 164.5 54.5c72 0 126.333 -18 163 -54s55 -89.667 55 -161v-588c0 -70.667 -18.333 -124 -55 -160s-91 -54 -163 -54c-73.333 0 -128.5 18 -165.5 54zM359.5 270.5
c25.667 25.667 38.5 63.834 38.5 114.501v588c0 50.667 -12.833 88.834 -38.5 114.501s-63.5 38.5 -113.5 38.5c-50.667 0 -89 -12.833 -115 -38.5s-39 -63.834 -39 -114.501v-588c0 -50.667 13 -88.834 39 -114.501s64.333 -38.5 115 -38.5c50 0 87.833 12.833 113.5 38.5z
M236.5 462.5c17 59 26.5 118.5 28.5 178.5h-4c-2 -12.667 -7.33301 -22.667 -16 -30s-19.667 -11 -33 -11c-21.333 0 -38 7.33301 -50 22s-18 35.667 -18 63v286c0 58 33 87 99 87c65.333 0 98 -28.667 98 -86v-319c0 -130 -32 -245.667 -96 -347h-72
c25.333 45.333 46.5 97.5 63.5 156.5zM270 686v286c0 20.667 -9.33301 31 -28 31s-28 -10.333 -28 -31v-286c0 -22 8 -33 24 -33c21.333 0 32 11 32 33z" />
    <glyph glyph-name=".notdef" horiz-adv-x="539" 
 />
    <glyph glyph-name="NULL" horiz-adv-x="0" 
 />
    <glyph glyph-name="NULL" horiz-adv-x="0" 
 />
    <glyph glyph-name="nonmarkingreturn" unicode="&#xd;" horiz-adv-x="539" 
 />
    <glyph glyph-name="DLE" horiz-adv-x="1679" 
 />
    <glyph glyph-name="space" unicode=" " horiz-adv-x="156" 
 />
    <glyph glyph-name="exclam" unicode="!" horiz-adv-x="135" 
d="M109 382l-9 -116h-64l-10 117v1006h83v-1007zM96.5 221c5.66699 -4.66699 9.33398 -14.334 11.001 -29.001s2.5 -40 2.5 -76c0 -40.667 -0.833008 -69.5 -2.5 -86.5s-5.33398 -28.167 -11.001 -33.5s-15.167 -8 -28.5 -8c-14 0 -23.833 2.66699 -29.5 8
s-9.33398 16.5 -11.001 33.5s-2.5 45.833 -2.5 86.5c0 36 0.833008 61.333 2.5 76s5.33398 24.334 11.001 29.001s15.5 7 29.5 7c13.333 0 22.833 -2.33301 28.5 -7z" />
    <glyph glyph-name="quotedbl" unicode="&#x22;" horiz-adv-x="237" 
d="M20 662v649h80l-14 -650zM138 662v649h80l-14 -650z" />
    <glyph glyph-name="numbersign" unicode="#" horiz-adv-x="429" 
d="M321 860l-43 -361h73v-65h-80l-50 -421h-77l51 421h-56l-50 -421h-77l51 421h-71l1 65h78l44 361h-73v64h81l53 436h72l-51 -436h58l53 436h72l-51 -436h72v-64h-80zM247 860h-58l-43 -361h57z" />
    <glyph glyph-name="dollar" unicode="$" horiz-adv-x="267" 
d="M132 957.5c8.66699 -47.667 20.998 -103.5 36.998 -167.5c16 -67.333 28.833 -126 38.5 -176s17.834 -112 24.501 -186s10 -160.333 10 -259v-86c0 -27.333 -7 -48.833 -21 -64.5s-34.333 -25.167 -61 -28.5v-119h-53v119c-54 7.33301 -81 39 -81 95v370h80v-370
c0 -19.333 9.33301 -29 28 -29s28 9.66699 28 29c0 77.333 -1.66699 153.333 -5 228c-6 106.667 -15 194 -27 262s-28 141.667 -48 221c-19.333 73.333 -33.5 138.5 -42.5 195.5s-13.5 129.167 -13.5 216.5v66c0.666992 56 27.667 87.667 81 95v159h53v-159
c54 -8 81 -39.667 81 -95v-277h-79v277c0 19.333 -9.33301 29 -28 29s-28 -9.66699 -28 -29c0 -56 2 -107 6 -153c4.66699 -61.333 11.334 -115.833 20.001 -163.5z" />
    <glyph glyph-name="percent" unicode="%" horiz-adv-x="595" 
d="M50.5 636.5c-16.333 16.333 -24.5 39.166 -24.5 68.499v574c0 30 8.16699 52.833 24.5 68.5s40.5 23.5 72.5 23.5c65.333 0 98 -30.667 98 -92v-574c0 -29.333 -8.16699 -52.166 -24.5 -68.499s-40.833 -24.5 -73.5 -24.5c-32 0 -56.167 8.16699 -72.5 24.5zM406 1360h64
l-278 -1361h-59zM151 705v574c0 23.333 -9.33301 35 -28 35c-18 0 -27 -11.667 -27 -35v-574c0 -23.333 9 -35 27 -35c18.667 0 28 11.667 28 35zM375 85v575c0 29.333 8 52 24 68s40.333 24 73 24c64.667 0 97 -30.667 97 -92v-575c0 -29.333 -8 -52 -24 -68
s-40.333 -24 -73 -24c-64.667 0 -97 30.667 -97 92zM500 85v575c0 23.333 -9.33301 35 -28 35s-28 -11.667 -28 -35v-575c0 -23.333 9.33301 -35 28 -35s28 11.667 28 35z" />
    <glyph glyph-name="ampersand" unicode="&#x26;" horiz-adv-x="278" 
d="M276 647h-25v-561c-0.666992 -33.333 -9.66699 -58 -27 -74s-45.333 -24 -84 -24c-76 0 -114 31.667 -114 95v530c0 35.333 9 58 27 68c-16.667 10 -25 28.333 -25 55v540c0 62.667 37.333 94 112 94c73.333 0 110 -32.667 110 -98v-355h-83v355c0 20 -9.33301 30 -28 30
s-28 -10 -28 -30v-539c0 -18 9.33301 -27 28 -27v-57c-18.667 0 -28 -10.333 -28 -31v-533c0 -19.333 9.33301 -29 28 -29s28 9.66699 28 29v686h84v-67h25v-57z" />
    <glyph glyph-name="quotesingle" unicode="'" horiz-adv-x="118" 
d="M20 712v649h80l-14 -650z" />
    <glyph glyph-name="parenleft" unicode="(" horiz-adv-x="159" 
d="M54.5 -95.5c-19 19 -28.5 46.1689 -28.5 81.502v1387c0 35.333 9.5 62.5 28.5 81.5s55.167 28.5 108.5 28.5l1 -66c-22 0 -36.5 -3.33301 -43.5 -10s-10.5 -15.334 -10.5 -26.001v-1403c0 -10.667 3.5 -19.334 10.5 -26.001s21.5 -10 43.5 -10l-1 -66
c-53.333 0 -89.5 9.5 -108.5 28.5z" />
    <glyph glyph-name="parenright" unicode=")" horiz-adv-x="177" 
d="M14 -58c36 0 54 12.332 54 36.999v1403c0 23.333 -18 35 -54 35v66c53.333 0 89.5 -9.5 108.5 -28.5s28.5 -45.833 28.5 -80.5v-1387c0 -35.333 -9.5 -62.666 -28.5 -81.999s-55.167 -29 -108.5 -29v66z" />
    <glyph glyph-name="asterisk" unicode="*" horiz-adv-x="243" 
d="M97 1213l-4 4l-37 -33l-34 59l47 16v4l-47 16l34 58l37 -32l4 2l-9 48h67l-9 -47l4 -3l37 32l34 -58l-45 -16l-1 -5l46 -15l-34 -59l-36 32l-5 -4l9 -46h-67z" />
    <glyph glyph-name="plus" unicode="+" horiz-adv-x="239" 
d="M86 524h-60v68h60v60h68v-60h59v-68h-59v-59h-68v59z" />
    <glyph glyph-name="comma" unicode="," horiz-adv-x="129" 
d="M24 224h83l-40 -345h-66z" />
    <glyph glyph-name="hyphen" unicode="-" horiz-adv-x="239" 
d="M26 592h187v-68h-187v68z" />
    <glyph glyph-name="period" unicode="." horiz-adv-x="132" 
d="M37.5 -4c-5.66699 4.66699 -9.5 14.5 -11.5 29.5s-3 40.5 -3 76.5c0 40.667 1 69.667 3 87s5.83301 28.5 11.5 33.5s15.167 7.5 28.5 7.5s22.666 -2.5 27.999 -7.5s9 -16 11 -33s3 -46.167 3 -87.5c0 -36 -1 -61.5 -3 -76.5s-5.66699 -24.833 -11 -29.5
s-14.666 -7 -27.999 -7s-22.833 2.33301 -28.5 7z" />
    <glyph glyph-name="slash" unicode="/" horiz-adv-x="288" 
d="M203 1422h79l-194 -1630l-84 -1z" />
    <glyph glyph-name="zero" unicode="0" horiz-adv-x="269" 
d="M24 98v1171c0 32.667 9.33301 57.834 28 75.501s46 26.5 82 26.5c74 0 111 -36.667 111 -110v-1163c0 -73.333 -37 -110 -111 -110c-73.333 0 -110 36.667 -110 110zM162 86.999v1185c0 19.333 -9.33301 29 -28 29s-28 -9.66699 -28 -29v-1185
c0 -19.333 9.33301 -29 28 -29s28 9.66699 28 29z" />
    <glyph glyph-name="one" unicode="1" horiz-adv-x="140" 
d="M33 1280l-46 -17v76l56 21h71v-1360h-82z" />
    <glyph glyph-name="two" unicode="2" horiz-adv-x="260" 
d="M26 71c84.667 490 127 836.667 127 1040v163c0 19.333 -9.33301 29 -28 29s-28 -10 -28 -30v-428h-71v428c1.33301 65.333 36.333 98 105 98c70.667 0 106 -31.667 106 -95v-163c0 -162.667 -38.667 -510 -116 -1042v-3h116v-68h-211v71z" />
    <glyph glyph-name="three" unicode="3" 
d="M217 756.5c16 -15 24 -37.167 24 -66.5v-605c0 -64.667 -36.333 -97 -109 -97c-71.333 0 -107 32.333 -107 97v325h79v-324c0 -20.667 9.33301 -31 28 -31s28 10.333 28 31v605c0 20 -11.333 30 -34 30h-102v64l30 1l105 507h-129v67h205v-73l-105 -507l17 -1
c30.667 0 54 -7.5 70 -22.5z" />
    <glyph glyph-name="four" unicode="4" horiz-adv-x="270" 
d="M147 374h-140v68l79 918h141l1 -918h32v-68h-32v-374h-81v374zM147 442v849h-7l-59 -849h66z" />
    <glyph glyph-name="five" unicode="5" horiz-adv-x="267" 
d="M25 85v325.001h79v-323c0 -21.333 9.33301 -32 28 -32s28 10.333 28 31v600c0 23.333 -12.667 35 -38 35h-77l-18 23l6 616h202v-262h-71v194h-56v-507h35c65.333 -0.666992 98 -33.334 98 -98.001v-600c0 -66 -37.333 -99 -112 -99c-69.333 0 -104 32.333 -104 97z" />
    <glyph glyph-name="six" unicode="6" horiz-adv-x="271" 
d="M25 87v674.999c0 123.333 10.167 235.5 30.5 336.5s50.5 188.167 90.5 261.5h85c-77.333 -141.333 -118 -337.666 -122 -588.999h3c2.66699 12.667 8.16699 22.667 16.5 30s18.833 11.333 31.5 12c56.667 0 85 -32 85 -96v-630c0 -66 -36.333 -99 -109 -99
c-74 0 -111 33 -111 99zM163 86.999v630c0 22 -7.66699 33 -23 33c-22 0 -33 -11 -33 -33v-630c0 -20.667 9.33301 -31 28 -31s28 10.333 28 31z" />
    <glyph glyph-name="seven" unicode="7" horiz-adv-x="244" 
d="M137 1290h-117v70h205v-61l-119 -1299h-87z" />
    <glyph glyph-name="eight" unicode="8" horiz-adv-x="270" 
d="M26 84v563c0 34.667 8.66699 57.667 26 69c-16 8.66699 -24.667 27 -26 55v506c1.33301 62.667 37.666 94 108.999 94c72.667 0 109 -31.333 109 -94v-506c0 -12.667 -2.16699 -23.667 -6.5 -33s-10.166 -16.666 -17.499 -21.999c16.667 -12.667 25 -35.334 25 -68.001
v-564c0 -64 -36.667 -96 -110 -96c-72.667 0 -109 32 -109 96zM163 771v503c0 21.333 -9.33301 32 -28 32s-28 -10.667 -28 -32v-503c0 -18.667 9.33301 -28 28 -28s28 9.33301 28 28zM163 85v566c0 22 -9.33301 33 -28 33s-28 -11 -28 -33v-566
c0 -20.667 9.33301 -31 28 -31s28 10.333 28 31z" />
    <glyph glyph-name="nine" unicode="9" horiz-adv-x="270" 
d="M162 588l-4 0.000976562c-2.66699 -12.667 -8.16699 -22.667 -16.5 -30s-18.833 -11.333 -31.5 -12c-56.667 0 -85 32 -85 96v630c0 66 36.667 99 110 99c74 0 111 -33 111 -99v-675c0 -124.667 -10.5 -237.334 -31.5 -338.001s-52.167 -187 -93.5 -259h-84
c81.333 145.333 123 341.333 125 588zM163 642.001v630c0 21.333 -9.33301 32 -28 32s-28 -10.667 -28 -32v-629c0 -22.667 8 -34 24 -34c21.333 0 32 11 32 33z" />
    <glyph glyph-name="colon" unicode=":" horiz-adv-x="131" 
d="M37.5 -4c-5.66699 4.66699 -9.5 14.5 -11.5 29.5s-3 40.5 -3 76.5c0 40.667 1 69.667 3 87s5.83301 28.5 11.5 33.5s15.167 7.5 28.5 7.5s22.666 -2.5 27.999 -7.5s9 -16 11 -33s3 -46.167 3 -87.5c0 -36 -1 -61.5 -3 -76.5s-5.66699 -24.833 -11 -29.5
s-14.666 -7 -27.999 -7s-22.833 2.33301 -28.5 7zM37.5 646c-5.66699 4.66699 -9.5 14.5 -11.5 29.5s-3 40.5 -3 76.5c0 40.667 1 69.667 3 87s5.83301 28.5 11.5 33.5s15.167 7.5 28.5 7.5s22.666 -2.5 27.999 -7.5s9 -16 11 -33s3 -46.167 3 -87.5
c0 -36 -1 -61.5 -3 -76.5s-5.66699 -24.833 -11 -29.5s-14.666 -7 -27.999 -7s-22.833 2.33301 -28.5 7z" />
    <glyph glyph-name="semicolon" unicode=";" horiz-adv-x="131" 
d="M25 224h83l-40 -345h-66zM37.5 646c-5.66699 4.66699 -9.5 14.5 -11.5 29.5s-3 40.5 -3 76.5c0 40.667 1 69.667 3 87s5.83301 28.5 11.5 33.5s15.167 7.5 28.5 7.5s22.666 -2.5 27.999 -7.5s9 -16 11 -33s3 -46.167 3 -87.5c0 -36 -1 -61.5 -3 -76.5
s-5.66699 -24.833 -11 -29.5s-14.666 -7 -27.999 -7s-22.833 2.33301 -28.5 7z" />
    <glyph glyph-name="less" unicode="&#x3c;" horiz-adv-x="253" 
d="M26 521v75l202 172v-92l-130 -117l130 -118v-92z" />
    <glyph glyph-name="equal" unicode="=" horiz-adv-x="244" 
d="M26 675h192v-67h-192v67zM26 508h192v-67h-192v67z" />
    <glyph glyph-name="greater" unicode="&#x3e;" horiz-adv-x="254" 
d="M26 441l130 118l-130 117v92l202 -172v-75l-202 -172v92z" />
    <glyph glyph-name="question" unicode="?" horiz-adv-x="261" 
d="M93 364l-3 280c-1.33301 14 1.66699 27 9 39s18.333 21.333 33 28c8.66699 9.33301 15 16.833 19 22.5s6 12.167 6 19.5v520c0 21.333 -9.33301 32 -28 32c-19.333 0 -29 -10.333 -29 -31v-457h-75v458c0 31.333 9 55.166 27 71.499s44.333 24.5 79 24.5
c70 0 105 -31.667 105 -95v-522c0 -14.667 -3.33301 -27.167 -10 -37.5s-17 -23.166 -31 -38.499c-16 -16 -24.333 -28 -25 -36l-1 -278l-6 -98h-64zM102.5 -4c-5.66699 5.33301 -9.5 16.6689 -11.5 34.002s-3 46 -3 86c0 35.333 1 60.666 3 75.999
s5.83301 25.166 11.5 29.499s14.834 6.5 27.501 6.5c13.333 0 22.833 -2.16699 28.5 -6.5s9.5 -14 11.5 -29s3 -40.5 3 -76.5c0 -40.667 -1 -69.667 -3 -87s-5.83301 -28.5 -11.5 -33.5s-15.167 -7.5 -28.5 -7.5c-12.667 0 -21.834 2.66699 -27.501 8z" />
    <glyph glyph-name="at" unicode="@" horiz-adv-x="497" 
d="M79.5 -165.5c-37 35.667 -55.502 86.8301 -55.502 153.497l1 1063c0 74.667 19.333 130.834 58 168.501s95 56.5 169 56.5c72 0 127 -18.333 165 -55s57 -90 57 -160v-963c0 -33.333 -8.33301 -59.5 -25 -78.5s-42.667 -28.5 -78 -28.5c-50.667 0 -81 19 -91 57
c-4 -18 -11.667 -32 -23 -42s-25.666 -15 -42.999 -15c-41.333 0 -62.666 32.333 -63.999 97v889c0 30.667 6.16699 54.5 18.5 71.5s30.166 25.5 53.499 25.5c30.667 0 54.334 -8.33301 71.001 -25l8 12l50 -6v-965c0 -22 9 -33 27 -33c18.667 0 28 11 28 33v979
c0 45.333 -13 80.333 -39 105s-64.333 37 -115 37c-56.667 0 -97.5 -13.167 -122.5 -39.5s-37.5 -66.5 -37.5 -120.5v-1063c0 -43.333 12 -77.333 36 -102s60.333 -38.667 109 -42l72 -3v-64c-2.66699 0 -10 -0.666992 -22 -2s-24.667 -1.66602 -38 -0.999023
c-76 4.66699 -132.5 24.834 -169.5 60.501zM278.998 98.9961v894c-10 12 -20.667 18 -32 18c-16 0 -24 -11.333 -24 -34v-880c0 -28 8 -42 24 -42c21.333 0 32 14.667 32 44z" />
    <glyph glyph-name="A" unicode="A" horiz-adv-x="252" 
d="M151 240h-50l-6 -240h-84l60 1360h110l60 -1360h-84zM149 305l-21 778h-5l-20 -778h46z" />
    <glyph glyph-name="B" unicode="B" horiz-adv-x="272" 
d="M26 1360h110c38 0 65.833 -7.33301 83.5 -22s26.5 -37.667 26.5 -69v-514c0 -38.667 -13.333 -64.667 -40 -78c27.333 -12 41 -36.667 41 -74v-512c0 -31.333 -8.83301 -54.333 -26.5 -69s-45.167 -22 -82.5 -22h-112v1360zM122 710c28 0 42 14 42 42v512
c0 20.667 -9.33301 31 -28 31h-28v-585h14zM136 66c18.667 0 28 10 28 30v511c0 27.333 -14 41 -42 41h-14v-582h28z" />
    <glyph glyph-name="C" unicode="C" horiz-adv-x="275" 
d="M52.5 16c-19 18.667 -28.5 46 -28.5 82v1163c0 73.333 37.667 110 113 110c74 0 112 -36 114 -108v-552h-86v556c0 19.333 -9.33301 29 -28 29s-28 -9.66699 -28 -29v-1174c0 -19.333 9.33301 -29 28 -29s28 9.66699 28 29v555h86v-551c-2 -72.667 -40 -109 -114 -109
c-37.333 0 -65.5 9.33301 -84.5 28z" />
    <glyph glyph-name="D" unicode="D" horiz-adv-x="273" 
d="M26 1360h111c75.333 0 113 -36 113 -108v-1144c0 -72 -37.667 -108 -113 -108h-111v1360zM136 74c10 0 17.333 2.66699 22 8s7 14 7 26v1144c0 12 -2.33301 20.667 -7 26s-12 8 -22 8h-27v-1212h27z" />
    <glyph glyph-name="E" unicode="E" horiz-adv-x="204" 
d="M26 1360h173v-70h-88v-583h69v-62h-69v-577h88v-68h-173v1360z" />
    <glyph glyph-name="F" unicode="F" horiz-adv-x="210" 
d="M26 1360h167v-69h-83v-631h70v-70h-70v-590h-84v1360z" />
    <glyph glyph-name="G" unicode="G" horiz-adv-x="275" 
d="M24 98v1163c0 73.333 37.667 110 113 110s113 -34.333 113 -103v-518h-85v521c0 19.333 -9.33301 29 -28 29s-28 -9.66699 -28 -29v-1188c0 -19.333 9.33301 -29 28 -29c12.667 0 22.334 2.66699 29.001 8v582h-25v61h109v-684c-26.667 -22 -64.334 -33 -113.001 -33
c-75.333 0 -113 36.667 -113 110z" />
    <glyph glyph-name="H" unicode="H" horiz-adv-x="275" 
d="M26 1360h83v-647h56v647h84v-1360h-84v644h-56v-644h-83v1360z" />
    <glyph glyph-name="I" unicode="I" horiz-adv-x="136" 
d="M26 1360h84v-1360h-84v1360z" />
    <glyph glyph-name="J" unicode="J" horiz-adv-x="170" 
d="M10 69h23c18.667 0 28 10 28 30v1261h84v-1263c0 -64.667 -31.333 -97 -94 -97h-41v69z" />
    <glyph glyph-name="K" unicode="K" horiz-adv-x="274" 
d="M26 1360h84v-645h23l34 645h86l-42 -680l45 -680h-86l-37 644h-23v-644h-84v1360z" />
    <glyph glyph-name="L" unicode="L" horiz-adv-x="194" 
d="M26 1360h84v-1289h70v-71h-154v1360z" />
    <glyph glyph-name="M" unicode="M" horiz-adv-x="384" 
d="M26 1360h112l51 -1053h5l52 1053h112v-1360h-78l15 1022h-7l-64 -1022h-64l-69 1023h-7l20 -1023h-78v1360z" />
    <glyph glyph-name="N" unicode="N" horiz-adv-x="273" 
d="M26 1360h86l20 -214l53 -795l6 -1l-22 1010h78v-1360h-86l-20 214l-54 803l-7 1l24 -1018h-78v1360z" />
    <glyph glyph-name="O" unicode="O" horiz-adv-x="275" 
d="M24 1269c0 32.667 9.5 57.833 28.5 75.5s47.167 26.5 84.5 26.5c76 0 114 -36.667 114 -110v-1163c0 -73.333 -38 -110 -114 -110c-36 0 -62.333 9 -79 27s-28 45.667 -34 83v1171zM137 63.999c18.667 0 28 9.66699 28 29v1174c0 19.333 -9.33301 29 -28 29
s-28 -9.66699 -28 -29v-1174c0 -19.333 9.33301 -29 28 -29z" />
    <glyph glyph-name="P" unicode="P" horiz-adv-x="271" 
d="M26 1360l108.999 0.000976562c36.667 0 64.334 -7.83301 83.001 -23.5s28 -40.834 28 -75.501v-844c0 -67.333 -36 -101 -108 -101h-28v-316h-84v1360zM135.999 383.001c18.667 0 28 11 28 33v844c0 20.667 -9.33301 31 -28 31h-28v-908h28z" />
    <glyph glyph-name="Q" unicode="Q" horiz-adv-x="275" 
d="M276 -111c-12.667 -7.33301 -29.332 -11 -49.999 -11c-12 -1.33301 -20.667 -2 -26 -2c-31.333 0 -55.333 8.66699 -72 26s-25.334 42.333 -26.001 75v14c-52 11.333 -78 47 -78 107v1163c0 73.333 37.667 110 113 110c76 0 114 -36.667 114 -110v-1163
c0 -58.667 -24.667 -94 -74 -106l1 -15c2 -22 13.667 -33 35 -33c6.66699 0 14 1 22 3l26 6zM109.002 93c0 -19.333 9.33301 -29 28 -29s28 9.66699 28 29v1174c0 19.333 -9.33301 29 -28 29s-28 -9.66699 -28 -29v-1174z" />
    <glyph glyph-name="R" unicode="R" horiz-adv-x="269" 
d="M218 560l26.999 -559.999h-81l-20 536h-6h-30v-536h-82v1360h109c36.667 0 64.334 -7.83301 83.001 -23.5s28 -40.834 28 -75.501v-623c0 -34.667 -9.33301 -60.667 -28 -78zM163.999 637.001v623c0 20.667 -9.33301 31 -28 31h-28v-691h28c18.667 0 28 12.333 28 37z
" />
    <glyph glyph-name="S" unicode="S" horiz-adv-x="268" 
d="M26 85l-0.00195312 370h80v-370c0 -19.333 9.33301 -29 28 -29s28 9.66699 28 29c0 77.333 -1.66699 153.333 -5 228c-6 106.667 -15 194 -27 262s-28 141.667 -48 221c-19.333 73.333 -33.5 138.5 -42.5 195.5s-13.5 129.167 -13.5 216.5v66
c0.666992 64.667 36.334 97 107.001 97c35.333 0 62.166 -8.33301 80.499 -25s27.5 -40.667 27.5 -72v-277h-79v277c0 19.333 -9.33301 29 -28 29s-28 -9.66699 -28 -29c0 -56 2 -107 6 -153c4.66699 -61.333 11.334 -115.833 20.001 -163.5s21 -103.5 37 -167.5
c16 -67.333 28.833 -126 38.5 -176s17.834 -112 24.501 -186s10 -160.333 10 -259v-86c0 -31.333 -9.16699 -55 -27.5 -71s-44.5 -24 -78.5 -24c-73.333 0 -110 32.333 -110 97z" />
    <glyph glyph-name="T" unicode="T" horiz-adv-x="188" 
d="M51 1288h-46v72h177v-72h-47v-1288h-84v1288z" />
    <glyph glyph-name="U" unicode="U" horiz-adv-x="273" 
d="M25 86v1274h83v-1269c0 -20.667 9.33301 -31 28 -31s28 10.333 28 31v1269h84v-1274c0 -65.333 -37.333 -98 -112 -98c-74 0 -111 32.667 -111 98z" />
    <glyph glyph-name="V" unicode="V" horiz-adv-x="252" 
d="M11 1360h84l29 -1083h5l28 1083h84l-60 -1360h-110z" />
    <glyph glyph-name="W" unicode="W" horiz-adv-x="423" 
d="M95 1360l29 -1083h5l28 1083h108l29 -1083h5l28 1083h85l-58 -1360h-110l-31 1042h-4l-30 -1042h-111l-57 1360h84z" />
    <glyph glyph-name="X" unicode="X" horiz-adv-x="269" 
d="M56 680l-35 680h84l26 -643h7l26 643h85l-36 -679l39 -681h-86l-28 640h-7l-28 -640h-85z" />
    <glyph glyph-name="Y" unicode="Y" horiz-adv-x="261" 
d="M89 426l-76 934h85l30 -734h5l29 734h86l-75 -934l1 -426h-85v426z" />
    <glyph glyph-name="Z" unicode="Z" horiz-adv-x="244" 
d="M18 63l116 1226h-115v71h207v-65l-116 -1224h116v-71h-208v63z" />
    <glyph glyph-name="bracketleft" unicode="[" horiz-adv-x="178" 
d="M26 1483h137v-67h-54v-1473h54v-67h-137v1607z" />
    <glyph glyph-name="backslash" unicode="\" horiz-adv-x="191" 
d="M118 -115l-129 1581h81l133 -1582z" />
    <glyph glyph-name="bracketright" unicode="]" horiz-adv-x="173" 
d="M10 -57h54v1473h-54v67h137v-1607h-137v67z" />
    <glyph glyph-name="asciicircum" unicode="^" horiz-adv-x="265" 
d="M85 1434h94l75 -732h-77l-44 613l-45 -613h-77z" />
    <glyph glyph-name="underscore" unicode="_" horiz-adv-x="175" 
d="M16 -29h142v-60h-142v60z" />
    <glyph glyph-name="grave" unicode="`" horiz-adv-x="137" 
d="M9 1404l83 3l36 -299h-64z" />
    <glyph glyph-name="a" unicode="a" 
d="M213 1055.5c18 -15.667 27 -38.833 27 -69.5v-986h-73l-11 41c-12 -34.667 -33.667 -52 -65 -52c-20.667 0 -36.834 7.66699 -48.501 23s-17.5 37.333 -17.5 66v464c0 32.667 8.5 56 25.5 70s43.5 21 79.5 21h1h30v351c0 20.667 -9.33301 31 -28 31s-28 -10 -28 -30v-314
h-76v314c0 32 8.83301 55.667 26.5 71s44.834 23 81.501 23c32.667 0 58 -7.83301 76 -23.5zM161 579.001h-26.999c-19.333 0 -29 -11 -29 -33v-464c0 -19.333 8.66699 -29 26 -29c9.33301 0 16.666 3.5 21.999 10.5s8 17.167 8 30.5v485z" />
    <glyph glyph-name="b" unicode="b" 
d="M96 35l-9 -35h-61v1360h83v-293l-1 -6c13.333 11.333 34 17 62 17c23.333 0 41 -8.5 53 -25.5s18 -42.167 18 -75.5v-889c0 -33.333 -6.16699 -58.5 -18.5 -75.5s-30.5 -25.5 -54.5 -25.5c-32.667 0 -56.667 16 -72 48zM161 65v915c0 20 -8 30 -24 30
c-12 0 -22.667 -4 -32 -12v-901c0 -28.667 10.667 -43 32 -43c10 0 18 3.66699 24 11z" />
    <glyph glyph-name="c" unicode="c" 
d="M52.5 14c-18.333 17.333 -27.5 42.668 -27.5 76.001v887c0 33.333 9.16699 58.666 27.5 75.999s45.166 26 80.499 26c70 0 106 -33.667 108 -101v-417h-80v419c0 19.333 -9.33301 29 -28 29s-28 -9.66699 -28 -29v-893c0 -19.333 9.33301 -29 28 -29s28 9.66699 28 29
v428h80v-426c-2 -67.333 -38 -101 -108 -101c-35.333 0 -62.166 8.66699 -80.499 26z" />
    <glyph glyph-name="d" unicode="d" 
d="M41 12.5c-11.333 17 -16.999 42.168 -16.999 75.501v889c0 33.333 6.16699 58.666 18.5 75.999s30.166 26 53.499 26c27.333 0 48 -6 62 -18l-2 6v293h84v-1360h-73l-10 38c-11.333 -34 -33.333 -51 -66 -51c-22 0 -38.667 8.5 -50 25.5zM152.001 65.501
c5.33301 7 8.00098 16.833 8.00098 29.5v904c-10 8 -20.667 12 -32 12c-16 0 -24 -11.333 -24 -34v-880c0 -12 2.16699 -22 6.5 -30s10.166 -12 17.499 -12c10.667 0 18.667 3.5 24 10.5z" />
    <glyph glyph-name="e" unicode="e" horiz-adv-x="267" 
d="M105 507l0.00195312 -429.999c0 -19.333 9.33301 -29 28 -29s28 9.66699 28 29v374h78v-373c-2.66699 -29.333 -12.834 -51.666 -30.501 -66.999s-42.834 -23 -75.501 -23c-35.333 0 -62.166 8.66699 -80.499 26s-27.5 42.666 -27.5 75.999v887
c0 33.333 9.16699 58.666 27.5 75.999s45.166 26 80.499 26c72 0 108 -33.667 108 -101l-1 -471h-135zM105.002 987.001v-422h56v422c0 19.333 -9.33301 29 -28 29s-28 -9.66699 -28 -29z" />
    <glyph glyph-name="f" unicode="f" horiz-adv-x="190" 
d="M36 997h-39v68h39v217c0 56 31 84 93 84c29.333 0 46 -1 50 -3v-61c0 1.33301 -11 2 -33 2c-18 0 -27 -8.66699 -27 -26v-213h61v-68h-61v-997h-83v997z" />
    <glyph glyph-name="g" unicode="g" horiz-adv-x="263" 
d="M24 -232l0.000976562 378c0 18.667 10.333 29 31 31c-20 7.33301 -30 25 -30 53v52c0 20.667 6 37.334 18 50.001c-10.667 11.333 -16 31.333 -16 60v594c0 62 33.667 93 101 93c27.333 0 50.333 -5.66699 69 -17c7.33301 11.333 18 17 32 17h39v-62h-29
c-0.666992 6 -5.33398 9.66699 -14.001 11c3.33301 -6.66699 5 -20.667 5 -42v-594c0 -60.667 -34 -91 -102 -91l-28 2l-6 -5v-51c0 -12.667 7.33301 -19.334 22 -20.001c14 0 24.667 0.333008 32 1c59.333 2.66699 89 -27 89 -89v-363c0 -31.333 -9 -54.833 -27 -70.5
s-45.333 -23.5 -82 -23.5c-69.333 0 -104 28.667 -104 86zM157.001 392v594c0 21.333 -9.66699 32 -29 32c-18.667 0 -28 -10.667 -28 -32v-594c0 -20 9.33301 -30 28 -30c19.333 0 29 10 29 30zM157.001 -227v362.999c0 20.667 -9.33301 31 -28 31l-29 -1v-393
c0 -9.33301 2.5 -16.666 7.5 -21.999s11.833 -8 20.5 -8c19.333 0 29 10 29 30z" />
    <glyph glyph-name="h" unicode="h" horiz-adv-x="268" 
d="M25 1360l80.998 0.000976562l3 -301c6.66699 3.33301 15.834 6.66602 27.501 9.99902s23.5 5 35.5 5c26.667 0 44.834 -7.83301 54.501 -23.5s14.5 -42.5 14.5 -80.5v-970h-80v969c0 17.333 -1 28.5 -3 33.5s-7.33301 7.5 -16 7.5c-14 0 -26.333 -6.33301 -37 -19v-991
h-80v1360z" />
    <glyph glyph-name="i" unicode="i" horiz-adv-x="136" 
d="M37.5 1106c-5.66699 4 -9.5 13.667 -11.5 29s-3 43 -3 83c0 40.667 1 68.834 3 84.501s5.83301 25.5 11.5 29.5s15.834 6 30.501 6s24.834 -2 30.501 -6s9.5 -13.833 11.5 -29.5s3 -43.834 3 -84.501c0 -40 -1 -67.667 -3 -83s-5.83301 -25 -11.5 -29
s-15.834 -6 -30.501 -6s-24.834 2 -30.501 6zM26 1064c17.333 -1.33301 30.333 -2 39 -2c16 0 31 0.666992 45 2v-1064h-84v1064z" />
    <glyph glyph-name="j" unicode="j" horiz-adv-x="136" 
d="M37.5 1106c-5.66699 4 -9.5 13.667 -11.5 29s-3 43 -3 83c0 40.667 1 68.834 3 84.501s5.83301 25.5 11.5 29.5s15.834 6 30.501 6s24.834 -2 30.501 -6s9.5 -13.833 11.5 -29.5s3 -43.834 3 -84.501c0 -40 -1 -67.667 -3 -83s-5.83301 -25 -11.5 -29
s-15.834 -6 -30.501 -6s-24.834 2 -30.501 6zM-22 -238l20 -0.000976562c8 0 14.667 2.33301 20 7s8 12.334 8 23.001v1272c16 -1.33301 27.667 -2 35 -2c12 0 22 0.333008 30 1s14.333 1 19 1v-1271c0 -36 -9.66699 -60.667 -29 -74s-44 -20 -74 -20h-29v63z" />
    <glyph glyph-name="k" unicode="k" horiz-adv-x="250" 
d="M26 1360h84l-2 -808l25 1l26 512h82l-34 -541l36 -524h-82l-29 487l-24 1v-488h-82v1360z" />
    <glyph glyph-name="l" unicode="l" horiz-adv-x="136" 
d="M26 1360h84v-1360h-84v1360z" />
    <glyph glyph-name="m" unicode="m" horiz-adv-x="403" 
d="M360 1053c11.333 -16.667 17.0029 -41.333 17.0029 -74v-979h-80v979c0 21.333 -7.66699 32 -23 32c-22 0 -33 -11 -33 -33v-978h-80v979c0 21.333 -8.33301 32 -25 32c-20.667 0 -31 -14.333 -31 -43v-968h-79v1065h71l11 -37c12 33.333 34 50 66 50
c31.333 0 51.666 -16.667 60.999 -50c11.333 33.333 36.666 50 75.999 50c21.333 0 37.666 -8.33301 48.999 -25z" />
    <glyph glyph-name="n" unicode="n" horiz-adv-x="267" 
d="M26 1065h71l11 -37c11.333 33.333 33.333 50 66 50c44.667 0 67 -33.333 67 -100v-978h-80v978c0 22 -8.33301 33 -25 33c-20.667 0 -31 -15 -31 -45v-966h-79v1065z" />
    <glyph glyph-name="o" unicode="o" horiz-adv-x="267" 
d="M26 89v889c0 33.333 9 58.5 27 75.5s44.667 25.5 80 25.5c72 0 108 -33.667 108 -101v-889c0 -67.333 -36 -101 -108 -101c-71.333 0 -107 33.667 -107 101zM162 87v893c0 20 -9.66699 30 -29 30c-18.667 0 -28 -10 -28 -30v-893c0 -20 9.33301 -30 28 -30
c19.333 0 29 10 29 30z" />
    <glyph glyph-name="p" unicode="p" 
d="M224 1052.5c11.333 -17 17 -42.167 17 -75.5v-887c0 -67.333 -25 -101 -75 -101c-20 0 -39.667 5.33301 -59 16v-300h-82l1 1360h72l10 -39c11.333 34.667 33.333 52 66 52c22 0 38.667 -8.5 50 -25.5zM161 980c0 20 -6.99805 30 -20.998 30
c-23.333 0 -35 -13.667 -35 -41v-896c11.333 -11.333 22.666 -17 33.999 -17c9.33301 0 16.666 3.66699 21.999 11v913z" />
    <glyph glyph-name="q" unicode="q" horiz-adv-x="267" 
d="M241 1065v-1360h-83v293l1 6c-13.333 -11.333 -34 -17 -62 -17c-23.333 0 -41 8.5 -53 25.5s-18 42.167 -18 75.5v889c0 33.333 6.16699 58.5 18.5 75.5s30.5 25.5 54.5 25.5c32.667 0 56.667 -16 72 -48l9 35h61zM162 969c0 28 -10.667 42 -32 42
c-10 0 -18 -3.66699 -24 -11v-915c0 -20 8 -30 24 -30c13.333 0 24 4.66699 32 14v900z" />
    <glyph glyph-name="r" unicode="r" horiz-adv-x="186" 
d="M26 1065h70.001l12 -37c10 32 25.333 48 46 48c11.333 0 20.666 -2.33301 27.999 -7v-69c-7.33301 4.66699 -17 7 -29 7c-28.667 0 -43 -15 -43 -45v-962h-84v1065z" />
    <glyph glyph-name="s" unicode="s" horiz-adv-x="259" 
d="M52 15.5c-17.333 17.667 -26.001 38.501 -26.001 62.501v294l76 -1v-293c0 -8 2.33301 -14.5 7 -19.5s11.667 -7.5 21 -7.5s16.333 2.5 21 7.5s7 11.833 7 20.5c0 24 -0.5 50.5 -1.5 79.5s-1.5 50.167 -1.5 63.5c-2 30 -3 58.333 -3 85
c-1.33301 53.333 -6.5 96.666 -15.5 129.999s-22.5 69.666 -40.5 108.999c-15.333 35.333 -27.5 67 -36.5 95s-16.833 65 -23.5 111s-10 101.667 -10 167v67c0 28 9.16699 50 27.5 66s43.166 24 74.499 24c32 0 57.333 -8.16699 76 -24.5s28 -38.166 28 -65.499v-250h-75
v252c0 6 -2.33301 11.833 -7 17.5s-11.667 8.5 -21 8.5s-16.333 -2.83301 -21 -8.5s-7 -11.5 -7 -17.5c0 -61.333 2.33301 -113.333 7 -156c3.33301 -46 8 -83.833 14 -113.5s12.333 -53 19 -70s15.667 -36.167 27 -57.5c14.667 -28 26.334 -55.333 35.001 -82
s16 -67.5 22 -122.5s9 -129.167 9 -222.5v-87c0 -26.667 -9.5 -48 -28.5 -64s-43.833 -24 -74.5 -24c-35.333 0 -61.666 8.83301 -78.999 26.5z" />
    <glyph glyph-name="t" unicode="t" horiz-adv-x="159" 
d="M57.5 25.5c-17 17 -25.5 40.5 -25.5 70.5v900h-28v62l27 13l19 236h65v-242h53v-69h-53v-896c0 -8.66699 2.66699 -16 8 -22s13 -9 23 -9h22v-69h-42c-28.667 0 -51.5 8.5 -68.5 25.5z" />
    <glyph glyph-name="u" unicode="u" 
d="M26 87v978h79v-978c0 -20 9.33301 -30 28 -30s28 10 28 30v978h79v-979c0 -65.333 -35.667 -98 -107 -98s-107 33 -107 99z" />
    <glyph glyph-name="v" unicode="v" horiz-adv-x="257" 
d="M18 1065h80l24 -765l3 -166h7l3 166l24 765h81l-49 -1065h-124z" />
    <glyph glyph-name="w" unicode="w" horiz-adv-x="425" 
d="M18 1065h79l24 -748l3 -183h7l2 183l25 748h110l24 -748l2 -183h8l3 183l23 748h80l-49 -1065h-116l-27 928h-7l-26 -928h-116z" />
    <glyph glyph-name="x" unicode="x" horiz-adv-x="267" 
d="M56 532l-34 533h83l25 -504h7l26 504h83l-35 -532l38 -533h-84l-27 501h-7l-28 -501h-84z" />
    <glyph glyph-name="y" unicode="y" horiz-adv-x="257" 
d="M43 -231h34c12 0 19.833 6 23.5 18s5.66699 23.167 6 33.5s0.5 16.5 0.5 18.5l7 168h-49l-47 1058h80l24 -765l3 -166h7l3 166l24 765h81l-50 -1232c-4 -47.333 -13.5 -81 -28.5 -101s-37.833 -30 -68.5 -30h-50v67z" />
    <glyph glyph-name="z" unicode="z" horiz-adv-x="241" 
d="M18 56l110 938h-109v71h203v-56l-109 -938h110v-71h-205v56z" />
    <glyph glyph-name="braceleft" unicode="{" horiz-adv-x="207" 
d="M84.5 -99.5c-19 16.333 -28.5 41.165 -28.5 74.498v631c0 12.667 -3.5 22.334 -10.5 29.001s-21.833 10 -44.5 10v66c22.667 0 37.5 3.33301 44.5 10s10.5 16.334 10.5 29.001v635c0 33.333 9.5 58 28.5 74s55.167 24 108.5 24v-66c-22 0 -36.5 -3 -43.5 -9
s-10.5 -14 -10.5 -24v-641c0 -33.333 -10.333 -54.666 -31 -63.999v-2c20.667 -8.66699 31 -30.334 31 -65.001v-636c0 -10 3.5 -18.167 10.5 -24.5s21.5 -9.5 43.5 -9.5v-66c-53.333 0 -89.5 8.16699 -108.5 24.5z" />
    <glyph glyph-name="bar" unicode="|" horiz-adv-x="138" 
d="M26 1689h86v-2012h-86v2012z" />
    <glyph glyph-name="braceright" unicode="}" horiz-adv-x="207" 
d="M14 -58c22 0 36.5 3.16797 43.5 9.50098s10.5 14.5 10.5 24.5v636c0 34.667 10.333 56.334 31 65.001v2c-20.667 9.33301 -31 30.666 -31 63.999v641c0 10 -3.5 18 -10.5 24s-21.5 9 -43.5 9v66c53.333 0 89.5 -8 108.5 -24s28.5 -40.667 28.5 -74v-635
c0 -12.667 3.5 -22.334 10.5 -29.001s22.167 -10 45.5 -10v-66c-23.333 0 -38.5 -3.33301 -45.5 -10s-10.5 -16.334 -10.5 -29.001v-631c0 -33.333 -9.5 -58.166 -28.5 -74.499s-55.167 -24.5 -108.5 -24.5v66z" />
    <glyph glyph-name="asciitilde" unicode="~" horiz-adv-x="243" 
d="M20 550l0.000976562 33c0 26.667 5.16699 45.5 15.5 56.5s28.166 16.5 53.499 16.5c20.667 0 35.334 -3.66699 44.001 -11s13.334 -20.333 14.001 -39v-64c0.666992 -7.33301 1.66699 -12.5 3 -15.5s3.33301 -4.5 6 -4.5s4.66699 1.66699 6 5s2 9.33301 2 18v111h57
l1 -123c0 -26.667 -5 -45.334 -15 -56.001s-27.667 -16 -53 -16c-20.667 0 -35.334 3.66699 -44.001 11s-13.334 20 -14.001 38v65c-0.666992 13.333 -3.66699 20 -9 20c-2.66699 0 -4.66699 -1.66699 -6 -5s-2 -9.66602 -2 -18.999v-111h-58
c0 45.333 -0.333008 75.333 -1 90z" />
    <glyph glyph-name="exclamdown" unicode="&#xa1;" horiz-adv-x="135" 
d="M38.5 873c-5.66699 4.66699 -9.33398 14.334 -11.001 29.001s-2.5 40 -2.5 76c0 41.333 0.833008 70.333 2.5 87s5.33398 27.667 11.001 33s15.5 8 29.5 8c13.333 0 22.833 -2.66699 28.5 -8s9.33398 -16.333 11.001 -33s2.5 -45.667 2.5 -87
c0 -36 -0.833008 -61.333 -2.5 -76s-5.33398 -24.334 -11.001 -29.001s-15.167 -7 -28.5 -7c-14 0 -23.833 2.33301 -29.5 7zM26 712l9 116h64l10 -116v-1007h-83v1007z" />
    <glyph glyph-name="cent" unicode="&#xa2;" 
d="M161 561v419c0 19.333 -9.33301 29 -28 29s-28 -9.66699 -28 -29v-893c0 -19.333 9.33301 -29 28 -29s28 9.66699 28 29v428h80v-426c-2 -58 -29.333 -91 -82 -99v-119h-53v119c-26.667 4 -46.834 14.5 -60.501 31.5s-20.5 39.833 -20.5 68.5v887
c0 28.667 6.83301 51.5 20.5 68.5s33.834 27.5 60.501 31.5v159h53v-159c52.667 -8 80 -41 82 -99v-417h-80z" />
    <glyph glyph-name="sterling" unicode="&#xa3;" horiz-adv-x="260" 
d="M14 62c8.66699 0.666992 13.833 2.66797 15.5 6.00098s2.5 11 2.5 23v452h-17v52h17v681c0 32.667 8.66699 56.667 26 72s44 23 80 23c68 0 102.333 -32.667 103 -98v-309h-74v307c0 9.33301 -2.5 16.666 -7.5 21.999s-11.833 8 -20.5 8c-18.667 0 -28 -10.333 -28 -31
l-1 -675h87v-52h-86v-475h129v-68l-226 -1v63z" />
    <glyph glyph-name="currency" unicode="&#xa4;" horiz-adv-x="301" 
d="M10 9l47 48.002c-6 12 -9 26.333 -9 43v890c0 15.333 2 28.333 6 39l-44 44l60 53l43 -43c10.667 4 23 6 37 6c15.333 0 28.333 -2 39 -6l43 43l60 -53l-46 -45c4 -10.667 6 -23.334 6 -38.001v-890c0 -16.667 -2.66699 -31.334 -8 -44.001l48 -47l-60 -52l-48 47
c-10 -2.66699 -21.333 -4 -34 -4c-13.333 -0 -24 1.33301 -32 4l-48 -47zM180 100.002v889c0 20 -10 30 -30 30c-19.333 0 -29 -10 -29 -30v-889c0 -19.333 9.66699 -29 29 -29c20 0 30 9.66699 30 29z" />
    <glyph glyph-name="yen" unicode="&#xa5;" horiz-adv-x="262" 
d="M22 624h40l-48 736h85l29 -733h6l29 733h86l-47 -736h37v-51h-217v51zM90 465h-68v51h217v-51h-65l1 -465h-85v465z" />
    <glyph glyph-name="brokenbar" unicode="&#xa6;" horiz-adv-x="138" 
d="M26 1689h86v-977h-86v977zM26 656h86v-979h-86v979z" />
    <glyph glyph-name="section" unicode="&#xa7;" horiz-adv-x="284" 
d="M179 1177l0.00292969 182.998c0 9.33301 -2.5 16.5 -7.5 21.5s-11.833 7.5 -20.5 7.5c-18.667 0 -28 -9.66699 -28 -29c0 -32.667 1 -64.667 3 -96c1.33301 -26.667 2 -46 2 -58c0.666992 -28.667 4.16699 -56 10.5 -82s16.5 -61.667 30.5 -107
c18 -57.333 33 -110.833 45 -160.5s22.333 -113.5 31 -191.5s13 -169.667 13 -275v-86c0 -47.333 -25 -75 -75 -83c14 -40.667 24.667 -74.667 32 -102s13.5 -62.833 18.5 -106.5s7.5 -96.834 7.5 -159.501v-66c0 -31.333 -9.16699 -54.833 -27.5 -70.5
s-44.5 -23.5 -78.5 -23.5c-72.667 0 -109 32 -109 96v183h79v-183c0 -19.333 9.33301 -29 28 -29s28 9.66699 28 29c0 34 -1 66 -3 96c-1.33301 26.667 -2 45.667 -2 57c-1.33301 34 -5.33301 66.167 -12 96.5s-17.334 70.833 -32.001 121.5
c-17.333 58.667 -31.833 112.834 -43.5 162.501s-21.667 111.167 -30 184.5s-12.5 157.333 -12.5 252v86c0 49.333 26 77 78 83l-9 24c-12.667 36 -22.334 66.833 -29.001 92.5s-12.334 58.834 -17.001 99.501s-7 91.334 -7 152.001v65c0 31.333 9.16699 54.833 27.5 70.5
s44.5 23.5 78.5 23.5c73.333 0 110 -32 110 -96v-182h-79zM173.003 534.998c-8 142.667 -25.332 256.667 -51.999 342c-10 -4 -15 -13 -15 -27c0 -102.667 1.66699 -181.667 5 -237c4.66699 -78.667 11.667 -144.167 21 -196.5s20.666 -99.833 33.999 -142.5
c8 4 12 12.333 12 25c0 84 -1.66699 162.667 -5 236z" />
    <glyph glyph-name="dieresis" unicode="&#xa8;" horiz-adv-x="233" 
d="M33.5 1113.5c-4.33301 3.66699 -7.33301 12.667 -9 27s-2.5 39.833 -2.5 76.5c0 41.333 0.833008 70.166 2.5 86.499s4.66699 26.5 9 30.5s12.166 6 23.499 6s19.166 -2 23.499 -6s7.33301 -14.167 9 -30.5s2.5 -45.166 2.5 -86.499
c0 -36.667 -0.833008 -62.167 -2.5 -76.5s-4.66699 -23.333 -9 -27s-12.166 -5.5 -23.499 -5.5s-19.166 1.83301 -23.499 5.5zM152.5 1113.5c-4.33301 3.66699 -7.16602 12.5 -8.49902 26.5s-2 39.667 -2 77c0 42 0.666992 71 2 87s4.16602 26 8.49902 30s12.166 6 23.499 6
c12 0 20.167 -2 24.5 -6s7.16602 -14 8.49902 -30s2 -45 2 -87c0 -37.333 -0.666992 -63 -2 -77s-4.16602 -22.833 -8.49902 -26.5s-12.5 -5.5 -24.5 -5.5c-11.333 0 -19.166 1.83301 -23.499 5.5z" />
    <glyph glyph-name="copyright" unicode="&#xa9;" horiz-adv-x="459" 
d="M77 -70c-35.333 35.333 -53.001 86.3311 -53.001 152.998l1 893c0 66.667 17.667 117.834 53 153.501s86.333 53.5 153 53.5s117.5 -17.667 152.5 -53s52.5 -86.666 52.5 -153.999v-893c0 -66.667 -17.5 -117.667 -52.5 -153s-85.833 -53 -152.5 -53
c-67.333 0 -118.666 17.667 -153.999 53zM344.999 -33.502c26.667 27 40.333 65.833 41 116.5v893c0 50.667 -13.5 89.667 -40.5 117s-65.167 41 -114.5 41c-50.667 0 -89.334 -13.5 -116.001 -40.5s-40 -66.167 -40 -117.5v-893c0 -50.667 13.333 -89.5 40 -116.5
s65.334 -40.5 116.001 -40.5c49.333 0 87.333 13.5 114 40.5zM153.498 15.498c-17.667 16.333 -26.5 40.498 -26.5 72.498v887c0 32.667 8.83301 57.167 26.5 73.5s42.834 24.5 75.501 24.5c31.333 0 56 -8.16699 74 -24.5s27.333 -40.166 28 -71.499v-418h-74v419
c0 9.33301 -2.5 16.5 -7.5 21.5s-11.833 7.5 -20.5 7.5c-18.667 0 -28 -9.66699 -28 -29v-893c0 -18.667 9.33301 -28 28 -28c8.66699 0 15.5 2.5 20.5 7.5s7.5 11.833 7.5 20.5v428h74v-426c-0.666992 -31.333 -10 -55.166 -28 -71.499s-42.667 -24.5 -74 -24.5
c-32.667 0 -57.834 8.16699 -75.501 24.5z" />
    <glyph glyph-name="ordfeminine" unicode="&#xaa;" horiz-adv-x="232" 
d="M19 861l-0.000976562 182c0 55.333 30.333 83 91 83h34v163c0 19.333 -9.33301 29 -28 29s-28 -9.66699 -28 -29v-126h-66v126c0 55.333 31.333 83 94 83c32.667 0 56.834 -6.83301 72.501 -20.5s23.5 -34.5 23.5 -62.5v-498h-62c-2 6 -5.33301 18.333 -10 37
c-12 -31.333 -32.333 -47 -61 -47c-40 0 -60 26.667 -60 80zM143.999 873v204h-27c-19.333 0 -29 -11 -29 -33v-182c0 -19.333 8.66699 -29 26 -29c20 0 30 13.333 30 40z" />
    <glyph glyph-name="guillemotleft" unicode="&#xab;" horiz-adv-x="308" 
d="M4 596l72 428l76 -2l-71 -426l71 -425l-76 -4zM141 596l72 428l76 -2l-71 -426l71 -425l-76 -4z" />
    <glyph glyph-name="logicalnot" unicode="&#xac;" horiz-adv-x="261" 
d="M165 524h-139v68h209v-128h-70v60z" />
    <glyph glyph-name="uni00AD" unicode="&#xad;" horiz-adv-x="239" 
d="M26 592h187v-68h-187v68z" />
    <glyph glyph-name="registered" unicode="&#xae;" horiz-adv-x="459" 
d="M77 -70c-35.333 35.333 -53.001 86.3311 -53.001 152.998l1 893c0 66.667 17.667 117.834 53 153.501s86.333 53.5 153 53.5s117.5 -17.667 152.5 -53s52.5 -86.666 52.5 -153.999v-893c0 -66.667 -17.5 -117.667 -52.5 -153s-85.833 -53 -152.5 -53
c-67.333 0 -118.666 17.667 -153.999 53zM344.999 -33.502c26.667 27 40.333 65.833 41 116.5v893c0 50.667 -13.5 89.667 -40.5 117s-65.167 41 -114.5 41c-50.667 0 -89.334 -13.5 -116.001 -40.5s-40 -66.167 -40 -117.5v-893c0 -50.667 13.333 -89.5 40 -116.5
s65.334 -40.5 116.001 -40.5c49.333 0 87.333 13.5 114 40.5zM131.998 1061h97c66 0 99 -29.333 99 -88v-462c-1.33301 -30.667 -9.33301 -53 -24 -67l24 -437h-70l-18 413h-38v-413h-70v1054zM228.998 477.998c18.667 0 28 11 28 33v461c0 19.333 -9.33301 29 -28 29h-27
v-523h27z" />
    <glyph glyph-name="macron" unicode="&#xaf;" horiz-adv-x="233" 
d="M26 1168h181v-60h-181v60z" />
    <glyph glyph-name="degree" unicode="&#xb0;" horiz-adv-x="238" 
d="M50 1132c-16 15.333 -24 38 -24 68v85c0 30 8 52.667 24 68s39 23 69 23s53 -7.66699 69 -23s24 -38 24 -68v-85c0 -30 -8 -52.667 -24 -68s-39 -23 -69 -23s-53 7.66699 -69 23zM147 1199v87c0 19.333 -9.33301 29 -28 29s-28 -9.66699 -28 -29v-87
c0 -19.333 9.33301 -29 28 -29s28 9.66699 28 29z" />
    <glyph glyph-name="plusminus" unicode="&#xb1;" horiz-adv-x="239" 
d="M86 574h-60v68h60v60h68v-60h59v-68h-59v-59h-68v59zM26 494h187v-68h-187v68z" />
    <glyph glyph-name="uni00B2" unicode="&#xb2;" horiz-adv-x="243" 
d="M24 851c34.667 94 59.499 163.166 74.499 207.499s26.667 86.333 35 126s12.5 78.834 12.5 117.501v153c0 19.333 -9.33301 29 -28 29c-20 0 -29.667 -10 -29 -30v-231h-65v231c0 58 32.333 87 97 87c32.667 0 57.167 -7.33301 73.5 -22s24.833 -35.667 25.5 -63v-153
c0 -54.667 -6 -105.167 -18 -151.5s-32.667 -110.5 -62 -192.5l-36 -103v-8l63 1c12.667 0.666992 30.334 1 53.001 1v-59h-196v60z" />
    <glyph glyph-name="uni00B3" unicode="&#xb3;" horiz-adv-x="244" 
d="M25 865v118h69v-118c-0.666992 -9.33301 1.33301 -16.666 6 -21.999s11.667 -8 21 -8c8.66699 0 15.5 2.66699 20.5 8s7.5 12.666 7.5 21.999v270c0 19.333 -11 29 -33 29h-85v54l119 250v5h-121v57h185l1 -64l-119 -251h26c64.667 0 97 -27 97 -81v-269
c0 -56.667 -32.667 -85 -98 -85c-64 0 -96 28.333 -96 85z" />
    <glyph glyph-name="acute" unicode="&#xb4;" horiz-adv-x="137" 
d="M46 1407l82 -3l-55 -296h-64z" />
    <glyph glyph-name="uni00B5" unicode="&#xb5;" horiz-adv-x="267" 
d="M25 1064l80 0.000976562v-991c10.667 -12.667 23 -19 37 -19c8.66699 0 14 2.33301 16 7s3 16 3 34v969h80v-970c0 -36.667 -5 -63.167 -15 -79.5s-28 -24.5 -54 -24.5c-13.333 0 -25.833 1.66699 -37.5 5s-20.167 6.66602 -25.5 9.99902l-3 -300h-81v1359z" />
    <glyph glyph-name="paragraph" unicode="&#xb6;" horiz-adv-x="344" 
d="M94 1204c-26.667 0 -47 6.66895 -61 20.002s-21 32.666 -21 57.999s7 44.666 21 57.999s34.667 20 62 20h73v-1592h-74v1436zM224 1360h96v-63h-21v-1533h-75v1596z" />
    <glyph glyph-name="periodcentered" unicode="&#xb7;" horiz-adv-x="130" 
d="M36.5 505c-5.66699 4.66699 -9.5 14.5 -11.5 29.5s-3 40.5 -3 76.5c0 40.667 1 69.667 3 87s5.83301 28.5 11.5 33.5s15.167 7.5 28.5 7.5s22.666 -2.5 27.999 -7.5s9 -16 11 -33s3 -46.167 3 -87.5c0 -36 -1 -61.5 -3 -76.5s-5.66699 -24.833 -11 -29.5
s-14.666 -7 -27.999 -7s-22.833 2.33301 -28.5 7z" />
    <glyph glyph-name="cedilla" unicode="&#xb8;" horiz-adv-x="258" 
d="M62 -415l8 57c6.66699 -3.33301 16 -5 28 -5c20 0 30 8.66699 30 26v153c0 19.333 -15.667 29 -47 29l4 171l64 -1l-2 -132c33.333 -2 50 -25.333 50 -70v-152c0 -56.667 -29.667 -85 -89 -85c-16.667 0 -32 3 -46 9z" />
    <glyph glyph-name="uni00B9" unicode="&#xb9;" horiz-adv-x="128" 
d="M31 1464l-43 -16l-1 63l52 19h63v-738h-72z" />
    <glyph glyph-name="ordmasculine" unicode="&#xba;" horiz-adv-x="232" 
d="M19 866v420c0 58.667 32.333 88 97 88s97 -29.333 97 -88v-420c0 -58 -32.333 -87 -97 -87s-97 29 -97 87zM144 865v422c0 19.333 -9.33301 29 -28 29s-28 -9.66699 -28 -29v-422c0 -19.333 9.33301 -29 28 -29s28 9.66699 28 29z" />
    <glyph glyph-name="guillemotright" unicode="&#xbb;" horiz-adv-x="286" 
d="M5 171l70 425l-70 426l75 2l72 -428l-72 -429zM134 171l70 425l-70 426l75 2l72 -428l-72 -429z" />
    <glyph glyph-name="onequarter" unicode="&#xbc;" horiz-adv-x="248" 
d="M90 1415l-44 -16v63l51 19h63v-737h-71zM16 702h214v-46h-214v46zM137 5h-128v57l74 553h124l1 -553h31v-58l-31 1v-130h-71v130zM139 62l1 497h-8l-58 -497h65z" />
    <glyph glyph-name="onehalf" unicode="&#xbd;" horiz-adv-x="246" 
d="M89 1414l-44 -16v63l51 19h63v-737h-71zM16 702h214v-46h-214v46zM23 -70c34.667 93.333 59.499 162.166 74.499 206.499s26.833 86.333 35.5 126s13 78.834 13 117.501v154c0 19.333 -9.66699 29 -29 29s-29 -10.333 -29 -31v-231h-65v231c0 58 32.667 87 98 87
c32.667 0 57.167 -7.33301 73.5 -22s24.5 -35.667 24.5 -63v-153c0 -56 -6 -107.167 -18 -153.5s-33.667 -112.833 -65 -199.5l-33 -94l1 -8c14.667 0 35.334 0.666992 62.001 2l53 1v-60h-196v61z" />
    <glyph glyph-name="questiondown" unicode="&#xbf;" horiz-adv-x="261" 
d="M158.5 1071.5c5.66699 -5 9.5 -16.1641 11.5 -33.4971s3 -46.333 3 -87c0 -36 -1 -61.5 -3 -76.5s-5.66699 -24.667 -11 -29s-14.666 -6.5 -27.999 -6.5s-22.833 2.16699 -28.5 6.5s-9.5 14.166 -11.5 29.499s-3 40.666 -3 75.999c0 40 1.16699 68.667 3.5 86
s6.16602 28.666 11.499 33.999s14.666 8 27.999 8c12.667 0 21.834 -2.5 27.501 -7.5zM168 703.003l3 -280c1.33301 -14 -1.5 -27 -8.5 -39s-18.167 -21.333 -33.5 -28c-8.66699 -9.33301 -15 -16.833 -19 -22.5s-6 -12.167 -6 -19.5v-520c0 -21.333 9.33301 -32 28 -32
c19.333 0 29 10 29 30v458h75v-458c0.666992 -31.333 -8 -55.166 -26 -71.499s-44.667 -24.5 -80 -24.5c-70 0 -105 31.667 -105 95v522c0 14.667 3.33301 27.167 10 37.5s17 23.166 31 38.499c16 16 24.333 28 25 36l1 278l7 98h63z" />
    <glyph glyph-name="Agrave" unicode="&#xc0;" horiz-adv-x="252" 
d="M151 240h-50l-6 -240h-84l60 1360h110l60 -1360h-84zM149 305l-21 778h-5l-20 -778h46zM39 1699l83 3l36 -299h-64z" />
    <glyph glyph-name="Aacute" unicode="&#xc1;" horiz-adv-x="252" 
d="M151 240h-50l-6 -240h-84l60 1360h110l60 -1360h-84zM149 305l-21 778h-5l-20 -778h46zM127 1702l82 -3l-55 -296h-64z" />
    <glyph glyph-name="Acircumflex" unicode="&#xc2;" horiz-adv-x="252" 
d="M151 240h-50l-6 -240h-84l60 1360h110l60 -1360h-84zM149 305l-21 778h-5l-20 -778h46zM30 1404l36 254h119l35 -254l-57 -1l-38 227l-37 -227z" />
    <glyph glyph-name="Atilde" unicode="&#xc3;" horiz-adv-x="252" 
d="M151 240h-50l-6 -240h-84l60 1360h110l60 -1360h-84zM149 305l-21 778h-5l-20 -778h46zM23 1546c0 26 4.99805 43.999 14.998 53.999s27.667 15 53 15c21.333 0 36.333 -3.66699 45 -11s13.334 -20.333 14.001 -39v-93c0 -13.333 3 -20 9 -20
c2.66699 0 4.66699 1.83301 6 5.5s2 9.83398 2 18.501v139h57l1 -141c0 -26 -5 -44 -15 -54s-27.667 -15 -53 -15c-21.333 0 -36.166 3.5 -44.499 10.5s-12.833 19.833 -13.5 38.5v93c-0.666992 13.333 -3.66699 20 -9 20c-6 0 -9 -8 -9 -24v-139l-57 1z" />
    <glyph glyph-name="Adieresis" unicode="&#xc4;" horiz-adv-x="252" 
d="M151 240h-50l-6 -240h-84l60 1360h110l60 -1360h-84zM149 305l-21 778h-5l-20 -778h46zM40.5 1408.5c-4.33301 3.66699 -7.33301 12.667 -9 27s-2.5 39.833 -2.5 76.5c0 41.333 0.833008 70.166 2.5 86.499s4.66699 26.5 9 30.5s12.166 6 23.499 6s19.166 -2 23.499 -6
s7.33301 -14.167 9 -30.5s2.5 -45.166 2.5 -86.499c0 -36.667 -0.833008 -62.167 -2.5 -76.5s-4.66699 -23.333 -9 -27s-12.166 -5.5 -23.499 -5.5s-19.166 1.83301 -23.499 5.5zM159.5 1408.5c-4.33301 3.66699 -7.16602 12.5 -8.49902 26.5s-2 39.667 -2 77
c0 42 0.666992 71 2 87s4.16602 26 8.49902 30s12.166 6 23.499 6c12 0 20.167 -2 24.5 -6s7.16602 -14 8.49902 -30s2 -45 2 -87c0 -37.333 -0.666992 -63 -2 -77s-4.16602 -22.833 -8.49902 -26.5s-12.5 -5.5 -24.5 -5.5c-11.333 0 -19.166 1.83301 -23.499 5.5z" />
    <glyph glyph-name="Aring" unicode="&#xc5;" horiz-adv-x="252" 
d="M151 240h-50l-6 -240h-84l60 1360h110l60 -1360h-84zM149 305l-21 778h-5l-20 -778h46zM38 1481v94c0 50.667 29 76 87 76s87 -25 87 -75v-95c0 -52 -29 -78 -87 -78s-87 26 -87 78zM154 1481v94c0 18.667 -9.66699 28 -29 28s-29 -9.33301 -29 -28v-94
c0 -20 9.66699 -30 29 -30s29 10 29 30z" />
    <glyph glyph-name="AE" unicode="&#xc6;" horiz-adv-x="343" 
d="M120 1360h217v-70h-88v-583h70v-62h-70v-577h89v-68h-173l1 241h-49l-14 -241h-85zM166 305l2 778h-5l-7 -230l-34 -548h44z" />
    <glyph glyph-name="Ccedilla" unicode="&#xc7;" horiz-adv-x="275" 
d="M165 711v556c0 19.333 -9.33301 29 -28 29s-28 -9.66699 -28 -29v-1174c0 -19.333 9.33301 -29 28 -29s28 9.66699 28 29v555h86v-551c-2 -62 -29.333 -97.333 -82 -106l-2 -107c33.333 -3.33301 50 -27 50 -71v-151c0 -56.667 -29.667 -85 -89 -85
c-16 0 -31.333 2.66699 -46 8l9 57c4.66699 -2.66699 13.667 -4 27 -4c20 0 30 8.66699 30 26v152c0 19.333 -15.333 29 -46 29l3 146c-54 10 -81 45.667 -81 107v1163c0 73.333 37.667 110 113 110c74 0 112 -36 114 -108v-552h-86z" />
    <glyph glyph-name="Egrave" unicode="&#xc8;" horiz-adv-x="204" 
d="M26 1360h173v-70h-88v-583h69v-62h-69v-577h88v-68h-173v1360zM27 1699l83 3l36 -299h-64z" />
    <glyph glyph-name="Eacute" unicode="&#xc9;" horiz-adv-x="204" 
d="M26 1360h173v-70h-88v-583h69v-62h-69v-577h88v-68h-173v1360zM115 1702l82 -3l-55 -296h-64z" />
    <glyph glyph-name="Ecircumflex" unicode="&#xca;" horiz-adv-x="204" 
d="M26 1360h173v-70h-88v-583h69v-62h-69v-577h88v-68h-173v1360zM18 1404l36 294h119l35 -294l-57 -1l-38 227l-37 -227z" />
    <glyph glyph-name="Edieresis" unicode="&#xcb;" horiz-adv-x="204" 
d="M26 1360h173v-70h-88v-583h69v-62h-69v-577h88v-68h-173v1360zM28.5 1408.5c-4.33301 3.66699 -7.33301 12.667 -9 27s-2.5 39.833 -2.5 76.5c0 41.333 0.833008 70.166 2.5 86.499s4.66699 26.5 9 30.5s12.166 6 23.499 6s19.166 -2 23.499 -6s7.33301 -14.167 9 -30.5
s2.5 -45.166 2.5 -86.499c0 -36.667 -0.833008 -62.167 -2.5 -76.5s-4.66699 -23.333 -9 -27s-12.166 -5.5 -23.499 -5.5s-19.166 1.83301 -23.499 5.5zM147.5 1408.5c-4.33301 3.66699 -7.16602 12.5 -8.49902 26.5s-2 39.667 -2 77c0 42 0.666992 71 2 87
s4.16602 26 8.49902 30s12.166 6 23.499 6c12 0 20.167 -2 24.5 -6s7.16602 -14 8.49902 -30s2 -45 2 -87c0 -37.333 -0.666992 -63 -2 -77s-4.16602 -22.833 -8.49902 -26.5s-12.5 -5.5 -24.5 -5.5c-11.333 0 -19.166 1.83301 -23.499 5.5z" />
    <glyph glyph-name="Igrave" unicode="&#xcc;" horiz-adv-x="136" 
d="M26 1360h84v-1360h-84v1360zM-17 1699l83 3l36 -299h-64z" />
    <glyph glyph-name="Iacute" unicode="&#xcd;" horiz-adv-x="136" 
d="M26 1360h84v-1360h-84v1360zM71 1702l82 -3l-55 -296h-64z" />
    <glyph glyph-name="Icircumflex" unicode="&#xce;" horiz-adv-x="136" 
d="M26 1360h84v-1360h-84v1360zM-26 1404l36 294h119l35 -294l-57 -1l-38 227l-37 -227z" />
    <glyph glyph-name="Idieresis" unicode="&#xcf;" horiz-adv-x="136" 
d="M26 1360h84v-1360h-84v1360zM-15.5 1408.5c-4.33301 3.66699 -7.33301 12.667 -9 27s-2.5 39.833 -2.5 76.5c0 41.333 0.833008 70.166 2.5 86.499s4.66699 26.5 9 30.5s12.166 6 23.499 6s19.166 -2 23.499 -6s7.33301 -14.167 9 -30.5s2.5 -45.166 2.5 -86.499
c0 -36.667 -0.833008 -62.167 -2.5 -76.5s-4.66699 -23.333 -9 -27s-12.166 -5.5 -23.499 -5.5s-19.166 1.83301 -23.499 5.5zM103.5 1408.5c-4.33301 3.66699 -7.16602 12.5 -8.49902 26.5s-2 39.667 -2 77c0 42 0.666992 71 2 87s4.16602 26 8.49902 30s12.166 6 23.499 6
c12 0 20.167 -2 24.5 -6s7.16602 -14 8.49902 -30s2 -45 2 -87c0 -37.333 -0.666992 -63 -2 -77s-4.16602 -22.833 -8.49902 -26.5s-12.5 -5.5 -24.5 -5.5c-11.333 0 -19.166 1.83301 -23.499 5.5z" />
    <glyph glyph-name="Eth" unicode="&#xd0;" horiz-adv-x="276" 
d="M222.5 1333c19.667 -18 29.5 -45.001 29.5 -81.001v-1144c0 -35.333 -9.5 -62.166 -28.5 -80.499s-46.833 -27.5 -83.5 -27.5h-112v637h-21v64h21v659h111c36 0 63.833 -9 83.5 -27zM168 1252c0 14 -2.33301 24.167 -7 30.5s-12 9.5 -22 9.5h-27v-591h32v-64h-32v-569h27
c10 0 17.333 3.16699 22 9.5s7 16.5 7 30.5v1144z" />
    <glyph glyph-name="Ntilde" unicode="&#xd1;" horiz-adv-x="273" 
d="M26 1360h86l20 -214l53 -795l6 -1l-22 1010h78v-1360h-86l-20 214l-54 803l-7 1l24 -1018h-78v1360zM36 1545c0 26.667 5.16699 45.5 15.5 56.5s27.833 16.5 52.5 16.5c21.333 0 36.333 -3.66699 45 -11s13.334 -20.333 14.001 -39v-93c0 -13.333 3 -20 9 -20
c2.66699 0 4.66699 1.66699 6 5s2 9.33301 2 18v140h57l1 -141c0 -26.667 -5 -45.5 -15 -56.5s-27.667 -16.5 -53 -16.5c-20.667 0 -35.334 3.66699 -44.001 11s-13.334 20 -14.001 38v93c-0.666992 13.333 -3.66699 20 -9 20c-3.33301 0 -5.66602 -1.66699 -6.99902 -5
s-2 -9.33301 -2 -18v-139h-57z" />
    <glyph glyph-name="Ograve" unicode="&#xd2;" horiz-adv-x="275" 
d="M24 1269c0 32.667 9.5 57.833 28.5 75.5s47.167 26.5 84.5 26.5c76 0 114 -36.667 114 -110v-1163c0 -73.333 -38 -110 -114 -110c-36 0 -62.333 9 -79 27s-28 45.667 -34 83v1171zM137 63.999c18.667 0 28 9.66699 28 29v1174c0 19.333 -9.33301 29 -28 29
s-28 -9.66699 -28 -29v-1174c0 -19.333 9.33301 -29 28 -29zM51 1710l83 3l36 -299h-64z" />
    <glyph glyph-name="Oacute" unicode="&#xd3;" horiz-adv-x="275" 
d="M24 1269c0 32.667 9.5 57.833 28.5 75.5s47.167 26.5 84.5 26.5c76 0 114 -36.667 114 -110v-1163c0 -73.333 -38 -110 -114 -110c-36 0 -62.333 9 -79 27s-28 45.667 -34 83v1171zM137 63.999c18.667 0 28 9.66699 28 29v1174c0 19.333 -9.33301 29 -28 29
s-28 -9.66699 -28 -29v-1174c0 -19.333 9.33301 -29 28 -29zM139 1713l82 -3l-55 -296h-64z" />
    <glyph glyph-name="Ocircumflex" unicode="&#xd4;" horiz-adv-x="275" 
d="M24 1269c0 32.667 9.5 57.833 28.5 75.5s47.167 26.5 84.5 26.5c76 0 114 -36.667 114 -110v-1163c0 -73.333 -38 -110 -114 -110c-36 0 -62.333 9 -79 27s-28 45.667 -34 83v1171zM137 63.999c18.667 0 28 9.66699 28 29v1174c0 19.333 -9.33301 29 -28 29
s-28 -9.66699 -28 -29v-1174c0 -19.333 9.33301 -29 28 -29zM42 1415l36 254h119l35 -254l-57 -1l-38 227l-37 -227z" />
    <glyph glyph-name="Otilde" unicode="&#xd5;" horiz-adv-x="275" 
d="M24 1269c0 32.667 9.5 57.833 28.5 75.5s47.167 26.5 84.5 26.5c76 0 114 -36.667 114 -110v-1163c0 -73.333 -38 -110 -114 -110c-36 0 -62.333 9 -79 27s-28 45.667 -34 83v1171zM137 63.999c18.667 0 28 9.66699 28 29v1174c0 19.333 -9.33301 29 -28 29
s-28 -9.66699 -28 -29v-1174c0 -19.333 9.33301 -29 28 -29zM35 1556c0 26.667 5.16699 45.5 15.5 56.5s27.833 16.5 52.5 16.5c21.333 0 36.333 -3.66699 45 -11s13.334 -20.333 14.001 -39v-93c0 -13.333 3 -20 9 -20c2.66699 0 4.66699 1.66699 6 5s2 9.33301 2 18v140
h57l1 -141c0 -26.667 -5 -45.5 -15 -56.5s-27.667 -16.5 -53 -16.5c-20.667 0 -35.334 3.66699 -44.001 11s-13.334 20 -14.001 38v93c-0.666992 13.333 -3.66699 20 -9 20c-3.33301 0 -5.66602 -1.66699 -6.99902 -5s-2 -9.33301 -2 -18v-139h-57z" />
    <glyph glyph-name="Odieresis" unicode="&#xd6;" horiz-adv-x="275" 
d="M24 1269c0 32.667 9.5 57.833 28.5 75.5s47.167 26.5 84.5 26.5c76 0 114 -36.667 114 -110v-1163c0 -73.333 -38 -110 -114 -110c-36 0 -62.333 9 -79 27s-28 45.667 -34 83v1171zM137 63.999c18.667 0 28 9.66699 28 29v1174c0 19.333 -9.33301 29 -28 29
s-28 -9.66699 -28 -29v-1174c0 -19.333 9.33301 -29 28 -29zM53.5 1419.5c-4.33301 3.66699 -7.33301 12.667 -9 27s-2.5 39.833 -2.5 76.5c0 41.333 0.833008 70.166 2.5 86.499s4.66699 26.5 9 30.5s12.166 6 23.499 6s19.166 -2 23.499 -6s7.33301 -14.167 9 -30.5
s2.5 -45.166 2.5 -86.499c0 -36.667 -0.833008 -62.167 -2.5 -76.5s-4.66699 -23.333 -9 -27s-12.166 -5.5 -23.499 -5.5s-19.166 1.83301 -23.499 5.5zM172.5 1419.5c-4.33301 3.66699 -7.16602 12.5 -8.49902 26.5s-2 39.667 -2 77c0 42 0.666992 71 2 87
s4.16602 26 8.49902 30s12.166 6 23.499 6c12 0 20.167 -2 24.5 -6s7.16602 -14 8.49902 -30s2 -45 2 -87c0 -37.333 -0.666992 -63 -2 -77s-4.16602 -22.833 -8.49902 -26.5s-12.5 -5.5 -24.5 -5.5c-11.333 0 -19.166 1.83301 -23.499 5.5z" />
    <glyph glyph-name="multiply" unicode="&#xd7;" horiz-adv-x="241" 
d="M31 512l43 43l-44 43l47 47l44 -43l43 43l47 -47l-44 -43l43 -42l-47 -47l-42 42l-43 -42z" />
    <glyph glyph-name="Oslash" unicode="&#xd8;" horiz-adv-x="279" 
d="M250 1281c0.666992 -4 0.999023 -10.668 0.999023 -20.001v-1163c0 -73.333 -38 -110 -114 -110c-20.667 0 -38 3 -52 9l-6 -49l-57 12l12 95c-5.33301 16.667 -8.66602 31 -9.99902 43v1171c0 32.667 9.5 57.834 28.5 75.501s47.167 26.5 84.5 26.5
c26 0 47.333 -4.33301 64 -13l6 47l57 -14zM108.999 639.999l56 437v190c0 19.333 -9.33301 29 -28 29s-28 -9.66699 -28 -29v-627zM164.999 618.999l-56 -437v-89c0 -19.333 9.33301 -29 28 -29s28 9.66699 28 29v526z" />
    <glyph glyph-name="Ugrave" unicode="&#xd9;" horiz-adv-x="273" 
d="M25 86v1274h83v-1269c0 -20.667 9.33301 -31 28 -31s28 10.333 28 31v1269h84v-1274c0 -65.333 -37.333 -98 -112 -98c-74 0 -111 32.667 -111 98zM50 1699l83 3l36 -299h-64z" />
    <glyph glyph-name="Uacute" unicode="&#xda;" horiz-adv-x="273" 
d="M25 86v1274h83v-1269c0 -20.667 9.33301 -31 28 -31s28 10.333 28 31v1269h84v-1274c0 -65.333 -37.333 -98 -112 -98c-74 0 -111 32.667 -111 98zM139 1702l82 -3l-55 -296h-64z" />
    <glyph glyph-name="Ucircumflex" unicode="&#xdb;" horiz-adv-x="273" 
d="M25 86v1274h83v-1269c0 -20.667 9.33301 -31 28 -31s28 10.333 28 31v1269h84v-1274c0 -65.333 -37.333 -98 -112 -98c-74 0 -111 32.667 -111 98zM41 1404l36 294h119l35 -294l-57 -1l-38 227l-37 -227z" />
    <glyph glyph-name="Udieresis" unicode="&#xdc;" horiz-adv-x="273" 
d="M25 86v1274h83v-1269c0 -20.667 9.33301 -31 28 -31s28 10.333 28 31v1269h84v-1274c0 -65.333 -37.333 -98 -112 -98c-74 0 -111 32.667 -111 98zM52.5 1408.5c-4.33301 3.66699 -7.33301 12.667 -9 27s-2.5 39.833 -2.5 76.5c0 41.333 0.833008 70.166 2.5 86.499
s4.66699 26.5 9 30.5s12.166 6 23.499 6s19.166 -2 23.499 -6s7.33301 -14.167 9 -30.5s2.5 -45.166 2.5 -86.499c0 -36.667 -0.833008 -62.167 -2.5 -76.5s-4.66699 -23.333 -9 -27s-12.166 -5.5 -23.499 -5.5s-19.166 1.83301 -23.499 5.5zM171.5 1408.5
c-4.33301 3.66699 -7.16602 12.5 -8.49902 26.5s-2 39.667 -2 77c0 42 0.666992 71 2 87s4.16602 26 8.49902 30s12.166 6 23.499 6c12 0 20.167 -2 24.5 -6s7.16602 -14 8.49902 -30s2 -45 2 -87c0 -37.333 -0.666992 -63 -2 -77s-4.16602 -22.833 -8.49902 -26.5
s-12.5 -5.5 -24.5 -5.5c-11.333 0 -19.166 1.83301 -23.499 5.5z" />
    <glyph glyph-name="Yacute" unicode="&#xdd;" horiz-adv-x="261" 
d="M89 426l-76 934h85l30 -734h5l29 734h86l-75 -934l1 -426h-85v426zM133 1658l82 -3l-55 -252h-64z" />
    <glyph glyph-name="Thorn" unicode="&#xde;" horiz-adv-x="269" 
d="M26 1360h84.001v-208h14c36.667 0 66.167 -8.83301 88.5 -26.5s33.5 -46.5 33.5 -86.5v-715c0 -38 -11.333 -66 -34 -84s-52.334 -27 -89.001 -27h-13v-214h-84v1361zM122.001 282c28 0 42 14 42 42v716c0 16.667 -3.66699 28.167 -11 34.5s-18 9.5 -32 9.5h-13v-802h14z
" />
    <glyph glyph-name="germandbls" unicode="&#xdf;" horiz-adv-x="271" 
d="M26 1281c0 33.333 9.83398 58 29.501 74s45.167 24 76.5 24c35.333 0 62.166 -7.83301 80.499 -23.5s27.5 -38.834 27.5 -69.501v-453c0 -41.333 -13.667 -64.666 -41 -69.999c30.667 -10 46 -34.667 46 -74v-591c0 -34 -9.83301 -58.833 -29.5 -74.5
s-46.167 -23.5 -79.5 -23.5h-12v68h11c19.333 0 29 10.333 29 31v590c0 24 -9.66699 36 -29 36h-11v64h11c19.333 0 29 12.667 29 38v453c0 20 -9.66699 30 -29 30c-20 0 -30 -10.333 -30 -31v-1279h-79v1281z" />
    <glyph glyph-name="agrave" unicode="&#xe0;" 
d="M213 1055.5c18 -15.667 27 -38.833 27 -69.5v-986h-73l-11 41c-12 -34.667 -33.667 -52 -65 -52c-20.667 0 -36.834 7.66699 -48.501 23s-17.5 37.333 -17.5 66v464c0 32.667 8.5 56 25.5 70s43.5 21 79.5 21h1h30v351c0 20.667 -9.33301 31 -28 31s-28 -10 -28 -30v-314
h-76v314c0 32 8.83301 55.667 26.5 71s44.834 23 81.501 23c32.667 0 58 -7.83301 76 -23.5zM161 579.001h-26.999c-19.333 0 -29 -11 -29 -33v-464c0 -19.333 8.66699 -29 26 -29c9.33301 0 16.666 3.5 21.999 10.5s8 17.167 8 30.5v485zM47.001 1418l83 3l36 -299h-64z
" />
    <glyph glyph-name="aacute" unicode="&#xe1;" 
d="M213 1055.5c18 -15.667 27 -38.833 27 -69.5v-986h-73l-11 41c-12 -34.667 -33.667 -52 -65 -52c-20.667 0 -36.834 7.66699 -48.501 23s-17.5 37.333 -17.5 66v464c0 32.667 8.5 56 25.5 70s43.5 21 79.5 21h1h30v351c0 20.667 -9.33301 31 -28 31s-28 -10 -28 -30v-314
h-76v314c0 32 8.83301 55.667 26.5 71s44.834 23 81.501 23c32.667 0 58 -7.83301 76 -23.5zM161 579.001h-26.999c-19.333 0 -29 -11 -29 -33v-464c0 -19.333 8.66699 -29 26 -29c9.33301 0 16.666 3.5 21.999 10.5s8 17.167 8 30.5v485zM136.001 1421l82 -3l-55 -296h-64z
" />
    <glyph glyph-name="acircumflex" unicode="&#xe2;" 
d="M213 1055.5c18 -15.667 27 -38.833 27 -69.5v-986h-73l-11 41c-12 -34.667 -33.667 -52 -65 -52c-20.667 0 -36.834 7.66699 -48.501 23s-17.5 37.333 -17.5 66v464c0 32.667 8.5 56 25.5 70s43.5 21 79.5 21h1h30v351c0 20.667 -9.33301 31 -28 31s-28 -10 -28 -30v-314
h-76v314c0 32 8.83301 55.667 26.5 71s44.834 23 81.501 23c32.667 0 58 -7.83301 76 -23.5zM161 579.001h-26.999c-19.333 0 -29 -11 -29 -33v-464c0 -19.333 8.66699 -29 26 -29c9.33301 0 16.666 3.5 21.999 10.5s8 17.167 8 30.5v485zM39.001 1123l36 254h119l35 -254
l-57 -1l-38 227l-37 -227z" />
    <glyph glyph-name="atilde" unicode="&#xe3;" 
d="M213 1055.5c18 -15.667 27 -38.833 27 -69.5v-986h-73l-11 41c-12 -34.667 -33.667 -52 -65 -52c-20.667 0 -36.834 7.66699 -48.501 23s-17.5 37.333 -17.5 66v464c0 32.667 8.5 56 25.5 70s43.5 21 79.5 21h1h30v351c0 20.667 -9.33301 31 -28 31s-28 -10 -28 -30v-314
h-76v314c0 32 8.83301 55.667 26.5 71s44.834 23 81.501 23c32.667 0 58 -7.83301 76 -23.5zM161 579.001h-26.999c-19.333 0 -29 -11 -29 -33v-464c0 -19.333 8.66699 -29 26 -29c9.33301 0 16.666 3.5 21.999 10.5s8 17.167 8 30.5v485zM32.001 1264
c0 26.667 5.16699 45.5 15.5 56.5s27.833 16.5 52.5 16.5c21.333 0 36.333 -3.66699 45 -11s13.334 -20.333 14.001 -39v-93c0 -13.333 3 -20 9 -20c2.66699 0 4.66699 1.66699 6 5s2 9.33301 2 18v140h57l1 -141c0 -26.667 -5 -45.5 -15 -56.5s-27.667 -16.5 -53 -16.5
c-20.667 0 -35.334 3.66699 -44.001 11s-13.334 20 -14.001 38v93c-0.666992 13.333 -3.66699 20 -9 20c-3.33301 0 -5.66602 -1.66699 -6.99902 -5s-2 -9.33301 -2 -18v-139h-57z" />
    <glyph glyph-name="adieresis" unicode="&#xe4;" 
d="M213 1055.5c18 -15.667 27 -38.833 27 -69.5v-986h-73l-11 41c-12 -34.667 -33.667 -52 -65 -52c-20.667 0 -36.834 7.66699 -48.501 23s-17.5 37.333 -17.5 66v464c0 32.667 8.5 56 25.5 70s43.5 21 79.5 21h1h30v351c0 20.667 -9.33301 31 -28 31s-28 -10 -28 -30v-314
h-76v314c0 32 8.83301 55.667 26.5 71s44.834 23 81.501 23c32.667 0 58 -7.83301 76 -23.5zM161 579.001h-26.999c-19.333 0 -29 -11 -29 -33v-464c0 -19.333 8.66699 -29 26 -29c9.33301 0 16.666 3.5 21.999 10.5s8 17.167 8 30.5v485zM49.501 1127.5
c-4.33301 3.66699 -7.33301 12.667 -9 27s-2.5 39.833 -2.5 76.5c0 41.333 0.833008 70.166 2.5 86.499s4.66699 26.5 9 30.5s12.166 6 23.499 6s19.166 -2 23.499 -6s7.33301 -14.167 9 -30.5s2.5 -45.166 2.5 -86.499c0 -36.667 -0.833008 -62.167 -2.5 -76.5
s-4.66699 -23.333 -9 -27s-12.166 -5.5 -23.499 -5.5s-19.166 1.83301 -23.499 5.5zM168.501 1127.5c-4.33301 3.66699 -7.16602 12.5 -8.49902 26.5s-2 39.667 -2 77c0 42 0.666992 71 2 87s4.16602 26 8.49902 30s12.166 6 23.499 6c12 0 20.167 -2 24.5 -6
s7.16602 -14 8.49902 -30s2 -45 2 -87c0 -37.333 -0.666992 -63 -2 -77s-4.16602 -22.833 -8.49902 -26.5s-12.5 -5.5 -24.5 -5.5c-11.333 0 -19.166 1.83301 -23.499 5.5z" />
    <glyph glyph-name="aring" unicode="&#xe5;" 
d="M213 1055.5c18 -15.667 27 -38.833 27 -69.5v-986h-73l-11 41c-12 -34.667 -33.667 -52 -65 -52c-20.667 0 -36.834 7.66699 -48.501 23s-17.5 37.333 -17.5 66v464c0 32.667 8.5 56 25.5 70s43.5 21 79.5 21h1h30v351c0 20.667 -9.33301 31 -28 31s-28 -10 -28 -30v-314
h-76v314c0 32 8.83301 55.667 26.5 71s44.834 23 81.501 23c32.667 0 58 -7.83301 76 -23.5zM161 579.001h-26.999c-19.333 0 -29 -11 -29 -33v-464c0 -19.333 8.66699 -29 26 -29c9.33301 0 16.666 3.5 21.999 10.5s8 17.167 8 30.5v485zM47.001 1200v94
c0 50.667 29 76 87 76s87 -25 87 -75v-95c0 -52 -29 -78 -87 -78s-87 26 -87 78zM163.001 1200v94c0 18.667 -9.66699 28 -29 28s-29 -9.33301 -29 -28v-94c0 -20 9.66699 -30 29 -30s29 10 29 30z" />
    <glyph glyph-name="ae" unicode="&#xe6;" horiz-adv-x="403" 
d="M189 33c-8 -12.667 -20.666 -23.168 -37.999 -31.501s-34.333 -12.5 -51 -12.5c-24.667 0 -43.167 7.5 -55.5 22.5s-18.5 37.167 -18.5 66.5v466c0 29.333 8.16699 51.5 24.5 66.5s40.833 22.5 73.5 22.5h37v351c0 20.667 -9.33301 31 -28 31s-28 -9.66699 -28 -29v-315
h-76v316c0 61.333 35 92 105 92c30.667 0 53.667 -7 69 -21c16 14 39.333 21 70 21c70 0 105 -33.667 105 -101l-1 -239c-0.666992 -52 -1 -129.333 -1 -232h-135v-430c0 -19.333 9.33301 -29 28 -29s28 9.66699 28 29v374h78v-373
c-2.66699 -29.333 -13 -51.666 -31 -66.999s-43 -23 -75 -23c-40.667 0 -67.334 15 -80.001 45zM297.001 563.999v422c0 19.333 -9.33301 29 -28 29s-28 -9.66699 -28 -29v-422h56zM161.001 93.999v485h-26c-20 0 -30 -11 -30 -33v-464c0 -19.333 8.66699 -29 26 -29
c20 0 30 13.667 30 41z" />
    <glyph glyph-name="ccedilla" unicode="&#xe7;" 
d="M161 561l0.000976562 419.001c0 19.333 -9.33301 29 -28 29s-28 -9.66699 -28 -29v-893c0 -19.333 9.33301 -29 28 -29s28 9.66699 28 29v428h80v-426c-2 -56.667 -27.333 -89.334 -76 -98.001l-2 -106c33.333 -3.33301 50 -27 50 -71v-151
c0 -56.667 -29.667 -85 -89 -85c-18 0 -33.333 2.66699 -46 8l9 57c4.66699 -2.66699 13.667 -4 27 -4c20 0 30 8.66699 30 26v152c0 19.333 -15.333 29 -46 29l3 145c-24.667 4.66699 -43.5 15.334 -56.5 32.001s-19.5 39 -19.5 67v887
c0 33.333 9.16699 58.666 27.5 75.999s45.166 26 80.499 26c70 0 106 -33.667 108 -101v-417h-80z" />
    <glyph glyph-name="egrave" unicode="&#xe8;" horiz-adv-x="267" 
d="M105 507l0.00195312 -429.999c0 -19.333 9.33301 -29 28 -29s28 9.66699 28 29v374h78v-373c-2.66699 -29.333 -12.834 -51.666 -30.501 -66.999s-42.834 -23 -75.501 -23c-35.333 0 -62.166 8.66699 -80.499 26s-27.5 42.666 -27.5 75.999v887
c0 33.333 9.16699 58.666 27.5 75.999s45.166 26 80.499 26c72 0 108 -33.667 108 -101l-1 -471h-135zM105.002 987.001v-422h56v422c0 19.333 -9.33301 29 -28 29s-28 -9.66699 -28 -29zM47.002 1420l83 3l36 -299h-64z" />
    <glyph glyph-name="eacute" unicode="&#xe9;" horiz-adv-x="267" 
d="M105 507l0.00195312 -429.999c0 -19.333 9.33301 -29 28 -29s28 9.66699 28 29v374h78v-373c-2.66699 -29.333 -12.834 -51.666 -30.501 -66.999s-42.834 -23 -75.501 -23c-35.333 0 -62.166 8.66699 -80.499 26s-27.5 42.666 -27.5 75.999v887
c0 33.333 9.16699 58.666 27.5 75.999s45.166 26 80.499 26c72 0 108 -33.667 108 -101l-1 -471h-135zM105.002 987.001v-422h56v422c0 19.333 -9.33301 29 -28 29s-28 -9.66699 -28 -29zM136.002 1423l82 -3l-55 -296h-64z" />
    <glyph glyph-name="ecircumflex" unicode="&#xea;" horiz-adv-x="267" 
d="M105 507l0.00195312 -429.999c0 -19.333 9.33301 -29 28 -29s28 9.66699 28 29v374h78v-373c-2.66699 -29.333 -12.834 -51.666 -30.501 -66.999s-42.834 -23 -75.501 -23c-35.333 0 -62.166 8.66699 -80.499 26s-27.5 42.666 -27.5 75.999v887
c0 33.333 9.16699 58.666 27.5 75.999s45.166 26 80.499 26c72 0 108 -33.667 108 -101l-1 -471h-135zM105.002 987.001v-422h56v422c0 19.333 -9.33301 29 -28 29s-28 -9.66699 -28 -29zM38.002 1125l36 254h119l35 -254l-57 -1l-38 227l-37 -227z" />
    <glyph glyph-name="edieresis" unicode="&#xeb;" horiz-adv-x="267" 
d="M105 507l0.00195312 -429.999c0 -19.333 9.33301 -29 28 -29s28 9.66699 28 29v374h78v-373c-2.66699 -29.333 -12.834 -51.666 -30.501 -66.999s-42.834 -23 -75.501 -23c-35.333 0 -62.166 8.66699 -80.499 26s-27.5 42.666 -27.5 75.999v887
c0 33.333 9.16699 58.666 27.5 75.999s45.166 26 80.499 26c72 0 108 -33.667 108 -101l-1 -471h-135zM105.002 987.001v-422h56v422c0 19.333 -9.33301 29 -28 29s-28 -9.66699 -28 -29zM49.502 1129.5c-4.33301 3.66699 -7.33301 12.667 -9 27s-2.5 39.833 -2.5 76.5
c0 41.333 0.833008 70.166 2.5 86.499s4.66699 26.5 9 30.5s12.166 6 23.499 6s19.166 -2 23.499 -6s7.33301 -14.167 9 -30.5s2.5 -45.166 2.5 -86.499c0 -36.667 -0.833008 -62.167 -2.5 -76.5s-4.66699 -23.333 -9 -27s-12.166 -5.5 -23.499 -5.5
s-19.166 1.83301 -23.499 5.5zM168.502 1129.5c-4.33301 3.66699 -7.16602 12.5 -8.49902 26.5s-2 39.667 -2 77c0 42 0.666992 71 2 87s4.16602 26 8.49902 30s12.166 6 23.499 6c12 0 20.167 -2 24.5 -6s7.16602 -14 8.49902 -30s2 -45 2 -87
c0 -37.333 -0.666992 -63 -2 -77s-4.16602 -22.833 -8.49902 -26.5s-12.5 -5.5 -24.5 -5.5c-11.333 0 -19.166 1.83301 -23.499 5.5z" />
    <glyph glyph-name="igrave" unicode="&#xec;" horiz-adv-x="135" 
d="M26 1065h83v-1065h-83v1065zM-18 1404l83 3l36 -299h-64z" />
    <glyph glyph-name="iacute" unicode="&#xed;" horiz-adv-x="135" 
d="M26 1065h83v-1065h-83v1065zM70 1407l82 -3l-55 -296h-64z" />
    <glyph glyph-name="icircumflex" unicode="&#xee;" horiz-adv-x="135" 
d="M26 1065h83v-1065h-83v1065zM-27 1109l36 294h119l35 -294l-57 -1l-38 227l-37 -227z" />
    <glyph glyph-name="idieresis" unicode="&#xef;" horiz-adv-x="135" 
d="M26 1065h83v-1065h-83v1065zM-16.5 1113.5c-4.33301 3.66699 -7.33301 12.667 -9 27s-2.5 39.833 -2.5 76.5c0 41.333 0.833008 70.166 2.5 86.499s4.66699 26.5 9 30.5s12.166 6 23.499 6s19.166 -2 23.499 -6s7.33301 -14.167 9 -30.5s2.5 -45.166 2.5 -86.499
c0 -36.667 -0.833008 -62.167 -2.5 -76.5s-4.66699 -23.333 -9 -27s-12.166 -5.5 -23.499 -5.5s-19.166 1.83301 -23.499 5.5zM102.5 1113.5c-4.33301 3.66699 -7.16602 12.5 -8.49902 26.5s-2 39.667 -2 77c0 42 0.666992 71 2 87s4.16602 26 8.49902 30s12.166 6 23.499 6
c12 0 20.167 -2 24.5 -6s7.16602 -14 8.49902 -30s2 -45 2 -87c0 -37.333 -0.666992 -63 -2 -77s-4.16602 -22.833 -8.49902 -26.5s-12.5 -5.5 -24.5 -5.5c-11.333 0 -19.166 1.83301 -23.499 5.5z" />
    <glyph glyph-name="eth" unicode="&#xf0;" 
d="M211 1212c20 -61.333 29.9971 -129.002 29.9971 -203.002v-919c0 -33.333 -9.16699 -58.666 -27.5 -75.999s-45.166 -26 -80.499 -26s-62.166 8.66699 -80.499 26s-27.5 43 -27.5 77v887c0 32.667 7 57.334 21 74.001s34.667 25 62 25
c12.667 -0.666992 23.167 -4.66699 31.5 -12s13.833 -17.333 16.5 -30h4c-2 60.667 -10.333 116.334 -25 167.001l-58 -8l-17 47l58 8c-14.667 38 -36 76.333 -64 115l78 5c26.667 -38.667 47.334 -75.334 62.001 -110.001l49 7l16 -47zM160.997 979.998
c0 21.333 -11 32 -33 32c-15.333 0 -23 -10.667 -23 -32v-893c0 -20 9.33301 -30 28 -30s28 10 28 30v893z" />
    <glyph glyph-name="ntilde" unicode="&#xf1;" horiz-adv-x="267" 
d="M26 1065h71l11 -37c11.333 33.333 33.333 50 66 50c44.667 0 67 -33.333 67 -100v-978h-80v978c0 22 -8.33301 33 -25 33c-20.667 0 -31 -15 -31 -45v-966h-79v1065zM31 1261c0 26.667 5.16699 45.5 15.5 56.5s27.833 16.5 52.5 16.5c21.333 0 36.333 -3.66699 45 -11
s13.334 -20.333 14.001 -39v-93c0 -13.333 3 -20 9 -20c2.66699 0 4.66699 1.66699 6 5s2 9.33301 2 18v140h57l1 -141c0 -26.667 -5 -45.5 -15 -56.5s-27.667 -16.5 -53 -16.5c-20.667 0 -35.334 3.66699 -44.001 11s-13.334 20 -14.001 38v93
c-0.666992 13.333 -3.66699 20 -9 20c-3.33301 0 -5.66602 -1.66699 -6.99902 -5s-2 -9.33301 -2 -18v-139h-57z" />
    <glyph glyph-name="ograve" unicode="&#xf2;" horiz-adv-x="267" 
d="M26 89v889c0 33.333 9 58.5 27 75.5s44.667 25.5 80 25.5c72 0 108 -33.667 108 -101v-889c0 -67.333 -36 -101 -108 -101c-71.333 0 -107 33.667 -107 101zM162 87v893c0 20 -9.66699 30 -29 30c-18.667 0 -28 -10 -28 -30v-893c0 -20 9.33301 -30 28 -30
c19.333 0 29 10 29 30zM47 1417l83 3l36 -299h-64z" />
    <glyph glyph-name="oacute" unicode="&#xf3;" horiz-adv-x="267" 
d="M26 89v889c0 33.333 9 58.5 27 75.5s44.667 25.5 80 25.5c72 0 108 -33.667 108 -101v-889c0 -67.333 -36 -101 -108 -101c-71.333 0 -107 33.667 -107 101zM162 87v893c0 20 -9.66699 30 -29 30c-18.667 0 -28 -10 -28 -30v-893c0 -20 9.33301 -30 28 -30
c19.333 0 29 10 29 30zM136 1420l82 -3l-55 -296h-64z" />
    <glyph glyph-name="ocircumflex" unicode="&#xf4;" horiz-adv-x="267" 
d="M26 89v889c0 33.333 9 58.5 27 75.5s44.667 25.5 80 25.5c72 0 108 -33.667 108 -101v-889c0 -67.333 -36 -101 -108 -101c-71.333 0 -107 33.667 -107 101zM162 87v893c0 20 -9.66699 30 -29 30c-18.667 0 -28 -10 -28 -30v-893c0 -20 9.33301 -30 28 -30
c19.333 0 29 10 29 30zM38 1122l36 254h119l35 -254l-57 -1l-38 227l-37 -227z" />
    <glyph glyph-name="otilde" unicode="&#xf5;" horiz-adv-x="267" 
d="M26 89v889c0 33.333 9 58.5 27 75.5s44.667 25.5 80 25.5c72 0 108 -33.667 108 -101v-889c0 -67.333 -36 -101 -108 -101c-71.333 0 -107 33.667 -107 101zM162 87v893c0 20 -9.66699 30 -29 30c-18.667 0 -28 -10 -28 -30v-893c0 -20 9.33301 -30 28 -30
c19.333 0 29 10 29 30zM32 1263c0 26.667 5.16699 45.5 15.5 56.5s27.833 16.5 52.5 16.5c21.333 0 36.333 -3.66699 45 -11s13.334 -20.333 14.001 -39v-93c0 -13.333 3 -20 9 -20c2.66699 0 4.66699 1.66699 6 5s2 9.33301 2 18v140h57l1 -141
c0 -26.667 -5 -45.5 -15 -56.5s-27.667 -16.5 -53 -16.5c-20.667 0 -35.334 3.66699 -44.001 11s-13.334 20 -14.001 38v93c-0.666992 13.333 -3.66699 20 -9 20c-3.33301 0 -5.66602 -1.66699 -6.99902 -5s-2 -9.33301 -2 -18v-139h-57z" />
    <glyph glyph-name="odieresis" unicode="&#xf6;" horiz-adv-x="267" 
d="M26 89v889c0 33.333 9 58.5 27 75.5s44.667 25.5 80 25.5c72 0 108 -33.667 108 -101v-889c0 -67.333 -36 -101 -108 -101c-71.333 0 -107 33.667 -107 101zM162 87v893c0 20 -9.66699 30 -29 30c-18.667 0 -28 -10 -28 -30v-893c0 -20 9.33301 -30 28 -30
c19.333 0 29 10 29 30zM49.5 1126.5c-4.33301 3.66699 -7.33301 12.667 -9 27s-2.5 39.833 -2.5 76.5c0 41.333 0.833008 70.166 2.5 86.499s4.66699 26.5 9 30.5s12.166 6 23.499 6s19.166 -2 23.499 -6s7.33301 -14.167 9 -30.5s2.5 -45.166 2.5 -86.499
c0 -36.667 -0.833008 -62.167 -2.5 -76.5s-4.66699 -23.333 -9 -27s-12.166 -5.5 -23.499 -5.5s-19.166 1.83301 -23.499 5.5zM168.5 1126.5c-4.33301 3.66699 -7.16602 12.5 -8.49902 26.5s-2 39.667 -2 77c0 42 0.666992 71 2 87s4.16602 26 8.49902 30s12.166 6 23.499 6
c12 0 20.167 -2 24.5 -6s7.16602 -14 8.49902 -30s2 -45 2 -87c0 -37.333 -0.666992 -63 -2 -77s-4.16602 -22.833 -8.49902 -26.5s-12.5 -5.5 -24.5 -5.5c-11.333 0 -19.166 1.83301 -23.499 5.5z" />
    <glyph glyph-name="divide" unicode="&#xf7;" horiz-adv-x="239" 
d="M26 592h187v-68h-187v68zM94.5 266.5c-5 4.33301 -8.5 13.832 -10.5 28.499s-3 39 -3 73c0 39.333 1 67.333 3 84s5.5 27.334 10.5 32.001s13.167 7 24.5 7c12 0 20.5 -2.33301 25.5 -7s8.5 -15.334 10.5 -32.001s3 -44.667 3 -84c0 -34.667 -1 -59.167 -3 -73.5
s-5.5 -23.666 -10.5 -27.999s-13.5 -6.5 -25.5 -6.5c-11.333 0 -19.5 2.16699 -24.5 6.5zM94.5 633.499c-5 4.33301 -8.5 13.832 -10.5 28.499s-3 39 -3 73c0 39.333 1 67.333 3 84s5.5 27.334 10.5 32.001s13.167 7 24.5 7c12 0 20.5 -2.33301 25.5 -7
s8.5 -15.334 10.5 -32.001s3 -44.667 3 -84c0 -34.667 -1 -59.167 -3 -73.5s-5.5 -23.666 -10.5 -27.999s-13.5 -6.5 -25.5 -6.5c-11.333 0 -19.5 2.16699 -24.5 6.5z" />
    <glyph glyph-name="oslash" unicode="&#xf8;" horiz-adv-x="265" 
d="M236 1017c3.33301 -13.333 5.00195 -26.333 5.00195 -39v-889c0 -67.333 -36 -101 -108 -101c-14.667 0 -29.334 1.66699 -44.001 5l-7 -50l-65 17l13 91c-3.33301 12 -5 24.667 -5 38v889c0 66.667 36 100 108 100c15.333 0 29.666 -1.66699 42.999 -5l7 48l65 -18z
M105.002 575l56 392v13c0 20 -9.33301 30 -28 30s-28 -10 -28 -30v-405zM161.002 495l-56 -391v-17c0 -20 9.33301 -30 28 -30s28 10 28 30v408z" />
    <glyph glyph-name="ugrave" unicode="&#xf9;" 
d="M26 87v978h79v-978c0 -20 9.33301 -30 28 -30s28 10 28 30v978h79v-979c0 -65.333 -35.667 -98 -107 -98s-107 33 -107 99zM45 1404l83 3l36 -299h-64z" />
    <glyph glyph-name="uacute" unicode="&#xfa;" 
d="M26 87v978h79v-978c0 -20 9.33301 -30 28 -30s28 10 28 30v978h79v-979c0 -65.333 -35.667 -98 -107 -98s-107 33 -107 99zM133 1407l82 -3l-55 -296h-64z" />
    <glyph glyph-name="ucircumflex" unicode="&#xfb;" 
d="M26 87v978h79v-978c0 -20 9.33301 -30 28 -30s28 10 28 30v978h79v-979c0 -65.333 -35.667 -98 -107 -98s-107 33 -107 99zM36 1109l36 294h119l35 -294l-57 -1l-38 227l-37 -227z" />
    <glyph glyph-name="udieresis" unicode="&#xfc;" 
d="M26 87v978h79v-978c0 -20 9.33301 -30 28 -30s28 10 28 30v978h79v-979c0 -65.333 -35.667 -98 -107 -98s-107 33 -107 99zM46.5 1113.5c-4.33301 3.66699 -7.33301 12.667 -9 27s-2.5 39.833 -2.5 76.5c0 41.333 0.833008 70.166 2.5 86.499s4.66699 26.5 9 30.5
s12.166 6 23.499 6s19.166 -2 23.499 -6s7.33301 -14.167 9 -30.5s2.5 -45.166 2.5 -86.499c0 -36.667 -0.833008 -62.167 -2.5 -76.5s-4.66699 -23.333 -9 -27s-12.166 -5.5 -23.499 -5.5s-19.166 1.83301 -23.499 5.5zM165.5 1113.5
c-4.33301 3.66699 -7.16602 12.5 -8.49902 26.5s-2 39.667 -2 77c0 42 0.666992 71 2 87s4.16602 26 8.49902 30s12.166 6 23.499 6c12 0 20.167 -2 24.5 -6s7.16602 -14 8.49902 -30s2 -45 2 -87c0 -37.333 -0.666992 -63 -2 -77s-4.16602 -22.833 -8.49902 -26.5
s-12.5 -5.5 -24.5 -5.5c-11.333 0 -19.166 1.83301 -23.499 5.5z" />
    <glyph glyph-name="yacute" unicode="&#xfd;" horiz-adv-x="257" 
d="M43 -231h34c12 0 19.833 6 23.5 18s5.66699 23.167 6 33.5s0.5 16.5 0.5 18.5l7 168h-49l-47 1058h80l24 -765l3 -166h7l3 166l24 765h81l-50 -1232c-4 -47.333 -13.5 -81 -28.5 -101s-37.833 -30 -68.5 -30h-50v67zM130 1363l82 -3l-55 -252h-64z" />
    <glyph glyph-name="thorn" unicode="&#xfe;" horiz-adv-x="268" 
d="M27 1363h84l-1 -315l-4 -25v-1c4 12 13.167 23.667 27.5 35s30.5 17 48.5 17c22 0 37.5 -8.33301 46.5 -25s13.5 -43.667 13.5 -81v-871c0 -36.667 -5 -63.5 -15 -80.5s-28 -25.5 -54 -25.5c-12.667 0 -25.167 1.66699 -37.5 5s-21.5 7 -27.5 11v-302h-82zM158.5 63
c2.33301 5.33301 3.50098 16.668 3.50098 34.001v871c0 17.333 -1 28.666 -3 33.999s-7.33301 8 -16 8c-10.667 0 -19.5 -4.16699 -26.5 -12.5s-10.5 -18.5 -10.5 -30.5v-891c11.333 -14 23.666 -21 36.999 -21c8 0 13.167 2.66699 15.5 8z" />
    <glyph glyph-name="ydieresis" unicode="&#xff;" horiz-adv-x="257" 
d="M43 -231h34c12 0 19.833 6 23.5 18s5.66699 23.167 6 33.5s0.5 16.5 0.5 18.5l7 168h-49l-47 1058h80l24 -765l3 -166h7l3 166l24 765h81l-50 -1232c-4 -47.333 -13.5 -81 -28.5 -101s-37.833 -30 -68.5 -30h-50v67zM43.5 1113.5c-4.33301 3.66699 -7.33301 12.667 -9 27
s-2.5 39.833 -2.5 76.5c0 41.333 0.833008 70.166 2.5 86.499s4.66699 26.5 9 30.5s12.166 6 23.499 6s19.166 -2 23.499 -6s7.33301 -14.167 9 -30.5s2.5 -45.166 2.5 -86.499c0 -36.667 -0.833008 -62.167 -2.5 -76.5s-4.66699 -23.333 -9 -27s-12.166 -5.5 -23.499 -5.5
s-19.166 1.83301 -23.499 5.5zM162.5 1113.5c-4.33301 3.66699 -7.16602 12.5 -8.49902 26.5s-2 39.667 -2 77c0 42 0.666992 71 2 87s4.16602 26 8.49902 30s12.166 6 23.499 6c12 0 20.167 -2 24.5 -6s7.16602 -14 8.49902 -30s2 -45 2 -87
c0 -37.333 -0.666992 -63 -2 -77s-4.16602 -22.833 -8.49902 -26.5s-12.5 -5.5 -24.5 -5.5c-11.333 0 -19.166 1.83301 -23.499 5.5z" />
    <glyph glyph-name="Amacron" unicode="&#x100;" horiz-adv-x="252" 
d="M151 240h-50l-6 -240h-84l60 1360h110l60 -1360h-84zM149 305l-21 778h-5l-20 -778h46zM34 1463h181v-60h-181v60z" />
    <glyph glyph-name="amacron" unicode="&#x101;" 
d="M213 1055.5c18 -15.667 27 -38.833 27 -69.5v-986h-73l-11 41c-12 -34.667 -33.667 -52 -65 -52c-20.667 0 -36.834 7.66699 -48.501 23s-17.5 37.333 -17.5 66v464c0 32.667 8.5 56 25.5 70s43.5 21 79.5 21h1h30v351c0 20.667 -9.33301 31 -28 31s-28 -10 -28 -30v-314
h-76v314c0 32 8.83301 55.667 26.5 71s44.834 23 81.501 23c32.667 0 58 -7.83301 76 -23.5zM161 579.001h-26.999c-19.333 0 -29 -11 -29 -33v-464c0 -19.333 8.66699 -29 26 -29c9.33301 0 16.666 3.5 21.999 10.5s8 17.167 8 30.5v485zM43.001 1182h181v-60h-181v60z" />
    <glyph glyph-name="Abreve" unicode="&#x102;" horiz-adv-x="252" 
d="M151 240h-50l-6 -240h-84l60 1360h110l60 -1360h-84zM149 305l-21 778h-5l-20 -778h46zM58.5 1426c-14.333 16 -21.833 40.667 -22.5 74v181h66v-181c0 -32 7.66699 -48 23 -48s23 16 23 48v181h66v-181c-0.666992 -33.333 -8.16699 -58 -22.5 -74s-36.5 -24 -66.5 -24
s-52.167 8 -66.5 24z" />
    <glyph glyph-name="abreve" unicode="&#x103;" 
d="M213 1055.5c18 -15.667 27 -38.833 27 -69.5v-986h-73l-11 41c-12 -34.667 -33.667 -52 -65 -52c-20.667 0 -36.834 7.66699 -48.501 23s-17.5 37.333 -17.5 66v464c0 32.667 8.5 56 25.5 70s43.5 21 79.5 21h1h30v351c0 20.667 -9.33301 31 -28 31s-28 -10 -28 -30v-314
h-76v314c0 32 8.83301 55.667 26.5 71s44.834 23 81.501 23c32.667 0 58 -7.83301 76 -23.5zM161 579.001h-26.999c-19.333 0 -29 -11 -29 -33v-464c0 -19.333 8.66699 -29 26 -29c9.33301 0 16.666 3.5 21.999 10.5s8 17.167 8 30.5v485zM67.501 1145
c-14.333 16 -21.833 40.667 -22.5 74v181h66v-181c0 -32 7.66699 -48 23 -48s23 16 23 48v181h66v-181c-0.666992 -33.333 -8.16699 -58 -22.5 -74s-36.5 -24 -66.5 -24s-52.167 8 -66.5 24z" />
    <glyph glyph-name="Aogonek" unicode="&#x104;" horiz-adv-x="252" 
d="M248 -264c-17.333 -40 -46.999 -60.001 -88.999 -60.001c-55.333 0 -83 26.333 -83 79c0 90 29.667 171.667 89 245h-8l-6 240h-50l-6 -240h-84l60 1360h110l60 -1360h-1c-57.333 -65.333 -86 -144.666 -86 -237.999c0 -16.667 6.66699 -25 20 -25
c11.333 0 21.666 8.66699 30.999 26zM149.001 304.999l-21 778h-5l-20 -778h46z" />
    <glyph glyph-name="aogonek" unicode="&#x105;" 
d="M247 -264c-16.667 -40 -46.332 -59.999 -88.999 -59.999c-55.333 0 -83 26.333 -83 79c0 91.333 30.333 174 91 248l-10 38c-12 -34.667 -33.667 -52 -65 -52c-20.667 0 -36.834 7.66699 -48.501 23s-17.5 37.333 -17.5 66v464c0 32.667 8.5 56 25.5 70s43.5 21 79.5 21
h1h30v351c0 20.667 -9.33301 31 -28 31s-28 -10 -28 -30v-314h-76v314c0 32 8.83301 55.667 26.5 71s44.834 23 81.501 23c32.667 0 58 -7.83301 76 -23.5s27 -38.834 27 -69.501v-986h-1c-57.333 -66.667 -86 -146 -86 -238c0 -16.667 6.66699 -25 20 -25
c11.333 0 21.666 8.66699 30.999 26zM161.002 579.001h-26.999c-19.333 0 -29 -11 -29 -33v-464c0 -19.333 8.66699 -29 26 -29c9.33301 0 16.666 3.5 21.999 10.5s8 17.167 8 30.5v485z" />
    <glyph glyph-name="Cacute" unicode="&#x106;" horiz-adv-x="275" 
d="M52.5 16c-19 18.667 -28.5 46 -28.5 82v1163c0 73.333 37.667 110 113 110c74 0 112 -36 114 -108v-552h-86v556c0 19.333 -9.33301 29 -28 29s-28 -9.66699 -28 -29v-1174c0 -19.333 9.33301 -29 28 -29s28 9.66699 28 29v555h86v-551c-2 -72.667 -40 -109 -114 -109
c-37.333 0 -65.5 9.33301 -84.5 28zM139 1713l82 -3l-55 -296h-64z" />
    <glyph glyph-name="cacute" unicode="&#x107;" 
d="M52.5 14c-18.333 17.333 -27.5 42.668 -27.5 76.001v887c0 33.333 9.16699 58.666 27.5 75.999s45.166 26 80.499 26c70 0 106 -33.667 108 -101v-417h-80v419c0 19.333 -9.33301 29 -28 29s-28 -9.66699 -28 -29v-893c0 -19.333 9.33301 -29 28 -29s28 9.66699 28 29
v428h80v-426c-2 -67.333 -38 -101 -108 -101c-35.333 0 -62.166 8.66699 -80.499 26zM135 1420l82 -3l-55 -296h-64z" />
    <glyph glyph-name="Ccircumflex" unicode="&#x108;" horiz-adv-x="275" 
d="M52.5 16c-19 18.667 -28.5 46 -28.5 82v1163c0 73.333 37.667 110 113 110c74 0 112 -36 114 -108v-552h-86v556c0 19.333 -9.33301 29 -28 29s-28 -9.66699 -28 -29v-1174c0 -19.333 9.33301 -29 28 -29s28 9.66699 28 29v555h86v-551c-2 -72.667 -40 -109 -114 -109
c-37.333 0 -65.5 9.33301 -84.5 28zM42 1415l36 294h119l35 -294l-57 -1l-38 227l-37 -227z" />
    <glyph glyph-name="ccircumflex" unicode="&#x109;" 
d="M52.5 14c-18.333 17.333 -27.5 42.668 -27.5 76.001v887c0 33.333 9.16699 58.666 27.5 75.999s45.166 26 80.499 26c70 0 106 -33.667 108 -101v-417h-80v419c0 19.333 -9.33301 29 -28 29s-28 -9.66699 -28 -29v-893c0 -19.333 9.33301 -29 28 -29s28 9.66699 28 29
v428h80v-426c-2 -67.333 -38 -101 -108 -101c-35.333 0 -62.166 8.66699 -80.499 26zM38 1122l36 294h119l35 -294l-57 -1l-38 227l-37 -227z" />
    <glyph glyph-name="Cdotaccent" unicode="&#x10a;" horiz-adv-x="275" 
d="M52.5 16c-19 18.667 -28.5 46 -28.5 82v1163c0 73.333 37.667 110 113 110c74 0 112 -36 114 -108v-552h-86v556c0 19.333 -9.33301 29 -28 29s-28 -9.66699 -28 -29v-1174c0 -19.333 9.33301 -29 28 -29s28 9.66699 28 29v555h86v-551c-2 -72.667 -40 -109 -114 -109
c-37.333 0 -65.5 9.33301 -84.5 28zM112.5 1418.5c-5 4.33301 -8.5 13.832 -10.5 28.499s-3 39 -3 73c0 39.333 1 67.333 3 84s5.5 27.334 10.5 32.001s13.167 7 24.5 7c12 0 20.5 -2.33301 25.5 -7s8.5 -15.334 10.5 -32.001s3 -44.667 3 -84
c0 -34.667 -1 -59.167 -3 -73.5s-5.5 -23.666 -10.5 -27.999s-13.5 -6.5 -25.5 -6.5c-11.333 0 -19.5 2.16699 -24.5 6.5z" />
    <glyph glyph-name="cdotaccent" unicode="&#x10b;" 
d="M52.5 14c-18.333 17.333 -27.5 42.668 -27.5 76.001v887c0 33.333 9.16699 58.666 27.5 75.999s45.166 26 80.499 26c70 0 106 -33.667 108 -101v-417h-80v419c0 19.333 -9.33301 29 -28 29s-28 -9.66699 -28 -29v-893c0 -19.333 9.33301 -29 28 -29s28 9.66699 28 29
v428h80v-426c-2 -67.333 -38 -101 -108 -101c-35.333 0 -62.166 8.66699 -80.499 26zM108.5 1125.5c-5 4.33301 -8.5 13.832 -10.5 28.499s-3 39 -3 73c0 39.333 1 67.333 3 84s5.5 27.334 10.5 32.001s13.167 7 24.5 7c12 0 20.5 -2.33301 25.5 -7
s8.5 -15.334 10.5 -32.001s3 -44.667 3 -84c0 -34.667 -1 -59.167 -3 -73.5s-5.5 -23.666 -10.5 -27.999s-13.5 -6.5 -25.5 -6.5c-11.333 0 -19.5 2.16699 -24.5 6.5z" />
    <glyph glyph-name="Ccaron" unicode="&#x10c;" horiz-adv-x="275" 
d="M52.5 16c-19 18.667 -28.5 46 -28.5 82v1163c0 73.333 37.667 110 113 110c74 0 112 -36 114 -108v-552h-86v556c0 19.333 -9.33301 29 -28 29s-28 -9.66699 -28 -29v-1174c0 -19.333 9.33301 -29 28 -29s28 9.66699 28 29v555h86v-551c-2 -72.667 -40 -109 -114 -109
c-37.333 0 -65.5 9.33301 -84.5 28zM33 1708l67 1l38 -227l37 227l67 -1l-55 -294h-99z" />
    <glyph glyph-name="ccaron" unicode="&#x10d;" 
d="M52.5 14c-18.333 17.333 -27.5 42.668 -27.5 76.001v887c0 33.333 9.16699 58.666 27.5 75.999s45.166 26 80.499 26c70 0 106 -33.667 108 -101v-417h-80v419c0 19.333 -9.33301 29 -28 29s-28 -9.66699 -28 -29v-893c0 -19.333 9.33301 -29 28 -29s28 9.66699 28 29
v428h80v-426c-2 -67.333 -38 -101 -108 -101c-35.333 0 -62.166 8.66699 -80.499 26zM29 1415l67 1l38 -227l37 227l67 -1l-55 -294h-99z" />
    <glyph glyph-name="Dcaron" unicode="&#x10e;" horiz-adv-x="273" 
d="M26 1360h111c75.333 0 113 -36 113 -108v-1144c0 -72 -37.667 -108 -113 -108h-111v1360zM136 74c10 0 17.333 2.66699 22 8s7 14 7 26v1144c0 12 -2.33301 20.667 -7 26s-12 8 -22 8h-27v-1212h27zM32 1697l67 1l38 -227l37 227l67 -1l-55 -294h-99z" />
    <glyph glyph-name="dcaron" unicode="&#x10f;" horiz-adv-x="367" 
d="M41 12.5c-11.333 17 -16.999 42.168 -16.999 75.501v889c0 33.333 6.16699 58.666 18.5 75.999s30.166 26 53.499 26c27.333 0 48 -6 62 -18l-2 6v293h84v-1360h-73l-10 38c-11.333 -34 -33.333 -51 -66 -51c-22 0 -38.667 8.5 -50 25.5zM152.001 65.501
c5.33301 7 8.00098 16.833 8.00098 29.5v904c-10 8 -20.667 12 -32 12c-16 0 -24 -11.333 -24 -34v-880c0 -12 2.16699 -22 6.5 -30s10.166 -12 17.499 -12c10.667 0 18.667 3.5 24 10.5zM288.002 1231l-6.00098 -0.000976562l-1 205h78v-182
c0 -31.333 -2.66699 -61.666 -8 -90.999s-11.666 -53.333 -18.999 -72h-65c14 46 21 92.667 21 140z" />
    <glyph glyph-name="Dcroat" unicode="&#x110;" horiz-adv-x="276" 
d="M222.5 1333c19.667 -18 29.5 -45.001 29.5 -81.001v-1144c0 -35.333 -9.5 -62.166 -28.5 -80.499s-46.833 -27.5 -83.5 -27.5h-112v637h-21v64h21v659h111c36 0 63.833 -9 83.5 -27zM168 1252c0 14 -2.33301 24.167 -7 30.5s-12 9.5 -22 9.5h-27v-591h32v-64h-32v-569h27
c10 0 17.333 3.16699 22 9.5s7 16.5 7 30.5v1144z" />
    <glyph glyph-name="dcroat" unicode="&#x111;" horiz-adv-x="279" 
d="M272 1171l-31.999 0.000976562v-1171h-73l-10 38c-11.333 -34 -33.333 -51 -66 -51c-22 0 -38.667 8.5 -50 25.5s-17 42.167 -17 75.5v889c0 33.333 6.16699 58.666 18.5 75.999s30.166 26 53.499 26c27.333 0 48 -6 62 -18l-2 6v104h-72v66h72v123h84v-123h32v-66z
M160.001 999.001c-10 8 -20.666 12 -31.999 12c-16 0 -24 -11.333 -24 -34v-880c0 -12 2.16699 -22 6.5 -30s10.166 -12 17.499 -12c10.667 0 18.667 3.5 24 10.5s8 16.833 8 29.5v904z" />
    <glyph glyph-name="Emacron" unicode="&#x112;" horiz-adv-x="204" 
d="M26 1360h173v-70h-88v-583h69v-62h-69v-577h88v-68h-173v1360zM22 1463h181v-60h-181v60z" />
    <glyph glyph-name="emacron" unicode="&#x113;" horiz-adv-x="267" 
d="M105 507l0.00195312 -429.999c0 -19.333 9.33301 -29 28 -29s28 9.66699 28 29v374h78v-373c-2.66699 -29.333 -12.834 -51.666 -30.501 -66.999s-42.834 -23 -75.501 -23c-35.333 0 -62.166 8.66699 -80.499 26s-27.5 42.666 -27.5 75.999v887
c0 33.333 9.16699 58.666 27.5 75.999s45.166 26 80.499 26c72 0 108 -33.667 108 -101l-1 -471h-135zM105.002 987.001v-422h56v422c0 19.333 -9.33301 29 -28 29s-28 -9.66699 -28 -29zM43.002 1184h181v-60h-181v60z" />
    <glyph glyph-name="Ebreve" unicode="&#x114;" horiz-adv-x="204" 
d="M26 1360h173v-70h-88v-583h69v-62h-69v-577h88v-68h-173v1360zM46.5 1426c-14.333 16 -21.833 40.667 -22.5 74v181h66v-181c0 -32 7.66699 -48 23 -48s23 16 23 48v181h66v-181c-0.666992 -33.333 -8.16699 -58 -22.5 -74s-36.5 -24 -66.5 -24s-52.167 8 -66.5 24z" />
    <glyph glyph-name="ebreve" unicode="&#x115;" horiz-adv-x="267" 
d="M105 507l0.00195312 -429.999c0 -19.333 9.33301 -29 28 -29s28 9.66699 28 29v374h78v-373c-2.66699 -29.333 -12.834 -51.666 -30.501 -66.999s-42.834 -23 -75.501 -23c-35.333 0 -62.166 8.66699 -80.499 26s-27.5 42.666 -27.5 75.999v887
c0 33.333 9.16699 58.666 27.5 75.999s45.166 26 80.499 26c72 0 108 -33.667 108 -101l-1 -471h-135zM105.002 987.001v-422h56v422c0 19.333 -9.33301 29 -28 29s-28 -9.66699 -28 -29zM65.502 1145.5c-13.667 15 -20.834 39.5 -21.501 73.5v155h66v-155
c0 -16.667 1.83301 -28.667 5.5 -36s9.5 -11 17.5 -11c8.66699 0 14.834 3.66699 18.501 11s5.5 19.333 5.5 36v155h65v-155c-0.666992 -34 -7.66699 -58.5 -21 -73.5s-36 -22.5 -68 -22.5c-31.333 0 -53.833 7.5 -67.5 22.5z" />
    <glyph glyph-name="Edotaccent" unicode="&#x116;" horiz-adv-x="204" 
d="M26 1360h173v-70h-88v-583h69v-62h-69v-577h88v-68h-173v1360zM88.5 1407.5c-5 4.33301 -8.5 13.832 -10.5 28.499s-3 39 -3 73c0 39.333 1 67.333 3 84s5.5 27.334 10.5 32.001s13.167 7 24.5 7c12 0 20.5 -2.33301 25.5 -7s8.5 -15.334 10.5 -32.001s3 -44.667 3 -84
c0 -34.667 -1 -59.167 -3 -73.5s-5.5 -23.666 -10.5 -27.999s-13.5 -6.5 -25.5 -6.5c-11.333 0 -19.5 2.16699 -24.5 6.5z" />
    <glyph glyph-name="edotaccent" unicode="&#x117;" horiz-adv-x="267" 
d="M105 507l0.00195312 -429.999c0 -19.333 9.33301 -29 28 -29s28 9.66699 28 29v374h78v-373c-2.66699 -29.333 -12.834 -51.666 -30.501 -66.999s-42.834 -23 -75.501 -23c-35.333 0 -62.166 8.66699 -80.499 26s-27.5 42.666 -27.5 75.999v887
c0 33.333 9.16699 58.666 27.5 75.999s45.166 26 80.499 26c72 0 108 -33.667 108 -101l-1 -471h-135zM105.002 987.001v-422h56v422c0 19.333 -9.33301 29 -28 29s-28 -9.66699 -28 -29zM108.502 1128.5c-5 4.33301 -8.5 13.832 -10.5 28.499s-3 39 -3 73
c0 39.333 1 67.333 3 84s5.5 27.334 10.5 32.001s13.167 7 24.5 7c12 0 20.5 -2.33301 25.5 -7s8.5 -15.334 10.5 -32.001s3 -44.667 3 -84c0 -34.667 -1 -59.167 -3 -73.5s-5.5 -23.666 -10.5 -27.999s-13.5 -6.5 -25.5 -6.5c-11.333 0 -19.5 2.16699 -24.5 6.5z" />
    <glyph glyph-name="Eogonek" unicode="&#x118;" horiz-adv-x="204" 
d="M207 -264c-17.333 -40 -46.999 -60.001 -88.999 -60.001c-55.333 0 -83 26.333 -83 79c0 90.667 29.333 172.334 88 245.001h-97v1360h173v-70h-88v-583h69v-62h-69v-577h88v-68h-1c-56.667 -66 -85 -145.333 -85 -238c0 -16.667 6.66699 -25 20 -25
c11.333 0 21.666 8.66699 30.999 26z" />
    <glyph glyph-name="eogonek" unicode="&#x119;" horiz-adv-x="267" 
d="M105 507l0.00195312 -429.999c0 -19.333 9.33301 -29 28 -29s28 9.66699 28 29v374h78v-373c-2.66699 -36 -17 -61.333 -43 -76c-54 -65.333 -81 -142.666 -81 -231.999c0 -17.333 6.66699 -26 20 -26c11.333 0 22 9 32 27l42 -27c-16.667 -40 -46.334 -60 -89.001 -60
c-55.333 0 -83 26.333 -83 79c0 81.333 25 156.666 75 225.999c-58 7.33301 -87 41 -87 101v887c0 33.333 9.16699 58.666 27.5 75.999s45.166 26 80.499 26c72 0 108 -33.667 108 -101l-1 -471h-135zM105.002 987.001v-422h56v422c0 19.333 -9.33301 29 -28 29
s-28 -9.66699 -28 -29z" />
    <glyph glyph-name="Ecaron" unicode="&#x11a;" horiz-adv-x="204" 
d="M26 1360h173v-70h-88v-583h69v-62h-69v-577h88v-68h-173v1360zM9 1697l67 1l38 -227l37 227l67 -1l-55 -294h-99z" />
    <glyph glyph-name="ecaron" unicode="&#x11b;" horiz-adv-x="267" 
d="M105 507l0.00195312 -429.999c0 -19.333 9.33301 -29 28 -29s28 9.66699 28 29v374h78v-373c-2.66699 -29.333 -12.834 -51.666 -30.501 -66.999s-42.834 -23 -75.501 -23c-35.333 0 -62.166 8.66699 -80.499 26s-27.5 42.666 -27.5 75.999v887
c0 33.333 9.16699 58.666 27.5 75.999s45.166 26 80.499 26c72 0 108 -33.667 108 -101l-1 -471h-135zM105.002 987.001v-422h56v422c0 19.333 -9.33301 29 -28 29s-28 -9.66699 -28 -29zM29.002 1418l67 1l38 -227l37 227l67 -1l-55 -294h-99z" />
    <glyph glyph-name="Gcircumflex" unicode="&#x11c;" horiz-adv-x="275" 
d="M24 98v1163c0 73.333 37.667 110 113 110s113 -34.333 113 -103v-518h-85v521c0 19.333 -9.33301 29 -28 29s-28 -9.66699 -28 -29v-1188c0 -19.333 9.33301 -29 28 -29c12.667 0 22.334 2.66699 29.001 8v582h-25v61h109v-684c-26.667 -22 -64.334 -33 -113.001 -33
c-75.333 0 -113 36.667 -113 110zM42 1415l36 294h119l35 -294l-57 -1l-38 227l-37 -227z" />
    <glyph glyph-name="gcircumflex" unicode="&#x11d;" horiz-adv-x="286" 
d="M47 -232l0.000976562 378c0 18.667 10.333 29 31 31c-20 7.33301 -30 25 -30 53v52c0 20.667 6 37.334 18 50.001c-10.667 11.333 -16 31.333 -16 60v594c0 62 33.667 93 101 93c27.333 0 50.333 -5.66699 69 -17c7.33301 11.333 18 17 32 17h39v-62h-29
c-0.666992 6 -5.33398 9.66699 -14.001 11c3.33301 -6.66699 5 -20.667 5 -42v-594c0 -60.667 -34 -91 -102 -91l-28 2l-6 -5v-51c0 -12.667 7.33301 -19.334 22 -20.001c14 0 24.667 0.333008 32 1c59.333 2.66699 89 -27 89 -89v-363c0 -31.333 -9 -54.833 -27 -70.5
s-45.333 -23.5 -82 -23.5c-69.333 0 -104 28.667 -104 86zM180.001 392v594c0 21.333 -9.66699 32 -29 32c-18.667 0 -28 -10.667 -28 -32v-594c0 -20 9.33301 -30 28 -30c19.333 0 29 10 29 30zM180.001 -227v362.999c0 20.667 -9.33301 31 -28 31l-29 -1v-393
c0 -9.33301 2.5 -16.666 7.5 -21.999s11.833 -8 20.5 -8c19.333 0 29 10 29 30zM53.001 1137l36 294h119l35 -294l-57 -1l-38 227l-37 -227z" />
    <glyph glyph-name="Gbreve" unicode="&#x11e;" horiz-adv-x="275" 
d="M24 98v1163c0 73.333 37.667 110 113 110s113 -34.333 113 -103v-518h-85v521c0 19.333 -9.33301 29 -28 29s-28 -9.66699 -28 -29v-1188c0 -19.333 9.33301 -29 28 -29c12.667 0 22.334 2.66699 29.001 8v582h-25v61h109v-684c-26.667 -22 -64.334 -33 -113.001 -33
c-75.333 0 -113 36.667 -113 110zM70.5 1437c-14.333 16 -21.833 40.667 -22.5 74v181h66v-181c0 -32 7.66699 -48 23 -48s23 16 23 48v181h66v-181c-0.666992 -33.333 -8.16699 -58 -22.5 -74s-36.5 -24 -66.5 -24s-52.167 8 -66.5 24z" />
    <glyph glyph-name="gbreve" unicode="&#x11f;" horiz-adv-x="263" 
d="M24 -232l0.000976562 378c0 18.667 10.333 29 31 31c-20 7.33301 -30 25 -30 53v52c0 20.667 6 37.334 18 50.001c-10.667 11.333 -16 31.333 -16 60v594c0 62 33.667 93 101 93c27.333 0 50.333 -5.66699 69 -17c7.33301 11.333 18 17 32 17h39v-62h-29
c-0.666992 6 -5.33398 9.66699 -14.001 11c3.33301 -6.66699 5 -20.667 5 -42v-594c0 -60.667 -34 -91 -102 -91l-28 2l-6 -5v-51c0 -12.667 7.33301 -19.334 22 -20.001c14 0 24.667 0.333008 32 1c59.333 2.66699 89 -27 89 -89v-363c0 -31.333 -9 -54.833 -27 -70.5
s-45.333 -23.5 -82 -23.5c-69.333 0 -104 28.667 -104 86zM157.001 392v594c0 21.333 -9.66699 32 -29 32c-18.667 0 -28 -10.667 -28 -32v-594c0 -20 9.33301 -30 28 -30c19.333 0 29 10 29 30zM157.001 -227v362.999c0 20.667 -9.33301 31 -28 31l-29 -1v-393
c0 -9.33301 2.5 -16.666 7.5 -21.999s11.833 -8 20.5 -8c19.333 0 29 10 29 30zM61.501 1145c-14.333 16 -21.833 40.667 -22.5 74v181h66v-181c0 -32 7.66699 -48 23 -48s23 16 23 48v181h66v-181c-0.666992 -33.333 -8.16699 -58 -22.5 -74s-36.5 -24 -66.5 -24
s-52.167 8 -66.5 24z" />
    <glyph glyph-name="Gdotaccent" unicode="&#x120;" horiz-adv-x="275" 
d="M24 98v1163c0 73.333 37.667 110 113 110s113 -34.333 113 -103v-518h-85v521c0 19.333 -9.33301 29 -28 29s-28 -9.66699 -28 -29v-1188c0 -19.333 9.33301 -29 28 -29c12.667 0 22.334 2.66699 29.001 8v582h-25v61h109v-684c-26.667 -22 -64.334 -33 -113.001 -33
c-75.333 0 -113 36.667 -113 110zM112.5 1418.5c-5 4.33301 -8.5 13.832 -10.5 28.499s-3 39 -3 73c0 39.333 1 67.333 3 84s5.5 27.334 10.5 32.001s13.167 7 24.5 7c12 0 20.5 -2.33301 25.5 -7s8.5 -15.334 10.5 -32.001s3 -44.667 3 -84c0 -34.667 -1 -59.167 -3 -73.5
s-5.5 -23.666 -10.5 -27.999s-13.5 -6.5 -25.5 -6.5c-11.333 0 -19.5 2.16699 -24.5 6.5z" />
    <glyph glyph-name="gdotaccent" unicode="&#x121;" horiz-adv-x="263" 
d="M24 -232l0.000976562 378c0 18.667 10.333 29 31 31c-20 7.33301 -30 25 -30 53v52c0 20.667 6 37.334 18 50.001c-10.667 11.333 -16 31.333 -16 60v594c0 62 33.667 93 101 93c27.333 0 50.333 -5.66699 69 -17c7.33301 11.333 18 17 32 17h39v-62h-29
c-0.666992 6 -5.33398 9.66699 -14.001 11c3.33301 -6.66699 5 -20.667 5 -42v-594c0 -60.667 -34 -91 -102 -91l-28 2l-6 -5v-51c0 -12.667 7.33301 -19.334 22 -20.001c14 0 24.667 0.333008 32 1c59.333 2.66699 89 -27 89 -89v-363c0 -31.333 -9 -54.833 -27 -70.5
s-45.333 -23.5 -82 -23.5c-69.333 0 -104 28.667 -104 86zM157.001 392v594c0 21.333 -9.66699 32 -29 32c-18.667 0 -28 -10.667 -28 -32v-594c0 -20 9.33301 -30 28 -30c19.333 0 29 10 29 30zM157.001 -227v362.999c0 20.667 -9.33301 31 -28 31l-29 -1v-393
c0 -9.33301 2.5 -16.666 7.5 -21.999s11.833 -8 20.5 -8c19.333 0 29 10 29 30zM103.501 1126.5c-5 4.33301 -8.5 13.832 -10.5 28.499s-3 39 -3 73c0 39.333 1 67.333 3 84s5.5 27.334 10.5 32.001s13.167 7 24.5 7c12 0 20.5 -2.33301 25.5 -7s8.5 -15.334 10.5 -32.001
s3 -44.667 3 -84c0 -34.667 -1 -59.167 -3 -73.5s-5.5 -23.666 -10.5 -27.999s-13.5 -6.5 -25.5 -6.5c-11.333 0 -19.5 2.16699 -24.5 6.5z" />
    <glyph glyph-name="uni0122" unicode="&#x122;" horiz-adv-x="275" 
d="M24 98v1163c0 73.333 37.667 110 113 110s113 -34.333 113 -103v-518h-85v521c0 19.333 -9.33301 29 -28 29s-28 -9.66699 -28 -29v-1188c0 -19.333 9.33301 -29 28 -29c12.667 0 22.334 2.66699 29.001 8v582h-25v61h109v-684c-26.667 -22 -64.334 -33 -113.001 -33
c-75.333 0 -113 36.667 -113 110zM95 -59h83l-39 -330h-66z" />
    <glyph glyph-name="uni0123" unicode="&#x123;" horiz-adv-x="263" 
d="M24 -232l0.000976562 378c0 18.667 10.333 29 31 31c-20 7.33301 -30 25 -30 53v52c0 20.667 6 37.334 18 50.001c-10.667 11.333 -16 31.333 -16 60v594c0 62 33.667 93 101 93c27.333 0 50.333 -5.66699 69 -17c7.33301 11.333 18 17 32 17h39v-62h-29
c-0.666992 6 -5.33398 9.66699 -14.001 11c3.33301 -6.66699 5 -20.667 5 -42v-594c0 -60.667 -34 -91 -102 -91l-28 2l-6 -5v-51c0 -12.667 7.33301 -19.334 22 -20.001c14 0 24.667 0.333008 32 1c59.333 2.66699 89 -27 89 -89v-363c0 -31.333 -9 -54.833 -27 -70.5
s-45.333 -23.5 -82 -23.5c-69.333 0 -104 28.667 -104 86zM157.001 392v594c0 21.333 -9.66699 32 -29 32c-18.667 0 -28 -10.667 -28 -32v-594c0 -20 9.33301 -30 28 -30c19.333 0 29 10 29 30zM157.001 -227v362.999c0 20.667 -9.33301 31 -28 31l-29 -1v-393
c0 -9.33301 2.5 -16.666 7.5 -21.999s11.833 -8 20.5 -8c19.333 0 29 10 29 30zM120.001 1412h66l-22 -290h-83z" />
    <glyph glyph-name="Hcircumflex" unicode="&#x124;" horiz-adv-x="275" 
d="M26 1360h83v-647h56v647h84v-1360h-84v644h-56v-644h-83v1360zM41 1404l36 294h119l35 -294l-57 -1l-38 227l-37 -227z" />
    <glyph glyph-name="hcircumflex" unicode="&#x125;" horiz-adv-x="268" 
d="M25 1360l80.998 0.000976562l3 -301c6.66699 3.33301 15.834 6.66602 27.501 9.99902s23.5 5 35.5 5c26.667 0 44.834 -7.83301 54.501 -23.5s14.5 -42.5 14.5 -80.5v-970h-80v969c0 17.333 -1 28.5 -3 33.5s-7.33301 7.5 -16 7.5c-14 0 -26.333 -6.33301 -37 -19v-991
h-80v1360zM-9.00195 1404l36 294h119l35 -294l-57 -1l-38 227l-37 -227z" />
    <glyph glyph-name="Hbar" unicode="&#x126;" horiz-adv-x="275" 
d="M26 1360h83v-381h57v381h83v-1360h-83v648h-57v-648h-83v1360zM166 708v211h-57v-211h57z" />
    <glyph glyph-name="hbar" unicode="&#x127;" horiz-adv-x="268" 
d="M227.5 1050.5c9.66699 -15.667 14.498 -42.499 14.498 -80.499v-970h-80v969c0 17.333 -1 28.5 -3 33.5s-7.33301 7.5 -16 7.5c-14 0 -26.333 -6.33301 -37 -19v-991h-80v1170h-31v66h31v124h81l1 -124h74v-66h-73l1 -111c6.66699 3.33301 15.834 6.66602 27.501 9.99902
s23.5 5 35.5 5c26.667 0 44.834 -7.83301 54.501 -23.5z" />
    <glyph glyph-name="Itilde" unicode="&#x128;" horiz-adv-x="136" 
d="M26 1360h84v-1360h-84v1360zM-33 1545c0 26.667 5.16699 45.5 15.5 56.5s27.833 16.5 52.5 16.5c21.333 0 36.333 -3.66699 45 -11s13.334 -20.333 14.001 -39v-93c0 -13.333 3 -20 9 -20c2.66699 0 4.66699 1.66699 6 5s2 9.33301 2 18v140h57l1 -141
c0 -26.667 -5 -45.5 -15 -56.5s-27.667 -16.5 -53 -16.5c-20.667 0 -35.334 3.66699 -44.001 11s-13.334 20 -14.001 38v93c-0.666992 13.333 -3.66699 20 -9 20c-3.33301 0 -5.66602 -1.66699 -6.99902 -5s-2 -9.33301 -2 -18v-139h-57z" />
    <glyph glyph-name="itilde" unicode="&#x129;" horiz-adv-x="135" 
d="M26 1065h83v-1065h-83v1065zM-34 1250c0 26.667 5.16699 45.5 15.5 56.5s27.833 16.5 52.5 16.5c21.333 0 36.333 -3.66699 45 -11s13.334 -20.333 14.001 -39v-93c0 -13.333 3 -20 9 -20c2.66699 0 4.66699 1.66699 6 5s2 9.33301 2 18v140h57l1 -141
c0 -26.667 -5 -45.5 -15 -56.5s-27.667 -16.5 -53 -16.5c-20.667 0 -35.334 3.66699 -44.001 11s-13.334 20 -14.001 38v93c-0.666992 13.333 -3.66699 20 -9 20c-3.33301 0 -5.66602 -1.66699 -6.99902 -5s-2 -9.33301 -2 -18v-139h-57z" />
    <glyph glyph-name="Imacron" unicode="&#x12a;" horiz-adv-x="136" 
d="M26 1360h84v-1360h-84v1360zM-22 1463h181v-60h-181v60z" />
    <glyph glyph-name="imacron" unicode="&#x12b;" horiz-adv-x="135" 
d="M26 1065h83v-1065h-83v1065zM-23 1168h181v-60h-181v60z" />
    <glyph glyph-name="Ibreve" unicode="&#x12c;" horiz-adv-x="788" 
d="M26 1360h84v-1360h-84v1360zM-21.5 1426c-14.333 16 -21.833 40.667 -22.5 74v181h66v-181c0 -32 7.66699 -48 23 -48s23 16 23 48v181h66v-181c-0.666992 -33.333 -8.16699 -58 -22.5 -74s-36.5 -24 -66.5 -24s-52.167 8 -66.5 24z" />
    <glyph glyph-name="ibreve" unicode="&#x12d;" horiz-adv-x="135" 
d="M26 1065h83v-1065h-83v1065zM1.5 1131c-14.333 16 -21.833 40.667 -22.5 74v181h66v-181c0 -32 7.66699 -48 23 -48s23 16 23 48v181h66v-181c-0.666992 -33.333 -8.16699 -58 -22.5 -74s-36.5 -24 -66.5 -24s-52.167 8 -66.5 24z" />
    <glyph glyph-name="Iogonek" unicode="&#x12e;" horiz-adv-x="136" 
d="M118 -264c-17.333 -40 -46.999 -60.001 -88.999 -60.001c-55.333 0 -83 26.333 -83 79c0 90.667 29.333 172.334 88 245.001h-8v1360h84v-1360h-1c-56.667 -66 -85 -145 -85 -237c0 -17.333 6.66699 -26 20 -26c11.333 0 21.666 8.66699 30.999 26z" />
    <glyph glyph-name="iogonek" unicode="&#x12f;" horiz-adv-x="136" 
d="M37.5 1106c-5.66699 4 -9.5 13.667 -11.5 29s-3 43 -3 83c0 40.667 1 68.834 3 84.501s5.83301 25.5 11.5 29.5s15.834 6 30.501 6s24.834 -2 30.501 -6s9.5 -13.833 11.5 -29.5s3 -43.834 3 -84.501c0 -40 -1 -67.667 -3 -83s-5.83301 -25 -11.5 -29
s-15.834 -6 -30.501 -6s-24.834 2 -30.501 6zM117 -264c-17.333 -40 -46.999 -60.001 -88.999 -60.001c-55.333 0 -83 26.333 -83 79c0 90 29.667 171.667 89 245h-8v1064c17.333 -1.33301 30.333 -2 39 -2c16 0 31 0.666992 45 2v-1064h-1
c-57.333 -65.333 -86 -144.666 -86 -237.999c0 -16.667 6.66699 -25 20 -25c11.333 0 21.666 8.66699 30.999 26z" />
    <glyph glyph-name="Idotaccent" unicode="&#x130;" horiz-adv-x="136" 
d="M26 1360h84v-1360h-84v1360zM44.5 1407.5c-5 4.33301 -8.5 13.832 -10.5 28.499s-3 39 -3 73c0 39.333 1 67.333 3 84s5.5 27.334 10.5 32.001s13.167 7 24.5 7c12 0 20.5 -2.33301 25.5 -7s8.5 -15.334 10.5 -32.001s3 -44.667 3 -84c0 -34.667 -1 -59.167 -3 -73.5
s-5.5 -23.666 -10.5 -27.999s-13.5 -6.5 -25.5 -6.5c-11.333 0 -19.5 2.16699 -24.5 6.5z" />
    <glyph glyph-name="dotlessi" unicode="&#x131;" horiz-adv-x="135" 
d="M26 1065h83v-1065h-83v1065z" />
    <glyph glyph-name="IJ" unicode="&#x132;" horiz-adv-x="276" 
d="M26 69l112 0.000976562c8.66699 0 15.5 2.66699 20.5 8s7.5 12.666 7.5 21.999v1261h84v-1263c0 -32 -8 -56.167 -24 -72.5s-39.333 -24.5 -70 -24.5h-130v69zM26 1360h84v-1240h-84v1240z" />
    <glyph glyph-name="ij" unicode="&#x133;" horiz-adv-x="271" 
d="M37.5 1106c-5.66699 4 -9.5 13.667 -11.5 29s-3 43 -3 83c0 40.667 1 68.834 3 84.501s5.83301 25.5 11.5 29.5s15.834 6 30.501 6s24.834 -2 30.501 -6s9.5 -13.833 11.5 -29.5s3 -43.834 3 -84.501c0 -40 -1 -67.667 -3 -83s-5.83301 -25 -11.5 -29
s-15.834 -6 -30.501 -6s-24.834 2 -30.501 6zM26 1064c17.333 -1.33301 30.333 -2 39 -2c16 0 31 0.666992 45 2v-1064h-84v1064zM173.5 1106c-5.66699 4 -9.5 13.667 -11.5 29s-3 43 -3 83c0 40.667 1 68.834 3 84.501s5.83301 25.5 11.5 29.5s15.834 6 30.501 6
s24.834 -2 30.501 -6s9.5 -13.833 11.5 -29.5s3 -43.834 3 -84.501c0 -40 -1 -67.667 -3 -83s-5.83301 -25 -11.5 -29s-15.834 -6 -30.501 -6s-24.834 2 -30.501 6zM114 -238l20 -0.000976562c8 0 14.667 2.33301 20 7s8 12.334 8 23.001v1272c16 -1.33301 27.667 -2 35 -2
c12 0 22 0.333008 30 1s14.333 1 19 1v-1271c0 -36 -9.66699 -60.667 -29 -74s-44 -20 -74 -20h-29v63z" />
    <glyph glyph-name="Jcircumflex" unicode="&#x134;" horiz-adv-x="229" 
d="M12 69h23c18.667 0 28 10 28 30v1261h84v-1263c0 -64.667 -31.333 -97 -94 -97h-41v69zM17 1404l36 294h119l35 -294l-57 -1l-38 227l-37 -227z" />
    <glyph glyph-name="jcircumflex" unicode="&#x135;" horiz-adv-x="135" 
d="M-22 -238l20 -0.000976562c8 0 14.667 2.33301 20 7s8 12.334 8 23.001v1273h83v-1272c0 -62.667 -34 -94 -102 -94h-29v63zM-25 1109l36 294h119l35 -294l-57 -1l-38 227l-37 -227z" />
    <glyph glyph-name="uni0136" unicode="&#x136;" horiz-adv-x="274" 
d="M26 1360h84v-645h23l34 645h86l-42 -680l45 -680h-86l-37 644h-23v-644h-84v1360zM95 -48h83l-39 -330h-66z" />
    <glyph glyph-name="uni0137" unicode="&#x137;" horiz-adv-x="250" 
d="M26 1360h84l-2 -808l25 1l26 512h82l-34 -541l36 -524h-82l-29 487l-24 1v-488h-82v1360zM92 -48h83l-39 -330h-66z" />
    <glyph glyph-name="kgreenlandic" unicode="&#x138;" horiz-adv-x="250" 
d="M26 1065h83l-1 -512h25l26 512h82l-34 -541l36 -524h-82l-29 488h-24v-488h-82v1065z" />
    <glyph glyph-name="Lacute" unicode="&#x139;" horiz-adv-x="194" 
d="M26 1360h84v-1289h70v-71h-154v1360zM75 1702l82 -3l-55 -296h-64z" />
    <glyph glyph-name="lacute" unicode="&#x13a;" horiz-adv-x="136" 
d="M26 1360h84v-1360h-84v1360zM71 1702l82 -3l-55 -296h-64z" />
    <glyph glyph-name="uni013B" unicode="&#x13b;" horiz-adv-x="194" 
d="M26 1360h84v-1289h70v-71h-154v1360zM69 -48h83l-39 -330h-66z" />
    <glyph glyph-name="uni013C" unicode="&#x13c;" horiz-adv-x="136" 
d="M26 1360h84v-1360h-84v1360zM43 -48h83l-39 -330h-66z" />
    <glyph glyph-name="Lcaron" unicode="&#x13d;" horiz-adv-x="242" 
d="M26 1360h84v-1289h70v-71h-154v1360zM154 1154l-6.00098 -0.000976562l-1 205h78v-182c0 -31.333 -2.66699 -61.666 -8 -90.999s-11.666 -53.333 -18.999 -72h-65c14 46 21 92.667 21 140z" />
    <glyph glyph-name="lcaron" unicode="&#x13e;" horiz-adv-x="193" 
d="M26 1360h84v-1360h-84v1360zM136 1000v359h66l-11 -360z" />
    <glyph glyph-name="Ldot" unicode="&#x13f;" horiz-adv-x="214" 
d="M27 1360h83v-539c-2 0 -3.83301 -12.167 -5.5 -36.5s-2.5 -56.833 -2.5 -97.5c0 -44 0.833008 -77.833 2.5 -101.5s3.5 -35.5 5.5 -35.5v-479h70v-71h-153v1360zM147.5 596.5c-5 3.66699 -8.83301 12.3311 -11.5 25.998s-4 34.834 -4 63.501s1.33301 49.834 4 63.501
s6.5 22.667 11.5 27s12.5 6.5 22.5 6.5c9.33301 0 16.5 -2.16699 21.5 -6.5s8.83301 -13.333 11.5 -27s4 -34.834 4 -63.501c0 -29.333 -1.33301 -50.666 -4 -63.999s-6.5 -21.833 -11.5 -25.5s-12.167 -5.5 -21.5 -5.5c-10 0 -17.5 1.83301 -22.5 5.5z" />
    <glyph glyph-name="ldot" unicode="&#x140;" horiz-adv-x="210" 
d="M26 1360h84v-1360h-84v1360zM151.5 561.5c-4.33301 4.33301 -7.33398 14.5 -9.00098 30.5s-2.5 42.667 -2.5 80c0 43.333 0.833008 74 2.5 92s4.5 29.5 8.5 34.5s11 7.5 21 7.5s17 -2.5 21 -7.5s6.83301 -16.5 8.5 -34.5s2.5 -48.667 2.5 -92
c0 -37.333 -0.833008 -64 -2.5 -80s-4.5 -26.167 -8.5 -30.5s-11 -6.5 -21 -6.5c-9.33301 0 -16.166 2.16699 -20.499 6.5z" />
    <glyph glyph-name="Lslash" unicode="&#x141;" horiz-adv-x="184" 
d="M180 71v-71h-154v640l-24 -9v60l24 9v660h84v-627l31 12v-59l-31 -12v-603h70z" />
    <glyph glyph-name="lslash" unicode="&#x142;" horiz-adv-x="148" 
d="M146 70v-70h-32c-28.667 0 -50.5 7.16699 -65.5 21.5s-22.5 38.166 -22.5 71.499v548l-25 -10v60l25 10v659h84v-627l27 11v-59l-27 -11v-574c0 -9.33301 2.5 -16.666 7.5 -21.999s11.833 -8 20.5 -8h8z" />
    <glyph glyph-name="Nacute" unicode="&#x143;" horiz-adv-x="273" 
d="M26 1360h86l20 -214l53 -795l6 -1l-22 1010h78v-1360h-86l-20 214l-54 803l-7 1l24 -1018h-78v1360zM140 1702l82 -3l-55 -296h-64z" />
    <glyph glyph-name="nacute" unicode="&#x144;" horiz-adv-x="267" 
d="M26 1065h71l11 -37c11.333 33.333 33.333 50 66 50c44.667 0 67 -33.333 67 -100v-978h-80v978c0 22 -8.33301 33 -25 33c-20.667 0 -31 -15 -31 -45v-966h-79v1065zM135 1419l82 -3l-55 -296h-64z" />
    <glyph glyph-name="uni0145" unicode="&#x145;" horiz-adv-x="273" 
d="M26 1360h86l20 -214l53 -795l6 -1l-22 1010h78v-1360h-86l-20 214l-54 803l-7 1l24 -1018h-78v1360zM92 -48h83l-39 -330h-66z" />
    <glyph glyph-name="uni0146" unicode="&#x146;" horiz-adv-x="267" 
d="M26 1065h71l11 -37c11.333 33.333 33.333 50 66 50c44.667 0 67 -33.333 67 -100v-978h-80v978c0 22 -8.33301 33 -25 33c-20.667 0 -31 -15 -31 -45v-966h-79v1065zM91 -48h83l-39 -330h-66z" />
    <glyph glyph-name="Ncaron" unicode="&#x147;" horiz-adv-x="273" 
d="M26 1360h86l20 -214l53 -795l6 -1l-22 1010h78v-1360h-86l-20 214l-54 803l-7 1l24 -1018h-78v1360zM33 1697l67 1l38 -227l37 227l67 -1l-55 -294h-99z" />
    <glyph glyph-name="ncaron" unicode="&#x148;" horiz-adv-x="267" 
d="M26 1065h71l11 -37c11.333 33.333 33.333 50 66 50c44.667 0 67 -33.333 67 -100v-978h-80v978c0 22 -8.33301 33 -25 33c-20.667 0 -31 -15 -31 -45v-966h-79v1065zM28 1414l67 1l38 -227l37 227l67 -1l-55 -294h-99z" />
    <glyph glyph-name="napostrophe" unicode="&#x149;" horiz-adv-x="370" 
d="M21 1360h71l-13 -491l-59 -1zM129 1065h71l11 -37c11.333 33.333 33.333 50 66 50c44.667 0 67 -33.333 67 -100v-978h-80v978c0 22 -8.33301 33 -25 33c-20.667 0 -31 -15 -31 -45v-966h-79v1065z" />
    <glyph glyph-name="Eng" unicode="&#x14a;" horiz-adv-x="273" 
d="M110 -137l24 0.000976562c9.33301 0 16.333 2.66699 21 8s6.66699 12.666 6 21.999v129l-78 990l-5 1l28 -1013h-80v1360h84l20 -211l60 -801l5 -1l-27 1013h79l-1 -1469c0 -64.667 -31.333 -97 -94 -97h-42v69z" />
    <glyph glyph-name="eng" unicode="&#x14b;" horiz-adv-x="267" 
d="M114 -92h19c18.667 0 28 10 28 30v1040c0 22 -8.33301 33 -25 33c-20.667 0 -31 -15 -31 -45v-966h-79v1065h71l11 -37c11.333 33.333 33.333 50 66 50c44.667 0 67 -33.333 67 -100v-1034c0 -34 -8.16699 -58.833 -24.5 -74.5s-41.833 -23.5 -76.5 -23.5h-26v62z" />
    <glyph glyph-name="Omacron" unicode="&#x14c;" horiz-adv-x="275" 
d="M24 1269c0 32.667 9.5 57.833 28.5 75.5s47.167 26.5 84.5 26.5c76 0 114 -36.667 114 -110v-1163c0 -73.333 -38 -110 -114 -110c-36 0 -62.333 9 -79 27s-28 45.667 -34 83v1171zM137 63.999c18.667 0 28 9.66699 28 29v1174c0 19.333 -9.33301 29 -28 29
s-28 -9.66699 -28 -29v-1174c0 -19.333 9.33301 -29 28 -29zM47 1474h181v-60h-181v60z" />
    <glyph glyph-name="omacron" unicode="&#x14d;" horiz-adv-x="267" 
d="M26 89v889c0 33.333 9 58.5 27 75.5s44.667 25.5 80 25.5c72 0 108 -33.667 108 -101v-889c0 -67.333 -36 -101 -108 -101c-71.333 0 -107 33.667 -107 101zM162 87v893c0 20 -9.66699 30 -29 30c-18.667 0 -28 -10 -28 -30v-893c0 -20 9.33301 -30 28 -30
c19.333 0 29 10 29 30zM43 1181h181v-60h-181v60z" />
    <glyph glyph-name="Obreve" unicode="&#x14e;" horiz-adv-x="275" 
d="M24 1269c0 32.667 9.5 57.833 28.5 75.5s47.167 26.5 84.5 26.5c76 0 114 -36.667 114 -110v-1163c0 -73.333 -38 -110 -114 -110c-36 0 -62.333 9 -79 27s-28 45.667 -34 83v1171zM137 63.999c18.667 0 28 9.66699 28 29v1174c0 19.333 -9.33301 29 -28 29
s-28 -9.66699 -28 -29v-1174c0 -19.333 9.33301 -29 28 -29zM75.5 1472c-14.333 16 -21.833 40.667 -22.5 74v181h66v-181c0 -32 7.66699 -48 23 -48s23 16 23 48v181h66v-181c-0.666992 -33.333 -8.16699 -58 -22.5 -74s-36.5 -24 -66.5 -24s-52.167 8 -66.5 24z" />
    <glyph glyph-name="obreve" unicode="&#x14f;" horiz-adv-x="269" 
d="M26 89v889c0 33.333 9 58.5 27 75.5s44.667 25.5 80 25.5c72 0 108 -33.667 108 -101v-889c0 -67.333 -36 -101 -108 -101c-71.333 0 -107 33.667 -107 101zM162 87v893c0 20 -9.66699 30 -29 30c-18.667 0 -28 -10 -28 -30v-893c0 -20 9.33301 -30 28 -30
c19.333 0 29 10 29 30zM74.5 1167c-14.333 16 -21.833 40.667 -22.5 74v181h66v-181c0 -32 7.66699 -48 23 -48s23 16 23 48v181h66v-181c-0.666992 -33.333 -8.16699 -58 -22.5 -74s-36.5 -24 -66.5 -24s-52.167 8 -66.5 24z" />
    <glyph glyph-name="Ohungarumlaut" unicode="&#x150;" horiz-adv-x="275" 
d="M24 1269c0 32.667 9.5 57.833 28.5 75.5s47.167 26.5 84.5 26.5c76 0 114 -36.667 114 -110v-1163c0 -73.333 -38 -110 -114 -110c-36 0 -62.333 9 -79 27s-28 45.667 -34 83v1171zM137 63.999c18.667 0 28 9.66699 28 29v1174c0 19.333 -9.33301 29 -28 29
s-28 -9.66699 -28 -29v-1174c0 -19.333 9.33301 -29 28 -29zM100 1713l71 -3l-55 -296h-53zM196 1713l71 -3l-55 -296h-53z" />
    <glyph glyph-name="ohungarumlaut" unicode="&#x151;" horiz-adv-x="267" 
d="M26 89v889c0 33.333 9 58.5 27 75.5s44.667 25.5 80 25.5c72 0 108 -33.667 108 -101v-889c0 -67.333 -36 -101 -108 -101c-71.333 0 -107 33.667 -107 101zM162 87v893c0 20 -9.66699 30 -29 30c-18.667 0 -28 -10 -28 -30v-893c0 -20 9.33301 -30 28 -30
c19.333 0 29 10 29 30zM96 1420l71 -3l-55 -296h-53zM192 1420l71 -3l-55 -296h-53z" />
    <glyph glyph-name="OE" unicode="&#x152;" horiz-adv-x="345" 
d="M24 99l0.000976562 1163c0 72.667 37.667 109 113 109c12 0 26.667 -2 44 -6c13.333 -3.33301 24.666 -5 33.999 -5h124v-70h-88v-583h70v-62h-70v-577h89v-68h-122c-8 0 -20 -2 -36 -6c-18.667 -4 -33.667 -6 -45 -6c-75.333 0 -113 37 -113 111zM165.001 93v1174
c0 19.333 -9.33301 29 -28 29s-28 -9.66699 -28 -29v-1174c0 -19.333 9.33301 -29 28 -29s28 9.66699 28 29z" />
    <glyph glyph-name="oe" unicode="&#x153;" horiz-adv-x="402" 
d="M25 89l0.00292969 888.999c0 33.333 9.16699 58.5 27.5 75.5s45.166 25.5 80.499 25.5c32.667 0 55.334 -7.33301 68.001 -22c15.333 14.667 38 22 68 22c72 0 108 -33.667 108 -101l-1 -471h-135v-430c0 -19.333 9.33301 -29 28 -29s28 9.66699 28 29v374h78v-373
c-2.66699 -29.333 -12.834 -51.666 -30.501 -66.999s-42.834 -23 -75.501 -23c-30 0 -52.667 7.33301 -68 22c-12.667 -14.667 -35.334 -22 -68.001 -22c-72 0 -108 33.667 -108 101zM297.003 563.999v422c0 19.333 -9.33301 29 -28 29s-28 -9.66699 -28 -29v-422h56z
M161.003 86.999v893c0 20 -9.33301 30 -28 30s-28 -10 -28 -30v-893c0 -20 9.33301 -30 28 -30s28 10 28 30z" />
    <glyph glyph-name="Racute" unicode="&#x154;" horiz-adv-x="269" 
d="M218 560l26.999 -559.999h-81l-20 536h-6h-30v-536h-82v1360h109c36.667 0 64.334 -7.83301 83.001 -23.5s28 -40.834 28 -75.501v-623c0 -34.667 -9.33301 -60.667 -28 -78zM163.999 637.001v623c0 20.667 -9.33301 31 -28 31h-28v-691h28c18.667 0 28 12.333 28 37z
M137.999 1750l82 -3l-55 -296h-64z" />
    <glyph glyph-name="racute" unicode="&#x155;" horiz-adv-x="186" 
d="M26 1065h70.001l12 -37c10 32 25.333 48 46 48c11.333 0 20.666 -2.33301 27.999 -7v-69c-7.33301 4.66699 -17 7 -29 7c-28.667 0 -43 -15 -43 -45v-962h-84v1065zM103.001 1414l82 -3l-55 -296h-64z" />
    <glyph glyph-name="uni0156" unicode="&#x156;" horiz-adv-x="269" 
d="M218 560l26.999 -559.999h-81l-20 536h-6h-30v-536h-82v1360h109c36.667 0 64.334 -7.83301 83.001 -23.5s28 -40.834 28 -75.501v-623c0 -34.667 -9.33301 -60.667 -28 -78zM163.999 637.001v623c0 20.667 -9.33301 31 -28 31h-28v-691h28c18.667 0 28 12.333 28 37z
M92.999 -100.999h83l-39 -330h-66z" />
    <glyph glyph-name="uni0157" unicode="&#x157;" horiz-adv-x="186" 
d="M26 1065h70.001l12 -37c10 32 25.333 48 46 48c11.333 0 20.666 -2.33301 27.999 -7v-69c-7.33301 4.66699 -17 7 -29 7c-28.667 0 -43 -15 -43 -45v-962h-84v1065zM28.001 -48h83l-39 -330h-66z" />
    <glyph glyph-name="Rcaron" unicode="&#x158;" horiz-adv-x="269" 
d="M218 560l26.999 -559.999h-81l-20 536h-6h-30v-536h-82v1360h109c36.667 0 64.334 -7.83301 83.001 -23.5s28 -40.834 28 -75.501v-623c0 -34.667 -9.33301 -60.667 -28 -78zM163.999 637.001v623c0 20.667 -9.33301 31 -28 31h-28v-691h28c18.667 0 28 12.333 28 37z
M30.999 1745l67 1l38 -227l37 227l67 -1l-55 -294h-99z" />
    <glyph glyph-name="rcaron" unicode="&#x159;" horiz-adv-x="186" 
d="M26 1065h70.001l12 -37c10 32 25.333 48 46 48c11.333 0 20.666 -2.33301 27.999 -7v-69c-7.33301 4.66699 -17 7 -29 7c-28.667 0 -43 -15 -43 -45v-962h-84v1065zM-3.99902 1409l67 1l38 -227l37 227l67 -1l-55 -294h-99z" />
    <glyph glyph-name="Sacute" unicode="&#x15a;" horiz-adv-x="268" 
d="M26 85l-0.00195312 370h80v-370c0 -19.333 9.33301 -29 28 -29s28 9.66699 28 29c0 77.333 -1.66699 153.333 -5 228c-6 106.667 -15 194 -27 262s-28 141.667 -48 221c-19.333 73.333 -33.5 138.5 -42.5 195.5s-13.5 129.167 -13.5 216.5v66
c0.666992 64.667 36.334 97 107.001 97c35.333 0 62.166 -8.33301 80.499 -25s27.5 -40.667 27.5 -72v-277h-79v277c0 19.333 -9.33301 29 -28 29s-28 -9.66699 -28 -29c0 -56 2 -107 6 -153c4.66699 -61.333 11.334 -115.833 20.001 -163.5s21 -103.5 37 -167.5
c16 -67.333 28.833 -126 38.5 -176s17.834 -112 24.501 -186s10 -160.333 10 -259v-86c0 -31.333 -9.16699 -55 -27.5 -71s-44.5 -24 -78.5 -24c-73.333 0 -110 32.333 -110 97zM135.998 1713l82 -3l-55 -296h-64z" />
    <glyph glyph-name="sacute" unicode="&#x15b;" horiz-adv-x="259" 
d="M52 15.5c-17.333 17.667 -26.001 38.501 -26.001 62.501v294l76 -1v-293c0 -8 2.33301 -14.5 7 -19.5s11.667 -7.5 21 -7.5s16.333 2.5 21 7.5s7 11.833 7 20.5c0 24 -0.5 50.5 -1.5 79.5s-1.5 50.167 -1.5 63.5c-2 30 -3 58.333 -3 85
c-1.33301 53.333 -6.5 96.666 -15.5 129.999s-22.5 69.666 -40.5 108.999c-15.333 35.333 -27.5 67 -36.5 95s-16.833 65 -23.5 111s-10 101.667 -10 167v67c0 28 9.16699 50 27.5 66s43.166 24 74.499 24c32 0 57.333 -8.16699 76 -24.5s28 -38.166 28 -65.499v-250h-75
v252c0 6 -2.33301 11.833 -7 17.5s-11.667 8.5 -21 8.5s-16.333 -2.83301 -21 -8.5s-7 -11.5 -7 -17.5c0 -61.333 2.33301 -113.333 7 -156c3.33301 -46 8 -83.833 14 -113.5s12.333 -53 19 -70s15.667 -36.167 27 -57.5c14.667 -28 26.334 -55.333 35.001 -82
s16 -67.5 22 -122.5s9 -129.167 9 -222.5v-87c0 -26.667 -9.5 -48 -28.5 -64s-43.833 -24 -74.5 -24c-35.333 0 -61.666 8.83301 -78.999 26.5zM130.999 1418l82 -3l-55 -296h-64z" />
    <glyph glyph-name="Scircumflex" unicode="&#x15c;" horiz-adv-x="269" 
d="M26 85l-0.00195312 370h80v-370c0 -19.333 9.33301 -29 28 -29s28 9.66699 28 29c0 77.333 -1.66699 153.333 -5 228c-6 106.667 -15 194 -27 262s-28 141.667 -48 221c-19.333 73.333 -33.5 138.5 -42.5 195.5s-13.5 129.167 -13.5 216.5v66
c0.666992 64.667 36.334 97 107.001 97c35.333 0 62.166 -8.33301 80.499 -25s27.5 -40.667 27.5 -72v-277h-79v277c0 19.333 -9.33301 29 -28 29s-28 -9.66699 -28 -29c0 -56 2 -107 6 -153c4.66699 -61.333 11.334 -115.833 20.001 -163.5s21 -103.5 37 -167.5
c16 -67.333 28.833 -126 38.5 -176s17.834 -112 24.501 -186s10 -160.333 10 -259v-86c0 -31.333 -9.16699 -55 -27.5 -71s-44.5 -24 -78.5 -24c-73.333 0 -110 32.333 -110 97zM40.998 1415l36 294h119l35 -294l-57 -1l-38 227l-37 -227z" />
    <glyph glyph-name="scircumflex" unicode="&#x15d;" horiz-adv-x="263" 
d="M55 15.5c-17.333 17.667 -26.001 38.501 -26.001 62.501v294l76 -1v-293c0 -8 2.33301 -14.5 7 -19.5s11.667 -7.5 21 -7.5s16.333 2.5 21 7.5s7 11.833 7 20.5c0 24 -0.5 50.5 -1.5 79.5s-1.5 50.167 -1.5 63.5c-2 30 -3 58.333 -3 85
c-1.33301 53.333 -6.5 96.666 -15.5 129.999s-22.5 69.666 -40.5 108.999c-15.333 35.333 -27.5 67 -36.5 95s-16.833 65 -23.5 111s-10 101.667 -10 167v67c0 28 9.16699 50 27.5 66s43.166 24 74.499 24c32 0 57.333 -8.16699 76 -24.5s28 -38.166 28 -65.499v-250h-75
v252c0 6 -2.33301 11.833 -7 17.5s-11.667 8.5 -21 8.5s-16.333 -2.83301 -21 -8.5s-7 -11.5 -7 -17.5c0 -61.333 2.33301 -113.333 7 -156c3.33301 -46 8 -83.833 14 -113.5s12.333 -53 19 -70s15.667 -36.167 27 -57.5c14.667 -28 26.334 -55.333 35.001 -82
s16 -67.5 22 -122.5s9 -129.167 9 -222.5v-87c0 -26.667 -9.5 -48 -28.5 -64s-43.833 -24 -74.5 -24c-35.333 0 -61.666 8.83301 -78.999 26.5zM35.999 1138l36 294h119l35 -294l-57 -1l-38 227l-37 -227z" />
    <glyph glyph-name="Scedilla" unicode="&#x15e;" horiz-adv-x="268" 
d="M132 957.5c8.66699 -47.667 20.9961 -103.499 36.9961 -167.499c16 -67.333 28.833 -126 38.5 -176s17.834 -112 24.501 -186s10 -160.333 10 -259v-86c0 -26 -6.5 -46.833 -19.5 -62.5s-31.833 -25.834 -56.5 -30.501l-2 -107
c16.667 -1.33301 29.334 -7.83301 38.001 -19.5s13 -28.5 13 -50.5v-152c0 -28 -7.66699 -49.167 -23 -63.5s-37.666 -21.5 -66.999 -21.5c-16.667 0 -32 3 -46 9l9 57c4.66699 -2.66699 13.667 -4 27 -4c20 0 30 8.33301 30 25v153c0 19.333 -15.333 29 -46 29l3 146
c-50.667 8.66699 -76 40 -76 94v370h80v-370c0 -19.333 9.33301 -29 28 -29s28 9.66699 28 29c0 77.333 -1.66699 153.333 -5 228c-6 106.667 -15 194 -27 262s-28 141.667 -48 221c-19.333 73.333 -33.5 138.5 -42.5 195.5s-13.5 129.167 -13.5 216.5v66
c0.666992 64.667 36.334 97 107.001 97c35.333 0 62.166 -8.33301 80.499 -25s27.5 -40.667 27.5 -72v-277h-79v277c0 19.333 -9.33301 29 -28 29s-28 -9.66699 -28 -29c0 -56 2 -107 6 -153c4.66699 -61.333 11.334 -115.833 20.001 -163.5z" />
    <glyph glyph-name="scedilla" unicode="&#x15f;" horiz-adv-x="259" 
d="M122 718.5c6 -29.667 12.334 -52.999 19.001 -69.999s15.667 -36.167 27 -57.5c14.667 -28 26.334 -55.333 35.001 -82s16 -67.5 22 -122.5s9 -129.167 9 -222.5v-87c0 -22 -6.5 -40.333 -19.5 -55s-30.5 -24.667 -52.5 -30l-2 -108c33.333 -2 50 -25.333 50 -70v-152
c0 -56.667 -29.667 -85 -89 -85c-16.667 0 -32 3 -46 9l9 57c5.33301 -3.33301 14.333 -5 27 -5c20 0 30 8.66699 30 26v153c0 19.333 -15.333 29 -46 29l3 146c-24.667 5.33301 -42.834 16 -54.501 32s-17.5 34 -17.5 54v294l76 -1v-293c0 -8 2.33301 -14.5 7 -19.5
s11.667 -7.5 21 -7.5s16.333 2.5 21 7.5s7 11.833 7 20.5c0 24 -0.5 50.5 -1.5 79.5s-1.5 50.167 -1.5 63.5c-2 30 -3 58.333 -3 85c-1.33301 53.333 -6.5 96.666 -15.5 129.999s-22.5 69.666 -40.5 108.999c-15.333 35.333 -27.5 67 -36.5 95s-16.833 65 -23.5 111
s-10 101.667 -10 167v67c0 28 9.16699 50 27.5 66s43.166 24 74.499 24c32 0 57.333 -8.16699 76 -24.5s28 -38.166 28 -65.499v-250h-75v252c0 6 -2.33301 11.833 -7 17.5s-11.667 8.5 -21 8.5s-16.333 -2.83301 -21 -8.5s-7 -11.5 -7 -17.5
c0 -61.333 2.33301 -113.333 7 -156c3.33301 -46 8 -83.833 14 -113.5z" />
    <glyph glyph-name="Scaron" unicode="&#x160;" horiz-adv-x="268" 
d="M26 85l-0.00195312 370h80v-370c0 -19.333 9.33301 -29 28 -29s28 9.66699 28 29c0 77.333 -1.66699 153.333 -5 228c-6 106.667 -15 194 -27 262s-28 141.667 -48 221c-19.333 73.333 -33.5 138.5 -42.5 195.5s-13.5 129.167 -13.5 216.5v66
c0.666992 64.667 36.334 97 107.001 97c35.333 0 62.166 -8.33301 80.499 -25s27.5 -40.667 27.5 -72v-277h-79v277c0 19.333 -9.33301 29 -28 29s-28 -9.66699 -28 -29c0 -56 2 -107 6 -153c4.66699 -61.333 11.334 -115.833 20.001 -163.5s21 -103.5 37 -167.5
c16 -67.333 28.833 -126 38.5 -176s17.834 -112 24.501 -186s10 -160.333 10 -259v-86c0 -31.333 -9.16699 -55 -27.5 -71s-44.5 -24 -78.5 -24c-73.333 0 -110 32.333 -110 97zM29.998 1708l67 1l38 -227l37 227l67 -1l-55 -294h-99z" />
    <glyph glyph-name="scaron" unicode="&#x161;" horiz-adv-x="259" 
d="M52 15.5c-17.333 17.667 -26.001 38.501 -26.001 62.501v294l76 -1v-293c0 -8 2.33301 -14.5 7 -19.5s11.667 -7.5 21 -7.5s16.333 2.5 21 7.5s7 11.833 7 20.5c0 24 -0.5 50.5 -1.5 79.5s-1.5 50.167 -1.5 63.5c-2 30 -3 58.333 -3 85
c-1.33301 53.333 -6.5 96.666 -15.5 129.999s-22.5 69.666 -40.5 108.999c-15.333 35.333 -27.5 67 -36.5 95s-16.833 65 -23.5 111s-10 101.667 -10 167v67c0 28 9.16699 50 27.5 66s43.166 24 74.499 24c32 0 57.333 -8.16699 76 -24.5s28 -38.166 28 -65.499v-250h-75
v252c0 6 -2.33301 11.833 -7 17.5s-11.667 8.5 -21 8.5s-16.333 -2.83301 -21 -8.5s-7 -11.5 -7 -17.5c0 -61.333 2.33301 -113.333 7 -156c3.33301 -46 8 -83.833 14 -113.5s12.333 -53 19 -70s15.667 -36.167 27 -57.5c14.667 -28 26.334 -55.333 35.001 -82
s16 -67.5 22 -122.5s9 -129.167 9 -222.5v-87c0 -26.667 -9.5 -48 -28.5 -64s-43.833 -24 -74.5 -24c-35.333 0 -61.666 8.83301 -78.999 26.5zM23.999 1413l67 1l38 -227l37 227l67 -1l-55 -294h-99z" />
    <glyph glyph-name="uni0162" unicode="&#x162;" horiz-adv-x="188" 
d="M125 0l-2 -105c33.333 -2 50 -25.333 50 -70v-152c0 -56.667 -29.667 -85 -89 -85c-16.667 0 -32 3 -46 9l9 57c4 -3.33301 13 -5 27 -5c20 0 30 8.66699 30 26v153c0 19.333 -15.333 29 -46 29l3 143h-10v1288h-46v72h177v-72h-47v-1288h-10z" />
    <glyph glyph-name="uni0163" unicode="&#x163;" horiz-adv-x="159" 
d="M168 -124.5c8.66699 -11.667 12.998 -28.5 12.998 -50.5v-152c0 -28 -7.66699 -49.167 -23 -63.5s-37.666 -21.5 -66.999 -21.5c-16.667 0 -32 3 -46 9l9 57c4 -3.33301 13 -5 27 -5c20 0 30 8.66699 30 26v153c0 19.333 -15.333 29 -46 29l4 159
c-24.667 17.333 -37 44 -37 80v900h-28v62l27 13l19 236h65v-242h53v-69h-53v-896c0 -8.66699 2.66699 -16 8 -22s13 -9 23 -9h22v-69h-36l-2 -105c16.667 -1.33301 29.334 -7.83301 38.001 -19.5z" />
    <glyph glyph-name="Tcaron" unicode="&#x164;" horiz-adv-x="188" 
d="M51 1288h-46v72h177v-72h-47v-1288h-84v1288zM-10 1697l67 1l38 -227l37 227l67 -1l-55 -294h-99z" />
    <glyph glyph-name="tcaron" unicode="&#x165;" horiz-adv-x="159" 
d="M57.5 25.5c-17 17 -25.5 40.5 -25.5 70.5v900h-28v62l27 13l19 236h65v-242h53v-69h-53v-896c0 -8.66699 2.66699 -16 8 -22s13 -9 23 -9h22v-69h-42c-28.667 0 -51.5 8.5 -68.5 25.5zM-25 1644l67 1l38 -227l37 227l67 -1l-55 -294h-99z" />
    <glyph glyph-name="Tbar" unicode="&#x166;" horiz-adv-x="188" 
d="M135 1288v-592h30v-48h-30v-648h-84v648h-25v48h25v592h-46v72h177v-72h-47z" />
    <glyph glyph-name="tbar" unicode="&#x167;" horiz-adv-x="169" 
d="M61 23.5c-19.333 15.667 -29.001 39.833 -29.001 72.5v467h-27v52h27v385h-28v58l27 13l19 236h65v-242h53v-65h-53v-385h53v-52h-53v-467c0 -8.66699 2.66699 -16 8 -22s13 -9 23 -9h22v-65h-31c-31.333 -0 -56.666 7.83301 -75.999 23.5z" />
    <glyph glyph-name="Utilde" unicode="&#x168;" horiz-adv-x="273" 
d="M25 86v1274h83v-1269c0 -20.667 9.33301 -31 28 -31s28 10.333 28 31v1269h84v-1274c0 -65.333 -37.333 -98 -112 -98c-74 0 -111 32.667 -111 98zM35 1545c0 26.667 5.16699 45.5 15.5 56.5s27.833 16.5 52.5 16.5c21.333 0 36.333 -3.66699 45 -11
s13.334 -20.333 14.001 -39v-93c0 -13.333 3 -20 9 -20c2.66699 0 4.66699 1.66699 6 5s2 9.33301 2 18v140h57l1 -141c0 -26.667 -5 -45.5 -15 -56.5s-27.667 -16.5 -53 -16.5c-20.667 0 -35.334 3.66699 -44.001 11s-13.334 20 -14.001 38v93
c-0.666992 13.333 -3.66699 20 -9 20c-3.33301 0 -5.66602 -1.66699 -6.99902 -5s-2 -9.33301 -2 -18v-139h-57z" />
    <glyph glyph-name="utilde" unicode="&#x169;" 
d="M26 87v978h79v-978c0 -20 9.33301 -30 28 -30s28 10 28 30v978h79v-979c0 -65.333 -35.667 -98 -107 -98s-107 33 -107 99zM29 1250c0 26.667 5.16699 45.5 15.5 56.5s27.833 16.5 52.5 16.5c21.333 0 36.333 -3.66699 45 -11s13.334 -20.333 14.001 -39v-93
c0 -13.333 3 -20 9 -20c2.66699 0 4.66699 1.66699 6 5s2 9.33301 2 18v140h57l1 -141c0 -26.667 -5 -45.5 -15 -56.5s-27.667 -16.5 -53 -16.5c-20.667 0 -35.334 3.66699 -44.001 11s-13.334 20 -14.001 38v93c-0.666992 13.333 -3.66699 20 -9 20
c-3.33301 0 -5.66602 -1.66699 -6.99902 -5s-2 -9.33301 -2 -18v-139h-57z" />
    <glyph glyph-name="Umacron" unicode="&#x16a;" horiz-adv-x="273" 
d="M25 86v1274h83v-1269c0 -20.667 9.33301 -31 28 -31s28 10.333 28 31v1269h84v-1274c0 -65.333 -37.333 -98 -112 -98c-74 0 -111 32.667 -111 98zM46 1463h181v-60h-181v60z" />
    <glyph glyph-name="umacron" unicode="&#x16b;" 
d="M26 87v978h79v-978c0 -20 9.33301 -30 28 -30s28 10 28 30v978h79v-979c0 -65.333 -35.667 -98 -107 -98s-107 33 -107 99zM40 1168h181v-60h-181v60z" />
    <glyph glyph-name="Ubreve" unicode="&#x16c;" horiz-adv-x="273" 
d="M25 86v1274h83v-1269c0 -20.667 9.33301 -31 28 -31s28 10.333 28 31v1269h84v-1274c0 -65.333 -37.333 -98 -112 -98c-74 0 -111 32.667 -111 98zM70.5 1426c-14.333 16 -21.833 40.667 -22.5 74v181h66v-181c0 -32 7.66699 -48 23 -48s23 16 23 48v181h66v-181
c-0.666992 -33.333 -8.16699 -58 -22.5 -74s-36.5 -24 -66.5 -24s-52.167 8 -66.5 24z" />
    <glyph glyph-name="ubreve" unicode="&#x16d;" 
d="M26 87v978h79v-978c0 -20 9.33301 -30 28 -30s28 10 28 30v978h79v-979c0 -65.333 -35.667 -98 -107 -98s-107 33 -107 99zM65.5 1130c-14.333 16 -21.833 40.667 -22.5 74v181h66v-181c0 -32 7.66699 -48 23 -48s23 16 23 48v181h66v-181
c-0.666992 -33.333 -8.16699 -58 -22.5 -74s-36.5 -24 -66.5 -24s-52.167 8 -66.5 24z" />
    <glyph glyph-name="Uring" unicode="&#x16e;" horiz-adv-x="273" 
d="M25 86v1274h83v-1269c0 -20.667 9.33301 -31 28 -31s28 10.333 28 31v1269h84v-1274c0 -65.333 -37.333 -98 -112 -98c-74 0 -111 32.667 -111 98zM50 1481v94c0 50.667 29 76 87 76s87 -25 87 -75v-95c0 -52 -29 -78 -87 -78s-87 26 -87 78zM166 1481v94
c0 18.667 -9.66699 28 -29 28s-29 -9.33301 -29 -28v-94c0 -20 9.66699 -30 29 -30s29 10 29 30z" />
    <glyph glyph-name="uring" unicode="&#x16f;" 
d="M26 87v978h79v-978c0 -20 9.33301 -30 28 -30s28 10 28 30v978h79v-979c0 -65.333 -35.667 -98 -107 -98s-107 33 -107 99zM44 1186v94c0 50.667 29 76 87 76s87 -25 87 -75v-95c0 -52 -29 -78 -87 -78s-87 26 -87 78zM160 1186v94c0 18.667 -9.66699 28 -29 28
s-29 -9.33301 -29 -28v-94c0 -20 9.66699 -30 29 -30s29 10 29 30z" />
    <glyph glyph-name="Uhungarumlaut" unicode="&#x170;" horiz-adv-x="273" 
d="M25 86v1274h83v-1269c0 -20.667 9.33301 -31 28 -31s28 10.333 28 31v1269h84v-1274c0 -65.333 -37.333 -98 -112 -98c-74 0 -111 32.667 -111 98zM99 1702l71 -3l-55 -296h-53zM195 1702l71 -3l-55 -296h-53z" />
    <glyph glyph-name="uhungarumlaut" unicode="&#x171;" 
d="M26 87v978h79v-978c0 -20 9.33301 -30 28 -30s28 10 28 30v978h79v-979c0 -65.333 -35.667 -98 -107 -98s-107 33 -107 99zM93 1407l71 -3l-55 -296h-53zM189 1407l71 -3l-55 -296h-53z" />
    <glyph glyph-name="Uogonek" unicode="&#x172;" horiz-adv-x="273" 
d="M208 4c-51.333 -63.333 -76.998 -139 -76.998 -227c0 -17.333 6.66699 -26 20 -26c11.333 0 21.666 8.66699 30.999 26l43 -26c-16.667 -40.667 -46.334 -61 -89.001 -61c-55.333 0 -83 26.667 -83 80c0 80 23 152.667 69 218c-64.667 5.33301 -97 38 -97 98v1274h83
v-1269c0 -20.667 9.33301 -31 28 -31s28 10.333 28 31v1269h84v-1274c0 -38 -13.333 -65.333 -40 -82z" />
    <glyph glyph-name="uogonek" unicode="&#x173;" 
d="M240 1065v-979c0 -40 -13.333 -67.667 -40 -83c-54.667 -64.667 -82 -142.334 -82 -233.001c0 -17.333 6.66699 -26 20 -26c12 0 22.333 9 31 27l43 -27c-17.333 -40 -47 -60 -89 -60c-55.333 0 -83 26.333 -83 79c0 82.667 25 158 75 226
c-29.333 2.66699 -51.5 12.334 -66.5 29.001s-22.5 39.667 -22.5 69v978h79v-978c0 -20 9.33301 -30 28 -30s28 10 28 30v978h79z" />
    <glyph glyph-name="Wcircumflex" unicode="&#x174;" horiz-adv-x="423" 
d="M95 1360l29 -1083h5l28 1083h108l29 -1083h5l28 1083h85l-58 -1360h-110l-31 1042h-4l-30 -1042h-111l-57 1360h84zM116 1404l36 294h119l35 -294l-57 -1l-38 227l-37 -227z" />
    <glyph glyph-name="wcircumflex" unicode="&#x175;" horiz-adv-x="425" 
d="M18 1065h79l24 -748l3 -183h7l2 183l25 748h110l24 -748l2 -183h8l3 183l23 748h80l-49 -1065h-116l-27 928h-7l-26 -928h-116zM115 1109l36 294h119l35 -294l-57 -1l-38 227l-37 -227z" />
    <glyph glyph-name="Ycircumflex" unicode="&#x176;" horiz-adv-x="261" 
d="M89 426l-76 934h85l30 -734h5l29 734h86l-75 -934l1 -426h-85v426zM35 1404l36 294h119l35 -294l-57 -1l-38 227l-37 -227z" />
    <glyph glyph-name="ycircumflex" unicode="&#x177;" horiz-adv-x="257" 
d="M43 -231h34c12 0 19.833 6 23.5 18s5.66699 23.167 6 33.5s0.5 16.5 0.5 18.5l7 168h-49l-47 1058h80l24 -765l3 -166h7l3 166l24 765h81l-50 -1232c-4 -47.333 -13.5 -81 -28.5 -101s-37.833 -30 -68.5 -30h-50v67zM32 1109l36 294h119l35 -294l-57 -1l-38 227l-37 -227
z" />
    <glyph glyph-name="Ydieresis" unicode="&#x178;" horiz-adv-x="261" 
d="M89 426l-76 934h85l30 -734h5l29 734h86l-75 -934l1 -426h-85v426zM46.5 1408.5c-4.33301 3.66699 -7.33301 12.667 -9 27s-2.5 39.833 -2.5 76.5c0 41.333 0.833008 70.166 2.5 86.499s4.66699 26.5 9 30.5s12.166 6 23.499 6s19.166 -2 23.499 -6
s7.33301 -14.167 9 -30.5s2.5 -45.166 2.5 -86.499c0 -36.667 -0.833008 -62.167 -2.5 -76.5s-4.66699 -23.333 -9 -27s-12.166 -5.5 -23.499 -5.5s-19.166 1.83301 -23.499 5.5zM165.5 1408.5c-4.33301 3.66699 -7.16602 12.5 -8.49902 26.5s-2 39.667 -2 77
c0 42 0.666992 71 2 87s4.16602 26 8.49902 30s12.166 6 23.499 6c12 0 20.167 -2 24.5 -6s7.16602 -14 8.49902 -30s2 -45 2 -87c0 -37.333 -0.666992 -63 -2 -77s-4.16602 -22.833 -8.49902 -26.5s-12.5 -5.5 -24.5 -5.5c-11.333 0 -19.166 1.83301 -23.499 5.5z" />
    <glyph glyph-name="Zacute" unicode="&#x179;" horiz-adv-x="244" 
d="M18 63l116 1226h-115v71h207v-65l-116 -1224h116v-71h-208v63zM125 1702l82 -3l-55 -296h-64z" />
    <glyph glyph-name="zacute" unicode="&#x17a;" horiz-adv-x="241" 
d="M18 56l110 938h-109v71h203v-56l-109 -938h110v-71h-205v56zM122 1407l82 -3l-55 -296h-64z" />
    <glyph glyph-name="Zdotaccent" unicode="&#x17b;" horiz-adv-x="244" 
d="M18 63l116 1226h-115v71h207v-65l-116 -1224h116v-71h-208v63zM98.5 1407.5c-5 4.33301 -8.5 13.832 -10.5 28.499s-3 39 -3 73c0 39.333 1 67.333 3 84s5.5 27.334 10.5 32.001s13.167 7 24.5 7c12 0 20.5 -2.33301 25.5 -7s8.5 -15.334 10.5 -32.001s3 -44.667 3 -84
c0 -34.667 -1 -59.167 -3 -73.5s-5.5 -23.666 -10.5 -27.999s-13.5 -6.5 -25.5 -6.5c-11.333 0 -19.5 2.16699 -24.5 6.5z" />
    <glyph glyph-name="zdotaccent" unicode="&#x17c;" horiz-adv-x="241" 
d="M18 56l110 938h-109v71h203v-56l-109 -938h110v-71h-205v56zM94.5 1112.5c-5 4.33301 -8.5 13.832 -10.5 28.499s-3 39 -3 73c0 39.333 1 67.333 3 84s5.5 27.334 10.5 32.001s13.167 7 24.5 7c12 0 20.5 -2.33301 25.5 -7s8.5 -15.334 10.5 -32.001s3 -44.667 3 -84
c0 -34.667 -1 -59.167 -3 -73.5s-5.5 -23.666 -10.5 -27.999s-13.5 -6.5 -25.5 -6.5c-11.333 0 -19.5 2.16699 -24.5 6.5z" />
    <glyph glyph-name="Zcaron" unicode="&#x17d;" horiz-adv-x="244" 
d="M18 63l116 1226h-115v71h207v-65l-116 -1224h116v-71h-208v63zM19 1697l67 1l38 -227l37 227l67 -1l-55 -294h-99z" />
    <glyph glyph-name="zcaron" unicode="&#x17e;" horiz-adv-x="241" 
d="M18 56l110 938h-109v71h203v-56l-109 -938h110v-71h-205v56zM15 1402l67 1l38 -227l37 227l67 -1l-55 -294h-99z" />
    <glyph glyph-name="longs" unicode="&#x17f;" horiz-adv-x="180" 
d="M36 997h-39.001v68h39v214c0 30 7.83301 52.5 23.5 67.5s39.834 22.5 72.501 22.5c13.333 0 24.5 -0.666992 33.5 -2s13.5 -2.33301 13.5 -3v-63c-2.66699 1.33301 -13.667 2 -33 2c-18 0 -27 -8.66699 -27 -26v-1277h-83v997z" />
    <glyph glyph-name="florin" unicode="&#x192;" horiz-adv-x="198" 
d="M-6 57h18.002c18.667 0 28 9.33301 28 28l1 912h-36v68h39v214c1.33301 30 10 52.5 26 67.5s40.333 22.5 73 22.5c13.333 0 24.166 -0.666992 32.499 -2s12.5 -2.33301 12.5 -3v-63l-34 2c-17.333 0 -26.333 -8.33301 -27 -25v-213h61v-68h-64l-1 -916
c-1.33301 -30 -9.83301 -52.5 -25.5 -67.5s-39.834 -22.5 -72.501 -22.5c-9.33301 0 -16.5 0.5 -21.5 1.5s-8.16699 1.5 -9.5 1.5v63z" />
    <glyph glyph-name="Ohorn" unicode="&#x1a0;" horiz-adv-x="331" 
d="M321 1417v-84.001c0 -34.667 -16.333 -56.667 -49 -66c-5.33301 -2 -12.333 -3 -21 -3v-3v-1163c0 -73.333 -38 -110 -114 -110c-36 0 -62.333 9 -79 27s-28 45.667 -34 83v1171c0 32.667 9.5 57.834 28.5 75.501s47.167 26.5 84.5 26.5c55.333 0 90.333 -19 105 -57
c9.33301 3.33301 14 9.33301 14 18v85h65zM165 1267c0 19.333 -9.33301 29 -28 29s-28 -9.66699 -28 -29v-1174c0 -19.333 9.33301 -29 28 -29s28 9.66699 28 29v1174z" />
    <glyph glyph-name="ohorn" unicode="&#x1a1;" horiz-adv-x="267" 
d="M312 1108v-84c0 -34.667 -16.667 -56.667 -50 -66c-5.33301 -2 -12.333 -3 -21 -3v-866c0 -67.333 -36 -101 -108 -101c-71.333 0 -107 33.667 -107 101v889c0 33.333 9 58.5 27 75.5s44.667 25.5 80 25.5c60 0 95 -23.667 105 -71c5.33301 4 8 9 8 15v85h66zM162 980
c0 20 -9.66699 30 -29 30c-18.667 0 -28 -10 -28 -30v-893c0 -20 9.33301 -30 28 -30c19.333 0 29 10 29 30v893z" />
    <glyph glyph-name="Uhorn" unicode="&#x1af;" horiz-adv-x="373" 
d="M333 1399v-84c0 -34.667 -16.667 -56.667 -50 -66c-6 -2 -17.667 -3.33301 -35 -4v-1159c0 -65.333 -37.333 -98 -112 -98c-74 0 -111 32.667 -111 98v1274h83v-1269c0 -20.667 9.33301 -31 28 -31s28 10.333 28 31v1269h84v-65c12.667 2.66699 19 9 19 19v85h66z" />
    <glyph glyph-name="uhorn" unicode="&#x1b0;" 
d="M325 1108v-84c0 -34 -16.333 -56 -49 -66c-6.66699 -2 -18.667 -3.33301 -36 -4v-868c0 -65.333 -35.667 -98 -107 -98s-107 33 -107 99v978h79v-978c0 -20 9.33301 -30 28 -30s28 10 28 30v978h79v-62c13.333 4 20 11 20 21v84h65z" />
    <glyph glyph-name="uni01CD" unicode="&#x1cd;" horiz-adv-x="252" 
d="M151 240h-50l-6 -240h-84l60 1360h110l60 -1360h-84zM149 305l-21 778h-5l-20 -778h46zM20 1697l67 1l38 -227l37 227l67 -1l-55 -294h-99z" />
    <glyph glyph-name="uni01CE" unicode="&#x1ce;" 
d="M213 1055.5c18 -15.667 27 -38.833 27 -69.5v-986h-73l-11 41c-12 -34.667 -33.667 -52 -65 -52c-20.667 0 -36.834 7.66699 -48.501 23s-17.5 37.333 -17.5 66v464c0 32.667 8.5 56 25.5 70s43.5 21 79.5 21h1h30v351c0 20.667 -9.33301 31 -28 31s-28 -10 -28 -30v-314
h-76v314c0 32 8.83301 55.667 26.5 71s44.834 23 81.501 23c32.667 0 58 -7.83301 76 -23.5zM161 579.001h-26.999c-19.333 0 -29 -11 -29 -33v-464c0 -19.333 8.66699 -29 26 -29c9.33301 0 16.666 3.5 21.999 10.5s8 17.167 8 30.5v485zM29.001 1416l67 1l38 -227l37 227
l67 -1l-55 -294h-99z" />
    <glyph glyph-name="uni01CF" unicode="&#x1cf;" horiz-adv-x="136" 
d="M26 1360h84v-1360h-84v1360zM-36 1697l67 1l38 -227l37 227l67 -1l-55 -294h-99z" />
    <glyph glyph-name="uni01D0" unicode="&#x1d0;" horiz-adv-x="135" 
d="M26 1065h83v-1065h-83v1065zM-37 1402l67 1l38 -227l37 227l67 -1l-55 -294h-99z" />
    <glyph glyph-name="uni01D1" unicode="&#x1d1;" horiz-adv-x="275" 
d="M24 1269c0 32.667 9.5 57.833 28.5 75.5s47.167 26.5 84.5 26.5c76 0 114 -36.667 114 -110v-1163c0 -73.333 -38 -110 -114 -110c-36 0 -62.333 9 -79 27s-28 45.667 -34 83v1171zM137 63.999c18.667 0 28 9.66699 28 29v1174c0 19.333 -9.33301 29 -28 29
s-28 -9.66699 -28 -29v-1174c0 -19.333 9.33301 -29 28 -29zM33 1708l67 1l38 -227l37 227l67 -1l-55 -294h-99z" />
    <glyph glyph-name="uni01D2" unicode="&#x1d2;" horiz-adv-x="267" 
d="M26 89v889c0 33.333 9 58.5 27 75.5s44.667 25.5 80 25.5c72 0 108 -33.667 108 -101v-889c0 -67.333 -36 -101 -108 -101c-71.333 0 -107 33.667 -107 101zM162 87v893c0 20 -9.66699 30 -29 30c-18.667 0 -28 -10 -28 -30v-893c0 -20 9.33301 -30 28 -30
c19.333 0 29 10 29 30zM29 1415l67 1l38 -227l37 227l67 -1l-55 -294h-99z" />
    <glyph glyph-name="uni01D3" unicode="&#x1d3;" horiz-adv-x="273" 
d="M25 86v1274h83v-1269c0 -20.667 9.33301 -31 28 -31s28 10.333 28 31v1269h84v-1274c0 -65.333 -37.333 -98 -112 -98c-74 0 -111 32.667 -111 98zM32 1697l67 1l38 -227l37 227l67 -1l-55 -294h-99z" />
    <glyph glyph-name="uni01D4" unicode="&#x1d4;" 
d="M26 87v978h79v-978c0 -20 9.33301 -30 28 -30s28 10 28 30v978h79v-979c0 -65.333 -35.667 -98 -107 -98s-107 33 -107 99zM26 1402l67 1l38 -227l37 227l67 -1l-55 -294h-99z" />
    <glyph glyph-name="uni01D5" unicode="&#x1d5;" horiz-adv-x="273" 
d="M25 86v1274h83v-1269c0 -20.667 9.33301 -31 28 -31s28 10.333 28 31v1269h84v-1274c0 -65.333 -37.333 -98 -112 -98c-74 0 -111 32.667 -111 98zM52.5 1408.5c-4.33301 3.66699 -7.33301 12.667 -9 27s-2.5 39.833 -2.5 76.5c0 41.333 0.833008 70.166 2.5 86.499
s4.66699 26.5 9 30.5s12.166 6 23.499 6s19.166 -2 23.499 -6s7.33301 -14.167 9 -30.5s2.5 -45.166 2.5 -86.499c0 -36.667 -0.833008 -62.167 -2.5 -76.5s-4.66699 -23.333 -9 -27s-12.166 -5.5 -23.499 -5.5s-19.166 1.83301 -23.499 5.5zM171.5 1408.5
c-4.33301 3.66699 -7.16602 12.5 -8.49902 26.5s-2 39.667 -2 77c0 42 0.666992 71 2 87s4.16602 26 8.49902 30s12.166 6 23.499 6c12 0 20.167 -2 24.5 -6s7.16602 -14 8.49902 -30s2 -45 2 -87c0 -37.333 -0.666992 -63 -2 -77s-4.16602 -22.833 -8.49902 -26.5
s-12.5 -5.5 -24.5 -5.5c-11.333 0 -19.166 1.83301 -23.499 5.5zM45 1739h181v-60h-181v60z" />
    <glyph glyph-name="uni01D6" unicode="&#x1d6;" 
d="M26 87v978h79v-978c0 -20 9.33301 -30 28 -30s28 10 28 30v978h79v-979c0 -65.333 -35.667 -98 -107 -98s-107 33 -107 99zM46.5 1113.5c-4.33301 3.66699 -7.33301 12.667 -9 27s-2.5 39.833 -2.5 76.5c0 41.333 0.833008 70.166 2.5 86.499s4.66699 26.5 9 30.5
s12.166 6 23.499 6s19.166 -2 23.499 -6s7.33301 -14.167 9 -30.5s2.5 -45.166 2.5 -86.499c0 -36.667 -0.833008 -62.167 -2.5 -76.5s-4.66699 -23.333 -9 -27s-12.166 -5.5 -23.499 -5.5s-19.166 1.83301 -23.499 5.5zM165.5 1113.5
c-4.33301 3.66699 -7.16602 12.5 -8.49902 26.5s-2 39.667 -2 77c0 42 0.666992 71 2 87s4.16602 26 8.49902 30s12.166 6 23.499 6c12 0 20.167 -2 24.5 -6s7.16602 -14 8.49902 -30s2 -45 2 -87c0 -37.333 -0.666992 -63 -2 -77s-4.16602 -22.833 -8.49902 -26.5
s-12.5 -5.5 -24.5 -5.5c-11.333 0 -19.166 1.83301 -23.499 5.5zM39 1444h181v-60h-181v60z" />
    <glyph glyph-name="uni01D7" unicode="&#x1d7;" horiz-adv-x="273" 
d="M25 86v1274h83v-1269c0 -20.667 9.33301 -31 28 -31s28 10.333 28 31v1269h84v-1274c0 -65.333 -37.333 -98 -112 -98c-74 0 -111 32.667 -111 98zM52.5 1408.5c-4.33301 3.66699 -7.33301 12.667 -9 27s-2.5 39.833 -2.5 76.5c0 41.333 0.833008 70.166 2.5 86.499
s4.66699 26.5 9 30.5s12.166 6 23.499 6s19.166 -2 23.499 -6s7.33301 -14.167 9 -30.5s2.5 -45.166 2.5 -86.499c0 -36.667 -0.833008 -62.167 -2.5 -76.5s-4.66699 -23.333 -9 -27s-12.166 -5.5 -23.499 -5.5s-19.166 1.83301 -23.499 5.5zM171.5 1408.5
c-4.33301 3.66699 -7.16602 12.5 -8.49902 26.5s-2 39.667 -2 77c0 42 0.666992 71 2 87s4.16602 26 8.49902 30s12.166 6 23.499 6c12 0 20.167 -2 24.5 -6s7.16602 -14 8.49902 -30s2 -45 2 -87c0 -37.333 -0.666992 -63 -2 -77s-4.16602 -22.833 -8.49902 -26.5
s-12.5 -5.5 -24.5 -5.5c-11.333 0 -19.166 1.83301 -23.499 5.5zM138 1978l82 -3l-55 -296h-64z" />
    <glyph glyph-name="uni01D8" unicode="&#x1d8;" 
d="M26 87v978h79v-978c0 -20 9.33301 -30 28 -30s28 10 28 30v978h79v-979c0 -65.333 -35.667 -98 -107 -98s-107 33 -107 99zM46.5 1113.5c-4.33301 3.66699 -7.33301 12.667 -9 27s-2.5 39.833 -2.5 76.5c0 41.333 0.833008 70.166 2.5 86.499s4.66699 26.5 9 30.5
s12.166 6 23.499 6s19.166 -2 23.499 -6s7.33301 -14.167 9 -30.5s2.5 -45.166 2.5 -86.499c0 -36.667 -0.833008 -62.167 -2.5 -76.5s-4.66699 -23.333 -9 -27s-12.166 -5.5 -23.499 -5.5s-19.166 1.83301 -23.499 5.5zM165.5 1113.5
c-4.33301 3.66699 -7.16602 12.5 -8.49902 26.5s-2 39.667 -2 77c0 42 0.666992 71 2 87s4.16602 26 8.49902 30s12.166 6 23.499 6c12 0 20.167 -2 24.5 -6s7.16602 -14 8.49902 -30s2 -45 2 -87c0 -37.333 -0.666992 -63 -2 -77s-4.16602 -22.833 -8.49902 -26.5
s-12.5 -5.5 -24.5 -5.5c-11.333 0 -19.166 1.83301 -23.499 5.5zM132 1683l82 -3l-55 -296h-64z" />
    <glyph glyph-name="uni01D9" unicode="&#x1d9;" horiz-adv-x="273" 
d="M25 86v1274h83v-1269c0 -20.667 9.33301 -31 28 -31s28 10.333 28 31v1269h84v-1274c0 -65.333 -37.333 -98 -112 -98c-74 0 -111 32.667 -111 98zM52.5 1408.5c-4.33301 3.66699 -7.33301 12.667 -9 27s-2.5 39.833 -2.5 76.5c0 41.333 0.833008 70.166 2.5 86.499
s4.66699 26.5 9 30.5s12.166 6 23.499 6s19.166 -2 23.499 -6s7.33301 -14.167 9 -30.5s2.5 -45.166 2.5 -86.499c0 -36.667 -0.833008 -62.167 -2.5 -76.5s-4.66699 -23.333 -9 -27s-12.166 -5.5 -23.499 -5.5s-19.166 1.83301 -23.499 5.5zM171.5 1408.5
c-4.33301 3.66699 -7.16602 12.5 -8.49902 26.5s-2 39.667 -2 77c0 42 0.666992 71 2 87s4.16602 26 8.49902 30s12.166 6 23.499 6c12 0 20.167 -2 24.5 -6s7.16602 -14 8.49902 -30s2 -45 2 -87c0 -37.333 -0.666992 -63 -2 -77s-4.16602 -22.833 -8.49902 -26.5
s-12.5 -5.5 -24.5 -5.5c-11.333 0 -19.166 1.83301 -23.499 5.5zM31 1973l67 1l38 -227l37 227l67 -1l-55 -294h-99z" />
    <glyph glyph-name="uni01DA" unicode="&#x1da;" 
d="M26 87v978h79v-978c0 -20 9.33301 -30 28 -30s28 10 28 30v978h79v-979c0 -65.333 -35.667 -98 -107 -98s-107 33 -107 99zM46.5 1113.5c-4.33301 3.66699 -7.33301 12.667 -9 27s-2.5 39.833 -2.5 76.5c0 41.333 0.833008 70.166 2.5 86.499s4.66699 26.5 9 30.5
s12.166 6 23.499 6s19.166 -2 23.499 -6s7.33301 -14.167 9 -30.5s2.5 -45.166 2.5 -86.499c0 -36.667 -0.833008 -62.167 -2.5 -76.5s-4.66699 -23.333 -9 -27s-12.166 -5.5 -23.499 -5.5s-19.166 1.83301 -23.499 5.5zM165.5 1113.5
c-4.33301 3.66699 -7.16602 12.5 -8.49902 26.5s-2 39.667 -2 77c0 42 0.666992 71 2 87s4.16602 26 8.49902 30s12.166 6 23.499 6c12 0 20.167 -2 24.5 -6s7.16602 -14 8.49902 -30s2 -45 2 -87c0 -37.333 -0.666992 -63 -2 -77s-4.16602 -22.833 -8.49902 -26.5
s-12.5 -5.5 -24.5 -5.5c-11.333 0 -19.166 1.83301 -23.499 5.5zM25 1678l67 1l38 -227l37 227l67 -1l-55 -294h-99z" />
    <glyph glyph-name="uni01DB" unicode="&#x1db;" horiz-adv-x="273" 
d="M25 86v1274h83v-1269c0 -20.667 9.33301 -31 28 -31s28 10.333 28 31v1269h84v-1274c0 -65.333 -37.333 -98 -112 -98c-74 0 -111 32.667 -111 98zM52.5 1408.5c-4.33301 3.66699 -7.33301 12.667 -9 27s-2.5 39.833 -2.5 76.5c0 41.333 0.833008 70.166 2.5 86.499
s4.66699 26.5 9 30.5s12.166 6 23.499 6s19.166 -2 23.499 -6s7.33301 -14.167 9 -30.5s2.5 -45.166 2.5 -86.499c0 -36.667 -0.833008 -62.167 -2.5 -76.5s-4.66699 -23.333 -9 -27s-12.166 -5.5 -23.499 -5.5s-19.166 1.83301 -23.499 5.5zM171.5 1408.5
c-4.33301 3.66699 -7.16602 12.5 -8.49902 26.5s-2 39.667 -2 77c0 42 0.666992 71 2 87s4.16602 26 8.49902 30s12.166 6 23.499 6c12 0 20.167 -2 24.5 -6s7.16602 -14 8.49902 -30s2 -45 2 -87c0 -37.333 -0.666992 -63 -2 -77s-4.16602 -22.833 -8.49902 -26.5
s-12.5 -5.5 -24.5 -5.5c-11.333 0 -19.166 1.83301 -23.499 5.5zM49 1975l83 3l36 -299h-64z" />
    <glyph glyph-name="uni01DC" unicode="&#x1dc;" 
d="M26 87v978h79v-978c0 -20 9.33301 -30 28 -30s28 10 28 30v978h79v-979c0 -65.333 -35.667 -98 -107 -98s-107 33 -107 99zM46.5 1113.5c-4.33301 3.66699 -7.33301 12.667 -9 27s-2.5 39.833 -2.5 76.5c0 41.333 0.833008 70.166 2.5 86.499s4.66699 26.5 9 30.5
s12.166 6 23.499 6s19.166 -2 23.499 -6s7.33301 -14.167 9 -30.5s2.5 -45.166 2.5 -86.499c0 -36.667 -0.833008 -62.167 -2.5 -76.5s-4.66699 -23.333 -9 -27s-12.166 -5.5 -23.499 -5.5s-19.166 1.83301 -23.499 5.5zM165.5 1113.5
c-4.33301 3.66699 -7.16602 12.5 -8.49902 26.5s-2 39.667 -2 77c0 42 0.666992 71 2 87s4.16602 26 8.49902 30s12.166 6 23.499 6c12 0 20.167 -2 24.5 -6s7.16602 -14 8.49902 -30s2 -45 2 -87c0 -37.333 -0.666992 -63 -2 -77s-4.16602 -22.833 -8.49902 -26.5
s-12.5 -5.5 -24.5 -5.5c-11.333 0 -19.166 1.83301 -23.499 5.5zM44 1680l83 3l36 -299h-64z" />
    <glyph glyph-name="uni01DE" unicode="&#x1de;" horiz-adv-x="252" 
d="M151 240h-50l-6 -240h-84l60 1360h110l60 -1360h-84zM149 305l-21 778h-5l-20 -778h46zM41.5 1408.5c-4.33301 3.66699 -7.33301 12.667 -9 27s-2.5 39.833 -2.5 76.5c0 41.333 0.833008 70.166 2.5 86.499s4.66699 26.5 9 30.5s12.166 6 23.499 6s19.166 -2 23.499 -6
s7.33301 -14.167 9 -30.5s2.5 -45.166 2.5 -86.499c0 -36.667 -0.833008 -62.167 -2.5 -76.5s-4.66699 -23.333 -9 -27s-12.166 -5.5 -23.499 -5.5s-19.166 1.83301 -23.499 5.5zM160.5 1408.5c-4.33301 3.66699 -7.16602 12.5 -8.49902 26.5s-2 39.667 -2 77
c0 42 0.666992 71 2 87s4.16602 26 8.49902 30s12.166 6 23.499 6c12 0 20.167 -2 24.5 -6s7.16602 -14 8.49902 -30s2 -45 2 -87c0 -37.333 -0.666992 -63 -2 -77s-4.16602 -22.833 -8.49902 -26.5s-12.5 -5.5 -24.5 -5.5c-11.333 0 -19.166 1.83301 -23.499 5.5zM33 1739
h181v-60h-181v60z" />
    <glyph glyph-name="uni01DF" unicode="&#x1df;" 
d="M213 1055.5c18 -15.667 27 -38.833 27 -69.5v-986h-73l-11 41c-12 -34.667 -33.667 -52 -65 -52c-20.667 0 -36.834 7.66699 -48.501 23s-17.5 37.333 -17.5 66v464c0 32.667 8.5 56 25.5 70s43.5 21 79.5 21h1h30v351c0 20.667 -9.33301 31 -28 31s-28 -10 -28 -30v-314
h-76v314c0 32 8.83301 55.667 26.5 71s44.834 23 81.501 23c32.667 0 58 -7.83301 76 -23.5zM161 579.001h-26.999c-19.333 0 -29 -11 -29 -33v-464c0 -19.333 8.66699 -29 26 -29c9.33301 0 16.666 3.5 21.999 10.5s8 17.167 8 30.5v485zM49.501 1127.5
c-4.33301 3.66699 -7.33301 12.667 -9 27s-2.5 39.833 -2.5 76.5c0 41.333 0.833008 70.166 2.5 86.499s4.66699 26.5 9 30.5s12.166 6 23.499 6s19.166 -2 23.499 -6s7.33301 -14.167 9 -30.5s2.5 -45.166 2.5 -86.499c0 -36.667 -0.833008 -62.167 -2.5 -76.5
s-4.66699 -23.333 -9 -27s-12.166 -5.5 -23.499 -5.5s-19.166 1.83301 -23.499 5.5zM168.501 1127.5c-4.33301 3.66699 -7.16602 12.5 -8.49902 26.5s-2 39.667 -2 77c0 42 0.666992 71 2 87s4.16602 26 8.49902 30s12.166 6 23.499 6c12 0 20.167 -2 24.5 -6
s7.16602 -14 8.49902 -30s2 -45 2 -87c0 -37.333 -0.666992 -63 -2 -77s-4.16602 -22.833 -8.49902 -26.5s-12.5 -5.5 -24.5 -5.5c-11.333 0 -19.166 1.83301 -23.499 5.5zM42.001 1458h181v-60h-181v60z" />
    <glyph glyph-name="Gcaron" unicode="&#x1e6;" horiz-adv-x="275" 
d="M24 98v1163c0 73.333 37.667 110 113 110s113 -34.333 113 -103v-518h-85v521c0 19.333 -9.33301 29 -28 29s-28 -9.66699 -28 -29v-1188c0 -19.333 9.33301 -29 28 -29c12.667 0 22.334 2.66699 29.001 8v582h-25v61h109v-684c-26.667 -22 -64.334 -33 -113.001 -33
c-75.333 0 -113 36.667 -113 110zM32 1668l67 1l38 -187l37 187l67 -1l-55 -254h-99z" />
    <glyph glyph-name="gcaron" unicode="&#x1e7;" horiz-adv-x="263" 
d="M24 -232l0.000976562 378c0 18.667 10.333 29 31 31c-20 7.33301 -30 25 -30 53v52c0 20.667 6 37.334 18 50.001c-10.667 11.333 -16 31.333 -16 60v594c0 62 33.667 93 101 93c27.333 0 50.333 -5.66699 69 -17c7.33301 11.333 18 17 32 17h39v-62h-29
c-0.666992 6 -5.33398 9.66699 -14.001 11c3.33301 -6.66699 5 -20.667 5 -42v-594c0 -60.667 -34 -91 -102 -91l-28 2l-6 -5v-51c0 -12.667 7.33301 -19.334 22 -20.001c14 0 24.667 0.333008 32 1c59.333 2.66699 89 -27 89 -89v-363c0 -31.333 -9 -54.833 -27 -70.5
s-45.333 -23.5 -82 -23.5c-69.333 0 -104 28.667 -104 86zM157.001 392v594c0 21.333 -9.66699 32 -29 32c-18.667 0 -28 -10.667 -28 -32v-594c0 -20 9.33301 -30 28 -30c19.333 0 29 10 29 30zM157.001 -227v362.999c0 20.667 -9.33301 31 -28 31l-29 -1v-393
c0 -9.33301 2.5 -16.666 7.5 -21.999s11.833 -8 20.5 -8c19.333 0 29 10 29 30zM23.001 1376l67 1l38 -187l37 187l67 -1l-55 -254h-99z" />
    <glyph glyph-name="Aringacute" unicode="&#x1fa;" horiz-adv-x="252" 
d="M151 240h-50l-6 -240h-84l60 1360h110l60 -1360h-84zM149 305l-21 778h-5l-20 -778h46zM38 1481v94c0 50.667 29 76 87 76s87 -25 87 -75v-95c0 -52 -29 -78 -87 -78s-87 26 -87 78zM154 1481v94c0 18.667 -9.66699 28 -29 28s-29 -9.33301 -29 -28v-94
c0 -20 9.66699 -30 29 -30s29 10 29 30zM127 1945l82 -3l-55 -252h-64z" />
    <glyph glyph-name="aringacute" unicode="&#x1fb;" 
d="M213 1055.5c18 -15.667 27 -38.833 27 -69.5v-986h-73l-11 41c-12 -34.667 -33.667 -52 -65 -52c-20.667 0 -36.834 7.66699 -48.501 23s-17.5 37.333 -17.5 66v464c0 32.667 8.5 56 25.5 70s43.5 21 79.5 21h1h30v351c0 20.667 -9.33301 31 -28 31s-28 -10 -28 -30v-314
h-76v314c0 32 8.83301 55.667 26.5 71s44.834 23 81.501 23c32.667 0 58 -7.83301 76 -23.5zM161 579.001h-26.999c-19.333 0 -29 -11 -29 -33v-464c0 -19.333 8.66699 -29 26 -29c9.33301 0 16.666 3.5 21.999 10.5s8 17.167 8 30.5v485zM47.001 1200v94
c0 50.667 29 76 87 76s87 -25 87 -75v-95c0 -52 -29 -78 -87 -78s-87 26 -87 78zM163.001 1200v94c0 18.667 -9.66699 28 -29 28s-29 -9.33301 -29 -28v-94c0 -20 9.66699 -30 29 -30s29 10 29 30zM136.001 1663l82 -3l-55 -252h-64z" />
    <glyph glyph-name="AEacute" unicode="&#x1fc;" horiz-adv-x="345" 
d="M120 1360h217v-70h-88v-583h70v-62h-70v-577h89v-68h-173l1 241h-49l-14 -241h-85zM166 305l2 778h-5l-7 -230l-34 -548h44zM241 1702l82 -3l-55 -296h-64z" />
    <glyph glyph-name="aeacute" unicode="&#x1fd;" horiz-adv-x="403" 
d="M189 33c-8 -12.667 -20.666 -23.168 -37.999 -31.501s-34.333 -12.5 -51 -12.5c-24.667 0 -43.167 7.5 -55.5 22.5s-18.5 37.167 -18.5 66.5v466c0 29.333 8.16699 51.5 24.5 66.5s40.833 22.5 73.5 22.5h37v351c0 20.667 -9.33301 31 -28 31s-28 -9.66699 -28 -29v-315
h-76v316c0 61.333 35 92 105 92c30.667 0 53.667 -7 69 -21c16 14 39.333 21 70 21c70 0 105 -33.667 105 -101l-1 -239c-0.666992 -52 -1 -129.333 -1 -232h-135v-430c0 -19.333 9.33301 -29 28 -29s28 9.66699 28 29v374h78v-373
c-2.66699 -29.333 -13 -51.666 -31 -66.999s-43 -23 -75 -23c-40.667 0 -67.334 15 -80.001 45zM297.001 563.999v422c0 19.333 -9.33301 29 -28 29s-28 -9.66699 -28 -29v-422h56zM161.001 93.999v485h-26c-20 0 -30 -11 -30 -33v-464c0 -19.333 8.66699 -29 26 -29
c20 0 30 13.667 30 41zM207.001 1421l82 -3l-55 -296h-64z" />
    <glyph glyph-name="Oslashacute" unicode="&#x1fe;" horiz-adv-x="279" 
d="M250 1281c0.666992 -4 0.999023 -10.668 0.999023 -20.001v-1163c0 -73.333 -38 -110 -114 -110c-20.667 0 -38 3 -52 9l-6 -49l-57 12l12 95c-5.33301 16.667 -8.66602 31 -9.99902 43v1171c0 32.667 9.5 57.834 28.5 75.501s47.167 26.5 84.5 26.5
c26 0 47.333 -4.33301 64 -13l6 47l57 -14zM108.999 639.999l56 437v190c0 19.333 -9.33301 29 -28 29s-28 -9.66699 -28 -29v-627zM164.999 618.999l-56 -437v-89c0 -19.333 9.33301 -29 28 -29s28 9.66699 28 29v526zM138.999 1713l82 -3l-55 -296h-64z" />
    <glyph glyph-name="oslashacute" unicode="&#x1ff;" horiz-adv-x="265" 
d="M236 1017c3.33301 -13.333 5.00195 -26.333 5.00195 -39v-889c0 -67.333 -36 -101 -108 -101c-14.667 0 -29.334 1.66699 -44.001 5l-7 -50l-65 17l13 91c-3.33301 12 -5 24.667 -5 38v889c0 66.667 36 100 108 100c15.333 0 29.666 -1.66699 42.999 -5l7 48l65 -18z
M105.002 575l56 392v13c0 20 -9.33301 30 -28 30s-28 -10 -28 -30v-405zM161.002 495l-56 -391v-17c0 -20 9.33301 -30 28 -30s28 10 28 30v408zM133.002 1417l82 -3l-55 -252h-64z" />
    <glyph glyph-name="uni0218" unicode="&#x218;" horiz-adv-x="268" 
d="M26 85l-0.00195312 370h80v-370c0 -19.333 9.33301 -29 28 -29s28 9.66699 28 29c0 77.333 -1.66699 153.333 -5 228c-6 106.667 -15 194 -27 262s-28 141.667 -48 221c-19.333 73.333 -33.5 138.5 -42.5 195.5s-13.5 129.167 -13.5 216.5v66
c0.666992 64.667 36.334 97 107.001 97c35.333 0 62.166 -8.33301 80.499 -25s27.5 -40.667 27.5 -72v-277h-79v277c0 19.333 -9.33301 29 -28 29s-28 -9.66699 -28 -29c0 -56 2 -107 6 -153c4.66699 -61.333 11.334 -115.833 20.001 -163.5s21 -103.5 37 -167.5
c16 -67.333 28.833 -126 38.5 -176s17.834 -112 24.501 -186s10 -160.333 10 -259v-86c0 -31.333 -9.16699 -55 -27.5 -71s-44.5 -24 -78.5 -24c-73.333 0 -110 32.333 -110 97zM91.998 -59h83l-39 -330h-66z" />
    <glyph glyph-name="uni0219" unicode="&#x219;" horiz-adv-x="259" 
d="M52 15.5c-17.333 17.667 -26.001 38.501 -26.001 62.501v294l76 -1v-293c0 -8 2.33301 -14.5 7 -19.5s11.667 -7.5 21 -7.5s16.333 2.5 21 7.5s7 11.833 7 20.5c0 24 -0.5 50.5 -1.5 79.5s-1.5 50.167 -1.5 63.5c-2 30 -3 58.333 -3 85
c-1.33301 53.333 -6.5 96.666 -15.5 129.999s-22.5 69.666 -40.5 108.999c-15.333 35.333 -27.5 67 -36.5 95s-16.833 65 -23.5 111s-10 101.667 -10 167v67c0 28 9.16699 50 27.5 66s43.166 24 74.499 24c32 0 57.333 -8.16699 76 -24.5s28 -38.166 28 -65.499v-250h-75
v252c0 6 -2.33301 11.833 -7 17.5s-11.667 8.5 -21 8.5s-16.333 -2.83301 -21 -8.5s-7 -11.5 -7 -17.5c0 -61.333 2.33301 -113.333 7 -156c3.33301 -46 8 -83.833 14 -113.5s12.333 -53 19 -70s15.667 -36.167 27 -57.5c14.667 -28 26.334 -55.333 35.001 -82
s16 -67.5 22 -122.5s9 -129.167 9 -222.5v-87c0 -26.667 -9.5 -48 -28.5 -64s-43.833 -24 -74.5 -24c-35.333 0 -61.666 8.83301 -78.999 26.5zM87.999 -57.999h83l-39 -330h-66z" />
    <glyph glyph-name="uni021A" unicode="&#x21a;" horiz-adv-x="189" 
d="M51 1288h-46v72h177v-72h-47v-1288h-84v1288zM51 -48h83l-39 -330h-66z" />
    <glyph glyph-name="uni021B" unicode="&#x21b;" horiz-adv-x="158" 
d="M56.5 25.5c-17 17 -25.5 40.5 -25.5 70.5v900h-28v62l27 13l19 236h65v-242h53v-69h-53v-896c0 -8.66699 2.66699 -16 8 -22s13 -9 23 -9h22v-69h-42c-28.667 0 -51.5 8.5 -68.5 25.5zM63 -48h83l-39 -330h-66z" />
    <glyph glyph-name="uni0228" unicode="&#x228;" horiz-adv-x="204" 
d="M111 1290v-583h69v-62h-69v-577h88v-68h-54l-2 -105c33.333 -2 50 -25.333 50 -70v-152c0 -56.667 -29.667 -85 -89 -85c-16.667 0 -32 3 -46 9l9 57c4 -3.33301 13 -5 27 -5c20 0 30 8.66699 30 26v153c0 19.333 -15.333 29 -46 29l3 143h-55v1360h173v-70h-88z" />
    <glyph glyph-name="uni0229" unicode="&#x229;" horiz-adv-x="267" 
d="M105 507v-430c0 -19.333 9.33301 -29 28 -29s28 9.66699 28 29v374h78v-373c-4 -48.667 -28.333 -77.667 -73 -87l-3 -110c34 -2 51 -25.333 51 -70v-152c0 -28 -7.66699 -49.167 -23 -63.5s-37.666 -21.5 -66.999 -21.5c-16.667 0 -32 3 -46 9l9 57
c4 -3.33301 13 -5 27 -5c20 0 30 8.66699 30 26v153c0 18 -15.333 27.667 -46 29l3 148c-24.667 4.66699 -43.5 15.334 -56.5 32.001s-19.5 39 -19.5 67v887c0 33.333 9.16699 58.666 27.5 75.999s45.166 26 80.499 26c72 0 108 -33.667 108 -101l-1 -471h-135zM105 987
v-422h56v422c0 19.333 -9.33301 29 -28 29s-28 -9.66699 -28 -29z" />
    <glyph glyph-name="uni022A" unicode="&#x22a;" horiz-adv-x="275" 
d="M24 1269c0 32.667 9.5 57.833 28.5 75.5s47.167 26.5 84.5 26.5c76 0 114 -36.667 114 -110v-1163c0 -73.333 -38 -110 -114 -110c-36 0 -62.333 9 -79 27s-28 45.667 -34 83v1171zM137 63.999c18.667 0 28 9.66699 28 29v1174c0 19.333 -9.33301 29 -28 29
s-28 -9.66699 -28 -29v-1174c0 -19.333 9.33301 -29 28 -29zM53.5 1419.5c-4.33301 3.66699 -7.33301 12.667 -9 27s-2.5 39.833 -2.5 76.5c0 41.333 0.833008 70.166 2.5 86.499s4.66699 26.5 9 30.5s12.166 6 23.499 6s19.166 -2 23.499 -6s7.33301 -14.167 9 -30.5
s2.5 -45.166 2.5 -86.499c0 -36.667 -0.833008 -62.167 -2.5 -76.5s-4.66699 -23.333 -9 -27s-12.166 -5.5 -23.499 -5.5s-19.166 1.83301 -23.499 5.5zM172.5 1419.5c-4.33301 3.66699 -7.16602 12.5 -8.49902 26.5s-2 39.667 -2 77c0 42 0.666992 71 2 87
s4.16602 26 8.49902 30s12.166 6 23.499 6c12 0 20.167 -2 24.5 -6s7.16602 -14 8.49902 -30s2 -45 2 -87c0 -37.333 -0.666992 -63 -2 -77s-4.16602 -22.833 -8.49902 -26.5s-12.5 -5.5 -24.5 -5.5c-11.333 0 -19.166 1.83301 -23.499 5.5zM45 1750h181v-60h-181v60z" />
    <glyph glyph-name="uni022B" unicode="&#x22b;" horiz-adv-x="267" 
d="M26 89v889c0 33.333 9 58.5 27 75.5s44.667 25.5 80 25.5c72 0 108 -33.667 108 -101v-889c0 -67.333 -36 -101 -108 -101c-71.333 0 -107 33.667 -107 101zM162 87v893c0 20 -9.66699 30 -29 30c-18.667 0 -28 -10 -28 -30v-893c0 -20 9.33301 -30 28 -30
c19.333 0 29 10 29 30zM49.5 1126.5c-4.33301 3.66699 -7.33301 12.667 -9 27s-2.5 39.833 -2.5 76.5c0 41.333 0.833008 70.166 2.5 86.499s4.66699 26.5 9 30.5s12.166 6 23.499 6s19.166 -2 23.499 -6s7.33301 -14.167 9 -30.5s2.5 -45.166 2.5 -86.499
c0 -36.667 -0.833008 -62.167 -2.5 -76.5s-4.66699 -23.333 -9 -27s-12.166 -5.5 -23.499 -5.5s-19.166 1.83301 -23.499 5.5zM168.5 1126.5c-4.33301 3.66699 -7.16602 12.5 -8.49902 26.5s-2 39.667 -2 77c0 42 0.666992 71 2 87s4.16602 26 8.49902 30s12.166 6 23.499 6
c12 0 20.167 -2 24.5 -6s7.16602 -14 8.49902 -30s2 -45 2 -87c0 -37.333 -0.666992 -63 -2 -77s-4.16602 -22.833 -8.49902 -26.5s-12.5 -5.5 -24.5 -5.5c-11.333 0 -19.166 1.83301 -23.499 5.5zM42 1457h181v-60h-181v60z" />
    <glyph glyph-name="uni0237" unicode="&#x237;" horiz-adv-x="135" 
d="M-22 -238l20 -0.000976562c8 0 14.667 2.33301 20 7s8 12.334 8 23.001v1273h83v-1272c0 -62.667 -34 -94 -102 -94h-29v63z" />
    <glyph glyph-name="uni02B0" unicode="&#x2b0;" horiz-adv-x="268" 
d="M25 1360l80.998 0.000976562l3 -301c6.66699 3.33301 15.834 6.66602 27.501 9.99902s23.5 5 35.5 5c26.667 0 44.834 -7.83301 54.501 -23.5s14.5 -42.5 14.5 -80.5v-970h-80v969c0 17.333 -1 28.5 -3 33.5s-7.33301 7.5 -16 7.5c-14 0 -26.333 -6.33301 -37 -19v-991
h-80v1360z" />
    <glyph glyph-name="uni02B2" unicode="&#x2b2;" horiz-adv-x="136" 
d="M37.5 1106c-5.66699 4 -9.5 13.667 -11.5 29s-3 43 -3 83c0 40.667 1 68.834 3 84.501s5.83301 25.5 11.5 29.5s15.834 6 30.501 6s24.834 -2 30.501 -6s9.5 -13.833 11.5 -29.5s3 -43.834 3 -84.501c0 -40 -1 -67.667 -3 -83s-5.83301 -25 -11.5 -29
s-15.834 -6 -30.501 -6s-24.834 2 -30.501 6zM-22 -238l20 -0.000976562c8 0 14.667 2.33301 20 7s8 12.334 8 23.001v1272c16 -1.33301 27.667 -2 35 -2c12 0 22 0.333008 30 1s14.333 1 19 1v-1271c0 -36 -9.66699 -60.667 -29 -74s-44 -20 -74 -20h-29v63z" />
    <glyph glyph-name="uni02B7" unicode="&#x2b7;" horiz-adv-x="425" 
d="M18 1065h79l24 -748l3 -183h7l2 183l25 748h110l24 -748l2 -183h8l3 183l23 748h80l-49 -1065h-116l-27 928h-7l-26 -928h-116z" />
    <glyph glyph-name="circumflex" unicode="&#x2c6;" horiz-adv-x="189" 
d="M0 1109l36 294h119l35 -294l-57 -1l-38 227l-37 -227z" />
    <glyph glyph-name="caron" unicode="&#x2c7;" horiz-adv-x="219" 
d="M5 1402l67 1l38 -227l37 227l67 -1l-55 -294h-99z" />
    <glyph glyph-name="uni02C9" unicode="&#x2c9;" horiz-adv-x="241" 
d="M29 1171h183v-63h-183v63z" />
    <glyph glyph-name="breve" unicode="&#x2d8;" horiz-adv-x="180" 
d="M23.5 1131c-14.333 16 -21.833 40.667 -22.5 74v181h66v-181c0 -32 7.66699 -48 23 -48s23 16 23 48v181h66v-181c-0.666992 -33.333 -8.16699 -58 -22.5 -74s-36.5 -24 -66.5 -24s-52.167 8 -66.5 24z" />
    <glyph glyph-name="dotaccent" unicode="&#x2d9;" horiz-adv-x="125" 
d="M37.5 1112.5c-5 4.33301 -8.5 13.832 -10.5 28.499s-3 39 -3 73c0 39.333 1 67.333 3 84s5.5 27.334 10.5 32.001s13.167 7 24.5 7c12 0 20.5 -2.33301 25.5 -7s8.5 -15.334 10.5 -32.001s3 -44.667 3 -84c0 -34.667 -1 -59.167 -3 -73.5s-5.5 -23.666 -10.5 -27.999
s-13.5 -6.5 -25.5 -6.5c-11.333 0 -19.5 2.16699 -24.5 6.5z" />
    <glyph glyph-name="ring" unicode="&#x2da;" horiz-adv-x="226" 
d="M48.5 1129c-15 14 -22.5 34.001 -22.5 60.001v149c0 25.333 7.5 44.833 22.5 58.5s36.5 20.5 64.5 20.5s49.5 -6.83301 64.5 -20.5s22.5 -32.834 22.5 -57.501v-150c0 -26 -7.5 -46 -22.5 -60s-36.5 -21 -64.5 -21s-49.5 7 -64.5 21zM142 1189v149
c0 19.333 -9.66699 29 -29 29s-29 -9.66699 -29 -29v-149c0 -20.667 9.66699 -31 29 -31s29 10.333 29 31z" />
    <glyph glyph-name="ogonek" unicode="&#x2db;" horiz-adv-x="224" 
d="M33 -230c0 96.667 34 183 102 259l62 -15c-57.333 -66.667 -86 -145.667 -86 -237c0 -17.333 7 -26 21 -26c10.667 0 21 8.66699 31 26l43 -26c-18 -40.667 -48 -61 -90 -61c-55.333 0 -83 26.667 -83 80z" />
    <glyph glyph-name="tilde" unicode="&#x2dc;" horiz-adv-x="243" 
d="M20 1252c0 26.667 5.16699 45.5 15.5 56.5s27.833 16.5 52.5 16.5c21.333 0 36.333 -3.66699 45 -11s13.334 -20.333 14.001 -39v-93c0 -13.333 3 -20 9 -20c2.66699 0 4.66699 1.66699 6 5s2 9.33301 2 18v140h57l1 -141c0 -26.667 -5 -45.5 -15 -56.5
s-27.667 -16.5 -53 -16.5c-20.667 0 -35.334 3.66699 -44.001 11s-13.334 20 -14.001 38v93c-0.666992 13.333 -3.66699 20 -9 20c-3.33301 0 -5.66602 -1.66699 -6.99902 -5s-2 -9.33301 -2 -18v-139h-57z" />
    <glyph glyph-name="hungarumlaut" unicode="&#x2dd;" horiz-adv-x="219" 
d="M57 1407l71 -3l-55 -296h-53zM153 1407l71 -3l-55 -296h-53z" />
    <glyph glyph-name="uni02E1" unicode="&#x2e1;" horiz-adv-x="136" 
d="M26 1360h84v-1360h-84v1360z" />
    <glyph glyph-name="gravecomb" unicode="&#x300;" horiz-adv-x="0" 
d="M-128 1360l83 3l36 -255h-64z" />
    <glyph glyph-name="acutecomb" unicode="&#x301;" horiz-adv-x="0" 
d="M-91 1363l82 -3l-55 -252h-64z" />
    <glyph glyph-name="uni0302" unicode="&#x302;" horiz-adv-x="0" 
d="M-189 1109l36 254h119l35 -254l-57 -1l-38 227l-37 -227z" />
    <glyph glyph-name="tildecomb" unicode="&#x303;" horiz-adv-x="0" 
d="M-223 1252c0 26 4.99805 43.999 14.998 53.999s27.667 15 53 15c21.333 0 36.333 -3.66699 45 -11s13.334 -20.333 14.001 -39v-93c0 -13.333 3 -20 9 -20c2.66699 0 4.66699 1.83301 6 5.5s2 9.83398 2 18.501v139h57l1 -141c0 -26 -5 -44 -15 -54s-27.667 -15 -53 -15
c-21.333 0 -36.166 3.5 -44.499 10.5s-12.833 19.833 -13.5 38.5v93c-0.666992 13.333 -3.66699 20 -9 20c-6 0 -9 -8 -9 -24v-139l-57 1z" />
    <glyph glyph-name="uni0304" unicode="&#x304;" horiz-adv-x="0" 
d="M-217 1168h181v-60h-181v60z" />
    <glyph glyph-name="uni0306" unicode="&#x306;" horiz-adv-x="0" 
d="M-191.5 1129.5c-13.667 15 -20.834 39.5 -21.501 73.5v155h66v-155c0 -16.667 1.83301 -28.667 5.5 -36s9.5 -11 17.5 -11c8.66699 0 14.834 3.66699 18.501 11s5.5 19.333 5.5 36v155h65v-155c-0.666992 -34 -7.66699 -58.5 -21 -73.5s-36 -22.5 -68 -22.5
c-31.333 0 -53.833 7.5 -67.5 22.5z" />
    <glyph glyph-name="uni0307" unicode="&#x307;" horiz-adv-x="0" 
d="M-88 1112c-4.66699 4 -8 13 -10 27s-3 38.333 -3 73c0 39.333 1 67.333 3 84s5.33301 27.167 10 31.5s13 6.5 25 6.5s20.5 -2.16699 25.5 -6.5s8.5 -14.833 10.5 -31.5s3 -44.667 3 -84c0 -34.667 -1 -59 -3 -73s-5.5 -23 -10.5 -27s-13.5 -6 -25.5 -6s-20.333 2 -25 6z
" />
    <glyph glyph-name="uni0308" unicode="&#x308;" horiz-adv-x="0" 
d="M-199.5 1113.5c-4.33301 3.66699 -7.33301 12.667 -9 27s-2.5 39.833 -2.5 76.5c0 41.333 0.833008 70.166 2.5 86.499s4.66699 26.5 9 30.5s12.166 6 23.499 6s19.166 -2 23.499 -6s7.33301 -14.167 9 -30.5s2.5 -45.166 2.5 -86.499
c0 -36.667 -0.833008 -62.167 -2.5 -76.5s-4.66699 -23.333 -9 -27s-12.166 -5.5 -23.499 -5.5s-19.166 1.83301 -23.499 5.5zM-80.5 1113.5c-4.33301 3.66699 -7.16602 12.5 -8.49902 26.5s-2 39.667 -2 77c0 42 0.666992 71 2 87s4.16602 26 8.49902 30s12.166 6 23.499 6
c12 0 20.167 -2 24.5 -6s7.16602 -14 8.49902 -30s2 -45 2 -87c0 -37.333 -0.666992 -63 -2 -77s-4.16602 -22.833 -8.49902 -26.5s-12.5 -5.5 -24.5 -5.5c-11.333 0 -19.166 1.83301 -23.499 5.5z" />
    <glyph glyph-name="hookabovecomb" unicode="&#x309;" horiz-adv-x="0" 
d="M-130 1154c14 0.666992 23.5 2.66797 28.5 6.00098s7.5 8.66602 7.5 15.999v153c0 16.667 -10.667 25 -32 25c-14 0 -23.667 -1.33301 -29 -4l-8 52c18 5.33301 33.667 8 47 8c58 0 87 -26.667 87 -80v-151c0 -34.667 -16.667 -57 -50 -67c-12 -2.66699 -29 -4 -51 -4v46
z" />
    <glyph glyph-name="uni030A" unicode="&#x30a;" horiz-adv-x="0" 
d="M-200 1186v94c0 50.667 29 76 87 76s87 -25 87 -75v-95c0 -52 -29 -78 -87 -78s-87 26 -87 78zM-84 1186v94c0 18.667 -9.66699 28 -29 28s-29 -9.33301 -29 -28v-94c0 -20 9.66699 -30 29 -30s29 10 29 30z" />
    <glyph glyph-name="uni030B" unicode="&#x30b;" horiz-adv-x="0" 
d="M-163 1367l71 -3l-54 -256h-53zM-67 1367l71 -3l-54 -256h-53z" />
    <glyph glyph-name="uni030C" unicode="&#x30c;" horiz-adv-x="0" 
d="M-214 1362l67 1l38 -187l37 187l67 -1l-55 -254h-99z" />
    <glyph glyph-name="uni0312" unicode="&#x312;" horiz-adv-x="0" 
d="M-107 1398h66l-22 -290h-83z" />
    <glyph glyph-name="uni031B" unicode="&#x31b;" horiz-adv-x="0" 
d="M-139 1152c30 0 45 7.66699 45 23v84h65v-84c0 -34 -16.333 -56 -49 -66c-8.66699 -2.66699 -27 -4 -55 -4z" />
    <glyph glyph-name="dotbelowcomb" unicode="&#x323;" horiz-adv-x="0" 
d="M-88 -297c-4.66699 4 -8 13 -10 27s-3 38.333 -3 73c0 39.333 1 67.333 3 84s5.33301 27.167 10 31.5s13 6.5 25 6.5s20.5 -2.16699 25.5 -6.5s8.5 -14.833 10.5 -31.5s3 -44.667 3 -84c0 -34.667 -1 -59 -3 -73s-5.5 -23 -10.5 -27s-13.5 -6 -25.5 -6s-20.333 2 -25 6z
" />
    <glyph glyph-name="uni0326" unicode="&#x326;" horiz-adv-x="0" 
d="M-151 -57h83l-39 -330h-66z" />
    <glyph glyph-name="uni0327" unicode="&#x327;" horiz-adv-x="0" 
d="M-196 -415l8 57c6.66699 -3.33301 16 -5 28 -5c20 0 30 8.66699 30 26v153c0 19.333 -15.667 29 -47 29l4 171l64 -1l-2 -132c33.333 -2 50 -25.333 50 -70v-152c0 -56.667 -29.667 -85 -89 -85c-16.667 0 -32 3 -46 9z" />
    <glyph glyph-name="uni0328" unicode="&#x328;" horiz-adv-x="0" 
d="M-167 -230c0 96.667 34 183 102 259l62 -15c-57.333 -66.667 -86 -145.667 -86 -237c0 -17.333 7 -26 21 -26c10.667 0 21 8.66699 31 26l43 -26c-18 -40.667 -48 -61 -90 -61c-55.333 0 -83 26.667 -83 80z" />
    <glyph glyph-name="uni037E" unicode="&#x37e;" horiz-adv-x="152" 
d="M45 224h83l-40 -345h-66zM57.5 646c-5.66699 4.66699 -9.5 14.5 -11.5 29.5s-3 40.5 -3 76.5c0 40.667 1 69.667 3 87s5.83301 28.5 11.5 33.5s15.167 7.5 28.5 7.5s22.666 -2.5 27.999 -7.5s9 -16 11 -33s3 -46.167 3 -87.5c0 -36 -1 -61.5 -3 -76.5
s-5.66699 -24.833 -11 -29.5s-14.666 -7 -27.999 -7s-22.833 2.33301 -28.5 7z" />
    <glyph glyph-name="tonos" unicode="&#x384;" horiz-adv-x="105" 
d="M33 1099l-10 260h57l-2 -260h-45z" />
    <glyph glyph-name="dieresistonos" unicode="&#x385;" horiz-adv-x="245" 
d="M98 1268l-7 254h62l-8 -254h-47zM31.5 1116.5c-4.33301 3.66699 -7.16602 12.5 -8.49902 26.5s-2 39.667 -2 77c0 42 0.666992 71 2 87s4.16602 26 8.49902 30s12.166 6 23.499 6c12 0 20.167 -2 24.5 -6s7.16602 -14 8.49902 -30s2 -45 2 -87
c0 -37.333 -0.666992 -63 -2 -77s-4.16602 -22.833 -8.49902 -26.5s-12.5 -5.5 -24.5 -5.5c-11.333 0 -19.166 1.83301 -23.499 5.5zM165.5 1116.5c-4.33301 3.66699 -7.16602 12.499 -8.49902 26.499s-2 39.667 -2 77c0 42 0.666992 71 2 87s4.16602 26 8.49902 30
s12.166 6 23.499 6s19.166 -2 23.499 -6s7.33301 -14.167 9 -30.5s2.5 -45.166 2.5 -86.499c0 -36.667 -0.833008 -62.167 -2.5 -76.5s-4.66699 -23.333 -9 -27s-12.166 -5.5 -23.499 -5.5s-19.166 1.83301 -23.499 5.5z" />
    <glyph glyph-name="Alphatonos" unicode="&#x386;" horiz-adv-x="252" 
d="M151 240h-50l-6 -240h-84l60 1360h110l60 -1360h-84zM149 305l-21 778h-5l-20 -778h46zM-40 1100l-10 260h57l-2 -260h-45z" />
    <glyph glyph-name="anoteleia" unicode="&#x387;" horiz-adv-x="133" 
d="M37.5 505c-5.66699 4.66699 -9.5 14.5 -11.5 29.5s-3 40.5 -3 76.5c0 40.667 1 69.667 3 87s5.83301 28.5 11.5 33.5s15.167 7.5 28.5 7.5s22.666 -2.5 27.999 -7.5s9 -16 11 -33s3 -46.167 3 -87.5c0 -36 -1 -61.5 -3 -76.5s-5.66699 -24.833 -11 -29.5
s-14.666 -7 -27.999 -7s-22.833 2.33301 -28.5 7z" />
    <glyph glyph-name="Epsilontonos" unicode="&#x388;" horiz-adv-x="204" 
d="M26 1360h173v-70h-88v-583h69v-62h-69v-577h88v-68h-173v1360zM-57 1100l-10 260h57l-2 -260h-45z" />
    <glyph glyph-name="Etatonos" unicode="&#x389;" horiz-adv-x="275" 
d="M26 1360h83v-647h56v647h84v-1360h-84v644h-56v-644h-83v1360zM-57 1100l-10 260h57l-2 -260h-45z" />
    <glyph glyph-name="Iotatonos" unicode="&#x38a;" horiz-adv-x="136" 
d="M26 1360h84v-1360h-84v1360zM-57 1100l-10 260h57l-2 -260h-45z" />
    <glyph glyph-name="Omicrontonos" unicode="&#x38c;" horiz-adv-x="275" 
d="M24 1269c0 32.667 9.5 57.833 28.5 75.5s47.167 26.5 84.5 26.5c76 0 114 -36.667 114 -110v-1163c0 -73.333 -38 -110 -114 -110c-36 0 -62.333 9 -79 27s-28 45.667 -34 83v1171zM137 63.999c18.667 0 28 9.66699 28 29v1174c0 19.333 -9.33301 29 -28 29
s-28 -9.66699 -28 -29v-1174c0 -19.333 9.33301 -29 28 -29zM-55 1100l-10 260h57l-2 -260h-45z" />
    <glyph glyph-name="Upsilontonos" unicode="&#x38e;" horiz-adv-x="261" 
d="M89 426l-76 934h85l30 -734h5l29 734h86l-75 -934l1 -426h-85v426zM-67 1100l-10 260h57l-2 -260h-45z" />
    <glyph glyph-name="Omegatonos" unicode="&#x38f;" horiz-adv-x="281" 
d="M262 68l-0.00195312 -68h-104l2 212c5.33301 478 8.33301 827.333 9 1048c0 10 -1.83301 18.167 -5.5 24.5s-11.167 9.5 -22.5 9.5h-1c-10.667 0 -18.167 -3.66699 -22.5 -11s-6.16602 -15 -5.49902 -23c0.666992 -232.667 3.66699 -585 9 -1057l2 -203h-104v68
c2 -0.666992 13.333 -2 34 -4c-6 104 -11.833 277.667 -17.5 521s-8.5 471.333 -8.5 684c0 29.333 9.16699 53.666 27.5 72.999s46.833 29 85.5 29s67.334 -9.66699 86.001 -29s28 -43.666 28 -72.999c0 -210 -3 -436.833 -9 -680.5s-12 -418.5 -18 -524.5
c19.333 2 31 3.33301 35 4zM-55.002 1100l-10 260h57l-2 -260h-45z" />
    <glyph glyph-name="iotadieresistonos" unicode="&#x390;" horiz-adv-x="135" 
d="M48 1230l-6 225h51l-7 -225h-38zM-7.5 1096.5c-3.66699 3 -6 10.666 -7 22.999s-1.5 34.833 -1.5 67.5c0 38 0.5 63.833 1.5 77.5s3.33301 22.334 7 26.001s10.167 5.5 19.5 5.5c10 0 16.667 -1.83301 20 -5.5s5.66602 -12.5 6.99902 -26.5s2 -39.667 2 -77
c0 -32.667 -0.666992 -55.167 -2 -67.5s-3.66602 -20 -6.99902 -23s-10 -4.5 -20 -4.5c-9.33301 0 -15.833 1.5 -19.5 4.5zM103 1096.5c-3.33301 3 -5.66602 10.667 -6.99902 23s-2 34.833 -2 67.5c0 37.333 0.666992 63 2 77s3.66602 22.833 6.99902 26.5s10 5.5 20 5.5
s16.667 -1.83301 20 -5.5s5.66602 -12.5 6.99902 -26.5s2 -39.667 2 -77c0 -32.667 -0.666992 -55.167 -2 -67.5s-3.66602 -20 -6.99902 -23s-10 -4.5 -20 -4.5s-16.667 1.5 -20 4.5zM26 1065h83v-1065h-83v1065z" />
    <glyph glyph-name="Alpha" unicode="&#x391;" horiz-adv-x="252" 
d="M151 240h-50l-6 -240h-84l60 1360h110l60 -1360h-84zM149 305l-21 778h-5l-20 -778h46z" />
    <glyph glyph-name="Beta" unicode="&#x392;" horiz-adv-x="272" 
d="M26 1360h110c38 0 65.833 -7.33301 83.5 -22s26.5 -37.667 26.5 -69v-514c0 -38.667 -13.333 -64.667 -40 -78c27.333 -12 41 -36.667 41 -74v-512c0 -31.333 -8.83301 -54.333 -26.5 -69s-45.167 -22 -82.5 -22h-112v1360zM122 710c28 0 42 14 42 42v512
c0 20.667 -9.33301 31 -28 31h-28v-585h14zM136 66c18.667 0 28 10 28 30v511c0 27.333 -14 41 -42 41h-14v-582h28z" />
    <glyph glyph-name="Gamma" unicode="&#x393;" horiz-adv-x="186" 
d="M26 1360h154v-71h-70v-1289h-84v1360z" />
    <glyph glyph-name="uni0394" unicode="&#x394;" horiz-adv-x="252" 
d="M71 1360h110l60 -1360h-230zM155 64l-27 1019h-5l-26 -1019h58z" />
    <glyph glyph-name="Epsilon" unicode="&#x395;" horiz-adv-x="204" 
d="M26 1360h173v-70h-88v-583h69v-62h-69v-577h88v-68h-173v1360z" />
    <glyph glyph-name="Zeta" unicode="&#x396;" horiz-adv-x="244" 
d="M18 63l116 1226h-115v71h207v-65l-116 -1224h116v-71h-208v63z" />
    <glyph glyph-name="Eta" unicode="&#x397;" horiz-adv-x="275" 
d="M26 1360h83v-647h56v647h84v-1360h-84v644h-56v-644h-83v1360z" />
    <glyph glyph-name="Theta" unicode="&#x398;" horiz-adv-x="275" 
d="M52.5 16c-19 18.667 -28.501 46 -28.501 82v1163c0 73.333 37.667 110 113 110c76 0 114 -36.667 114 -110v-1163c0 -36 -9.66699 -63.333 -29 -82s-47.666 -28 -84.999 -28s-65.5 9.33301 -84.5 28zM158.999 66c5.33301 5.33301 8 13 8 23v1181
c0 10 -2.66699 17.667 -8 23s-12.666 8 -21.999 8c-19.333 0 -29 -10.333 -29 -31v-1181c0 -20.667 9.66699 -31 29 -31c9.33301 0 16.666 2.66699 21.999 8zM115.999 711h42v-62h-42v62z" />
    <glyph glyph-name="Iota" unicode="&#x399;" horiz-adv-x="136" 
d="M26 1360h84v-1360h-84v1360z" />
    <glyph glyph-name="Kappa" unicode="&#x39a;" horiz-adv-x="276" 
d="M26 1360h84v-645h23l34 645h86l-42 -680l45 -680h-86l-37 644h-23v-644h-84v1360z" />
    <glyph glyph-name="Lambda" unicode="&#x39b;" horiz-adv-x="252" 
d="M71 1360h110l60 -1360h-84l-16 630l-13 453h-5l-12 -454l-16 -629h-84z" />
    <glyph glyph-name="Mu" unicode="&#x39c;" horiz-adv-x="384" 
d="M26 1360h112l51 -1053h5l52 1053h112v-1360h-78l15 1022h-7l-64 -1022h-64l-69 1023h-7l20 -1023h-78v1360z" />
    <glyph glyph-name="Nu" unicode="&#x39d;" horiz-adv-x="273" 
d="M163 0l-20 211l-60 801l-5 1l28 -1013h-80v1360h84l20 -211l60 -801l5 -1l-27 1013h79v-1360h-84z" />
    <glyph glyph-name="Xi" unicode="&#x39e;" horiz-adv-x="254" 
d="M28 1360h199v-70h-199v70zM37 708h179v-61h-179v61zM26 68h203v-68h-203v68z" />
    <glyph glyph-name="Omicron" unicode="&#x39f;" horiz-adv-x="275" 
d="M24 1269c0 32.667 9.5 57.833 28.5 75.5s47.167 26.5 84.5 26.5c76 0 114 -36.667 114 -110v-1163c0 -73.333 -38 -110 -114 -110c-36 0 -62.333 9 -79 27s-28 45.667 -34 83v1171zM137 63.999c18.667 0 28 9.66699 28 29v1174c0 19.333 -9.33301 29 -28 29
s-28 -9.66699 -28 -29v-1174c0 -19.333 9.33301 -29 28 -29z" />
    <glyph glyph-name="Pi" unicode="&#x3a0;" horiz-adv-x="276" 
d="M26 1360h225v-1360h-85v1291h-56v-1291h-84v1360z" />
    <glyph glyph-name="Rho" unicode="&#x3a1;" horiz-adv-x="271" 
d="M26 1360l108.999 0.000976562c36.667 0 64.334 -7.83301 83.001 -23.5s28 -40.834 28 -75.501v-844c0 -67.333 -36 -101 -108 -101h-28v-316h-84v1360zM135.999 383.001c18.667 0 28 11 28 33v844c0 20.667 -9.33301 31 -28 31h-28v-908h28z" />
    <glyph glyph-name="Sigma" unicode="&#x3a3;" horiz-adv-x="206" 
d="M19 44l61 636l-60 634v46h180v-69h-90l51 -611l-52 -612h92v-68h-182v44z" />
    <glyph glyph-name="Tau" unicode="&#x3a4;" horiz-adv-x="189" 
d="M51 1288h-46v72h177v-72h-47v-1288h-84v1288z" />
    <glyph glyph-name="Upsilon" unicode="&#x3a5;" horiz-adv-x="261" 
d="M89 426l-76 934h85l30 -734h5l29 734h86l-75 -934l1 -426h-85v426z" />
    <glyph glyph-name="Phi" unicode="&#x3a6;" horiz-adv-x="338" 
d="M137 107c-38.667 0.666992 -67 9.33496 -85 26.002s-27 42 -27 76v935c0 34 9.16699 59 27.5 75s46.5 24.667 84.5 26v115h65v-115c38 -0.666992 66 -9.33398 84 -26.001s27 -42 27 -76v-935c0 -33.333 -9 -58.333 -27 -75s-46 -25.334 -84 -26.001v-107h-65v107z
M137 1177c-12 -0.666992 -20.833 -3.5 -26.5 -8.5s-8.5 -13.5 -8.5 -25.5v-934c0 -22.667 11.667 -34 35 -34v1002zM235 209.001l0.000976562 934c0 12 -2.83301 20.5 -8.5 25.5s-13.834 7.83301 -24.501 8.5v-1002c22 0 33 11.333 33 34z" />
    <glyph glyph-name="Chi" unicode="&#x3a7;" horiz-adv-x="272" 
d="M57 680l-35 680h84l26 -643h7l26 643h85l-36 -679l39 -681h-86l-28 640h-7l-28 -640h-85z" />
    <glyph glyph-name="Psi" unicode="&#x3a8;" horiz-adv-x="350" 
d="M139 196c-37.333 0 -65.499 8.16895 -84.499 24.502s-28.5 42.166 -28.5 77.499v1062h79v-1062c0 -22 11.333 -33 34 -33v1095h72v-1095c11.333 0 19.666 2.66699 24.999 8s8 13.666 8 24.999v1062h80v-1062c0 -68 -37.333 -102 -112 -102l-1 -196h-72v196z" />
    <glyph glyph-name="uni2126" unicode="&#x3a9;" horiz-adv-x="281" 
d="M262 68l-0.00195312 -68h-104l2 212c5.33301 478 8.33301 827.333 9 1048c0 10 -1.83301 18.167 -5.5 24.5s-11.167 9.5 -22.5 9.5h-1c-10.667 0 -18.167 -3.66699 -22.5 -11s-6.16602 -15 -5.49902 -23c0.666992 -232.667 3.66699 -585 9 -1057l2 -203h-104v68
c2 -0.666992 13.333 -2 34 -4c-6 104 -11.833 277.667 -17.5 521s-8.5 471.333 -8.5 684c0 29.333 9.16699 53.666 27.5 72.999s46.833 29 85.5 29s67.334 -9.66699 86.001 -29s28 -43.666 28 -72.999c0 -210 -3 -436.833 -9 -680.5s-12 -418.5 -18 -524.5
c19.333 2 31 3.33301 35 4z" />
    <glyph glyph-name="uni2126" unicode="&#x2126;" horiz-adv-x="281" 
d="M262 68l-0.00195312 -68h-104l2 212c5.33301 478 8.33301 827.333 9 1048c0 10 -1.83301 18.167 -5.5 24.5s-11.167 9.5 -22.5 9.5h-1c-10.667 0 -18.167 -3.66699 -22.5 -11s-6.16602 -15 -5.49902 -23c0.666992 -232.667 3.66699 -585 9 -1057l2 -203h-104v68
c2 -0.666992 13.333 -2 34 -4c-6 104 -11.833 277.667 -17.5 521s-8.5 471.333 -8.5 684c0 29.333 9.16699 53.666 27.5 72.999s46.833 29 85.5 29s67.334 -9.66699 86.001 -29s28 -43.666 28 -72.999c0 -210 -3 -436.833 -9 -680.5s-12 -418.5 -18 -524.5
c19.333 2 31 3.33301 35 4z" />
    <glyph glyph-name="Iotadieresis" unicode="&#x3aa;" horiz-adv-x="136" 
d="M26 1360h84v-1360h-84v1360zM-15.5 1408.5c-4.33301 3.66699 -7.33301 12.667 -9 27s-2.5 39.833 -2.5 76.5c0 41.333 0.833008 70.166 2.5 86.499s4.66699 26.5 9 30.5s12.166 6 23.499 6s19.166 -2 23.499 -6s7.33301 -14.167 9 -30.5s2.5 -45.166 2.5 -86.499
c0 -36.667 -0.833008 -62.167 -2.5 -76.5s-4.66699 -23.333 -9 -27s-12.166 -5.5 -23.499 -5.5s-19.166 1.83301 -23.499 5.5zM103.5 1408.5c-4.33301 3.66699 -7.16602 12.5 -8.49902 26.5s-2 39.667 -2 77c0 42 0.666992 71 2 87s4.16602 26 8.49902 30s12.166 6 23.499 6
c12 0 20.167 -2 24.5 -6s7.16602 -14 8.49902 -30s2 -45 2 -87c0 -37.333 -0.666992 -63 -2 -77s-4.16602 -22.833 -8.49902 -26.5s-12.5 -5.5 -24.5 -5.5c-11.333 0 -19.166 1.83301 -23.499 5.5z" />
    <glyph glyph-name="Upsilondieresis" unicode="&#x3ab;" horiz-adv-x="261" 
d="M89 426l-76 934h85l30 -734h5l29 734h86l-75 -934l1 -426h-85v426zM46.5 1408.5c-4.33301 3.66699 -7.33301 12.667 -9 27s-2.5 39.833 -2.5 76.5c0 41.333 0.833008 70.166 2.5 86.499s4.66699 26.5 9 30.5s12.166 6 23.499 6s19.166 -2 23.499 -6
s7.33301 -14.167 9 -30.5s2.5 -45.166 2.5 -86.499c0 -36.667 -0.833008 -62.167 -2.5 -76.5s-4.66699 -23.333 -9 -27s-12.166 -5.5 -23.499 -5.5s-19.166 1.83301 -23.499 5.5zM165.5 1408.5c-4.33301 3.66699 -7.16602 12.5 -8.49902 26.5s-2 39.667 -2 77
c0 42 0.666992 71 2 87s4.16602 26 8.49902 30s12.166 6 23.499 6c12 0 20.167 -2 24.5 -6s7.16602 -14 8.49902 -30s2 -45 2 -87c0 -37.333 -0.666992 -63 -2 -77s-4.16602 -22.833 -8.49902 -26.5s-12.5 -5.5 -24.5 -5.5c-11.333 0 -19.166 1.83301 -23.499 5.5z" />
    <glyph glyph-name="alphatonos" unicode="&#x3ac;" horiz-adv-x="270" 
d="M42 12.5c-11.333 17 -17 42.168 -17 75.501v889c0 33.333 6.5 58.666 19.5 75.999s32.167 26 57.5 26c13.333 0 26.833 -2.5 40.5 -7.5s24.167 -10.5 31.5 -16.5l4 10h67l-7 -533l7 -532h-77l-8 39c-5.33301 -16.667 -13.833 -29.5 -25.5 -38.5s-25.5 -13.5 -41.5 -13.5
c-22.667 0 -39.667 8.5 -51 25.5zM161 95.001l-1.00098 436l1 466c-9.33301 9.33301 -19.666 14 -30.999 14c-16.667 0 -25 -11.333 -25 -34v-880c0 -12 2.16699 -22 6.5 -30s10.5 -12 18.5 -12c20.667 0 31 13.333 31 40zM136.999 1420l82 -3l-55 -296h-64z" />
    <glyph glyph-name="epsilontonos" unicode="&#x3ad;" horiz-adv-x="262" 
d="M25 78v409.001c0 34 8.66699 56 26 66c-16 9.33301 -24 26.333 -24 51v387c0 60 35 90 105 90c68.667 0 103 -31 103 -93v-363h-75v363c0 20 -9.33301 30 -28 30s-28 -10 -28 -30v-384c0 -18 9.33301 -27 28 -27h49v-53h-49c-18.667 0 -28 -10.333 -28 -31v-412
c0 -20 9.33301 -30 28 -30s28 10 28 30v396h77v-396c0 -30.667 -8.5 -53.834 -25.5 -69.501s-43.5 -23.5 -79.5 -23.5c-71.333 0 -107 30 -107 90zM135 1421l82 -3l-55 -296h-64z" />
    <glyph glyph-name="etatonos" unicode="&#x3ae;" horiz-adv-x="267" 
d="M161 978c0 22 -8.33301 33 -25 33c-20.667 0 -31 -15 -31 -45v-966h-79v1065h71l11 -37c11.333 33.333 33.333 50 66 50c44.667 0 67 -33.333 67 -100v-1277h-80v1277zM134 1411l82 -3l-55 -296h-64z" />
    <glyph glyph-name="iotatonos" unicode="&#x3af;" horiz-adv-x="135" 
d="M26 1065h83v-1065h-83v1065zM70 1407l82 -3l-55 -296h-64z" />
    <glyph glyph-name="upsilondieresistonos" unicode="&#x3b0;" 
d="M26 87v978h79v-978c0 -20 9.33301 -30 28 -30s28 10 28 30v978h79v-979c0 -65.333 -35.667 -98 -107 -98s-107 33 -107 99zM107 1252l-7 254h62l-8 -254h-47zM40.5 1100.5c-4.33301 3.66699 -7.16602 12.5 -8.49902 26.5s-2 39.667 -2 77c0 42 0.666992 71 2 87
s4.16602 26 8.49902 30s12.166 6 23.499 6c12 0 20.167 -2 24.5 -6s7.16602 -14 8.49902 -30s2 -45 2 -87c0 -37.333 -0.666992 -63 -2 -77s-4.16602 -22.833 -8.49902 -26.5s-12.5 -5.5 -24.5 -5.5c-11.333 0 -19.166 1.83301 -23.499 5.5zM174.5 1100.5
c-4.33301 3.66699 -7.16602 12.499 -8.49902 26.499s-2 39.667 -2 77c0 42 0.666992 71 2 87s4.16602 26 8.49902 30s12.166 6 23.499 6s19.166 -2 23.499 -6s7.33301 -14.167 9 -30.5s2.5 -45.166 2.5 -86.499c0 -36.667 -0.833008 -62.167 -2.5 -76.5
s-4.66699 -23.333 -9 -27s-12.166 -5.5 -23.499 -5.5s-19.166 1.83301 -23.499 5.5z" />
    <glyph glyph-name="alpha" unicode="&#x3b1;" horiz-adv-x="270" 
d="M42 12.5c-11.333 17 -17 42.168 -17 75.501v889c0 33.333 6.5 58.666 19.5 75.999s32.167 26 57.5 26c13.333 0 26.833 -2.5 40.5 -7.5s24.167 -10.5 31.5 -16.5l4 10h67l-7 -533l7 -532h-77l-8 39c-5.33301 -16.667 -13.833 -29.5 -25.5 -38.5s-25.5 -13.5 -41.5 -13.5
c-22.667 0 -39.667 8.5 -51 25.5zM161 95.001l-1.00098 436l1 466c-9.33301 9.33301 -19.666 14 -30.999 14c-16.667 0 -25 -11.333 -25 -34v-880c0 -12 2.16699 -22 6.5 -30s10.5 -12 18.5 -12c20.667 0 31 13.333 31 40z" />
    <glyph glyph-name="beta" unicode="&#x3b2;" horiz-adv-x="269" 
d="M26 1276c0 34 9.83203 58.834 29.499 74.501s45.834 23.5 78.501 23.5c32 0 57.333 -8 76 -24s28 -39.333 28 -70v-491c0 -27.333 -9 -46 -27 -56c22 -10.667 33 -34.334 33 -71.001v-578c0 -31.333 -9 -55 -27 -71s-42.667 -24 -74 -24c-15.333 0 -28 1.33301 -38 4
v-292h-79v1575zM162.999 88.001v582c0 21.333 -9.66699 32 -29 32h-15v56h15c18.667 0 28 9.33301 28 28v488c0 20.667 -9.33301 31 -28 31c-19.333 0 -29 -10.333 -29 -31v-1189c1.33301 -18 11 -27 29 -27c19.333 0 29 10 29 30z" />
    <glyph glyph-name="gamma" unicode="&#x3b3;" horiz-adv-x="261" 
d="M89 126l-71 939h80l29 -715l1 -17h5l1 17l29 715h80l-71 -939v-421h-83v421z" />
    <glyph glyph-name="delta" unicode="&#x3b4;" 
d="M225.5 1010c9.66699 -16.667 14.8311 -36.999 15.498 -60.999v-860c0 -67.333 -36.333 -101 -109 -101c-35.333 0 -62 8.5 -80 25.5s-27 42.167 -27 75.5v893c0.666992 13.333 5.33398 25.166 14.001 35.499s19.667 17.833 33 22.5c-27.333 25.333 -41 51 -41 77v248
l202 1v-294l-72 38v195h-56v-191c0 -8 2.33301 -14.5 7 -19.5s12.334 -10.833 23.001 -17.5l44 -25c21.333 -11.333 36.833 -25.333 46.5 -42zM160.997 951.001c0 18.667 -9.33301 34.333 -28 47l-28 17v-929c0 -19.333 9.33301 -29 28 -29s28 9.66699 28 29v865z" />
    <glyph glyph-name="epsilon" unicode="&#x3b5;" horiz-adv-x="262" 
d="M25 78v409.001c0 34 8.66699 56 26 66c-16 9.33301 -24 26.333 -24 51v387c0 60 35 90 105 90c68.667 0 103 -31 103 -93v-363h-75v363c0 20 -9.33301 30 -28 30s-28 -10 -28 -30v-384c0 -18 9.33301 -27 28 -27h49v-53h-49c-18.667 0 -28 -10.333 -28 -31v-412
c0 -20 9.33301 -30 28 -30s28 10 28 30v396h77v-396c0 -30.667 -8.5 -53.834 -25.5 -69.501s-43.5 -23.5 -79.5 -23.5c-71.333 0 -107 30 -107 90z" />
    <glyph glyph-name="zeta" unicode="&#x3b6;" horiz-adv-x="239" 
d="M130 -315c12 45.333 20.001 84.666 24.001 117.999s6 84.333 6 153c0 20.667 -11 31 -33 31c-28.667 0.666992 -50 5.16699 -64 13.5s-23.667 23.5 -29 45.5s-8.33301 55.667 -9 101v103c0 110.667 6 221.5 18 332.5s29.667 247.5 53 409.5c18 128 31.333 227.667 40 299
h-107v69h202v-56c-8.66699 -58 -22.334 -145 -41.001 -261c-28.667 -177.333 -50 -324.666 -64 -441.999s-21 -234 -21 -350v-63c0 -42 0.666992 -71.667 2 -89s4.33301 -29 9 -35s12.667 -9 24 -9c36 0 61.167 -6.83301 75.5 -20.5s21.833 -38.5 22.5 -74.5
c0 -72 -2.83301 -128.5 -8.5 -169.5s-16.167 -85.5 -31.5 -133.5z" />
    <glyph glyph-name="eta" unicode="&#x3b7;" horiz-adv-x="267" 
d="M161 978c0 22 -8.33301 33 -25 33c-20.667 0 -31 -15 -31 -45v-966h-79v1065h71l11 -37c11.333 33.333 33.333 50 66 50c44.667 0 67 -33.333 67 -100v-1277h-80v1277z" />
    <glyph glyph-name="theta" unicode="&#x3b8;" horiz-adv-x="270" 
d="M52.5 17c-18.333 19.333 -27.5 46.668 -27.5 82.001v1164c0 34.667 9.16699 61.667 27.5 81s45.833 29 82.5 29s64.167 -9.83301 82.5 -29.5s27.5 -46.834 27.5 -81.501v-1163c0 -34 -9 -61 -27 -81s-45.667 -30 -83 -30c-36.667 0 -64.167 9.66699 -82.5 29z
M163 710.002v565c0 20.667 -9.33301 31 -28 31s-28 -10.333 -28 -31v-565h56zM163 86.002v567h-56v-567c0 -20.667 9.33301 -31 28 -31s28 10.333 28 31z" />
    <glyph glyph-name="iota" unicode="&#x3b9;" horiz-adv-x="135" 
d="M26 1065h83v-1065h-83v1065z" />
    <glyph glyph-name="kappa" unicode="&#x3ba;" horiz-adv-x="250" 
d="M26 1065h83l-1 -512h25l26 512h82l-34 -541l36 -524h-82l-29 488h-24v-488h-82v1065z" />
    <glyph glyph-name="lambda" unicode="&#x3bb;" horiz-adv-x="258" 
d="M71 1064l22 1l-20 295h84l83 -1360h-78l-41 800h-8l2 -35l-13 -765h-84z" />
    <glyph glyph-name="uni03BC" unicode="&#x3bc;" horiz-adv-x="268" 
d="M25 1065l80 0.000976562v-991c12 -12.667 24 -19 36 -19c9.33301 0 15 2.33301 17 7s3 16 3 34v969h80v-970c0 -36.667 -5 -63.167 -15 -79.5s-28 -24.5 -54 -24.5c-12 0 -24 1.66699 -36 5s-21 6.66602 -27 9.99902l-3 -304h-81v1363z" />
    <glyph glyph-name="nu" unicode="&#x3bd;" horiz-adv-x="257" 
d="M18 1065h80l24 -765l3 -166h7l3 166l24 765h81l-49 -1065h-124z" />
    <glyph glyph-name="xi" unicode="&#x3be;" horiz-adv-x="261" 
d="M129 -315c12.667 44 20.834 82.666 24.501 115.999s5.5 85 5.5 155c0 20.667 -10.333 31.334 -31 32.001c-33.333 0.666992 -58.833 8.83398 -76.5 24.501s-26.5 39.167 -26.5 70.5v466c0 39.333 2.66699 67.166 8 83.499s13.666 26.833 24.999 31.5
c-9.33301 4.66699 -16.166 14.334 -20.499 29.001s-6.5 41 -6.5 79v444c0 32.667 4 56.334 12 71.001s21.333 23 40 25c-26 -2 -45.667 -5 -59 -9v60h201v-71h-90c-10.667 0 -18.5 -4.83301 -23.5 -14.5s-7.5 -30.5 -7.5 -62.5v-441c0 -34 2.16699 -56.167 6.5 -66.5
s11.833 -15.5 22.5 -15.5h67v-63h-67c-10.667 0 -18.167 -5 -22.5 -15s-6.5 -30.667 -6.5 -62v-469c0 -18.667 10 -28 30 -28h24c27.333 -0.666992 47.166 -8.83398 59.499 -24.501s18.833 -39.167 19.5 -70.5c0 -72.667 -2.83301 -129.334 -8.5 -170.001
s-16.167 -85 -31.5 -133z" />
    <glyph glyph-name="omicron" unicode="&#x3bf;" 
d="M26 89v889c0 33.333 9 58.5 27 75.5s44.667 25.5 80 25.5c72 0 108 -33.667 108 -101v-889c0 -67.333 -36 -101 -108 -101c-71.333 0 -107 33.667 -107 101zM162 87v893c0 20 -9.66699 30 -29 30c-18.667 0 -28 -10 -28 -30v-893c0 -20 9.33301 -30 28 -30
c19.333 0 29 10 29 30z" />
    <glyph glyph-name="pi" unicode="&#x3c0;" horiz-adv-x="267" 
d="M26 1065h215v-1065h-80v996h-56v-996h-79v1065z" />
    <glyph glyph-name="rho" unicode="&#x3c1;" 
d="M214.5 1054c17.667 -16.667 26.499 -42.334 26.499 -77.001v-887c0 -67.333 -25 -101 -75 -101c-20 0 -39.667 5.33301 -59 16v-300h-82l1 1272c0 34.667 8.66699 60.334 26 77.001s44.333 25 81 25s63.834 -8.33301 81.501 -25zM160.999 980
c0 9.33301 -2.49902 16.666 -7.49902 21.999s-11.833 8 -20.5 8s-15.5 -2.66699 -20.5 -8s-7.5 -12.666 -7.5 -21.999v-907c11.333 -11.333 22.666 -17 33.999 -17c14.667 0 22 10.333 22 31v893z" />
    <glyph glyph-name="uni03C2" unicode="&#x3c2;" 
d="M132 -315c12 46 20.002 85.667 24.002 119s6 84.666 6 153.999c0 18.667 -9.33301 28.667 -28 30h-3c-34.667 0 -60.834 8.83301 -78.501 26.5s-26.834 42.5 -27.501 74.5v888c0 32.667 9 57.834 27 75.501s45 26.5 81 26.5c35.333 0 62 -8.66699 80 -26
s27.333 -42 28 -74v-418h-80v417c0 21.333 -9 32 -27 32c-19.333 0 -29 -10.667 -29 -32v-889c0 -22 10 -33 30 -33h20c30 0 51.5 -8 64.5 -24s19.833 -39.667 20.5 -71c0 -72 -3 -128.5 -9 -169.5s-16.333 -85.833 -31 -134.5z" />
    <glyph glyph-name="sigma" unicode="&#x3c3;" horiz-adv-x="265" 
d="M258 1007l-50.999 7.00098c10.667 -3.33301 19 -9.33301 25 -18s9 -17.334 9 -26.001v-881c0 -67.333 -36 -101 -108 -101s-108 33.667 -108 101v889c0 67.333 36 101 108 101c10 0 20.333 -1.33301 31 -4c31.333 -5.33301 62.666 -8.33301 93.999 -9v-59z
M161.001 980.001c0 20 -9.33301 30 -28 30s-28 -10 -28 -30v-893c0 -20 9.33301 -30 28 -30s28 10 28 30v893z" />
    <glyph glyph-name="tau" unicode="&#x3c4;" horiz-adv-x="176" 
d="M46 997h-41v68h165v-68h-41v-997h-83v997z" />
    <glyph glyph-name="upsilon" unicode="&#x3c5;" 
d="M26 87v978h79v-978c0 -20 9.33301 -30 28 -30s28 10 28 30v978h79v-979c0 -65.333 -35.667 -98 -107 -98s-107 33 -107 99z" />
    <glyph glyph-name="phi" unicode="&#x3c6;" horiz-adv-x="351" 
d="M140 -5h-7c-72 0.666992 -108 34.334 -108 101.001v878c0 66 35.667 100 107 102h8v285h72v-285h8c70 -2 105 -36 105 -102v-878c0 -66.667 -36 -100.334 -108 -101.001h-5v-290h-72v290zM140 63v944.002h-6c-10 -0.666992 -17.333 -3.33398 -22 -8.00098
s-7 -12.334 -7 -23.001v-880c0 -10.667 2.33301 -18.667 7 -24s12 -8.33301 22 -9h6zM217 63.002c18.667 0.666992 28 11.665 28 32.998v880c0 10.667 -2.33301 18.334 -7 23.001s-11.667 7.33398 -21 8.00098h-5v-944h5z" />
    <glyph glyph-name="chi" unicode="&#x3c7;" horiz-adv-x="263" 
d="M54 392l-34 673h82l26 -638h7l26 638h82l-34 -672l37 -754h-83l-28 716h-7l-28 -716h-83z" />
    <glyph glyph-name="psi" unicode="&#x3c8;" horiz-adv-x="350" 
d="M139 -10c-36.667 0 -64.666 7.5 -83.999 22.5s-29 39.833 -29 74.5v978h79v-974c0 -11.333 2.66699 -19.5 8 -24.5s14 -7.83301 26 -8.5v1007h73v-1007c11.333 0.666992 19.666 3.5 24.999 8.5s8 13.167 8 24.5v974h79v-978c0 -34 -9.66699 -58.667 -29 -74
s-47 -23 -83 -23v-289h-73v289z" />
    <glyph glyph-name="omega" unicode="&#x3c9;" horiz-adv-x="396" 
d="M51 11.5c-16.667 15.667 -24.998 40.167 -24.998 73.5v980h79v-976c0 -21.333 9.33301 -32 28 -32s28 10.667 28 32v976h74v-976c0 -21.333 9 -32 27 -32c19.333 0 29 10.667 29 32v976h79v-980c0 -33.333 -8.33301 -57.833 -25 -73.5s-41.334 -23.5 -74.001 -23.5
c-32 0 -56.333 7.33301 -73 22c-16.667 -14.667 -41 -22 -73 -22c-32.667 0 -57.334 7.83301 -74.001 23.5z" />
    <glyph glyph-name="iotadieresis" unicode="&#x3ca;" horiz-adv-x="135" 
d="M26 1065h83v-1065h-83v1065zM-16.5 1112.5c-4.33301 3.66699 -7.33301 12.667 -9 27s-2.5 39.833 -2.5 76.5c0 41.333 0.833008 70.166 2.5 86.499s4.66699 26.5 9 30.5s12.166 6 23.499 6s19.166 -2 23.499 -6s7.33301 -14.167 9 -30.5s2.5 -45.166 2.5 -86.499
c0 -36.667 -0.833008 -62.167 -2.5 -76.5s-4.66699 -23.333 -9 -27s-12.166 -5.5 -23.499 -5.5s-19.166 1.83301 -23.499 5.5zM102.5 1112.5c-4.33301 3.66699 -7.16602 12.5 -8.49902 26.5s-2 39.667 -2 77c0 42 0.666992 71 2 87s4.16602 26 8.49902 30s12.166 6 23.499 6
c12 0 20.167 -2 24.5 -6s7.16602 -14 8.49902 -30s2 -45 2 -87c0 -37.333 -0.666992 -63 -2 -77s-4.16602 -22.833 -8.49902 -26.5s-12.5 -5.5 -24.5 -5.5c-11.333 0 -19.166 1.83301 -23.499 5.5z" />
    <glyph glyph-name="upsilondieresis" unicode="&#x3cb;" 
d="M26 87v978h79v-978c0 -20 9.33301 -30 28 -30s28 10 28 30v978h79v-979c0 -65.333 -35.667 -98 -107 -98s-107 33 -107 99zM47.5 1112.5c-4.33301 3.66699 -7.33301 12.667 -9 27s-2.5 39.833 -2.5 76.5c0 41.333 0.833008 70.166 2.5 86.499s4.66699 26.5 9 30.5
s12.166 6 23.499 6s19.166 -2 23.499 -6s7.33301 -14.167 9 -30.5s2.5 -45.166 2.5 -86.499c0 -36.667 -0.833008 -62.167 -2.5 -76.5s-4.66699 -23.333 -9 -27s-12.166 -5.5 -23.499 -5.5s-19.166 1.83301 -23.499 5.5zM166.5 1112.5
c-4.33301 3.66699 -7.16602 12.5 -8.49902 26.5s-2 39.667 -2 77c0 42 0.666992 71 2 87s4.16602 26 8.49902 30s12.166 6 23.499 6c12 0 20.167 -2 24.5 -6s7.16602 -14 8.49902 -30s2 -45 2 -87c0 -37.333 -0.666992 -63 -2 -77s-4.16602 -22.833 -8.49902 -26.5
s-12.5 -5.5 -24.5 -5.5c-11.333 0 -19.166 1.83301 -23.499 5.5z" />
    <glyph glyph-name="omicrontonos" unicode="&#x3cc;" 
d="M26 89v889c0 33.333 9 58.5 27 75.5s44.667 25.5 80 25.5c72 0 108 -33.667 108 -101v-889c0 -67.333 -36 -101 -108 -101c-71.333 0 -107 33.667 -107 101zM162 87v893c0 20 -9.66699 30 -29 30c-18.667 0 -28 -10 -28 -30v-893c0 -20 9.33301 -30 28 -30
c19.333 0 29 10 29 30zM136 1420l82 -3l-55 -296h-64z" />
    <glyph glyph-name="upsilontonos" unicode="&#x3cd;" 
d="M26 87v978h79v-978c0 -20 9.33301 -30 28 -30s28 10 28 30v978h79v-979c0 -65.333 -35.667 -98 -107 -98s-107 33 -107 99zM134 1406l82 -3l-55 -296h-64z" />
    <glyph glyph-name="omegatonos" unicode="&#x3ce;" horiz-adv-x="396" 
d="M51 11.5c-16.667 15.667 -24.998 40.167 -24.998 73.5v980h79v-976c0 -21.333 9.33301 -32 28 -32s28 10.667 28 32v976h74v-976c0 -21.333 9 -32 27 -32c19.333 0 29 10.667 29 32v976h79v-980c0 -33.333 -8.33301 -57.833 -25 -73.5s-41.334 -23.5 -74.001 -23.5
c-32 0 -56.333 7.33301 -73 22c-16.667 -14.667 -41 -22 -73 -22c-32.667 0 -57.334 7.83301 -74.001 23.5zM196.002 1407l82 -3l-55 -296h-64z" />
    <glyph glyph-name="uni03CF" unicode="&#x3cf;" 
d="M256 0l-26 -392h-84l24 400l-37 636h-23v-644h-84v1360h84v-645h23l34 645h86l-42 -680z" />
    <glyph glyph-name="uni03D7" unicode="&#x3d7;" horiz-adv-x="267" 
d="M252 0l-24 -392h-82l22 392h-3l-27 501h-7l-28 -501h-84l37 532l-34 533h83l25 -504h7l26 504h83l-35 -532l38 -532z" />
    <glyph glyph-name="uni03F0" unicode="&#x3f0;" horiz-adv-x="267" 
d="M56 532l-34 533h83l25 -504h7l26 504h83l-35 -532l38 -533h-84l-27 501h-7l-28 -501h-84z" />
    <glyph glyph-name="uni0400" unicode="&#x400;" horiz-adv-x="204" 
d="M26 1360h173v-70h-88v-583h69v-62h-69v-577h88v-68h-173v1360zM27 1655l83 3l36 -255h-64z" />
    <glyph glyph-name="uni0401" unicode="&#x401;" horiz-adv-x="204" 
d="M26 1360h173v-70h-88v-583h69v-62h-69v-577h88v-68h-173v1360zM28.5 1408.5c-4.33301 3.66699 -7.33301 12.667 -9 27s-2.5 39.833 -2.5 76.5c0 41.333 0.833008 70.166 2.5 86.499s4.66699 26.5 9 30.5s12.166 6 23.499 6s19.166 -2 23.499 -6s7.33301 -14.167 9 -30.5
s2.5 -45.166 2.5 -86.499c0 -36.667 -0.833008 -62.167 -2.5 -76.5s-4.66699 -23.333 -9 -27s-12.166 -5.5 -23.499 -5.5s-19.166 1.83301 -23.499 5.5zM147.5 1408.5c-4.33301 3.66699 -7.16602 12.5 -8.49902 26.5s-2 39.667 -2 77c0 42 0.666992 71 2 87
s4.16602 26 8.49902 30s12.166 6 23.499 6c12 0 20.167 -2 24.5 -6s7.16602 -14 8.49902 -30s2 -45 2 -87c0 -37.333 -0.666992 -63 -2 -77s-4.16602 -22.833 -8.49902 -26.5s-12.5 -5.5 -24.5 -5.5c-11.333 0 -19.166 1.83301 -23.499 5.5z" />
    <glyph glyph-name="uni0402" unicode="&#x402;" horiz-adv-x="289" 
d="M177 1360l0.000976562 -71.999h-43v-244c6 3.33301 15.167 6.66602 27.5 9.99902s24.166 5 35.499 5c26.667 0 45.5 -8 56.5 -24s16.5 -42.667 16.5 -80v-1158c0 -30.667 -7 -53.667 -21 -69s-35 -24.333 -63 -27h-8l-21 1v61c20 0 30 10.667 30 32v1156
c0 18 -1.16699 29.333 -3.5 34s-7.83301 7 -16.5 7c-13.333 0 -25.333 -6.33301 -36 -19v-973h-84v1288h-46v72h176z" />
    <glyph glyph-name="uni0403" unicode="&#x403;" horiz-adv-x="194" 
d="M113 1702l83 -3l-55 -296h-64zM180 1360v-71h-70v-1289h-84v1360h154z" />
    <glyph glyph-name="uni0404" unicode="&#x404;" horiz-adv-x="279" 
d="M167 784v488c0 19.333 -9.33301 29 -28 29s-28 -9.66699 -28 -29v-565l106 1v-55h-106v-566c0 -19.333 9.33301 -29 28 -29s28 9.66699 28 29v488h86v-486c-2 -67.333 -40 -101 -114 -101c-37.333 0 -65.5 9.33301 -84.5 28s-28.5 46 -28.5 82v1163
c0 73.333 37.667 110 113 110c74.667 0 112.667 -33.667 114 -101v-486h-86z" />
    <glyph glyph-name="uni0405" unicode="&#x405;" horiz-adv-x="268" 
d="M26 85l-0.00195312 370h80v-370c0 -19.333 9.33301 -29 28 -29s28 9.66699 28 29c0 77.333 -1.66699 153.333 -5 228c-6 106.667 -15 194 -27 262s-28 141.667 -48 221c-19.333 73.333 -33.5 138.5 -42.5 195.5s-13.5 129.167 -13.5 216.5v66
c0.666992 64.667 36.334 97 107.001 97c35.333 0 62.166 -8.33301 80.499 -25s27.5 -40.667 27.5 -72v-277h-79v277c0 19.333 -9.33301 29 -28 29s-28 -9.66699 -28 -29c0 -56 2 -107 6 -153c4.66699 -61.333 11.334 -115.833 20.001 -163.5s21 -103.5 37 -167.5
c16 -67.333 28.833 -126 38.5 -176s17.834 -112 24.501 -186s10 -160.333 10 -259v-86c0 -31.333 -9.16699 -55 -27.5 -71s-44.5 -24 -78.5 -24c-73.333 0 -110 32.333 -110 97z" />
    <glyph glyph-name="uni0406" unicode="&#x406;" horiz-adv-x="136" 
d="M26 1360h84v-1360h-84v1360z" />
    <glyph glyph-name="uni0407" unicode="&#x407;" horiz-adv-x="136" 
d="M26 1360h84v-1360h-84v1360zM-15.5 1408.5c-4.33301 3.66699 -7.33301 12.667 -9 27s-2.5 39.833 -2.5 76.5c0 41.333 0.833008 70.166 2.5 86.499s4.66699 26.5 9 30.5s12.166 6 23.499 6s19.166 -2 23.499 -6s7.33301 -14.167 9 -30.5s2.5 -45.166 2.5 -86.499
c0 -36.667 -0.833008 -62.167 -2.5 -76.5s-4.66699 -23.333 -9 -27s-12.166 -5.5 -23.499 -5.5s-19.166 1.83301 -23.499 5.5zM103.5 1408.5c-4.33301 3.66699 -7.16602 12.5 -8.49902 26.5s-2 39.667 -2 77c0 42 0.666992 71 2 87s4.16602 26 8.49902 30s12.166 6 23.499 6
c12 0 20.167 -2 24.5 -6s7.16602 -14 8.49902 -30s2 -45 2 -87c0 -37.333 -0.666992 -63 -2 -77s-4.16602 -22.833 -8.49902 -26.5s-12.5 -5.5 -24.5 -5.5c-11.333 0 -19.166 1.83301 -23.499 5.5z" />
    <glyph glyph-name="uni0408" unicode="&#x408;" horiz-adv-x="169" 
d="M9 69h23c18.667 0 28 10 28 30v1261h84v-1263c0 -64.667 -31.333 -97 -94 -97h-41v69z" />
    <glyph glyph-name="uni0409" unicode="&#x409;" horiz-adv-x="411" 
d="M-1 -3l7.00098 68.0029c6.66699 -2 12.667 -3 18 -3c3.33301 0 5.33301 2.66699 6 8s1 14.666 1 27.999v28v1234h225v-316h27c72 0 108.333 -33.667 109 -101v-844c0 -34.667 -9.5 -59.834 -28.5 -75.501s-46.833 -23.5 -83.5 -23.5h-109v1291h-56v-1170
c0 -34.667 -2.33301 -61.334 -7 -80.001s-11.834 -31.667 -21.501 -39s-23.167 -11 -40.5 -11c-18 0 -33.667 2 -47 6zM281.001 69.0029c19.333 0 29 10.333 29 31v844c0 22 -9.66699 33 -29 33h-27v-908h27z" />
    <glyph glyph-name="uni040A" unicode="&#x40a;" horiz-adv-x="411" 
d="M26 1360l83.001 0.000976562v-645h56v645h85v-316h27c72 0 108 -34 108 -102v-843c0 -34.667 -9.33301 -59.834 -28 -75.501s-46.334 -23.5 -83.001 -23.5h-109v646h-56v-646h-83v1360zM275.001 69.001c19.333 0 29 10.333 29 31v844c0 22 -9.66699 33 -29 33h-28v-908
h28z" />
    </font>
</defs>
</svg>
