<?xml version="1.0" standalone="no"?>
<!DOCTYPE svg PUBLIC "-//W3C//DTD SVG 1.1//EN" "http://www.w3.org/Graphics/SVG/1.1/DTD/svg11.dtd" >
<svg>
<metadata>
Created by FontForge 20090914 at Sun May 24 21:47:04 2020
 By www-data
Copyright &#194;&#169; 2018 by Francesco Canovaro. All rights reserved.
</metadata>
<defs>
<font id="Extenda-100Yotta" horiz-adv-x="1392" >
  <font-face 
    font-family="Extenda 100 Yotta"
    font-weight="950"
    font-stretch="normal"
    units-per-em="2048"
    panose-1="2 11 0 3 2 2 0 0 0 2"
    ascent="1638"
    descent="-410"
    x-height="1065"
    cap-height="1360"
    bbox="-1016 -745.999 2992 2174"
    underline-thickness="95"
    underline-position="-49"
    unicode-range="U+000D-U+FB05"
  />
<missing-glyph horiz-adv-x="539" 
 />
    <glyph glyph-name="arrowleft" unicode="&#x3c;&#x2d;" horiz-adv-x="1284" 
d="M13 632l318 420h489l-110 -201l550 -1v-435h-550l111 -201l-490 -1z" />
    <glyph glyph-name="arrowup" unicode="&#x3c;&#x2d;&#x2d;&#x2d;" horiz-adv-x="1488" 
d="M499 508l-201 -111l-1 490l419 318l420 -318v-489l-201 110l-1 -460h-435v460z" />
    <glyph glyph-name="arrowright" unicode="&#x2d;&#x3e;" horiz-adv-x="1208" 
d="M487 844l-111 201l490 1l318 -419l-318 -420h-489l110 201l-460 1v435h460z" />
    <glyph glyph-name="arrowdown" unicode="&#x2d;&#x3e;&#x3e;&#x3e;" horiz-adv-x="873" 
d="M17 366l1 490l201 -111v460h435l1 -460l201 110v-489l-420 -318z" />
    <glyph glyph-name="arrowboth" unicode="&#x3c;&#x2d;&#x3e;" horiz-adv-x="1738" 
d="M20 632l318 420h489l-110 -201h304l-111 201l490 1l318 -419l-318 -420h-489l110 201h-304l111 -201l-490 -1z" />
    <glyph glyph-name="arrowupdn" unicode="&#x3c;&#x2d;&#x2d;&#x3e;" horiz-adv-x="890" 
d="M26 102v489l201 -110v304l-201 -111l-1 490l419 318l420 -318v-489l-201 110v-304l201 111l1 -490l-419 -318z" />
    <glyph glyph-name="uni2196" unicode="&#x3c;&#x2d;&#x2d;" horiz-adv-x="1098" 
d="M446 389l-63 -221l-347 346l71 521l522 72l346 -345l-220 -65l324 -326l-307 -307z" />
    <glyph glyph-name="uni2197" unicode="&#x3c;&#x2d;&#x2d;&#x2d;&#x2d;" horiz-adv-x="1105" 
d="M356 697l-221 63l346 347l521 -71l72 -522l-345 -346l-65 220l-326 -324l-307 307z" />
    <glyph glyph-name="uni2198" unicode="&#x2d;&#x3e;&#x3e;" horiz-adv-x="1124" 
d="M138 483l220 64l-325 325l308 308l326 -325l64 220l346 -346l-72 -522l-521 -71z" />
    <glyph glyph-name="uni2199" unicode="&#x2d;&#x3e;&#x3e;&#x3e;&#x3e;" horiz-adv-x="1104" 
d="M107 177l-71 521l347 346l64 -220l325 325l308 -308l-325 -326l220 -64l-346 -346z" />
    <glyph glyph-name="f_f" unicode="ff" horiz-adv-x="2100" 
d="M137 613l-134 -0.000976562v450h134v40c0 108.667 20.333 187.5 61 236.5s101.334 80 182.001 93s204 19.5 370 19.5c80 0 163.5 -5 250.5 -15s166.167 -22.333 237.5 -37c-39.333 -19.333 -68 -56.833 -86 -112.5s-27 -117.167 -27 -184.5h-238
c-10 0 -18 -2.83301 -24 -8.5s-9 -12.5 -9 -20.5v-11h309v40c0 110.667 22.333 190.834 67 240.501s105.167 80.167 181.5 91.5s190.833 17 343.5 17c48 0 125 -4.66699 231 -14c53.333 -4.66699 86.666 -7 99.999 -7l-2 -328h-171c-10 0 -18 -2.83301 -24 -8.5
s-9 -12.5 -9 -20.5v-11h203v-450h-203v-613h-717v613h-309v-613h-717v613z" />
    <glyph glyph-name="f_f_i" unicode="ffi" horiz-adv-x="2867" 
d="M137 613l-134.001 -0.000976562v446h134v40c0 99.333 15.333 176.5 46 231.5s95.334 97.167 194.001 126.5s248.667 44 450 44c80 0 158 -6.33301 234 -19s142 -28 198 -46c-52.667 -24 -88.5 -64.5 -107.5 -121.5s-28.5 -114.5 -28.5 -172.5
c0 -16.667 0.666992 -31 2 -43h-238c-10 0 -18 -2.83301 -24 -8.5s-9 -12.5 -9 -20.5v-11h306v40c0 99.333 15 176 45 230s98.333 96.167 205 126.5s271.667 45.5 495 45.5c351.333 0 598 -9.66699 740 -29l21 -2c74.667 -7.33301 127 -30.166 157 -68.499
s45 -84.166 45 -137.499c0 -48.667 -12.5 -88.834 -37.5 -120.501s-66 -55.667 -123 -72s-133.167 -24.5 -228.5 -24.5c-75.333 0 -141.666 5.33301 -199 16c-57.333 10.667 -100.666 26 -130 46l-240 -10c-10 -0.666992 -18 -3.66699 -24 -9s-9 -12 -9 -20v-11h203v-446
h-203v-613h-717v613h-306v-613h-717v613zM2120 1065c28 -20 71 -35.333 129 -46s129.667 -16 215 -16c163.333 0 289 20.667 377 62v-1065h-721v1065z" />
    <glyph glyph-name="f_f_l" unicode="ffl" horiz-adv-x="2866" 
d="M137 613l-134.001 -0.000976562v446h134v40c0 99.333 15.333 176.5 46 231.5s95.334 97.167 194.001 126.5s248.667 44 450 44c80 0 158 -6.33301 234 -19s142 -28 198 -46c-52.667 -24 -88.5 -64.5 -107.5 -121.5s-28.5 -114.5 -28.5 -172.5
c0 -16.667 0.666992 -31 2 -43h-238c-10 0 -18 -2.83301 -24 -8.5s-9 -12.5 -9 -20.5v-11h309v40c0 100 14.167 177 42.5 231s95.5 96 201.5 126s272 45 498 45c176.667 0 329.667 -8.16699 459 -24.5s232.833 -37.666 310.5 -63.999s132.834 -54.833 165.5 -85.5v-1327
h-717v1099h-210c-10 0 -18 -2.83301 -24 -8.5s-9 -12.5 -9 -20.5v-11h203v-446h-203v-613h-717v613h-309v-613h-717v613z" />
    <glyph glyph-name="f_i" unicode="fi" horiz-adv-x="1844" 
d="M137 613l-134.002 0.000976562v446h134v40c0 99.333 15 176 45 230s98.333 96.167 205 126.5s271.667 45.5 495 45.5c351.333 0 598 -9.66699 740 -29l21 -2c74.667 -8 127 -31 157 -69s45 -83.667 45 -137c0 -48.667 -12.5 -88.834 -37.5 -120.501s-66 -55.667 -123 -72
s-133.167 -24.5 -228.5 -24.5c-75.333 0 -141.666 5.33301 -198.999 16s-100.666 26 -129.999 46l-240 -10c-10 0 -18 -2.83301 -24 -8.5s-9 -12.5 -9 -20.5v-11h203v-446h-203v-613h-717v613zM1097 1065c56.667 -41.333 175.333 -62 356 -62c157.333 1.33301 279 22 365 62
v-1065h-721v1065z" />
    <glyph glyph-name="f_l" unicode="fl" horiz-adv-x="1840" 
d="M137 613l-134.002 -0.00195312v446h134v40c0 100.667 16.333 177.834 49 231.501s111.834 95.5 237.501 125.5s323.5 45 593.5 45c138.667 0 261.834 -8.16699 369.501 -24.5s196.667 -37.666 267 -63.999s123.833 -54.833 160.5 -85.5v-1327h-717v1099h-210
c-10 0 -18 -2.83301 -24 -8.5s-9 -12.5 -9 -20.5v-11h203v-446h-203v-613h-717v613z" />
    <glyph glyph-name="zero.nalt" unicode="&#x28;&#x30;&#x29;" horiz-adv-x="2243" 
d="M291 -23c-187.333 158.667 -281 393.667 -281 705v9c3.33301 307.333 98.5 539.5 285.5 696.5s462.5 235.5 826.5 235.5c366.667 0 643.5 -79.167 830.5 -237.5s280.5 -392.833 280.5 -703.5v-11c-3.33301 -307.333 -98.5 -539.5 -285.5 -696.5
s-462.167 -235.5 -825.5 -235.5c-366.667 0 -643.667 79.333 -831 238zM1648.5 228.5c119.667 100.333 181.169 248.833 184.502 445.5v8c0 198.667 -59.833 348.667 -179.5 450s-296.834 152 -531.501 152c-232.667 0 -408.834 -50 -528.501 -150
s-181.167 -248 -184.5 -444v-8c0 -199.333 60 -349.833 180 -451.5s297.667 -152.5 533 -152.5c231.333 0 406.833 50.167 526.5 150.5zM816.002 331c-76.667 36 -132.165 84.167 -166.498 144.5s-51.5 128.5 -51.5 204.5v6c1.33301 76 20.333 144 57 204
s93.167 107.5 169.5 142.5s172.166 52.5 287.499 52.5c124 0 224.333 -18 301 -54s131.334 -83.667 164.001 -143s49 -126 49 -200v-6c0 -76 -17.833 -144.333 -53.5 -205s-91.834 -109.167 -168.501 -145.5s-174 -54.5 -292 -54.5c-120.667 0 -219.334 18 -296.001 54z
M1134 573.5c4 19 6 55.167 6 108.5v2c0 52 -2 87.167 -6 105.5s-11 27.5 -21 27.5c-9.33301 0 -16.166 -9 -20.499 -27s-6.5 -53.333 -6.5 -106v-2c0 -53.333 2.16699 -89.5 6.5 -108.5s11.166 -28.5 20.499 -28.5c10 0 17 9.5 21 28.5z" />
    <glyph glyph-name="one.nalt" unicode="&#x28;&#x31;&#x29;" horiz-adv-x="2243" 
d="M291 -23c-187.333 158.667 -281 393.667 -281 705v9c3.33301 307.333 98.5 539.5 285.5 696.5s462.5 235.5 826.5 235.5c366.667 0 643.5 -79.167 830.5 -237.5s280.5 -392.833 280.5 -703.5v-11c-3.33301 -307.333 -98.5 -539.5 -285.5 -696.5
s-462.167 -235.5 -825.5 -235.5c-366.667 0 -643.667 79.333 -831 238zM1648.5 228.5c119.667 100.333 181.169 248.833 184.502 445.5v8c0 198.667 -59.833 348.667 -179.5 450s-296.834 152 -531.501 152c-232.667 0 -408.834 -50 -528.501 -150
s-181.167 -248 -184.5 -444v-8c0 -199.333 60 -349.833 180 -451.5s297.667 -152.5 533 -152.5c231.333 0 406.833 50.167 526.5 150.5zM893.002 756l-101 -26l-3 288l191 49h403v-765h-500z" />
    <glyph glyph-name="two.nalt" unicode="&#x28;&#x32;&#x29;" horiz-adv-x="2243" 
d="M291 -23c-187.333 158.667 -281 393.667 -281 705v9c3.33301 307.333 98.5 539.5 285.5 696.5s462.5 235.5 826.5 235.5c366.667 0 643.5 -79.167 830.5 -237.5s280.5 -392.833 280.5 -703.5v-11c-3.33301 -307.333 -98.5 -539.5 -285.5 -696.5
s-462.167 -235.5 -825.5 -235.5c-366.667 0 -643.667 79.333 -831 238zM1648.5 228.5c119.667 100.333 181.169 248.833 184.502 445.5v8c0 198.667 -59.833 348.667 -179.5 450s-296.834 152 -531.501 152c-232.667 0 -408.834 -50 -528.501 -150
s-181.167 -248 -184.5 -444v-8c0 -199.333 60 -349.833 180 -451.5s297.667 -152.5 533 -152.5c231.333 0 406.833 50.167 526.5 150.5zM663.002 544c129.333 57.333 219.499 98.6689 270.499 124.002s86.333 47.166 106 65.499s30.834 40.5 33.501 66.5v10
c0 8 -2.5 14.333 -7.5 19s-11.167 7 -18.5 7c-19.333 0 -29 -13 -29 -39c0 -5.33301 0.333008 -9.66602 1 -12.999c0 -4 0.333008 -7 1 -9h-354v9c0.666992 56 11.5 105.667 32.5 149s63.167 79.666 126.5 108.999s154.333 44 273 44c106.667 0 195.167 -12 265.5 -36
s122.333 -56 156 -96s51.5 -84.333 53.5 -133v-8c0 -38.667 -11.333 -74.5 -34 -107.5s-55 -60.833 -97 -83.5s-91.333 -38.334 -148 -47.001l2 -28c38.667 0 83.5 4.83301 134.5 14.5s99.833 21.167 146.5 34.5v-297h-914v245z" />
    <glyph glyph-name="three.nalt" unicode="&#x28;&#x33;&#x29;" horiz-adv-x="2243" 
d="M1952.5 1385.5c187 -158.333 280.5 -392.833 280.5 -703.5v-11c-3.33301 -307.333 -98.5 -539.5 -285.5 -696.5s-462.167 -235.5 -825.5 -235.5c-366.667 0 -643.667 79.333 -831 238s-281 393.667 -281 705v9c3.33301 307.333 98.5 539.5 285.5 696.5
s462.5 235.5 826.5 235.5c366.667 0 643.5 -79.167 830.5 -237.5zM1833 682c0 198.667 -59.8311 348.667 -179.498 450s-296.834 152 -531.501 152c-232.667 0 -408.834 -50 -528.501 -150s-181.167 -248 -184.5 -444v-8c0 -199.333 60 -349.833 180 -451.5
s297.667 -152.5 533 -152.5c231.333 0 406.833 50.167 526.5 150.5s181.167 248.833 184.5 445.5v8zM1452 705.5c56 -9 99.667 -26.834 131 -53.501s47 -66 47 -118v-4c0 -89.333 -42.333 -156.833 -127 -202.5s-210 -68.5 -376 -68.5c-154.667 0 -271.5 22.333 -350.5 67
s-118.833 111.334 -119.5 200.001v-6c0.666992 0 1 9.66699 1 29h449v-11c-2 -28.667 6 -43 24 -43c17.333 0 26 14.333 26 43v5c0 28.667 -13.667 43 -41 43h-349v179l406 33l2 10l-453 -3v241h828v-290l-319 -37c91.333 0 165 -4.5 221 -13.5zM657.002 527.999v-1v1z
M657.002 526.999v-1v1z" />
    <glyph glyph-name="four.nalt" unicode="&#x28;&#x34;&#x29;" horiz-adv-x="2243" 
d="M291 -23c-187.333 158.667 -281 393.667 -281 705v9c3.33301 307.333 98.5 539.5 285.5 696.5s462.5 235.5 826.5 235.5c366.667 0 643.5 -79.167 830.5 -237.5s280.5 -392.833 280.5 -703.5v-11c-3.33301 -307.333 -98.5 -539.5 -285.5 -696.5
s-462.167 -235.5 -825.5 -235.5c-366.667 0 -643.667 79.333 -831 238zM1648.5 228.5c119.667 100.333 181.169 248.833 184.502 445.5v8c0 198.667 -59.833 348.667 -179.5 450s-296.834 152 -531.501 152c-232.667 0 -408.834 -50 -528.501 -150
s-181.167 -248 -184.5 -444v-8c0 -199.333 60 -349.833 180 -451.5s297.667 -152.5 533 -152.5c231.333 0 406.833 50.167 526.5 150.5zM1022 384h-415v252l212 426h701l3 -426h59v-253l-59 1v-86h-501v86zM1052 636l15 184h-35l-34 -184h54z" />
    <glyph glyph-name="five.nalt" unicode="&#x28;&#x35;&#x29;" horiz-adv-x="2243" 
d="M1952.5 1385.5c187 -158.333 280.5 -392.833 280.5 -703.5v-11c-3.33301 -307.333 -98.5 -539.5 -285.5 -696.5s-462.167 -235.5 -825.5 -235.5c-366.667 0 -643.667 79.333 -831 238s-281 393.667 -281 705v9c3.33301 307.333 98.5 539.5 285.5 696.5
s462.5 235.5 826.5 235.5c366.667 0 643.5 -79.167 830.5 -237.5zM1833 682c0 198.667 -59.8311 348.667 -179.498 450s-296.834 152 -531.501 152c-232.667 0 -408.834 -50 -528.501 -150s-181.167 -248 -184.5 -444v-8c0 -199.333 60 -349.833 180 -451.5
s297.667 -152.5 533 -152.5c231.333 0 406.833 50.167 526.5 150.5s181.167 248.833 184.5 445.5v8zM1518 727.5c57.333 -33.667 85.999 -87.165 85.999 -160.498v-2c0 -100.667 -43.167 -174.667 -129.5 -222s-221.166 -71 -404.499 -71c-150 0 -260.5 22 -331.5 66
s-106.833 112.333 -107.5 205v-3c0.666992 0 1.33398 7.33301 2.00098 22h450v-6c0 -12.667 2.33301 -21.834 7 -27.501s10.667 -8.5 18 -8.5c8 0 14 2.66699 18 8s6 14.666 6 27.999c0 24.667 -10 37 -30 37h-398l-44 68l71 405h788v-254h-395v-26l123 -3
c123.333 -3.33301 213.666 -21.833 270.999 -55.5zM631.001 544.002v-1v1z" />
    <glyph glyph-name="six.nalt" unicode="&#x28;&#x36;&#x29;" horiz-adv-x="2243" 
d="M291 -23c-187.333 158.667 -281 393.667 -281 705v9c3.33301 307.333 98.5 539.5 285.5 696.5s462.5 235.5 826.5 235.5c366.667 0 643.5 -79.167 830.5 -237.5s280.5 -392.833 280.5 -703.5v-11c-3.33301 -307.333 -98.5 -539.5 -285.5 -696.5
s-462.167 -235.5 -825.5 -235.5c-366.667 0 -643.667 79.333 -831 238zM1648.5 228.5c119.667 100.333 181.169 248.833 184.502 445.5v8c0 198.667 -59.833 348.667 -179.5 450s-296.834 152 -531.501 152c-232.667 0 -408.834 -50 -528.501 -150
s-181.167 -248 -184.5 -444v-8c0 -199.333 60 -349.833 180 -451.5s297.667 -152.5 533 -152.5c231.333 0 406.833 50.167 526.5 150.5zM821.002 307c-74 22 -127.667 54.334 -161 97.001s-50 96 -50 160v3c0 52.667 24 116.667 72 192s126 176.666 234 303.999h529
l-197 -273h11c32 32 68.333 48 109 48c46.667 0 90.167 -11 130.5 -33s72.5 -53 96.5 -93s36 -85 36 -135v-7c0 -90.667 -42.5 -162.667 -127.5 -216s-214.833 -80 -389.5 -80c-121.333 0 -219 11 -293 33zM1149 559.001v2c0 41.333 -9.33301 62 -28 62s-28 -20.667 -28 -62
v-2c0 -42.667 9.33301 -64 28 -64s28 21.333 28 64z" />
    <glyph glyph-name="seven.nalt" unicode="&#x28;&#x37;&#x29;" horiz-adv-x="2243" 
d="M291 -23c-187.333 158.667 -281 393.667 -281 705v9c3.33301 307.333 98.5 539.5 285.5 696.5s462.5 235.5 826.5 235.5c366.667 0 643.5 -79.167 830.5 -237.5s280.5 -392.833 280.5 -703.5v-11c-3.33301 -307.333 -98.5 -539.5 -285.5 -696.5
s-462.167 -235.5 -825.5 -235.5c-366.667 0 -643.667 79.333 -831 238zM1648.5 228.5c119.667 100.333 181.169 248.833 184.502 445.5v8c0 198.667 -59.833 348.667 -179.5 450s-296.834 152 -531.501 152c-232.667 0 -408.834 -50 -528.501 -150
s-181.167 -248 -184.5 -444v-8c0 -199.333 60 -349.833 180 -451.5s297.667 -152.5 533 -152.5c231.333 0 406.833 50.167 526.5 150.5zM992.002 767h-260v285h819v-249l-280 -515h-544z" />
    <glyph glyph-name="eight.nalt" unicode="&#x28;&#x38;&#x29;" horiz-adv-x="2243" 
d="M291 -23c-187.333 158.667 -281 393.667 -281 705v9c3.33301 307.333 98.5 539.5 285.5 696.5s462.5 235.5 826.5 235.5c366.667 0 643.5 -79.167 830.5 -237.5s280.5 -392.833 280.5 -703.5v-11c-3.33301 -307.333 -98.5 -539.5 -285.5 -696.5
s-462.167 -235.5 -825.5 -235.5c-366.667 0 -643.667 79.333 -831 238zM1648.5 228.5c119.667 100.333 181.169 248.833 184.502 445.5v8c0 198.667 -59.833 348.667 -179.5 450s-296.834 152 -531.501 152c-232.667 0 -408.834 -50 -528.501 -150
s-181.167 -248 -184.5 -444v-8c0 -199.333 60 -349.833 180 -451.5s297.667 -152.5 533 -152.5c231.333 0 406.833 50.167 526.5 150.5zM738.002 337.5c-81.333 42.333 -122.001 108.5 -122.001 198.5v4c0.666992 40 6 70.833 16 92.5s30 45.167 60 70.5
c-19.333 13.333 -35.166 32.5 -47.499 57.5s-19.166 51.167 -20.499 78.5v4c0 83.333 40.167 144.666 120.5 183.999s205.166 59 374.499 59s293.833 -19.667 373.5 -59s119.5 -100.666 119.5 -183.999v-4c-0.666992 -27.333 -7.16699 -53.333 -19.5 -78
s-27.833 -43.667 -46.5 -57c30 -26 50 -49.833 60 -71.5s15 -52.5 15 -92.5v-4c0 -90 -40.667 -156.167 -122 -198.5s-208 -63.5 -380 -63.5c-172.667 0 -299.667 21.167 -381 63.5zM1146 819v4c0 37.333 -9 56 -27 56s-27 -18.667 -27 -56v-4c0 -38.667 9 -58 27 -58
s27 19.333 27 58zM1146 546l0.00195312 5c0 23.333 -1.83301 39 -5.5 47s-10.834 12 -21.501 12s-17.834 -4 -21.501 -12s-5.5 -23.667 -5.5 -47v-5c0 -36 9 -54 27 -54s27 18 27 54z" />
    <glyph glyph-name="nine.nalt" unicode="&#x28;&#x39;&#x29;" horiz-adv-x="2243" 
d="M291 -23c-187.333 158.667 -281 393.667 -281 705v9c3.33301 307.333 98.5 539.5 285.5 696.5s462.5 235.5 826.5 235.5c366.667 0 643.5 -79.167 830.5 -237.5s280.5 -392.833 280.5 -703.5v-11c-3.33301 -307.333 -98.5 -539.5 -285.5 -696.5
s-462.167 -235.5 -825.5 -235.5c-366.667 0 -643.667 79.333 -831 238zM1648.5 228.5c119.667 100.333 181.169 248.833 184.502 445.5v8c0 198.667 -59.833 348.667 -179.5 450s-296.834 152 -531.501 152c-232.667 0 -408.834 -50 -528.501 -150
s-181.167 -248 -184.5 -444v-8c0 -199.333 60 -349.833 180 -451.5s297.667 -152.5 533 -152.5c231.333 0 406.833 50.167 526.5 150.5zM987.002 569l-11 -0.000976562c-32 -32 -68.333 -48 -109 -48c-46.667 0 -90.167 11 -130.5 33s-72.5 53 -96.5 93s-36 85 -36 135v7
c0 90.667 42.5 162.667 127.5 216s214.833 80 389.5 80c121.333 0 219 -11 293 -33s127.667 -54.333 161 -97s50 -96 50 -160v-3c0 -52.667 -24 -116.667 -72 -192s-126 -176.666 -234 -303.999h-529zM1142 797.999v2c0 42.667 -9.33301 64 -28 64s-28 -21.333 -28 -64v-2
c0 -41.333 9.33301 -62 28 -62s28 20.667 28 62z" />
    <glyph glyph-name=".notdef" horiz-adv-x="539" 
 />
    <glyph glyph-name="NULL" horiz-adv-x="0" 
 />
    <glyph glyph-name="NULL" horiz-adv-x="0" 
 />
    <glyph glyph-name="nonmarkingreturn" unicode="&#xd;" horiz-adv-x="539" 
 />
    <glyph glyph-name="DLE" horiz-adv-x="1679" 
 />
    <glyph glyph-name="space" unicode=" " horiz-adv-x="539" 
 />
    <glyph glyph-name="exclam" unicode="!" horiz-adv-x="762" 
d="M741 627l-85 -169h-544l-86 172v730h715v-733zM594 406c50 -20 84.167 -47.332 102.5 -81.999s27.5 -77 27.5 -127s-9.33301 -92.333 -28 -127s-53 -61.834 -103 -81.501s-119.667 -29.5 -209 -29.5s-158.833 10 -208.5 30s-83.667 47.333 -102 82
s-27.5 76.667 -27.5 126c0 50 9 92.333 27 127s51.833 62 101.5 82s119.5 30 209.5 30s160 -10 210 -30z" />
    <glyph glyph-name="quotedbl" unicode="&#x22;" horiz-adv-x="1306" 
d="M26 662v649h640l-101 -650zM678 662v649h640l-101 -650z" />
    <glyph glyph-name="numbersign" unicode="#" horiz-adv-x="1568" 
d="M1431 744l-16 -113h90v-388h-145l-35 -243h-605l35 243h-68l-35 -243h-605l35 243h-82l4 388h133l16 113h-91l4 388h142l33 228h605l-33 -228h68l33 228h605l-33 -228h81v-388h-136zM826 744h-68l-16 -113h68z" />
    <glyph glyph-name="dollar" unicode="$" horiz-adv-x="1404" 
d="M797 884c103.333 -8 196.833 -22.498 280.5 -43.498s159.334 -65.5 227.001 -133.5s101.5 -167 101.5 -297v-5c-3.33301 -95.333 -31.5 -175.833 -84.5 -241.5s-125.5 -115.334 -217.5 -149.001s-198 -52.167 -318 -55.5v-138h-164v141
c-398.667 27.333 -598.667 188 -600 482v6h655v-13c2 -19.333 12 -29 30 -29c9.33301 0 16.5 3 21.5 9s7.5 12.667 7.5 20c0 4 -2.16699 8.66699 -6.5 14s-10.5 8.66602 -18.5 9.99902c-16.667 2.66699 -41 5.66699 -73 9c-104 11.333 -197.667 27.666 -281 48.999
s-159.166 62.833 -227.499 124.5s-102.5 148.834 -102.5 261.501v4c4.66699 165.333 56.667 286.666 156 363.999s245.666 119.333 438.999 126v164h164v-166c132.667 -8.66699 243 -34.167 331 -76.5s153.167 -98 195.5 -167s63.833 -148.5 64.5 -238.5v-4h-629v12
c0 6.66699 -2.66699 12.834 -8 18.501s-12.333 8.5 -21 8.5s-15.834 -2.83301 -21.501 -8.5s-8.5 -12.5 -8.5 -20.5c0 -4 3.33301 -9.5 10 -16.5s14 -11.167 22 -12.5s33.333 -4 76 -8z" />
    <glyph glyph-name="percent" unicode="%" horiz-adv-x="2213" 
d="M235.5 657c-73.667 36 -127.001 84.167 -160.001 144.5s-49.5 128.5 -49.5 204.5v6c0.666992 76 18.667 144 54 204s89.833 107.5 163.5 142.5s165.834 52.5 276.501 52.5c174.667 0 300.667 -37.167 378 -111.5s116 -169.5 116 -285.5v-6c0 -76 -17 -144.5 -51 -205.5
s-87.833 -109.5 -161.5 -145.5s-167.5 -54 -281.5 -54c-116 0 -210.833 18 -284.5 54zM1341 1357h362l-847 -1360h-354zM540.999 899.5c4 19 6 55.167 6 108.5v2c0 51.333 -2 86.333 -6 105s-10.667 28 -20 28s-16 -8.83301 -20 -26.5s-6 -53.167 -6 -106.5v-2
c0 -52.667 2 -88.667 6 -108s10.667 -29 20 -29s16 9.5 20 28.5zM1408.5 14c-73.667 36 -127 84.167 -160 144.5s-49.5 128.5 -49.5 204.5v6c0 76 17.667 144 53 204s90 107.5 164 142.5s166.333 52.5 277 52.5c174.667 0 300.667 -37.167 378 -111.5s116 -169.5 116 -285.5
v-6c0 -76 -17 -144.5 -51 -205.5s-87.833 -109.5 -161.5 -145.5s-167.5 -54 -281.5 -54c-116 0 -210.833 18 -284.5 54zM1714 256.5c4 19 6 55.167 6 108.5v2c0 51.333 -2 86.333 -6 105s-10.667 28 -20 28s-16 -8.83301 -20 -26.5s-6 -53.167 -6 -106.5v-2
c0 -52.667 2 -88.667 6 -108s10.667 -29 20 -29s16 9.5 20 28.5z" />
    <glyph glyph-name="ampersand" unicode="&#x26;" horiz-adv-x="1611" 
d="M1610 475l-56.002 -0.000976562v-7c-2 -121.333 -23.5 -219 -64.5 -293s-114.167 -130 -219.5 -168s-254.333 -57 -447 -57c-264 0 -463.167 38 -597.5 114s-201.5 188 -201.5 336v17c0 124.667 42.333 219.334 127 284.001c-62.667 55.333 -94 132.666 -94 231.999v15
c0 144.667 64.333 253.834 193 327.501s319.334 110.5 572.001 110.5c238 0 417.833 -42.5 539.5 -127.5s182.5 -210.833 182.5 -377.5v-5h-710l-1 10c-3.33301 28.667 -14 43 -32 43c-20 0 -30 -14.667 -30 -44v-55c0 -10.667 3.33301 -19.167 10 -25.5
s13.334 -9.5 20.001 -9.5l1 -279c-7.33301 0 -14.333 -4 -21 -12s-10 -18.333 -10 -31v-28c0 -27.333 10.667 -41 32 -41c20.667 0 31 14.333 31 43v372h720v-63h56v-281z" />
    <glyph glyph-name="quotesingle" unicode="'" horiz-adv-x="649" 
d="M26 712v649h640l-101 -650z" />
    <glyph glyph-name="parenleft" unicode="(" horiz-adv-x="867" 
d="M351 -282c-118.667 48 -202.167 122.669 -250.5 224.002s-72.5 238.333 -72.5 411v659c0 172.667 24.167 309.667 72.5 411s131.833 176 250.5 224s284.667 72 498 72l4 -420c-34 0 -59.833 -14.833 -77.5 -44.5s-26.5 -62.834 -26.5 -99.501v-945
c0 -36.667 8.83301 -69.834 26.5 -99.501s43.5 -44.5 77.5 -44.5l-4 -420c-213.333 0 -379.333 24 -498 72z" />
    <glyph glyph-name="parenright" unicode=")" horiz-adv-x="862" 
d="M9 66c34 0 59.833 14.8311 77.5 44.498s26.5 62.834 26.5 99.501v945c0 36.667 -8.83301 69.834 -26.5 99.501s-43.5 44.5 -77.5 44.5l4 420c213.333 0 379.333 -24 498 -72s202.167 -122.667 250.5 -224s72.5 -238.333 72.5 -411v-659
c0 -172.667 -24.167 -309.667 -72.5 -411s-131.833 -176 -250.5 -224s-284.667 -72 -498 -72z" />
    <glyph glyph-name="asterisk" unicode="*" horiz-adv-x="975" 
d="M365 745l-11 6l-142 -190l-216 374l236 28v12l-236 28l216 374l141 -188l12 6l-94 217h432l-94 -217l13 -7l141 190l216 -375l-234 -28l-1 -13l235 -27l-216 -375l-141 190l-13 -6l94 -217h-432z" />
    <glyph glyph-name="plus" unicode="+" horiz-adv-x="902" 
d="M219 371h-193v465h193v192h465v-192h193v-465h-193v-194h-465v194z" />
    <glyph glyph-name="comma" unicode="," horiz-adv-x="654" 
d="M32 348h625l-174 -635h-514z" />
    <glyph glyph-name="hyphen" unicode="-" horiz-adv-x="898" 
d="M25 836h851v-465h-851v465z" />
    <glyph glyph-name="period" unicode="." horiz-adv-x="704" 
d="M149.5 -20c-48.333 15.333 -82.998 40.833 -103.998 76.5s-31.5 85.5 -31.5 149.5s10.5 113.833 31.5 149.5s55.667 61.167 104 76.5s116.166 23 203.499 23s155.166 -7.66699 203.499 -23s83 -40.833 104 -76.5s31.5 -85.5 31.5 -149.5s-10.5 -113.833 -31.5 -149.5
s-55.833 -61.167 -104.5 -76.5s-116.667 -23 -204 -23c-86.667 0 -154.167 7.66699 -202.5 23z" />
    <glyph glyph-name="slash" unicode="/" horiz-adv-x="1060" 
d="M391 1422h717l-484 -1630l-722 -1z" />
    <glyph glyph-name="zero" unicode="0" horiz-adv-x="1501" 
d="M201.5 143.5c-123.667 121.667 -185.5 301.5 -185.5 539.5c0 236.667 61.833 415.334 185.5 536.001s306.834 181 549.501 181s425.667 -60.333 549 -181s185 -299.334 185 -536.001c0 -238 -61.667 -417.833 -185 -539.5s-306.333 -182.5 -549 -182.5
s-425.834 60.833 -549.501 182.5zM782 483v400c0 19.333 -9.66699 29 -29 29c-10.667 0 -18.334 -2.33301 -23.001 -7s-7 -12 -7 -22v-400c0 -10 2.33301 -17.333 7 -22s12.334 -7 23.001 -7c19.333 0 29 9.66699 29 29z" />
    <glyph glyph-name="one" unicode="1" horiz-adv-x="861" 
d="M154 808l-146 -48l-4 513l272 88h559v-1361h-696z" />
    <glyph glyph-name="two" unicode="2" horiz-adv-x="1336" 
d="M1314 440l-0.000976562 -439.999h-1296v436c194 105.333 336.833 196 428.5 272s137.5 142.333 137.5 199v4c-0.666992 28 -12 42 -34 42c-7.33301 0 -13.166 -4.16699 -17.499 -12.5s-7.16602 -21.5 -8.49902 -39.5c-1.33301 -20 -2 -38.333 -2 -55h-499
c0 28 0.333008 44.667 1 50c6.66699 172 59.334 298.5 158.001 379.5s249.667 121.5 453 121.5c229.333 0 398.666 -36.167 507.999 -108.5s164.666 -184.833 165.999 -337.5v-15c0 -236.667 -117.667 -397.334 -353 -482.001v-14h358z" />
    <glyph glyph-name="three" unicode="3" horiz-adv-x="1393" 
d="M1291.5 697c61 -56.667 92.166 -139.666 93.499 -248.999v-6c0 -158.667 -60.167 -278.834 -180.5 -360.501s-297.166 -122.5 -530.499 -122.5c-216.667 0 -381.167 40 -493.5 120s-169.166 197.333 -170.499 352c0 -2.66699 0.166992 -2.66699 0.5 0
s0.666016 9 0.999023 19s0.5 22.667 0.5 38h634v-33c2 -38.667 11 -58 27 -58c18 0 27.667 19.667 29 59v8c0 39.333 -14.333 59 -43 59l-493 1v360l374 28l143 24l-581 -5v429h1170v-537l-166 -18l-83 -23c118 0 207.5 -28.333 268.5 -85zM9.99902 438.001v-7v7z" />
    <glyph glyph-name="four" unicode="4" horiz-adv-x="1408" 
d="M643 151h-631v449l301 760h997l4 -760h83v-450l-83 1v-151h-671v151zM643 600v291h-21l-65 -291h86z" />
    <glyph glyph-name="five" unicode="5" horiz-adv-x="1402" 
d="M1262.5 773c81.667 -64.667 122.829 -162.668 123.496 -294.001v-2c0 -118.667 -27 -216.167 -81 -292.5s-136.667 -133 -248 -170s-253.666 -55.5 -426.999 -55.5c-212 0 -368.167 38.833 -468.5 116.5s-151.166 198.5 -152.499 362.5
c0.666992 -1.33301 1 2.16699 1 10.5s0.333008 21.5 1 39.5h637v-10c0.666992 -28 3.16699 -48.5 7.5 -61.5s10.833 -19.5 19.5 -19.5c10 0 17.333 5.33301 22 16s7 27.334 7 50.001v1c0 21.333 -3.66699 36.833 -11 46.5s-18.666 14.5 -33.999 14.5h-547l-62 120l100 715
h1115v-449h-545v-28l161 -5c172.667 -5.33301 299.834 -40.333 381.501 -105zM8.99512 438.999v-1v1z" />
    <glyph glyph-name="six" unicode="6" horiz-adv-x="1468" 
d="M328 12c-108 36.667 -188.333 92.835 -241 168.502s-79 172.5 -79 290.5v10c4 156 41.167 305.167 111.5 447.5s177.833 286.166 322.5 431.499h750c-104.667 -102 -190 -191.167 -256 -267.5s-116 -143.833 -150 -202.5l12 -5c7.33301 5.33301 21.333 17.666 42 36.999
c21.333 20 35.333 32.333 42 37c194.667 0 338.667 -37.833 432 -113.5s141.333 -193.5 144 -353.5v-15c0 -119.333 -25.5 -217.333 -76.5 -294s-129.167 -133.5 -234.5 -170.5s-240 -55.5 -404 -55.5c-168.667 0 -307 18.333 -415 55zM762 483.001l0.000976562 5.00098
c-0.666992 49.333 -10 74 -28 74c-9.33301 0 -16.333 -5.83301 -21 -17.5s-7.33398 -30.167 -8.00098 -55.5v-6c0 -26.667 2.33301 -46.334 7 -59.001s12 -19 22 -19c18.667 0 28 26 28 78z" />
    <glyph glyph-name="seven" unicode="7" horiz-adv-x="1181" 
d="M379 887h-368v473h1162v-445l-397 -915h-773z" />
    <glyph glyph-name="eight" unicode="8" horiz-adv-x="1456" 
d="M334 4c-104.667 33.333 -182.502 84.3311 -233.502 152.998s-76.5 156.334 -76.5 263.001v6c0.666992 48.667 4 88.667 10 120s16.5 59.833 31.5 85.5s37.167 53.834 66.5 84.501c-28 23.333 -50.833 57 -68.5 101s-27.167 90.667 -28.5 140v8
c0.666992 148 57.834 257 171.501 327s290.5 105 530.5 105c160 0 291.333 -15.5 394 -46.5s179 -78.167 229 -141.5s75 -144.666 75 -243.999v-8c-1.33301 -48.667 -10.666 -95 -27.999 -139s-39 -77.667 -65 -101c29.333 -31.333 51.333 -60 66 -86s25 -54.5 31 -85.5
s9 -70.833 9 -119.5v-6c0 -106.667 -25.5 -194.334 -76.5 -263.001s-128.833 -119.667 -233.5 -153s-238.667 -50 -402 -50s-297.333 16.667 -402 50zM757.998 854.998c4.66699 12.667 7 32.333 7 59v5c0 25.333 -2.33301 44 -7 56s-12 18 -22 18
c-18.667 0 -28 -24.667 -28 -74v-5c0 -52 9.33301 -78 28 -78c10 0 17.333 6.33301 22 19zM757.998 391.997c4.66699 11.333 7 29.333 7 54v7c0 31.333 -2 52.333 -6 63s-11.667 16 -23 16s-18.833 -5.33301 -22.5 -16s-5.5 -31.667 -5.5 -63v-7
c0 -47.333 9.33301 -71 28 -71c10 0 17.333 5.66699 22 17z" />
    <glyph glyph-name="nine" unicode="9" horiz-adv-x="1477" 
d="M685 470l-12.001 5c-6.66699 -4.66699 -20.667 -17 -42 -37c-20.667 -19.333 -34.667 -31.666 -42 -36.999c-197.333 0 -342.666 37.833 -435.999 113.5s-140 193.5 -140 353.5v15c0 119.333 25.5 217.333 76.5 294s129.167 133.5 234.5 170.5s240 55.5 404 55.5
c168.667 0 307 -18.333 415 -55s188.333 -92.834 241 -168.501s79 -172.5 79 -290.5v-10c0 -182.667 -39.167 -345.167 -117.5 -487.5s-200.5 -272.833 -366.5 -391.5h-750c278.667 271.333 430.667 428 456 470zM758.999 815.5c4.66699 11.667 7 30.166 7 55.499v6
c0 26.667 -2.33301 46.334 -7 59.001s-12 19 -22 19c-18.667 0 -28 -26 -28 -78v-5c0 -49.333 9.33301 -74 28 -74c10 0 17.333 5.83301 22 17.5z" />
    <glyph glyph-name="colon" unicode=":" horiz-adv-x="698" 
d="M145.5 -20c-48.333 15.333 -82.998 40.833 -103.998 76.5s-31.5 85.5 -31.5 149.5s10.5 113.833 31.5 149.5s55.667 61.167 104 76.5s116.166 23 203.499 23s155.166 -7.66699 203.499 -23s83 -40.833 104 -76.5s31.5 -85.5 31.5 -149.5s-10.5 -113.833 -31.5 -149.5
s-55.833 -61.167 -104.5 -76.5s-116.667 -23 -204 -23c-86.667 0 -154.167 7.66699 -202.5 23zM145.502 630c-48.333 15.333 -82.998 40.833 -103.998 76.5s-31.5 85.5 -31.5 149.5s10.5 113.833 31.5 149.5s55.667 61.167 104 76.5s116.166 23 203.499 23
s155.166 -7.66699 203.499 -23s83 -40.833 104 -76.5s31.5 -85.5 31.5 -149.5s-10.5 -113.833 -31.5 -149.5s-55.833 -61.167 -104.5 -76.5s-116.667 -23 -204 -23c-86.667 0 -154.167 7.66699 -202.5 23z" />
    <glyph glyph-name="semicolon" unicode=";" horiz-adv-x="698" 
d="M43 348h625l-174 -635h-514zM145.5 630c-48.333 15.333 -82.998 40.833 -103.998 76.5s-31.5 85.5 -31.5 149.5s10.5 113.833 31.5 149.5s55.667 61.167 104 76.5s116.166 23 203.499 23s155.166 -7.66699 203.499 -23s83 -40.833 104 -76.5s31.5 -85.5 31.5 -149.5
s-10.5 -113.833 -31.5 -149.5s-55.833 -61.167 -104.5 -76.5s-116.667 -23 -204 -23c-86.667 0 -154.167 7.66699 -202.5 23z" />
    <glyph glyph-name="less" unicode="&#x3c;" horiz-adv-x="1162" 
d="M25 342v523l1115 370v-586l-419 -46l419 -43v-588z" />
    <glyph glyph-name="equal" unicode="=" horiz-adv-x="995" 
d="M25 1062l946 2v-436h-946v434zM25 575l946 1v-434h-946v433z" />
    <glyph glyph-name="greater" unicode="&#x3e;" horiz-adv-x="1163" 
d="M25 560l419 43l-419 46v586l1115 -370v-523l-1115 -370v588z" />
    <glyph glyph-name="question" unicode="?" horiz-adv-x="1294" 
d="M346 515l-48.001 101.998c-12 26.667 -18 51.667 -18 75c0 48 25 88.167 75 120.5s134.333 48.5 253 48.5c24 0 37 18 39 54v7c-2 34 -12.333 51 -31 51c-24.667 0 -37 -15.667 -37 -47v-26h-571v13c-4 164.667 49 288.834 159 372.501s274.667 125.5 494 125.5
c208 0 365.167 -38.333 471.5 -115s159.5 -190 159.5 -340v-13c-1.33301 -56 -12 -102.167 -32 -138.5s-43.5 -64.5 -70.5 -84.5s-61.167 -40.333 -102.5 -61c-31.333 -16 -55.666 -30.167 -72.999 -42.5s-30.333 -27.166 -39 -44.499l-27 -56l-27 -58h-544z
M453.999 -16.502c-49.333 16.333 -85.666 41.833 -108.999 76.5s-35 80.334 -35 137.001s11.667 102.5 35 137.5s59.666 60.667 108.999 77s114 24.5 194 24.5c80.667 0 145.834 -8.16699 195.501 -24.5s86.167 -42 109.5 -77s35 -80.833 35 -137.5
s-11.667 -102.334 -35 -137.001s-59.833 -60.167 -109.5 -76.5s-114.834 -24.5 -195.501 -24.5c-80 0 -144.667 8.16699 -194 24.5z" />
    <glyph glyph-name="at" unicode="@" horiz-adv-x="2083" 
d="M433 -353.5c-148 63.667 -254.504 164.833 -319.504 303.5s-97.5 325.667 -97.5 561v12c4.66699 638 359.667 957 1065 957c200.667 0 375 -30.5 523 -91.5s262.167 -150.167 342.5 -267.5s120.5 -258.666 120.5 -423.999v-19c0 -114 -17.667 -220.5 -53 -319.5
s-96.666 -180.833 -183.999 -245.5s-204.333 -97 -351 -97c-100.667 0 -187 13.667 -259 41s-127.667 66.666 -167 117.999c-13.333 -40.667 -39.666 -74.334 -78.999 -101.001s-96 -40 -170 -40c-114 0 -193.333 45 -238 135s-67.667 207.333 -69 352v10
c0 86.667 14 166.834 42 240.501s70.667 133.167 128 178.5s128 68 212 68c140.667 0 254 -34.333 340 -103l46 71c101.333 -29.333 207.333 -65 318 -107l1 -342c0 -66.667 7.66699 -100 23 -100c8 0 14.333 6.66699 19 20s7 40 7 80v309
c0 33.333 -19.167 67.166 -57.5 101.499s-98.666 63 -180.999 86s-185.833 34.5 -310.5 34.5c-192.667 0 -334.334 -18.667 -425.001 -56s-149 -92.166 -175 -164.499s-39 -177.833 -39 -316.5v-11c0.666992 -110 10.334 -204.167 29.001 -282.5
s54.334 -141.5 107.001 -189.5s128 -72 226 -72l776 3v-364c-4 -0.666992 -33 -6.5 -87 -17.5s-125.167 -21.5 -213.5 -31.5s-169.833 -15 -244.5 -15c-255.333 0 -457 31.833 -605 95.5zM1068 434.999c3.33301 18 5 47.667 5 89v9c0 43.333 -1.5 74.5 -4.5 93.5
s-8.83301 28.5 -17.5 28.5c-16 0 -24 -40.667 -24 -122v-12c0.666992 -37.333 3 -65.5 7 -84.5s9.33301 -28.5 16 -28.5c8.66699 0 14.667 9 18 27z" />
    <glyph glyph-name="A" unicode="A" horiz-adv-x="1549" 
d="M820 77h-90l-3 -77h-736l403 1360h760l404 -1360h-734zM798 449l-16 288h-22l-13 -288h51z" />
    <glyph glyph-name="B" unicode="B" horiz-adv-x="1508" 
d="M26 1360l729 -0.00195312c176 0 315.667 -12.5 419 -37.5s178.333 -65.167 225 -120.5s70 -129.666 70 -222.999v-12c0 -72 -12 -132.5 -36 -181.5s-65 -84.167 -123 -105.5c59.333 -22 104 -58.333 134 -109s45 -110 45 -178v-12
c0 -93.333 -23.333 -167.666 -70 -222.999s-121.667 -95.5 -225 -120.5s-243 -37.5 -419 -37.5h-749v1360zM745 842.998c14.667 0 24.5 3.66699 29.5 11s7.5 22 7.5 44v1c0 24 -2.5 39.833 -7.5 47.5s-16.167 11.5 -33.5 11.5h-17v-115h21zM741 401.998
c17.333 0 28.5 3.83301 33.5 11.5s7.5 23.5 7.5 47.5v1c0 22 -2.5 36.667 -7.5 44s-14.833 11 -29.5 11h-21v-115h17z" />
    <glyph glyph-name="C" unicode="C" horiz-adv-x="1609" 
d="M215 143c-132.667 121.333 -199 300.998 -199 538.998v1c0 236.667 66.333 415.334 199 536.001s329 181 589 181c254 0 447.5 -58 580.5 -174s202.5 -287.667 208.5 -515l-761 -1v73c0 19.333 -9.66699 29 -29 29c-20 0 -30 -9.66699 -30 -29v-200
c0 -19.333 10 -29 30 -29c19.333 0 29 9.66699 29 29v68h761c-6.66699 -227.333 -76.5 -399.166 -209.5 -515.499s-326.167 -174.5 -579.5 -174.5c-260 0 -456.333 60.667 -589 182z" />
    <glyph glyph-name="D" unicode="D" horiz-adv-x="1556" 
d="M26 1360h741c254.667 0 447.167 -57.167 577.5 -171.5s195.5 -283.166 195.5 -506.499v-1c0 -224.667 -64.833 -394.334 -194.5 -509.001s-321.5 -172 -575.5 -172h-744v1360zM755 566c13.333 0 22.5 2.83301 27.5 8.5s8.16699 15.167 9.5 28.5s2 38 2 74
c0 37.333 -0.666992 63 -2 77s-4.5 23.833 -9.5 29.5s-14.167 8.5 -27.5 8.5h-19v-226h19z" />
    <glyph glyph-name="E" unicode="E" horiz-adv-x="1175" 
d="M26 1360h1121v-473h-375v-48h298v-333h-298v-47h384v-459h-1130v1360z" />
    <glyph glyph-name="F" unicode="F" horiz-adv-x="1170" 
d="M26 1360h1121v-473h-386v-48h309v-463h-309v-375l-735 -1v1360z" />
    <glyph glyph-name="G" unicode="G" horiz-adv-x="1605" 
d="M215 140c-132.667 119.333 -199 296 -199 530v20c0 234.667 66.333 411.667 199 531s329 179 589 179c254.667 0 447 -49.667 577 -149s195.667 -246.666 197 -441.999v-5l-746 2v57c0 19.333 -9.66699 29 -29 29c-20 0 -30 -9.66699 -30 -29v-450
c0 -20.667 10.333 -30.334 31 -29.001c10 0 21 2.66699 33 8v43h-30l1 323h774v-643c-96.667 -50.667 -210.5 -89 -341.5 -115s-276.5 -39 -436.5 -39c-260 0 -456.333 59.667 -589 179z" />
    <glyph glyph-name="H" unicode="H" horiz-adv-x="1542" 
d="M26 1360h716v-455h56v455h718v-1360h-718v440h-56v-440h-716v1360z" />
    <glyph glyph-name="I" unicode="I" horiz-adv-x="788" 
d="M26 1360h736v-1360h-736v1360z" />
    <glyph glyph-name="J" unicode="J" horiz-adv-x="956" 
d="M18 468h124c19.333 0 33.833 5 43.5 15s14.5 26 14.5 48l1 829h732v-876c0 -159.333 -39.167 -279.833 -117.5 -361.5s-194.5 -122.5 -348.5 -122.5h-449v468z" />
    <glyph glyph-name="K" unicode="K" horiz-adv-x="1605" 
d="M26 1360h736l-14 -461h22l54 461h776l-175 -680l181 -680h-782l-54 436l-21 1l13 -437h-736v1360z" />
    <glyph glyph-name="L" unicode="L" horiz-adv-x="1080" 
d="M26 1360h736v-855h300v-505h-1036v1360z" />
    <glyph glyph-name="M" unicode="M" horiz-adv-x="1944" 
d="M26 1360h893l38 -602h30l38 602h893v-1360h-619l100 624h-33l-137 -624h-514l-137 624h-33l100 -624h-619v1360z" />
    <glyph glyph-name="N" unicode="N" horiz-adv-x="1521" 
d="M26 1360h773l32 -131l88 -358l33 3l-84 486h627v-1360h-774l-32 123l-111 501h-33l100 -624h-619v1360z" />
    <glyph glyph-name="O" unicode="O" horiz-adv-x="1610" 
d="M215 1219c132.667 120.667 329.334 181 590.001 181s457.334 -60.333 590.001 -181s199 -299.334 199 -536.001c0 -238 -66.333 -417.833 -199 -539.5s-329.334 -182.5 -590.001 -182.5s-457.334 60.833 -590.001 182.5s-199 301.5 -199 539.5
c0 236.667 66.333 415.334 199 536.001zM805 554c18.667 0 28 9.66699 28 29v200c0 19.333 -9.33301 29 -28 29s-28 -9.66699 -28 -29v-200c0 -19.333 9.33301 -29 28 -29z" />
    <glyph glyph-name="P" unicode="P" horiz-adv-x="1486" 
d="M26 1360l696 -0.00195312c166 0 302 -12.667 408 -38s189.333 -75.666 250 -150.999s91 -185.333 91 -330v-12c-2 -137.333 -33 -242.666 -93 -315.999s-139.667 -122.833 -239 -148.5s-220.333 -38.5 -363 -38.5h-14v-326h-736v1360zM745 752.998
c14.667 0 24.5 3.66699 29.5 11s7.5 22 7.5 44v11c0 24 -2.5 39.833 -7.5 47.5s-16.167 11.5 -33.5 11.5h-17v-125h21z" />
    <glyph glyph-name="Q" unicode="Q" horiz-adv-x="1611" 
d="M1693 -373c-58.667 -32 -133.17 -56.168 -223.503 -72.501s-194.5 -24.5 -312.5 -24.5c-201.333 0 -356.5 39 -465.5 117s-169.5 193.333 -181.5 346c-163.333 40.667 -286.5 118.667 -369.5 234s-124.5 267 -124.5 455v1c0 236.667 66.333 415.334 199 536.001
s329 181 589 181c260.667 0 457.334 -60.333 590.001 -181s199 -299.334 199 -536.001v-1c0 -187.333 -41.167 -338.666 -123.5 -453.999s-205.166 -193.333 -368.499 -234c14 -24 47 -36 99 -36c60.667 0 144.334 16 251.001 48l42 13c44.667 14.667 68.667 22 72 22z
M772.997 582.999c0 -19.333 10 -29 30 -29c19.333 0 29 9.66699 29 29v200c0 19.333 -9.66699 29 -29 29c-20 0 -30 -9.66699 -30 -29v-200z" />
    <glyph glyph-name="R" unicode="R" horiz-adv-x="1492" 
d="M784 0l-21 381.999h-40v-382h-697v1360h696c166 0 302 -12.667 408 -38s189.333 -75.666 250 -150.999s91 -185.333 91 -330v-12c0 -140.667 -42 -247 -126 -319l132 -510h-693zM745 752.999c14.667 0 24.5 3.66699 29.5 11s7.5 22 7.5 44v11c0 24 -2.5 39.833 -7.5 47.5
s-16.167 11.5 -33.5 11.5h-17v-125h21z" />
    <glyph glyph-name="S" unicode="S" horiz-adv-x="1428" 
d="M22 444l-0.000976562 6h655v-13c2 -19.333 12 -29 30 -29c9.33301 0 16.5 3 21.5 9s7.5 12.667 7.5 20c0 4 -2.16699 8.66699 -6.5 14s-10.5 8.66602 -18.5 9.99902c-16.667 2.66699 -41 5.66699 -73 9c-104 11.333 -197.667 27.666 -281 48.999
s-159.166 62.833 -227.499 124.5s-102.5 148.834 -102.5 261.501v4c4.66699 174.667 62 300.167 172 376.5s272 114.5 486 114.5c155.333 0 284.5 -20.333 387.5 -61s179.333 -97.167 229 -169.5s74.834 -157.166 75.501 -254.499v-4h-629v12
c0 6.66699 -2.66699 12.834 -8 18.501s-12.333 8.5 -21 8.5s-15.834 -2.83301 -21.501 -8.5s-8.5 -12.5 -8.5 -20.5c0 -4 3.33301 -9.5 10 -16.5s14 -11.167 22 -12.5s33.333 -4 76 -8c103.333 -8 196.833 -22.5 280.5 -43.5s159.334 -65.5 227.001 -133.5
s101.5 -167 101.5 -297v-5c-3.33301 -98.667 -33.333 -181.334 -90 -248.001s-133.834 -116.5 -231.501 -149.5s-210.167 -49.5 -337.5 -49.5c-482 0 -723.667 162 -725 486z" />
    <glyph glyph-name="T" unicode="T" horiz-adv-x="1211" 
d="M241 839h-230v521h1189v-521h-227v-839h-732v839z" />
    <glyph glyph-name="U" unicode="U" horiz-adv-x="1542" 
d="M212 79.5c-126 85 -189 210.833 -189 377.5v903h722v-809c0 -48.667 9.33301 -73 28 -73s28 24 28 72v810h718v-903c0 -166.667 -63 -292.5 -189 -377.5s-312.333 -127.5 -559 -127.5s-433 42.5 -559 127.5z" />
    <glyph glyph-name="V" unicode="V" horiz-adv-x="1549" 
d="M-9 1360h736l36 -737h23l38 737h734l-403 -1360h-761z" />
    <glyph glyph-name="W" unicode="W" horiz-adv-x="2285" 
d="M727 1360l36 -737h23l38 737h637l38 -737h23l36 737h736l-357 -1360h-763l-21 457h-21l-21 -457h-763l-357 1360h736z" />
    <glyph glyph-name="X" unicode="X" horiz-adv-x="1585" 
d="M185 677l-166 683h736l23 -424h22l32 424h734l-172 -658l192 -702h-754l-25 407h-22l-30 -407h-756z" />
    <glyph glyph-name="Y" unicode="Y" horiz-adv-x="1531" 
d="M398 423l-416 937h744l27 -501l26 1l13 500h757l-416 -934l2 -426h-737v423z" />
    <glyph glyph-name="Z" unicode="Z" horiz-adv-x="1267" 
d="M10 407l364 450h-340v503h1207l-1 -398l-362 -458h375v-504h-1243v407z" />
    <glyph glyph-name="bracketleft" unicode="[" horiz-adv-x="852" 
d="M26 1723h820v-438h-101v-1203h101v-436h-820v2077z" />
    <glyph glyph-name="backslash" unicode="\" horiz-adv-x="1066" 
d="M426 -208l-484 1630h717l489 -1631z" />
    <glyph glyph-name="bracketright" unicode="]" horiz-adv-x="852" 
d="M7 82h101v1203h-101v438h820v-2077h-820v436z" />
    <glyph glyph-name="asciicircum" unicode="^" horiz-adv-x="1276" 
d="M367 1443h538l365 -741l-606 5l-27 286l-31 -286l-604 -5z" />
    <glyph glyph-name="underscore" unicode="_" horiz-adv-x="885" 
d="M27 -31h829v-297h-829v297z" />
    <glyph glyph-name="grave" unicode="`" horiz-adv-x="683" 
d="M9 1404h569l100 -296h-495z" />
    <glyph glyph-name="a" unicode="a" horiz-adv-x="1381" 
d="M202.5 3.5c-58.333 29 -104.668 70.168 -139.001 123.501s-51.5 115 -51.5 185v10c1.33301 100 24 172.333 68 217s106.333 72.167 187 82.5s207 15.5 379 15.5l75 -2v23c0 24.667 -1.66699 41.667 -5 51s-12 14 -26 14c-11.333 0 -18.833 -4.33301 -22.5 -13
s-5.5 -20.334 -5.5 -35.001v-7l-585 -1v5c0.666992 102.667 24.167 185.5 70.5 248.5s119.833 109.5 220.5 139.5s234.334 45 401.001 45c109.333 0 208 -13.667 296 -41s158.333 -71.333 211 -132s79 -138.334 79 -233.001v-699h-602l-63 128
c-23.333 -55.333 -59.833 -97.166 -109.5 -125.499s-111.834 -42.5 -186.501 -42.5c-69.333 0 -133.166 14.5 -191.499 43.5zM709.498 372.501c7 7 10.833 17.167 11.5 30.5v47h-6c-22 -2 -36.333 -7.5 -43 -16.5s-10 -22.167 -10 -39.5v-6
c0 -8.66699 2.33301 -15.167 7 -19.5s10.667 -6.5 18 -6.5c8 0 15.5 3.5 22.5 10.5z" />
    <glyph glyph-name="b" unicode="b" horiz-adv-x="1399" 
d="M464 65l-42.002 -65h-396v1358h717v-253l-21 -111c54.667 76.667 148.334 115 281.001 115c126.667 0 222.334 -48.333 287.001 -145s97 -239.667 97 -429v-1c0 -189.333 -41.5 -332.333 -124.5 -429s-206.167 -145 -369.5 -145c-161.333 0 -304.333 35 -429 105z
M710.998 421.5c5.33301 4.33301 9.66699 9.83301 13 16.5v145c0 46.667 -9.66699 70 -29 70c-12 0 -22 -7 -30 -21v-149c0 -45.333 9.33301 -68 28 -68c6.66699 0 12.667 2.16699 18 6.5z" />
    <glyph glyph-name="c" unicode="c" 
d="M185 106c-115.333 96.667 -172.999 239.333 -172.999 428v1c0 188 57.667 329.833 173 425.5s285.666 143.5 510.999 143.5c220 0 387.667 -45.833 503 -137.5s175.666 -227.5 180.999 -407.5h-655v33c0 19.333 -9.66699 29 -29 29c-20 0 -30 -9.66699 -30 -29v-120
c0 -19.333 10 -29 30 -29c19.333 0 29 9.66699 29 29v41h655c-5.33301 -182 -65.5 -319.5 -180.5 -412.5s-282.833 -139.5 -503.5 -139.5c-225.333 0 -395.666 48.333 -510.999 145z" />
    <glyph glyph-name="d" unicode="d" horiz-adv-x="1399" 
d="M106 103.5c-62.667 97 -94.001 240.5 -94.001 430.5v1c0 189.333 32.333 332.333 97 429s160.334 145 287.001 145c132.667 0 226.334 -38.333 281.001 -115l-21 111v253h717v-1358h-612l-63 127c-43.333 -112.667 -148 -169 -314 -169
c-122.667 0 -215.334 48.5 -278.001 145.5zM720.999 460v180c-9.33301 7.33301 -18.333 11 -27 11c-19.333 0 -29 -37 -29 -111v-18c0 -68.667 9.33301 -103 28 -103s28 13.667 28 41z" />
    <glyph glyph-name="e" unicode="e" 
d="M666 379l0.000976562 -77.001c0 -19.333 10 -29 30 -29c19.333 0 29 9.66699 29 29v18h619c-35.333 -118.667 -107.5 -208.167 -216.5 -268.5s-252.833 -90.5 -431.5 -90.5c-225.333 0 -395.666 48.333 -510.999 145s-173 239.334 -173 428.001v1
c0 188 57.667 329.833 173 425.5s285.666 143.5 510.999 143.5s395.666 -45.833 510.999 -137.5s173 -227.5 173 -407.5c0 -48 -6 -108 -18 -180h-696zM666.001 711.999v-73h59v73c0 19.333 -9.66699 29 -29 29c-20 0 -30 -9.66699 -30 -29z" />
    <glyph glyph-name="f" unicode="f" horiz-adv-x="1071" 
d="M137 604l-134.002 -0.000976562v461h134v79c0 102.667 33.333 180.334 100 233.001s165.334 79 296.001 79c266.667 0 440.334 -8.33301 521.001 -25v-317h-167c-22 0 -33 -13 -33 -39v-10h203v-461h-203v-604h-717v604z" />
    <glyph glyph-name="g" unicode="g" horiz-adv-x="1326" 
d="M254 -484c-88 20 -152.499 51.1699 -193.499 93.5029s-61.5 98.166 -61.5 167.499v37c0 45.333 11.167 80.666 33.5 105.999s58.833 44 109.5 56c-46.667 19.333 -80.334 45.5 -101.001 78.5s-31 77.167 -31 132.5v8c0 54.667 8.33301 101.334 25 140.001
s44.334 75.334 83.001 110.001c-28.667 32.667 -49.167 68.167 -61.5 106.5s-18.5 84.5 -18.5 138.5v10c1.33301 96.667 21.666 174.5 60.999 233.5s100.5 102.333 183.5 130s191.833 41.5 326.5 41.5c77.333 0 143.333 -4 198 -12s105.334 -21.333 152.001 -40
c18.667 21.333 40.667 36.666 66 45.999s58 14 98 14h182l1 -342l-95 1c-1.33301 25.333 -6.5 44.666 -15.5 57.999s-23.167 22.333 -42.5 27c8.66699 -23.333 15 -47 19 -71s6 -52 6 -84v-12c0 -94.667 -19.5 -171 -58.5 -229s-100.167 -100.667 -183.5 -128
s-193 -41 -329 -41c-52.667 0 -98 2.66699 -136 8l-10 -11v-11c0 -10.667 6.66699 -18.834 20 -24.501s35.666 -9.16699 66.999 -10.5c37.333 -1.33301 64 -2 80 -2c60.667 0 120.334 4.66699 179.001 14c62 9.33301 116 14 162 14c115.333 0 199.666 -27.833 252.999 -83.5
s81 -143.167 83 -262.5v-10c0 -102 -24 -184.167 -72 -246.5s-123.5 -108 -226.5 -137s-238.167 -43.5 -405.5 -43.5c-143.333 0 -259 10 -347 30zM630.501 628.003c4.33301 4 7.16602 11.333 8.49902 22s2 27.667 2 51v3c0 23.333 -0.666992 40.333 -2 51s-4 18 -8 22
s-10.333 6 -19 6s-15.167 -2 -19.5 -6s-7.16602 -11.333 -8.49902 -22s-2 -27.667 -2 -51v-3c0 -23.333 0.666992 -40.333 2 -51s4 -18 8 -22s10.333 -6 19 -6s15.167 2 19.5 6zM635.001 -170.497c5.33301 7 8.00098 18.833 8.00098 35.5v4c-0.666992 24 -3 41.333 -7 52
s-10.333 16 -19 16l-35 -2v-73c0 -15.333 2.16699 -26.333 6.5 -33s11.5 -10 21.5 -10c11.333 0 19.666 3.5 24.999 10.5z" />
    <glyph glyph-name="h" unicode="h" horiz-adv-x="1415" 
d="M25 1359l721.999 -0.000976562v-283c44.667 10.667 85.334 18.167 122.001 22.5s81 6.5 133 6.5c98 0 174.167 -16.833 228.5 -50.5s93.333 -89.5 117 -167.5s35.5 -187 35.5 -327v-560h-657v549c0 38.667 -2.16699 65.334 -6.5 80.001s-11.833 22 -22.5 22
s-18 -7.5 -22 -22.5s-6 -42.5 -6 -82.5v-546h-644v1359z" />
    <glyph glyph-name="i" unicode="i" horiz-adv-x="773" 
d="M154.5 1067c-55 13.333 -94.332 35.666 -117.999 66.999s-35.5 74.666 -35.5 129.999c0 56 12 99.667 36 131s63.5 53.666 118.5 66.999s132.167 20 231.5 20s176.666 -6.66699 231.999 -20s95 -35.666 119 -66.999s36 -75 36 -131c0 -55.333 -12 -98.666 -36 -129.999
s-63.833 -53.666 -119.5 -66.999s-133.5 -20 -233.5 -20c-98.667 0 -175.5 6.66699 -230.5 20zM26.001 1043c123.333 -18 246.668 -26.999 370.001 -26.999c70 0 135.667 2.66699 197 8s112.666 11.666 153.999 18.999v-1043h-721v1043z" />
    <glyph glyph-name="j" unicode="j" horiz-adv-x="773" 
d="M154.5 1067c-55 13.333 -94.332 35.666 -117.999 66.999s-35.5 74.666 -35.5 129.999c0 56 12 99.667 36 131s63.5 53.666 118.5 66.999s132.167 20 231.5 20s176.666 -6.66699 231.999 -20s95 -35.666 119 -66.999s36 -75 36 -131c0 -55.333 -12 -98.666 -36 -129.999
s-63.833 -53.666 -119.5 -66.999s-133.5 -20 -233.5 -20c-98.667 0 -175.5 6.66699 -230.5 20zM-83.999 -43l41.002 0.00195312c27.333 0 45.666 4.66699 54.999 14s14 27.666 14 54.999v1017c123.333 -18 246.666 -27 369.999 -27c70 0 135.667 2.66699 197 8
s112.666 11.666 153.999 18.999v-983c0 -132.667 -21.167 -231.5 -63.5 -296.5s-106.666 -107.833 -192.999 -128.5s-209.833 -31 -370.5 -31h-204v353z" />
    <glyph glyph-name="k" unicode="k" horiz-adv-x="1518" 
d="M26 1360h734l-46 -663l23 7l63 361h697l-147 -479l162 -586h-712l-65 338l-21 6l19 -344h-707v1360z" />
    <glyph glyph-name="l" unicode="l" horiz-adv-x="773" 
d="M26 1360h721v-1360h-721v1360z" />
    <glyph glyph-name="m" unicode="m" horiz-adv-x="2123" 
d="M1993.5 972.5c69 -88.333 103.5 -219.166 103.5 -392.499v-580h-657v568c0 55.333 -10.333 83 -31 83c-17.333 0 -26 -28.333 -26 -85v-566h-657v568c0 55.333 -9.66699 83 -29 83c-18.667 0 -28 -27.667 -28 -83v-568h-644v1065h585l71 -103
c31.333 47.333 74 83 128 107s118.333 36 193 36c138.667 0 239.667 -53.333 303 -160l2 4c34 51.333 83 90.166 147 116.499s141.667 39.5 233 39.5c135.333 0 237.5 -44.167 306.5 -132.5z" />
    <glyph glyph-name="n" unicode="n" horiz-adv-x="1409" 
d="M25 1065l585.002 0.00195312l71 -103c27.333 41.333 68.166 75.5 122.499 102.5s120.5 40.5 198.5 40.5c133.333 0 230.166 -44.5 290.499 -133.5s90.5 -226.167 90.5 -411.5v-560h-657v549c0 32.667 -1.16699 56.167 -3.5 70.5s-5.33301 23.166 -9 26.499
s-9.16699 5 -16.5 5c-8.66699 0 -15 -3 -19 -9s-6.5 -15.833 -7.5 -29.5s-1.5 -35.834 -1.5 -66.501v-546h-644v1065z" />
    <glyph glyph-name="o" unicode="o" horiz-adv-x="1404" 
d="M191 100c-115.333 92.667 -173 230 -173 412v40c0 182 57.667 319.5 173 412.5s285.666 139.5 510.999 139.5s395.666 -46.333 510.999 -139s173 -230 173 -412v-41c0 -182 -57.667 -319.333 -173 -412s-285.666 -139 -510.999 -139s-395.666 46.333 -510.999 139z
M731 472v120c0 32.667 -9.66699 49 -29 49c-20 0 -30 -16.333 -30 -49v-120c0 -32.667 10 -49 30 -49c19.333 0 29 16.333 29 49z" />
    <glyph glyph-name="p" unicode="p" horiz-adv-x="1390" 
d="M1290.5 962.5c64.333 -97 96.5 -240.834 96.5 -431.501v-1c0 -189.333 -33.333 -332.333 -100 -429s-165.667 -145 -297 -145c-83.333 0 -178 19 -284 57v-308h-680v1360h602l63 -134c20.667 58.667 57.5 102.834 110.5 132.501s120.833 44.5 203.5 44.5
c126 0 221.167 -48.5 285.5 -145.5zM724 591.999c0 38.667 -10.333 58 -31 58c-18.667 0 -28 -19.667 -28 -59v-118c0 -40.667 10 -61 30 -61c12 0 21.667 6.66699 29 20v160z" />
    <glyph glyph-name="q" unicode="q" horiz-adv-x="1405" 
d="M1379 1065l0.00195312 -1358h-717v253l21 111c-54.667 -76.667 -148.334 -115 -281.001 -115c-126.667 0 -222.334 48.333 -287.001 145s-97 239.667 -97 429v1c0 189.333 41.5 332.333 124.5 429s206.167 145 369.5 145c165.333 0 308.333 -35 429 -105l42 65h396z
M740.002 592c0 38.667 -9.33301 58 -28 58c-12.667 0 -23 -6.33301 -31 -19v-158c0 -40.667 9.66699 -61 29 -61c20 0 30 20 30 60v120z" />
    <glyph glyph-name="r" unicode="r" horiz-adv-x="976" 
d="M25 1065h566l89 -83c33.333 65.333 86.333 98 159 98c47.333 0 89 -5 125 -15v-459h-72c-96.667 0 -145 -52.333 -145 -157v-449h-722v1065z" />
    <glyph glyph-name="s" unicode="s" horiz-adv-x="1264" 
d="M160.5 65c-94.333 72 -141.834 165 -142.501 279v4l590 -18v-6c0 -20 9 -30 27 -30c9.33301 0 16.5 2.33301 21.5 7s7.5 13.667 7.5 27c0 8 -3.5 14.5 -10.5 19.5s-15.167 8.16699 -24.5 9.5c-12 2.66699 -33.667 5 -65 7c-92 9.33301 -175 22.5 -249 39.5
s-141.333 50 -202 99s-91 118.5 -91 208.5v4c0 94 22 169.667 66 227s108.833 98.833 194.5 124.5s194.167 38.5 325.5 38.5c206 0 359.5 -32.333 460.5 -97s151.833 -161 152.5 -289v-3l-567 10v19c0 6 -2.5 11.5 -7.5 16.5s-11.833 7.5 -20.5 7.5
c-18.667 0 -28 -9 -28 -27c0 -10 3.66699 -18 11 -24s20 -10.667 38 -14c8.66699 -1.33301 33.334 -4 74.001 -8c91.333 -8 172.666 -20.667 243.999 -38s136 -53 194 -107s87 -132 87 -234v-4c0 -78.667 -24.667 -144.5 -74 -197.5s-118 -92.667 -206 -119
s-189.667 -39.5 -305 -39.5c-239.333 0 -406.166 36 -500.499 108z" />
    <glyph glyph-name="t" unicode="t" horiz-adv-x="996" 
d="M237 110.5c-66 73.667 -99 182.5 -99 326.5v176h-121v397l168 112l168 211l500 2v-270h127v-452h-129v-108c0 -31.333 12 -47 36 -47h91l1 -458h-450c-128.667 -0 -226 36.833 -292 110.5z" />
    <glyph glyph-name="u" unicode="u" horiz-adv-x="1382" 
d="M190 90.5c-113.333 86.333 -169.999 214.168 -169.999 383.501v591h642v-593c0 -32.667 10 -49 30 -49c19.333 0 29 16.333 29 49v593h641v-606c0 -164.667 -56.333 -288.834 -169 -372.501s-279.334 -125.5 -500.001 -125.5c-222 0 -389.667 43.167 -503 129.5z" />
    <glyph glyph-name="v" unicode="v" horiz-adv-x="1403" 
d="M-4 1065h670l15 -300l4 -194h32l3 194l16 300h671l-306 -1065h-800z" />
    <glyph glyph-name="w" unicode="w" horiz-adv-x="1979" 
d="M-4 1065h650l15 -300l4 -184h32l3 184l16 300h546l15 -300l4 -184h32l3 184l16 300h651l-306 -1065h-658l-15 443h-33l-10 -443h-660z" />
    <glyph glyph-name="x" unicode="x" horiz-adv-x="1515" 
d="M178 530l-160 535h708l22 -332h21l30 332h706l-165 -515l184 -550h-725l-24 319h-21l-28 -319h-727z" />
    <glyph glyph-name="y" unicode="y" horiz-adv-x="1403" 
d="M241 77h199.998c14.667 0 25.334 3.33301 32.001 10s10 18 10 34v9h-219l-268 935h670l15 -300l4 -194h32l3 194l16 300h671l-213 -1037c-31.333 -108 -72.166 -189.833 -122.499 -245.5s-105.333 -92.167 -165 -109.5s-129.5 -26 -209.5 -26h-456v430z" />
    <glyph glyph-name="z" unicode="z" horiz-adv-x="1204" 
d="M10 267l266 302h-244v496h1150l-1 -259l-265 -307h278v-499h-1184v267z" />
    <glyph glyph-name="braceleft" unicode="{" horiz-adv-x="970" 
d="M446.5 -328.5c-104.333 17 -181.5 60.665 -231.5 130.998s-75 187.166 -75 350.499v131c0 52 -3.16699 90.833 -9.5 116.5s-18.5 43.834 -36.5 54.501s-46 16 -84 16v423c38 0 66 5.33301 84 16s30.167 28.834 36.5 54.501s9.5 64.5 9.5 116.5v131
c0 163.333 25 280.166 75 350.499s127.167 114 231.5 131s275.833 25.5 514.5 25.5l4 -420c-36.667 0 -63.167 -7.66699 -79.5 -23s-24.5 -39 -24.5 -71v-236c0 -35.333 -4.5 -73.666 -13.5 -114.999s-23.667 -77.833 -44 -109.5s-46.166 -50.5 -77.499 -56.5v-11
c31.333 -6 57.166 -24.833 77.499 -56.5s35 -68.167 44 -109.5s13.5 -79.666 13.5 -114.999v-236c0 -32 8.16699 -55.667 24.5 -71s42.833 -23 79.5 -23l-4 -420c-238.667 0 -410.167 8.5 -514.5 25.5z" />
    <glyph glyph-name="bar" unicode="|" horiz-adv-x="788" 
d="M26 1689h736v-2012h-736v2012z" />
    <glyph glyph-name="braceright" unicode="}" horiz-adv-x="970" 
d="M10 66c36.667 0 63.167 7.66895 79.5 23.002s24.5 39 24.5 71v236c0 35.333 4.5 73.666 13.5 114.999s23.667 77.833 44 109.5s46.166 50.5 77.499 56.5v11c-31.333 6 -57.166 24.833 -77.499 56.5s-35 68.167 -44 109.5s-13.5 79.666 -13.5 114.999v236
c0 32 -8.16699 55.667 -24.5 71s-42.833 23 -79.5 23l4 420c238.667 0 410.167 -8.5 514.5 -25.5s181.5 -60.667 231.5 -131s75 -187.166 75 -350.499v-131c0 -52 3.16699 -90.833 9.5 -116.5s18.5 -43.834 36.5 -54.501s46 -16 84 -16v-423c-38 0 -66 -5.33301 -84 -16
s-30.167 -28.834 -36.5 -54.501s-9.5 -64.5 -9.5 -116.5v-131c0 -163.333 -25 -280.166 -75 -350.499s-127.167 -114 -231.5 -131s-275.833 -25.5 -514.5 -25.5z" />
    <glyph glyph-name="asciitilde" unicode="~" horiz-adv-x="850" 
d="M11 548v36c0 102.667 24.5 180.167 73.5 232.5s121.5 78.5 217.5 78.5c112.667 0 179 -25.667 199 -77l2 -5c10 -24 24.333 -36 43 -36c19.333 0 29 15 29 45v46l265 -1c0 -110.667 -0.333008 -173 -1 -187v-38c0 -100.667 -24.5 -176.667 -73.5 -228
s-121.5 -77 -217.5 -77c-106.667 0 -172.667 25.333 -198 76l-3 6c-12 24 -26.333 36 -43 36c-19.333 0 -29 -16 -29 -48v-43l-265 1c0 121.333 0.333008 182.333 1 183z" />
    <glyph glyph-name="exclamdown" unicode="&#xa1;" horiz-adv-x="762" 
d="M173 659c-50 20 -84.167 47.332 -102.5 81.999s-27.5 77 -27.5 127s9.33301 92.333 28 127s53 61.834 103 81.501s119.667 29.5 209 29.5s158.833 -10 208.5 -30s83.667 -47.333 102 -82s27.5 -76.667 27.5 -126c0 -50 -9 -92.333 -27 -127s-51.833 -62 -101.5 -82
s-119.5 -30 -209.5 -30s-160 10 -210 30zM26 437.999l85 169h544l86 -172v-730h-715v733z" />
    <glyph glyph-name="cent" unicode="&#xa2;" 
d="M725 513l654.999 -0.000976562c-5.33301 -171.333 -59.166 -303.333 -161.499 -396s-251.833 -144 -448.5 -154v-142h-163v143c-196.667 12 -345 66 -445 162s-150 232 -150 408v1c0 174.667 50 309.667 150 405s248.333 149 445 161v173h163v-172
c196 -10 345.5 -60.667 448.5 -152s156.833 -221.666 161.5 -390.999h-655v33c0 19.333 -9.66699 29 -29 29c-20 0 -30 -9.66699 -30 -29v-120c0 -19.333 10 -29 30 -29c19.333 0 29 9.66699 29 29v41z" />
    <glyph glyph-name="sterling" unicode="&#xa3;" horiz-adv-x="1300" 
d="M3 343c16 8 27.002 14.5 33.002 19.5s10.333 13.167 13 24.5s4 29 4 53v126h-43v163h41v232c0 108 22.167 193.667 66.5 257s113.166 109 206.499 137s216.666 42 369.999 42c181.333 0 325.166 -37.333 431.499 -112s160.5 -203.667 162.5 -387v-51h-547v10
c0 17.333 -2 30.833 -6 40.5s-12.333 14.5 -25 14.5c-13.333 0 -21.666 -5.33301 -24.999 -16s-5 -27 -5 -49l-1 -118h473v-163h-472v-107h605v-459h-1282v343z" />
    <glyph glyph-name="currency" unicode="&#xa4;" horiz-adv-x="1531" 
d="M7 392l188 184c-4 29.333 -6 59.333 -6 90v10c0.666992 34 3.33398 64 8.00098 90l-192 186l519 407l158 -152c34.667 3.33301 62.667 5 84 5c23.333 0 51.666 -1.66699 84.999 -5l158 152l517 -409l-187 -180c4.66699 -30.667 7.66699 -62 9 -94v-10
c0 -28.667 -2.66699 -61 -8 -97l186 -177l-519 -407l-149 142c-38.667 -3.33301 -70.334 -5 -95.001 -5c-25.333 0 -55.666 1.66699 -90.999 5l-148 -144zM820 667v4c0 25.333 -17.667 38 -53 38c-34.667 0 -52 -13 -52 -39v-3c0 -28.667 17.667 -43 53 -43
c34.667 0 52 14.333 52 43z" />
    <glyph glyph-name="yen" unicode="&#xa5;" horiz-adv-x="1531" 
d="M141 711h119l-278 650l744 -1l19 -598l26 1l18 597l760 1l-278 -648h111v-155h-1241v153zM398 357h-257v155l1239 2v-157h-246l1 -357h-737v357z" />
    <glyph glyph-name="brokenbar" unicode="&#xa6;" horiz-adv-x="784" 
d="M26 1689h736v-976h-736v976zM26 657h736v-980h-736v980z" />
    <glyph glyph-name="section" unicode="&#xa7;" horiz-adv-x="1418" 
d="M751 1087l-0.000976562 12.001c-2 18.667 -12 28 -30 28c-9.33301 0 -16.5 -3 -21.5 -9s-7.5 -12.333 -7.5 -19c0 -3.33301 2.16699 -7.66602 6.5 -12.999s10.5 -8.66602 18.5 -9.99902c15.333 -2.66699 39 -5.66699 71 -9c101.333 -10 193.5 -25.333 276.5 -46
s158.167 -61 225.5 -121s101 -145 101 -255v-4c0 -52 -10.167 -95 -30.5 -129s-50.833 -61.333 -91.5 -82c78 -68 117 -166.667 117 -296v-5c0 -95.333 -27.667 -175.5 -83 -240.5s-131.666 -113.5 -228.999 -145.5s-209.666 -48 -336.999 -48c-268 0 -454 43.667 -558 131
s-156.333 201 -157 341v5h645v-12c2 -18.667 12 -28 30 -28c9.33301 0 16.5 3 21.5 9s7.5 12.333 7.5 19c0 3.33301 -2.16699 7.66602 -6.5 12.999s-10.5 8.66602 -18.5 9.99902s-31 4 -69 8c-101.333 10 -193.666 25.333 -276.999 46s-158.833 61 -226.5 121
s-101.5 145.333 -101.5 256v4c0 51.333 10.167 94.166 30.5 128.499s50.5 61.833 90.5 82.5c-77.333 67.333 -116 166 -116 296v5c0 95.333 27.667 175.5 83 240.5s131.666 113.5 228.999 145.5s209.666 48 336.999 48c268 0 454 -43.667 558 -131s156.333 -201 157 -341v-5
h-645zM734.999 668.001c-2.66699 26 -6 42.667 -10 50s-9.66699 11 -17 11h-21c-5.33301 -6.66699 -8 -13.334 -8 -20.001c0 -52.667 1.33301 -92 4 -118s6 -42.667 10 -50s9.66699 -11 17 -11h21c5.33301 6.66699 8 13.334 8 20.001c0 52.667 -1.33301 92 -4 118z" />
    <glyph glyph-name="dieresis" unicode="&#xa8;" horiz-adv-x="797" 
d="M42 1148c-30.667 26 -46 68.667 -46 128c0 58.667 15.167 101 45.5 127s79.833 39 148.5 39c71.333 0 122.5 -13 153.5 -39s46.5 -68.333 46.5 -127c0 -59.333 -15.5 -102 -46.5 -128s-81.5 -39 -151.5 -39c-69.333 0 -119.333 13 -150 39zM455 1148
c-30.667 26 -46 68.667 -46 128c0 58.667 15.167 101 45.5 127s79.833 39 148.5 39c71.333 0 122.5 -13 153.5 -39s46.5 -68.333 46.5 -127c0 -59.333 -15.5 -102 -46.5 -128s-81.5 -39 -151.5 -39c-69.333 0 -119.333 13 -150 39z" />
    <glyph glyph-name="copyright" unicode="&#xa9;" horiz-adv-x="1775" 
d="M430.5 -160c-131.667 65.333 -233.667 157.5 -306 276.5s-108.5 256.5 -108.5 412.5v10c0 157.333 36.167 296 108.5 416s174.333 213 306 279s283.834 99 456.501 99s324.834 -33 456.501 -99s233.834 -159 306.501 -279s109 -258.667 109 -416v-11
c0 -156 -36.333 -293.333 -109 -412s-174.834 -210.667 -306.501 -276s-283.834 -98 -456.501 -98s-324.834 32.667 -456.501 98zM1274.5 -61c112.333 56 200 135 263 237s95.5 219.667 97.5 353v10c0 134.667 -31.167 253.5 -93.5 356.5s-150 182.833 -263 239.5
s-243.5 85 -391.5 85s-278.5 -28.333 -391.5 -85s-200.5 -136.5 -262.5 -239.5s-93 -221.833 -93 -356.5v-10c1.33301 -133.333 33.5 -251 96.5 -353s150.667 -181 263 -237s241.5 -84 387.5 -84s275.167 28 387.5 84zM592 91.5
c-86.667 36.333 -155.17 91.9971 -205.503 166.997s-75.5 168.167 -75.5 279.5v1c0 110.667 25.167 203.334 75.5 278.001s118.833 130 205.5 166s185 54 295 54c106.667 0 202.834 -17.167 288.501 -51.5s154.334 -87.166 206.001 -158.499s79.167 -160.333 82.5 -267h-552
v29c0 7.33301 -2.33301 13.333 -7 18s-10.667 7 -18 7s-13.333 -2.33301 -18 -7s-7 -10.667 -7 -18v-105c0 -7.33301 2.5 -13.5 7.5 -18.5s10.833 -7.5 17.5 -7.5s12.5 2.5 17.5 7.5s7.5 11.167 7.5 18.5v36h552c-3.33301 -106.667 -30.666 -196.167 -81.999 -268.5
s-120 -126.166 -206 -161.499s-182.333 -53 -289 -53c-110 0 -208.333 18.167 -295 54.5z" />
    <glyph glyph-name="ordfeminine" unicode="&#xaa;" horiz-adv-x="987" 
d="M78 808.5c-42 31 -63.001 82.165 -63.001 153.498v9c0 42.667 12.833 77 38.5 103s65.834 45.167 120.501 57.5s126.667 18.5 216 18.5c86 0 130 -0.333008 132 -1v33c0 13.333 -2.5 23 -7.5 29s-13.167 9 -24.5 9c-6.66699 0 -11.5 -3.16699 -14.5 -9.5
s-4.5 -16.833 -4.5 -31.5v-12h-410v24c0 54.667 15 98.834 45 132.501s76.833 58.334 140.5 74.001s147.5 23.5 251.5 23.5c110.667 0 200 -8 268 -24s118 -41.167 150 -75.5s48 -79.5 48 -135.5v-404h-426l-41 71c-24.667 -32.667 -53.667 -56 -87 -70
s-75.333 -21 -126 -21c-95.333 0 -164 15.5 -206 46.5zM515.499 955.998c4.33301 4 6.5 10.333 6.5 19v67h-14c-13.333 0 -22.833 -4 -28.5 -12s-8.5 -21 -8.5 -39v-18c0 -15.333 7.66699 -23 23 -23c10 0 17.167 2 21.5 6z" />
    <glyph glyph-name="guillemotleft" unicode="&#xab;" horiz-adv-x="1512" 
d="M-5 596l242 476l591 -50l-229 -426l230 -425l-592 -52zM674 596l242 476l591 -50l-229 -426l230 -425l-592 -52z" />
    <glyph glyph-name="logicalnot" unicode="&#xac;" horiz-adv-x="1298" 
d="M773 371h-748v463h1248v-672h-500v209z" />
    <glyph glyph-name="uni00AD" unicode="&#xad;" horiz-adv-x="898" 
d="M25 836h851v-465h-851v465z" />
    <glyph glyph-name="registered" unicode="&#xae;" horiz-adv-x="1775" 
d="M430.5 -160c-131.667 65.333 -233.667 157.5 -306 276.5s-108.5 256.5 -108.5 412.5v10c0 157.333 36.167 296 108.5 416s174.333 213 306 279s283.834 99 456.501 99s324.834 -33 456.501 -99s233.834 -159 306.501 -279s109 -258.667 109 -416v-11
c0 -156 -36.333 -293.333 -109 -412s-174.834 -210.667 -306.501 -276s-283.834 -98 -456.501 -98s-324.834 32.667 -456.501 98zM1274.5 -61c112.333 56 200 135 263 237s95.5 219.667 97.5 353v10c0 134.667 -31.167 253.5 -93.5 356.5s-150 182.833 -263 239.5
s-243.5 85 -391.5 85s-278.5 -28.333 -391.5 -85s-200.5 -136.5 -262.5 -239.5s-93 -221.833 -93 -356.5v-10c1.33301 -133.333 33.5 -251 96.5 -353s150.667 -181 263 -237s241.5 -84 387.5 -84s275.167 28 387.5 84zM381 991h490.001c116.667 0 211.667 -8 285 -24
s130.666 -48 171.999 -96s62 -118 62 -210v-6c-2 -97.333 -33 -171.333 -93 -222l87 -307h-475l-10 207h-33v-207h-485v865zM881.001 605c10.667 0 17.667 2.5 21 7.5s5 15.167 5 30.5v4c0 15.333 -1.66699 25.5 -5 30.5s-11 7.5 -23 7.5h-12v-80h14z" />
    <glyph glyph-name="macron" unicode="&#xaf;" horiz-adv-x="800" 
d="M32 1404h736v-295h-736v295z" />
    <glyph glyph-name="degree" unicode="&#xb0;" horiz-adv-x="878" 
d="M225 763c-63.333 28 -113.498 70.833 -150.498 128.5s-55.5 129.167 -55.5 214.5v5c0.666992 84 19.5 154.333 56.5 211s87 98.667 150 126s134.5 41 214.5 41c79.333 0 150.666 -13.667 213.999 -41s113.666 -69.166 150.999 -125.499s56 -126.5 56 -210.5v-6
c0 -84.667 -18.5 -155.834 -55.5 -213.501s-87.167 -100.667 -150.5 -129s-135 -42.5 -215 -42.5s-151.667 14 -215 42zM468.002 1080v49c0 19.333 -9.33301 29 -28 29s-28 -9.66699 -28 -29v-49c0 -19.333 9.33301 -29 28 -29s28 9.66699 28 29z" />
    <glyph glyph-name="plusminus" unicode="&#xb1;" horiz-adv-x="904" 
d="M219 622h-193v465h193v192h465v-192h193v-465h-193v-184h-465v184zM25 409h851v-465h-851v465z" />
    <glyph glyph-name="uni00B2" unicode="&#xb2;" horiz-adv-x="946" 
d="M16 1027c129.333 57.333 219.499 98.6689 270.499 124.002s86.333 47.166 106 65.499s30.834 40.5 33.501 66.5v10c0 8 -2.5 14.333 -7.5 19s-11.167 7 -18.5 7c-19.333 0 -29 -13 -29 -39c0 -5.33301 0.333008 -9.66602 1 -12.999c0 -4 0.333008 -7 1 -9h-354v9
c0.666992 56 11.5 105.667 32.5 149s63.167 79.666 126.5 108.999s154.333 44 273 44c106.667 0 195.167 -12 265.5 -36s122.333 -56 156 -96s51.5 -84.333 53.5 -133v-8c0 -38.667 -11.333 -74.5 -34 -107.5s-55 -60.833 -97 -83.5s-91.333 -38.334 -148 -47.001l2 -28
c38.667 0 83.5 4.83301 134.5 14.5s99.833 21.167 146.5 34.5v-297h-914v245z" />
    <glyph glyph-name="uni00B3" unicode="&#xb3;" horiz-adv-x="991" 
d="M805 1205.5c56 -9 99.667 -26.834 131 -53.501s47 -66 47 -118v-4c0 -89.333 -42.333 -156.833 -127 -202.5s-210 -68.5 -376 -68.5c-154.667 0 -271.5 22.333 -350.5 67s-118.833 111.334 -119.5 200.001v-6c0.666992 0 1 9.66699 1 29h449v-11c-2 -28.667 6 -43 24 -43
c17.333 0 26 14.333 26 43v5c0 28.667 -13.667 43 -41 43h-349v179l406 33l2 10l-453 -3v241h828v-290l-319 -37c91.333 0 165 -4.5 221 -13.5zM10 1028v-1v1zM10 1027v-1v1z" />
    <glyph glyph-name="acute" unicode="&#xb4;" horiz-adv-x="684" 
d="M109 1404h569l-174 -296h-495z" />
    <glyph glyph-name="uni00B5" unicode="&#xb5;" horiz-adv-x="1402" 
d="M25 1043l643.998 0.00195312v-546c0 -30.667 0.5 -52.834 1.5 -66.501s3.5 -23.5 7.5 -29.5s10.333 -9 19 -9c7.33301 0 12.833 1.66699 16.5 5s6.66699 12.166 9 26.499s3.5 37.833 3.5 70.5v549h657v-560c0 -185.333 -30.167 -322.5 -90.5 -411.5
s-157.166 -133.5 -290.499 -133.5c-64.667 0 -113.167 2.16699 -145.5 6.5s-57.166 8.83301 -74.499 13.5s-29 7.66699 -35 9v-283h-722v1359z" />
    <glyph glyph-name="paragraph" unicode="&#xb6;" horiz-adv-x="1718" 
d="M428 479c-90 -0.666992 -166 16.502 -228 51.502s-108.833 85.5 -140.5 151.5s-47.5 144.667 -47.5 236c0 89.333 16.167 167.166 48.5 233.499s80.5 117.666 144.5 153.999s141.667 54.5 233 54.5h539v-1596h-545zM1033 1360l661 -1v-521h-93v-1074h-568v1596z" />
    <glyph glyph-name="periodcentered" unicode="&#xb7;" horiz-adv-x="676" 
d="M134.5 377c-48.333 15.333 -82.998 40.833 -103.998 76.5s-31.5 85.5 -31.5 149.5s10.5 113.833 31.5 149.5s55.667 61.167 104 76.5s116.166 23 203.499 23s155.166 -7.66699 203.499 -23s83 -40.833 104 -76.5s31.5 -85.5 31.5 -149.5s-10.5 -113.833 -31.5 -149.5
s-55.833 -61.167 -104.5 -76.5s-116.667 -23 -204 -23c-86.667 0 -154.167 7.66699 -202.5 23z" />
    <glyph glyph-name="cedilla" unicode="&#xb8;" horiz-adv-x="741" 
d="M90 -650l56 272.001c24 -6.66699 52 -10 84 -10c42.667 0 64 8.33301 64 25l-1 6c0 16 -45.667 25.667 -137 29l68 352l369 -3l-39 -148c68.667 -20.667 120.334 -53.334 155.001 -98.001s52 -100.334 52 -167.001v-8c0 -101.333 -31.333 -177.666 -94 -228.999
s-155.334 -77 -278.001 -77c-132 0 -231.667 18.667 -299 56z" />
    <glyph glyph-name="uni00B9" unicode="&#xb9;" horiz-adv-x="629" 
d="M117 1236l-101 -26l-3 288l191 49h403v-765h-500z" />
    <glyph glyph-name="ordmasculine" unicode="&#xba;" horiz-adv-x="984" 
d="M215 791c-70.667 22 -122.5 56.334 -155.5 103.001s-49.5 108 -49.5 184v23c0 76 16.5 137.333 49.5 184s84.833 81 155.5 103s163.334 33 278.001 33s207.334 -10.833 278.001 -32.5s122.5 -55.834 155.5 -102.501s49.5 -108 49.5 -184v-24
c0 -76 -16.5 -137.333 -49.5 -184s-84.833 -81 -155.5 -103s-163.334 -33 -278.001 -33s-207.334 11 -278.001 33zM508.5 1032.5c3 4.33301 4.5 11.833 4.5 22.5v69c0 10.667 -1.5 18.167 -4.5 22.5s-8.16699 6.5 -15.5 6.5s-12.666 -2.16699 -15.999 -6.5
s-5 -11.833 -5 -22.5v-69c0 -10.667 1.66699 -18.167 5 -22.5s8.66602 -6.5 15.999 -6.5s12.5 2.16699 15.5 6.5z" />
    <glyph glyph-name="guillemotright" unicode="&#xbb;" horiz-adv-x="1510" 
d="M2 171l230 425l-229 426l591 50l242 -476l-242 -477zM676 171l230 425l-229 426l591 50l242 -476l-242 -477z" />
    <glyph glyph-name="onequarter" unicode="&#xbc;" horiz-adv-x="1030" 
d="M287 1189l-101 -26l-3 288l191 49h403v-765h-500zM23 686h985v-53h-985v53zM445 -89h-415v252l212 426h701l3 -426h59v-253l-59 1v-86h-501v86zM475 163l15 184h-35l-34 -184h54z" />
    <glyph glyph-name="onehalf" unicode="&#xbd;" horiz-adv-x="1027" 
d="M287 1189l-101 -26l-3 288l191 49h403v-765h-500zM23 686h985v-53h-985v53zM58 61c129.333 57.333 219.499 98.6689 270.499 124.002s86.333 47.166 106 65.499s30.834 40.5 33.501 66.5v10c0 8 -2.5 14.333 -7.5 19s-11.167 7 -18.5 7c-19.333 0 -29 -13 -29 -39
c0 -5.33301 0.333008 -9.66602 1 -12.999c0 -4 0.333008 -7 1 -9h-354v9c0.666992 56 11.5 105.667 32.5 149s63.167 79.666 126.5 108.999s154.333 44 273 44c106.667 0 195.167 -12 265.5 -36s122.333 -56 156 -96s51.5 -84.333 53.5 -133v-8
c0 -38.667 -11.333 -74.5 -34 -107.5s-55 -60.833 -97 -83.5s-91.333 -38.334 -148 -47.001l2 -28c38.667 0 83.5 4.83301 134.5 14.5s99.833 21.167 146.5 34.5v-297h-914v245z" />
    <glyph glyph-name="questiondown" unicode="&#xbf;" horiz-adv-x="1305" 
d="M847 1081.5c49.333 -16.333 85.666 -41.833 108.999 -76.5s35 -80.334 35 -137.001s-11.667 -102.5 -35 -137.5s-59.666 -60.667 -108.999 -77s-114 -24.5 -194 -24.5c-80.667 0 -145.834 8.16699 -195.501 24.5s-86.167 42 -109.5 77s-35 80.833 -35 137.5
s11.667 102.334 35 137.001s59.833 60.167 109.5 76.5s114.834 24.5 195.501 24.5c80 0 144.667 -8.16699 194 -24.5zM955 550l48.001 -101.998c12 -26.667 18 -51.667 18 -75c0 -48 -25 -88.167 -75 -120.5s-134.333 -48.5 -253 -48.5c-24 0 -37 -18 -39 -54v-7
c2 -34 12.333 -51 31 -51c24.667 0 37 15.667 37 47v26h571v-13c4 -164.667 -49 -288.834 -159 -372.501s-274.667 -125.5 -494 -125.5c-208 0 -365.167 38.333 -471.5 115s-159.5 190 -159.5 340v13c1.33301 56 12 102.167 32 138.5s43.5 64.5 70.5 84.5
s61.167 40.333 102.5 61c31.333 16 55.666 30.167 72.999 42.5s30.333 27.166 39 44.499l27 56l27 58h544z" />
    <glyph glyph-name="Agrave" unicode="&#xc0;" horiz-adv-x="1549" 
d="M820 77h-90l-3 -77h-736l403 1360h760l404 -1360h-734zM798 449l-16 288h-22l-13 -288h51zM356 1699h569l100 -296h-495z" />
    <glyph glyph-name="Aacute" unicode="&#xc1;" horiz-adv-x="1549" 
d="M820 77h-90l-3 -77h-736l403 1360h760l404 -1360h-734zM798 449l-16 288h-22l-13 -288h51zM601 1699h569l-174 -296h-495z" />
    <glyph glyph-name="Acircumflex" unicode="&#xc2;" horiz-adv-x="1549" 
d="M820 77h-90l-3 -77h-736l403 1360h760l404 -1360h-734zM798 449l-16 288h-22l-13 -288h51zM355 1404l131 254h571l131 -254l-384 -1l-33 103l-32 -103z" />
    <glyph glyph-name="Atilde" unicode="&#xc3;" horiz-adv-x="1549" 
d="M820 77h-90l-3 -77h-736l403 1360h760l404 -1360h-734zM798 449l-16 288h-22l-13 -288h51zM359 1471c0 66.667 10.665 117.333 31.998 152s52.5 58.167 93.5 70.5s96.167 18.5 165.5 18.5c112.667 0 179 -25.667 199 -77l2 -5c10 -24 24.333 -36 43 -36
c19.333 0 29 15 29 45v46l265 -1l-1 -35c0 -65.333 -10.667 -115.833 -32 -151.5s-52.666 -60.167 -93.999 -73.5s-96.333 -20 -165 -20c-55.333 0 -99.166 5 -131.499 15s-54.5 27 -66.5 51l-3 6c-12 24 -26.333 36 -43 36c-19.333 0 -29 -16 -29 -48v-43l-265 11z" />
    <glyph glyph-name="Adieresis" unicode="&#xc4;" horiz-adv-x="1549" 
d="M820 77h-90l-3 -77h-736l403 1360h760l404 -1360h-734zM798 449l-16 288h-22l-13 -288h51zM412 1443c-30.667 26 -46 68.667 -46 128c0 58.667 15.167 101 45.5 127s79.833 39 148.5 39c71.333 0 122.5 -13 153.5 -39s46.5 -68.333 46.5 -127
c0 -59.333 -15.5 -102 -46.5 -128s-81.5 -39 -151.5 -39c-69.333 0 -119.333 13 -150 39zM825 1443c-30.667 26 -46 68.667 -46 128c0 58.667 15.167 101 45.5 127s79.833 39 148.5 39c71.333 0 122.5 -13 153.5 -39s46.5 -68.333 46.5 -127
c0 -59.333 -15.5 -102 -46.5 -128s-81.5 -39 -151.5 -39c-69.333 0 -119.333 13 -150 39z" />
    <glyph glyph-name="Aring" unicode="&#xc5;" horiz-adv-x="1549" 
d="M820 77h-90l-3 -77h-736l403 1360h760l404 -1360h-734zM798 449l-16 288h-22l-13 -288h51zM541 1458.5c-52 35.667 -78.001 88.5 -78.001 158.5v3c0 71.333 26.333 125.333 79 162s130.334 55 233.001 55c100 0 175.667 -18.333 227 -55s77 -90.667 77 -162v-3
c0 -70 -26 -122.833 -78 -158.5s-128.667 -53.5 -230 -53.5s-178 17.833 -230 53.5zM816.999 1619v3c0 16.667 -15.667 25 -47 25c-32 0 -48 -8.66699 -48 -26v-2c0 -18 16 -27 48 -27c31.333 0 47 9 47 27z" />
    <glyph glyph-name="AE" unicode="&#xc6;" horiz-adv-x="1998" 
d="M475 1360h1485v-473h-385v-48h308v-333h-308v-47h394v-459h-1130v88h-89l-9 -88h-736zM839 460v278h-22l-7 -68l-23 -210h52z" />
    <glyph glyph-name="Ccedilla" unicode="&#xc7;" horiz-adv-x="1609" 
d="M832 651h760.999c-6 -200 -60.667 -357 -164 -471s-253.666 -183.667 -450.999 -209l-25 -94c68.667 -20.667 120.334 -53.334 155.001 -98.001s52 -100.334 52 -167.001v-8c0 -101.333 -31.333 -177.666 -94 -228.999s-155.334 -77 -278.001 -77
c-132 0 -231.667 18.667 -299 56l56 272c24 -6.66699 52 -10 84 -10c42.667 0 64 8.33301 64 25l-1 6c0 16 -45.667 25.667 -137 29l57 298c-197.333 27.333 -346 100.5 -446 219.5s-150 281.833 -150 488.5v1c0 236.667 66.333 415.334 199 536.001s329 181 589 181
c254 0 447.5 -58 580.5 -174s202.5 -287.667 208.5 -515l-761 -1v73c0 19.333 -9.66699 29 -29 29c-20 0 -30 -9.66699 -30 -29v-200c0 -19.333 10 -29 30 -29c19.333 0 29 9.66699 29 29v68z" />
    <glyph glyph-name="Egrave" unicode="&#xc8;" horiz-adv-x="1175" 
d="M26 1360h1121v-473h-375v-48h298v-333h-298v-47h384v-459h-1130v1360zM176 1699h569l100 -296h-495z" />
    <glyph glyph-name="Eacute" unicode="&#xc9;" horiz-adv-x="1175" 
d="M26 1360h1121v-473h-375v-48h298v-333h-298v-47h384v-459h-1130v1360zM421 1699h569l-174 -296h-495z" />
    <glyph glyph-name="Ecircumflex" unicode="&#xca;" horiz-adv-x="1175" 
d="M26 1360h1121v-473h-375v-48h298v-333h-298v-47h384v-459h-1130v1360zM175 1404l131 294h571l131 -294l-384 -1l-33 103l-32 -103z" />
    <glyph glyph-name="Edieresis" unicode="&#xcb;" horiz-adv-x="1175" 
d="M26 1360h1121v-473h-375v-48h298v-333h-298v-47h384v-459h-1130v1360zM232 1443c-30.667 26 -46 68.667 -46 128c0 58.667 15.167 101 45.5 127s79.833 39 148.5 39c71.333 0 122.5 -13 153.5 -39s46.5 -68.333 46.5 -127c0 -59.333 -15.5 -102 -46.5 -128
s-81.5 -39 -151.5 -39c-69.333 0 -119.333 13 -150 39zM645 1443c-30.667 26 -46 68.667 -46 128c0 58.667 15.167 101 45.5 127s79.833 39 148.5 39c71.333 0 122.5 -13 153.5 -39s46.5 -68.333 46.5 -127c0 -59.333 -15.5 -102 -46.5 -128s-81.5 -39 -151.5 -39
c-69.333 0 -119.333 13 -150 39z" />
    <glyph glyph-name="Igrave" unicode="&#xcc;" horiz-adv-x="788" 
d="M26 1360h736v-1360h-736v1360zM-23 1699h569l100 -296h-495z" />
    <glyph glyph-name="Iacute" unicode="&#xcd;" horiz-adv-x="788" 
d="M26 1360h736v-1360h-736v1360zM222 1699h569l-174 -296h-495z" />
    <glyph glyph-name="Icircumflex" unicode="&#xce;" horiz-adv-x="788" 
d="M26 1360h736v-1360h-736v1360zM-24 1404l131 294h571l131 -294l-384 -1l-33 103l-32 -103z" />
    <glyph glyph-name="Idieresis" unicode="&#xcf;" horiz-adv-x="788" 
d="M26 1360h736v-1360h-736v1360zM33 1443c-30.667 26 -46 68.667 -46 128c0 58.667 15.167 101 45.5 127s79.833 39 148.5 39c71.333 0 122.5 -13 153.5 -39s46.5 -68.333 46.5 -127c0 -59.333 -15.5 -102 -46.5 -128s-81.5 -39 -151.5 -39c-69.333 0 -119.333 13 -150 39z
M446 1443c-30.667 26 -46 68.667 -46 128c0 58.667 15.167 101 45.5 127s79.833 39 148.5 39c71.333 0 122.5 -13 153.5 -39s46.5 -68.333 46.5 -127c0 -59.333 -15.5 -102 -46.5 -128s-81.5 -39 -151.5 -39c-69.333 0 -119.333 13 -150 39z" />
    <glyph glyph-name="Eth" unicode="&#xd0;" horiz-adv-x="1599" 
d="M1201.5 1287c116.333 -48.667 208.999 -123.668 277.999 -225.001s103.5 -227.666 103.5 -378.999v-4c0 -141.333 -29.833 -262.833 -89.5 -364.5s-147.167 -179.5 -262.5 -233.5s-254.666 -81 -417.999 -81h-744v480h-52v373h52v507h741
c144.667 0 275.167 -24.333 391.5 -73zM846.999 682.999c0 72 -0.666992 120.667 -2 146s-4.5 42.166 -9.5 50.499s-14.167 12.5 -27.5 12.5h-19v-426h19c13.333 0 22.5 4.16699 27.5 12.5s8.16699 25.333 9.5 51s2 74.834 2 147.501v6z" />
    <glyph glyph-name="Ntilde" unicode="&#xd1;" horiz-adv-x="1521" 
d="M26 1360h773l32 -131l88 -358l33 3l-84 486h627v-1360h-774l-32 123l-111 501h-33l100 -624h-619v1360zM363 1481c0.666992 0 1 -10 1 -30c0 102.667 24.5 180.167 73.5 232.5s121.5 78.5 217.5 78.5c112.667 0 179 -25.667 199 -77l2 -5c10 -24 24.333 -36 43 -36
c19.333 0 29 15 29 45v46l265 -1v-68c-0.666992 0 -1 7.66699 -1 23c0 -100.667 -24.5 -176.667 -73.5 -228s-121.5 -77 -217.5 -77c-106.667 0 -172.667 25.333 -198 76l-3 6c-12 24 -26.333 36 -43 36c-19.333 0 -29 -16 -29 -48v-43l-265 1v69z" />
    <glyph glyph-name="Ograve" unicode="&#xd2;" horiz-adv-x="1610" 
d="M215 1219c132.667 120.667 329.334 181 590.001 181s457.334 -60.333 590.001 -181s199 -299.334 199 -536.001c0 -238 -66.333 -417.833 -199 -539.5s-329.334 -182.5 -590.001 -182.5s-457.334 60.833 -590.001 182.5s-199 301.5 -199 539.5
c0 236.667 66.333 415.334 199 536.001zM805 554c18.667 0 28 9.66699 28 29v200c0 19.333 -9.33301 29 -28 29s-28 -9.66699 -28 -29v-200c0 -19.333 9.33301 -29 28 -29zM390 1739h569l100 -296h-495z" />
    <glyph glyph-name="Oacute" unicode="&#xd3;" horiz-adv-x="1610" 
d="M215 1219c132.667 120.667 329.334 181 590.001 181s457.334 -60.333 590.001 -181s199 -299.334 199 -536.001c0 -238 -66.333 -417.833 -199 -539.5s-329.334 -182.5 -590.001 -182.5s-457.334 60.833 -590.001 182.5s-199 301.5 -199 539.5
c0 236.667 66.333 415.334 199 536.001zM805 554c18.667 0 28 9.66699 28 29v200c0 19.333 -9.33301 29 -28 29s-28 -9.66699 -28 -29v-200c0 -19.333 9.33301 -29 28 -29zM635 1739h569l-174 -296h-495z" />
    <glyph glyph-name="Ocircumflex" unicode="&#xd4;" horiz-adv-x="1610" 
d="M215 1219c132.667 120.667 329.334 181 590.001 181s457.334 -60.333 590.001 -181s199 -299.334 199 -536.001c0 -238 -66.333 -417.833 -199 -539.5s-329.334 -182.5 -590.001 -182.5s-457.334 60.833 -590.001 182.5s-199 301.5 -199 539.5
c0 236.667 66.333 415.334 199 536.001zM805 554c18.667 0 28 9.66699 28 29v200c0 19.333 -9.33301 29 -28 29s-28 -9.66699 -28 -29v-200c0 -19.333 9.33301 -29 28 -29zM389 1444l131 254h571l131 -254l-384 -1l-33 103l-32 -103z" />
    <glyph glyph-name="Otilde" unicode="&#xd5;" horiz-adv-x="1610" 
d="M215 1219c132.667 120.667 329.334 181 590.001 181s457.334 -60.333 590.001 -181s199 -299.334 199 -536.001c0 -238 -66.333 -417.833 -199 -539.5s-329.334 -182.5 -590.001 -182.5s-457.334 60.833 -590.001 182.5s-199 301.5 -199 539.5
c0 236.667 66.333 415.334 199 536.001zM805 554c18.667 0 28 9.66699 28 29v200c0 19.333 -9.33301 29 -28 29s-28 -9.66699 -28 -29v-200c0 -19.333 9.33301 -29 28 -29zM389 1521c0.666992 0 1 -10 1 -30c0 102.667 24.5 180.167 73.5 232.5s121.5 78.5 217.5 78.5
c112.667 0 179 -25.667 199 -77l2 -5c10 -24 24.333 -36 43 -36c19.333 0 29 15 29 45v46l265 -1v-68c-0.666992 0 -1 7.66699 -1 23c0 -100.667 -24.5 -176.667 -73.5 -228s-121.5 -77 -217.5 -77c-106.667 0 -172.667 25.333 -198 76l-3 6c-12 24 -26.333 36 -43 36
c-19.333 0 -29 -16 -29 -48v-43l-265 1v69z" />
    <glyph glyph-name="Odieresis" unicode="&#xd6;" horiz-adv-x="1610" 
d="M215 1219c132.667 120.667 329.334 181 590.001 181s457.334 -60.333 590.001 -181s199 -299.334 199 -536.001c0 -238 -66.333 -417.833 -199 -539.5s-329.334 -182.5 -590.001 -182.5s-457.334 60.833 -590.001 182.5s-199 301.5 -199 539.5
c0 236.667 66.333 415.334 199 536.001zM805 554c18.667 0 28 9.66699 28 29v200c0 19.333 -9.33301 29 -28 29s-28 -9.66699 -28 -29v-200c0 -19.333 9.33301 -29 28 -29zM446 1483c-30.667 26 -46 68.667 -46 128c0 58.667 15.167 101 45.5 127s79.833 39 148.5 39
c71.333 0 122.5 -13 153.5 -39s46.5 -68.333 46.5 -127c0 -59.333 -15.5 -102 -46.5 -128s-81.5 -39 -151.5 -39c-69.333 0 -119.333 13 -150 39zM859 1483c-30.667 26 -46 68.667 -46 128c0 58.667 15.167 101 45.5 127s79.833 39 148.5 39c71.333 0 122.5 -13 153.5 -39
s46.5 -68.333 46.5 -127c0 -59.333 -15.5 -102 -46.5 -128s-81.5 -39 -151.5 -39c-69.333 0 -119.333 13 -150 39z" />
    <glyph glyph-name="multiply" unicode="&#xd7;" horiz-adv-x="944" 
d="M18 401l151 151l-151 151l301 301l150 -151l150 150l301 -300l-150 -150l151 -151l-301 -300l-151 150l-151 -151z" />
    <glyph glyph-name="Oslash" unicode="&#xd8;" horiz-adv-x="1614" 
d="M1594 683c0 -238 -66.333 -417.834 -199 -539.501s-329.334 -182.5 -590.001 -182.5c-19.333 0 -46.333 0.666992 -81 2l-127 -195l-546 302l95 150c-86.667 116.667 -130 271 -130 463c0 236.667 66.333 415.334 199 536.001s329.334 181 590.001 181
c20 0 48.667 -0.666992 86 -2l123 194l551 -326l-90 -139c79.333 -113.333 119 -261.333 119 -444zM833 782.999c0 19.333 -9.33301 29 -28 29s-28 -9.66699 -28 -29v-200c0 -19.333 9.33301 -29 28 -29s28 9.66699 28 29v200z" />
    <glyph glyph-name="Ugrave" unicode="&#xd9;" horiz-adv-x="1542" 
d="M212 79.5c-126 85 -189 210.833 -189 377.5v903h722v-809c0 -48.667 9.33301 -73 28 -73s28 24 28 72v810h718v-903c0 -166.667 -63 -292.5 -189 -377.5s-312.333 -127.5 -559 -127.5s-433 42.5 -559 127.5zM361 1699h569l100 -296h-495z" />
    <glyph glyph-name="Uacute" unicode="&#xda;" horiz-adv-x="1542" 
d="M212 79.5c-126 85 -189 210.833 -189 377.5v903h722v-809c0 -48.667 9.33301 -73 28 -73s28 24 28 72v810h718v-903c0 -166.667 -63 -292.5 -189 -377.5s-312.333 -127.5 -559 -127.5s-433 42.5 -559 127.5zM606 1699h569l-174 -296h-495z" />
    <glyph glyph-name="Ucircumflex" unicode="&#xdb;" horiz-adv-x="1542" 
d="M212 79.5c-126 85 -189 210.833 -189 377.5v903h722v-809c0 -48.667 9.33301 -73 28 -73s28 24 28 72v810h718v-903c0 -166.667 -63 -292.5 -189 -377.5s-312.333 -127.5 -559 -127.5s-433 42.5 -559 127.5zM360 1404l131 294h571l131 -294l-384 -1l-33 103l-32 -103z
" />
    <glyph glyph-name="Udieresis" unicode="&#xdc;" horiz-adv-x="1542" 
d="M212 79.5c-126 85 -189 210.833 -189 377.5v903h722v-809c0 -48.667 9.33301 -73 28 -73s28 24 28 72v810h718v-903c0 -166.667 -63 -292.5 -189 -377.5s-312.333 -127.5 -559 -127.5s-433 42.5 -559 127.5zM417 1443c-30.667 26 -46 68.667 -46 128
c0 58.667 15.167 101 45.5 127s79.833 39 148.5 39c71.333 0 122.5 -13 153.5 -39s46.5 -68.333 46.5 -127c0 -59.333 -15.5 -102 -46.5 -128s-81.5 -39 -151.5 -39c-69.333 0 -119.333 13 -150 39zM830 1443c-30.667 26 -46 68.667 -46 128c0 58.667 15.167 101 45.5 127
s79.833 39 148.5 39c71.333 0 122.5 -13 153.5 -39s46.5 -68.333 46.5 -127c0 -59.333 -15.5 -102 -46.5 -128s-81.5 -39 -151.5 -39c-69.333 0 -119.333 13 -150 39z" />
    <glyph glyph-name="Yacute" unicode="&#xdd;" horiz-adv-x="1531" 
d="M398 423l-416 937h744l27 -501l26 1l13 500h757l-416 -934l2 -426h-737v423zM594 1656h569l-174 -253h-495z" />
    <glyph glyph-name="Thorn" unicode="&#xde;" horiz-adv-x="1486" 
d="M26 1359h736v-172h17c146.667 0 269.167 -12.833 367.5 -38.5s177 -76.334 236 -152.001s88.5 -185.167 88.5 -328.5v-12c-2 -137.333 -33 -242.666 -93 -315.999s-139.667 -122.833 -239 -148.5s-220.333 -38.5 -363 -38.5h-14v-177h-736v1383zM745 604
c14.667 0 24.5 3.66699 29.5 11s7.5 22 7.5 44v11c0 24 -2.5 39.833 -7.5 47.5s-16.167 11.5 -33.5 11.5h-17v-125h21z" />
    <glyph glyph-name="germandbls" unicode="&#xdf;" horiz-adv-x="1486" 
d="M29 1048c0 135.333 36.168 239.83 108.501 313.497s156.5 122.667 252.5 147s192.333 36.5 289 36.5c215.333 0 383 -34.167 503 -102.5s181 -171.166 183 -308.499v-6c0 -62.667 -11.667 -115.667 -35 -159s-52.333 -73.666 -87 -90.999
c4.66699 -3.33301 12.667 -8 24 -14c32.667 -18 62.167 -38.167 88.5 -60.5s50.166 -57.666 71.499 -105.999s32 -110.5 32 -186.5v-2c0 -202 -71.5 -337.333 -214.5 -406s-310.5 -103 -502.5 -103h-12v456h6c13.333 0 24.5 5.5 33.5 16.5s13.5 27.833 13.5 50.5v2
c0 23.333 -4.33301 41.333 -13 54s-19.667 19 -33 19h-7v352h5c13.333 0 23.5 4.16699 30.5 12.5s10.5 22.5 10.5 42.5v5c-1.33301 18.667 -6 33.5 -14 44.5s-19.667 16.5 -35 16.5c-36 0 -54 -19.667 -54 -59v-1012h-644v1048z" />
    <glyph glyph-name="agrave" unicode="&#xe0;" horiz-adv-x="1381" 
d="M202.5 3.5c-58.333 29 -104.668 70.168 -139.001 123.501s-51.5 115 -51.5 185v10c1.33301 100 24 172.333 68 217s106.333 72.167 187 82.5s207 15.5 379 15.5l75 -2v23c0 24.667 -1.66699 41.667 -5 51s-12 14 -26 14c-11.333 0 -18.833 -4.33301 -22.5 -13
s-5.5 -20.334 -5.5 -35.001v-7l-585 -1v5c0.666992 102.667 24.167 185.5 70.5 248.5s119.833 109.5 220.5 139.5s234.334 45 401.001 45c109.333 0 208 -13.667 296 -41s158.333 -71.333 211 -132s79 -138.334 79 -233.001v-699h-602l-63 128
c-23.333 -55.333 -59.833 -97.166 -109.5 -125.499s-111.834 -42.5 -186.501 -42.5c-69.333 0 -133.166 14.5 -191.499 43.5zM709.498 372.501c7 7 10.833 17.167 11.5 30.5v47h-6c-22 -2 -36.333 -7.5 -43 -16.5s-10 -22.167 -10 -39.5v-6
c0 -8.66699 2.33301 -15.167 7 -19.5s10.667 -6.5 18 -6.5c8 0 15.5 3.5 22.5 10.5zM290.998 1444h569l100 -296h-495z" />
    <glyph glyph-name="aacute" unicode="&#xe1;" horiz-adv-x="1381" 
d="M202.5 3.5c-58.333 29 -104.668 70.168 -139.001 123.501s-51.5 115 -51.5 185v10c1.33301 100 24 172.333 68 217s106.333 72.167 187 82.5s207 15.5 379 15.5l75 -2v23c0 24.667 -1.66699 41.667 -5 51s-12 14 -26 14c-11.333 0 -18.833 -4.33301 -22.5 -13
s-5.5 -20.334 -5.5 -35.001v-7l-585 -1v5c0.666992 102.667 24.167 185.5 70.5 248.5s119.833 109.5 220.5 139.5s234.334 45 401.001 45c109.333 0 208 -13.667 296 -41s158.333 -71.333 211 -132s79 -138.334 79 -233.001v-699h-602l-63 128
c-23.333 -55.333 -59.833 -97.166 -109.5 -125.499s-111.834 -42.5 -186.501 -42.5c-69.333 0 -133.166 14.5 -191.499 43.5zM709.498 372.501c7 7 10.833 17.167 11.5 30.5v47h-6c-22 -2 -36.333 -7.5 -43 -16.5s-10 -22.167 -10 -39.5v-6
c0 -8.66699 2.33301 -15.167 7 -19.5s10.667 -6.5 18 -6.5c8 0 15.5 3.5 22.5 10.5zM535.998 1444h569l-174 -296h-495z" />
    <glyph glyph-name="acircumflex" unicode="&#xe2;" horiz-adv-x="1381" 
d="M202.5 3.5c-58.333 29 -104.668 70.168 -139.001 123.501s-51.5 115 -51.5 185v10c1.33301 100 24 172.333 68 217s106.333 72.167 187 82.5s207 15.5 379 15.5l75 -2v23c0 24.667 -1.66699 41.667 -5 51s-12 14 -26 14c-11.333 0 -18.833 -4.33301 -22.5 -13
s-5.5 -20.334 -5.5 -35.001v-7l-585 -1v5c0.666992 102.667 24.167 185.5 70.5 248.5s119.833 109.5 220.5 139.5s234.334 45 401.001 45c109.333 0 208 -13.667 296 -41s158.333 -71.333 211 -132s79 -138.334 79 -233.001v-699h-602l-63 128
c-23.333 -55.333 -59.833 -97.166 -109.5 -125.499s-111.834 -42.5 -186.501 -42.5c-69.333 0 -133.166 14.5 -191.499 43.5zM709.498 372.501c7 7 10.833 17.167 11.5 30.5v47h-6c-22 -2 -36.333 -7.5 -43 -16.5s-10 -22.167 -10 -39.5v-6
c0 -8.66699 2.33301 -15.167 7 -19.5s10.667 -6.5 18 -6.5c8 0 15.5 3.5 22.5 10.5zM289.998 1149l131 254h571l131 -254l-384 -1l-33 103l-32 -103z" />
    <glyph glyph-name="atilde" unicode="&#xe3;" horiz-adv-x="1381" 
d="M202.5 3.5c-58.333 29 -104.668 70.168 -139.001 123.501s-51.5 115 -51.5 185v10c1.33301 100 24 172.333 68 217s106.333 72.167 187 82.5s207 15.5 379 15.5l75 -2v23c0 24.667 -1.66699 41.667 -5 51s-12 14 -26 14c-11.333 0 -18.833 -4.33301 -22.5 -13
s-5.5 -20.334 -5.5 -35.001v-7l-585 -1v5c0.666992 102.667 24.167 185.5 70.5 248.5s119.833 109.5 220.5 139.5s234.334 45 401.001 45c109.333 0 208 -13.667 296 -41s158.333 -71.333 211 -132s79 -138.334 79 -233.001v-699h-602l-63 128
c-23.333 -55.333 -59.833 -97.166 -109.5 -125.499s-111.834 -42.5 -186.501 -42.5c-69.333 0 -133.166 14.5 -191.499 43.5zM709.498 372.501c7 7 10.833 17.167 11.5 30.5v47h-6c-22 -2 -36.333 -7.5 -43 -16.5s-10 -22.167 -10 -39.5v-6
c0 -8.66699 2.33301 -15.167 7 -19.5s10.667 -6.5 18 -6.5c8 0 15.5 3.5 22.5 10.5zM289.998 1226c0.666992 0 1 -10 1 -30c0 102.667 24.5 180.167 73.5 232.5s121.5 78.5 217.5 78.5c112.667 0 179 -25.667 199 -77l2 -5c10 -24 24.333 -36 43 -36c19.333 0 29 15 29 45
v46l265 -1v-68c-0.666992 0 -1 7.66699 -1 23c0 -100.667 -24.5 -176.667 -73.5 -228s-121.5 -77 -217.5 -77c-106.667 0 -172.667 25.333 -198 76l-3 6c-12 24 -26.333 36 -43 36c-19.333 0 -29 -16 -29 -48v-43l-265 1v69z" />
    <glyph glyph-name="adieresis" unicode="&#xe4;" horiz-adv-x="1381" 
d="M202.5 3.5c-58.333 29 -104.668 70.168 -139.001 123.501s-51.5 115 -51.5 185v10c1.33301 100 24 172.333 68 217s106.333 72.167 187 82.5s207 15.5 379 15.5l75 -2v23c0 24.667 -1.66699 41.667 -5 51s-12 14 -26 14c-11.333 0 -18.833 -4.33301 -22.5 -13
s-5.5 -20.334 -5.5 -35.001v-7l-585 -1v5c0.666992 102.667 24.167 185.5 70.5 248.5s119.833 109.5 220.5 139.5s234.334 45 401.001 45c109.333 0 208 -13.667 296 -41s158.333 -71.333 211 -132s79 -138.334 79 -233.001v-699h-602l-63 128
c-23.333 -55.333 -59.833 -97.166 -109.5 -125.499s-111.834 -42.5 -186.501 -42.5c-69.333 0 -133.166 14.5 -191.499 43.5zM709.498 372.501c7 7 10.833 17.167 11.5 30.5v47h-6c-22 -2 -36.333 -7.5 -43 -16.5s-10 -22.167 -10 -39.5v-6
c0 -8.66699 2.33301 -15.167 7 -19.5s10.667 -6.5 18 -6.5c8 0 15.5 3.5 22.5 10.5zM346.998 1188c-30.667 26 -46 68.667 -46 128c0 58.667 15.167 101 45.5 127s79.833 39 148.5 39c71.333 0 122.5 -13 153.5 -39s46.5 -68.333 46.5 -127c0 -59.333 -15.5 -102 -46.5 -128
s-81.5 -39 -151.5 -39c-69.333 0 -119.333 13 -150 39zM759.998 1188c-30.667 26 -46 68.667 -46 128c0 58.667 15.167 101 45.5 127s79.833 39 148.5 39c71.333 0 122.5 -13 153.5 -39s46.5 -68.333 46.5 -127c0 -59.333 -15.5 -102 -46.5 -128s-81.5 -39 -151.5 -39
c-69.333 0 -119.333 13 -150 39z" />
    <glyph glyph-name="aring" unicode="&#xe5;" horiz-adv-x="1381" 
d="M202.5 3.5c-58.333 29 -104.668 70.168 -139.001 123.501s-51.5 115 -51.5 185v10c1.33301 100 24 172.333 68 217s106.333 72.167 187 82.5s207 15.5 379 15.5l75 -2v23c0 24.667 -1.66699 41.667 -5 51s-12 14 -26 14c-11.333 0 -18.833 -4.33301 -22.5 -13
s-5.5 -20.334 -5.5 -35.001v-7l-585 -1v5c0.666992 102.667 24.167 185.5 70.5 248.5s119.833 109.5 220.5 139.5s234.334 45 401.001 45c109.333 0 208 -13.667 296 -41s158.333 -71.333 211 -132s79 -138.334 79 -233.001v-699h-602l-63 128
c-23.333 -55.333 -59.833 -97.166 -109.5 -125.499s-111.834 -42.5 -186.501 -42.5c-69.333 0 -133.166 14.5 -191.499 43.5zM709.498 372.501c7 7 10.833 17.167 11.5 30.5v47h-6c-22 -2 -36.333 -7.5 -43 -16.5s-10 -22.167 -10 -39.5v-6
c0 -8.66699 2.33301 -15.167 7 -19.5s10.667 -6.5 18 -6.5c8 0 15.5 3.5 22.5 10.5zM475.998 1203.5c-52 35.667 -78.001 88.5 -78.001 158.5v3c0 71.333 26.333 125.333 79 162s130.334 55 233.001 55c100 0 175.667 -18.333 227 -55s77 -90.667 77 -162v-3
c0 -70 -26 -122.833 -78 -158.5s-128.667 -53.5 -230 -53.5s-178 17.833 -230 53.5zM751.997 1364v3c0 16.667 -15.667 25 -47 25c-32 0 -48 -8.66699 -48 -26v-2c0 -18 16 -27 48 -27c31.333 0 47 9 47 27z" />
    <glyph glyph-name="ae" unicode="&#xe6;" horiz-adv-x="2111" 
d="M1182 -11.5c-67.333 18.333 -125 45.165 -173 80.498c-38 -35.333 -94.833 -62.166 -170.5 -80.499s-168.5 -27.5 -278.5 -27.5c-178.667 0 -313.5 29.5 -404.5 88.5s-136.5 146.5 -136.5 262.5v37c0 94.667 43.333 166.334 130 215.001s214.667 73 384 73l195 -2v23
c0 43.333 -10.333 65 -31 65c-9.33301 0 -16 -2.5 -20 -7.5s-6.33301 -13.167 -7 -24.5l-1 -23l-585 -1v54c0 126.667 52.5 222.334 157.5 287.001s260.167 97 465.5 97c165.333 0 294.333 -16.333 387 -49c90 32 219 48 387 48c202.667 0 357.167 -46 463.5 -138
s159.5 -227.667 159.5 -407c0 -24.667 -2.83301 -53.334 -8.5 -86.001s-12.834 -64 -21.5 -94h-696v-77c0 -19.333 10 -29 30 -29c19.333 0 29 9.66699 29 29v18h619c-36.667 -112 -110.334 -199.833 -221.001 -263.5s-253 -95.5 -427 -95.5
c-83.333 0 -158.666 9.16699 -225.999 27.5zM1437 618.999v73c0 19.333 -9.66699 29 -29 29c-20 0 -30 -9.66699 -30 -29v-73h59zM728 402.999v47h-6c-35.333 -3.33301 -53 -22 -53 -56v-6c0 -17.333 8.33301 -26 25 -26c20.667 0 32 13.667 34 41z" />
    <glyph glyph-name="ccedilla" unicode="&#xe7;" 
d="M725 513l655.003 0.000976562c-4.66699 -156 -49.834 -279.333 -135.501 -370s-210.5 -147.667 -374.5 -171l-25 -95c68.667 -20.667 120.334 -53.334 155.001 -98.001s52 -100.334 52 -167.001v-8c0 -101.333 -31.333 -177.666 -94 -228.999s-155.334 -77 -278.001 -77
c-132 0 -231.667 18.667 -299 56l56 272c24 -6.66699 52 -10 84 -10c42.667 0 64 8.33301 64 25l-1 6c0 16 -45.667 25.667 -137 29l58 299c-163.333 25.333 -286.333 84.833 -369 178.5s-124 220.5 -124 380.5v1c0 188 57.667 329.833 173 425.5
s285.666 143.5 510.999 143.5c220 0 387.667 -45.833 503 -137.5s175.666 -227.5 180.999 -407.5h-655v33c0 19.333 -9.66699 29 -29 29c-20 0 -30 -9.66699 -30 -29v-120c0 -19.333 10 -29 30 -29c19.333 0 29 9.66699 29 29v41z" />
    <glyph glyph-name="egrave" unicode="&#xe8;" 
d="M666 379l0.000976562 -77.001c0 -19.333 10 -29 30 -29c19.333 0 29 9.66699 29 29v18h619c-35.333 -118.667 -107.5 -208.167 -216.5 -268.5s-252.833 -90.5 -431.5 -90.5c-225.333 0 -395.666 48.333 -510.999 145s-173 239.334 -173 428.001v1
c0 188 57.667 329.833 173 425.5s285.666 143.5 510.999 143.5s395.666 -45.833 510.999 -137.5s173 -227.5 173 -407.5c0 -48 -6 -108 -18 -180h-696zM666.001 711.999v-73h59v73c0 19.333 -9.66699 29 -29 29c-20 0 -30 -9.66699 -30 -29zM287.001 1483h569l100 -296h-495
z" />
    <glyph glyph-name="eacute" unicode="&#xe9;" 
d="M666 379l0.000976562 -77.001c0 -19.333 10 -29 30 -29c19.333 0 29 9.66699 29 29v18h619c-35.333 -118.667 -107.5 -208.167 -216.5 -268.5s-252.833 -90.5 -431.5 -90.5c-225.333 0 -395.666 48.333 -510.999 145s-173 239.334 -173 428.001v1
c0 188 57.667 329.833 173 425.5s285.666 143.5 510.999 143.5s395.666 -45.833 510.999 -137.5s173 -227.5 173 -407.5c0 -48 -6 -108 -18 -180h-696zM666.001 711.999v-73h59v73c0 19.333 -9.66699 29 -29 29c-20 0 -30 -9.66699 -30 -29zM532.001 1483h569l-174 -296
h-495z" />
    <glyph glyph-name="ecircumflex" unicode="&#xea;" 
d="M666 379l0.000976562 -77.001c0 -19.333 10 -29 30 -29c19.333 0 29 9.66699 29 29v18h619c-35.333 -118.667 -107.5 -208.167 -216.5 -268.5s-252.833 -90.5 -431.5 -90.5c-225.333 0 -395.666 48.333 -510.999 145s-173 239.334 -173 428.001v1
c0 188 57.667 329.833 173 425.5s285.666 143.5 510.999 143.5s395.666 -45.833 510.999 -137.5s173 -227.5 173 -407.5c0 -48 -6 -108 -18 -180h-696zM666.001 711.999v-73h59v73c0 19.333 -9.66699 29 -29 29c-20 0 -30 -9.66699 -30 -29zM286.001 1188l131 254h571
l131 -254l-384 -1l-33 103l-32 -103z" />
    <glyph glyph-name="edieresis" unicode="&#xeb;" 
d="M666 379l0.000976562 -77.001c0 -19.333 10 -29 30 -29c19.333 0 29 9.66699 29 29v18h619c-35.333 -118.667 -107.5 -208.167 -216.5 -268.5s-252.833 -90.5 -431.5 -90.5c-225.333 0 -395.666 48.333 -510.999 145s-173 239.334 -173 428.001v1
c0 188 57.667 329.833 173 425.5s285.666 143.5 510.999 143.5s395.666 -45.833 510.999 -137.5s173 -227.5 173 -407.5c0 -48 -6 -108 -18 -180h-696zM666.001 711.999v-73h59v73c0 19.333 -9.66699 29 -29 29c-20 0 -30 -9.66699 -30 -29zM343.001 1227
c-30.667 26 -46 68.667 -46 128c0 58.667 15.167 101 45.5 127s79.833 39 148.5 39c71.333 0 122.5 -13 153.5 -39s46.5 -68.333 46.5 -127c0 -59.333 -15.5 -102 -46.5 -128s-81.5 -39 -151.5 -39c-69.333 0 -119.333 13 -150 39zM756.001 1227
c-30.667 26 -46 68.667 -46 128c0 58.667 15.167 101 45.5 127s79.833 39 148.5 39c71.333 0 122.5 -13 153.5 -39s46.5 -68.333 46.5 -127c0 -59.333 -15.5 -102 -46.5 -128s-81.5 -39 -151.5 -39c-69.333 0 -119.333 13 -150 39z" />
    <glyph glyph-name="igrave" unicode="&#xec;" horiz-adv-x="769" 
d="M26 1065h717v-1065h-717v1065zM-26 1404h569l100 -296h-495z" />
    <glyph glyph-name="iacute" unicode="&#xed;" horiz-adv-x="769" 
d="M26 1065h717v-1065h-717v1065zM219 1404h569l-174 -296h-495z" />
    <glyph glyph-name="icircumflex" unicode="&#xee;" horiz-adv-x="769" 
d="M26 1065h717v-1065h-717v1065zM-27 1109l131 294h571l131 -294l-384 -1l-33 103l-32 -103z" />
    <glyph glyph-name="idieresis" unicode="&#xef;" horiz-adv-x="769" 
d="M26 1065h717v-1065h-717v1065zM30 1148c-30.667 26 -46 68.667 -46 128c0 58.667 15.167 101 45.5 127s79.833 39 148.5 39c71.333 0 122.5 -13 153.5 -39s46.5 -68.333 46.5 -127c0 -59.333 -15.5 -102 -46.5 -128s-81.5 -39 -151.5 -39c-69.333 0 -119.333 13 -150 39z
M443 1148c-30.667 26 -46 68.667 -46 128c0 58.667 15.167 101 45.5 127s79.833 39 148.5 39c71.333 0 122.5 -13 153.5 -39s46.5 -68.333 46.5 -127c0 -59.333 -15.5 -102 -46.5 -128s-81.5 -39 -151.5 -39c-69.333 0 -119.333 13 -150 39z" />
    <glyph glyph-name="eth" unicode="&#xf0;" horiz-adv-x="1395" 
d="M1337 898.5c30.667 -111 45.999 -228.501 45.999 -352.501v-12c0 -189.333 -58.5 -332.333 -175.5 -429s-290.167 -145 -519.5 -145c-222.667 0 -391 49 -505 147s-171 242.667 -171 434v17c2.66699 172.667 49.834 302.834 141.501 390.501s226.167 131.5 403.5 131.5
c4 -3.33301 17.333 -17 40 -41c14.667 -18 27.667 -32 39 -42l12 6c-22 43.333 -46.667 88 -74 134l-122 -17l-130 204l111 15c-20.667 26.667 -44.667 56 -72 88l634 86c32 -38.667 55.333 -67.667 70 -87l132 18l125 -204l-121 -17c60 -105.333 105.333 -213.5 136 -324.5
zM722.999 591.999c0 32.667 -9.66699 49 -29 49c-20 0 -30 -16.333 -30 -49v-120c0 -32.667 10 -49 30 -49c19.333 0 29 16.333 29 49v120z" />
    <glyph glyph-name="ntilde" unicode="&#xf1;" horiz-adv-x="1409" 
d="M25 1065l585.002 0.00195312l71 -103c27.333 41.333 68.166 75.5 122.499 102.5s120.5 40.5 198.5 40.5c133.333 0 230.166 -44.5 290.499 -133.5s90.5 -226.167 90.5 -411.5v-560h-657v549c0 32.667 -1.16699 56.167 -3.5 70.5s-5.33301 23.166 -9 26.499
s-9.16699 5 -16.5 5c-8.66699 0 -15 -3 -19 -9s-6.5 -15.833 -7.5 -29.5s-1.5 -35.834 -1.5 -66.501v-546h-644v1065zM277.002 1206c0.666992 0 1 -10 1 -30c0 102.667 24.5 180.167 73.5 232.5s121.5 78.5 217.5 78.5c112.667 0 179 -25.667 199 -77l2 -5
c10 -24 24.333 -36 43 -36c19.333 0 29 15 29 45v46l265 -1v-68c-0.666992 0 -1 7.66699 -1 23c0 -100.667 -24.5 -176.667 -73.5 -228s-121.5 -77 -217.5 -77c-106.667 0 -172.667 25.333 -198 76l-3 6c-12 24 -26.333 36 -43 36c-19.333 0 -29 -16 -29 -48v-43l-265 1v69z
" />
    <glyph glyph-name="ograve" unicode="&#xf2;" horiz-adv-x="1404" 
d="M191 100c-115.333 92.667 -173 230 -173 412v40c0 182 57.667 319.5 173 412.5s285.666 139.5 510.999 139.5s395.666 -46.333 510.999 -139s173 -230 173 -412v-41c0 -182 -57.667 -319.333 -173 -412s-285.666 -139 -510.999 -139s-395.666 46.333 -510.999 139z
M731 472v120c0 32.667 -9.66699 49 -29 49c-20 0 -30 -16.333 -30 -49v-120c0 -32.667 10 -49 30 -49c19.333 0 29 16.333 29 49zM287 1443h569l100 -296h-495z" />
    <glyph glyph-name="oacute" unicode="&#xf3;" horiz-adv-x="1404" 
d="M191 100c-115.333 92.667 -173 230 -173 412v40c0 182 57.667 319.5 173 412.5s285.666 139.5 510.999 139.5s395.666 -46.333 510.999 -139s173 -230 173 -412v-41c0 -182 -57.667 -319.333 -173 -412s-285.666 -139 -510.999 -139s-395.666 46.333 -510.999 139z
M731 472v120c0 32.667 -9.66699 49 -29 49c-20 0 -30 -16.333 -30 -49v-120c0 -32.667 10 -49 30 -49c19.333 0 29 16.333 29 49zM532 1443h569l-174 -296h-495z" />
    <glyph glyph-name="ocircumflex" unicode="&#xf4;" horiz-adv-x="1404" 
d="M191 100c-115.333 92.667 -173 230 -173 412v40c0 182 57.667 319.5 173 412.5s285.666 139.5 510.999 139.5s395.666 -46.333 510.999 -139s173 -230 173 -412v-41c0 -182 -57.667 -319.333 -173 -412s-285.666 -139 -510.999 -139s-395.666 46.333 -510.999 139z
M731 472v120c0 32.667 -9.66699 49 -29 49c-20 0 -30 -16.333 -30 -49v-120c0 -32.667 10 -49 30 -49c19.333 0 29 16.333 29 49zM286 1148l131 254h571l131 -254l-384 -1l-33 103l-32 -103z" />
    <glyph glyph-name="otilde" unicode="&#xf5;" horiz-adv-x="1404" 
d="M191 100c-115.333 92.667 -173 230 -173 412v40c0 182 57.667 319.5 173 412.5s285.666 139.5 510.999 139.5s395.666 -46.333 510.999 -139s173 -230 173 -412v-41c0 -182 -57.667 -319.333 -173 -412s-285.666 -139 -510.999 -139s-395.666 46.333 -510.999 139z
M731 472v120c0 32.667 -9.66699 49 -29 49c-20 0 -30 -16.333 -30 -49v-120c0 -32.667 10 -49 30 -49c19.333 0 29 16.333 29 49zM286 1225c0.666992 0 1 -10 1 -30c0 102.667 24.5 180.167 73.5 232.5s121.5 78.5 217.5 78.5c112.667 0 179 -25.667 199 -77l2 -5
c10 -24 24.333 -36 43 -36c19.333 0 29 15 29 45v46l265 -1v-68c-0.666992 0 -1 7.66699 -1 23c0 -100.667 -24.5 -176.667 -73.5 -228s-121.5 -77 -217.5 -77c-106.667 0 -172.667 25.333 -198 76l-3 6c-12 24 -26.333 36 -43 36c-19.333 0 -29 -16 -29 -48v-43l-265 1v69z
" />
    <glyph glyph-name="odieresis" unicode="&#xf6;" horiz-adv-x="1404" 
d="M191 100c-115.333 92.667 -173 230 -173 412v40c0 182 57.667 319.5 173 412.5s285.666 139.5 510.999 139.5s395.666 -46.333 510.999 -139s173 -230 173 -412v-41c0 -182 -57.667 -319.333 -173 -412s-285.666 -139 -510.999 -139s-395.666 46.333 -510.999 139z
M731 472v120c0 32.667 -9.66699 49 -29 49c-20 0 -30 -16.333 -30 -49v-120c0 -32.667 10 -49 30 -49c19.333 0 29 16.333 29 49zM343 1187c-30.667 26 -46 68.667 -46 128c0 58.667 15.167 101 45.5 127s79.833 39 148.5 39c71.333 0 122.5 -13 153.5 -39
s46.5 -68.333 46.5 -127c0 -59.333 -15.5 -102 -46.5 -128s-81.5 -39 -151.5 -39c-69.333 0 -119.333 13 -150 39zM756 1187c-30.667 26 -46 68.667 -46 128c0 58.667 15.167 101 45.5 127s79.833 39 148.5 39c71.333 0 122.5 -13 153.5 -39s46.5 -68.333 46.5 -127
c0 -59.333 -15.5 -102 -46.5 -128s-81.5 -39 -151.5 -39c-69.333 0 -119.333 13 -150 39z" />
    <glyph glyph-name="divide" unicode="&#xf7;" horiz-adv-x="898" 
d="M25 836h851v-465h-851v465zM243.5 59.5c-41.667 26.333 -62.5 65.168 -62.5 116.501c0 52.667 20.667 91.834 62 117.501s110 38.5 206 38.5c96.667 0 165.667 -12.833 207 -38.5s62 -64.834 62 -117.501s-20.667 -91.834 -62 -117.501s-110.333 -38.5 -207 -38.5
c-95.333 0 -163.833 13.167 -205.5 39.5zM243.5 915.502c-41.667 26.333 -62.5 65.168 -62.5 116.501c0 52.667 20.667 91.834 62 117.501s110 38.5 206 38.5c96.667 0 165.667 -12.833 207 -38.5s62 -64.834 62 -117.501s-20.667 -91.834 -62 -117.501
s-110.333 -38.5 -207 -38.5c-95.333 0 -163.833 13.167 -205.5 39.5z" />
    <glyph glyph-name="oslash" unicode="&#xf8;" horiz-adv-x="1395" 
d="M1386 553v-40.999c0 -182 -57.667 -319.333 -173 -412s-285.666 -139 -510.999 -139h-13l-151 -185l-492 252l91 123c-79.333 89.333 -119 209.666 -119 360.999v40c0 182 57.667 319.5 173 412.5s285.666 139.5 510.999 139.5c38.667 0 79.667 -1.66699 123 -5l118 172
l406 -240l-79 -121c77.333 -89.333 116 -208.333 116 -357zM731 592.001c0 32.667 -9.66699 49 -29 49c-20 0 -30 -16.333 -30 -49v-120c0 -32.667 10 -49 30 -49c19.333 0 29 16.333 29 49v120z" />
    <glyph glyph-name="ugrave" unicode="&#xf9;" horiz-adv-x="1382" 
d="M190 90.5c-113.333 86.333 -169.999 214.168 -169.999 383.501v591h642v-593c0 -32.667 10 -49 30 -49c19.333 0 29 16.333 29 49v593h641v-606c0 -164.667 -56.333 -288.834 -169 -372.501s-279.334 -125.5 -500.001 -125.5c-222 0 -389.667 43.167 -503 129.5z
M276.001 1403h569l100 -296h-495z" />
    <glyph glyph-name="uacute" unicode="&#xfa;" horiz-adv-x="1382" 
d="M190 90.5c-113.333 86.333 -169.999 214.168 -169.999 383.501v591h642v-593c0 -32.667 10 -49 30 -49c19.333 0 29 16.333 29 49v593h641v-606c0 -164.667 -56.333 -288.834 -169 -372.501s-279.334 -125.5 -500.001 -125.5c-222 0 -389.667 43.167 -503 129.5z
M521.001 1403h569l-174 -296h-495z" />
    <glyph glyph-name="ucircumflex" unicode="&#xfb;" horiz-adv-x="1382" 
d="M190 90.5c-113.333 86.333 -169.999 214.168 -169.999 383.501v591h642v-593c0 -32.667 10 -49 30 -49c19.333 0 29 16.333 29 49v593h641v-606c0 -164.667 -56.333 -288.834 -169 -372.501s-279.334 -125.5 -500.001 -125.5c-222 0 -389.667 43.167 -503 129.5z
M275.001 1108l131 294h571l131 -294l-384 -1l-33 103l-32 -103z" />
    <glyph glyph-name="udieresis" unicode="&#xfc;" horiz-adv-x="1382" 
d="M190 90.5c-113.333 86.333 -169.999 214.168 -169.999 383.501v591h642v-593c0 -32.667 10 -49 30 -49c19.333 0 29 16.333 29 49v593h641v-606c0 -164.667 -56.333 -288.834 -169 -372.501s-279.334 -125.5 -500.001 -125.5c-222 0 -389.667 43.167 -503 129.5z
M332.001 1147c-30.667 26 -46 68.667 -46 128c0 58.667 15.167 101 45.5 127s79.833 39 148.5 39c71.333 0 122.5 -13 153.5 -39s46.5 -68.333 46.5 -127c0 -59.333 -15.5 -102 -46.5 -128s-81.5 -39 -151.5 -39c-69.333 0 -119.333 13 -150 39zM745.001 1147
c-30.667 26 -46 68.667 -46 128c0 58.667 15.167 101 45.5 127s79.833 39 148.5 39c71.333 0 122.5 -13 153.5 -39s46.5 -68.333 46.5 -127c0 -59.333 -15.5 -102 -46.5 -128s-81.5 -39 -151.5 -39c-69.333 0 -119.333 13 -150 39z" />
    <glyph glyph-name="yacute" unicode="&#xfd;" horiz-adv-x="1403" 
d="M241 77h199.998c14.667 0 25.334 3.33301 32.001 10s10 18 10 34v9h-219l-268 935h670l15 -300l4 -194h32l3 194l16 300h671l-213 -1037c-31.333 -108 -72.166 -189.833 -122.499 -245.5s-105.333 -92.167 -165 -109.5s-129.5 -26 -209.5 -26h-456v430zM531.998 1361h569
l-174 -253h-495z" />
    <glyph glyph-name="thorn" unicode="&#xfe;" horiz-adv-x="1405" 
d="M26 1410l715.999 1.00098v-285l-83 -165l12 -18c25.333 50 63.5 90 114.5 120s124.167 45 219.5 45c88 0 160.167 -20.333 216.5 -61s98 -103.334 125 -188.001s40.5 -194 40.5 -328v-1c0 -178 -29.5 -318.167 -88.5 -420.5s-161.833 -153.5 -308.5 -153.5
c-58.667 0 -106.167 4 -142.5 12s-74.166 19.667 -113.499 35l-28 10v-308h-680v1705zM716.999 435.501c4.66699 15.667 7.00098 47.835 7.00098 96.502v1c0 47.333 -2.5 78.666 -7.5 93.999s-12.833 23 -23.5 23c-8 0 -13.833 -2.83301 -17.5 -8.5
s-6.33398 -16.5 -8.00098 -32.5s-2.5 -41.333 -2.5 -76v-1c0 -35.333 0.833008 -61.333 2.5 -78s4.5 -27.834 8.5 -33.501s10.333 -8.5 19 -8.5c10 0 17.333 7.83301 22 23.5z" />
    <glyph glyph-name="ydieresis" unicode="&#xff;" horiz-adv-x="1403" 
d="M241 77h199.998c14.667 0 25.334 3.33301 32.001 10s10 18 10 34v9h-219l-268 935h670l15 -300l4 -194h32l3 194l16 300h671l-213 -1037c-31.333 -108 -72.166 -189.833 -122.499 -245.5s-105.333 -92.167 -165 -109.5s-129.5 -26 -209.5 -26h-456v430zM342.998 1148
c-30.667 26 -46 68.667 -46 128c0 58.667 15.167 101 45.5 127s79.833 39 148.5 39c71.333 0 122.5 -13 153.5 -39s46.5 -68.333 46.5 -127c0 -59.333 -15.5 -102 -46.5 -128s-81.5 -39 -151.5 -39c-69.333 0 -119.333 13 -150 39zM755.998 1148
c-30.667 26 -46 68.667 -46 128c0 58.667 15.167 101 45.5 127s79.833 39 148.5 39c71.333 0 122.5 -13 153.5 -39s46.5 -68.333 46.5 -127c0 -59.333 -15.5 -102 -46.5 -128s-81.5 -39 -151.5 -39c-69.333 0 -119.333 13 -150 39z" />
    <glyph glyph-name="Amacron" unicode="&#x100;" horiz-adv-x="1549" 
d="M820 77h-90l-3 -77h-736l403 1360h760l404 -1360h-734zM798 449l-16 288h-22l-13 -288h51zM403 1699h736v-295h-736v295z" />
    <glyph glyph-name="amacron" unicode="&#x101;" horiz-adv-x="1381" 
d="M202.5 3.5c-58.333 29 -104.668 70.168 -139.001 123.501s-51.5 115 -51.5 185v10c1.33301 100 24 172.333 68 217s106.333 72.167 187 82.5s207 15.5 379 15.5l75 -2v23c0 24.667 -1.66699 41.667 -5 51s-12 14 -26 14c-11.333 0 -18.833 -4.33301 -22.5 -13
s-5.5 -20.334 -5.5 -35.001v-7l-585 -1v5c0.666992 102.667 24.167 185.5 70.5 248.5s119.833 109.5 220.5 139.5s234.334 45 401.001 45c109.333 0 208 -13.667 296 -41s158.333 -71.333 211 -132s79 -138.334 79 -233.001v-699h-602l-63 128
c-23.333 -55.333 -59.833 -97.166 -109.5 -125.499s-111.834 -42.5 -186.501 -42.5c-69.333 0 -133.166 14.5 -191.499 43.5zM709.498 372.501c7 7 10.833 17.167 11.5 30.5v47h-6c-22 -2 -36.333 -7.5 -43 -16.5s-10 -22.167 -10 -39.5v-6
c0 -8.66699 2.33301 -15.167 7 -19.5s10.667 -6.5 18 -6.5c8 0 15.5 3.5 22.5 10.5zM337.998 1444h736v-295h-736v295z" />
    <glyph glyph-name="Abreve" unicode="&#x102;" horiz-adv-x="1549" 
d="M820 77h-90l-3 -77h-736l403 1360h760l404 -1360h-734zM798 449l-16 288h-22l-13 -288h51zM514.5 1426c-61.667 16.667 -105.833 44.5 -132.5 83.5s-40 93.5 -40 163.5v28h402v-28c0.666992 -16.667 3 -28.334 7 -35.001s10.667 -10 20 -10
c11.333 0 19.166 3.33301 23.499 10s6.5 18.334 6.5 35.001v28h398v-28c0 -70 -13.333 -124.5 -40 -163.5s-70.667 -66.833 -132 -83.5s-146.666 -25 -255.999 -25s-194.833 8.33301 -256.5 25z" />
    <glyph glyph-name="abreve" unicode="&#x103;" horiz-adv-x="1381" 
d="M202.5 3.5c-58.333 29 -104.668 70.168 -139.001 123.501s-51.5 115 -51.5 185v10c1.33301 100 24 172.333 68 217s106.333 72.167 187 82.5s207 15.5 379 15.5l75 -2v23c0 24.667 -1.66699 41.667 -5 51s-12 14 -26 14c-11.333 0 -18.833 -4.33301 -22.5 -13
s-5.5 -20.334 -5.5 -35.001v-7l-585 -1v5c0.666992 102.667 24.167 185.5 70.5 248.5s119.833 109.5 220.5 139.5s234.334 45 401.001 45c109.333 0 208 -13.667 296 -41s158.333 -71.333 211 -132s79 -138.334 79 -233.001v-699h-602l-63 128
c-23.333 -55.333 -59.833 -97.166 -109.5 -125.499s-111.834 -42.5 -186.501 -42.5c-69.333 0 -133.166 14.5 -191.499 43.5zM709.498 372.501c7 7 10.833 17.167 11.5 30.5v47h-6c-22 -2 -36.333 -7.5 -43 -16.5s-10 -22.167 -10 -39.5v-6
c0 -8.66699 2.33301 -15.167 7 -19.5s10.667 -6.5 18 -6.5c8 0 15.5 3.5 22.5 10.5zM449.498 1171c-61.667 16.667 -105.833 44.5 -132.5 83.5s-40 93.5 -40 163.5v28h402v-28c0.666992 -16.667 3 -28.334 7 -35.001s10.667 -10 20 -10c11.333 0 19.166 3.33301 23.499 10
s6.5 18.334 6.5 35.001v28h398v-28c0 -70 -13.333 -124.5 -40 -163.5s-70.667 -66.833 -132 -83.5s-146.666 -25 -255.999 -25s-194.833 8.33301 -256.5 25z" />
    <glyph glyph-name="Aogonek" unicode="&#x104;" horiz-adv-x="1549" 
d="M1578 -394c-94.667 -76.667 -240.333 -115 -437 -115c-127.333 0 -223.666 19.833 -288.999 59.5s-98 98.5 -98 176.5c0 50 17 98 51 144s84.333 89 151 129h-132l-4 77h-90l-3 -77h-736l403 1360h760l404 -1360c-110 -82 -164.667 -130.333 -164 -145
c0 -15.333 8.33301 -23 25 -23c11.333 0 33.666 11.667 66.999 35zM798.001 449l-16 288h-22l-13 -288h51z" />
    <glyph glyph-name="aogonek" unicode="&#x105;" horiz-adv-x="1381" 
d="M1375 -394c-94.667 -76.667 -240.335 -114.999 -437.002 -114.999c-127.333 0 -223.666 19.833 -288.999 59.5s-98 98.5 -98 176.5c0 50 17 98 51 144s84.333 89 151 129l-63 128c-23.333 -55.333 -59.833 -97.166 -109.5 -125.499s-111.834 -42.5 -186.501 -42.5
c-69.333 0 -133.166 14.5 -191.499 43.5s-104.666 70.167 -138.999 123.5s-51.5 115 -51.5 185v10c1.33301 100 24 172.333 68 217s106.333 72.167 187 82.5s207 15.5 379 15.5l75 -2v23c0 24.667 -1.66699 41.667 -5 51s-12 14 -26 14
c-11.333 0 -18.833 -4.33301 -22.5 -13s-5.5 -20.334 -5.5 -35.001v-7l-585 -1v5c0.666992 102.667 24.167 185.5 70.5 248.5s119.833 109.5 220.5 139.5s234.334 45 401.001 45c109.333 0 208 -13.667 296 -41s158.333 -71.333 211 -132s79 -138.334 79 -233.001v-699
c-110 -82 -164.667 -130.333 -164 -145c0 -15.333 8.33301 -23 25 -23c11.333 0 33.666 11.667 66.999 35zM720.999 450.001h-6c-22 -2 -36.333 -7.5 -43 -16.5s-10 -22.167 -10 -39.5v-6c0 -8.66699 2.33301 -15.167 7 -19.5s10.667 -6.5 18 -6.5c8 0 15.5 3.5 22.5 10.5
s10.833 17.167 11.5 30.5v47z" />
    <glyph glyph-name="Cacute" unicode="&#x106;" horiz-adv-x="1609" 
d="M215 143c-132.667 121.333 -199 300.998 -199 538.998v1c0 236.667 66.333 415.334 199 536.001s329 181 589 181c254 0 447.5 -58 580.5 -174s202.5 -287.667 208.5 -515l-761 -1v73c0 19.333 -9.66699 29 -29 29c-20 0 -30 -9.66699 -30 -29v-200
c0 -19.333 10 -29 30 -29c19.333 0 29 9.66699 29 29v68h761c-6.66699 -227.333 -76.5 -399.166 -209.5 -515.499s-326.167 -174.5 -579.5 -174.5c-260 0 -456.333 60.667 -589 182zM634 1739h569l-174 -296h-495z" />
    <glyph glyph-name="cacute" unicode="&#x107;" 
d="M185 106c-115.333 96.667 -172.999 239.333 -172.999 428v1c0 188 57.667 329.833 173 425.5s285.666 143.5 510.999 143.5c220 0 387.667 -45.833 503 -137.5s175.666 -227.5 180.999 -407.5h-655v33c0 19.333 -9.66699 29 -29 29c-20 0 -30 -9.66699 -30 -29v-120
c0 -19.333 10 -29 30 -29c19.333 0 29 9.66699 29 29v41h655c-5.33301 -182 -65.5 -319.5 -180.5 -412.5s-282.833 -139.5 -503.5 -139.5c-225.333 0 -395.666 48.333 -510.999 145zM526.001 1443h569l-174 -296h-495z" />
    <glyph glyph-name="Ccircumflex" unicode="&#x108;" horiz-adv-x="1609" 
d="M215 143c-132.667 121.333 -199 300.998 -199 538.998v1c0 236.667 66.333 415.334 199 536.001s329 181 589 181c254 0 447.5 -58 580.5 -174s202.5 -287.667 208.5 -515l-761 -1v73c0 19.333 -9.66699 29 -29 29c-20 0 -30 -9.66699 -30 -29v-200
c0 -19.333 10 -29 30 -29c19.333 0 29 9.66699 29 29v68h761c-6.66699 -227.333 -76.5 -399.166 -209.5 -515.499s-326.167 -174.5 -579.5 -174.5c-260 0 -456.333 60.667 -589 182zM388 1444l131 294h571l131 -294l-384 -1l-33 103l-32 -103z" />
    <glyph glyph-name="ccircumflex" unicode="&#x109;" 
d="M185 106c-115.333 96.667 -172.999 239.333 -172.999 428v1c0 188 57.667 329.833 173 425.5s285.666 143.5 510.999 143.5c220 0 387.667 -45.833 503 -137.5s175.666 -227.5 180.999 -407.5h-655v33c0 19.333 -9.66699 29 -29 29c-20 0 -30 -9.66699 -30 -29v-120
c0 -19.333 10 -29 30 -29c19.333 0 29 9.66699 29 29v41h655c-5.33301 -182 -65.5 -319.5 -180.5 -412.5s-282.833 -139.5 -503.5 -139.5c-225.333 0 -395.666 48.333 -510.999 145zM280.001 1148l131 294h571l131 -294l-384 -1l-33 103l-32 -103z" />
    <glyph glyph-name="Cdotaccent" unicode="&#x10a;" horiz-adv-x="1609" 
d="M215 143c-132.667 121.333 -199 300.998 -199 538.998v1c0 236.667 66.333 415.334 199 536.001s329 181 589 181c254 0 447.5 -58 580.5 -174s202.5 -287.667 208.5 -515l-761 -1v73c0 19.333 -9.66699 29 -29 29c-20 0 -30 -9.66699 -30 -29v-200
c0 -19.333 10 -29 30 -29c19.333 0 29 9.66699 29 29v68h761c-6.66699 -227.333 -76.5 -399.166 -209.5 -515.499s-326.167 -174.5 -579.5 -174.5c-260 0 -456.333 60.667 -589 182zM598.5 1483.5c-41.667 26.333 -62.5 65.168 -62.5 116.501
c0 52.667 20.667 91.834 62 117.501s110 38.5 206 38.5c96.667 0 165.667 -12.833 207 -38.5s62 -64.834 62 -117.501s-20.667 -91.834 -62 -117.501s-110.333 -38.5 -207 -38.5c-95.333 0 -163.833 13.167 -205.5 39.5z" />
    <glyph glyph-name="cdotaccent" unicode="&#x10b;" 
d="M185 106c-115.333 96.667 -172.999 239.333 -172.999 428v1c0 188 57.667 329.833 173 425.5s285.666 143.5 510.999 143.5c220 0 387.667 -45.833 503 -137.5s175.666 -227.5 180.999 -407.5h-655v33c0 19.333 -9.66699 29 -29 29c-20 0 -30 -9.66699 -30 -29v-120
c0 -19.333 10 -29 30 -29c19.333 0 29 9.66699 29 29v41h655c-5.33301 -182 -65.5 -319.5 -180.5 -412.5s-282.833 -139.5 -503.5 -139.5c-225.333 0 -395.666 48.333 -510.999 145zM490.501 1187.5c-41.667 26.333 -62.5 65.168 -62.5 116.501
c0 52.667 20.667 91.834 62 117.501s110 38.5 206 38.5c96.667 0 165.667 -12.833 207 -38.5s62 -64.834 62 -117.501s-20.667 -91.834 -62 -117.501s-110.333 -38.5 -207 -38.5c-95.333 0 -163.833 13.167 -205.5 39.5z" />
    <glyph glyph-name="Ccaron" unicode="&#x10c;" horiz-adv-x="1609" 
d="M215 143c-132.667 121.333 -199 300.998 -199 538.998v1c0 236.667 66.333 415.334 199 536.001s329 181 589 181c254 0 447.5 -58 580.5 -174s202.5 -287.667 208.5 -515l-761 -1v73c0 19.333 -9.66699 29 -29 29c-20 0 -30 -9.66699 -30 -29v-200
c0 -19.333 10 -29 30 -29c19.333 0 29 9.66699 29 29v68h761c-6.66699 -227.333 -76.5 -399.166 -209.5 -515.499s-326.167 -174.5 -579.5 -174.5c-260 0 -456.333 60.667 -589 182zM386 1739l384 1l33 -103l32 103l384 -1l-131 -294h-571z" />
    <glyph glyph-name="ccaron" unicode="&#x10d;" 
d="M185 106c-115.333 96.667 -172.999 239.333 -172.999 428v1c0 188 57.667 329.833 173 425.5s285.666 143.5 510.999 143.5c220 0 387.667 -45.833 503 -137.5s175.666 -227.5 180.999 -407.5h-655v33c0 19.333 -9.66699 29 -29 29c-20 0 -30 -9.66699 -30 -29v-120
c0 -19.333 10 -29 30 -29c19.333 0 29 9.66699 29 29v41h655c-5.33301 -182 -65.5 -319.5 -180.5 -412.5s-282.833 -139.5 -503.5 -139.5c-225.333 0 -395.666 48.333 -510.999 145zM278.001 1443l384 1l33 -103l32 103l384 -1l-131 -294h-571z" />
    <glyph glyph-name="Dcaron" unicode="&#x10e;" horiz-adv-x="1556" 
d="M26 1360h741c254.667 0 447.167 -57.167 577.5 -171.5s195.5 -283.166 195.5 -506.499v-1c0 -224.667 -64.833 -394.334 -194.5 -509.001s-321.5 -172 -575.5 -172h-744v1360zM755 566c13.333 0 22.5 2.83301 27.5 8.5s8.16699 15.167 9.5 28.5s2 38 2 74
c0 37.333 -0.666992 63 -2 77s-4.5 23.833 -9.5 29.5s-14.167 8.5 -27.5 8.5h-19v-226h19zM349 1699l384 1l33 -103l32 103l384 -1l-131 -294h-571z" />
    <glyph glyph-name="dcaron" unicode="&#x10f;" horiz-adv-x="2029" 
d="M106 103.5c-62.667 97 -94.001 240.5 -94.001 430.5v1c0 189.333 32.333 332.333 97 429s160.334 145 287.001 145c132.667 0 226.334 -38.333 281.001 -115l-21 111v253h717v-1358h-612l-63 127c-43.333 -112.667 -148 -169 -314 -169
c-122.667 0 -215.334 48.5 -278.001 145.5zM720.999 460v180c-9.33301 7.33301 -18.333 11 -27 11c-19.333 0 -29 -37 -29 -111v-18c0 -68.667 9.33301 -103 28 -103s28 13.667 28 41zM1493.5 866.5c19 43.667 28.5 91.8311 28.5 144.498h-104l-1 351h604v-307
c0 -76 -10.833 -141.167 -32.5 -195.5s-48.167 -102.166 -79.5 -143.499h-500c37.333 56.667 65.5 106.834 84.5 150.501z" />
    <glyph glyph-name="Dcroat" unicode="&#x110;" horiz-adv-x="1599" 
d="M1201.5 1287c116.333 -48.667 208.999 -123.668 277.999 -225.001s103.5 -227.666 103.5 -378.999v-4c0 -141.333 -29.833 -262.833 -89.5 -364.5s-147.167 -179.5 -262.5 -233.5s-254.666 -81 -417.999 -81h-744v480h-52v373h52v507h741
c144.667 0 275.167 -24.333 391.5 -73zM846.999 682.999c0 72 -0.666992 120.667 -2 146s-4.5 42.166 -9.5 50.499s-14.167 12.5 -27.5 12.5h-19v-426h19c13.333 0 22.5 4.16699 27.5 12.5s8.16699 25.333 9.5 51s2 74.834 2 147.501v6z" />
    <glyph glyph-name="dcroat" unicode="&#x111;" horiz-adv-x="1464" 
d="M1459 1135h-86.001v-1135h-612l-63 127c-43.333 -112.667 -148 -169 -314 -169c-122.667 0 -215.334 48.5 -278.001 145.5s-94 240.5 -94 430.5v1c0 189.333 32.333 332.333 97 429s160.334 145 287.001 145c132.667 0 226.334 -38.333 281.001 -115l-21 111v30h-94v193
h94v30h717v-30h86v-193zM720.999 640c-9.33301 7.33301 -18.333 11 -27 11c-19.333 0 -29 -37 -29 -111v-18c0 -68.667 9.33301 -103 28 -103s28 13.667 28 41v180z" />
    <glyph glyph-name="Emacron" unicode="&#x112;" horiz-adv-x="1175" 
d="M26 1360h1121v-473h-375v-48h298v-333h-298v-47h384v-459h-1130v1360zM223 1699h736v-295h-736v295z" />
    <glyph glyph-name="emacron" unicode="&#x113;" 
d="M666 379l0.000976562 -77.001c0 -19.333 10 -29 30 -29c19.333 0 29 9.66699 29 29v18h619c-35.333 -118.667 -107.5 -208.167 -216.5 -268.5s-252.833 -90.5 -431.5 -90.5c-225.333 0 -395.666 48.333 -510.999 145s-173 239.334 -173 428.001v1
c0 188 57.667 329.833 173 425.5s285.666 143.5 510.999 143.5s395.666 -45.833 510.999 -137.5s173 -227.5 173 -407.5c0 -48 -6 -108 -18 -180h-696zM666.001 711.999v-73h59v73c0 19.333 -9.66699 29 -29 29c-20 0 -30 -9.66699 -30 -29zM334.001 1483h736v-295h-736v295
z" />
    <glyph glyph-name="Ebreve" unicode="&#x114;" horiz-adv-x="1175" 
d="M26 1360h1121v-473h-375v-48h298v-333h-298v-47h384v-459h-1130v1360zM334.5 1426c-61.667 16.667 -105.833 44.5 -132.5 83.5s-40 93.5 -40 163.5v28h402v-28c0.666992 -16.667 3 -28.334 7 -35.001s10.667 -10 20 -10c11.333 0 19.166 3.33301 23.499 10
s6.5 18.334 6.5 35.001v28h398v-28c0 -70 -13.333 -124.5 -40 -163.5s-70.667 -66.833 -132 -83.5s-146.666 -25 -255.999 -25s-194.833 8.33301 -256.5 25z" />
    <glyph glyph-name="ebreve" unicode="&#x115;" 
d="M666 379l0.000976562 -77.001c0 -19.333 10 -29 30 -29c19.333 0 29 9.66699 29 29v18h619c-35.333 -118.667 -107.5 -208.167 -216.5 -268.5s-252.833 -90.5 -431.5 -90.5c-225.333 0 -395.666 48.333 -510.999 145s-173 239.334 -173 428.001v1
c0 188 57.667 329.833 173 425.5s285.666 143.5 510.999 143.5s395.666 -45.833 510.999 -137.5s173 -227.5 173 -407.5c0 -48 -6 -108 -18 -180h-696zM666.001 711.999v-73h59v73c0 19.333 -9.66699 29 -29 29c-20 0 -30 -9.66699 -30 -29zM445.001 1206
c-61.333 14 -105.333 37.167 -132 69.5s-40 77.5 -40 135.5v28h402v-18c0.666992 -13.333 3 -22.5 7 -27.5s10.667 -7.5 20 -7.5c11.333 0 19.166 2.5 23.499 7.5s6.5 14.167 6.5 27.5v18h398v-28c0 -58 -13.167 -103.167 -39.5 -135.5s-70.166 -55.5 -131.499 -69.5
s-147 -21 -257 -21s-195.667 7 -257 21z" />
    <glyph glyph-name="Edotaccent" unicode="&#x116;" horiz-adv-x="1175" 
d="M26 1360h1121v-473h-375v-48h298v-333h-298v-47h384v-459h-1130v1360zM385.5 1443.5c-41.667 26.333 -62.5 65.168 -62.5 116.501c0 52.667 20.667 91.834 62 117.501s110 38.5 206 38.5c96.667 0 165.667 -12.833 207 -38.5s62 -64.834 62 -117.501
s-20.667 -91.834 -62 -117.501s-110.333 -38.5 -207 -38.5c-95.333 0 -163.833 13.167 -205.5 39.5z" />
    <glyph glyph-name="edotaccent" unicode="&#x117;" 
d="M666 379l0.000976562 -77.001c0 -19.333 10 -29 30 -29c19.333 0 29 9.66699 29 29v18h619c-35.333 -118.667 -107.5 -208.167 -216.5 -268.5s-252.833 -90.5 -431.5 -90.5c-225.333 0 -395.666 48.333 -510.999 145s-173 239.334 -173 428.001v1
c0 188 57.667 329.833 173 425.5s285.666 143.5 510.999 143.5s395.666 -45.833 510.999 -137.5s173 -227.5 173 -407.5c0 -48 -6 -108 -18 -180h-696zM666.001 711.999v-73h59v73c0 19.333 -9.66699 29 -29 29c-20 0 -30 -9.66699 -30 -29zM496.501 1227.5
c-41.667 26.333 -62.5 65.168 -62.5 116.501c0 52.667 20.667 91.834 62 117.501s110 38.5 206 38.5c96.667 0 165.667 -12.833 207 -38.5s62 -64.834 62 -117.501s-20.667 -91.834 -62 -117.501s-110.333 -38.5 -207 -38.5c-95.333 0 -163.833 13.167 -205.5 39.5z" />
    <glyph glyph-name="Eogonek" unicode="&#x118;" horiz-adv-x="1175" 
d="M1177 -394c-94.667 -76.667 -240.333 -115 -437 -115c-127.333 0 -223.666 19.833 -288.999 59.5s-98 98.5 -98 176.5c0 50 17 98 51 144s84.333 89 151 129h-529v1360h1121v-473h-375v-48h298v-333h-298v-47h384v-459h1c-110 -82 -164.667 -130.333 -164 -145
c0 -15.333 8.33301 -23 25 -23c11.333 0 33.666 11.667 66.999 35z" />
    <glyph glyph-name="eogonek" unicode="&#x119;" 
d="M666 379l0.00195312 -77.001c0 -19.333 10 -29 30 -29c19.333 0 29 9.66699 29 29v18h619c-46.667 -157.333 -158.667 -263.333 -336 -318c-95.333 -73.333 -142.666 -116.333 -141.999 -129c0 -15.333 8.33301 -23 25 -23c11.333 0 33.666 11.667 66.999 35l92 -261
c-94.667 -76.667 -240.334 -115 -437.001 -115c-127.333 0 -223.666 19.833 -288.999 59.5s-98 98.5 -98 176.5c0 92 57 176.333 171 253c-127.333 36.667 -223.333 99.834 -288 189.501s-97 205.167 -97 346.5v1c0 188 57.667 329.833 173 425.5
s285.666 143.5 510.999 143.5s395.666 -45.833 510.999 -137.5s173 -227.5 173 -407.5c0 -48 -6 -108 -18 -180h-696zM666.002 711.999v-73h59v73c0 19.333 -9.66699 29 -29 29c-20 0 -30 -9.66699 -30 -29z" />
    <glyph glyph-name="Ecaron" unicode="&#x11a;" horiz-adv-x="1175" 
d="M26 1360h1121v-473h-375v-48h298v-333h-298v-47h384v-459h-1130v1360zM173 1699l384 1l33 -103l32 103l384 -1l-131 -294h-571z" />
    <glyph glyph-name="ecaron" unicode="&#x11b;" 
d="M666 379l0.000976562 -77.001c0 -19.333 10 -29 30 -29c19.333 0 29 9.66699 29 29v18h619c-35.333 -118.667 -107.5 -208.167 -216.5 -268.5s-252.833 -90.5 -431.5 -90.5c-225.333 0 -395.666 48.333 -510.999 145s-173 239.334 -173 428.001v1
c0 188 57.667 329.833 173 425.5s285.666 143.5 510.999 143.5s395.666 -45.833 510.999 -137.5s173 -227.5 173 -407.5c0 -48 -6 -108 -18 -180h-696zM666.001 711.999v-73h59v73c0 19.333 -9.66699 29 -29 29c-20 0 -30 -9.66699 -30 -29zM284.001 1483l384 1l33 -103
l32 103l384 -1l-131 -294h-571z" />
    <glyph glyph-name="Gcircumflex" unicode="&#x11c;" horiz-adv-x="1605" 
d="M215 140c-132.667 119.333 -199 296 -199 530v20c0 234.667 66.333 411.667 199 531s329 179 589 179c254.667 0 447 -49.667 577 -149s195.667 -246.666 197 -441.999v-5l-746 2v57c0 19.333 -9.66699 29 -29 29c-20 0 -30 -9.66699 -30 -29v-450
c0 -20.667 10.333 -30.334 31 -29.001c10 0 21 2.66699 33 8v43h-30l1 323h774v-643c-96.667 -50.667 -210.5 -89 -341.5 -115s-276.5 -39 -436.5 -39c-260 0 -456.333 59.667 -589 179zM388 1444l131 294h571l131 -294l-384 -1l-33 103l-32 -103z" />
    <glyph glyph-name="gcircumflex" unicode="&#x11d;" horiz-adv-x="1319" 
d="M247 -484c-88 20 -152.499 51.1699 -193.499 93.5029s-61.5 98.166 -61.5 167.499v37c0 45.333 11.167 80.666 33.5 105.999s58.833 44 109.5 56c-46.667 19.333 -80.334 45.5 -101.001 78.5s-31 77.167 -31 132.5v8c0 54.667 8.33301 101.334 25 140.001
s44.334 75.334 83.001 110.001c-28.667 32.667 -49.167 68.167 -61.5 106.5s-18.5 84.5 -18.5 138.5v10c1.33301 96.667 21.666 174.5 60.999 233.5s100.5 102.333 183.5 130s191.833 41.5 326.5 41.5c77.333 0 143.333 -4 198 -12s105.334 -21.333 152.001 -40
c18.667 21.333 40.667 36.666 66 45.999s58 14 98 14h182l1 -342l-95 1c-1.33301 25.333 -6.5 44.666 -15.5 57.999s-23.167 22.333 -42.5 27c8.66699 -23.333 15 -47 19 -71s6 -52 6 -84v-12c0 -94.667 -19.5 -171 -58.5 -229s-100.167 -100.667 -183.5 -128
s-193 -41 -329 -41c-52.667 0 -98 2.66699 -136 8l-10 -11v-11c0 -10.667 6.66699 -18.834 20 -24.501s35.666 -9.16699 66.999 -10.5c37.333 -1.33301 64 -2 80 -2c60.667 0 120.334 4.66699 179.001 14c62 9.33301 116 14 162 14c115.333 0 199.666 -27.833 252.999 -83.5
s81 -143.167 83 -262.5v-10c0 -102 -24 -184.167 -72 -246.5s-123.5 -108 -226.5 -137s-238.167 -43.5 -405.5 -43.5c-143.333 0 -259 10 -347 30zM623.501 628.003c4.33301 4 7.16602 11.333 8.49902 22s2 27.667 2 51v3c0 23.333 -0.666992 40.333 -2 51s-4 18 -8 22
s-10.333 6 -19 6s-15.167 -2 -19.5 -6s-7.16602 -11.333 -8.49902 -22s-2 -27.667 -2 -51v-3c0 -23.333 0.666992 -40.333 2 -51s4 -18 8 -22s10.333 -6 19 -6s15.167 2 19.5 6zM628.001 -170.497c5.33301 7 8.00098 18.833 8.00098 35.5v4c-0.666992 24 -3 41.333 -7 52
s-10.333 16 -19 16l-35 -2v-73c0 -15.333 2.16699 -26.333 6.5 -33s11.5 -10 21.5 -10c11.333 0 19.666 3.5 24.999 10.5zM188.002 1137l131 294h571l131 -294l-384 -1l-33 103l-32 -103z" />
    <glyph glyph-name="Gbreve" unicode="&#x11e;" horiz-adv-x="1605" 
d="M215 140c-132.667 119.333 -199 296 -199 530v20c0 234.667 66.333 411.667 199 531s329 179 589 179c254.667 0 447 -49.667 577 -149s195.667 -246.666 197 -441.999v-5l-746 2v57c0 19.333 -9.66699 29 -29 29c-20 0 -30 -9.66699 -30 -29v-450
c0 -20.667 10.333 -30.334 31 -29.001c10 0 21 2.66699 33 8v43h-30l1 323h774v-643c-96.667 -50.667 -210.5 -89 -341.5 -115s-276.5 -39 -436.5 -39c-260 0 -456.333 59.667 -589 179zM547.5 1466c-61.667 16.667 -105.833 44.5 -132.5 83.5s-40 93.5 -40 163.5v28h402
v-28c0.666992 -16.667 3 -28.334 7 -35.001s10.667 -10 20 -10c11.333 0 19.166 3.33301 23.499 10s6.5 18.334 6.5 35.001v28h398v-28c0 -70 -13.333 -124.5 -40 -163.5s-70.667 -66.833 -132 -83.5s-146.666 -25 -255.999 -25s-194.833 8.33301 -256.5 25z" />
    <glyph glyph-name="gbreve" unicode="&#x11f;" horiz-adv-x="1326" 
d="M254 -484c-88 20 -152.499 51.1699 -193.499 93.5029s-61.5 98.166 -61.5 167.499v37c0 45.333 11.167 80.666 33.5 105.999s58.833 44 109.5 56c-46.667 19.333 -80.334 45.5 -101.001 78.5s-31 77.167 -31 132.5v8c0 54.667 8.33301 101.334 25 140.001
s44.334 75.334 83.001 110.001c-28.667 32.667 -49.167 68.167 -61.5 106.5s-18.5 84.5 -18.5 138.5v10c1.33301 96.667 21.666 174.5 60.999 233.5s100.5 102.333 183.5 130s191.833 41.5 326.5 41.5c77.333 0 143.333 -4 198 -12s105.334 -21.333 152.001 -40
c18.667 21.333 40.667 36.666 66 45.999s58 14 98 14h182l1 -342l-95 1c-1.33301 25.333 -6.5 44.666 -15.5 57.999s-23.167 22.333 -42.5 27c8.66699 -23.333 15 -47 19 -71s6 -52 6 -84v-12c0 -94.667 -19.5 -171 -58.5 -229s-100.167 -100.667 -183.5 -128
s-193 -41 -329 -41c-52.667 0 -98 2.66699 -136 8l-10 -11v-11c0 -10.667 6.66699 -18.834 20 -24.501s35.666 -9.16699 66.999 -10.5c37.333 -1.33301 64 -2 80 -2c60.667 0 120.334 4.66699 179.001 14c62 9.33301 116 14 162 14c115.333 0 199.666 -27.833 252.999 -83.5
s81 -143.167 83 -262.5v-10c0 -102 -24 -184.167 -72 -246.5s-123.5 -108 -226.5 -137s-238.167 -43.5 -405.5 -43.5c-143.333 0 -259 10 -347 30zM630.501 628.003c4.33301 4 7.16602 11.333 8.49902 22s2 27.667 2 51v3c0 23.333 -0.666992 40.333 -2 51s-4 18 -8 22
s-10.333 6 -19 6s-15.167 -2 -19.5 -6s-7.16602 -11.333 -8.49902 -22s-2 -27.667 -2 -51v-3c0 -23.333 0.666992 -40.333 2 -51s4 -18 8 -22s10.333 -6 19 -6s15.167 2 19.5 6zM635.001 -170.497c5.33301 7 8.00098 18.833 8.00098 35.5v4c-0.666992 24 -3 41.333 -7 52
s-10.333 16 -19 16l-35 -2v-73c0 -15.333 2.16699 -26.333 6.5 -33s11.5 -10 21.5 -10c11.333 0 19.666 3.5 24.999 10.5zM352.502 1171c-61.667 16.667 -105.833 44.5 -132.5 83.5s-40 93.5 -40 163.5v28h402v-28c0.666992 -16.667 3 -28.334 7 -35.001s10.667 -10 20 -10
c11.333 0 19.166 3.33301 23.499 10s6.5 18.334 6.5 35.001v28h398v-28c0 -70 -13.333 -124.5 -40 -163.5s-70.667 -66.833 -132 -83.5s-146.666 -25 -255.999 -25s-194.833 8.33301 -256.5 25z" />
    <glyph glyph-name="Gdotaccent" unicode="&#x120;" horiz-adv-x="1605" 
d="M215 140c-132.667 119.333 -199 296 -199 530v20c0 234.667 66.333 411.667 199 531s329 179 589 179c254.667 0 447 -49.667 577 -149s195.667 -246.666 197 -441.999v-5l-746 2v57c0 19.333 -9.66699 29 -29 29c-20 0 -30 -9.66699 -30 -29v-450
c0 -20.667 10.333 -30.334 31 -29.001c10 0 21 2.66699 33 8v43h-30l1 323h774v-643c-96.667 -50.667 -210.5 -89 -341.5 -115s-276.5 -39 -436.5 -39c-260 0 -456.333 59.667 -589 179zM598.5 1483.5c-41.667 26.333 -62.5 65.168 -62.5 116.501
c0 52.667 20.667 91.834 62 117.501s110 38.5 206 38.5c96.667 0 165.667 -12.833 207 -38.5s62 -64.834 62 -117.501s-20.667 -91.834 -62 -117.501s-110.333 -38.5 -207 -38.5c-95.333 0 -163.833 13.167 -205.5 39.5z" />
    <glyph glyph-name="gdotaccent" unicode="&#x121;" horiz-adv-x="1326" 
d="M254 -484c-88 20 -152.499 51.1699 -193.499 93.5029s-61.5 98.166 -61.5 167.499v37c0 45.333 11.167 80.666 33.5 105.999s58.833 44 109.5 56c-46.667 19.333 -80.334 45.5 -101.001 78.5s-31 77.167 -31 132.5v8c0 54.667 8.33301 101.334 25 140.001
s44.334 75.334 83.001 110.001c-28.667 32.667 -49.167 68.167 -61.5 106.5s-18.5 84.5 -18.5 138.5v10c1.33301 96.667 21.666 174.5 60.999 233.5s100.5 102.333 183.5 130s191.833 41.5 326.5 41.5c77.333 0 143.333 -4 198 -12s105.334 -21.333 152.001 -40
c18.667 21.333 40.667 36.666 66 45.999s58 14 98 14h182l1 -342l-95 1c-1.33301 25.333 -6.5 44.666 -15.5 57.999s-23.167 22.333 -42.5 27c8.66699 -23.333 15 -47 19 -71s6 -52 6 -84v-12c0 -94.667 -19.5 -171 -58.5 -229s-100.167 -100.667 -183.5 -128
s-193 -41 -329 -41c-52.667 0 -98 2.66699 -136 8l-10 -11v-11c0 -10.667 6.66699 -18.834 20 -24.501s35.666 -9.16699 66.999 -10.5c37.333 -1.33301 64 -2 80 -2c60.667 0 120.334 4.66699 179.001 14c62 9.33301 116 14 162 14c115.333 0 199.666 -27.833 252.999 -83.5
s81 -143.167 83 -262.5v-10c0 -102 -24 -184.167 -72 -246.5s-123.5 -108 -226.5 -137s-238.167 -43.5 -405.5 -43.5c-143.333 0 -259 10 -347 30zM630.501 628.003c4.33301 4 7.16602 11.333 8.49902 22s2 27.667 2 51v3c0 23.333 -0.666992 40.333 -2 51s-4 18 -8 22
s-10.333 6 -19 6s-15.167 -2 -19.5 -6s-7.16602 -11.333 -8.49902 -22s-2 -27.667 -2 -51v-3c0 -23.333 0.666992 -40.333 2 -51s4 -18 8 -22s10.333 -6 19 -6s15.167 2 19.5 6zM635.001 -170.497c5.33301 7 8.00098 18.833 8.00098 35.5v4c-0.666992 24 -3 41.333 -7 52
s-10.333 16 -19 16l-35 -2v-73c0 -15.333 2.16699 -26.333 6.5 -33s11.5 -10 21.5 -10c11.333 0 19.666 3.5 24.999 10.5zM403.502 1188.5c-41.667 26.333 -62.5 65.168 -62.5 116.501c0 52.667 20.667 91.834 62 117.501s110 38.5 206 38.5
c96.667 0 165.667 -12.833 207 -38.5s62 -64.834 62 -117.501s-20.667 -91.834 -62 -117.501s-110.333 -38.5 -207 -38.5c-95.333 0 -163.833 13.167 -205.5 39.5z" />
    <glyph glyph-name="uni0122" unicode="&#x122;" horiz-adv-x="1605" 
d="M215 140c-132.667 119.333 -199 296 -199 530v20c0 234.667 66.333 411.667 199 531s329 179 589 179c254.667 0 447 -49.667 577 -149s195.667 -246.666 197 -441.999v-5l-746 2v57c0 19.333 -9.66699 29 -29 29c-20 0 -30 -9.66699 -30 -29v-450
c0 -20.667 10.333 -30.334 31 -29.001c10 0 21 2.66699 33 8v43h-30l1 323h774v-643c-96.667 -50.667 -210.5 -89 -341.5 -115s-276.5 -39 -436.5 -39c-260 0 -456.333 59.667 -589 179zM497 -82h625l-159 -357h-514z" />
    <glyph glyph-name="uni0123" unicode="&#x123;" horiz-adv-x="1326" 
d="M254 -484c-88 20 -152.499 51.1699 -193.499 93.5029s-61.5 98.166 -61.5 167.499v37c0 45.333 11.167 80.666 33.5 105.999s58.833 44 109.5 56c-46.667 19.333 -80.334 45.5 -101.001 78.5s-31 77.167 -31 132.5v8c0 54.667 8.33301 101.334 25 140.001
s44.334 75.334 83.001 110.001c-28.667 32.667 -49.167 68.167 -61.5 106.5s-18.5 84.5 -18.5 138.5v10c1.33301 96.667 21.666 174.5 60.999 233.5s100.5 102.333 183.5 130s191.833 41.5 326.5 41.5c77.333 0 143.333 -4 198 -12s105.334 -21.333 152.001 -40
c18.667 21.333 40.667 36.666 66 45.999s58 14 98 14h182l1 -342l-95 1c-1.33301 25.333 -6.5 44.666 -15.5 57.999s-23.167 22.333 -42.5 27c8.66699 -23.333 15 -47 19 -71s6 -52 6 -84v-12c0 -94.667 -19.5 -171 -58.5 -229s-100.167 -100.667 -183.5 -128
s-193 -41 -329 -41c-52.667 0 -98 2.66699 -136 8l-10 -11v-11c0 -10.667 6.66699 -18.834 20 -24.501s35.666 -9.16699 66.999 -10.5c37.333 -1.33301 64 -2 80 -2c60.667 0 120.334 4.66699 179.001 14c62 9.33301 116 14 162 14c115.333 0 199.666 -27.833 252.999 -83.5
s81 -143.167 83 -262.5v-10c0 -102 -24 -184.167 -72 -246.5s-123.5 -108 -226.5 -137s-238.167 -43.5 -405.5 -43.5c-143.333 0 -259 10 -347 30zM630.501 628.003c4.33301 4 7.16602 11.333 8.49902 22s2 27.667 2 51v3c0 23.333 -0.666992 40.333 -2 51s-4 18 -8 22
s-10.333 6 -19 6s-15.167 -2 -19.5 -6s-7.16602 -11.333 -8.49902 -22s-2 -27.667 -2 -51v-3c0 -23.333 0.666992 -40.333 2 -51s4 -18 8 -22s10.333 -6 19 -6s15.167 2 19.5 6zM635.001 -170.497c5.33301 7 8.00098 18.833 8.00098 35.5v4c-0.666992 24 -3 41.333 -7 52
s-10.333 16 -19 16l-35 -2v-73c0 -15.333 2.16699 -26.333 6.5 -33s11.5 -10 21.5 -10c11.333 0 19.666 3.5 24.999 10.5zM450.002 1465h514l-48 -317h-625z" />
    <glyph glyph-name="Hcircumflex" unicode="&#x124;" horiz-adv-x="1542" 
d="M26 1360h716v-455h56v455h718v-1360h-718v440h-56v-440h-716v1360zM355 1404l131 294h571l131 -294l-384 -1l-33 103l-32 -103z" />
    <glyph glyph-name="hcircumflex" unicode="&#x125;" horiz-adv-x="1415" 
d="M25 1359l721.999 -0.000976562v-283c44.667 10.667 85.334 18.167 122.001 22.5s81 6.5 133 6.5c98 0 174.167 -16.833 228.5 -50.5s93.333 -89.5 117 -167.5s35.5 -187 35.5 -327v-560h-657v549c0 38.667 -2.16699 65.334 -6.5 80.001s-11.833 22 -22.5 22
s-18 -7.5 -22 -22.5s-6 -42.5 -6 -82.5v-546h-644v1359zM-25.001 1401l131 294h571l131 -294l-384 -1l-33 103l-32 -103z" />
    <glyph glyph-name="Hbar" unicode="&#x126;" horiz-adv-x="1546" 
d="M29 1360h713v-107h61v107h716v-1360h-716v516h-61v-516h-713v1360zM803 814v144h-61v-144h61z" />
    <glyph glyph-name="hbar" unicode="&#x127;" horiz-adv-x="1415" 
d="M1230.5 1054.5c54.333 -33.667 93.332 -89.501 116.999 -167.501s35.5 -187 35.5 -327v-560h-657v549c0 38.667 -2.16699 65.334 -6.5 80.001s-11.833 22 -22.5 22s-18 -7.5 -22 -22.5s-6 -42.5 -6 -82.5v-546h-644v1126h-52v193h52v40h722v-40h123v-193h-123v-50
c44.667 10.667 85.334 18.167 122.001 22.5s81 6.5 133 6.5c98 0 174.167 -16.833 228.5 -50.5z" />
    <glyph glyph-name="Itilde" unicode="&#x128;" horiz-adv-x="788" 
d="M26 1360h736v-1360h-736v1360zM-24 1481c0.666992 0 1 -10 1 -30c0 102.667 24.5 180.167 73.5 232.5s121.5 78.5 217.5 78.5c112.667 0 179 -25.667 199 -77l2 -5c10 -24 24.333 -36 43 -36c19.333 0 29 15 29 45v46l265 -1v-68c-0.666992 0 -1 7.66699 -1 23
c0 -100.667 -24.5 -176.667 -73.5 -228s-121.5 -77 -217.5 -77c-106.667 0 -172.667 25.333 -198 76l-3 6c-12 24 -26.333 36 -43 36c-19.333 0 -29 -16 -29 -48v-43l-265 1v69z" />
    <glyph glyph-name="itilde" unicode="&#x129;" horiz-adv-x="769" 
d="M26 1065h717v-1065h-717v1065zM-27 1186c0.666992 0 1 -10 1 -30c0 102.667 24.5 180.167 73.5 232.5s121.5 78.5 217.5 78.5c112.667 0 179 -25.667 199 -77l2 -5c10 -24 24.333 -36 43 -36c19.333 0 29 15 29 45v46l265 -1v-68c-0.666992 0 -1 7.66699 -1 23
c0 -100.667 -24.5 -176.667 -73.5 -228s-121.5 -77 -217.5 -77c-106.667 0 -172.667 25.333 -198 76l-3 6c-12 24 -26.333 36 -43 36c-19.333 0 -29 -16 -29 -48v-43l-265 1v69z" />
    <glyph glyph-name="Imacron" unicode="&#x12a;" horiz-adv-x="788" 
d="M26 1360h736v-1360h-736v1360zM24 1699h736v-295h-736v295z" />
    <glyph glyph-name="imacron" unicode="&#x12b;" horiz-adv-x="769" 
d="M26 1065h717v-1065h-717v1065zM21 1404h736v-295h-736v295z" />
    <glyph glyph-name="Ibreve" unicode="&#x12c;" horiz-adv-x="788" 
d="M26 1360h736v-1360h-736v1360zM135.5 1426c-61.667 16.667 -105.833 44.5 -132.5 83.5s-40 93.5 -40 163.5v28h402v-28c0.666992 -16.667 3 -28.334 7 -35.001s10.667 -10 20 -10c11.333 0 19.166 3.33301 23.499 10s6.5 18.334 6.5 35.001v28h398v-28
c0 -70 -13.333 -124.5 -40 -163.5s-70.667 -66.833 -132 -83.5s-146.666 -25 -255.999 -25s-194.833 8.33301 -256.5 25z" />
    <glyph glyph-name="ibreve" unicode="&#x12d;" horiz-adv-x="769" 
d="M26 1065h717v-1065h-717v1065zM132.5 1131c-61.667 16.667 -105.833 44.5 -132.5 83.5s-40 93.5 -40 163.5v28h402v-28c0.666992 -16.667 3 -28.334 7 -35.001s10.667 -10 20 -10c11.333 0 19.166 3.33301 23.499 10s6.5 18.334 6.5 35.001v28h398v-28
c0 -70 -13.333 -124.5 -40 -163.5s-70.667 -66.833 -132 -83.5s-146.666 -25 -255.999 -25s-194.833 8.33301 -256.5 25z" />
    <glyph glyph-name="Iogonek" unicode="&#x12e;" horiz-adv-x="788" 
d="M782 -392c-94.667 -76.667 -240.333 -114.999 -437 -114.999c-127.333 0 -223.666 19.833 -288.999 59.5s-98 98.5 -98 176.5c0 100 66.333 190.333 199 271h-131v1360h736v-1360h-3c-108 -80.667 -161.667 -128.334 -161 -143.001c0 -15.333 8.33301 -23 25 -23
c11.333 0 33.666 11.667 66.999 35z" />
    <glyph glyph-name="iogonek" unicode="&#x12f;" horiz-adv-x="773" 
d="M154.5 1067c-55 13.333 -94.332 35.666 -117.999 66.999s-35.5 74.666 -35.5 129.999c0 56 12 99.667 36 131s63.5 53.666 118.5 66.999s132.167 20 231.5 20s176.666 -6.66699 231.999 -20s95 -35.666 119 -66.999s36 -75 36 -131c0 -55.333 -12 -98.666 -36 -129.999
s-63.833 -53.666 -119.5 -66.999s-133.5 -20 -233.5 -20c-98.667 0 -175.5 6.66699 -230.5 20zM675.001 -133l92.0029 -260.999c-94.667 -76.667 -240.334 -115 -437.001 -115c-127.333 0 -223.666 19.833 -288.999 59.5s-98 98.5 -98 176.5c0 50 17 98 51 144
s84.333 89 151 129h-119v1043c123.333 -18 246.666 -27 369.999 -27c70 0 135.667 2.66699 197 8s112.666 11.666 153.999 18.999v-1043c-110 -82 -164.667 -130.333 -164 -145c0 -15.333 8.33301 -23 25 -23c11.333 0 33.666 11.667 66.999 35z" />
    <glyph glyph-name="Idotaccent" unicode="&#x130;" horiz-adv-x="788" 
d="M26 1360h736v-1360h-736v1360zM186.5 1443.5c-41.667 26.333 -62.5 65.168 -62.5 116.501c0 52.667 20.667 91.834 62 117.501s110 38.5 206 38.5c96.667 0 165.667 -12.833 207 -38.5s62 -64.834 62 -117.501s-20.667 -91.834 -62 -117.501s-110.333 -38.5 -207 -38.5
c-95.333 0 -163.833 13.167 -205.5 39.5z" />
    <glyph glyph-name="dotlessi" unicode="&#x131;" horiz-adv-x="769" 
d="M26 1065h717v-1065h-717v1065z" />
    <glyph glyph-name="IJ" unicode="&#x132;" horiz-adv-x="1570" 
d="M26 468h728c19.333 0 33.833 5 43.5 15s14.5 26 14.5 48l1 829h732v-876c0 -104.667 -19 -193.167 -57 -265.5s-92 -126.833 -162 -163.5s-152.333 -55 -247 -55h-1053v468zM26 1360h736v-845h-736v845z" />
    <glyph glyph-name="ij" unicode="&#x133;" horiz-adv-x="1546" 
d="M154.5 1067c-55 13.333 -94.332 35.666 -117.999 66.999s-35.5 74.666 -35.5 129.999c0 56 12 99.667 36 131s63.5 53.666 118.5 66.999s132.167 20 231.5 20s176.666 -6.66699 231.999 -20s95 -35.666 119 -66.999s36 -75 36 -131c0 -55.333 -12 -98.666 -36 -129.999
s-63.833 -53.666 -119.5 -66.999s-133.5 -20 -233.5 -20c-98.667 0 -175.5 6.66699 -230.5 20zM927.501 1067c-55 13.333 -94.332 35.666 -117.999 66.999s-35.5 74.666 -35.5 129.999c0 56 12 99.667 36 131s63.5 53.666 118.5 66.999s132.167 20 231.5 20
s176.666 -6.66699 231.999 -20s95 -35.666 119 -66.999s36 -75 36 -131c0 -55.333 -12 -98.666 -36 -129.999s-63.833 -53.666 -119.5 -66.999s-133.5 -20 -233.5 -20c-98.667 0 -175.5 6.66699 -230.5 20zM26.002 1043c123.333 -18 246.668 -26.999 370.001 -26.999
c70 0 135.667 2.66699 197 8s112.666 11.666 153.999 18.999v-1043h-721v1043zM689.004 -42.999l41.002 0.00195312c27.333 0 45.666 4.66699 54.999 14s14 27.666 14 54.999v1017c123.333 -18 246.666 -27 369.999 -27c70 0 135.667 2.66699 197 8
s112.666 11.666 153.999 18.999v-983c0 -132.667 -21.167 -231.5 -63.5 -296.5s-106.666 -107.833 -192.999 -128.5s-209.833 -31 -370.5 -31h-204v353z" />
    <glyph glyph-name="Jcircumflex" unicode="&#x134;" horiz-adv-x="956" 
d="M18 468h124c19.333 0 33.833 5 43.5 15s14.5 26 14.5 48l1 829h732v-876c0 -159.333 -39.167 -279.833 -117.5 -361.5s-194.5 -122.5 -348.5 -122.5h-449v468zM155 1404l131 294h571l131 -294l-384 -1l-33 103l-32 -103z" />
    <glyph glyph-name="jcircumflex" unicode="&#x135;" horiz-adv-x="769" 
d="M-84 -43l41.002 0.00195312c27.333 0 45.666 4.66699 54.999 14s14 27.666 14 54.999v1039h718v-1005c0 -132 -20.833 -230.333 -62.5 -295s-105.334 -107.334 -191.001 -128.001s-209.167 -31 -370.5 -31h-204v351zM-28.998 1109l131 294h571l131 -294l-384 -1l-33 103
l-32 -103z" />
    <glyph glyph-name="uni0136" unicode="&#x136;" horiz-adv-x="1605" 
d="M26 1360h736l-14 -461h22l54 461h776l-175 -680l181 -680h-782l-54 436l-21 1l13 -437h-736v1360zM481 -43h625l-159 -357h-514z" />
    <glyph glyph-name="uni0137" unicode="&#x137;" horiz-adv-x="1518" 
d="M26 1360h734l-46 -663l23 7l63 361h697l-147 -479l162 -586h-712l-65 338l-21 6l19 -344h-707v1360zM456 -43h625l-159 -357h-514z" />
    <glyph glyph-name="kgreenlandic" unicode="&#x138;" horiz-adv-x="1518" 
d="M26 1065h717l-26 -359l20 6l63 353h697l-147 -471l162 -594h-712l-65 346l-21 6l19 -352h-707v1065z" />
    <glyph glyph-name="Lacute" unicode="&#x139;" horiz-adv-x="1080" 
d="M26 1360h736v-855h300v-505h-1036v1360zM230 1699h569l-174 -296h-495z" />
    <glyph glyph-name="lacute" unicode="&#x13a;" horiz-adv-x="773" 
d="M26 1360h721v-1360h-721v1360zM219 1699h569l-174 -296h-495z" />
    <glyph glyph-name="uni013B" unicode="&#x13b;" horiz-adv-x="1080" 
d="M26 1360h736v-855h300v-505h-1036v1360zM238 -43h625l-159 -357h-514z" />
    <glyph glyph-name="uni013C" unicode="&#x13c;" horiz-adv-x="773" 
d="M26 1360h721v-1360h-721v1360zM80 -43h625l-159 -357h-514z" />
    <glyph glyph-name="Lcaron" unicode="&#x13d;" horiz-adv-x="1430" 
d="M26 1360h736v-855h300v-505h-1036v1360zM885.5 864.5c19 43.667 28.5 91.8311 28.5 144.498h-104l-1 351h604v-307c0 -76 -10.833 -141.167 -32.5 -195.5s-48.167 -102.166 -79.5 -143.499h-500c37.333 56.667 65.5 106.834 84.5 150.501z" />
    <glyph glyph-name="lcaron" unicode="&#x13e;" horiz-adv-x="1280" 
d="M775 870l4 491l498 1l-40 -493zM26 1360h721v-1360h-721v1360z" />
    <glyph glyph-name="Ldot" unicode="&#x13f;" horiz-adv-x="1139" 
d="M27 1360h736v-387c-20.667 0 -43.5 -5.66699 -68.5 -17s-46.5 -29 -64.5 -53s-27 -53.333 -27 -88c0 -33.333 8.83301 -61.5 26.5 -84.5s39 -40.333 64 -52s48.167 -17.5 69.5 -17.5v-156h300v-505h-1036v1360zM700 713c-36 22 -54 55.333 -54 100c0 46 18 80.333 54 103
s95.333 34 178 34c83.333 0 143 -11.333 179 -34s54 -57 54 -103s-17.667 -79.667 -53 -101s-95.333 -32 -180 -32c-82.667 0 -142 11 -178 33z" />
    <glyph glyph-name="ldot" unicode="&#x140;" horiz-adv-x="1218" 
d="M26 1360h721v-1360h-721v1360zM821.5 539c-34.333 28.667 -51.5 71 -51.5 127c0 57.333 17.167 100 51.5 128s91.166 42 170.499 42c80 0 137.167 -14 171.5 -42s51.5 -70.667 51.5 -128c0 -58 -17.167 -100.833 -51.5 -128.5s-91.5 -41.5 -171.5 -41.5
c-79.333 0 -136.166 14.333 -170.499 43z" />
    <glyph glyph-name="Lslash" unicode="&#x141;" horiz-adv-x="1067" 
d="M1062 505v-505h-1036v565l-39 -12v249l39 12v546h736v-320l95 29v-249l-95 -29v-286h300z" />
    <glyph glyph-name="lslash" unicode="&#x142;" horiz-adv-x="811" 
d="M747 786l0.000976562 -252c0 -9.33301 2.66699 -17 8 -23s12.333 -9 21 -9l16 -1v-502h-441c-62 0 -115.333 7.66699 -160 23s-83.334 53.5 -116.001 114.5s-49 154.167 -49 279.5v149l-39 -12v249l39 12v546h721v-325l56 17v-249z" />
    <glyph glyph-name="Nacute" unicode="&#x143;" horiz-adv-x="1521" 
d="M26 1360h773l32 -131l88 -358l33 3l-84 486h627v-1360h-774l-32 123l-111 501h-33l100 -624h-619v1360zM609 1699h569l-174 -296h-495z" />
    <glyph glyph-name="nacute" unicode="&#x144;" horiz-adv-x="1409" 
d="M25 1065l585.002 0.00195312l71 -103c27.333 41.333 68.166 75.5 122.499 102.5s120.5 40.5 198.5 40.5c133.333 0 230.166 -44.5 290.499 -133.5s90.5 -226.167 90.5 -411.5v-560h-657v549c0 32.667 -1.16699 56.167 -3.5 70.5s-5.33301 23.166 -9 26.499
s-9.16699 5 -16.5 5c-8.66699 0 -15 -3 -19 -9s-6.5 -15.833 -7.5 -29.5s-1.5 -35.834 -1.5 -66.501v-546h-644v1065zM523.002 1424h569l-174 -296h-495z" />
    <glyph glyph-name="uni0145" unicode="&#x145;" horiz-adv-x="1521" 
d="M26 1360h773l32 -131l88 -358l33 3l-84 486h627v-1360h-774l-32 123l-111 501h-33l100 -624h-619v1360zM453 -43h625l-159 -357h-514z" />
    <glyph glyph-name="uni0146" unicode="&#x146;" horiz-adv-x="1409" 
d="M25 1065l585.002 0.00195312l71 -103c27.333 41.333 68.166 75.5 122.499 102.5s120.5 40.5 198.5 40.5c133.333 0 230.166 -44.5 290.499 -133.5s90.5 -226.167 90.5 -411.5v-560h-657v549c0 32.667 -1.16699 56.167 -3.5 70.5s-5.33301 23.166 -9 26.499
s-9.16699 5 -16.5 5c-8.66699 0 -15 -3 -19 -9s-6.5 -15.833 -7.5 -29.5s-1.5 -35.834 -1.5 -66.501v-546h-644v1065zM390.002 -42.998h625l-159 -357h-514z" />
    <glyph glyph-name="Ncaron" unicode="&#x147;" horiz-adv-x="1521" 
d="M26 1360h773l32 -131l88 -358l33 3l-84 486h627v-1360h-774l-32 123l-111 501h-33l100 -624h-619v1360zM361 1699l384 1l33 -103l32 103l384 -1l-131 -294h-571z" />
    <glyph glyph-name="ncaron" unicode="&#x148;" horiz-adv-x="1409" 
d="M25 1065l585.002 0.00195312l71 -103c27.333 41.333 68.166 75.5 122.499 102.5s120.5 40.5 198.5 40.5c133.333 0 230.166 -44.5 290.499 -133.5s90.5 -226.167 90.5 -411.5v-560h-657v549c0 32.667 -1.16699 56.167 -3.5 70.5s-5.33301 23.166 -9 26.499
s-9.16699 5 -16.5 5c-8.66699 0 -15 -3 -19 -9s-6.5 -15.833 -7.5 -29.5s-1.5 -35.834 -1.5 -66.501v-546h-644v1065zM275.002 1424l384 1l33 -103l32 103l384 -1l-131 -294h-571z" />
    <glyph glyph-name="napostrophe" unicode="&#x149;" horiz-adv-x="1933" 
d="M13 1400h577l-93 -491l-484 -1v492zM549 1065l585.002 0.00195312l71 -103c27.333 41.333 68.166 75.5 122.499 102.5s120.5 40.5 198.5 40.5c133.333 0 230.166 -44.5 290.499 -133.5s90.5 -226.167 90.5 -411.5v-560h-657v549c0 32.667 -1.16699 56.167 -3.5 70.5
s-5.33301 23.166 -9 26.499s-9.16699 5 -16.5 5c-8.66699 0 -15 -3 -19 -9s-6.5 -15.833 -7.5 -29.5s-1.5 -35.834 -1.5 -66.501v-546h-644v1065z" />
    <glyph glyph-name="Eng" unicode="&#x14a;" horiz-adv-x="1521" 
d="M580 -66l124 -0.000976562c17.333 0 31.5 4.33301 42.5 13s16.5 20.667 16.5 36c0 4.66699 -0.333008 8.33398 -1 11.001l-2 14l-246 532h-12l180 -540h-656v1360h735l32 -77l214 -463h12l-180 540h656v-1410c0 -104.667 -19 -193.167 -57 -265.5
s-92 -126.833 -162 -163.5s-152.333 -55 -247 -55h-449v468z" />
    <glyph glyph-name="eng" unicode="&#x14b;" horiz-adv-x="1409" 
d="M618 -107l40.0039 0.00292969c27.333 0 45.666 4.66699 54.999 14s14 27.666 14 54.999l-1 587c0 32.667 -1.16699 56.167 -3.5 70.5s-5.33301 23.166 -9 26.499s-9.16699 5 -16.5 5c-8.66699 0 -15 -3 -19 -9s-6.5 -15.833 -7.5 -29.5s-1.5 -35.834 -1.5 -66.501v-546
h-644v1065h585l71 -103c27.333 41.333 68.166 75.5 122.499 102.5s120.5 40.5 198.5 40.5c133.333 0 230.166 -44.5 290.499 -133.5s90.5 -226.167 90.5 -411.5v-494c0 -134.667 -19.667 -238 -59 -310s-101.833 -122.167 -187.5 -150.5s-204.834 -42.5 -357.501 -42.5h-161
v330z" />
    <glyph glyph-name="Omacron" unicode="&#x14c;" horiz-adv-x="1610" 
d="M215 1219c132.667 120.667 329.334 181 590.001 181s457.334 -60.333 590.001 -181s199 -299.334 199 -536.001c0 -238 -66.333 -417.833 -199 -539.5s-329.334 -182.5 -590.001 -182.5s-457.334 60.833 -590.001 182.5s-199 301.5 -199 539.5
c0 236.667 66.333 415.334 199 536.001zM805 554c18.667 0 28 9.66699 28 29v200c0 19.333 -9.33301 29 -28 29s-28 -9.66699 -28 -29v-200c0 -19.333 9.33301 -29 28 -29zM437 1739h736v-295h-736v295z" />
    <glyph glyph-name="omacron" unicode="&#x14d;" horiz-adv-x="1404" 
d="M191 100c-115.333 92.667 -173 230 -173 412v40c0 182 57.667 319.5 173 412.5s285.666 139.5 510.999 139.5s395.666 -46.333 510.999 -139s173 -230 173 -412v-41c0 -182 -57.667 -319.333 -173 -412s-285.666 -139 -510.999 -139s-395.666 46.333 -510.999 139z
M731 472v120c0 32.667 -9.66699 49 -29 49c-20 0 -30 -16.333 -30 -49v-120c0 -32.667 10 -49 30 -49c19.333 0 29 16.333 29 49zM334 1443h736v-295h-736v295z" />
    <glyph glyph-name="Obreve" unicode="&#x14e;" horiz-adv-x="1610" 
d="M215 1219c132.667 120.667 329.334 181 590.001 181s457.334 -60.333 590.001 -181s199 -299.334 199 -536.001c0 -238 -66.333 -417.833 -199 -539.5s-329.334 -182.5 -590.001 -182.5s-457.334 60.833 -590.001 182.5s-199 301.5 -199 539.5
c0 236.667 66.333 415.334 199 536.001zM805 554c18.667 0 28 9.66699 28 29v200c0 19.333 -9.33301 29 -28 29s-28 -9.66699 -28 -29v-200c0 -19.333 9.33301 -29 28 -29zM548.5 1466c-61.667 16.667 -105.833 44.5 -132.5 83.5s-40 93.5 -40 163.5v28h402v-28
c0.666992 -16.667 3 -28.334 7 -35.001s10.667 -10 20 -10c11.333 0 19.166 3.33301 23.499 10s6.5 18.334 6.5 35.001v28h398v-28c0 -70 -13.333 -124.5 -40 -163.5s-70.667 -66.833 -132 -83.5s-146.666 -25 -255.999 -25s-194.833 8.33301 -256.5 25z" />
    <glyph glyph-name="obreve" unicode="&#x14f;" horiz-adv-x="1396" 
d="M191 100c-115.333 92.667 -173 230 -173 412v40c0 182 57.667 319.5 173 412.5s285.666 139.5 510.999 139.5s395.666 -46.333 510.999 -139s173 -230 173 -412v-41c0 -182 -57.667 -319.333 -173 -412s-285.666 -139 -510.999 -139s-395.666 46.333 -510.999 139z
M731 472v120c0 32.667 -9.66699 49 -29 49c-20 0 -30 -16.333 -30 -49v-120c0 -32.667 10 -49 30 -49c19.333 0 29 16.333 29 49zM440.5 1167c-61.667 16.667 -105.833 44.5 -132.5 83.5s-40 93.5 -40 163.5v28h402v-28c0.666992 -16.667 3 -28.334 7 -35.001
s10.667 -10 20 -10c11.333 0 19.166 3.33301 23.499 10s6.5 18.334 6.5 35.001v28h398v-28c0 -70 -13.333 -124.5 -40 -163.5s-70.667 -66.833 -132 -83.5s-146.666 -25 -255.999 -25s-194.833 8.33301 -256.5 25z" />
    <glyph glyph-name="Ohungarumlaut" unicode="&#x150;" horiz-adv-x="1610" 
d="M215 1219c132.667 120.667 329.334 181 590.001 181s457.334 -60.333 590.001 -181s199 -299.334 199 -536.001c0 -238 -66.333 -417.833 -199 -539.5s-329.334 -182.5 -590.001 -182.5s-457.334 60.833 -590.001 182.5s-199 301.5 -199 539.5
c0 236.667 66.333 415.334 199 536.001zM805 554c18.667 0 28 9.66699 28 29v200c0 19.333 -9.33301 29 -28 29s-28 -9.66699 -28 -29v-200c0 -19.333 9.33301 -29 28 -29zM586 1738h357l-174 -295h-283zM956 1738h357l-174 -295h-283z" />
    <glyph glyph-name="ohungarumlaut" unicode="&#x151;" horiz-adv-x="1404" 
d="M191 100c-115.333 92.667 -173 230 -173 412v40c0 182 57.667 319.5 173 412.5s285.666 139.5 510.999 139.5s395.666 -46.333 510.999 -139s173 -230 173 -412v-41c0 -182 -57.667 -319.333 -173 -412s-285.666 -139 -510.999 -139s-395.666 46.333 -510.999 139z
M731 472v120c0 32.667 -9.66699 49 -29 49c-20 0 -30 -16.333 -30 -49v-120c0 -32.667 10 -49 30 -49c19.333 0 29 16.333 29 49zM483 1442h357l-174 -295h-283zM853 1442h357l-174 -295h-283z" />
    <glyph glyph-name="OE" unicode="&#x152;" horiz-adv-x="2003" 
d="M215 144.5c-132.667 122.333 -199.001 303.167 -199.001 542.5v14c3.33301 230.667 71.333 404.834 204 522.501s327.334 176.5 584.001 176.5c22 0 49.833 -1.83301 83.5 -5.5s67.5 -7.83398 101.5 -12.501c50.667 -7.33301 94.334 -12.833 131.001 -16.5
s71 -5.5 103 -5.5h752v-473h-375v-48h298v-333h-298v-47h384v-459h-768c-30.667 -0 -62.834 -1.66699 -96.501 -5s-78.167 -8.66602 -133.5 -15.999c-34 -4.66699 -67.5 -8.83398 -100.5 -12.501s-60.167 -5.5 -81.5 -5.5c-260 0 -456.333 61.167 -589 183.5z
M831.999 583.001v200c0 19.333 -9.66699 29 -29 29c-20 0 -30 -9.66699 -30 -29v-200c0 -19.333 10 -29 30 -29c19.333 0 29 9.66699 29 29z" />
    <glyph glyph-name="oe" unicode="&#x153;" horiz-adv-x="2109" 
d="M185 100c-115.333 92.667 -172.999 230 -172.999 412v40c0 182 57.667 319.5 173 412.5s285.666 139.5 510.999 139.5c158 0 282.333 -22.333 373 -67c93.333 44.667 208 67 344 67c225.333 0 395.666 -45.833 510.999 -137.5s173 -227.5 173 -407.5
c0 -48 -6 -108 -18 -180h-696v-77c0 -19.333 10 -29 30 -29c19.333 0 29 9.66699 29 29v18h619c-35.333 -118.667 -107.5 -208.167 -216.5 -268.5s-252.833 -90.5 -431.5 -90.5c-134.667 0 -248.667 22.333 -342 67c-90.667 -44.667 -215.667 -67 -375 -67
c-225.333 0 -395.666 46.333 -510.999 139zM1442 619v73c0 19.333 -9.66699 29 -29 29c-20 0 -30 -9.66699 -30 -29v-73h59zM725.001 472v120c0 32.667 -9.66699 49 -29 49c-20 0 -30 -16.333 -30 -49v-120c0 -32.667 10 -49 30 -49c19.333 0 29 16.333 29 49z" />
    <glyph glyph-name="Racute" unicode="&#x154;" horiz-adv-x="1492" 
d="M784 0l-21 381.999h-40v-382h-697v1360h696c166 0 302 -12.667 408 -38s189.333 -75.666 250 -150.999s91 -185.333 91 -330v-12c0 -140.667 -42 -247 -126 -319l132 -510h-693zM745 752.999c14.667 0 24.5 3.66699 29.5 11s7.5 22 7.5 44v11c0 24 -2.5 39.833 -7.5 47.5
s-16.167 11.5 -33.5 11.5h-17v-125h21zM577 1699h569l-174 -296h-495z" />
    <glyph glyph-name="racute" unicode="&#x155;" horiz-adv-x="976" 
d="M25 1065h566l89 -83c33.333 65.333 86.333 98 159 98c47.333 0 89 -5 125 -15v-459h-72c-96.667 0 -145 -52.333 -145 -157v-449h-722v1065zM332 1404h569l-174 -296h-495z" />
    <glyph glyph-name="uni0156" unicode="&#x156;" horiz-adv-x="1492" 
d="M784 0l-21 381.999h-40v-382h-697v1360h696c166 0 302 -12.667 408 -38s189.333 -75.666 250 -150.999s91 -185.333 91 -330v-12c0 -140.667 -42 -247 -126 -319l132 -510h-693zM745 752.999c14.667 0 24.5 3.66699 29.5 11s7.5 22 7.5 44v11c0 24 -2.5 39.833 -7.5 47.5
s-16.167 11.5 -33.5 11.5h-17v-125h21zM440 -43.001h625l-159 -357h-514z" />
    <glyph glyph-name="uni0157" unicode="&#x157;" horiz-adv-x="976" 
d="M25 1065h566l89 -83c33.333 65.333 86.333 98 159 98c47.333 0 89 -5 125 -15v-459h-72c-96.667 0 -145 -52.333 -145 -157v-449h-722v1065zM103 -43h625l-159 -357h-514z" />
    <glyph glyph-name="Rcaron" unicode="&#x158;" horiz-adv-x="1492" 
d="M784 0l-21 381.999h-40v-382h-697v1360h696c166 0 302 -12.667 408 -38s189.333 -75.666 250 -150.999s91 -185.333 91 -330v-12c0 -140.667 -42 -247 -126 -319l132 -510h-693zM745 752.999c14.667 0 24.5 3.66699 29.5 11s7.5 22 7.5 44v11c0 24 -2.5 39.833 -7.5 47.5
s-16.167 11.5 -33.5 11.5h-17v-125h21zM329 1699l384 1l33 -103l32 103l384 -1l-131 -294h-571z" />
    <glyph glyph-name="rcaron" unicode="&#x159;" horiz-adv-x="976" 
d="M25 1065h566l89 -83c33.333 65.333 86.333 98 159 98c47.333 0 89 -5 125 -15v-459h-72c-96.667 0 -145 -52.333 -145 -157v-449h-722v1065zM84 1404l384 1l33 -103l32 103l384 -1l-131 -294h-571z" />
    <glyph glyph-name="Sacute" unicode="&#x15a;" horiz-adv-x="1428" 
d="M22 444l-0.000976562 6h655v-13c2 -19.333 12 -29 30 -29c9.33301 0 16.5 3 21.5 9s7.5 12.667 7.5 20c0 4 -2.16699 8.66699 -6.5 14s-10.5 8.66602 -18.5 9.99902c-16.667 2.66699 -41 5.66699 -73 9c-104 11.333 -197.667 27.666 -281 48.999
s-159.166 62.833 -227.499 124.5s-102.5 148.834 -102.5 261.501v4c4.66699 174.667 62 300.167 172 376.5s272 114.5 486 114.5c155.333 0 284.5 -20.333 387.5 -61s179.333 -97.167 229 -169.5s74.834 -157.166 75.501 -254.499v-4h-629v12
c0 6.66699 -2.66699 12.834 -8 18.501s-12.333 8.5 -21 8.5s-15.834 -2.83301 -21.501 -8.5s-8.5 -12.5 -8.5 -20.5c0 -4 3.33301 -9.5 10 -16.5s14 -11.167 22 -12.5s33.333 -4 76 -8c103.333 -8 196.833 -22.5 280.5 -43.5s159.334 -65.5 227.001 -133.5
s101.5 -167 101.5 -297v-5c-3.33301 -98.667 -33.333 -181.334 -90 -248.001s-133.834 -116.5 -231.501 -149.5s-210.167 -49.5 -337.5 -49.5c-482 0 -723.667 162 -725 486zM545.999 1745h569l-174 -296h-495z" />
    <glyph glyph-name="sacute" unicode="&#x15b;" horiz-adv-x="1264" 
d="M160.5 65c-94.333 72 -141.834 165 -142.501 279v4l590 -18v-6c0 -20 9 -30 27 -30c9.33301 0 16.5 2.33301 21.5 7s7.5 13.667 7.5 27c0 8 -3.5 14.5 -10.5 19.5s-15.167 8.16699 -24.5 9.5c-12 2.66699 -33.667 5 -65 7c-92 9.33301 -175 22.5 -249 39.5
s-141.333 50 -202 99s-91 118.5 -91 208.5v4c0 94 22 169.667 66 227s108.833 98.833 194.5 124.5s194.167 38.5 325.5 38.5c206 0 359.5 -32.333 460.5 -97s151.833 -161 152.5 -289v-3l-567 10v19c0 6 -2.5 11.5 -7.5 16.5s-11.833 7.5 -20.5 7.5
c-18.667 0 -28 -9 -28 -27c0 -10 3.66699 -18 11 -24s20 -10.667 38 -14c8.66699 -1.33301 33.334 -4 74.001 -8c91.333 -8 172.666 -20.667 243.999 -38s136 -53 194 -107s87 -132 87 -234v-4c0 -78.667 -24.667 -144.5 -74 -197.5s-118 -92.667 -206 -119
s-189.667 -39.5 -305 -39.5c-239.333 0 -406.166 36 -500.499 108zM451.999 1444h569l-174 -296h-495z" />
    <glyph glyph-name="Scircumflex" unicode="&#x15c;" horiz-adv-x="1444" 
d="M22 444l-0.000976562 6h655v-13c2 -19.333 12 -29 30 -29c9.33301 0 16.5 3 21.5 9s7.5 12.667 7.5 20c0 4 -2.16699 8.66699 -6.5 14s-10.5 8.66602 -18.5 9.99902c-16.667 2.66699 -41 5.66699 -73 9c-104 11.333 -197.667 27.666 -281 48.999
s-159.166 62.833 -227.499 124.5s-102.5 148.834 -102.5 261.501v4c4.66699 174.667 62 300.167 172 376.5s272 114.5 486 114.5c155.333 0 284.5 -20.333 387.5 -61s179.333 -97.167 229 -169.5s74.834 -157.166 75.501 -254.499v-4h-629v12
c0 6.66699 -2.66699 12.834 -8 18.501s-12.333 8.5 -21 8.5s-15.834 -2.83301 -21.501 -8.5s-8.5 -12.5 -8.5 -20.5c0 -4 3.33301 -9.5 10 -16.5s14 -11.167 22 -12.5s33.333 -4 76 -8c103.333 -8 196.833 -22.5 280.5 -43.5s159.334 -65.5 227.001 -133.5
s101.5 -167 101.5 -297v-5c-3.33301 -98.667 -33.333 -181.334 -90 -248.001s-133.834 -116.5 -231.501 -149.5s-210.167 -49.5 -337.5 -49.5c-482 0 -723.667 162 -725 486zM330.999 1454l131 294h571l131 -294l-384 -1l-33 103l-32 -103z" />
    <glyph glyph-name="scircumflex" unicode="&#x15d;" horiz-adv-x="1264" 
d="M160.5 65c-94.333 72 -141.834 165 -142.501 279v4l590 -18v-6c0 -20 9 -30 27 -30c9.33301 0 16.5 2.33301 21.5 7s7.5 13.667 7.5 27c0 8 -3.5 14.5 -10.5 19.5s-15.167 8.16699 -24.5 9.5c-12 2.66699 -33.667 5 -65 7c-92 9.33301 -175 22.5 -249 39.5
s-141.333 50 -202 99s-91 118.5 -91 208.5v4c0 94 22 169.667 66 227s108.833 98.833 194.5 124.5s194.167 38.5 325.5 38.5c206 0 359.5 -32.333 460.5 -97s151.833 -161 152.5 -289v-3l-567 10v19c0 6 -2.5 11.5 -7.5 16.5s-11.833 7.5 -20.5 7.5
c-18.667 0 -28 -9 -28 -27c0 -10 3.66699 -18 11 -24s20 -10.667 38 -14c8.66699 -1.33301 33.334 -4 74.001 -8c91.333 -8 172.666 -20.667 243.999 -38s136 -53 194 -107s87 -132 87 -234v-4c0 -78.667 -24.667 -144.5 -74 -197.5s-118 -92.667 -206 -119
s-189.667 -39.5 -305 -39.5c-239.333 0 -406.166 36 -500.499 108zM205.999 1149l131 294h571l131 -294l-384 -1l-33 103l-32 -103z" />
    <glyph glyph-name="Scedilla" unicode="&#x15e;" horiz-adv-x="1428" 
d="M797 884c103.333 -8 196.831 -22.5 280.498 -43.5s159.334 -65.5 227.001 -133.5s101.5 -167 101.5 -297v-5c-4.66699 -128 -53 -228.833 -145 -302.5s-215.667 -119.167 -371 -136.5l-24 -92c68.667 -20.667 120.334 -53.334 155.001 -98.001s52 -100.334 52 -167.001
v-8c0 -101.333 -31.333 -177.666 -94 -228.999s-155.334 -77 -278.001 -77c-132 0 -231.667 18.667 -299 56l56 272c24 -6.66699 52 -10 84 -10c42.667 0 64 8.33301 64 25l-1 6c0 16 -45.667 25.667 -137 29l58 299c-334.667 44.667 -502.667 202 -504 472v6h655v-13
c2 -19.333 12 -29 30 -29c9.33301 0 16.5 3 21.5 9s7.5 12.667 7.5 20c0 4 -2.16699 8.66699 -6.5 14s-10.5 8.66602 -18.5 9.99902c-16.667 2.66699 -41 5.66699 -73 9c-104 11.333 -197.667 27.666 -281 48.999s-159.166 62.833 -227.499 124.5
s-102.5 148.834 -102.5 261.501v4c4.66699 174.667 62 300.167 172 376.5s272 114.5 486 114.5c155.333 0 284.5 -20.333 387.5 -61s179.333 -97.167 229 -169.5s74.834 -157.166 75.501 -254.499v-4h-629v12c0 6.66699 -2.66699 12.834 -8 18.501s-12.333 8.5 -21 8.5
s-15.834 -2.83301 -21.501 -8.5s-8.5 -12.5 -8.5 -20.5c0 -4 3.33301 -9.5 10 -16.5s14 -11.167 22 -12.5s33.333 -4 76 -8z" />
    <glyph glyph-name="scedilla" unicode="&#x15f;" horiz-adv-x="1264" 
d="M721 696c91.333 -8 172.665 -20.666 243.998 -37.999s136 -53 194 -107s87 -132 87 -234v-4c0 -98.667 -38.333 -177.167 -115 -235.5s-181.667 -95.5 -315 -111.5l-24 -93c68.667 -20.667 120.334 -53.334 155.001 -98.001s52 -100.334 52 -167.001v-8
c0 -101.333 -31.333 -177.666 -94 -228.999s-155.334 -77 -278.001 -77c-132 0 -231.667 18.667 -299 56l56 272c24 -6.66699 52 -10 84 -10c42.667 0 64 8.33301 64 25l-1 6c0 16 -45.667 25.667 -137 29l57 297c-159.333 21.333 -271.166 65.333 -335.499 132
s-96.833 147.667 -97.5 243v4l590 -18v-6c0 -20 9 -30 27 -30c9.33301 0 16.5 2.33301 21.5 7s7.5 13.667 7.5 27c0 8 -3.5 14.5 -10.5 19.5s-15.167 8.16699 -24.5 9.5c-12 2.66699 -33.667 5 -65 7c-92 9.33301 -175 22.5 -249 39.5s-141.333 50 -202 99
s-91 118.5 -91 208.5v4c0 94 22 169.667 66 227s108.833 98.833 194.5 124.5s194.167 38.5 325.5 38.5c206 0 359.5 -32.333 460.5 -97s151.833 -161 152.5 -289v-3l-567 10v19c0 6 -2.5 11.5 -7.5 16.5s-11.833 7.5 -20.5 7.5c-18.667 0 -28 -9 -28 -27
c0 -10 3.66699 -18 11 -24s20 -10.667 38 -14c8.66699 -1.33301 33.334 -4 74.001 -8z" />
    <glyph glyph-name="Scaron" unicode="&#x160;" horiz-adv-x="1428" 
d="M22 444l-0.000976562 6h655v-13c2 -19.333 12 -29 30 -29c9.33301 0 16.5 3 21.5 9s7.5 12.667 7.5 20c0 4 -2.16699 8.66699 -6.5 14s-10.5 8.66602 -18.5 9.99902c-16.667 2.66699 -41 5.66699 -73 9c-104 11.333 -197.667 27.666 -281 48.999
s-159.166 62.833 -227.499 124.5s-102.5 148.834 -102.5 261.501v4c4.66699 174.667 62 300.167 172 376.5s272 114.5 486 114.5c155.333 0 284.5 -20.333 387.5 -61s179.333 -97.167 229 -169.5s74.834 -157.166 75.501 -254.499v-4h-629v12
c0 6.66699 -2.66699 12.834 -8 18.501s-12.333 8.5 -21 8.5s-15.834 -2.83301 -21.501 -8.5s-8.5 -12.5 -8.5 -20.5c0 -4 3.33301 -9.5 10 -16.5s14 -11.167 22 -12.5s33.333 -4 76 -8c103.333 -8 196.833 -22.5 280.5 -43.5s159.334 -65.5 227.001 -133.5
s101.5 -167 101.5 -297v-5c-3.33301 -98.667 -33.333 -181.334 -90 -248.001s-133.834 -116.5 -231.501 -149.5s-210.167 -49.5 -337.5 -49.5c-482 0 -723.667 162 -725 486zM297.999 1745l384 1l33 -103l32 103l384 -1l-131 -294h-571z" />
    <glyph glyph-name="scaron" unicode="&#x161;" horiz-adv-x="1264" 
d="M160.5 65c-94.333 72 -141.834 165 -142.501 279v4l590 -18v-6c0 -20 9 -30 27 -30c9.33301 0 16.5 2.33301 21.5 7s7.5 13.667 7.5 27c0 8 -3.5 14.5 -10.5 19.5s-15.167 8.16699 -24.5 9.5c-12 2.66699 -33.667 5 -65 7c-92 9.33301 -175 22.5 -249 39.5
s-141.333 50 -202 99s-91 118.5 -91 208.5v4c0 94 22 169.667 66 227s108.833 98.833 194.5 124.5s194.167 38.5 325.5 38.5c206 0 359.5 -32.333 460.5 -97s151.833 -161 152.5 -289v-3l-567 10v19c0 6 -2.5 11.5 -7.5 16.5s-11.833 7.5 -20.5 7.5
c-18.667 0 -28 -9 -28 -27c0 -10 3.66699 -18 11 -24s20 -10.667 38 -14c8.66699 -1.33301 33.334 -4 74.001 -8c91.333 -8 172.666 -20.667 243.999 -38s136 -53 194 -107s87 -132 87 -234v-4c0 -78.667 -24.667 -144.5 -74 -197.5s-118 -92.667 -206 -119
s-189.667 -39.5 -305 -39.5c-239.333 0 -406.166 36 -500.499 108zM203.999 1444l384 1l33 -103l32 103l384 -1l-131 -294h-571z" />
    <glyph glyph-name="uni0162" unicode="&#x162;" horiz-adv-x="1211" 
d="M1200 1360v-520.999h-227v-839h-196l-22 -84c68.667 -20.667 120.334 -53.334 155.001 -98.001s52 -100.334 52 -167.001v-8c0 -101.333 -31.333 -177.666 -94 -228.999s-155.334 -77 -278.001 -77c-132 0 -231.667 18.667 -299 56l56 272c24 -6.66699 52 -10 84 -10
c42.667 0 64 8.33301 64 25l-1 6c0 16 -45.667 25.667 -137 29l55 285h-171v839h-230v521h1189z" />
    <glyph glyph-name="uni0163" unicode="&#x163;" horiz-adv-x="996" 
d="M851 613v-107.999c0 -31.333 12 -47 36 -47h91l1 -458h-277l-22 -84c68.667 -20.667 120.334 -53.334 155.001 -98.001s52 -100.334 52 -167.001v-8c0 -101.333 -31.333 -177.666 -94 -228.999s-155.334 -77 -278.001 -77c-132 0 -231.667 18.667 -299 56l56 272
c24 -6.66699 52 -10 84 -10c42.667 0 64 8.33301 64 25l-1 6c0 16 -45.667 25.667 -137 29l62 319c-68 29.333 -119.333 77.833 -154 145.5s-52 153.5 -52 257.5v176h-121v397l168 112l168 211l500 2v-270h127v-452h-129z" />
    <glyph glyph-name="Tcaron" unicode="&#x164;" horiz-adv-x="1211" 
d="M241 839h-230v521h1189v-521h-227v-839h-732v839zM191 1699l384 1l33 -103l32 103l384 -1l-131 -294h-571z" />
    <glyph glyph-name="tcaron" unicode="&#x165;" horiz-adv-x="996" 
d="M237 110.5c-66 73.667 -99 182.5 -99 326.5v176h-121v397l168 112l168 211l500 2v-270h127v-452h-129v-108c0 -31.333 12 -47 36 -47h91l1 -458h-450c-128.667 -0 -226 36.833 -292 110.5zM138 1672l384 1l33 -103l32 103l384 -1l-131 -294h-571z" />
    <glyph glyph-name="Tbar" unicode="&#x166;" horiz-adv-x="1211" 
d="M973 839v-203h85v-114h-85v-522h-732v522h-89v114h89v203h-230v521h1189v-521h-227z" />
    <glyph glyph-name="tbar" unicode="&#x167;" horiz-adv-x="996" 
d="M416 26.5c-80.667 17.667 -146.999 58.332 -198.999 121.999s-78 159.834 -78 288.501v1h-103v184h103v51h-121v337l168 112l168 211l500 2v-270h127v-392h-129v-51h129v-184h-129v-3c0 -15.333 2.16699 -27 6.5 -35s14.166 -12 29.499 -12h91l1 -388h-257
c-124 -0 -226.333 8.83301 -307 26.5z" />
    <glyph glyph-name="Utilde" unicode="&#x168;" horiz-adv-x="1542" 
d="M212 79.5c-126 85 -189 210.833 -189 377.5v903h722v-809c0 -48.667 9.33301 -73 28 -73s28 24 28 72v810h718v-903c0 -166.667 -63 -292.5 -189 -377.5s-312.333 -127.5 -559 -127.5s-433 42.5 -559 127.5zM360 1481c0.666992 0 1 -10 1 -30
c0 102.667 24.5 180.167 73.5 232.5s121.5 78.5 217.5 78.5c112.667 0 179 -25.667 199 -77l2 -5c10 -24 24.333 -36 43 -36c19.333 0 29 15 29 45v46l265 -1v-68c-0.666992 0 -1 7.66699 -1 23c0 -100.667 -24.5 -176.667 -73.5 -228s-121.5 -77 -217.5 -77
c-106.667 0 -172.667 25.333 -198 76l-3 6c-12 24 -26.333 36 -43 36c-19.333 0 -29 -16 -29 -48v-43l-265 1v69z" />
    <glyph glyph-name="utilde" unicode="&#x169;" horiz-adv-x="1382" 
d="M190 90.5c-113.333 86.333 -169.999 214.168 -169.999 383.501v591h642v-593c0 -32.667 10 -49 30 -49c19.333 0 29 16.333 29 49v593h641v-606c0 -164.667 -56.333 -288.834 -169 -372.501s-279.334 -125.5 -500.001 -125.5c-222 0 -389.667 43.167 -503 129.5z
M275.001 1185c0.666992 0 1 -10 1 -30c0 102.667 24.5 180.167 73.5 232.5s121.5 78.5 217.5 78.5c112.667 0 179 -25.667 199 -77l2 -5c10 -24 24.333 -36 43 -36c19.333 0 29 15 29 45v46l265 -1v-68c-0.666992 0 -1 7.66699 -1 23c0 -100.667 -24.5 -176.667 -73.5 -228
s-121.5 -77 -217.5 -77c-106.667 0 -172.667 25.333 -198 76l-3 6c-12 24 -26.333 36 -43 36c-19.333 0 -29 -16 -29 -48v-43l-265 1v69z" />
    <glyph glyph-name="Umacron" unicode="&#x16a;" horiz-adv-x="1542" 
d="M212 79.5c-126 85 -189 210.833 -189 377.5v903h722v-809c0 -48.667 9.33301 -73 28 -73s28 24 28 72v810h718v-903c0 -166.667 -63 -292.5 -189 -377.5s-312.333 -127.5 -559 -127.5s-433 42.5 -559 127.5zM408 1699h736v-295h-736v295z" />
    <glyph glyph-name="umacron" unicode="&#x16b;" horiz-adv-x="1382" 
d="M190 90.5c-113.333 86.333 -169.999 214.168 -169.999 383.501v591h642v-593c0 -32.667 10 -49 30 -49c19.333 0 29 16.333 29 49v593h641v-606c0 -164.667 -56.333 -288.834 -169 -372.501s-279.334 -125.5 -500.001 -125.5c-222 0 -389.667 43.167 -503 129.5z
M323.001 1403h736v-295h-736v295z" />
    <glyph glyph-name="Ubreve" unicode="&#x16c;" horiz-adv-x="1542" 
d="M212 79.5c-126 85 -189 210.833 -189 377.5v903h722v-809c0 -48.667 9.33301 -73 28 -73s28 24 28 72v810h718v-903c0 -166.667 -63 -292.5 -189 -377.5s-312.333 -127.5 -559 -127.5s-433 42.5 -559 127.5zM519.5 1426c-61.667 16.667 -105.833 44.5 -132.5 83.5
s-40 93.5 -40 163.5v28h402v-28c0.666992 -16.667 3 -28.334 7 -35.001s10.667 -10 20 -10c11.333 0 19.166 3.33301 23.499 10s6.5 18.334 6.5 35.001v28h398v-28c0 -70 -13.333 -124.5 -40 -163.5s-70.667 -66.833 -132 -83.5s-146.666 -25 -255.999 -25
s-194.833 8.33301 -256.5 25z" />
    <glyph glyph-name="ubreve" unicode="&#x16d;" horiz-adv-x="1382" 
d="M190 90.5c-113.333 86.333 -169.999 214.168 -169.999 383.501v591h642v-593c0 -32.667 10 -49 30 -49c19.333 0 29 16.333 29 49v593h641v-606c0 -164.667 -56.333 -288.834 -169 -372.501s-279.334 -125.5 -500.001 -125.5c-222 0 -389.667 43.167 -503 129.5z
M443.501 1120c-61.667 16.667 -105.833 44.5 -132.5 83.5s-40 93.5 -40 163.5v28h402v-28c0.666992 -16.667 3 -28.334 7 -35.001s10.667 -10 20 -10c11.333 0 19.166 3.33301 23.499 10s6.5 18.334 6.5 35.001v28h398v-28c0 -70 -13.333 -124.5 -40 -163.5
s-70.667 -66.833 -132 -83.5s-146.666 -25 -255.999 -25s-194.833 8.33301 -256.5 25z" />
    <glyph glyph-name="Uring" unicode="&#x16e;" horiz-adv-x="1542" 
d="M212 79.5c-126 85 -189 210.833 -189 377.5v903h722v-809c0 -48.667 9.33301 -73 28 -73s28 24 28 72v810h718v-903c0 -166.667 -63 -292.5 -189 -377.5s-312.333 -127.5 -559 -127.5s-433 42.5 -559 127.5zM546 1458.5c-52 35.667 -78.001 88.5 -78.001 158.5v3
c0 71.333 26.333 125.333 79 162s130.334 55 233.001 55c100 0 175.667 -18.333 227 -55s77 -90.667 77 -162v-3c0 -70 -26 -122.833 -78 -158.5s-128.667 -53.5 -230 -53.5s-178 17.833 -230 53.5zM821.999 1619v3c0 16.667 -15.667 25 -47 25c-32 0 -48 -8.66699 -48 -26
v-2c0 -18 16 -27 48 -27c31.333 0 47 9 47 27z" />
    <glyph glyph-name="uring" unicode="&#x16f;" horiz-adv-x="1382" 
d="M190 90.5c-113.333 86.333 -169.999 214.168 -169.999 383.501v591h642v-593c0 -32.667 10 -49 30 -49c19.333 0 29 16.333 29 49v593h641v-606c0 -164.667 -56.333 -288.834 -169 -372.501s-279.334 -125.5 -500.001 -125.5c-222 0 -389.667 43.167 -503 129.5z
M461.001 1162.5c-52 35.667 -78.001 88.5 -78.001 158.5v3c0 71.333 26.333 125.333 79 162s130.334 55 233.001 55c100 0 175.667 -18.333 227 -55s77 -90.667 77 -162v-3c0 -70 -26 -122.833 -78 -158.5s-128.667 -53.5 -230 -53.5s-178 17.833 -230 53.5zM737 1323v3
c0 16.667 -15.667 25 -47 25c-32 0 -48 -8.66699 -48 -26v-2c0 -18 16 -27 48 -27c31.333 0 47 9 47 27z" />
    <glyph glyph-name="Uhungarumlaut" unicode="&#x170;" horiz-adv-x="1542" 
d="M212 79.5c-126 85 -189 210.833 -189 377.5v903h722v-809c0 -48.667 9.33301 -73 28 -73s28 24 28 72v810h718v-903c0 -166.667 -63 -292.5 -189 -377.5s-312.333 -127.5 -559 -127.5s-433 42.5 -559 127.5zM557 1698h357l-174 -295h-283zM927 1698h357l-174 -295h-283z
" />
    <glyph glyph-name="uhungarumlaut" unicode="&#x171;" horiz-adv-x="1382" 
d="M190 90.5c-113.333 86.333 -169.999 214.168 -169.999 383.501v591h642v-593c0 -32.667 10 -49 30 -49c19.333 0 29 16.333 29 49v593h641v-606c0 -164.667 -56.333 -288.834 -169 -372.501s-279.334 -125.5 -500.001 -125.5c-222 0 -389.667 43.167 -503 129.5z
M472.001 1402h357l-174 -295h-283zM842.001 1402h357l-174 -295h-283z" />
    <glyph glyph-name="Uogonek" unicode="&#x172;" horiz-adv-x="1542" 
d="M1519 1360v-903c0 -214 -103.667 -360.333 -311 -439c-109.333 -82 -163.666 -130.333 -162.999 -145c0 -15.333 8.33301 -23 25 -23c11.333 0 33.666 11.667 66.999 35l92 -261c-94.667 -76.667 -240.334 -115 -437.001 -115c-127.333 0 -223.666 19.833 -288.999 59.5
s-98 98.5 -98 176.5c0 80 43 154.333 129 223c-169.333 24.667 -296.833 78 -382.5 160s-128.5 191.667 -128.5 329v903h722v-809c0 -48.667 9.33301 -73 28 -73s28 24 28 72v810h718z" />
    <glyph glyph-name="uogonek" unicode="&#x173;" horiz-adv-x="1382" 
d="M1362 1065v-605.999c0 -220 -99.333 -367 -298 -441c-109.333 -82 -163.666 -130.333 -162.999 -145c0 -15.333 8.33301 -23 25 -23c11.333 0 33.666 11.667 66.999 35l92 -261c-94.667 -76.667 -240.334 -115 -437.001 -115c-127.333 0 -223.666 19.833 -288.999 59.5
s-98 98.5 -98 176.5c0 89.333 52.667 170.666 158 243.999c-132 31.333 -231.5 87.5 -298.5 168.5s-100.5 186.5 -100.5 316.5v591h642v-593c0 -32.667 10 -49 30 -49c19.333 0 29 16.333 29 49v593h641z" />
    <glyph glyph-name="Wcircumflex" unicode="&#x174;" horiz-adv-x="2285" 
d="M727 1360l36 -737h23l38 737h637l38 -737h23l36 737h736l-357 -1360h-763l-21 457h-21l-21 -457h-763l-357 1360h736zM725 1404l131 294h571l131 -294l-384 -1l-33 103l-32 -103z" />
    <glyph glyph-name="wcircumflex" unicode="&#x175;" horiz-adv-x="1979" 
d="M-4 1065h650l15 -300l4 -184h32l3 184l16 300h546l15 -300l4 -184h32l3 184l16 300h651l-306 -1065h-658l-15 443h-33l-10 -443h-660zM573 1109l131 294h571l131 -294l-384 -1l-33 103l-32 -103z" />
    <glyph glyph-name="Ycircumflex" unicode="&#x176;" horiz-adv-x="1531" 
d="M398 423l-416 937h744l27 -501l26 1l13 500h757l-416 -934l2 -426h-737v423zM348 1404l131 294h571l131 -294l-384 -1l-33 103l-32 -103z" />
    <glyph glyph-name="ycircumflex" unicode="&#x177;" horiz-adv-x="1403" 
d="M241 77h199.998c14.667 0 25.334 3.33301 32.001 10s10 18 10 34v9h-219l-268 935h670l15 -300l4 -194h32l3 194l16 300h671l-213 -1037c-31.333 -108 -72.166 -189.833 -122.499 -245.5s-105.333 -92.167 -165 -109.5s-129.5 -26 -209.5 -26h-456v430zM285.998 1109
l131 294h571l131 -294l-384 -1l-33 103l-32 -103z" />
    <glyph glyph-name="Ydieresis" unicode="&#x178;" horiz-adv-x="1531" 
d="M398 423l-416 937h744l27 -501l26 1l13 500h757l-416 -934l2 -426h-737v423zM405 1443c-30.667 26 -46 68.667 -46 128c0 58.667 15.167 101 45.5 127s79.833 39 148.5 39c71.333 0 122.5 -13 153.5 -39s46.5 -68.333 46.5 -127c0 -59.333 -15.5 -102 -46.5 -128
s-81.5 -39 -151.5 -39c-69.333 0 -119.333 13 -150 39zM818 1443c-30.667 26 -46 68.667 -46 128c0 58.667 15.167 101 45.5 127s79.833 39 148.5 39c71.333 0 122.5 -13 153.5 -39s46.5 -68.333 46.5 -127c0 -59.333 -15.5 -102 -46.5 -128s-81.5 -39 -151.5 -39
c-69.333 0 -119.333 13 -150 39z" />
    <glyph glyph-name="Zacute" unicode="&#x179;" horiz-adv-x="1267" 
d="M10 407l364 450h-340v503h1207l-1 -398l-362 -458h375v-504h-1243v407zM483 1699h569l-174 -296h-495z" />
    <glyph glyph-name="zacute" unicode="&#x17a;" horiz-adv-x="1204" 
d="M10 267l266 302h-244v496h1150l-1 -259l-265 -307h278v-499h-1184v267zM432 1404h569l-174 -296h-495z" />
    <glyph glyph-name="Zdotaccent" unicode="&#x17b;" horiz-adv-x="1267" 
d="M10 407l364 450h-340v503h1207l-1 -398l-362 -458h375v-504h-1243v407zM447.5 1443.5c-41.667 26.333 -62.5 65.168 -62.5 116.501c0 52.667 20.667 91.834 62 117.501s110 38.5 206 38.5c96.667 0 165.667 -12.833 207 -38.5s62 -64.834 62 -117.501
s-20.667 -91.834 -62 -117.501s-110.333 -38.5 -207 -38.5c-95.333 0 -163.833 13.167 -205.5 39.5z" />
    <glyph glyph-name="zdotaccent" unicode="&#x17c;" horiz-adv-x="1204" 
d="M10 267l266 302h-244v496h1150l-1 -259l-265 -307h278v-499h-1184v267zM396.5 1148.5c-41.667 26.333 -62.5 65.168 -62.5 116.501c0 52.667 20.667 91.834 62 117.501s110 38.5 206 38.5c96.667 0 165.667 -12.833 207 -38.5s62 -64.834 62 -117.501
s-20.667 -91.834 -62 -117.501s-110.333 -38.5 -207 -38.5c-95.333 0 -163.833 13.167 -205.5 39.5z" />
    <glyph glyph-name="Zcaron" unicode="&#x17d;" horiz-adv-x="1267" 
d="M10 407l364 450h-340v503h1207l-1 -398l-362 -458h375v-504h-1243v407zM235 1699l384 1l33 -103l32 103l384 -1l-131 -294h-571z" />
    <glyph glyph-name="zcaron" unicode="&#x17e;" horiz-adv-x="1204" 
d="M10 267l266 302h-244v496h1150l-1 -259l-265 -307h278v-499h-1184v267zM184 1404l384 1l33 -103l32 103l384 -1l-131 -294h-571z" />
    <glyph glyph-name="longs" unicode="&#x17f;" horiz-adv-x="1071" 
d="M137 613h-134.002v452h134v34c0 90 13.333 164.167 40 222.5s72.834 102.833 138.501 133.5s155.834 46 270.501 46c92.667 0 180 -4.83301 262 -14.5s150.667 -21.167 206 -34.5v-348h-160c-14.667 0 -25 -3.5 -31 -10.5s-9 -18.833 -9 -35.5v-1058h-717v613z" />
    <glyph glyph-name="florin" unicode="&#x192;" horiz-adv-x="1209" 
d="M7 382l143 0.000976562c20 0 35 4.66699 45 14s16.333 27.666 19 54.999l17 162h-81l-1 446h134l5 40c10.667 90 32.667 164.167 66 222.5s84.666 102.833 153.999 133.5s161.333 46 276 46c92.667 0 175.167 -4.83301 247.5 -14.5s129.5 -21.167 171.5 -34.5v-353h-165
c-10 0 -18.333 -2.83301 -25 -8.5s-10.334 -12.5 -11.001 -20.5l-2 -11h203v-446h-255l-26 -231c-10.667 -90 -32.667 -164.167 -66 -222.5s-84.666 -102.833 -153.999 -133.5s-161.333 -46 -276 -46c-92.667 0 -175.167 4.83301 -247.5 14.5s-129.166 21.167 -170.499 34.5
z" />
    <glyph glyph-name="Ohorn" unicode="&#x1a0;" horiz-adv-x="1666" 
d="M1686 1425l0.000976562 -99.0029c0 -48 -16.167 -86.333 -48.5 -115s-82.5 -51 -150.5 -67c-6 -1.33301 -13 -2.66602 -21 -3.99902c85.333 -115.333 128 -267.666 128 -456.999c0 -238 -66.333 -417.833 -199 -539.5s-329.334 -182.5 -590.001 -182.5
s-457.334 60.833 -590.001 182.5s-199 301.5 -199 539.5c0 236.667 66.333 415.334 199 536.001s329.334 181 590.001 181c184 0 336 -30 456 -90c16.667 5.33301 25 13.333 25 24l1 91h399zM833.001 782.997c0 19.333 -9.33301 29 -28 29s-28 -9.66699 -28 -29v-200
c0 -19.333 9.33301 -29 28 -29s28 9.66699 28 29v200z" />
    <glyph glyph-name="ohorn" unicode="&#x1a1;" horiz-adv-x="1404" 
d="M1562 1104l-0.000976562 -98.999c0 -48 -16.167 -86.333 -48.5 -115s-82.5 -51 -150.5 -67l-31 -6c36 -74 54 -162 54 -264v-41c0 -182 -57.667 -319.333 -173 -412s-285.666 -139 -510.999 -139s-395.666 46.333 -510.999 139s-173 230 -173 412v40
c0 182 57.667 319.5 173 412.5s285.666 139.5 510.999 139.5c192 0 344.333 -33.667 457 -101c2 3.33301 3 6.66602 3 9.99902l1 91h399zM730.999 592.001c0 32.667 -9.66699 49 -29 49c-20 0 -30 -16.333 -30 -49v-120c0 -32.667 10 -49 30 -49c19.333 0 29 16.333 29 49
v120z" />
    <glyph glyph-name="Uhorn" unicode="&#x1af;" horiz-adv-x="1642" 
d="M1961 1393v-99c0 -48 -16.167 -86.333 -48.5 -115s-82.5 -51 -150.5 -67c-46 -10.667 -127 -17.667 -243 -21v-634c0 -166.667 -63 -292.5 -189 -377.5s-312.333 -127.5 -559 -127.5s-433 42.5 -559 127.5s-189 210.833 -189 377.5v903h722v-809
c0 -48.667 9.33301 -73 28 -73s28 24 28 72v810h718v-86c28 4 42 13.333 42 28l1 91h399z" />
    <glyph glyph-name="uhorn" unicode="&#x1b0;" horiz-adv-x="1382" 
d="M1811 1091l0.000976562 -98.998c0 -48 -16.167 -86.333 -48.5 -115s-82.5 -51 -150.5 -67c-46.667 -10.667 -130 -17.667 -250 -21v-330c0 -164.667 -56.333 -288.834 -169 -372.501s-279.334 -125.5 -500.001 -125.5c-222 0 -389.667 43.167 -503 129.5
s-170 214.166 -170 383.499v591h642v-593c0 -32.667 10 -49 30 -49c19.333 0 29 16.333 29 49v593h641v-94c16 2 28.167 5.33301 36.5 10s12.5 11 12.5 19l1 91h399z" />
    <glyph glyph-name="uni01CD" unicode="&#x1cd;" horiz-adv-x="1549" 
d="M820 77h-90l-3 -77h-736l403 1360h760l404 -1360h-734zM798 449l-16 288h-22l-13 -288h51zM353 1699l384 1l33 -103l32 103l384 -1l-131 -294h-571z" />
    <glyph glyph-name="uni01CE" unicode="&#x1ce;" horiz-adv-x="1381" 
d="M202.5 3.5c-58.333 29 -104.668 70.168 -139.001 123.501s-51.5 115 -51.5 185v10c1.33301 100 24 172.333 68 217s106.333 72.167 187 82.5s207 15.5 379 15.5l75 -2v23c0 24.667 -1.66699 41.667 -5 51s-12 14 -26 14c-11.333 0 -18.833 -4.33301 -22.5 -13
s-5.5 -20.334 -5.5 -35.001v-7l-585 -1v5c0.666992 102.667 24.167 185.5 70.5 248.5s119.833 109.5 220.5 139.5s234.334 45 401.001 45c109.333 0 208 -13.667 296 -41s158.333 -71.333 211 -132s79 -138.334 79 -233.001v-699h-602l-63 128
c-23.333 -55.333 -59.833 -97.166 -109.5 -125.499s-111.834 -42.5 -186.501 -42.5c-69.333 0 -133.166 14.5 -191.499 43.5zM709.498 372.501c7 7 10.833 17.167 11.5 30.5v47h-6c-22 -2 -36.333 -7.5 -43 -16.5s-10 -22.167 -10 -39.5v-6
c0 -8.66699 2.33301 -15.167 7 -19.5s10.667 -6.5 18 -6.5c8 0 15.5 3.5 22.5 10.5zM287.998 1444l384 1l33 -103l32 103l384 -1l-131 -294h-571z" />
    <glyph glyph-name="uni01CF" unicode="&#x1cf;" horiz-adv-x="788" 
d="M26 1360h736v-1360h-736v1360zM-26 1699l384 1l33 -103l32 103l384 -1l-131 -294h-571z" />
    <glyph glyph-name="uni01D0" unicode="&#x1d0;" horiz-adv-x="769" 
d="M26 1065h717v-1065h-717v1065zM-29 1404l384 1l33 -103l32 103l384 -1l-131 -294h-571z" />
    <glyph glyph-name="uni01D1" unicode="&#x1d1;" horiz-adv-x="1610" 
d="M215 1219c132.667 120.667 329.334 181 590.001 181s457.334 -60.333 590.001 -181s199 -299.334 199 -536.001c0 -238 -66.333 -417.833 -199 -539.5s-329.334 -182.5 -590.001 -182.5s-457.334 60.833 -590.001 182.5s-199 301.5 -199 539.5
c0 236.667 66.333 415.334 199 536.001zM805 554c18.667 0 28 9.66699 28 29v200c0 19.333 -9.33301 29 -28 29s-28 -9.66699 -28 -29v-200c0 -19.333 9.33301 -29 28 -29zM387 1739l384 1l33 -103l32 103l384 -1l-131 -294h-571z" />
    <glyph glyph-name="uni01D2" unicode="&#x1d2;" horiz-adv-x="1404" 
d="M191 100c-115.333 92.667 -173 230 -173 412v40c0 182 57.667 319.5 173 412.5s285.666 139.5 510.999 139.5s395.666 -46.333 510.999 -139s173 -230 173 -412v-41c0 -182 -57.667 -319.333 -173 -412s-285.666 -139 -510.999 -139s-395.666 46.333 -510.999 139z
M731 472v120c0 32.667 -9.66699 49 -29 49c-20 0 -30 -16.333 -30 -49v-120c0 -32.667 10 -49 30 -49c19.333 0 29 16.333 29 49zM284 1443l384 1l33 -103l32 103l384 -1l-131 -294h-571z" />
    <glyph glyph-name="uni01D3" unicode="&#x1d3;" horiz-adv-x="1542" 
d="M212 79.5c-126 85 -189 210.833 -189 377.5v903h722v-809c0 -48.667 9.33301 -73 28 -73s28 24 28 72v810h718v-903c0 -166.667 -63 -292.5 -189 -377.5s-312.333 -127.5 -559 -127.5s-433 42.5 -559 127.5zM358 1699l384 1l33 -103l32 103l384 -1l-131 -294h-571z" />
    <glyph glyph-name="uni01D4" unicode="&#x1d4;" horiz-adv-x="1382" 
d="M190 90.5c-113.333 86.333 -169.999 214.168 -169.999 383.501v591h642v-593c0 -32.667 10 -49 30 -49c19.333 0 29 16.333 29 49v593h641v-606c0 -164.667 -56.333 -288.834 -169 -372.501s-279.334 -125.5 -500.001 -125.5c-222 0 -389.667 43.167 -503 129.5z
M273.001 1403l384 1l33 -103l32 103l384 -1l-131 -294h-571z" />
    <glyph glyph-name="uni01D5" unicode="&#x1d5;" horiz-adv-x="1542" 
d="M212 79.5c-126 85 -189 210.833 -189 377.5v903h722v-809c0 -48.667 9.33301 -73 28 -73s28 24 28 72v810h718v-903c0 -166.667 -63 -292.5 -189 -377.5s-312.333 -127.5 -559 -127.5s-433 42.5 -559 127.5zM417 1443c-30.667 26 -46 68.667 -46 128
c0 58.667 15.167 101 45.5 127s79.833 39 148.5 39c71.333 0 122.5 -13 153.5 -39s46.5 -68.333 46.5 -127c0 -59.333 -15.5 -102 -46.5 -128s-81.5 -39 -151.5 -39c-69.333 0 -119.333 13 -150 39zM830 1443c-30.667 26 -46 68.667 -46 128c0 58.667 15.167 101 45.5 127
s79.833 39 148.5 39c71.333 0 122.5 -13 153.5 -39s46.5 -68.333 46.5 -127c0 -59.333 -15.5 -102 -46.5 -128s-81.5 -39 -151.5 -39c-69.333 0 -119.333 13 -150 39zM406 2076h736v-295h-736v295z" />
    <glyph glyph-name="uni01D6" unicode="&#x1d6;" horiz-adv-x="1382" 
d="M190 90.5c-113.333 86.333 -169.999 214.168 -169.999 383.501v591h642v-593c0 -32.667 10 -49 30 -49c19.333 0 29 16.333 29 49v593h641v-606c0 -164.667 -56.333 -288.834 -169 -372.501s-279.334 -125.5 -500.001 -125.5c-222 0 -389.667 43.167 -503 129.5z
M332.001 1147c-30.667 26 -46 68.667 -46 128c0 58.667 15.167 101 45.5 127s79.833 39 148.5 39c71.333 0 122.5 -13 153.5 -39s46.5 -68.333 46.5 -127c0 -59.333 -15.5 -102 -46.5 -128s-81.5 -39 -151.5 -39c-69.333 0 -119.333 13 -150 39zM745.001 1147
c-30.667 26 -46 68.667 -46 128c0 58.667 15.167 101 45.5 127s79.833 39 148.5 39c71.333 0 122.5 -13 153.5 -39s46.5 -68.333 46.5 -127c0 -59.333 -15.5 -102 -46.5 -128s-81.5 -39 -151.5 -39c-69.333 0 -119.333 13 -150 39zM321.001 1780h736v-295h-736v295z" />
    <glyph glyph-name="uni01D7" unicode="&#x1d7;" horiz-adv-x="1542" 
d="M212 79.5c-126 85 -189 210.833 -189 377.5v903h722v-809c0 -48.667 9.33301 -73 28 -73s28 24 28 72v810h718v-903c0 -166.667 -63 -292.5 -189 -377.5s-312.333 -127.5 -559 -127.5s-433 42.5 -559 127.5zM417 1443c-30.667 26 -46 68.667 -46 128
c0 58.667 15.167 101 45.5 127s79.833 39 148.5 39c71.333 0 122.5 -13 153.5 -39s46.5 -68.333 46.5 -127c0 -59.333 -15.5 -102 -46.5 -128s-81.5 -39 -151.5 -39c-69.333 0 -119.333 13 -150 39zM830 1443c-30.667 26 -46 68.667 -46 128c0 58.667 15.167 101 45.5 127
s79.833 39 148.5 39c71.333 0 122.5 -13 153.5 -39s46.5 -68.333 46.5 -127c0 -59.333 -15.5 -102 -46.5 -128s-81.5 -39 -151.5 -39c-69.333 0 -119.333 13 -150 39zM604 2076h569l-174 -296h-495z" />
    <glyph glyph-name="uni01D8" unicode="&#x1d8;" horiz-adv-x="1382" 
d="M190 90.5c-113.333 86.333 -169.999 214.168 -169.999 383.501v591h642v-593c0 -32.667 10 -49 30 -49c19.333 0 29 16.333 29 49v593h641v-606c0 -164.667 -56.333 -288.834 -169 -372.501s-279.334 -125.5 -500.001 -125.5c-222 0 -389.667 43.167 -503 129.5z
M332.001 1147c-30.667 26 -46 68.667 -46 128c0 58.667 15.167 101 45.5 127s79.833 39 148.5 39c71.333 0 122.5 -13 153.5 -39s46.5 -68.333 46.5 -127c0 -59.333 -15.5 -102 -46.5 -128s-81.5 -39 -151.5 -39c-69.333 0 -119.333 13 -150 39zM745.001 1147
c-30.667 26 -46 68.667 -46 128c0 58.667 15.167 101 45.5 127s79.833 39 148.5 39c71.333 0 122.5 -13 153.5 -39s46.5 -68.333 46.5 -127c0 -59.333 -15.5 -102 -46.5 -128s-81.5 -39 -151.5 -39c-69.333 0 -119.333 13 -150 39zM519.001 1780h569l-174 -296h-495z" />
    <glyph glyph-name="uni01D9" unicode="&#x1d9;" horiz-adv-x="1542" 
d="M212 79.5c-126 85 -189 210.833 -189 377.5v903h722v-809c0 -48.667 9.33301 -73 28 -73s28 24 28 72v810h718v-903c0 -166.667 -63 -292.5 -189 -377.5s-312.333 -127.5 -559 -127.5s-433 42.5 -559 127.5zM417 1443c-30.667 26 -46 68.667 -46 128
c0 58.667 15.167 101 45.5 127s79.833 39 148.5 39c71.333 0 122.5 -13 153.5 -39s46.5 -68.333 46.5 -127c0 -59.333 -15.5 -102 -46.5 -128s-81.5 -39 -151.5 -39c-69.333 0 -119.333 13 -150 39zM830 1443c-30.667 26 -46 68.667 -46 128c0 58.667 15.167 101 45.5 127
s79.833 39 148.5 39c71.333 0 122.5 -13 153.5 -39s46.5 -68.333 46.5 -127c0 -59.333 -15.5 -102 -46.5 -128s-81.5 -39 -151.5 -39c-69.333 0 -119.333 13 -150 39zM356 2076l384 1l33 -103l32 103l384 -1l-131 -294h-571z" />
    <glyph glyph-name="uni01DA" unicode="&#x1da;" horiz-adv-x="1382" 
d="M190 90.5c-113.333 86.333 -169.999 214.168 -169.999 383.501v591h642v-593c0 -32.667 10 -49 30 -49c19.333 0 29 16.333 29 49v593h641v-606c0 -164.667 -56.333 -288.834 -169 -372.501s-279.334 -125.5 -500.001 -125.5c-222 0 -389.667 43.167 -503 129.5z
M332.001 1147c-30.667 26 -46 68.667 -46 128c0 58.667 15.167 101 45.5 127s79.833 39 148.5 39c71.333 0 122.5 -13 153.5 -39s46.5 -68.333 46.5 -127c0 -59.333 -15.5 -102 -46.5 -128s-81.5 -39 -151.5 -39c-69.333 0 -119.333 13 -150 39zM745.001 1147
c-30.667 26 -46 68.667 -46 128c0 58.667 15.167 101 45.5 127s79.833 39 148.5 39c71.333 0 122.5 -13 153.5 -39s46.5 -68.333 46.5 -127c0 -59.333 -15.5 -102 -46.5 -128s-81.5 -39 -151.5 -39c-69.333 0 -119.333 13 -150 39zM271.001 1780l384 1l33 -103l32 103
l384 -1l-131 -294h-571z" />
    <glyph glyph-name="uni01DB" unicode="&#x1db;" horiz-adv-x="1542" 
d="M212 79.5c-126 85 -189 210.833 -189 377.5v903h722v-809c0 -48.667 9.33301 -73 28 -73s28 24 28 72v810h718v-903c0 -166.667 -63 -292.5 -189 -377.5s-312.333 -127.5 -559 -127.5s-433 42.5 -559 127.5zM417 1443c-30.667 26 -46 68.667 -46 128
c0 58.667 15.167 101 45.5 127s79.833 39 148.5 39c71.333 0 122.5 -13 153.5 -39s46.5 -68.333 46.5 -127c0 -59.333 -15.5 -102 -46.5 -128s-81.5 -39 -151.5 -39c-69.333 0 -119.333 13 -150 39zM830 1443c-30.667 26 -46 68.667 -46 128c0 58.667 15.167 101 45.5 127
s79.833 39 148.5 39c71.333 0 122.5 -13 153.5 -39s46.5 -68.333 46.5 -127c0 -59.333 -15.5 -102 -46.5 -128s-81.5 -39 -151.5 -39c-69.333 0 -119.333 13 -150 39zM359 2076h569l100 -296h-495z" />
    <glyph glyph-name="uni01DC" unicode="&#x1dc;" horiz-adv-x="1382" 
d="M190 90.5c-113.333 86.333 -169.999 214.168 -169.999 383.501v591h642v-593c0 -32.667 10 -49 30 -49c19.333 0 29 16.333 29 49v593h641v-606c0 -164.667 -56.333 -288.834 -169 -372.501s-279.334 -125.5 -500.001 -125.5c-222 0 -389.667 43.167 -503 129.5z
M332.001 1147c-30.667 26 -46 68.667 -46 128c0 58.667 15.167 101 45.5 127s79.833 39 148.5 39c71.333 0 122.5 -13 153.5 -39s46.5 -68.333 46.5 -127c0 -59.333 -15.5 -102 -46.5 -128s-81.5 -39 -151.5 -39c-69.333 0 -119.333 13 -150 39zM745.001 1147
c-30.667 26 -46 68.667 -46 128c0 58.667 15.167 101 45.5 127s79.833 39 148.5 39c71.333 0 122.5 -13 153.5 -39s46.5 -68.333 46.5 -127c0 -59.333 -15.5 -102 -46.5 -128s-81.5 -39 -151.5 -39c-69.333 0 -119.333 13 -150 39zM274.001 1780h569l100 -296h-495z" />
    <glyph glyph-name="uni01DE" unicode="&#x1de;" horiz-adv-x="1549" 
d="M820 77h-90l-3 -77h-736l403 1360h760l404 -1360h-734zM798 449l-16 288h-22l-13 -288h51zM412 1443c-30.667 26 -46 68.667 -46 128c0 58.667 15.167 101 45.5 127s79.833 39 148.5 39c71.333 0 122.5 -13 153.5 -39s46.5 -68.333 46.5 -127
c0 -59.333 -15.5 -102 -46.5 -128s-81.5 -39 -151.5 -39c-69.333 0 -119.333 13 -150 39zM825 1443c-30.667 26 -46 68.667 -46 128c0 58.667 15.167 101 45.5 127s79.833 39 148.5 39c71.333 0 122.5 -13 153.5 -39s46.5 -68.333 46.5 -127
c0 -59.333 -15.5 -102 -46.5 -128s-81.5 -39 -151.5 -39c-69.333 0 -119.333 13 -150 39zM401 2076h736v-295h-736v295z" />
    <glyph glyph-name="uni01DF" unicode="&#x1df;" horiz-adv-x="1381" 
d="M202.5 3.5c-58.333 29 -104.668 70.168 -139.001 123.501s-51.5 115 -51.5 185v10c1.33301 100 24 172.333 68 217s106.333 72.167 187 82.5s207 15.5 379 15.5l75 -2v23c0 24.667 -1.66699 41.667 -5 51s-12 14 -26 14c-11.333 0 -18.833 -4.33301 -22.5 -13
s-5.5 -20.334 -5.5 -35.001v-7l-585 -1v5c0.666992 102.667 24.167 185.5 70.5 248.5s119.833 109.5 220.5 139.5s234.334 45 401.001 45c109.333 0 208 -13.667 296 -41s158.333 -71.333 211 -132s79 -138.334 79 -233.001v-699h-602l-63 128
c-23.333 -55.333 -59.833 -97.166 -109.5 -125.499s-111.834 -42.5 -186.501 -42.5c-69.333 0 -133.166 14.5 -191.499 43.5zM709.498 372.501c7 7 10.833 17.167 11.5 30.5v47h-6c-22 -2 -36.333 -7.5 -43 -16.5s-10 -22.167 -10 -39.5v-6
c0 -8.66699 2.33301 -15.167 7 -19.5s10.667 -6.5 18 -6.5c8 0 15.5 3.5 22.5 10.5zM346.998 1188c-30.667 26 -46 68.667 -46 128c0 58.667 15.167 101 45.5 127s79.833 39 148.5 39c71.333 0 122.5 -13 153.5 -39s46.5 -68.333 46.5 -127c0 -59.333 -15.5 -102 -46.5 -128
s-81.5 -39 -151.5 -39c-69.333 0 -119.333 13 -150 39zM759.998 1188c-30.667 26 -46 68.667 -46 128c0 58.667 15.167 101 45.5 127s79.833 39 148.5 39c71.333 0 122.5 -13 153.5 -39s46.5 -68.333 46.5 -127c0 -59.333 -15.5 -102 -46.5 -128s-81.5 -39 -151.5 -39
c-69.333 0 -119.333 13 -150 39zM335.998 1821h736v-295h-736v295z" />
    <glyph glyph-name="Gcaron" unicode="&#x1e6;" horiz-adv-x="1605" 
d="M215 140c-132.667 119.333 -199 296 -199 530v20c0 234.667 66.333 411.667 199 531s329 179 589 179c254.667 0 447 -49.667 577 -149s195.667 -246.666 197 -441.999v-5l-746 2v57c0 19.333 -9.66699 29 -29 29c-20 0 -30 -9.66699 -30 -29v-450
c0 -20.667 10.333 -30.334 31 -29.001c10 0 21 2.66699 33 8v43h-30l1 323h774v-643c-96.667 -50.667 -210.5 -89 -341.5 -115s-276.5 -39 -436.5 -39c-260 0 -456.333 59.667 -589 179zM386 1699l384 1l33 -63l32 63l384 -1l-131 -254h-571z" />
    <glyph glyph-name="gcaron" unicode="&#x1e7;" horiz-adv-x="1326" 
d="M254 -484c-88 20 -152.499 51.1699 -193.499 93.5029s-61.5 98.166 -61.5 167.499v37c0 45.333 11.167 80.666 33.5 105.999s58.833 44 109.5 56c-46.667 19.333 -80.334 45.5 -101.001 78.5s-31 77.167 -31 132.5v8c0 54.667 8.33301 101.334 25 140.001
s44.334 75.334 83.001 110.001c-28.667 32.667 -49.167 68.167 -61.5 106.5s-18.5 84.5 -18.5 138.5v10c1.33301 96.667 21.666 174.5 60.999 233.5s100.5 102.333 183.5 130s191.833 41.5 326.5 41.5c77.333 0 143.333 -4 198 -12s105.334 -21.333 152.001 -40
c18.667 21.333 40.667 36.666 66 45.999s58 14 98 14h182l1 -342l-95 1c-1.33301 25.333 -6.5 44.666 -15.5 57.999s-23.167 22.333 -42.5 27c8.66699 -23.333 15 -47 19 -71s6 -52 6 -84v-12c0 -94.667 -19.5 -171 -58.5 -229s-100.167 -100.667 -183.5 -128
s-193 -41 -329 -41c-52.667 0 -98 2.66699 -136 8l-10 -11v-11c0 -10.667 6.66699 -18.834 20 -24.501s35.666 -9.16699 66.999 -10.5c37.333 -1.33301 64 -2 80 -2c60.667 0 120.334 4.66699 179.001 14c62 9.33301 116 14 162 14c115.333 0 199.666 -27.833 252.999 -83.5
s81 -143.167 83 -262.5v-10c0 -102 -24 -184.167 -72 -246.5s-123.5 -108 -226.5 -137s-238.167 -43.5 -405.5 -43.5c-143.333 0 -259 10 -347 30zM630.501 628.003c4.33301 4 7.16602 11.333 8.49902 22s2 27.667 2 51v3c0 23.333 -0.666992 40.333 -2 51s-4 18 -8 22
s-10.333 6 -19 6s-15.167 -2 -19.5 -6s-7.16602 -11.333 -8.49902 -22s-2 -27.667 -2 -51v-3c0 -23.333 0.666992 -40.333 2 -51s4 -18 8 -22s10.333 -6 19 -6s15.167 2 19.5 6zM635.001 -170.497c5.33301 7 8.00098 18.833 8.00098 35.5v4c-0.666992 24 -3 41.333 -7 52
s-10.333 16 -19 16l-35 -2v-73c0 -15.333 2.16699 -26.333 6.5 -33s11.5 -10 21.5 -10c11.333 0 19.666 3.5 24.999 10.5zM191.002 1404l384 1l33 -63l32 63l384 -1l-131 -254h-571z" />
    <glyph glyph-name="Aringacute" unicode="&#x1fa;" horiz-adv-x="1549" 
d="M820 77h-90l-3 -77h-736l403 1360h760l404 -1360h-734zM798 449l-16 288h-22l-13 -288h51zM541 1458.5c-52 35.667 -78.001 88.5 -78.001 158.5v3c0 71.333 26.333 125.333 79 162s130.334 55 233.001 55c100 0 175.667 -18.333 227 -55s77 -90.667 77 -162v-3
c0 -70 -26 -122.833 -78 -158.5s-128.667 -53.5 -230 -53.5s-178 17.833 -230 53.5zM816.999 1619v3c0 16.667 -15.667 25 -47 25c-32 0 -48 -8.66699 -48 -26v-2c0 -18 16 -27 48 -27c31.333 0 47 9 47 27zM600.999 2123h569l-174 -253h-495z" />
    <glyph glyph-name="aringacute" unicode="&#x1fb;" horiz-adv-x="1381" 
d="M202.5 3.5c-58.333 29 -104.668 70.168 -139.001 123.501s-51.5 115 -51.5 185v10c1.33301 100 24 172.333 68 217s106.333 72.167 187 82.5s207 15.5 379 15.5l75 -2v23c0 24.667 -1.66699 41.667 -5 51s-12 14 -26 14c-11.333 0 -18.833 -4.33301 -22.5 -13
s-5.5 -20.334 -5.5 -35.001v-7l-585 -1v5c0.666992 102.667 24.167 185.5 70.5 248.5s119.833 109.5 220.5 139.5s234.334 45 401.001 45c109.333 0 208 -13.667 296 -41s158.333 -71.333 211 -132s79 -138.334 79 -233.001v-699h-602l-63 128
c-23.333 -55.333 -59.833 -97.166 -109.5 -125.499s-111.834 -42.5 -186.501 -42.5c-69.333 0 -133.166 14.5 -191.499 43.5zM709.498 372.501c7 7 10.833 17.167 11.5 30.5v47h-6c-22 -2 -36.333 -7.5 -43 -16.5s-10 -22.167 -10 -39.5v-6
c0 -8.66699 2.33301 -15.167 7 -19.5s10.667 -6.5 18 -6.5c8 0 15.5 3.5 22.5 10.5zM475.998 1203.5c-52 35.667 -78.001 88.5 -78.001 158.5v3c0 71.333 26.333 125.333 79 162s130.334 55 233.001 55c100 0 175.667 -18.333 227 -55s77 -90.667 77 -162v-3
c0 -70 -26 -122.833 -78 -158.5s-128.667 -53.5 -230 -53.5s-178 17.833 -230 53.5zM751.997 1364v3c0 16.667 -15.667 25 -47 25c-32 0 -48 -8.66699 -48 -26v-2c0 -18 16 -27 48 -27c31.333 0 47 9 47 27zM535.997 1868h569l-174 -253h-495z" />
    <glyph glyph-name="AEacute" unicode="&#x1fc;" horiz-adv-x="2031" 
d="M475 1360h1485v-473h-385v-48h308v-333h-308v-47h394v-459h-1130v88h-89l-9 -88h-736zM839 460v278h-22l-7 -68l-23 -210h52zM1206 1699h569l-174 -296h-495z" />
    <glyph glyph-name="aeacute" unicode="&#x1fd;" horiz-adv-x="2111" 
d="M1182 -11.5c-67.333 18.333 -125 45.165 -173 80.498c-38 -35.333 -94.833 -62.166 -170.5 -80.499s-168.5 -27.5 -278.5 -27.5c-178.667 0 -313.5 29.5 -404.5 88.5s-136.5 146.5 -136.5 262.5v37c0 94.667 43.333 166.334 130 215.001s214.667 73 384 73l195 -2v23
c0 43.333 -10.333 65 -31 65c-9.33301 0 -16 -2.5 -20 -7.5s-6.33301 -13.167 -7 -24.5l-1 -23l-585 -1v54c0 126.667 52.5 222.334 157.5 287.001s260.167 97 465.5 97c165.333 0 294.333 -16.333 387 -49c90 32 219 48 387 48c202.667 0 357.167 -46 463.5 -138
s159.5 -227.667 159.5 -407c0 -24.667 -2.83301 -53.334 -8.5 -86.001s-12.834 -64 -21.5 -94h-696v-77c0 -19.333 10 -29 30 -29c19.333 0 29 9.66699 29 29v18h619c-36.667 -112 -110.334 -199.833 -221.001 -263.5s-253 -95.5 -427 -95.5
c-83.333 0 -158.666 9.16699 -225.999 27.5zM1437 618.999v73c0 19.333 -9.66699 29 -29 29c-20 0 -30 -9.66699 -30 -29v-73h59zM728 402.999v47h-6c-35.333 -3.33301 -53 -22 -53 -56v-6c0 -17.333 8.33301 -26 25 -26c20.667 0 32 13.667 34 41zM924 1444h569l-174 -296
h-495z" />
    <glyph glyph-name="Oslashacute" unicode="&#x1fe;" horiz-adv-x="1614" 
d="M1594 683c0 -238 -66.333 -417.834 -199 -539.501s-329.334 -182.5 -590.001 -182.5c-19.333 0 -46.333 0.666992 -81 2l-127 -195l-546 302l95 150c-86.667 116.667 -130 271 -130 463c0 236.667 66.333 415.334 199 536.001s329.334 181 590.001 181
c20 0 48.667 -0.666992 86 -2l29 45h-385l100 296h569l-113 -192l474 -281l-90 -139c79.333 -113.333 119 -261.333 119 -444zM833 782.999c0 19.333 -9.33301 29 -28 29s-28 -9.66699 -28 -29v-200c0 -19.333 9.33301 -29 28 -29s28 9.66699 28 29v200z" />
    <glyph glyph-name="oslashacute" unicode="&#x1ff;" horiz-adv-x="1372" 
d="M1386 553v-40.999c0 -182 -57.667 -319.333 -173 -412s-285.666 -139 -510.999 -139h-13l-151 -185l-492 252l91 123c-79.333 89.333 -119 209.666 -119 360.999v40c0 182 57.667 319.5 173 412.5s285.666 139.5 510.999 139.5c38.667 0 79.667 -1.66699 123 -5l72 105
h-484l100 253h569l-131 -191l398 -235l-79 -121c77.333 -89.333 116 -208.333 116 -357zM731 592.001c0 32.667 -9.66699 49 -29 49c-20 0 -30 -16.333 -30 -49v-120c0 -32.667 10 -49 30 -49c19.333 0 29 16.333 29 49v120z" />
    <glyph glyph-name="uni0218" unicode="&#x218;" horiz-adv-x="1428" 
d="M22 444l-0.000976562 6h655v-13c2 -19.333 12 -29 30 -29c9.33301 0 16.5 3 21.5 9s7.5 12.667 7.5 20c0 4 -2.16699 8.66699 -6.5 14s-10.5 8.66602 -18.5 9.99902c-16.667 2.66699 -41 5.66699 -73 9c-104 11.333 -197.667 27.666 -281 48.999
s-159.166 62.833 -227.499 124.5s-102.5 148.834 -102.5 261.501v4c4.66699 174.667 62 300.167 172 376.5s272 114.5 486 114.5c155.333 0 284.5 -20.333 387.5 -61s179.333 -97.167 229 -169.5s74.834 -157.166 75.501 -254.499v-4h-629v12
c0 6.66699 -2.66699 12.834 -8 18.501s-12.333 8.5 -21 8.5s-15.834 -2.83301 -21.501 -8.5s-8.5 -12.5 -8.5 -20.5c0 -4 3.33301 -9.5 10 -16.5s14 -11.167 22 -12.5s33.333 -4 76 -8c103.333 -8 196.833 -22.5 280.5 -43.5s159.334 -65.5 227.001 -133.5
s101.5 -167 101.5 -297v-5c-3.33301 -98.667 -33.333 -181.334 -90 -248.001s-133.834 -116.5 -231.501 -149.5s-210.167 -49.5 -337.5 -49.5c-482 0 -723.667 162 -725 486zM409.999 -85h625l-159 -357h-514z" />
    <glyph glyph-name="uni0219" unicode="&#x219;" horiz-adv-x="1264" 
d="M160.5 65c-94.333 72 -141.834 165 -142.501 279v4l590 -18v-6c0 -20 9 -30 27 -30c9.33301 0 16.5 2.33301 21.5 7s7.5 13.667 7.5 27c0 8 -3.5 14.5 -10.5 19.5s-15.167 8.16699 -24.5 9.5c-12 2.66699 -33.667 5 -65 7c-92 9.33301 -175 22.5 -249 39.5
s-141.333 50 -202 99s-91 118.5 -91 208.5v4c0 94 22 169.667 66 227s108.833 98.833 194.5 124.5s194.167 38.5 325.5 38.5c206 0 359.5 -32.333 460.5 -97s151.833 -161 152.5 -289v-3l-567 10v19c0 6 -2.5 11.5 -7.5 16.5s-11.833 7.5 -20.5 7.5
c-18.667 0 -28 -9 -28 -27c0 -10 3.66699 -18 11 -24s20 -10.667 38 -14c8.66699 -1.33301 33.334 -4 74.001 -8c91.333 -8 172.666 -20.667 243.999 -38s136 -53 194 -107s87 -132 87 -234v-4c0 -78.667 -24.667 -144.5 -74 -197.5s-118 -92.667 -206 -119
s-189.667 -39.5 -305 -39.5c-239.333 0 -406.166 36 -500.499 108zM335.999 -86h625l-159 -357h-514z" />
    <glyph glyph-name="uni021A" unicode="&#x21a;" horiz-adv-x="1217" 
d="M241 839h-230v521h1189v-521h-227v-839h-732v839zM312 -43h625l-159 -357h-514z" />
    <glyph glyph-name="uni021B" unicode="&#x21b;" horiz-adv-x="973" 
d="M214 110.5c-66 73.667 -99 182.5 -99 326.5v176h-121v397l168 112l168 211l500 2v-270h127v-452h-129v-108c0 -31.333 12 -47 36 -47h91l1 -458h-450c-128.667 -0 -226 36.833 -292 110.5zM312 -43h625l-159 -357h-514z" />
    <glyph glyph-name="uni0228" unicode="&#x228;" horiz-adv-x="1175" 
d="M763 0l-22 -83.999c68.667 -20.667 120.334 -53.334 155.001 -98.001s52 -100.334 52 -167.001v-8c0 -101.333 -31.333 -177.666 -94 -228.999s-155.334 -77 -278.001 -77c-132 0 -231.667 18.667 -299 56l56 272c24 -6.66699 52 -10 84 -10c42.667 0 64 8.33301 64 25
l-1 6c0 16 -45.667 25.667 -137 29l55 285h-372v1360h1121v-473h-375v-48h298v-333h-298v-47h384v-459h-393z" />
    <glyph glyph-name="uni0229" unicode="&#x229;" 
d="M666 379l0.00195312 -76.998c0 -19.333 10 -29 30 -29c19.333 0 29 9.66699 29 29v18h619c-28.667 -95.333 -81.167 -171.833 -157.5 -229.5s-175.5 -96.167 -297.5 -115.5l-37 -142c68.667 -20.667 120.334 -53.334 155.001 -98.001s52 -100.334 52 -167.001v-8
c0 -101.333 -31.333 -177.666 -94 -228.999s-155.334 -77 -278.001 -77c-132 0 -231.667 18.667 -299 56l56 272c24 -6.66699 52 -10 84 -10c42.667 0 64 8.33301 64 25l-1 6c0 16 -45.667 25.667 -137 29l66 340c-168 23.333 -294.667 82.166 -380 176.499
s-128 222.833 -128 385.5v1c0 188 57.667 329.833 173 425.5s285.666 143.5 510.999 143.5s395.666 -45.833 510.999 -137.5s173 -227.5 173 -407.5c0 -48 -6 -108 -18 -180h-696zM666.002 712.002v-73h59v73c0 19.333 -9.66699 29 -29 29c-20 0 -30 -9.66699 -30 -29z" />
    <glyph glyph-name="uni022A" unicode="&#x22a;" horiz-adv-x="1610" 
d="M215 1219c132.667 120.667 329.334 181 590.001 181s457.334 -60.333 590.001 -181s199 -299.334 199 -536.001c0 -238 -66.333 -417.833 -199 -539.5s-329.334 -182.5 -590.001 -182.5s-457.334 60.833 -590.001 182.5s-199 301.5 -199 539.5
c0 236.667 66.333 415.334 199 536.001zM805 554c18.667 0 28 9.66699 28 29v200c0 19.333 -9.33301 29 -28 29s-28 -9.66699 -28 -29v-200c0 -19.333 9.33301 -29 28 -29zM446 1483c-30.667 26 -46 68.667 -46 128c0 58.667 15.167 101 45.5 127s79.833 39 148.5 39
c71.333 0 122.5 -13 153.5 -39s46.5 -68.333 46.5 -127c0 -59.333 -15.5 -102 -46.5 -128s-81.5 -39 -151.5 -39c-69.333 0 -119.333 13 -150 39zM859 1483c-30.667 26 -46 68.667 -46 128c0 58.667 15.167 101 45.5 127s79.833 39 148.5 39c71.333 0 122.5 -13 153.5 -39
s46.5 -68.333 46.5 -127c0 -59.333 -15.5 -102 -46.5 -128s-81.5 -39 -151.5 -39c-69.333 0 -119.333 13 -150 39zM435 2116h736v-295h-736v295z" />
    <glyph glyph-name="uni022B" unicode="&#x22b;" horiz-adv-x="1404" 
d="M191 100c-115.333 92.667 -173 230 -173 412v40c0 182 57.667 319.5 173 412.5s285.666 139.5 510.999 139.5s395.666 -46.333 510.999 -139s173 -230 173 -412v-41c0 -182 -57.667 -319.333 -173 -412s-285.666 -139 -510.999 -139s-395.666 46.333 -510.999 139z
M731 472v120c0 32.667 -9.66699 49 -29 49c-20 0 -30 -16.333 -30 -49v-120c0 -32.667 10 -49 30 -49c19.333 0 29 16.333 29 49zM343 1187c-30.667 26 -46 68.667 -46 128c0 58.667 15.167 101 45.5 127s79.833 39 148.5 39c71.333 0 122.5 -13 153.5 -39
s46.5 -68.333 46.5 -127c0 -59.333 -15.5 -102 -46.5 -128s-81.5 -39 -151.5 -39c-69.333 0 -119.333 13 -150 39zM756 1187c-30.667 26 -46 68.667 -46 128c0 58.667 15.167 101 45.5 127s79.833 39 148.5 39c71.333 0 122.5 -13 153.5 -39s46.5 -68.333 46.5 -127
c0 -59.333 -15.5 -102 -46.5 -128s-81.5 -39 -151.5 -39c-69.333 0 -119.333 13 -150 39zM332 1820h736v-295h-736v295z" />
    <glyph glyph-name="uni0237" unicode="&#x237;" horiz-adv-x="769" 
d="M-84 -43l41.002 0.00195312c27.333 0 45.666 4.66699 54.999 14s14 27.666 14 54.999v1039h718v-1005c0 -132 -20.833 -230.333 -62.5 -295s-105.334 -107.334 -191.001 -128.001s-209.167 -31 -370.5 -31h-204v351z" />
    <glyph glyph-name="uni02B0" unicode="&#x2b0;" horiz-adv-x="1415" 
d="M25 1359l721.999 -0.000976562v-283c44.667 10.667 85.334 18.167 122.001 22.5s81 6.5 133 6.5c98 0 174.167 -16.833 228.5 -50.5s93.333 -89.5 117 -167.5s35.5 -187 35.5 -327v-560h-657v549c0 38.667 -2.16699 65.334 -6.5 80.001s-11.833 22 -22.5 22
s-18 -7.5 -22 -22.5s-6 -42.5 -6 -82.5v-546h-644v1359z" />
    <glyph glyph-name="uni02B2" unicode="&#x2b2;" horiz-adv-x="773" 
d="M154.5 1067c-55 13.333 -94.332 35.666 -117.999 66.999s-35.5 74.666 -35.5 129.999c0 56 12 99.667 36 131s63.5 53.666 118.5 66.999s132.167 20 231.5 20s176.666 -6.66699 231.999 -20s95 -35.666 119 -66.999s36 -75 36 -131c0 -55.333 -12 -98.666 -36 -129.999
s-63.833 -53.666 -119.5 -66.999s-133.5 -20 -233.5 -20c-98.667 0 -175.5 6.66699 -230.5 20zM-83.999 -43l41.002 0.00195312c27.333 0 45.666 4.66699 54.999 14s14 27.666 14 54.999v1017c123.333 -18 246.666 -27 369.999 -27c70 0 135.667 2.66699 197 8
s112.666 11.666 153.999 18.999v-983c0 -132.667 -21.167 -231.5 -63.5 -296.5s-106.666 -107.833 -192.999 -128.5s-209.833 -31 -370.5 -31h-204v353z" />
    <glyph glyph-name="uni02B7" unicode="&#x2b7;" horiz-adv-x="1979" 
d="M-4 1065h650l15 -300l4 -184h32l3 184l16 300h546l15 -300l4 -184h32l3 184l16 300h651l-306 -1065h-658l-15 443h-33l-10 -443h-660z" />
    <glyph glyph-name="circumflex" unicode="&#x2c6;" horiz-adv-x="756" 
d="M-43 1109l131 294h571l131 -294l-384 -1l-33 103l-32 -103z" />
    <glyph glyph-name="caron" unicode="&#x2c7;" horiz-adv-x="741" 
d="M-43 1404l384 1l33 -103l32 103l384 -1l-131 -294h-571z" />
    <glyph glyph-name="uni02C9" unicode="&#x2c9;" horiz-adv-x="940" 
d="M77 1452h784v-342h-784v342z" />
    <glyph glyph-name="breve" unicode="&#x2d8;" horiz-adv-x="886" 
d="M188.5 1131c-61.667 16.667 -105.833 44.5 -132.5 83.5s-40 93.5 -40 163.5v28h402v-28c0.666992 -16.667 3 -28.334 7 -35.001s10.667 -10 20 -10c11.333 0 19.166 3.33301 23.499 10s6.5 18.334 6.5 35.001v28h398v-28c0 -70 -13.333 -124.5 -40 -163.5
s-70.667 -66.833 -132 -83.5s-146.666 -25 -255.999 -25s-194.833 8.33301 -256.5 25z" />
    <glyph glyph-name="dotaccent" unicode="&#x2d9;" horiz-adv-x="577" 
d="M82.5 1148.5c-41.667 26.333 -62.5 65.168 -62.5 116.501c0 52.667 20.667 91.834 62 117.501s110 38.5 206 38.5c96.667 0 165.667 -12.833 207 -38.5s62 -64.834 62 -117.501s-20.667 -91.834 -62 -117.501s-110.333 -38.5 -207 -38.5
c-95.333 0 -163.833 13.167 -205.5 39.5z" />
    <glyph glyph-name="ring" unicode="&#x2da;" horiz-adv-x="663" 
d="M103 1173c-52 44 -78.001 109.333 -78.001 196v3c0 84.667 26 148.667 78 192s128.667 65 230 65s177.833 -21.667 229.5 -65s77.834 -107.333 78.501 -192v-3c0 -86.667 -26 -152 -78 -196s-128.667 -66 -230 -66s-178 22 -230 66zM378.999 1371l0.000976562 3
c-0.666992 30 -16.334 45 -47.001 45s-46.667 -15.333 -48 -46v-2c0 -31.333 16 -47 48 -47c31.333 0 47 15.667 47 47z" />
    <glyph glyph-name="ogonek" unicode="&#x2db;" horiz-adv-x="864" 
d="M118 -431.5c-65.333 39.667 -97.999 98.5 -97.999 176.5c0 69.333 32.5 134.5 97.5 195.5s160.833 115.833 287.5 164.5l419 -87c-110 -82 -164.667 -130.333 -164 -145c0 -15.333 8.33301 -23 25 -23c11.333 0 33.666 11.667 66.999 35l92 -261
c-94.667 -76.667 -240.334 -115 -437.001 -115c-127.333 0 -223.666 19.833 -288.999 59.5z" />
    <glyph glyph-name="tilde" unicode="&#x2dc;" horiz-adv-x="846" 
d="M8 1206c0.666992 0 1 -10 1 -30c0 102.667 24.5 180.167 73.5 232.5s121.5 78.5 217.5 78.5c112.667 0 179 -25.667 199 -77l2 -5c10 -24 24.333 -36 43 -36c19.333 0 29 15 29 45v46l265 -1v-68c-0.666992 0 -1 7.66699 -1 23c0 -100.667 -24.5 -176.667 -73.5 -228
s-121.5 -77 -217.5 -77c-106.667 0 -172.667 25.333 -198 76l-3 6c-12 24 -26.333 36 -43 36c-19.333 0 -29 -16 -29 -48v-43l-265 1v69z" />
    <glyph glyph-name="hungarumlaut" unicode="&#x2dd;" horiz-adv-x="800" 
d="M139 1403h357l-174 -295h-283zM509 1403h357l-174 -295h-283z" />
    <glyph glyph-name="uni02E1" unicode="&#x2e1;" horiz-adv-x="773" 
d="M26 1360h721v-1360h-721v1360z" />
    <glyph glyph-name="gravecomb" unicode="&#x300;" horiz-adv-x="0" 
d="M-674 1360h569l100 -252h-495z" />
    <glyph glyph-name="acutecomb" unicode="&#x301;" horiz-adv-x="0" 
d="M-575 1361h569l-174 -253h-495z" />
    <glyph glyph-name="uni0302" unicode="&#x302;" horiz-adv-x="0" 
d="M-799 1109l131 254h571l131 -254l-384 -1l-33 103l-32 -103z" />
    <glyph glyph-name="tildecomb" unicode="&#x303;" horiz-adv-x="0" 
d="M-837 1176c0 66.667 10.665 117.333 31.998 152s52.5 58.167 93.5 70.5s96.167 18.5 165.5 18.5c112.667 0 179 -25.667 199 -77l2 -5c10 -24 24.333 -36 43 -36c19.333 0 29 15 29 45v46l265 -1l-1 -35c0 -65.333 -10.667 -115.833 -32 -151.5
s-52.666 -60.167 -93.999 -73.5s-96.333 -20 -165 -20c-55.333 0 -99.166 5 -131.499 15s-54.5 27 -66.5 51l-3 6c-12 24 -26.333 36 -43 36c-19.333 0 -29 -16 -29 -48v-43l-265 11z" />
    <glyph glyph-name="uni0304" unicode="&#x304;" horiz-adv-x="0" 
d="M-939 1404h736v-295h-736v295z" />
    <glyph glyph-name="uni0306" unicode="&#x306;" horiz-adv-x="0" 
d="M-698 1127c-61.333 14 -105.333 37.167 -132 69.5s-40 77.5 -40 135.5v28h402v-18c0.666992 -13.333 3 -22.5 7 -27.5s10.667 -7.5 20 -7.5c11.333 0 19.166 2.5 23.499 7.5s6.5 14.167 6.5 27.5v18h398v-28c0 -58 -13.167 -103.167 -39.5 -135.5
s-70.166 -55.5 -131.499 -69.5s-147 -21 -257 -21s-195.667 7 -257 21z" />
    <glyph glyph-name="uni0307" unicode="&#x307;" horiz-adv-x="0" 
d="M-449.5 1113.5c-38.333 8.33301 -65.833 22.166 -82.5 41.499s-25 46 -25 80s8.33301 60.5 25 79.5s44 32.5 82 40.5s91.667 12 161 12s123.166 -4 161.499 -12s65.833 -21.5 82.5 -40.5s25 -45.5 25 -79.5s-8.33301 -60.667 -25 -80s-44.167 -33.166 -82.5 -41.499
s-92.166 -12.5 -161.499 -12.5c-68.667 0 -122.167 4.16699 -160.5 12.5z" />
    <glyph glyph-name="uni0308" unicode="&#x308;" horiz-adv-x="0" 
d="M-755 1148c-30.667 26 -46 68.667 -46 128c0 58.667 15.167 101 45.5 127s79.833 39 148.5 39c71.333 0 122.5 -13 153.5 -39s46.5 -68.333 46.5 -127c0 -59.333 -15.5 -102 -46.5 -128s-81.5 -39 -151.5 -39c-69.333 0 -119.333 13 -150 39zM-342 1148
c-30.667 26 -46 68.667 -46 128c0 58.667 15.167 101 45.5 127s79.833 39 148.5 39c71.333 0 122.5 -13 153.5 -39s46.5 -68.333 46.5 -127c0 -59.333 -15.5 -102 -46.5 -128s-81.5 -39 -151.5 -39c-69.333 0 -119.333 13 -150 39z" />
    <glyph glyph-name="hookabovecomb" unicode="&#x309;" horiz-adv-x="0" 
d="M-588 1280c81.333 6 121.999 13.333 121.999 22l1 5c0 10.667 -23 16 -69 16c-49.333 0 -94.666 -2.66699 -135.999 -8l-40 183c107.333 29.333 212.333 44 315 44c108.667 0 190.667 -17.667 246 -53s83 -87.333 83 -156v-7c0 -48.667 -17 -89 -51 -121
s-84.667 -55.667 -152 -71c-70 -16 -174.667 -25.333 -314 -28z" />
    <glyph glyph-name="uni030A" unicode="&#x30a;" horiz-adv-x="0" 
d="M-563 1163.5c-52 35.667 -78.001 88.5 -78.001 158.5v3c0 71.333 26.333 125.333 79 162s130.334 55 233.001 55c100 0 175.667 -18.333 227 -55s77 -90.667 77 -162v-3c0 -70 -26 -122.833 -78 -158.5s-128.667 -53.5 -230 -53.5s-178 17.833 -230 53.5zM-287.001 1324
v3c0 16.667 -15.667 25 -47 25c-32 0 -48 -8.66699 -48 -26v-2c0 -18 16 -27 48 -27c31.333 0 47 9 47 27z" />
    <glyph glyph-name="uni030B" unicode="&#x30b;" horiz-adv-x="0" 
d="M-671 1363h357l-164 -255h-283zM-301 1363h357l-164 -255h-283z" />
    </font>
</defs>
</svg>
