<?xml version="1.0" standalone="no"?>
<!DOCTYPE svg PUBLIC "-//W3C//DTD SVG 1.1//EN" "http://www.w3.org/Graphics/SVG/1.1/DTD/svg11.dtd" >
<svg>
<metadata>
Created by FontForge 20090914 at Sun May 24 21:45:33 2020
 By www-data
Copyright &#194;&#169; 2018 by Francesco Canovaro. All rights reserved.
</metadata>
<defs>
<font id="Extenda-30Deca" horiz-adv-x="468" >
  <font-face 
    font-family="Extenda 30 Deca"
    font-weight="350"
    font-stretch="normal"
    units-per-em="2048"
    panose-1="2 11 0 3 2 2 0 0 0 2"
    ascent="1638"
    descent="-410"
    x-height="1065"
    cap-height="1360"
    bbox="-628 -594 1201 2042"
    underline-thickness="95"
    underline-position="-50"
    unicode-range="U+000D-U+FB05"
  />
<missing-glyph horiz-adv-x="539" 
 />
    <glyph glyph-name="arrowleft" unicode="&#x3c;&#x2d;" horiz-adv-x="450" 
d="M23 669l119 158h148l-57 -92h192v-132h-192l58 -92h-149z" />
    <glyph glyph-name="arrowup" unicode="&#x3c;&#x2d;&#x2d;&#x2d;" horiz-adv-x="496" 
d="M176 649l-92 -58v149l158 119l158 -119v-148l-92 57v-172h-132v172z" />
    <glyph glyph-name="arrowright" unicode="&#x2d;&#x3e;" horiz-adv-x="433" 
d="M198 734l-57 92l149 1l119 -159l-119 -158h-149l57 92l-171 1v131h171z" />
    <glyph glyph-name="arrowdown" unicode="&#x2d;&#x3e;&#x3e;&#x3e;" horiz-adv-x="359" 
d="M22 596v149l92 -58v172h132v-172l92 58v-149l-159 -119z" />
    <glyph glyph-name="arrowboth" unicode="&#x3c;&#x2d;&#x3e;" horiz-adv-x="606" 
d="M25 669l119 158h148l-57 -92h136l-58 92h149l119 -157l-119 -159h-148l57 92h-136l57 -92h-148z" />
    <glyph glyph-name="arrowupdn" unicode="&#x3c;&#x2d;&#x2d;&#x3e;" horiz-adv-x="367" 
d="M25 510v149l92 -57v136l-92 -58v149l158 119l158 -119v-149l-92 58v-136l92 57l1 -149l-158 -119z" />
    <glyph glyph-name="uni2196" unicode="&#x3c;&#x2d;&#x2d;" horiz-adv-x="409" 
d="M164 608l-24 -106l-105 105l28 196l196 28l105 -105l-106 -25l121 -122l-93 -92z" />
    <glyph glyph-name="uni2197" unicode="&#x3c;&#x2d;&#x2d;&#x2d;&#x2d;" horiz-adv-x="403" 
d="M151 701l-106 25l105 105l196 -28l27 -196l-104 -105l-25 105l-121 -120l-94 92z" />
    <glyph glyph-name="uni2198" unicode="&#x2d;&#x3e;&#x3e;" horiz-adv-x="415" 
d="M49 608l106 25l-121 121l93 93l121 -121l25 105l105 -104l-28 -197l-196 -27z" />
    <glyph glyph-name="uni2199" unicode="&#x2d;&#x3e;&#x3e;&#x3e;&#x3e;" horiz-adv-x="410" 
d="M63 524l-28 196l105 105l25 -106l121 121l93 -93l-121 -121l106 -25l-105 -105z" />
    <glyph glyph-name="f_f" unicode="ff" horiz-adv-x="675" 
d="M54 930l-55.998 0.000976562v135h56v183c0 36.667 6.66699 64.5 20 83.5s33.666 32 60.999 39s65 10.5 113 10.5c50 0 107.667 -4 173 -12c-18.667 -6.66699 -31.5 -19.834 -38.5 -39.501s-12.5 -40.5 -16.5 -62.5c-12 0.666992 -42 1 -90 1c-18 0 -27 -8.66699 -27 -26
v-177h132v183c0 36.667 7 64.667 21 84s34.5 32.333 61.5 39s62.833 10 107.5 10c11.333 0 28.333 -0.666992 51 -2c5.33301 0 12.666 -0.5 21.999 -1.5s16 -1.16699 20 -0.5v-110l-60 1c-18.667 0 -28 -8.66699 -28 -26v-177h86v-135h-86v-930h-195v930h-132v-930h-195v930
z" />
    <glyph glyph-name="f_f_i" unicode="ffi" horiz-adv-x="912" 
d="M54 930l-56.001 0.00292969v134h56v184c0 34 5.5 61.167 16.5 81.5s31.833 35.833 62.5 46.5s74.667 16 132 16c19.333 0 40.833 -1.33301 64.5 -4s43.834 -5.33398 60.501 -8.00098s27.334 -4.33398 32.001 -5.00098c-18.667 -8 -31.5 -21.167 -38.5 -39.5
s-11.167 -33.833 -12.5 -46.5s-2.33301 -20.334 -3 -23.001l-92 1c-10 0 -17 -2.16699 -21 -6.5s-6 -10.833 -6 -19.5v-177h132v180c0 38.667 6 68.334 18 89.001s34.333 35.5 67 44.5s80.667 13.5 144 13.5c62 0 113.667 -1 155 -3s69 -4.33301 83 -7
c16.667 -14.667 28.334 -36.334 35.001 -65.001s10 -58.667 10 -90c0 -35.333 -3 -62 -9 -80s-16.5 -30.5 -31.5 -37.5s-36.833 -10.5 -65.5 -10.5c-18.667 0 -33.834 2.33301 -45.501 7s-21.334 13.667 -29.001 27s-13.5 33 -17.5 59v77l-84 -2
c-14 0 -23.333 -1.66699 -28 -5s-7 -11 -7 -23v-174h78v-134h-78v-930h-195v930h-132v-930h-195v930zM689.999 1065c18.667 -9.33301 51 -14 97 -14c40 0 73 4.66699 99 14v-1065h-196v1065z" />
    <glyph glyph-name="f_f_l" unicode="ffl" horiz-adv-x="911" 
d="M54 930l-56 0.00292969v134h56v184c0 34 5.5 61.167 16.5 81.5s31.833 35.833 62.5 46.5s74.667 16 132 16c19.333 0 40.833 -1.33301 64.5 -4s43.834 -5.33398 60.501 -8.00098s27.334 -4.33398 32.001 -5.00098c-18.667 -8 -31.5 -21.167 -38.5 -39.5
s-11.167 -33.833 -12.5 -46.5s-2.33301 -20.334 -3 -23.001c-11.333 0.666992 -42 1 -92 1c-18 0 -27 -8.66699 -27 -26v-177h132v184c0 34.667 5.33301 62 16 82s32.167 35.333 64.5 46s80.166 16 143.499 16c64 0 115.167 -3.5 153.5 -10.5s74.166 -15.5 107.499 -25.5
l19 -6v-1350h-195v1266l-86 1c-18.667 0 -28 -8.66699 -28 -26v-177h86v-134h-86v-930h-195v930h-132v-930h-195v930z" />
    <glyph glyph-name="f_i" unicode="fi" horiz-adv-x="585" 
d="M54 930l-55.9971 0.00195312v134h56v180c0 38.667 6 68.334 18 89.001s34.333 35.5 67 44.5s80.667 13.5 144 13.5c62 0 113.667 -1 155 -3s69 -4.33301 83 -7c17.333 -6.66699 29.166 -23.334 35.499 -50.001s9.5 -64.334 9.5 -113.001c0 -35.333 -3 -61.833 -9 -79.5
s-16.5 -30 -31.5 -37s-36.833 -10.5 -65.5 -10.5c-18.667 0 -33.834 2.16699 -45.501 6.5s-21.334 13.166 -29.001 26.499s-13.5 33.333 -17.5 60v84c-13.333 0 -41.333 -0.666992 -84 -2c-14 0 -23.333 -1.66699 -28 -5s-7 -11 -7 -23v-174h78v-134h-78v-930h-195v930z
M363.003 1065c18.667 -9.33301 51 -14 97 -14c40 0 73 4.66699 99 14v-1065h-196v1065z" />
    <glyph glyph-name="f_l" unicode="fl" horiz-adv-x="584" 
d="M54 930h-55.999v134h56v184c0 34.667 5.83301 62 17.5 82s35.667 35.333 72 46s91.166 16 164.499 16c50.667 0 93.667 -3.5 129 -10.5s68.333 -15.5 99 -25.5l22 -6v-1350h-195v1266l-87 1c-18 0 -27 -8.66699 -27 -26v-177h85v-134h-85v-930h-195v930z" />
    <glyph glyph-name="zero.nalt" unicode="&#x28;&#x30;&#x29;" horiz-adv-x="799" 
d="M117.5 181c-63.667 58 -95.501 143.666 -95.501 256.999l1 486c0.666992 112.667 32.834 197.5 96.501 254.5s157.167 85.5 280.5 85.5c124.667 0 218.5 -28.667 281.5 -86s94.5 -142.666 94.5 -255.999v-487c-0.666992 -112.667 -32.667 -197.667 -96 -255
s-156.666 -86 -279.999 -86c-124.667 0 -218.834 29 -282.501 87zM586.999 262.999c42 38.667 63.667 96.334 65 173.001v486c0 76.667 -21.167 134.5 -63.5 173.5s-105.166 58.5 -188.499 58.5c-82.667 0 -145.167 -19.333 -187.5 -58s-63.833 -96.334 -64.5 -173.001v-485
c0 -77.333 21.167 -135.5 63.5 -174.5s105.166 -58.5 188.499 -58.5c82.667 0 145 19.333 187 58zM266.999 332.999c-28 26.667 -42.002 62.333 -42.002 107v475c0.666992 44.667 15.334 80.167 44.001 106.5s71.334 39.5 128.001 39.5
c59.333 0 102.833 -13.167 130.5 -39.5s41.5 -61.833 41.5 -106.5v-474c0 -45.333 -14.167 -81.333 -42.5 -108s-71.5 -40 -129.5 -40c-58.667 0 -102 13.333 -130 40zM418.497 399.998c4.33301 8 6.5 21.667 6.5 41v473c0 19.333 -2.16699 32.833 -6.5 40.5
s-11.5 11.5 -21.5 11.5c-9.33301 0 -16.166 -3.83301 -20.499 -11.5s-6.5 -21.167 -6.5 -40.5v-473c0 -19.333 2.16699 -33 6.5 -41s11.166 -12 20.499 -12c10 0 17.167 4 21.5 12z" />
    <glyph glyph-name="one.nalt" unicode="&#x28;&#x31;&#x29;" horiz-adv-x="799" 
d="M117.5 181c-63.667 58 -95.501 143.666 -95.501 256.999l1 486c0.666992 112.667 32.834 197.5 96.501 254.5s157.167 85.5 280.5 85.5c124.667 0 218.5 -28.667 281.5 -86s94.5 -142.666 94.5 -255.999v-487c-0.666992 -112.667 -32.667 -197.667 -96 -255
s-156.666 -86 -279.999 -86c-124.667 0 -218.834 29 -282.501 87zM586.999 262.999c42 38.667 63.667 96.334 65 173.001v486c0 76.667 -21.167 134.5 -63.5 173.5s-105.166 58.5 -188.499 58.5c-82.667 0 -145.167 -19.333 -187.5 -58s-63.833 -96.334 -64.5 -173.001v-485
c0 -77.333 21.167 -135.5 63.5 -174.5s105.166 -58.5 188.499 -58.5c82.667 0 145 19.333 187 58zM330.999 939.999l-53 -18l-1 103l76 24h123v-742h-147z" />
    <glyph glyph-name="two.nalt" unicode="&#x28;&#x32;&#x29;" horiz-adv-x="799" 
d="M117.5 181c-63.667 58 -95.501 143.666 -95.501 256.999l1 486c0.666992 112.667 32.834 197.5 96.501 254.5s157.167 85.5 280.5 85.5c124.667 0 218.5 -28.667 281.5 -86s94.5 -142.666 94.5 -255.999v-487c-0.666992 -112.667 -32.667 -197.667 -96 -255
s-156.666 -86 -279.999 -86c-124.667 0 -218.834 29 -282.501 87zM586.999 262.999c42 38.667 63.667 96.334 65 173.001v486c0 76.667 -21.167 134.5 -63.5 173.5s-105.166 58.5 -188.499 58.5c-82.667 0 -145.167 -19.333 -187.5 -58s-63.833 -96.334 -64.5 -173.001v-485
c0 -77.333 21.167 -135.5 63.5 -174.5s105.166 -58.5 188.499 -58.5c82.667 0 145 19.333 187 58zM237.999 398.999c45.333 74 80.167 134.166 104.5 180.499s41.833 87.833 52.5 124.5s16.334 74 17.001 112v128c0 18.667 -9.33301 28 -28 28
c-20.667 0 -30.334 -11.333 -29.001 -34v-192h-116v192c0 38.667 11.667 69.167 35 91.5s64 33.5 122 33.5c54.667 0 95.5 -10.5 122.5 -31.5s40.833 -49.5 41.5 -85.5v-128c0 -41.333 -4.83301 -80.666 -14.5 -117.999s-22.5 -73.5 -38.5 -108.5
s-39.667 -83.167 -71 -144.5l-11 -20.5l-9 -17.5v-12c18.667 0 50.667 2.33301 96 7c26.667 2.66699 43 4 49 4v-102h-323v93z" />
    <glyph glyph-name="three.nalt" unicode="&#x28;&#x33;&#x29;" horiz-adv-x="799" 
d="M681.5 1178c63 -57.333 94.499 -142.667 94.499 -256v-487c-0.666992 -112.667 -32.667 -197.667 -96 -255s-156.666 -86 -279.999 -86c-124.667 0 -218.834 29 -282.501 87s-95.5 143.667 -95.5 257l1 486c0.666992 112.667 32.834 197.5 96.501 254.5
s157.167 85.5 280.5 85.5c124.667 0 218.5 -28.667 281.5 -86zM651.999 921.999c0 76.667 -21.167 134.5 -63.5 173.5s-105.166 58.5 -188.499 58.5c-82.667 0 -145.167 -19.333 -187.5 -58s-63.833 -96.334 -64.5 -173.001v-485c0 -77.333 21.167 -135.5 63.5 -174.5
s105.166 -58.5 188.499 -58.5c82.667 0 145 19.333 187 58s63.667 96.334 65 173.001v486zM532.499 705.999c25 -15.333 37.499 -40.667 37.499 -76v-223c0 -38.667 -14.333 -68 -43 -88s-70.667 -30 -126 -30c-53.333 0 -93.666 10 -120.999 30s-41 49.333 -41 88v101h135
v-99c0 -21.333 9 -32 27 -32c18.667 0 28 10.667 28 32v223c0 21.333 -11.667 32 -35 32h-131v75l170 212v6h-180v89h299v-104l-154 -213h22c50 0 87.5 -7.66699 112.5 -23z" />
    <glyph glyph-name="four.nalt" unicode="&#x28;&#x34;&#x29;" horiz-adv-x="799" 
d="M117.5 181c-63.667 58 -95.501 143.666 -95.501 256.999l1 486c0.666992 112.667 32.834 197.5 96.501 254.5s157.167 85.5 280.5 85.5c124.667 0 218.5 -28.667 281.5 -86s94.5 -142.666 94.5 -255.999v-487c-0.666992 -112.667 -32.667 -197.667 -96 -255
s-156.666 -86 -279.999 -86c-124.667 0 -218.834 29 -282.501 87zM586.999 262.999c42 38.667 63.667 96.334 65 173.001v486c0 76.667 -21.167 134.5 -63.5 173.5s-105.166 58.5 -188.499 58.5c-82.667 0 -145.167 -19.333 -187.5 -58s-63.833 -96.334 -64.5 -173.001v-485
c0 -77.333 21.167 -135.5 63.5 -174.5s105.166 -58.5 188.499 -58.5c82.667 0 145 19.333 187 58zM387.999 427.999h-178v91l98 531h226l1 -531h36v-92l-36 1v-122h-147v122zM394.999 518.999l3 442h-12l-54 -442h63z" />
    <glyph glyph-name="five.nalt" unicode="&#x28;&#x35;&#x29;" horiz-adv-x="799" 
d="M681.5 1178c63 -57.333 94.499 -142.667 94.499 -256v-487c-0.666992 -112.667 -32.667 -197.667 -96 -255s-156.666 -86 -279.999 -86c-124.667 0 -218.834 29 -282.501 87s-95.5 143.667 -95.5 257l1 486c0.666992 112.667 32.834 197.5 96.501 254.5
s157.167 85.5 280.5 85.5c124.667 0 218.5 -28.667 281.5 -86zM651.999 921.999c0 76.667 -21.167 134.5 -63.5 173.5s-105.166 58.5 -188.499 58.5c-82.667 0 -145.167 -19.333 -187.5 -58s-63.833 -96.334 -64.5 -173.001v-485c0 -77.333 21.167 -135.5 63.5 -174.5
s105.166 -58.5 188.499 -58.5c82.667 0 145 19.333 187 58s63.667 96.334 65 173.001v486zM528.999 715.999c22.667 -18 34 -45.334 34 -82.001v-219c0 -41.333 -14.5 -72.166 -43.5 -92.499s-73.5 -30.5 -133.5 -30.5c-103.333 0 -155 39.333 -155 118
c0 74 0.333008 113.333 1 118h135v-115c0 -20.667 9.33301 -31 28 -31c18 0 27 10.333 27 31v218c0 23.333 -12 35 -36 35h-127l-21 28l15 357h291v-251h-113v159h-54v-214l49 -1c46 -0.666992 80.333 -10 103 -28z" />
    <glyph glyph-name="six.nalt" unicode="&#x28;&#x36;&#x29;" horiz-adv-x="799" 
d="M117.5 181c-63.667 58 -95.501 143.666 -95.501 256.999l1 486c0.666992 112.667 32.834 197.5 96.501 254.5s157.167 85.5 280.5 85.5c124.667 0 218.5 -28.667 281.5 -86s94.5 -142.666 94.5 -255.999v-487c-0.666992 -112.667 -32.667 -197.667 -96 -255
s-156.666 -86 -279.999 -86c-124.667 0 -218.834 29 -282.501 87zM586.999 262.999c42 38.667 63.667 96.334 65 173.001v486c0 76.667 -21.167 134.5 -63.5 173.5s-105.166 58.5 -188.499 58.5c-82.667 0 -145.167 -19.333 -187.5 -58s-63.833 -96.334 -64.5 -173.001v-485
c0 -77.333 21.167 -135.5 63.5 -174.5s105.166 -58.5 188.499 -58.5c82.667 0 145 19.333 187 58zM268.499 322.499c-27 20.333 -40.5 50.833 -40.5 91.5v263c0 67.333 10.5 132.666 31.5 195.999s52.167 122.333 93.5 177h152c-26 -37.333 -47.5 -84.333 -64.5 -141
s-29.5 -117.667 -37.5 -183h5c3.33301 12 10.166 22 20.499 30s23.5 12 39.5 12c30.667 0 55.334 -10.333 74.001 -31s28 -49 28 -85v-237c0 -39.333 -14.167 -69.666 -42.5 -90.999s-71.5 -32 -129.5 -32c-59.333 0 -102.5 10.167 -129.5 30.5zM426.999 412.999v236
c0 25.333 -8 38 -24 38c-21.333 0 -32 -12.667 -32 -38v-236c0 -24.667 9.33301 -37 28 -37s28 12.333 28 37z" />
    <glyph glyph-name="seven.nalt" unicode="&#x28;&#x37;&#x29;" horiz-adv-x="799" 
d="M117.5 181c-63.667 58 -95.501 143.666 -95.501 256.999l1 486c0.666992 112.667 32.834 197.5 96.501 254.5s157.167 85.5 280.5 85.5c124.667 0 218.5 -28.667 281.5 -86s94.5 -142.666 94.5 -255.999v-487c-0.666992 -112.667 -32.667 -197.667 -96 -255
s-156.666 -86 -279.999 -86c-124.667 0 -218.834 29 -282.501 87zM586.999 262.999c42 38.667 63.667 96.334 65 173.001v486c0 76.667 -21.167 134.5 -63.5 173.5s-105.166 58.5 -188.499 58.5c-82.667 0 -145.167 -19.333 -187.5 -58s-63.833 -96.334 -64.5 -173.001v-485
c0 -77.333 21.167 -135.5 63.5 -174.5s105.166 -58.5 188.499 -58.5c82.667 0 145 19.333 187 58zM393.999 947.999h-137v99h297v-85l-142 -658h-157z" />
    <glyph glyph-name="eight.nalt" unicode="&#x28;&#x38;&#x29;" horiz-adv-x="799" 
d="M117.5 181c-63.667 58 -95.501 143.666 -95.501 256.999l1 486c0.666992 112.667 32.834 197.5 96.501 254.5s157.167 85.5 280.5 85.5c124.667 0 218.5 -28.667 281.5 -86s94.5 -142.666 94.5 -255.999v-487c-0.666992 -112.667 -32.667 -197.667 -96 -255
s-156.666 -86 -279.999 -86c-124.667 0 -218.834 29 -282.501 87zM586.999 262.999c42 38.667 63.667 96.334 65 173.001v486c0 76.667 -21.167 134.5 -63.5 173.5s-105.166 58.5 -188.499 58.5c-82.667 0 -145.167 -19.333 -187.5 -58s-63.833 -96.334 -64.5 -173.001v-485
c0 -77.333 21.167 -135.5 63.5 -174.5s105.166 -58.5 188.499 -58.5c82.667 0 145 19.333 187 58zM269.499 319.499c-27.667 19 -41.501 48.167 -41.501 87.5v208c0 20 2.5 36.167 7.5 48.5s13.5 22.5 25.5 30.5c-9.33301 6 -16.833 14.667 -22.5 26s-8.5 24.333 -8.5 39
v191c0 38 13.667 66.167 41 84.5s69.333 27.5 126 27.5s98.667 -9.16699 126 -27.5s41 -46.5 41 -84.5v-191c0 -14 -2.66699 -26.667 -8 -38s-12.666 -20 -21.999 -26c12 -8.66699 20.333 -19.167 25 -31.5s7 -28.5 7 -48.5v-208c0 -39.333 -13.833 -68.5 -41.5 -87.5
s-70.167 -28.5 -127.5 -28.5s-99.833 9.5 -127.5 28.5zM424.998 756.999v189c0 23.333 -9.33301 35 -28 35s-28 -11.667 -28 -35v-189c0 -22 9.33301 -33 28 -33s28 11 28 33zM424.998 408.999v210c0 12.667 -2.33301 22 -7 28s-11.667 9 -21 9
c-18.667 0 -28 -12.333 -28 -37v-210c0 -22.667 9.33301 -34 28 -34s28 11.333 28 34z" />
    <glyph glyph-name="nine.nalt" unicode="&#x28;&#x39;&#x29;" horiz-adv-x="799" 
d="M117.5 181c-63.667 58 -95.501 143.666 -95.501 256.999l1 486c0.666992 112.667 32.834 197.5 96.501 254.5s157.167 85.5 280.5 85.5c124.667 0 218.5 -28.667 281.5 -86s94.5 -142.666 94.5 -255.999v-487c-0.666992 -112.667 -32.667 -197.667 -96 -255
s-156.666 -86 -279.999 -86c-124.667 0 -218.834 29 -282.501 87zM586.999 262.999c42 38.667 63.667 96.334 65 173.001v486c0 76.667 -21.167 134.5 -63.5 173.5s-105.166 58.5 -188.499 58.5c-82.667 0 -145.167 -19.333 -187.5 -58s-63.833 -96.334 -64.5 -173.001v-485
c0 -77.333 21.167 -135.5 63.5 -174.5s105.166 -58.5 188.499 -58.5c82.667 0 145 19.333 187 58zM351.499 455.499c19.667 57 33.166 114.5 40.499 172.5h-5c-3.33301 -12 -10.166 -22 -20.499 -30s-23.5 -12 -39.5 -12c-30.667 0 -55.334 10.333 -74.001 31s-28 49 -28 85
v237c0 39.333 14.167 69.666 42.5 90.999s71.833 32 130.5 32s101.5 -10.167 128.5 -30.5s40.5 -50.833 40.5 -91.5v-262c0 -125.333 -44 -249.666 -132 -372.999h-153c26.667 43.333 49.834 93.5 69.501 150.5zM423.998 704.999v237c0 24 -9.33301 36 -28 36
s-28 -12 -28 -36v-237c0 -24.667 8 -37 24 -37c21.333 0 32 12.333 32 37z" />
    <glyph glyph-name=".notdef" horiz-adv-x="539" 
 />
    <glyph glyph-name="NULL" horiz-adv-x="0" 
 />
    <glyph glyph-name="NULL" horiz-adv-x="0" 
 />
    <glyph glyph-name="nonmarkingreturn" unicode="&#xd;" horiz-adv-x="539" 
 />
    <glyph glyph-name="DLE" horiz-adv-x="1679" 
 />
    <glyph glyph-name="space" unicode=" " horiz-adv-x="223" 
 />
    <glyph glyph-name="exclam" unicode="!" horiz-adv-x="246" 
d="M221 426l-23 -126h-148l-24 126v958h195v-958zM184.5 253.5c13 -7.66699 21.833 -20.666 26.5 -38.999s7 -46.5 7 -84.5c0 -42 -2.33301 -73 -7 -93s-13.5 -34 -26.5 -42s-33.5 -12 -61.5 -12c-27.333 0 -47.5 4 -60.5 12s-21.833 22.167 -26.5 42.5s-7 51.166 -7 92.499
c0 38 2.33301 66.167 7 84.5s13.5 31.333 26.5 39s33.167 11.5 60.5 11.5c28 0 48.5 -3.83301 61.5 -11.5z" />
    <glyph glyph-name="quotedbl" unicode="&#x22;" horiz-adv-x="426" 
d="M21 662v649h179l-29 -650zM234 662v649h179l-29 -650z" />
    <glyph glyph-name="numbersign" unicode="#" horiz-adv-x="630" 
d="M517 840l-38 -318h76v-122h-91l-48 -389h-170l49 389h-59l-48 -389h-170l49 389h-73l1 122h87l40 318h-76l1 121h90l50 399h167l-49 -399h60l50 399h166l-49 -399h74v-121h-89zM350 840h-60l-39 -318h59z" />
    <glyph glyph-name="dollar" unicode="$" 
d="M252 951.5c14.667 -37.667 34.6699 -82.8359 60.0029 -135.503c29.333 -59.333 53 -112.833 71 -160.5s33.333 -108.167 46 -181.5s19 -160.666 19 -261.999v-72c-0.666992 -48 -16.834 -85.167 -48.501 -111.5s-74.834 -41.166 -129.501 -44.499v-122h-72v123
c-115.333 10.667 -173 65 -173 163v306h181v-307c1.33301 -19.333 11 -29 29 -29c8.66699 0 15.5 2.5 20.5 7.5s7.5 12.167 7.5 21.5c0 80.667 -3 144.667 -9 192c-6 58.667 -15.167 111.167 -27.5 157.5s-25.5 86 -39.5 119s-32 71.833 -54 116.5
c-24.667 49.333 -44 91.333 -58 126s-25.667 76.5 -35 125.5s-14 106.167 -14 171.5v54c0.666992 53.333 15.5 93.333 44.5 120s71.5 42 127.5 46v159h72v-160c57.333 -5.33301 100.166 -22.166 128.499 -50.499s42.5 -65.833 42.5 -112.5v-229h-175v230
c0 9.33301 -2.5 16.5 -7.5 21.5s-11.833 7.5 -20.5 7.5s-15.667 -2.5 -21 -7.5s-8 -12.167 -8 -21.5c0 -44.667 3.33301 -88.667 10 -132c7.33301 -48 18.333 -90.833 33 -128.5z" />
    <glyph glyph-name="percent" unicode="%" horiz-adv-x="881" 
d="M67 650.5c-27.333 26.333 -40.999 62.166 -40.999 107.499v474c0 45.333 14 81 42 107s69.667 39 125 39c58 0 100.5 -13 127.5 -39s40.5 -61.333 40.5 -106v-475c0 -45.333 -13.833 -81.166 -41.5 -107.499s-69.834 -39.5 -126.501 -39.5s-98.667 13.167 -126 39.5z
M571.001 1359h116l-378 -1360h-111zM214.501 717c4.33301 8 6.5 21.667 6.5 41v474c0 18.667 -2.16699 32 -6.5 40s-11.166 12 -20.499 12s-16.333 -3.83301 -21 -11.5s-7 -21.167 -7 -40.5v-474c0 -18.667 2.33301 -32.167 7 -40.5s11.667 -12.5 21 -12.5
s16.166 4 20.499 12zM561.001 26.5c-27.333 26.333 -40.999 62.167 -40.999 107.5v475c0 44.667 14 80.167 42 106.5s69.667 39.5 125 39.5c58 0 100.5 -13.167 127.5 -39.5s40.5 -61.833 40.5 -106.5v-474c0 -46 -13.833 -82.167 -41.5 -108.5
s-69.834 -39.5 -126.501 -39.5s-98.667 13.167 -126 39.5zM708.502 94.001c4.33301 8 6.5 21.667 6.5 41v473c0 18.667 -2.16699 32 -6.5 40s-11.166 12 -20.499 12s-16.333 -3.83301 -21 -11.5s-7 -21.167 -7 -40.5v-473c0 -19.333 2.33301 -33 7 -41s11.667 -12 21 -12
s16.166 4 20.499 12z" />
    <glyph glyph-name="ampersand" unicode="&#x26;" horiz-adv-x="514" 
d="M512 617l-31 0.000976562v-463c-0.666992 -40 -7.66699 -72.5 -21 -97.5s-36 -43.833 -68 -56.5s-75.667 -19 -131 -19c-78 0 -136.667 13.333 -176 40s-59 66 -59 118v439c0 51.333 14.667 87 44 107c-24.667 16.667 -37 45 -37 85v448c0 51.333 19.167 90 57.5 116
s94.833 39 169.5 39c72 0 126.333 -14.333 163 -43s55 -71 55 -127v-294h-193v295c-1.33301 21.333 -11 32 -29 32c-19.333 0 -29 -10.667 -29 -32v-454c0 -9.33301 2.66699 -16.333 8 -21s12.333 -7 21 -7v-96c-8.66699 0 -15.667 -2.83301 -21 -8.5s-8 -13.834 -8 -24.501
v-444c0 -10.667 2.5 -18.667 7.5 -24s12.167 -8 21.5 -8c19.333 0 29 10.667 29 32v630h196v-66h31v-96z" />
    <glyph glyph-name="quotesingle" unicode="'" horiz-adv-x="212" 
d="M21 712v649h179l-29 -650z" />
    <glyph glyph-name="parenleft" unicode="(" horiz-adv-x="284" 
d="M126 -139.5c-37.333 16.333 -63.333 39.832 -78 70.499s-22 70.334 -22 119.001v1259c0 49.333 7.33301 89.5 22 120.5s40.667 54.667 78 71s90 24.5 158 24.5l1 -129c-42 0 -63 -18.333 -63 -55v-1322c0 -36.667 21 -55 63 -55l-1 -128
c-68 0 -120.667 8.16699 -158 24.5z" />
    <glyph glyph-name="parenright" unicode=")" horiz-adv-x="298" 
d="M13 -36c42 0 63 18.333 63 55v1323c0 36 -21 54 -63 54l1 129c68 0 120.667 -8.16699 158 -24.5s63.333 -39.833 78 -70.5s22 -70.667 22 -120v-1259c0 -49.333 -7.33301 -89.333 -22 -120s-40.667 -54.167 -78 -70.5s-90 -24.5 -158 -24.5z" />
    <glyph glyph-name="asterisk" unicode="*" horiz-adv-x="372" 
d="M144 1131l-5 3l-55 -60l-66 115l79 17v6l-79 18l66 114l55 -59l5 3l-24 77h132l-24 -77l5 -4l56 61l65 -115l-78 -18v-7l78 -16l-65 -115l-55 59l-6 -3l24 -76h-132z" />
    <glyph glyph-name="plus" unicode="+" horiz-adv-x="356" 
d="M109 497h-83v138h83v83h139v-83h82v-138h-82v-83h-139v83z" />
    <glyph glyph-name="comma" unicode="," horiz-adv-x="222" 
d="M26 246h178l-63 -396h-146z" />
    <glyph glyph-name="hyphen" unicode="-" horiz-adv-x="355" 
d="M26 635h304v-138h-304v138z" />
    <glyph glyph-name="period" unicode="." horiz-adv-x="233" 
d="M57 -7c-12.667 6.66699 -21.667 19.502 -27 38.502s-8 48.5 -8 88.5c0 44.667 2.66699 77.334 8 98.001s14.5 34.5 27.5 41.5s32.833 10.5 59.5 10.5s46.334 -3.5 59.001 -10.5s21.667 -20.833 27 -41.5s8 -53.334 8 -98.001c0 -40.667 -2.66699 -70.334 -8 -89.001
s-14.5 -31.334 -27.5 -38.001s-32.833 -10 -59.5 -10s-46.334 3.33301 -59.001 10z" />
    <glyph glyph-name="slash" unicode="/" horiz-adv-x="425" 
d="M236 1422h191l-245 -1630l-196 -1z" />
    <glyph glyph-name="zero" unicode="0" horiz-adv-x="486" 
d="M77.5 38.5c-37 36.333 -55.5 90.832 -55.5 163.499v964c0 68.667 18.667 120.834 56 156.501s92.333 53.5 165 53.5s127.667 -18.333 165 -55s56 -90.667 56 -162v-957c0 -72 -18.667 -126.333 -56 -163s-92.333 -55 -165 -55c-73.333 0 -128.5 18.167 -165.5 54.5z
M272 156.999v1046c0 19.333 -9.33301 29 -28 29c-19.333 0 -29 -9.66699 -29 -29v-1046c0 -19.333 9.66699 -29 29 -29c18.667 0 28 9.66699 28 29z" />
    <glyph glyph-name="one" unicode="1" horiz-adv-x="268" 
d="M54 1197l-63 -22l-1 152l94 33h158v-1360h-191z" />
    <glyph glyph-name="two" unicode="2" horiz-adv-x="450" 
d="M24 136c68 214 119.166 400.669 153.499 560.002s51.5 285.666 51.5 378.999v135c0 21.333 -9.66699 32 -29 32c-17.333 0 -26.666 -11.667 -27.999 -35v-362h-147c0 238.667 0.333008 359 1 361c0.666992 57.333 17 99.833 49 127.5s80.333 41.5 145 41.5
c69.333 0 121 -12.833 155 -38.5s51 -64.834 51 -117.501v-138c0 -85.333 -13.333 -208.333 -40 -369s-66 -352 -118 -574v-4h159v-134h-403v136z" />
    <glyph glyph-name="three" unicode="3" horiz-adv-x="465" 
d="M407 746c24 -22.667 35.999 -55.667 35.999 -99v-499c0 -54.667 -18.167 -95.834 -54.5 -123.501s-89.833 -41.5 -160.5 -41.5c-67.333 0 -118.5 13.833 -153.5 41.5s-52.5 68.5 -52.5 122.5l1 276h177v-272c0 -11.333 2.33301 -20.166 7 -26.499
s11.334 -9.5 20.001 -9.5c18 0 27.667 12 29 36v500c0 23.333 -12 35 -36 35l-171 1v115l90 7l112 421l-208 -1v131h375v-155l-115 -420l-2 -5c46.667 0 82 -11.333 106 -34zM21.999 147z" />
    <glyph glyph-name="four" unicode="4" horiz-adv-x="471" 
d="M235 335h-227v135l118 890h292l2 -890h41v-136l-41 1v-335h-185v335zM235 470v750h-10l-60 -750h70z" />
    <glyph glyph-name="five" unicode="5" horiz-adv-x="467" 
d="M401.5 762c27.667 -24.667 41.501 -62 41.501 -112v-494c0 -58.667 -18.333 -102.167 -55 -130.5s-93.334 -42.5 -170.001 -42.5c-66.667 0 -116 13.5 -148 40.5s-48 68.167 -48 123.5c0 177.333 0.333008 269.333 1 276h177v-267c0 -27.333 9.33301 -41 28 -41
s28 12.667 28 38v494c0 26.667 -13.333 40 -40 40h-159l-26 40l23 633h362v-295h-144v159h-56v-422l58 -1c57.333 -1.33301 99.833 -14.333 127.5 -39z" />
    <glyph glyph-name="six" unicode="6" horiz-adv-x="483" 
d="M76.5 25c-36.333 28 -54.502 70.999 -54.502 128.999v559c2 261.333 61 477 177 647h201c-99.333 -151.333 -156.666 -340.666 -171.999 -567.999l5 -1c4 12 11.167 22.5 21.5 31.5s21.5 14.167 33.5 15.5c57.333 0 100 -13.167 128 -39.5s42.333 -66.833 43 -121.5v-521
c0 -58.667 -17.667 -102.167 -53 -130.5s-89.666 -42.5 -162.999 -42.5c-74.667 0 -130.167 14 -166.5 42zM268.998 156.999l-0.000976562 519c0 13.333 -2.16699 23.5 -6.5 30.5s-10.166 10.5 -17.499 10.5c-21.333 0 -32 -13.667 -32 -41v-519
c0 -26.667 9.33301 -40 28 -40s28 13.333 28 40z" />
    <glyph glyph-name="seven" unicode="7" horiz-adv-x="409" 
d="M180 1219h-161v141h373v-128l-167 -1232h-209z" />
    <glyph glyph-name="eight" unicode="8" horiz-adv-x="479" 
d="M79 21.5c-35.333 26.333 -53.002 66.835 -53.002 121.502v465c0 27.333 3 49 9 65s16.333 30.333 31 43c-11.333 8 -20.333 19.833 -27 35.5s-10.334 33.167 -11.001 52.5v418c0 52 17.5 90.5 52.5 115.5s88.833 37.5 161.5 37.5c72 0 125.333 -12.5 160 -37.5
s52 -63.5 52 -115.5v-418c0 -18.667 -3.16699 -35.834 -9.5 -51.501s-15.166 -27.834 -26.499 -36.501c14.667 -12.667 24.834 -27 30.501 -43s8.5 -37.333 8.5 -64v-466c0 -54.667 -17.667 -95.167 -53 -121.5s-89.666 -39.5 -162.999 -39.5
c-72.667 0 -126.667 13.167 -162 39.5zM269.998 797.002v414c0 26 -9.66699 39 -29 39c-18.667 0 -28 -13 -28 -39v-414c0 -25.333 9.33301 -38 28 -38c19.333 0 29 12.667 29 38zM269.998 149.002v467c0 14.667 -2.33301 25.167 -7 31.5s-12 9.5 -22 9.5
s-17.167 -3.16699 -21.5 -9.5s-6.5 -16.833 -6.5 -31.5v-467c0 -25.333 9.33301 -38 28 -38c19.333 0 29 12.667 29 38z" />
    <glyph glyph-name="nine" unicode="9" horiz-adv-x="483" 
d="M254 567l-5 0.998047c-4 -12 -11 -22.5 -21 -31.5s-21 -14.167 -33 -15.5c-58.667 0 -102 13.167 -130 39.5s-42 66.833 -42 121.5v521c0 58.667 17.833 102.334 53.5 131.001s90.167 43 163.5 43c74.667 0 130 -14.167 166 -42.5s54 -71.5 54 -129.5v-559
c0 -271.333 -62.333 -486.666 -187 -645.999h-202c116.667 167.333 177.667 356.333 183 567zM270 682.998v519c0 26.667 -9.33301 40 -28 40s-28 -13.333 -28 -40v-519c0 -27.333 8 -41 24 -41c21.333 0 32 13.667 32 41z" />
    <glyph glyph-name="colon" unicode=":" horiz-adv-x="231" 
d="M56 -7c-12.667 6.66699 -21.667 19.502 -27 38.502s-8 48.5 -8 88.5c0 44.667 2.66699 77.334 8 98.001s14.5 34.5 27.5 41.5s32.833 10.5 59.5 10.5s46.334 -3.5 59.001 -10.5s21.667 -20.833 27 -41.5s8 -53.334 8 -98.001c0 -40.667 -2.66699 -70.334 -8 -89.001
s-14.5 -31.334 -27.5 -38.001s-32.833 -10 -59.5 -10s-46.334 3.33301 -59.001 10zM56 643.002c-12.667 6.66699 -21.667 19.502 -27 38.502s-8 48.5 -8 88.5c0 44.667 2.66699 77.334 8 98.001s14.5 34.5 27.5 41.5s32.833 10.5 59.5 10.5s46.334 -3.5 59.001 -10.5
s21.667 -20.833 27 -41.5s8 -53.334 8 -98.001c0 -40.667 -2.66699 -70.334 -8 -89.001s-14.5 -31.334 -27.5 -38.001s-32.833 -10 -59.5 -10s-46.334 3.33301 -59.001 10z" />
    <glyph glyph-name="semicolon" unicode=";" horiz-adv-x="231" 
d="M28 246h178l-63 -396h-146zM56 643c-12.667 6.66699 -21.667 19.502 -27 38.502s-8 48.5 -8 88.5c0 44.667 2.66699 77.334 8 98.001s14.5 34.5 27.5 41.5s32.833 10.5 59.5 10.5s46.334 -3.5 59.001 -10.5s21.667 -20.833 27 -41.5s8 -53.334 8 -98.001
c0 -40.667 -2.66699 -70.334 -8 -89.001s-14.5 -31.334 -27.5 -38.001s-32.833 -10 -59.5 -10s-46.334 3.33301 -59.001 10z" />
    <glyph glyph-name="less" unicode="&#x3c;" horiz-adv-x="414" 
d="M26 490v153l363 208v-179l-181 -106l181 -104v-180z" />
    <glyph glyph-name="equal" unicode="=" horiz-adv-x="377" 
d="M26 743l325 1v-132h-325v131zM26 520h325v-131h-325v131z" />
    <glyph glyph-name="greater" unicode="&#x3e;" horiz-adv-x="414" 
d="M26 462l181 104l-181 106v179l363 -208v-153l-363 -208v180z" />
    <glyph glyph-name="question" unicode="?" horiz-adv-x="443" 
d="M138 391l-11.001 249c-2 7.33301 -3 14.333 -3 21c0 18.667 7.16699 35 21.5 49s37.833 23 70.5 27c8.66699 6.66699 15.334 13.5 20.001 20.5s7 14.833 7 23.5v430c0 23.333 -9.33301 35 -28 35c-20 0 -30 -11 -30 -33v-381h-163v379
c-1.33301 55.333 15.167 97 49.5 125s85.5 42 153.5 42c64.667 0 113.667 -13.333 147 -40s50 -66 50 -118v-433c-0.666992 -26.667 -7.16699 -48.167 -19.5 -64.5s-29.5 -32.833 -51.5 -49.5c-2 -2 -6.66699 -5.83301 -14 -11.5s-13 -11.167 -17 -16.5
s-6.66699 -10.333 -8 -15l-6 -239l-10 -91h-148zM163.999 -6.5c-13.333 7 -22.833 20.833 -28.5 41.5s-8.5 52.334 -8.5 95.001c0 38.667 2.83301 67.5 8.5 86.5s15.167 31.833 28.5 38.5s32.666 10 57.999 10s44.666 -3.33301 57.999 -10s22.833 -19.5 28.5 -38.5
s8.5 -47.833 8.5 -86.5c0 -42.667 -2.83301 -74.334 -8.5 -95.001s-15.167 -34.5 -28.5 -41.5s-32.666 -10.5 -57.999 -10.5s-44.666 3.5 -57.999 10.5z" />
    <glyph glyph-name="at" unicode="@" horiz-adv-x="777" 
d="M177.5 -223.5c-53.667 25 -93.001 62.332 -118.001 111.999s-37.5 113.5 -37.5 191.5l1 878c0.666992 120 33.167 209 97.5 267s156.833 87 277.5 87c113.333 0 201.166 -27.167 263.499 -81.5s93.5 -132.5 93.5 -234.5v-796c0 -59.333 -14.833 -108.166 -44.5 -146.499
s-77.5 -57.5 -143.5 -57.5c-77.333 0 -127.666 25 -150.999 75c-12.667 -48 -45.334 -72 -98.001 -72c-37.333 0 -64.333 14.833 -81 44.5s-25 69.834 -25 120.501v734c0 49.333 10.667 89.333 32 120s52.666 46 93.999 46c50 0 89.667 -13 119 -39l14 22
c24.667 -4.66699 57 -12.334 97 -23.001v-855c0 -16.667 2.33301 -28.334 7 -35.001s11.334 -10 20.001 -10c18.667 0 28 15 28 45v861c0 47.333 -18.667 85 -56 113s-93.333 42 -168 42c-65.333 0 -115.666 -8 -150.999 -24s-59.833 -40.167 -73.5 -72.5
s-20.5 -75.166 -20.5 -128.499v-878c0 -138 61 -209.667 183 -215l197 -2v-116c-53.333 -10 -101.666 -14.667 -144.999 -14c-87.333 2.66699 -157.833 16.5 -211.5 41.5zM418.999 173.999v738c-8 24 -18 36 -30 36c-16 0 -24 -16.333 -24 -49v-727c0 -36.667 8 -55 24 -55
c20 0 30 19 30 57z" />
    <glyph glyph-name="A" unicode="A" horiz-adv-x="481" 
d="M269 212h-56l-6 -212h-200l121 1360h225l121 -1360h-199zM265 330l-21 692h-8l-20 -692h49z" />
    <glyph glyph-name="B" unicode="B" horiz-adv-x="490" 
d="M26 1360l220 -0.00195312c76.667 0 131.834 -11.167 165.501 -33.5s50.5 -58.5 50.5 -108.5v-425c0 -59.333 -20.333 -97.666 -61 -114.999c21.333 -8.66699 37.5 -22.667 48.5 -42s16.5 -42.666 16.5 -69.999v-424c0 -50 -16.833 -86.167 -50.5 -108.5
s-88.834 -33.5 -165.501 -33.5h-224v1360zM232 732.998c14 0 24.333 3.49902 31 10.499s10 18.167 10 33.5v423c0 12.667 -2.5 21.834 -7.5 27.501s-12.833 8.5 -23.5 8.5h-25v-503h15zM242 124.997c10.667 0 18.5 2.83301 23.5 8.5s7.5 14.5 7.5 26.5v421
c0 15.333 -3.33301 26.5 -10 33.5s-17 10.5 -31 10.5h-15v-500h25z" />
    <glyph glyph-name="C" unicode="C" horiz-adv-x="510" 
d="M80.5 38.5c-39 36.333 -58.5 90.499 -58.5 162.499v958c0 71.333 19.667 125.333 59 162s97.333 55 174 55c74.667 0 131.667 -17.833 171 -53.5s60 -88.167 62 -157.5v-454h-205v470c0 19.333 -9.33301 29 -28 29c-19.333 0 -29 -9.66699 -29 -29v-1002
c0 -19.333 9.66699 -29 29 -29c18.667 0 28 9.66699 28 29v470h205v-455c-2 -69.333 -22.5 -121.666 -61.5 -156.999s-96.167 -53 -171.5 -53c-77.333 0 -135.5 18.167 -174.5 54.5z" />
    <glyph glyph-name="D" unicode="D" horiz-adv-x="500" 
d="M26 1360h222c76 0 133.333 -17.5 172 -52.5s58 -86.833 58 -155.5v-943c0 -68.667 -19.333 -120.667 -58 -156s-95.667 -53 -171 -53h-223v1360zM246 161c11.333 0 19.166 3.5 23.499 10.5s6.5 19.167 6.5 36.5v943c0 18 -2.16699 30.5 -6.5 37.5
s-12.166 10.5 -23.499 10.5h-26v-1038h26z" />
    <glyph glyph-name="E" unicode="E" horiz-adv-x="375" 
d="M26 1360h340v-141h-138v-489h109v-110h-109v-483h140v-137h-342v1360z" />
    <glyph glyph-name="F" unicode="F" horiz-adv-x="380" 
d="M26 1360h335v-140h-136v-529h112v-138h-112v-553h-199v1360z" />
    <glyph glyph-name="G" unicode="G" horiz-adv-x="510" 
d="M81 38c-39.333 36 -59.001 89.6689 -59.001 161.002v962c0 71.333 19.667 125 59 161s97.333 54 174 54c75.333 0 132.333 -15.833 171 -47.5s58 -78.834 58 -141.501v-427h-201v439c0 19.333 -9.33301 29 -28 29c-19.333 0 -29 -9.66699 -29 -29v-1057
c0 -20.667 9.66699 -30.334 29 -29.001c12.667 0 22.334 2.66699 29.001 8v486h-25v107h226v-677c-56 -35.333 -132.667 -53 -230 -53c-76.667 0 -134.667 18 -174 54z" />
    <glyph glyph-name="H" unicode="H" horiz-adv-x="498" 
d="M26 1360h195v-613h56v613h195v-1360h-195v608h-56v-608h-195v1360z" />
    <glyph glyph-name="I" unicode="I" horiz-adv-x="251" 
d="M26 1360h199v-1360h-199v1360z" />
    <glyph glyph-name="J" unicode="J" horiz-adv-x="309" 
d="M11 140h42c22 0 33 12 33 36v1184h198v-1195c0 -110 -53 -165 -159 -165h-114v140z" />
    <glyph glyph-name="K" unicode="K" horiz-adv-x="509" 
d="M26 1360h199l-3 -613h24l37 613h208l-65 -680l69 -680h-210l-39 607h-24l3 -607h-199v1360z" />
    <glyph glyph-name="L" unicode="L" horiz-adv-x="350" 
d="M26 1360h199v-1213h111v-147h-310v1360z" />
    <glyph glyph-name="M" unicode="M" horiz-adv-x="659" 
d="M26 1360h250l49 -973h9l49 973h250v-1360h-173l30 951h-11l-78 -951h-143l-81 952h-12l34 -952h-173v1360z" />
    <glyph glyph-name="N" unicode="N" horiz-adv-x="494" 
d="M26 1360h208l21 -199l60 -719h10l-33 918h176v-1360h-208l-22 198l-64 750h-12l37 -948h-173v1360z" />
    <glyph glyph-name="O" unicode="O" horiz-adv-x="510" 
d="M22 1166c0 68.667 19.667 120.833 59 156.5s97.333 53.5 174 53.5s134.667 -18.333 174 -55s59 -90.667 59 -162v-957c0 -72 -19.667 -126.333 -59 -163s-97.333 -55 -174 -55c-76 0 -132.5 18 -169.5 54s-58.167 90.667 -63.5 164v964zM255 149.999
c18.667 0 28 9.66699 28 29v1002c0 19.333 -9.33301 29 -28 29s-28 -9.66699 -28 -29v-1002c0 -19.333 9.33301 -29 28 -29z" />
    <glyph glyph-name="P" unicode="P" horiz-adv-x="486" 
d="M26 1360h212c74.667 0 130.667 -12.5 168 -37.5s56 -70.167 56 -135.5v-697c-0.666992 -64 -19.5 -108.833 -56.5 -134.5s-88.833 -38.5 -155.5 -38.5h-25v-317h-199v1360zM243 448c10.667 0 18.333 2.99902 23 8.99902s7 15.333 7 28v697
c0 12.667 -2.5 21.834 -7.5 27.501s-12.833 8.5 -23.5 8.5h-25v-770h26z" />
    <glyph glyph-name="Q" unicode="Q" horiz-adv-x="510" 
d="M526 -158c-30.667 -16 -76 -24.668 -136 -26.001c-6 -0.666992 -14.333 -1 -25 -1c-122 0 -185.667 55.333 -191 166l-1 11c-100.667 23.333 -151 93 -151 209v958c0 71.333 19.667 125.333 59 162s97.333 55 174 55s134.667 -18.333 174 -55s59 -90.667 59 -162v-958
c0 -115.333 -49.667 -184.666 -149 -207.999l1 -12c4 -22 21 -33 51 -33c16 0 35.333 3 58 9l42 12zM226 178.999c0 -19.333 9.66699 -29 29 -29c18.667 0 28 9.66699 28 29v1002c0 19.333 -9.33301 29 -28 29c-19.333 0 -29 -9.66699 -29 -29v-1002z" />
    <glyph glyph-name="R" unicode="R" horiz-adv-x="485" 
d="M273 0l-20 509.001h-3h-33v-509h-191v1360h212c74.667 0 130.667 -12.5 168 -37.5s56 -70.167 56 -135.5v-515c0 -52.667 -15.333 -92.334 -46 -119.001l47 -553h-190zM266 636.501c4.66699 6.33301 6.99902 16.499 6.99902 30.499v515c0 12.667 -2.5 21.834 -7.5 27.501
s-12.833 8.5 -23.5 8.5h-25v-591h26c10.667 0 18.334 3.16699 23.001 9.5z" />
    <glyph glyph-name="S" unicode="S" horiz-adv-x="473" 
d="M25 148v306h181v-307c1.33301 -19.333 11 -29 29 -29c8.66699 0 15.5 2.5 20.5 7.5s7.5 12.167 7.5 21.5c0 80.667 -3 144.667 -9 192c-6 58.667 -15.167 111.167 -27.5 157.5s-25.5 86 -39.5 119s-32 71.833 -54 116.5c-24.667 49.333 -44 91.333 -58 126
s-25.667 76.5 -35 125.5s-14 106.167 -14 171.5v54c0.666992 58 18.167 100.333 52.5 127s84.833 40 151.5 40c70.667 0 123.5 -14.5 158.5 -43.5s52.5 -69.5 52.5 -121.5v-229h-175v230c0 9.33301 -2.5 16.5 -7.5 21.5s-11.833 7.5 -20.5 7.5s-15.667 -2.5 -21 -7.5
s-8 -12.167 -8 -21.5c0 -44.667 3.33301 -88.667 10 -132c7.33301 -48 18.333 -90.833 33 -128.5s34.667 -82.834 60 -135.501c29.333 -59.333 53 -112.833 71 -160.5s33.333 -108.167 46 -181.5s19 -160.666 19 -261.999v-72c-0.666992 -51.333 -19.167 -90.333 -55.5 -117
s-85.833 -40 -148.5 -40c-146 0 -219 55 -219 165z" />
    <glyph glyph-name="T" unicode="T" horiz-adv-x="369" 
d="M85 1208h-79v152h356v-152h-79v-1208h-198v1208z" />
    <glyph glyph-name="U" unicode="U" horiz-adv-x="497" 
d="M25 151v1209h196v-1188c0 -12.667 2.5 -22.334 7.5 -29.001s11.833 -10 20.5 -10s15.5 3.33301 20.5 10s7.5 16.334 7.5 29.001v1188h195v-1209c0 -56 -18.833 -98.167 -56.5 -126.5s-93.5 -42.5 -167.5 -42.5c-148.667 0 -223 56.333 -223 169z" />
    <glyph glyph-name="V" unicode="V" horiz-adv-x="481" 
d="M7 1360h200l29 -1022h9l30 1022h199l-121 -1360h-225z" />
    <glyph glyph-name="W" unicode="W" horiz-adv-x="751" 
d="M207 1360l29 -1022h9l30 1022h201l31 -1022h8l30 1022h199l-111 -1360h-225l-29 938h-7l-29 -938h-225l-111 1360h200z" />
    <glyph glyph-name="X" unicode="X" horiz-adv-x="502" 
d="M78 679l-57 681h199l25 -604h10l27 604h199l-59 -675l65 -685h-203l-28 599h-9l-29 -599h-203z" />
    <glyph glyph-name="Y" unicode="Y" horiz-adv-x="485" 
d="M144 425l-136 935h201l29 -693h9l26 693h204l-134 -934v-426h-199v425z" />
    <glyph glyph-name="Z" unicode="Z" horiz-adv-x="425" 
d="M16 124l160 1088h-154v148h383v-123l-159 -1089h162v-148h-392v124z" />
    <glyph glyph-name="bracketleft" unicode="[" horiz-adv-x="297" 
d="M26 1525h258v-132h-62v-1425h62v-132h-258v1689z" />
    <glyph glyph-name="backslash" unicode="\" horiz-adv-x="345" 
d="M172 -132l-191 1591h193l195 -1591h-197z" />
    <glyph glyph-name="bracketright" unicode="]" horiz-adv-x="293" 
d="M9 -32h62v1425h-62v132h258v-1689h-258v132z" />
    <glyph glyph-name="asciicircum" unicode="^" horiz-adv-x="444" 
d="M134 1435h173l126 -733l-170 1l-41 555l-42 -555l-170 -1z" />
    <glyph glyph-name="underscore" unicode="_" horiz-adv-x="300" 
d="M18 -29h263v-102h-263v102z" />
    <glyph glyph-name="grave" unicode="`" horiz-adv-x="233" 
d="M9 1404l168 2l48 -298h-140z" />
    <glyph glyph-name="a" unicode="a" horiz-adv-x="462" 
d="M57 20c-22.667 24 -34 57 -34 99v384c0 35.333 7.16699 62.5 21.5 81.5s35.5 32 63.5 39s65.667 10.5 113 10.5l39 -1v293c0 24.667 -9.66699 37 -29 37c-18.667 0 -28 -11 -28 -33v-260h-166v259c0.666992 53.333 17.5 92.333 50.5 117s86.833 37 161.5 37
c56.667 0 102 -12.167 136 -36.5s51 -61.5 51 -111.5v-935h-165l-20 56c-18.667 -48 -54 -72 -106 -72c-36 0 -65.333 12 -88 36zM260 149v408h-23c-22.667 -0.666992 -34 -13.334 -34 -38.001v-383c0 -9.33301 2.16699 -16.333 6.5 -21s10.5 -7 18.5 -7
c20 -1.33301 30.667 12.334 32 41.001z" />
    <glyph glyph-name="b" unicode="b" horiz-adv-x="466" 
d="M161 40l-15 -40h-120v1360h195v-286l-5 -25c20 22.667 53.667 34 101 34c41.333 0 72.833 -15.5 94.5 -46.5s32.5 -76.833 32.5 -137.5v-732c0 -60.667 -12.5 -106.5 -37.5 -137.5s-61.833 -46.5 -110.5 -46.5c-56 0 -101 19 -135 57zM260 131v779
c0 24.667 -8.33301 37 -25 37c-10.667 0 -21 -4.33301 -31 -13v-769c0 -31.333 10.333 -47 31 -47c10.667 0 19 4.33301 25 13z" />
    <glyph glyph-name="c" unicode="c" horiz-adv-x="465" 
d="M75.5 30.5c-35 31 -52.5 76.832 -52.5 137.499v731c0 60.667 17.5 106.5 52.5 137.5s87.167 46.5 156.5 46.5c68 0 119.667 -15 155 -45s53.666 -74.667 54.999 -134v-343h-181v351c0 19.333 -9.66699 29 -29 29c-18.667 0 -28 -9.66699 -28 -29v-757
c0 -19.333 9.33301 -29 28 -29c19.333 0 29 9.66699 29 29v360h181v-351c-1.33301 -59.333 -19.666 -104.166 -54.999 -134.499s-87 -45.5 -155 -45.5c-69.333 0 -121.5 15.5 -156.5 46.5z" />
    <glyph glyph-name="d" unicode="d" horiz-adv-x="466" 
d="M52.5 28.5c-20.333 31 -30.5 77.167 -30.5 138.5v732c0 61.333 10.667 107.5 32 138.5s53 46.5 95 46.5c46.667 0 80 -11.667 100 -35l-4 25v286h195v-1360h-168l-20 54c-16 -48 -52.333 -72 -109 -72c-40 0 -70.167 15.5 -90.5 46.5zM259 160v776
c-10.667 7.33301 -21 11 -31 11c-16.667 0 -25 -15.667 -25 -47v-728c0 -16 2.16699 -28.667 6.5 -38s10.5 -14 18.5 -14c20.667 0 31 13.333 31 40z" />
    <glyph glyph-name="e" unicode="e" horiz-adv-x="466" 
d="M204 485v-368c0 -19.333 9.33301 -29 28 -29c19.333 0 29 9.66699 29 29v311h173v-307c-17.333 -91.333 -84.666 -137 -201.999 -137c-69.333 0 -121.5 15.5 -156.5 46.5s-52.5 76.833 -52.5 137.5v731c0 60.667 17.5 106.5 52.5 137.5s87.167 46.5 156.5 46.5
s121.666 -15 156.999 -45s53 -74.667 53 -134l-4 -419h-234zM204 938v-360h57v360c0 19.333 -9.66699 29 -29 29c-18.667 0 -28 -9.66699 -28 -29z" />
    <glyph glyph-name="f" unicode="f" horiz-adv-x="345" 
d="M54 928h-56.001v137h56v193c0 82.667 48.667 124 146 124c72.667 0 117.334 -2.33301 134.001 -7v-106c0 0.666992 -19.333 1 -58 1c-18 0 -27 -9.33301 -27 -28v-177h85v-137h-85v-928h-195v928z" />
    <glyph glyph-name="g" unicode="g" horiz-adv-x="450" 
d="M66 -322.5c-30.667 19.667 -45.999 50.501 -45.999 92.501v318c0 15.333 4 27.333 12 36s20.667 14.667 38 18c-16.667 6 -28.834 15.5 -36.501 28.5s-11.5 30.167 -11.5 51.5v45c0 18.667 2.66699 34.667 8 48s14.333 25.666 27 36.999c-18.667 19.333 -28 50 -28 92
v492c0.666992 51.333 15.667 88.666 45 111.999s75.666 35 138.999 35c49.333 0 88.666 -7.33301 117.999 -22c12 16 30.333 24 55 24h65v-112h-40c-1.33301 8 -3.66602 14 -6.99902 18s-8.66602 6.33301 -15.999 7c6 -12 9 -32.667 9 -62v-492
c0 -50 -14.667 -86.667 -44 -110s-76 -35 -140 -35c-13.333 0 -29.333 1 -48 3l-7 -5v-45c0 -14 11.667 -21.333 35 -22c28 -1.33301 51.667 -0.666016 71 2.00098c16 1.33301 27.667 2 35 2c42.667 0 74.167 -10.833 94.5 -32.5s30.833 -55.167 31.5 -100.5v-301
c0 -52.667 -17 -91.167 -51 -115.5s-88.333 -36.5 -163 -36.5c-66 0 -114.333 9.83301 -145 29.5zM235.501 417.001c4.33301 6 6.5 16 6.5 30v490c0 14 -2.16699 24.167 -6.5 30.5s-11.5 9.5 -21.5 9.5s-17.333 -3.16699 -22 -9.5s-7 -16.5 -7 -30.5v-490
c0 -14 2.33301 -24 7 -30s12 -9 22 -9s17.167 3 21.5 9zM242.001 -209.999v299c0 24.667 -9 37 -27 37h-30v-337c0 -21.333 9.33301 -32 28 -32c19.333 0 29 11 29 33z" />
    <glyph glyph-name="h" unicode="h" horiz-adv-x="470" 
d="M25 1360h194.001l2 -298c31.333 11.333 63.666 17 96.999 17c32 0 57 -5.83301 75 -17.5s30.833 -30.5 38.5 -56.5s11.5 -61.667 11.5 -107v-898h-182v895c0 21.333 -1.16699 35.333 -3.5 42s-8.16602 10 -17.499 10c-14.667 0 -26.334 -11.667 -35.001 -35v-912h-180
v1360z" />
    <glyph glyph-name="i" unicode="i" horiz-adv-x="248" 
d="M57 1099.5c-14 5.66699 -23.833 17.667 -29.5 36s-8.5 48.5 -8.5 90.5s2.83301 72.5 8.5 91.5s15.5 31.333 29.5 37s36.333 8.5 67 8.5s53.167 -2.83301 67.5 -8.5s24.333 -18 30 -37s8.5 -49.5 8.5 -91.5s-2.83301 -72.167 -8.5 -90.5s-15.667 -30.333 -30 -36
s-36.833 -8.5 -67.5 -8.5s-53 2.83301 -67 8.5zM26 1060c34.667 -4 67 -6 97 -6c37.333 0 70.333 2 99 6v-1060h-196v1060z" />
    <glyph glyph-name="j" unicode="j" horiz-adv-x="248" 
d="M57 1099.5c-14 5.66699 -23.833 17.667 -29.5 36s-8.5 48.5 -8.5 90.5s2.83301 72.5 8.5 91.5s15.5 31.333 29.5 37s36.333 8.5 67 8.5s53.167 -2.83301 67.5 -8.5s24.333 -18 30 -37s8.5 -49.5 8.5 -91.5s-2.83301 -72.167 -8.5 -90.5s-15.667 -30.333 -30 -36
s-36.833 -8.5 -67.5 -8.5s-53 2.83301 -67 8.5zM-33 -203l23 0.00195312c12 0 21 2.66699 27 8s9 14.666 9 27.999v1227c34 -4 65.333 -6 94 -6c26.667 0 49.5 1 68.5 3s30.167 3 33.5 3v-1220c0 -44 -7.83301 -77.333 -23.5 -100s-37.167 -37.834 -64.5 -45.501
s-63 -11.5 -107 -11.5h-60v114z" />
    <glyph glyph-name="k" unicode="k" horiz-adv-x="473" 
d="M26 1360h199l-10 -782l24 2l33 485h191l-54 -530l58 -535h-194l-35 461l-23 1l3 -462h-192v1360z" />
    <glyph glyph-name="l" unicode="l" horiz-adv-x="248" 
d="M26 1360h196v-1360h-196v1360z" />
    <glyph glyph-name="m" unicode="m" horiz-adv-x="707" 
d="M648.5 1038c21.667 -29.333 32.5 -72.333 32.5 -129v-909h-182v906c0 27.333 -8.33301 41 -25 41c-20.667 0 -31 -14 -31 -42v-905h-182v906c0 27.333 -8.66699 41 -26 41c-20 0 -30 -16.667 -30 -50v-897h-179v1065h162l21 -49c21.333 44 58.333 66 111 66
c50 0 85 -22.333 105 -67c22.667 44.667 65.667 67 129 67c41.333 0 72.833 -14.667 94.5 -44z" />
    <glyph glyph-name="n" unicode="n" horiz-adv-x="469" 
d="M26 1065l162.001 -0.00195312l21 -49c9.33301 20.667 23.333 36.834 42 48.501s41.667 17.5 69 17.5c42 0 73 -14.667 93 -44s30 -73.666 30 -132.999v-905h-182v902c0 18 -2 30 -6 36s-10.667 9 -20 9c-10.667 0 -18.334 -4.16699 -23.001 -12.5s-7 -22.5 -7 -42.5v-892
h-179v1065z" />
    <glyph glyph-name="o" unicode="o" 
d="M77 29.5c-35.333 30.333 -53 75.166 -53 134.499v739c0 59.333 17.667 104.166 53 134.499s87.666 45.5 156.999 45.5s121.5 -15.167 156.5 -45.5s52.5 -75.166 52.5 -134.499v-739c0 -59.333 -17.5 -104.166 -52.5 -134.499s-87.167 -45.5 -156.5 -45.5
s-121.666 15.167 -156.999 45.5zM262 155v757c0 22 -9.33301 33 -28 33c-19.333 0 -29 -11 -29 -33v-757c0 -22.667 9.66699 -34 29 -34c18.667 0 28 11.333 28 34z" />
    <glyph glyph-name="p" unicode="p" horiz-adv-x="464" 
d="M412.5 1036c21 -31.333 31.499 -77.333 31.499 -138v-730c0 -60.667 -11.167 -106.667 -33.5 -138s-55.166 -47 -98.499 -47c-32 0 -65 8 -99 24v-302h-188l1 1360h166l19 -55c16 48.667 52.667 73 110 73c40 0 70.5 -15.667 91.5 -47zM259.999 912
c0 22.667 -7.66699 34 -23 34c-22 0 -33 -14.667 -33 -44v-759c9.33301 -16 20.333 -24 33 -24c10 0 17.667 4 23 12v781z" />
    <glyph glyph-name="q" unicode="q" 
d="M442 1065v-1360h-195v286l4 25c-18.667 -22.667 -52 -34 -100 -34c-84.667 0 -127 61.333 -127 184v732c0 60.667 12.5 106.5 37.5 137.5s61.833 46.5 110.5 46.5c56.667 0 101.667 -19 135 -57l15 40h120zM264 902c0 30 -10.332 45 -30.999 45
c-10.667 0 -19.334 -4 -26.001 -12v-782c0 -23.333 8.33301 -35 25 -35c14 0 24.667 7.33301 32 22v762z" />
    <glyph glyph-name="r" unicode="r" horiz-adv-x="325" 
d="M26 1065h156.999l26 -45c14 38 36 57 66 57c16.667 0 31.667 -3 45 -9v-138c-2.66699 2 -8.16699 3.66699 -16.5 5s-15.166 2 -20.499 2c-40.667 0 -61 -22 -61 -66v-871h-196v1065z" />
    <glyph glyph-name="s" unicode="s" horiz-adv-x="436" 
d="M70.5 23.5c-31 27 -46.5 60.8369 -46.5 101.504v242l167 -4v-241c0 -8 2.33301 -14.667 7 -20s11.667 -8 21 -8c8.66699 0 15.5 2.5 20.5 7.5s7.5 12.167 7.5 21.5c0 42 -2.66699 93.667 -8 155l-3 38c-4.66699 41.333 -14 75.166 -28 101.499s-34.333 56.5 -61 90.5
s-48 64.667 -64 92s-29.667 64.166 -41 110.499s-17 103.5 -17 171.5v56c0 47.333 16.167 83 48.5 107s78.833 36 139.5 36c62 0 109.667 -12.5 143 -37.5s50.333 -59.833 51 -104.5v-207l-162 3v210c0 6 -2.33301 11.667 -7 17s-11.667 8 -21 8
c-10 0 -17.167 -2.83301 -21.5 -8.5s-6.5 -11.5 -6.5 -17.5c0 -52.667 4.66699 -97.667 14 -135c4.66699 -36.667 11.667 -67 21 -91s19.5 -43.333 30.5 -58s25.167 -31.334 42.5 -50.001c25.333 -26.667 45.5 -52.834 60.5 -78.501s27.833 -65.667 38.5 -120
s16 -127.833 16 -220.5v-72c0 -42.667 -17.167 -76 -51.5 -100s-79.5 -36 -135.5 -36c-72 0 -123.5 13.5 -154.5 40.5z" />
    <glyph glyph-name="t" unicode="t" horiz-adv-x="307" 
d="M89.5 40.5c-25.667 27 -38.5 65.499 -38.5 115.499v773h-45v121l52 30l45 231l143 1v-247h65v-136h-66v-758c0 -9.33301 2.83301 -17.166 8.5 -23.499s13.167 -9.5 22.5 -9.5h35v-138h-114c-46 0 -81.833 13.5 -107.5 40.5z" />
    <glyph glyph-name="u" unicode="u" horiz-adv-x="463" 
d="M77 27c-34.667 28.667 -51.999 71.332 -51.999 127.999v910h178v-910c0 -22.667 9.66699 -34 29 -34c18.667 0 28 11.333 28 34v910h178v-913c0 -55.333 -17.333 -97.166 -52 -125.499s-86 -42.5 -154 -42.5c-68.667 0 -120.334 14.333 -155.001 43z" />
    <glyph glyph-name="v" unicode="v" horiz-adv-x="460" 
d="M14 1065h185l22 -683l3 -171h12l3 171l22 683h185l-95 -1065h-243z" />
    <glyph glyph-name="w" unicode="w" horiz-adv-x="700" 
d="M14 1065h180l22 -669l3 -183h12l2 183l23 669h187l23 -669l2 -183h12l3 183l22 669h181l-95 -1065h-211l-25 843h-12l-23 -843h-212z" />
    <glyph glyph-name="x" unicode="x" horiz-adv-x="488" 
d="M78 532l-57 533h193l25 -474h10l27 474h192l-57 -529l63 -536h-197l-27 469h-9l-28 -469h-198z" />
    <glyph glyph-name="y" unicode="y" horiz-adv-x="460" 
d="M78 -177h63.999c13.333 0 21.833 6.5 25.5 19.5s5.5 28.167 5.5 45.5l6 141h-79l-86 1036h185l22 -683l3 -171h12l3 171l22 683h185l-79 -1197c-11.333 -66.667 -30.666 -112.667 -57.999 -138s-64 -38 -110 -38h-121v131z" />
    <glyph glyph-name="z" unicode="z" horiz-adv-x="411" 
d="M16 94l138 825h-133v146h371v-92l-137 -826h139v-147h-378v94z" />
    <glyph glyph-name="braceleft" unicode="{" horiz-adv-x="342" 
d="M170 -150c-36 9.33301 -61.5 26.168 -76.5 50.501s-22.5 59.833 -22.5 106.5v542c0 23.333 -4.33301 40 -13 50s-27.334 15 -56.001 15v129c28.667 0 47.334 5 56.001 15s13 26.667 13 50v546c0 46.667 7.5 82.167 22.5 106.5s40.5 41.166 76.5 50.499s89 14 159 14
l1 -129c-24.667 0 -41.334 -3.83301 -50.001 -11.5s-13 -18.167 -13 -31.5v-570c0 -22 -3.83301 -43.167 -11.5 -63.5s-20.5 -33.5 -38.5 -39.5v-3c18 -6 30.833 -19.167 38.5 -39.5s11.5 -41.5 11.5 -63.5v-566c0 -13.333 4.33301 -24 13 -32s25.334 -12 50.001 -12
l-1 -128c-70 0 -123 4.66699 -159 14z" />
    <glyph glyph-name="bar" unicode="|" horiz-adv-x="253" 
d="M26 1689h201v-2012h-201v2012z" />
    <glyph glyph-name="braceright" unicode="}" horiz-adv-x="342" 
d="M13 -36c24.667 0 41.334 3.99805 50.001 11.998s13 18.667 13 32v566c0 22 3.83301 43.167 11.5 63.5s20.167 33.5 37.5 39.5v3c-17.333 6 -29.833 19.167 -37.5 39.5s-11.5 41.5 -11.5 63.5v570c0 13.333 -4.33301 23.833 -13 31.5s-25.334 11.5 -50.001 11.5l1 129
c70 0 123 -4.66699 159 -14s61.5 -26.166 76.5 -50.499s22.5 -59.833 22.5 -106.5v-546c0 -16 1.5 -28.5 4.5 -37.5s9.33301 -15.833 19 -20.5s24.5 -7 44.5 -7v-129c-20 0 -34.833 -2.33301 -44.5 -7s-16 -11.5 -19 -20.5s-4.5 -21.5 -4.5 -37.5v-542
c0 -46.667 -7.5 -82.167 -22.5 -106.5s-40.5 -41.166 -76.5 -50.499s-89 -14 -159 -14z" />
    <glyph glyph-name="asciitilde" unicode="~" horiz-adv-x="350" 
d="M19 583c0 40.667 8.49902 70 25.499 88s44.167 27 81.5 27c27.333 0 47.5 -4.16699 60.5 -12.5s20.5 -22.166 22.5 -41.499l1 -54c2 -15.333 7 -23 15 -23s12 9 12 27v100h94v-141c0 -40 -8.5 -69 -25.5 -87s-44.167 -27 -81.5 -27c-26.667 0 -46.5 4.16699 -59.5 12.5
s-20.833 22.166 -23.5 41.499l-1 54c-1.33301 8.66699 -3.16602 14.667 -5.49902 18s-5.5 5 -9.5 5c-8 0 -12 -9.33301 -12 -28v-99l-94 1v139z" />
    <glyph glyph-name="exclamdown" unicode="&#xa1;" horiz-adv-x="246" 
d="M62 835.5c-13.333 7.66699 -22.332 20.832 -26.999 39.499s-7 46.667 -7 84c0 42 2.33301 73 7 93s13.667 34 27 42s33.666 12 60.999 12s47.666 -4 60.999 -12s22.333 -22.167 27 -42.5s7 -51.166 7 -92.499c0 -38 -2.33301 -66.167 -7 -84.5s-13.5 -31.333 -26.5 -39
s-33.5 -11.5 -61.5 -11.5c-27.333 0 -47.666 3.83301 -60.999 11.5zM26.001 663.998l23 125h148l24 -126v-958h-195v959z" />
    <glyph glyph-name="cent" unicode="&#xa2;" horiz-adv-x="465" 
d="M261 561v350.999c0 19.333 -9.66699 29 -29 29c-18.667 0 -28 -9.66699 -28 -29v-757c0 -19.333 9.33301 -29 28 -29c19.333 0 29 9.66699 29 29v360h181v-351c-1.33301 -54 -16.666 -96.167 -45.999 -126.5s-72.333 -47.833 -129 -52.5v-123h-72v124
c-114.667 10 -172 70.667 -172 182v731c0 111.333 57.333 172 172 182v162h72v-161c56.667 -4.66699 99.667 -22.167 129 -52.5s44.666 -72.166 45.999 -125.499v-343h-181z" />
    <glyph glyph-name="sterling" unicode="&#xa3;" horiz-adv-x="444" 
d="M12 111c10.667 2.66699 17.333 6.33301 20 11s4 14.667 4 30v395h-22v72h21v602c0 54.667 16 94 48 118s83 36 153 36c125.333 0 188.333 -56 189 -168v-264h-157v255c0 22.667 -9.66699 34 -29 34c-18.667 0 -28 -12.333 -28 -37v-576h155v-72h-155v-410h214v-137
l-413 -1v112z" />
    <glyph glyph-name="currency" unicode="&#xa4;" horiz-adv-x="518" 
d="M9 77l72 71c-5.33301 16 -8 33.333 -8 52v734c0 16.667 2.33301 32.667 7 48l-71 70l141 115l63 -62c14.667 4 30 6 46 6s31.667 -2 47 -6l63 62l140 -116l-70 -69c4.66699 -16 7 -32 7 -48v-734c0 -18 -2.66699 -35.667 -8 -53l71 -70l-141 -115l-65 64
c-13.333 -2.66699 -28.333 -4 -45 -4c-16 0 -30.333 1.33301 -43 4l-65 -65zM293 200l0.000976562 733c0 20.667 -11.333 31 -34 31c-10.667 0 -18.834 -2.66699 -24.501 -8s-8.5 -13 -8.5 -23v-733c0 -21.333 11 -32 33 -32c22.667 0 34 10.667 34 32z" />
    <glyph glyph-name="yen" unicode="&#xa5;" horiz-adv-x="486" 
d="M43 639h54l-89 721h202l27 -709h9l27 709h205l-87 -720h50v-70h-398v69zM144 446h-101v69l397 1v-70h-96v-446h-200v446z" />
    <glyph glyph-name="brokenbar" unicode="&#xa6;" horiz-adv-x="252" 
d="M26 1689h201v-977h-201v977zM26 656h201v-979h-201v979z" />
    <glyph glyph-name="section" unicode="&#xa7;" horiz-adv-x="484" 
d="M280 1161l0.00195312 152.999c-1.33301 18.667 -11 28 -29 28c-8.66699 0 -15.5 -2.5 -20.5 -7.5s-7.5 -11.833 -7.5 -20.5c0 -28.667 3 -72.334 9 -131.001c4 -22 11 -42.833 21 -62.5s25 -46.167 45 -79.5c32 -50.667 58.667 -99.334 80 -146.001
s40 -108.167 56 -184.5s24 -168.166 24 -275.499v-72c0 -31.333 -8.5 -55.833 -25.5 -73.5s-42.5 -30.167 -76.5 -37.5c28 -44.667 49.5 -92.334 64.5 -143.001s22.5 -119.667 22.5 -207v-55c0 -50 -18 -88.167 -54 -114.5s-85 -39.5 -147 -39.5
c-78.667 0 -134.5 14.5 -167.5 43.5s-49.5 68.833 -49.5 119.5v151h179v-153c0 -8.66699 2.5 -15.5 7.5 -20.5s12.167 -7.5 21.5 -7.5c8.66699 0 15.5 2.5 20.5 7.5s7.5 11.833 7.5 20.5c0 28.667 -3 72.334 -9 131.001c-4.66699 25.333 -12.334 49.5 -23.001 72.5
s-26.667 53.167 -48 90.5c-31.333 54 -57.333 104 -78 150s-38.667 105.5 -54 178.5s-23 158.5 -23 256.5v72c0 32.667 9 57.834 27 75.501s45 29.834 81 36.501c-20.667 30 -37.334 58.5 -50.001 85.5s-23 61.833 -31 104.5s-12 95.667 -12 159v55c0 50 18 88.167 54 114.5
s85 39.5 147 39.5c78.667 0 134.5 -14.5 167.5 -43.5s49.5 -68.833 49.5 -119.5v-151h-179zM267.002 569.999c-11.333 91.333 -31.333 167.334 -60 228.001c0.666992 -74.667 4 -141.334 10 -200.001c11.333 -87.333 31.333 -159.333 60 -216
c-0.666992 69.333 -4 132 -10 188z" />
    <glyph glyph-name="dieresis" unicode="&#xa8;" horiz-adv-x="333" 
d="M40.5 1115.5c-8.33301 5 -14.166 15.667 -17.499 32s-5 42.833 -5 79.5c0 40.667 1.66699 70 5 88s9.16602 29.667 17.499 35s21.5 8 39.5 8c18.667 0 32.167 -2.66699 40.5 -8s14.333 -17 18 -35s5.5 -47.333 5.5 -88c0 -36 -1.83301 -62.333 -5.5 -79
s-9.66699 -27.5 -18 -32.5s-21.5 -7.5 -39.5 -7.5c-18.667 0 -32.167 2.5 -40.5 7.5zM212.5 1115.5c-8.33301 5 -14.332 15.834 -17.999 32.501s-5.5 43 -5.5 79c0 40 1.66699 69.167 5 87.5s9.16602 30.166 17.499 35.499s21.5 8 39.5 8c18.667 0 32.167 -2.66699 40.5 -8
s14.333 -17 18 -35s5.5 -47.333 5.5 -88c0 -36 -1.83301 -62.333 -5.5 -79s-9.66699 -27.5 -18 -32.5s-21.5 -7.5 -39.5 -7.5s-31.167 2.5 -39.5 7.5z" />
    <glyph glyph-name="copyright" unicode="&#xa9;" horiz-adv-x="692" 
d="M173 -110c-48.667 24.667 -85.999 60.168 -111.999 106.501s-39 101.5 -39 165.5l1 737c0 64.667 13 120.167 39 166.5s63.167 81.833 111.5 106.5s105.833 37 172.5 37c101.333 0 180.5 -27.333 237.5 -82s85.5 -130.667 85.5 -228v-737
c0 -96.667 -28.5 -172.334 -85.5 -227.001s-136.167 -82 -237.5 -82c-66.667 0 -124.334 12.333 -173.001 37zM535.001 -20.499c46 44.333 69.667 105.166 71 182.499v737c0 78 -23 139.167 -69 183.5s-109.667 66.5 -191 66.5c-80.667 0 -144.167 -22.167 -190.5 -66.5
s-69.5 -105.5 -69.5 -183.5v-737c0.666992 -77.333 24.167 -138.166 70.5 -182.499s109.5 -66.5 189.5 -66.5s143 22.167 189 66.5zM209.501 42.001c-33.667 28.667 -50.501 70.667 -50.501 126v730c0 55.333 16.833 97.333 50.5 126s78.834 43 135.501 43
c55.333 0 99.666 -13.833 132.999 -41.5s51 -68.5 53 -122.5v-344h-159v350c0 19.333 -9 29 -27 29s-27 -9.66699 -27 -29v-753c0 -9.33301 2.33301 -16.5 7 -21.5s11.334 -7.5 20.001 -7.5s15.334 2.5 20.001 7.5s7 12.167 7 21.5v359h159v-351
c-1.33301 -54 -18.833 -95 -52.5 -123s-78.167 -42 -133.5 -42c-56.667 0 -101.834 14.333 -135.501 43z" />
    <glyph glyph-name="ordfeminine" unicode="&#xaa;" horiz-adv-x="366" 
d="M42 802.5c-15.333 16.333 -23 41.833 -23 76.5v151c0 34 11.333 59.333 34 76s58 25 106 25l52 -1v140c0 20.667 -9.66699 31 -29 31c-17.333 0 -26 -10.667 -26 -32v-105h-127v108c0 37.333 12.333 64.833 37 82.5s63.667 26.5 117 26.5c56 0 97 -9 123 -27
s39 -45.667 39 -83v-482h-127l-15 44c-10 -19.333 -22 -33.333 -36 -42s-31.667 -13 -53 -13c-32.667 0 -56.667 8.16699 -72 24.5zM211 891v180h-25c-20 0 -30 -12 -30 -36v-154c0 -18.667 8.66699 -27.667 26 -27c19.333 0 29 12.333 29 37z" />
    <glyph glyph-name="guillemotleft" unicode="&#xab;" horiz-adv-x="520" 
d="M3 596l102 436l166 -10l-98 -426l98 -425l-166 -12zM236 596l102 436l166 -10l-98 -426l98 -425l-166 -12z" />
    <glyph glyph-name="logicalnot" unicode="&#xac;" horiz-adv-x="444" 
d="M272 497h-246v138h392v-224h-146v86z" />
    <glyph glyph-name="uni00AD" unicode="&#xad;" horiz-adv-x="355" 
d="M26 635h304v-138h-304v138z" />
    <glyph glyph-name="registered" unicode="&#xae;" horiz-adv-x="692" 
d="M173 -110c-48.667 24.667 -85.999 60.168 -111.999 106.501s-39 101.5 -39 165.5l1 737c0 64.667 13 120.167 39 166.5s63.167 81.833 111.5 106.5s105.833 37 172.5 37c101.333 0 180.5 -27.333 237.5 -82s85.5 -130.667 85.5 -228v-737
c0 -96.667 -28.5 -172.334 -85.5 -227.001s-136.167 -82 -237.5 -82c-66.667 0 -124.334 12.333 -173.001 37zM535.001 -20.499c46 44.333 69.667 105.166 71 182.499v737c0 78 -23 139.167 -69 183.5s-109.667 66.5 -191 66.5c-80.667 0 -144.167 -22.167 -190.5 -66.5
s-69.5 -105.5 -69.5 -183.5v-737c0.666992 -77.333 24.167 -138.166 70.5 -182.499s109.5 -66.5 189.5 -66.5s143 22.167 189 66.5zM176.001 1049h166c57.333 0 100.5 -9.66699 129.5 -29s43.5 -53.333 43.5 -102v-381c0 -41.333 -11.667 -73 -35 -95l34 -414h-141l-17 377
h-37v-377h-143v1021zM344.001 501.001c18.667 0 28 11 28 33v381c0 20.667 -9.33301 31 -28 31h-25v-445h25z" />
    <glyph glyph-name="macron" unicode="&#xaf;" horiz-adv-x="333" 
d="M27 1210h279v-102h-279v102z" />
    <glyph glyph-name="degree" unicode="&#xb0;" horiz-adv-x="351" 
d="M65 1077c-27.333 24 -41 59.667 -41 107v70c0.666992 46.667 14.5 82 41.5 106s63.833 36 110.5 36c46 0 82.667 -12 110 -36s41 -59.333 41 -106v-70c0 -46.667 -13.667 -82.167 -41 -106.5s-64 -36.5 -110 -36.5c-46.667 0 -83.667 12 -111 36zM204 1178v80
c0 19.333 -9.33301 29 -28 29s-28 -9.66699 -28 -29v-80c0 -19.333 9.33301 -29 28 -29s28 9.66699 28 29z" />
    <glyph glyph-name="plusminus" unicode="&#xb1;" horiz-adv-x="356" 
d="M109 582h-83v139h83v83h139v-83h82v-139h-82v-80h-139v80zM26 479h304v-138h-304v138z" />
    <glyph glyph-name="uni00B2" unicode="&#xb2;" horiz-adv-x="367" 
d="M22 882c45.333 74 80.166 134.166 104.499 180.499s41.833 87.833 52.5 124.5s16.334 74 17.001 112v128c0 18.667 -9.66699 28 -29 28c-20 0 -29.333 -11.333 -28 -34v-192h-116v192c0 38.667 11.667 69.167 35 91.5s64 33.5 122 33.5c54.667 0 95.5 -10.5 122.5 -31.5
s40.833 -49.5 41.5 -85.5v-128c0 -41.333 -4.83301 -80.666 -14.5 -117.999s-22.5 -73.5 -38.5 -108.5s-39.667 -83.167 -71 -144.5l-11 -20.5l-9 -17.5v-12c18.667 0 50.667 2.33301 96 7c26.667 2.66699 43 4 49 4v-102h-323v93z" />
    <glyph glyph-name="uni00B3" unicode="&#xb3;" horiz-adv-x="376" 
d="M316.5 1193c25 -15.333 37.499 -41.001 37.499 -77.001v-222c0 -38.667 -14.333 -68 -43 -88s-71 -30 -127 -30c-53.333 0 -93.666 9.83301 -120.999 29.5s-41 48.834 -41 87.501l1 102h135v-99c0 -21.333 9 -32 27 -32c18.667 0 28 10.667 28 32v222
c0 22 -11.667 33 -35 33h-131v75l169 212l1 6l-180 -1v90h299v-104l-154 -213h22c50 0 87.5 -7.66699 112.5 -23zM21.999 892.999z" />
    <glyph glyph-name="acute" unicode="&#xb4;" horiz-adv-x="234" 
d="M57 1406l168 -2l-76 -296h-140z" />
    <glyph glyph-name="uni00B5" unicode="&#xb5;" horiz-adv-x="467" 
d="M25 1060h179.998v-912c4.66699 -12.667 9.66699 -21.5 15 -26.5s12 -7.5 20 -7.5c6.66699 0 11.334 1.16699 14.001 3.5s4.5 6.83301 5.5 13.5s1.5 18 1.5 34v895h182v-897c0 -63.333 -9.5 -109.5 -28.5 -138.5s-51.167 -43.5 -96.5 -43.5
c-22.667 0 -41.167 1.66699 -55.5 5s-28.166 7.33301 -41.499 12l-2 -297h-194v1359z" />
    <glyph glyph-name="paragraph" unicode="&#xb6;" horiz-adv-x="586" 
d="M153 1076c-46 0 -81.001 12.332 -105.001 36.999s-36 59.334 -36 104.001c0 45.333 12.333 80.5 37 105.5s60.334 37.5 107.001 37.5h154v-1593h-156zM365.999 1360h196v-144h-34v-1452h-162v1596z" />
    <glyph glyph-name="periodcentered" unicode="&#xb7;" horiz-adv-x="226" 
d="M54 483c-12.667 6.66699 -21.667 19.502 -27 38.502s-8 48.5 -8 88.5c0 44.667 2.66699 77.334 8 98.001s14.5 34.5 27.5 41.5s32.833 10.5 59.5 10.5s46.334 -3.5 59.001 -10.5s21.667 -20.833 27 -41.5s8 -53.334 8 -98.001c0 -40.667 -2.66699 -70.334 -8 -89.001
s-14.5 -31.334 -27.5 -38.001s-32.833 -10 -59.5 -10s-46.334 3.33301 -59.001 10z" />
    <glyph glyph-name="cedilla" unicode="&#xb8;" horiz-adv-x="344" 
d="M67 -456l17 94c6.66699 -3.33301 19 -5 37 -5c24 0 36 8.66699 36 26v126c0 19.333 -20.667 29 -62 29l15 204l117 -2l-8 -134c52 -10 78 -45 78 -105v-126c0 -82.667 -46.667 -124 -140 -124c-38 0 -68 5.66699 -90 17z" />
    <glyph glyph-name="uni00B9" unicode="&#xb9;" horiz-adv-x="216" 
d="M46 1423l-53 -17l-1 103l76 24h123v-742h-147z" />
    <glyph glyph-name="ordmasculine" unicode="&#xba;" horiz-adv-x="365" 
d="M58 806c-26.667 20.667 -40 53.333 -40 98v349c0 44.667 13.333 77.334 40 98.001s68.334 31 125.001 31s98.334 -10.333 125.001 -31s40 -53 40 -97v-350c0 -44.667 -13.333 -77.334 -40 -98.001s-68.334 -31 -125.001 -31s-98.334 10.333 -125.001 31zM209 898.999v360
c0 19.333 -8.66699 29 -26 29s-26 -9.66699 -26 -29v-360c0 -19.333 8.66699 -29 26 -29s26 9.66699 26 29z" />
    <glyph glyph-name="guillemotright" unicode="&#xbb;" horiz-adv-x="502" 
d="M4 171l99 425l-98 426l166 10l102 -436l-102 -437zM229 171l99 425l-98 426l166 10l102 -436l-102 -437z" />
    <glyph glyph-name="onequarter" unicode="&#xbc;" horiz-adv-x="386" 
d="M124 1375l-53 -18l-1 103l76 24h123v-742h-147zM18 699h349v-47h-349v47zM191 -12h-178v92l98 531h226l2 -531h35v-92h-35v-122h-148v122zM198 80l3 441h-12l-53 -441h62z" />
    <glyph glyph-name="onehalf" unicode="&#xbd;" horiz-adv-x="384" 
d="M124 1374l-54 -17l-1 103l76 24h123v-743h-147zM18 699h349v-47h-349v47zM29 -47c45.333 74 80.166 134.168 104.499 180.501s41.833 87.666 52.5 123.999s16.334 73.5 17.001 111.5v128c0 19.333 -9.66699 29 -29 29c-20 0 -29.333 -11.333 -28 -34v-192h-116v192
c0 38 11.667 68.167 35 90.5s64 33.5 122 33.5c54.667 0 95.5 -10.333 122.5 -31s40.833 -49 41.5 -85v-128c0 -41.333 -4.66699 -80.5 -14 -117.5s-21.833 -72.5 -37.5 -106.5s-39.167 -81.667 -70.5 -143l-22 -43v-12c18.667 0 50.667 2.33301 96 7
c26.667 2.66699 43 4 49 4v-101h-323v93z" />
    <glyph glyph-name="questiondown" unicode="&#xbf;" horiz-adv-x="446" 
d="M280.5 1072.5c13 -7 22.333 -20.833 28 -41.5s8.5 -52.334 8.5 -95.001c0 -38.667 -2.83301 -67.334 -8.5 -86.001s-15 -31.334 -28 -38.001s-32.167 -10 -57.5 -10s-44.666 3.33301 -57.999 10s-22.833 19.334 -28.5 38.001s-8.5 47.334 -8.5 86.001
c0 42.667 2.83301 74.334 8.5 95.001s15.167 34.5 28.5 41.5s32.666 10.5 57.999 10.5s44.5 -3.5 57.5 -10.5zM307 676l10.998 -249.001c2 -6.66699 3 -13.667 3 -21c0 -18.667 -7.16699 -35 -21.5 -49s-37.833 -23.333 -70.5 -28c-18 -13.333 -27.333 -28 -28 -44v-430
c0.666992 -22.667 10.334 -34 29.001 -34c20 0 30 11 30 33v381h163v-379c1.33301 -112 -66.334 -168 -203.001 -168c-65.333 0 -114.666 13.333 -147.999 40s-50 66.334 -50 119.001v432c0.666992 26 7.16699 47.167 19.5 63.5s29.5 33.5 51.5 51.5
c12.667 10 21.834 17.833 27.501 23.5s9.5 12.167 11.5 19.5l6 239l10 90h148z" />
    <glyph glyph-name="Agrave" unicode="&#xc0;" horiz-adv-x="481" 
d="M269 212h-56l-6 -212h-200l121 1360h225l121 -1360h-199zM265 330l-21 692h-8l-20 -692h49zM95 1699l168 2l48 -298h-140z" />
    <glyph glyph-name="Aacute" unicode="&#xc1;" horiz-adv-x="481" 
d="M269 212h-56l-6 -212h-200l121 1360h225l121 -1360h-199zM265 330l-21 692h-8l-20 -692h49zM211 1701l168 -2l-76 -296h-140z" />
    <glyph glyph-name="Acircumflex" unicode="&#xc2;" horiz-adv-x="481" 
d="M269 212h-56l-6 -212h-200l121 1360h225l121 -1360h-199zM265 330l-21 692h-8l-20 -692h49zM88 1404l52 254h199l52 -254l-115 -1l-37 205l-36 -205z" />
    <glyph glyph-name="Atilde" unicode="&#xc3;" horiz-adv-x="481" 
d="M269 212h-56l-6 -212h-200l121 1360h225l121 -1360h-199zM265 330l-21 692h-8l-20 -692h49zM83 1532c0 39.333 8.16797 65.833 24.501 79.5s44.166 20.5 83.499 20.5c27.333 0 47.333 -4.16699 60 -12.5s20.334 -22.5 23.001 -42.5v-77
c1.33301 -8 3.16602 -13.833 5.49902 -17.5s5.5 -5.5 9.5 -5.5c8 0 12 9 12 27v123h94l1 -122c0 -38.667 -8.16699 -65 -24.5 -79s-44.166 -21 -83.499 -21c-27.333 0 -47.333 3.83301 -60 11.5s-20.334 21.167 -23.001 40.5v77c-2.66699 15.333 -7.66699 23 -15 23
c-8 0 -12 -9.33301 -12 -28v-122l-94 2z" />
    <glyph glyph-name="Adieresis" unicode="&#xc4;" horiz-adv-x="481" 
d="M269 212h-56l-6 -212h-200l121 1360h225l121 -1360h-199zM265 330l-21 692h-8l-20 -692h49zM111.5 1410.5c-8.33301 5 -14.166 15.667 -17.499 32s-5 42.833 -5 79.5c0 40.667 1.66699 70 5 88s9.16602 29.667 17.499 35s21.5 8 39.5 8c18.667 0 32.167 -2.66699 40.5 -8
s14.333 -17 18 -35s5.5 -47.333 5.5 -88c0 -36 -1.83301 -62.333 -5.5 -79s-9.66699 -27.5 -18 -32.5s-21.5 -7.5 -39.5 -7.5c-18.667 0 -32.167 2.5 -40.5 7.5zM283.5 1410.5c-8.33301 5 -14.332 15.834 -17.999 32.501s-5.5 43 -5.5 79c0 40 1.66699 69.167 5 87.5
s9.16602 30.166 17.499 35.499s21.5 8 39.5 8c18.667 0 32.167 -2.66699 40.5 -8s14.333 -17 18 -35s5.5 -47.333 5.5 -88c0 -36 -1.83301 -62.333 -5.5 -79s-9.66699 -27.5 -18 -32.5s-21.5 -7.5 -39.5 -7.5s-31.167 2.5 -39.5 7.5z" />
    <glyph glyph-name="Aring" unicode="&#xc5;" horiz-adv-x="481" 
d="M269 212h-56l-6 -212h-200l121 1360h225l121 -1360h-199zM265 330l-21 692h-8l-20 -692h49zM145 1429c-21.333 17.333 -32.001 42.666 -32.001 75.999v78c0 33.333 10.667 58.5 32 75.5s52.666 25.5 93.999 25.5c84 0 126 -33.667 126 -101v-78
c0 -33.333 -10.667 -58.666 -32 -75.999s-52.666 -26 -93.999 -26s-72.666 8.66699 -93.999 26zM262.499 1483.5c5.66699 5 8.5 12.167 8.5 21.5v78c0 18 -10.667 27 -32 27c-22 0 -33 -9 -33 -27v-78c0 -19.333 11 -29 33 -29c10 0 17.833 2.5 23.5 7.5z" />
    <glyph glyph-name="AE" unicode="&#xc6;" horiz-adv-x="635" 
d="M183 1360h441v-141h-141v-489h112v-110h-112v-483h143v-137h-342v214h-55l-14 -214h-199zM284 332l2 690h-8l-7 -201l-32 -489h45z" />
    <glyph glyph-name="Ccedilla" unicode="&#xc7;" horiz-adv-x="510" 
d="M283 711l0.000976562 470c0 19.333 -9.33301 29 -28 29c-19.333 0 -29 -9.66699 -29 -29v-1002c0 -19.333 9.66699 -29 29 -29c18.667 0 28 9.66699 28 29v470h205v-455c-1.33301 -60 -16.833 -107.167 -46.5 -141.5s-72.5 -55.833 -128.5 -64.5l-7 -106
c52 -9.33301 78 -44 78 -104v-127c0 -40.667 -11.833 -71.5 -35.5 -92.5s-58.5 -31.5 -104.5 -31.5c-37.333 0 -67.333 6 -90 18l17 94c7.33301 -3.33301 19.666 -5 36.999 -5c24 0 36 8.66699 36 26v126c0 19.333 -20.667 29 -62 29l13 173c-115.333 18 -173 89 -173 213
v958c0 71.333 19.667 125.333 59 162s97.333 55 174 55c74.667 0 131.667 -17.833 171 -53.5s60 -88.167 62 -157.5v-454h-205z" />
    <glyph glyph-name="Egrave" unicode="&#xc8;" horiz-adv-x="375" 
d="M26 1360h340v-141h-138v-489h109v-110h-109v-483h140v-137h-342v1360zM53 1699l168 2l48 -298h-140z" />
    <glyph glyph-name="Eacute" unicode="&#xc9;" horiz-adv-x="375" 
d="M26 1360h340v-141h-138v-489h109v-110h-109v-483h140v-137h-342v1360zM169 1701l168 -2l-76 -296h-140z" />
    <glyph glyph-name="Ecircumflex" unicode="&#xca;" horiz-adv-x="375" 
d="M26 1360h340v-141h-138v-489h109v-110h-109v-483h140v-137h-342v1360zM46 1404l52 294h199l52 -294l-115 -1l-37 205l-36 -205z" />
    <glyph glyph-name="Edieresis" unicode="&#xcb;" horiz-adv-x="375" 
d="M26 1360h340v-141h-138v-489h109v-110h-109v-483h140v-137h-342v1360zM70.5 1410.5c-8.33301 5 -14.166 15.667 -17.499 32s-5 42.833 -5 79.5c0 40.667 1.66699 70 5 88s9.16602 29.667 17.499 35s21.5 8 39.5 8c18.667 0 32.167 -2.66699 40.5 -8s14.333 -17 18 -35
s5.5 -47.333 5.5 -88c0 -36 -1.83301 -62.333 -5.5 -79s-9.66699 -27.5 -18 -32.5s-21.5 -7.5 -39.5 -7.5c-18.667 0 -32.167 2.5 -40.5 7.5zM242.5 1410.5c-8.33301 5 -14.332 15.834 -17.999 32.501s-5.5 43 -5.5 79c0 40 1.66699 69.167 5 87.5
s9.16602 30.166 17.499 35.499s21.5 8 39.5 8c18.667 0 32.167 -2.66699 40.5 -8s14.333 -17 18 -35s5.5 -47.333 5.5 -88c0 -36 -1.83301 -62.333 -5.5 -79s-9.66699 -27.5 -18 -32.5s-21.5 -7.5 -39.5 -7.5s-31.167 2.5 -39.5 7.5z" />
    <glyph glyph-name="Igrave" unicode="&#xcc;" horiz-adv-x="251" 
d="M26 1360h199v-1360h-199v1360zM-18 1699l168 2l48 -298h-140z" />
    <glyph glyph-name="Iacute" unicode="&#xcd;" horiz-adv-x="251" 
d="M26 1360h199v-1360h-199v1360zM98 1701l168 -2l-76 -296h-140z" />
    <glyph glyph-name="Icircumflex" unicode="&#xce;" horiz-adv-x="251" 
d="M26 1360h199v-1360h-199v1360zM-25 1404l52 294h199l52 -294l-115 -1l-37 205l-36 -205z" />
    <glyph glyph-name="Idieresis" unicode="&#xcf;" horiz-adv-x="251" 
d="M26 1360h199v-1360h-199v1360zM-1.5 1410.5c-8.33301 5 -14.166 15.667 -17.499 32s-5 42.833 -5 79.5c0 40.667 1.66699 70 5 88s9.16602 29.667 17.499 35s21.5 8 39.5 8c18.667 0 32.167 -2.66699 40.5 -8s14.333 -17 18 -35s5.5 -47.333 5.5 -88
c0 -36 -1.83301 -62.333 -5.5 -79s-9.66699 -27.5 -18 -32.5s-21.5 -7.5 -39.5 -7.5c-18.667 0 -32.167 2.5 -40.5 7.5zM170.5 1410.5c-8.33301 5 -14.332 15.834 -17.999 32.501s-5.5 43 -5.5 79c0 40 1.66699 69.167 5 87.5s9.16602 30.166 17.499 35.499s21.5 8 39.5 8
c18.667 0 32.167 -2.66699 40.5 -8s14.333 -17 18 -35s5.5 -47.333 5.5 -88c0 -36 -1.83301 -62.333 -5.5 -79s-9.66699 -27.5 -18 -32.5s-21.5 -7.5 -39.5 -7.5s-31.167 2.5 -39.5 7.5z" />
    <glyph glyph-name="Eth" unicode="&#xd0;" horiz-adv-x="509" 
d="M424 1307.5c42 -35 63 -86.833 63 -155.5v-944c0 -66 -19.667 -117.167 -59 -153.5s-96 -54.5 -170 -54.5h-222v609h-28v119h28v632h222c68.667 0 124 -17.5 166 -52.5zM288 1152c0 28 -2.16699 46.5 -6.5 55.5s-12.5 13.5 -24.5 13.5h-26v-493h17v-119h-17v-470h26
c12 0 20.167 4.5 24.5 13.5s6.5 27.5 6.5 55.5v944z" />
    <glyph glyph-name="Ntilde" unicode="&#xd1;" horiz-adv-x="494" 
d="M26 1360h208l21 -199l60 -719h10l-33 918h176v-1360h-208l-22 198l-64 750h-12l37 -948h-173v1360zM94 1481v47.001c0 40.667 8.5 70 25.5 88s44.5 27 82.5 27c27.333 0 47.333 -4.16699 60 -12.5s20.334 -22.166 23.001 -41.499v-78
c1.33301 -8 3.16602 -13.667 5.49902 -17s5.5 -5 9.5 -5c8 0 12 9 12 27v123h94c0 -38.667 0.333008 -63.667 1 -75v-50c0 -39.333 -8.5 -68 -25.5 -86s-44.5 -27 -82.5 -27c-26.667 0 -46.5 4.16699 -59.5 12.5s-20.833 22.166 -23.5 41.499v77
c-2.66699 15.333 -7.66699 23 -15 23c-8 0 -12 -9.33301 -12 -28v-122h-94c0 39.333 -0.333008 64.666 -1 75.999z" />
    <glyph glyph-name="Ograve" unicode="&#xd2;" horiz-adv-x="510" 
d="M22 1166c0 68.667 19.667 120.833 59 156.5s97.333 53.5 174 53.5s134.667 -18.333 174 -55s59 -90.667 59 -162v-957c0 -72 -19.667 -126.333 -59 -163s-97.333 -55 -174 -55c-76 0 -132.5 18 -169.5 54s-58.167 90.667 -63.5 164v964zM255 149.999
c18.667 0 28 9.66699 28 29v1002c0 19.333 -9.33301 29 -28 29s-28 -9.66699 -28 -29v-1002c0 -19.333 9.33301 -29 28 -29zM111 1715l168 2l48 -298h-140z" />
    <glyph glyph-name="Oacute" unicode="&#xd3;" horiz-adv-x="510" 
d="M22 1166c0 68.667 19.667 120.833 59 156.5s97.333 53.5 174 53.5s134.667 -18.333 174 -55s59 -90.667 59 -162v-957c0 -72 -19.667 -126.333 -59 -163s-97.333 -55 -174 -55c-76 0 -132.5 18 -169.5 54s-58.167 90.667 -63.5 164v964zM255 149.999
c18.667 0 28 9.66699 28 29v1002c0 19.333 -9.33301 29 -28 29s-28 -9.66699 -28 -29v-1002c0 -19.333 9.33301 -29 28 -29zM227 1717l168 -2l-76 -296h-140z" />
    <glyph glyph-name="Ocircumflex" unicode="&#xd4;" horiz-adv-x="510" 
d="M22 1166c0 68.667 19.667 120.833 59 156.5s97.333 53.5 174 53.5s134.667 -18.333 174 -55s59 -90.667 59 -162v-957c0 -72 -19.667 -126.333 -59 -163s-97.333 -55 -174 -55c-76 0 -132.5 18 -169.5 54s-58.167 90.667 -63.5 164v964zM255 149.999
c18.667 0 28 9.66699 28 29v1002c0 19.333 -9.33301 29 -28 29s-28 -9.66699 -28 -29v-1002c0 -19.333 9.33301 -29 28 -29zM104 1420l52 254h199l52 -254l-115 -1l-37 205l-36 -205z" />
    <glyph glyph-name="Otilde" unicode="&#xd5;" horiz-adv-x="510" 
d="M22 1166c0 68.667 19.667 120.833 59 156.5s97.333 53.5 174 53.5s134.667 -18.333 174 -55s59 -90.667 59 -162v-957c0 -72 -19.667 -126.333 -59 -163s-97.333 -55 -174 -55c-76 0 -132.5 18 -169.5 54s-58.167 90.667 -63.5 164v964zM255 149.999
c18.667 0 28 9.66699 28 29v1002c0 19.333 -9.33301 29 -28 29s-28 -9.66699 -28 -29v-1002c0 -19.333 9.33301 -29 28 -29zM98 1497v47.001c0 40.667 8.5 70 25.5 88s44.5 27 82.5 27c27.333 0 47.333 -4.16699 60 -12.5s20.334 -22.166 23.001 -41.499v-78
c1.33301 -8 3.16602 -13.667 5.49902 -17s5.5 -5 9.5 -5c8 0 12 9 12 27v123h94c0 -38.667 0.333008 -63.667 1 -75v-50c0 -39.333 -8.5 -68 -25.5 -86s-44.5 -27 -82.5 -27c-26.667 0 -46.5 4.16699 -59.5 12.5s-20.833 22.166 -23.5 41.499v77
c-2.66699 15.333 -7.66699 23 -15 23c-8 0 -12 -9.33301 -12 -28v-122h-94c0 39.333 -0.333008 64.666 -1 75.999z" />
    <glyph glyph-name="Odieresis" unicode="&#xd6;" horiz-adv-x="510" 
d="M22 1166c0 68.667 19.667 120.833 59 156.5s97.333 53.5 174 53.5s134.667 -18.333 174 -55s59 -90.667 59 -162v-957c0 -72 -19.667 -126.333 -59 -163s-97.333 -55 -174 -55c-76 0 -132.5 18 -169.5 54s-58.167 90.667 -63.5 164v964zM255 149.999
c18.667 0 28 9.66699 28 29v1002c0 19.333 -9.33301 29 -28 29s-28 -9.66699 -28 -29v-1002c0 -19.333 9.33301 -29 28 -29zM127.5 1426.5c-8.33301 5 -14.166 15.667 -17.499 32s-5 42.833 -5 79.5c0 40.667 1.66699 70 5 88s9.16602 29.667 17.499 35s21.5 8 39.5 8
c18.667 0 32.167 -2.66699 40.5 -8s14.333 -17 18 -35s5.5 -47.333 5.5 -88c0 -36 -1.83301 -62.333 -5.5 -79s-9.66699 -27.5 -18 -32.5s-21.5 -7.5 -39.5 -7.5c-18.667 0 -32.167 2.5 -40.5 7.5zM299.5 1426.5c-8.33301 5 -14.332 15.834 -17.999 32.501s-5.5 43 -5.5 79
c0 40 1.66699 69.167 5 87.5s9.16602 30.166 17.499 35.499s21.5 8 39.5 8c18.667 0 32.167 -2.66699 40.5 -8s14.333 -17 18 -35s5.5 -47.333 5.5 -88c0 -36 -1.83301 -62.333 -5.5 -79s-9.66699 -27.5 -18 -32.5s-21.5 -7.5 -39.5 -7.5s-31.167 2.5 -39.5 7.5z" />
    <glyph glyph-name="multiply" unicode="&#xd7;" horiz-adv-x="365" 
d="M29 493l61 61l-62 63l92 91l62 -62l62 62l92 -91l-62 -62l61 -62l-91 -92l-62 62l-62 -62z" />
    <glyph glyph-name="Oslash" unicode="&#xd8;" horiz-adv-x="514" 
d="M488 1159v-957.001c0 -72 -19.667 -126.333 -59 -163s-97.333 -55 -174 -55c-38 0 -70.333 4.33301 -97 13l-14 -65l-92 34l19 87c-28.667 35.333 -45 85 -49 149v964c0 68.667 19.667 120.834 59 156.501s97.333 53.5 174 53.5c40 0 75 -5 105 -15l14 63l93 -39l-19 -85
c26.667 -34.667 40 -81.667 40 -141zM227 757.999l56 254v169c0 19.333 -9.33301 29 -28 29s-28 -9.66699 -28 -29v-423zM283 178.999v378l-56 -252v-126c0 -19.333 9.33301 -29 28 -29s28 9.66699 28 29z" />
    <glyph glyph-name="Ugrave" unicode="&#xd9;" horiz-adv-x="497" 
d="M25 151v1209h196v-1188c0 -12.667 2.5 -22.334 7.5 -29.001s11.833 -10 20.5 -10s15.5 3.33301 20.5 10s7.5 16.334 7.5 29.001v1188h195v-1209c0 -56 -18.833 -98.167 -56.5 -126.5s-93.5 -42.5 -167.5 -42.5c-148.667 0 -223 56.333 -223 169zM105 1699l168 2l48 -298
h-140z" />
    <glyph glyph-name="Uacute" unicode="&#xda;" horiz-adv-x="497" 
d="M25 151v1209h196v-1188c0 -12.667 2.5 -22.334 7.5 -29.001s11.833 -10 20.5 -10s15.5 3.33301 20.5 10s7.5 16.334 7.5 29.001v1188h195v-1209c0 -56 -18.833 -98.167 -56.5 -126.5s-93.5 -42.5 -167.5 -42.5c-148.667 0 -223 56.333 -223 169zM221 1701l168 -2
l-76 -296h-140z" />
    <glyph glyph-name="Ucircumflex" unicode="&#xdb;" horiz-adv-x="497" 
d="M25 151v1209h196v-1188c0 -12.667 2.5 -22.334 7.5 -29.001s11.833 -10 20.5 -10s15.5 3.33301 20.5 10s7.5 16.334 7.5 29.001v1188h195v-1209c0 -56 -18.833 -98.167 -56.5 -126.5s-93.5 -42.5 -167.5 -42.5c-148.667 0 -223 56.333 -223 169zM98 1404l52 294h199
l52 -294l-115 -1l-37 205l-36 -205z" />
    <glyph glyph-name="Udieresis" unicode="&#xdc;" horiz-adv-x="497" 
d="M25 151v1209h196v-1188c0 -12.667 2.5 -22.334 7.5 -29.001s11.833 -10 20.5 -10s15.5 3.33301 20.5 10s7.5 16.334 7.5 29.001v1188h195v-1209c0 -56 -18.833 -98.167 -56.5 -126.5s-93.5 -42.5 -167.5 -42.5c-148.667 0 -223 56.333 -223 169zM122.5 1410.5
c-8.33301 5 -14.166 15.667 -17.499 32s-5 42.833 -5 79.5c0 40.667 1.66699 70 5 88s9.16602 29.667 17.499 35s21.5 8 39.5 8c18.667 0 32.167 -2.66699 40.5 -8s14.333 -17 18 -35s5.5 -47.333 5.5 -88c0 -36 -1.83301 -62.333 -5.5 -79s-9.66699 -27.5 -18 -32.5
s-21.5 -7.5 -39.5 -7.5c-18.667 0 -32.167 2.5 -40.5 7.5zM294.5 1410.5c-8.33301 5 -14.332 15.834 -17.999 32.501s-5.5 43 -5.5 79c0 40 1.66699 69.167 5 87.5s9.16602 30.166 17.499 35.499s21.5 8 39.5 8c18.667 0 32.167 -2.66699 40.5 -8s14.333 -17 18 -35
s5.5 -47.333 5.5 -88c0 -36 -1.83301 -62.333 -5.5 -79s-9.66699 -27.5 -18 -32.5s-21.5 -7.5 -39.5 -7.5s-31.167 2.5 -39.5 7.5z" />
    <glyph glyph-name="Yacute" unicode="&#xdd;" horiz-adv-x="485" 
d="M144 425l-136 935h201l29 -693h9l26 693h204l-134 -934v-426h-199v425zM213 1658l168 -3l-76 -252h-140z" />
    <glyph glyph-name="Thorn" unicode="&#xde;" horiz-adv-x="483" 
d="M26 1360h199.002v-202h14c70 0 124.667 -13.333 164 -40s59 -74.667 59 -144v-592c-0.666992 -66.667 -20.834 -113.167 -60.501 -139.5s-93.834 -39.5 -162.501 -39.5h-14v-208h-199v1365zM232.002 339c13.333 0 23.5 3.33301 30.5 10s10.5 18 10.5 34v592
c0 17.333 -3.5 29.333 -10.5 36s-17.5 10 -31.5 10h-14v-682h15z" />
    <glyph glyph-name="germandbls" unicode="&#xdf;" horiz-adv-x="486" 
d="M27 1240c0 61.333 20.168 104.666 60.501 129.999s87.5 38 141.5 38c66.667 0 118.167 -12.5 154.5 -37.5s54.833 -62.167 55.5 -111.5v-374c0 -27.333 -5 -49.833 -15 -67.5s-23.333 -29.167 -40 -34.5c21.333 -10 39.333 -23.667 54 -41s22 -45.666 22 -84.999v-486
c0 -63.333 -21.167 -107.666 -63.5 -132.999s-93.5 -38 -153.5 -38h-12v136h10c10 0 18 3.16699 24 9.5s9 15.833 9 28.5v486c0 14 -2.83301 24.667 -8.5 32s-13.5 11 -23.5 11h-11v114h10c20.667 0 31 13.667 31 41v374c0 11.333 -2.83301 20.166 -8.5 26.499
s-13.834 9.5 -24.501 9.5c-22 0 -33 -12 -33 -36v-1232h-179v1240z" />
    <glyph glyph-name="agrave" unicode="&#xe0;" horiz-adv-x="462" 
d="M57 20c-22.667 24 -34 57 -34 99v384c0 35.333 7.16699 62.5 21.5 81.5s35.5 32 63.5 39s65.667 10.5 113 10.5l39 -1v293c0 24.667 -9.66699 37 -29 37c-18.667 0 -28 -11 -28 -33v-260h-166v259c0.666992 53.333 17.5 92.333 50.5 117s86.833 37 161.5 37
c56.667 0 102 -12.167 136 -36.5s51 -61.5 51 -111.5v-935h-165l-20 56c-18.667 -48 -54 -72 -106 -72c-36 0 -65.333 12 -88 36zM260 149v408h-23c-22.667 -0.666992 -34 -13.334 -34 -38.001v-383c0 -9.33301 2.16699 -16.333 6.5 -21s10.5 -7 18.5 -7
c20 -1.33301 30.667 12.334 32 41.001zM90 1422l168 2l48 -298h-140z" />
    <glyph glyph-name="aacute" unicode="&#xe1;" horiz-adv-x="462" 
d="M57 20c-22.667 24 -34 57 -34 99v384c0 35.333 7.16699 62.5 21.5 81.5s35.5 32 63.5 39s65.667 10.5 113 10.5l39 -1v293c0 24.667 -9.66699 37 -29 37c-18.667 0 -28 -11 -28 -33v-260h-166v259c0.666992 53.333 17.5 92.333 50.5 117s86.833 37 161.5 37
c56.667 0 102 -12.167 136 -36.5s51 -61.5 51 -111.5v-935h-165l-20 56c-18.667 -48 -54 -72 -106 -72c-36 0 -65.333 12 -88 36zM260 149v408h-23c-22.667 -0.666992 -34 -13.334 -34 -38.001v-383c0 -9.33301 2.16699 -16.333 6.5 -21s10.5 -7 18.5 -7
c20 -1.33301 30.667 12.334 32 41.001zM206 1424l168 -2l-76 -296h-140z" />
    <glyph glyph-name="acircumflex" unicode="&#xe2;" horiz-adv-x="462" 
d="M57 20c-22.667 24 -34 57 -34 99v384c0 35.333 7.16699 62.5 21.5 81.5s35.5 32 63.5 39s65.667 10.5 113 10.5l39 -1v293c0 24.667 -9.66699 37 -29 37c-18.667 0 -28 -11 -28 -33v-260h-166v259c0.666992 53.333 17.5 92.333 50.5 117s86.833 37 161.5 37
c56.667 0 102 -12.167 136 -36.5s51 -61.5 51 -111.5v-935h-165l-20 56c-18.667 -48 -54 -72 -106 -72c-36 0 -65.333 12 -88 36zM260 149v408h-23c-22.667 -0.666992 -34 -13.334 -34 -38.001v-383c0 -9.33301 2.16699 -16.333 6.5 -21s10.5 -7 18.5 -7
c20 -1.33301 30.667 12.334 32 41.001zM84 1127l52 254h199l52 -254l-115 -1l-37 205l-36 -205z" />
    <glyph glyph-name="atilde" unicode="&#xe3;" horiz-adv-x="462" 
d="M57 20c-22.667 24 -34 57 -34 99v384c0 35.333 7.16699 62.5 21.5 81.5s35.5 32 63.5 39s65.667 10.5 113 10.5l39 -1v293c0 24.667 -9.66699 37 -29 37c-18.667 0 -28 -11 -28 -33v-260h-166v259c0.666992 53.333 17.5 92.333 50.5 117s86.833 37 161.5 37
c56.667 0 102 -12.167 136 -36.5s51 -61.5 51 -111.5v-935h-165l-20 56c-18.667 -48 -54 -72 -106 -72c-36 0 -65.333 12 -88 36zM260 149v408h-23c-22.667 -0.666992 -34 -13.334 -34 -38.001v-383c0 -9.33301 2.16699 -16.333 6.5 -21s10.5 -7 18.5 -7
c20 -1.33301 30.667 12.334 32 41.001zM78 1204v47.001c0 40.667 8.5 70 25.5 88s44.5 27 82.5 27c27.333 0 47.333 -4.16699 60 -12.5s20.334 -22.166 23.001 -41.499v-78c1.33301 -8 3.16602 -13.667 5.49902 -17s5.5 -5 9.5 -5c8 0 12 9 12 27v123h94
c0 -38.667 0.333008 -63.667 1 -75v-50c0 -39.333 -8.5 -68 -25.5 -86s-44.5 -27 -82.5 -27c-26.667 0 -46.5 4.16699 -59.5 12.5s-20.833 22.166 -23.5 41.499v77c-2.66699 15.333 -7.66699 23 -15 23c-8 0 -12 -9.33301 -12 -28v-122h-94
c0 39.333 -0.333008 64.666 -1 75.999z" />
    <glyph glyph-name="adieresis" unicode="&#xe4;" horiz-adv-x="462" 
d="M57 20c-22.667 24 -34 57 -34 99v384c0 35.333 7.16699 62.5 21.5 81.5s35.5 32 63.5 39s65.667 10.5 113 10.5l39 -1v293c0 24.667 -9.66699 37 -29 37c-18.667 0 -28 -11 -28 -33v-260h-166v259c0.666992 53.333 17.5 92.333 50.5 117s86.833 37 161.5 37
c56.667 0 102 -12.167 136 -36.5s51 -61.5 51 -111.5v-935h-165l-20 56c-18.667 -48 -54 -72 -106 -72c-36 0 -65.333 12 -88 36zM260 149v408h-23c-22.667 -0.666992 -34 -13.334 -34 -38.001v-383c0 -9.33301 2.16699 -16.333 6.5 -21s10.5 -7 18.5 -7
c20 -1.33301 30.667 12.334 32 41.001zM107.5 1133.5c-8.33301 5 -14.166 15.667 -17.499 32s-5 42.833 -5 79.5c0 40.667 1.66699 70 5 88s9.16602 29.667 17.499 35s21.5 8 39.5 8c18.667 0 32.167 -2.66699 40.5 -8s14.333 -17 18 -35s5.5 -47.333 5.5 -88
c0 -36 -1.83301 -62.333 -5.5 -79s-9.66699 -27.5 -18 -32.5s-21.5 -7.5 -39.5 -7.5c-18.667 0 -32.167 2.5 -40.5 7.5zM279.5 1133.5c-8.33301 5 -14.332 15.834 -17.999 32.501s-5.5 43 -5.5 79c0 40 1.66699 69.167 5 87.5s9.16602 30.166 17.499 35.499s21.5 8 39.5 8
c18.667 0 32.167 -2.66699 40.5 -8s14.333 -17 18 -35s5.5 -47.333 5.5 -88c0 -36 -1.83301 -62.333 -5.5 -79s-9.66699 -27.5 -18 -32.5s-21.5 -7.5 -39.5 -7.5s-31.167 2.5 -39.5 7.5z" />
    <glyph glyph-name="aring" unicode="&#xe5;" horiz-adv-x="462" 
d="M57 20c-22.667 24 -34 57 -34 99v384c0 35.333 7.16699 62.5 21.5 81.5s35.5 32 63.5 39s65.667 10.5 113 10.5l39 -1v293c0 24.667 -9.66699 37 -29 37c-18.667 0 -28 -11 -28 -33v-260h-166v259c0.666992 53.333 17.5 92.333 50.5 117s86.833 37 161.5 37
c56.667 0 102 -12.167 136 -36.5s51 -61.5 51 -111.5v-935h-165l-20 56c-18.667 -48 -54 -72 -106 -72c-36 0 -65.333 12 -88 36zM260 149v408h-23c-22.667 -0.666992 -34 -13.334 -34 -38.001v-383c0 -9.33301 2.16699 -16.333 6.5 -21s10.5 -7 18.5 -7
c20 -1.33301 30.667 12.334 32 41.001zM140 1152c-21.333 17.333 -32.001 42.666 -32.001 75.999v78c0 33.333 10.667 58.5 32 75.5s52.666 25.5 93.999 25.5c84 0 126 -33.667 126 -101v-78c0 -33.333 -10.667 -58.666 -32 -75.999s-52.666 -26 -93.999 -26
s-72.666 8.66699 -93.999 26zM257.499 1206.5c5.66699 5 8.5 12.167 8.5 21.5v78c0 18 -10.667 27 -32 27c-22 0 -33 -9 -33 -27v-78c0 -19.333 11 -29 33 -29c10 0 17.833 2.5 23.5 7.5z" />
    <glyph glyph-name="ae" unicode="&#xe6;" horiz-adv-x="704" 
d="M334 39c-14 -16.667 -34.832 -30 -62.499 -40s-57.834 -15 -90.501 -15c-51.333 0 -90.333 11.333 -117 34s-40 56.334 -40 101.001v390c0 41.333 14.5 72.5 43.5 93.5s71.833 31.5 128.5 31.5l65 -1v293c0 24.667 -9.33301 37 -28 37s-28 -9.66699 -28 -29v-264h-166
v270c0 95.333 65.333 143 196 143c54.667 0 96.667 -8.33301 126 -25c28 16.667 69.667 25 125 25c64 0 112.667 -15.167 146 -45.5s50 -74.833 50 -133.5c0 -50 -0.333008 -93.5 -1 -130.5s-1.33398 -67.5 -2.00098 -91.5c-2 -68.667 -3 -134.334 -3 -197.001h-234v-368
c0 -19.333 9.33301 -29 28 -29s28 9.66699 28 29v311h174v-307c-8.66699 -44 -30 -77.833 -64 -101.5s-80 -35.5 -138 -35.5c-63.333 0 -108.666 18.333 -135.999 55zM498.001 574v360c0 19.333 -9.33301 29 -28 29s-28 -9.66699 -28 -29v-360h56zM261.001 149v408h-23
c-22 -0.666992 -33 -13.334 -33 -38.001v-383c0 -18.667 8.33301 -28 25 -28c20.667 -1.33301 31 12.334 31 41.001z" />
    <glyph glyph-name="ccedilla" unicode="&#xe7;" horiz-adv-x="465" 
d="M261 561l0.000976562 351c0 19.333 -9.66699 29 -29 29c-18.667 0 -28 -9.66699 -28 -29v-757c0 -19.333 9.33301 -29 28 -29c19.333 0 29 9.66699 29 29v360h181v-351c-3.33301 -101.333 -54 -160 -152 -176l-7 -105c52 -9.33301 78 -44.333 78 -105v-126
c0 -82.667 -46.333 -124 -139 -124c-36 0 -66.333 5.66699 -91 17l17 95c7.33301 -3.33301 20 -5 38 -5c24 0 36 8.33301 36 25v127c0 18 -21 27.667 -63 29l13 173c-99.333 16 -149 75.667 -149 179v731c0 60.667 17.5 106.5 52.5 137.5s87.167 46.5 156.5 46.5
c68 0 119.667 -15 155 -45s53.666 -74.667 54.999 -134v-343h-181z" />
    <glyph glyph-name="egrave" unicode="&#xe8;" horiz-adv-x="466" 
d="M204 485v-368c0 -19.333 9.33301 -29 28 -29c19.333 0 29 9.66699 29 29v311h173v-307c-17.333 -91.333 -84.666 -137 -201.999 -137c-69.333 0 -121.5 15.5 -156.5 46.5s-52.5 76.833 -52.5 137.5v731c0 60.667 17.5 106.5 52.5 137.5s87.167 46.5 156.5 46.5
s121.666 -15 156.999 -45s53 -74.667 53 -134l-4 -419h-234zM204 938v-360h57v360c0 19.333 -9.66699 29 -29 29c-18.667 0 -28 -9.66699 -28 -29zM89 1431l168 2l48 -298h-140z" />
    <glyph glyph-name="eacute" unicode="&#xe9;" horiz-adv-x="466" 
d="M204 485v-368c0 -19.333 9.33301 -29 28 -29c19.333 0 29 9.66699 29 29v311h173v-307c-17.333 -91.333 -84.666 -137 -201.999 -137c-69.333 0 -121.5 15.5 -156.5 46.5s-52.5 76.833 -52.5 137.5v731c0 60.667 17.5 106.5 52.5 137.5s87.167 46.5 156.5 46.5
s121.666 -15 156.999 -45s53 -74.667 53 -134l-4 -419h-234zM204 938v-360h57v360c0 19.333 -9.66699 29 -29 29c-18.667 0 -28 -9.66699 -28 -29zM205 1433l168 -2l-76 -296h-140z" />
    <glyph glyph-name="ecircumflex" unicode="&#xea;" horiz-adv-x="466" 
d="M204 485v-368c0 -19.333 9.33301 -29 28 -29c19.333 0 29 9.66699 29 29v311h173v-307c-17.333 -91.333 -84.666 -137 -201.999 -137c-69.333 0 -121.5 15.5 -156.5 46.5s-52.5 76.833 -52.5 137.5v731c0 60.667 17.5 106.5 52.5 137.5s87.167 46.5 156.5 46.5
s121.666 -15 156.999 -45s53 -74.667 53 -134l-4 -419h-234zM204 938v-360h57v360c0 19.333 -9.66699 29 -29 29c-18.667 0 -28 -9.66699 -28 -29zM83 1136l52 254h199l52 -254l-115 -1l-37 205l-36 -205z" />
    <glyph glyph-name="edieresis" unicode="&#xeb;" horiz-adv-x="466" 
d="M204 485v-368c0 -19.333 9.33301 -29 28 -29c19.333 0 29 9.66699 29 29v311h173v-307c-17.333 -91.333 -84.666 -137 -201.999 -137c-69.333 0 -121.5 15.5 -156.5 46.5s-52.5 76.833 -52.5 137.5v731c0 60.667 17.5 106.5 52.5 137.5s87.167 46.5 156.5 46.5
s121.666 -15 156.999 -45s53 -74.667 53 -134l-4 -419h-234zM204 938v-360h57v360c0 19.333 -9.66699 29 -29 29c-18.667 0 -28 -9.66699 -28 -29zM106.5 1142.5c-8.33301 5 -14.166 15.667 -17.499 32s-5 42.833 -5 79.5c0 40.667 1.66699 70 5 88
s9.16602 29.667 17.499 35s21.5 8 39.5 8c18.667 0 32.167 -2.66699 40.5 -8s14.333 -17 18 -35s5.5 -47.333 5.5 -88c0 -36 -1.83301 -62.333 -5.5 -79s-9.66699 -27.5 -18 -32.5s-21.5 -7.5 -39.5 -7.5c-18.667 0 -32.167 2.5 -40.5 7.5zM278.5 1142.5
c-8.33301 5 -14.332 15.834 -17.999 32.501s-5.5 43 -5.5 79c0 40 1.66699 69.167 5 87.5s9.16602 30.166 17.499 35.499s21.5 8 39.5 8c18.667 0 32.167 -2.66699 40.5 -8s14.333 -17 18 -35s5.5 -47.333 5.5 -88c0 -36 -1.83301 -62.333 -5.5 -79
s-9.66699 -27.5 -18 -32.5s-21.5 -7.5 -39.5 -7.5s-31.167 2.5 -39.5 7.5z" />
    <glyph glyph-name="igrave" unicode="&#xec;" horiz-adv-x="247" 
d="M26 1065h195v-1065h-195v1065zM-20 1404l168 2l48 -298h-140z" />
    <glyph glyph-name="iacute" unicode="&#xed;" horiz-adv-x="247" 
d="M26 1065h195v-1065h-195v1065zM96 1406l168 -2l-76 -296h-140z" />
    <glyph glyph-name="icircumflex" unicode="&#xee;" horiz-adv-x="247" 
d="M26 1065h195v-1065h-195v1065zM-27 1109l52 294h199l52 -294l-115 -1l-37 205l-36 -205z" />
    <glyph glyph-name="idieresis" unicode="&#xef;" horiz-adv-x="247" 
d="M26 1065h195v-1065h-195v1065zM-2.5 1115.5c-8.33301 5 -14.166 15.667 -17.499 32s-5 42.833 -5 79.5c0 40.667 1.66699 70 5 88s9.16602 29.667 17.499 35s21.5 8 39.5 8c18.667 0 32.167 -2.66699 40.5 -8s14.333 -17 18 -35s5.5 -47.333 5.5 -88
c0 -36 -1.83301 -62.333 -5.5 -79s-9.66699 -27.5 -18 -32.5s-21.5 -7.5 -39.5 -7.5c-18.667 0 -32.167 2.5 -40.5 7.5zM169.5 1115.5c-8.33301 5 -14.332 15.834 -17.999 32.501s-5.5 43 -5.5 79c0 40 1.66699 69.167 5 87.5s9.16602 30.166 17.499 35.499s21.5 8 39.5 8
c18.667 0 32.167 -2.66699 40.5 -8s14.333 -17 18 -35s5.5 -47.333 5.5 -88c0 -36 -1.83301 -62.333 -5.5 -79s-9.66699 -27.5 -18 -32.5s-21.5 -7.5 -39.5 -7.5s-31.167 2.5 -39.5 7.5z" />
    <glyph glyph-name="eth" unicode="&#xf0;" horiz-adv-x="466" 
d="M390 1215c35.333 -87.333 52.998 -183.331 52.998 -287.998v-759c0 -61.333 -17.833 -107.5 -53.5 -138.5s-88.5 -46.5 -158.5 -46.5c-68.667 0 -120.5 15.833 -155.5 47.5s-52.5 78.167 -52.5 139.5v734c0.666992 57.333 14.834 100.666 42.501 129.999
s68.5 44 122.5 44c12 -2 22.833 -7.66699 32.5 -17s16.5 -20.333 20.5 -33l5 1c-7.33301 60.667 -19.333 114.334 -36 161.001l-67 -9l-36 75l71 10c-19.333 37.333 -42.666 73.666 -69.999 108.999l176 19c26.667 -34.667 49.667 -69.334 69 -104.001l58 8l35 -75z
M259.998 912.002c0 11.333 -2.66699 20 -8 26s-13.333 9 -24 9c-16 0 -24 -11.667 -24 -35v-757c0 -22.667 9.33301 -34 28 -34s28 11.333 28 34v757z" />
    <glyph glyph-name="ntilde" unicode="&#xf1;" horiz-adv-x="469" 
d="M26 1065l162.001 -0.00195312l21 -49c9.33301 20.667 23.333 36.834 42 48.501s41.667 17.5 69 17.5c42 0 73 -14.667 93 -44s30 -73.666 30 -132.999v-905h-182v902c0 18 -2 30 -6 36s-10.667 9 -20 9c-10.667 0 -18.334 -4.16699 -23.001 -12.5s-7 -22.5 -7 -42.5v-892
h-179v1065zM75.001 1199v47.001c0 40.667 8.5 70 25.5 88s44.5 27 82.5 27c27.333 0 47.333 -4.16699 60 -12.5s20.334 -22.166 23.001 -41.499v-78c1.33301 -8 3.16602 -13.667 5.49902 -17s5.5 -5 9.5 -5c8 0 12 9 12 27v123h94c0 -38.667 0.333008 -63.667 1 -75v-50
c0 -39.333 -8.5 -68 -25.5 -86s-44.5 -27 -82.5 -27c-26.667 0 -46.5 4.16699 -59.5 12.5s-20.833 22.166 -23.5 41.499v77c-2.66699 15.333 -7.66699 23 -15 23c-8 0 -12 -9.33301 -12 -28v-122h-94c0 39.333 -0.333008 64.666 -1 75.999z" />
    <glyph glyph-name="ograve" unicode="&#xf2;" 
d="M77 29.5c-35.333 30.333 -53 75.166 -53 134.499v739c0 59.333 17.667 104.166 53 134.499s87.666 45.5 156.999 45.5s121.5 -15.167 156.5 -45.5s52.5 -75.166 52.5 -134.499v-739c0 -59.333 -17.5 -104.166 -52.5 -134.499s-87.167 -45.5 -156.5 -45.5
s-121.666 15.167 -156.999 45.5zM262 155v757c0 22 -9.33301 33 -28 33c-19.333 0 -29 -11 -29 -33v-757c0 -22.667 9.66699 -34 29 -34c18.667 0 28 11.333 28 34zM89 1422l168 2l48 -298h-140z" />
    <glyph glyph-name="oacute" unicode="&#xf3;" 
d="M77 29.5c-35.333 30.333 -53 75.166 -53 134.499v739c0 59.333 17.667 104.166 53 134.499s87.666 45.5 156.999 45.5s121.5 -15.167 156.5 -45.5s52.5 -75.166 52.5 -134.499v-739c0 -59.333 -17.5 -104.166 -52.5 -134.499s-87.167 -45.5 -156.5 -45.5
s-121.666 15.167 -156.999 45.5zM262 155v757c0 22 -9.33301 33 -28 33c-19.333 0 -29 -11 -29 -33v-757c0 -22.667 9.66699 -34 29 -34c18.667 0 28 11.333 28 34zM205 1424l168 -2l-76 -296h-140z" />
    <glyph glyph-name="ocircumflex" unicode="&#xf4;" 
d="M77 29.5c-35.333 30.333 -53 75.166 -53 134.499v739c0 59.333 17.667 104.166 53 134.499s87.666 45.5 156.999 45.5s121.5 -15.167 156.5 -45.5s52.5 -75.166 52.5 -134.499v-739c0 -59.333 -17.5 -104.166 -52.5 -134.499s-87.167 -45.5 -156.5 -45.5
s-121.666 15.167 -156.999 45.5zM262 155v757c0 22 -9.33301 33 -28 33c-19.333 0 -29 -11 -29 -33v-757c0 -22.667 9.66699 -34 29 -34c18.667 0 28 11.333 28 34zM83 1127l52 254h199l52 -254l-115 -1l-37 205l-36 -205z" />
    <glyph glyph-name="otilde" unicode="&#xf5;" 
d="M77 29.5c-35.333 30.333 -53 75.166 -53 134.499v739c0 59.333 17.667 104.166 53 134.499s87.666 45.5 156.999 45.5s121.5 -15.167 156.5 -45.5s52.5 -75.166 52.5 -134.499v-739c0 -59.333 -17.5 -104.166 -52.5 -134.499s-87.167 -45.5 -156.5 -45.5
s-121.666 15.167 -156.999 45.5zM262 155v757c0 22 -9.33301 33 -28 33c-19.333 0 -29 -11 -29 -33v-757c0 -22.667 9.66699 -34 29 -34c18.667 0 28 11.333 28 34zM77 1204v47.001c0 40.667 8.5 70 25.5 88s44.5 27 82.5 27c27.333 0 47.333 -4.16699 60 -12.5
s20.334 -22.166 23.001 -41.499v-78c1.33301 -8 3.16602 -13.667 5.49902 -17s5.5 -5 9.5 -5c8 0 12 9 12 27v123h94c0 -38.667 0.333008 -63.667 1 -75v-50c0 -39.333 -8.5 -68 -25.5 -86s-44.5 -27 -82.5 -27c-26.667 0 -46.5 4.16699 -59.5 12.5
s-20.833 22.166 -23.5 41.499v77c-2.66699 15.333 -7.66699 23 -15 23c-8 0 -12 -9.33301 -12 -28v-122h-94c0 39.333 -0.333008 64.666 -1 75.999z" />
    <glyph glyph-name="odieresis" unicode="&#xf6;" 
d="M77 29.5c-35.333 30.333 -53 75.166 -53 134.499v739c0 59.333 17.667 104.166 53 134.499s87.666 45.5 156.999 45.5s121.5 -15.167 156.5 -45.5s52.5 -75.166 52.5 -134.499v-739c0 -59.333 -17.5 -104.166 -52.5 -134.499s-87.167 -45.5 -156.5 -45.5
s-121.666 15.167 -156.999 45.5zM262 155v757c0 22 -9.33301 33 -28 33c-19.333 0 -29 -11 -29 -33v-757c0 -22.667 9.66699 -34 29 -34c18.667 0 28 11.333 28 34zM106.5 1133.5c-8.33301 5 -14.166 15.667 -17.499 32s-5 42.833 -5 79.5c0 40.667 1.66699 70 5 88
s9.16602 29.667 17.499 35s21.5 8 39.5 8c18.667 0 32.167 -2.66699 40.5 -8s14.333 -17 18 -35s5.5 -47.333 5.5 -88c0 -36 -1.83301 -62.333 -5.5 -79s-9.66699 -27.5 -18 -32.5s-21.5 -7.5 -39.5 -7.5c-18.667 0 -32.167 2.5 -40.5 7.5zM278.5 1133.5
c-8.33301 5 -14.332 15.834 -17.999 32.501s-5.5 43 -5.5 79c0 40 1.66699 69.167 5 87.5s9.16602 30.166 17.499 35.499s21.5 8 39.5 8c18.667 0 32.167 -2.66699 40.5 -8s14.333 -17 18 -35s5.5 -47.333 5.5 -88c0 -36 -1.83301 -62.333 -5.5 -79
s-9.66699 -27.5 -18 -32.5s-21.5 -7.5 -39.5 -7.5s-31.167 2.5 -39.5 7.5z" />
    <glyph glyph-name="divide" unicode="&#xf7;" horiz-adv-x="355" 
d="M26 635h304v-138h-304v138zM128 226.5c-10.667 5.66699 -18.334 16.5 -23.001 32.5s-7 41 -7 75c0 38 2.33301 66 7 84s12.334 30 23.001 36s27 9 49 9s38.333 -3 49 -9s18.334 -17.833 23.001 -35.5s7 -45.834 7 -84.501c0 -34 -2.33301 -59.167 -7 -75.5
s-12.334 -27.166 -23.001 -32.499s-27 -8 -49 -8s-38.333 2.83301 -49 8.5zM128 680.5c-10.667 5.66699 -18.334 16.5 -23.001 32.5s-7 41 -7 75c0 38 2.33301 66 7 84s12.334 30 23.001 36s27 9 49 9s38.333 -3 49 -9s18.334 -17.833 23.001 -35.5s7 -45.834 7 -84.501
c0 -34 -2.33301 -59.167 -7 -75.5s-12.334 -27.166 -23.001 -32.499s-27 -8 -49 -8s-38.333 2.83301 -49 8.5z" />
    <glyph glyph-name="oslash" unicode="&#xf8;" horiz-adv-x="465" 
d="M409 1018c22.667 -28.667 34.001 -67 34.001 -115v-739c0 -59.333 -17.5 -104.166 -52.5 -134.499s-87.167 -45.5 -156.5 -45.5c-16.667 0 -32.667 1 -48 3l-21 -73l-143 60l34 77c-21.333 29.333 -32 67 -32 113v739c0 59.333 17.667 104.166 53 134.499
s87.666 45.5 156.999 45.5c20 0 40.667 -1.66699 62 -5l23 69l125 -57zM262.001 912c0 22 -9.33301 33 -28 33c-19.333 0 -29 -11 -29 -33v-757c0 -22.667 9.66699 -34 29 -34c18.667 0 28 11.333 28 34v757z" />
    <glyph glyph-name="ugrave" unicode="&#xf9;" horiz-adv-x="463" 
d="M77 27c-34.667 28.667 -51.999 71.332 -51.999 127.999v910h178v-910c0 -22.667 9.66699 -34 29 -34c18.667 0 28 11.333 28 34v910h178v-913c0 -55.333 -17.333 -97.166 -52 -125.499s-86 -42.5 -154 -42.5c-68.667 0 -120.334 14.333 -155.001 43zM85.001 1404l168 2
l48 -298h-140z" />
    <glyph glyph-name="uacute" unicode="&#xfa;" horiz-adv-x="463" 
d="M77 27c-34.667 28.667 -51.999 71.332 -51.999 127.999v910h178v-910c0 -22.667 9.66699 -34 29 -34c18.667 0 28 11.333 28 34v910h178v-913c0 -55.333 -17.333 -97.166 -52 -125.499s-86 -42.5 -154 -42.5c-68.667 0 -120.334 14.333 -155.001 43zM201.001 1406l168 -2
l-76 -296h-140z" />
    <glyph glyph-name="ucircumflex" unicode="&#xfb;" horiz-adv-x="463" 
d="M77 27c-34.667 28.667 -51.999 71.332 -51.999 127.999v910h178v-910c0 -22.667 9.66699 -34 29 -34c18.667 0 28 11.333 28 34v910h178v-913c0 -55.333 -17.333 -97.166 -52 -125.499s-86 -42.5 -154 -42.5c-68.667 0 -120.334 14.333 -155.001 43zM78.001 1109l52 294
h199l52 -294l-115 -1l-37 205l-36 -205z" />
    <glyph glyph-name="udieresis" unicode="&#xfc;" horiz-adv-x="463" 
d="M77 27c-34.667 28.667 -51.999 71.332 -51.999 127.999v910h178v-910c0 -22.667 9.66699 -34 29 -34c18.667 0 28 11.333 28 34v910h178v-913c0 -55.333 -17.333 -97.166 -52 -125.499s-86 -42.5 -154 -42.5c-68.667 0 -120.334 14.333 -155.001 43zM102.501 1115.5
c-8.33301 5 -14.166 15.667 -17.499 32s-5 42.833 -5 79.5c0 40.667 1.66699 70 5 88s9.16602 29.667 17.499 35s21.5 8 39.5 8c18.667 0 32.167 -2.66699 40.5 -8s14.333 -17 18 -35s5.5 -47.333 5.5 -88c0 -36 -1.83301 -62.333 -5.5 -79s-9.66699 -27.5 -18 -32.5
s-21.5 -7.5 -39.5 -7.5c-18.667 0 -32.167 2.5 -40.5 7.5zM274.501 1115.5c-8.33301 5 -14.332 15.834 -17.999 32.501s-5.5 43 -5.5 79c0 40 1.66699 69.167 5 87.5s9.16602 30.166 17.499 35.499s21.5 8 39.5 8c18.667 0 32.167 -2.66699 40.5 -8s14.333 -17 18 -35
s5.5 -47.333 5.5 -88c0 -36 -1.83301 -62.333 -5.5 -79s-9.66699 -27.5 -18 -32.5s-21.5 -7.5 -39.5 -7.5s-31.167 2.5 -39.5 7.5z" />
    <glyph glyph-name="yacute" unicode="&#xfd;" horiz-adv-x="460" 
d="M78 -177h63.999c13.333 0 21.833 6.5 25.5 19.5s5.5 28.167 5.5 45.5l6 141h-79l-86 1036h185l22 -683l3 -171h12l3 171l22 683h185l-79 -1197c-11.333 -66.667 -30.666 -112.667 -57.999 -138s-64 -38 -110 -38h-121v131zM199.999 1363l168 -3l-76 -252h-140z" />
    <glyph glyph-name="thorn" unicode="&#xfe;" horiz-adv-x="469" 
d="M27 1371l195 0.000976562v-310l-19 -49l3 -4c7.33301 19.333 21.5 36.166 42.5 50.499s47.5 21.5 79.5 21.5c40.667 0 70.167 -15 88.5 -45s27.5 -78 27.5 -144v-717c0 -62 -9.16699 -109 -27.5 -141s-51.5 -48 -99.5 -48c-22 0 -41 2.16699 -57 6.5
s-31.333 9.83301 -46 16.5v-303h-188zM257.5 128.501c2.33301 7 3.50098 21.832 3.50098 44.499v719c0 22.667 -1.33301 37.334 -4 44.001s-8.33398 10 -17.001 10c-11.333 0 -20 -4.83301 -26 -14.5s-9 -23.5 -9 -41.5v-734c4.66699 -14.667 9.66699 -24.667 15 -30
s12.333 -8 21 -8s14.167 3.5 16.5 10.5z" />
    <glyph glyph-name="ydieresis" unicode="&#xff;" horiz-adv-x="460" 
d="M78 -177h63.999c13.333 0 21.833 6.5 25.5 19.5s5.5 28.167 5.5 45.5l6 141h-79l-86 1036h185l22 -683l3 -171h12l3 171l22 683h185l-79 -1197c-11.333 -66.667 -30.666 -112.667 -57.999 -138s-64 -38 -110 -38h-121v131zM101.499 1115.5
c-8.33301 5 -14.166 15.667 -17.499 32s-5 42.833 -5 79.5c0 40.667 1.66699 70 5 88s9.16602 29.667 17.499 35s21.5 8 39.5 8c18.667 0 32.167 -2.66699 40.5 -8s14.333 -17 18 -35s5.5 -47.333 5.5 -88c0 -36 -1.83301 -62.333 -5.5 -79s-9.66699 -27.5 -18 -32.5
s-21.5 -7.5 -39.5 -7.5c-18.667 0 -32.167 2.5 -40.5 7.5zM273.499 1115.5c-8.33301 5 -14.332 15.834 -17.999 32.501s-5.5 43 -5.5 79c0 40 1.66699 69.167 5 87.5s9.16602 30.166 17.499 35.499s21.5 8 39.5 8c18.667 0 32.167 -2.66699 40.5 -8s14.333 -17 18 -35
s5.5 -47.333 5.5 -88c0 -36 -1.83301 -62.333 -5.5 -79s-9.66699 -27.5 -18 -32.5s-21.5 -7.5 -39.5 -7.5s-31.167 2.5 -39.5 7.5z" />
    <glyph glyph-name="Amacron" unicode="&#x100;" horiz-adv-x="481" 
d="M269 212h-56l-6 -212h-200l121 1360h225l121 -1360h-199zM265 330l-21 692h-8l-20 -692h49zM99 1505h279v-102h-279v102z" />
    <glyph glyph-name="amacron" unicode="&#x101;" horiz-adv-x="462" 
d="M57 20c-22.667 24 -34 57 -34 99v384c0 35.333 7.16699 62.5 21.5 81.5s35.5 32 63.5 39s65.667 10.5 113 10.5l39 -1v293c0 24.667 -9.66699 37 -29 37c-18.667 0 -28 -11 -28 -33v-260h-166v259c0.666992 53.333 17.5 92.333 50.5 117s86.833 37 161.5 37
c56.667 0 102 -12.167 136 -36.5s51 -61.5 51 -111.5v-935h-165l-20 56c-18.667 -48 -54 -72 -106 -72c-36 0 -65.333 12 -88 36zM260 149v408h-23c-22.667 -0.666992 -34 -13.334 -34 -38.001v-383c0 -9.33301 2.16699 -16.333 6.5 -21s10.5 -7 18.5 -7
c20 -1.33301 30.667 12.334 32 41.001zM95 1228h279v-102h-279v102z" />
    <glyph glyph-name="Abreve" unicode="&#x102;" horiz-adv-x="481" 
d="M269 212h-56l-6 -212h-200l121 1360h225l121 -1360h-199zM265 330l-21 692h-8l-20 -692h49zM124.5 1432c-23 20 -34.5 53 -34.5 99v154h125v-154c0 -32 8 -48 24 -48s24 16 24 48v154h124v-154c0 -46 -11.5 -79 -34.5 -99s-60.833 -30 -113.5 -30
c-53.333 0 -91.5 10 -114.5 30z" />
    <glyph glyph-name="abreve" unicode="&#x103;" horiz-adv-x="462" 
d="M57 20c-22.667 24 -34 57 -34 99v384c0 35.333 7.16699 62.5 21.5 81.5s35.5 32 63.5 39s65.667 10.5 113 10.5l39 -1v293c0 24.667 -9.66699 37 -29 37c-18.667 0 -28 -11 -28 -33v-260h-166v259c0.666992 53.333 17.5 92.333 50.5 117s86.833 37 161.5 37
c56.667 0 102 -12.167 136 -36.5s51 -61.5 51 -111.5v-935h-165l-20 56c-18.667 -48 -54 -72 -106 -72c-36 0 -65.333 12 -88 36zM260 149v408h-23c-22.667 -0.666992 -34 -13.334 -34 -38.001v-383c0 -9.33301 2.16699 -16.333 6.5 -21s10.5 -7 18.5 -7
c20 -1.33301 30.667 12.334 32 41.001zM120.5 1155c-23 20 -34.5 53 -34.5 99v154h125v-154c0 -32 8 -48 24 -48s24 16 24 48v154h124v-154c0 -46 -11.5 -79 -34.5 -99s-60.833 -30 -113.5 -30c-53.333 0 -91.5 10 -114.5 30z" />
    <glyph glyph-name="Aogonek" unicode="&#x104;" horiz-adv-x="481" 
d="M483 -287c-31.333 -46.667 -81.666 -69.999 -150.999 -69.999c-44.667 0 -78.5 9 -101.5 27s-34.5 44.667 -34.5 80c0 93.333 39.333 176.666 118 249.999h-39l-6 212h-56l-6 -212h-200l121 1360h225l121 -1360h-2c-66 -69.333 -99 -143 -99 -221c0 -17.333 7 -26 21 -26
c11.333 0 23.666 9.33301 36.999 28zM265 330.001l-21 692h-8l-20 -692h49z" />
    <glyph glyph-name="aogonek" unicode="&#x105;" horiz-adv-x="462" 
d="M446 -287c-31.333 -46.667 -81.334 -69.999 -150.001 -69.999c-45.333 0 -79.5 9 -102.5 27s-34.5 44.667 -34.5 80c0 92.667 39.667 176 119 250h-7l-20 56c-18.667 -48 -54 -72 -106 -72c-36 0 -65.333 12 -88 36s-34 57 -34 99v384c0 35.333 7.16699 62.5 21.5 81.5
s35.5 32 63.5 39s65.667 10.5 113 10.5l39 -1v293c0 24.667 -9.66699 37 -29 37c-18.667 0 -28 -11 -28 -33v-260h-166v259c0.666992 53.333 17.5 92.333 50.5 117s86.833 37 161.5 37c56.667 0 102 -12.167 136 -36.5s51 -61.5 51 -111.5v-935
c-66.667 -68.667 -100 -142.334 -100 -221.001c0 -17.333 7 -26 21 -26c10.667 0 23.334 9.33301 38.001 28zM259.999 557.001h-23c-22.667 -0.666992 -34 -13.334 -34 -38.001v-383c0 -9.33301 2.16699 -16.333 6.5 -21s10.5 -7 18.5 -7
c20 -1.33301 30.667 12.334 32 41.001v408z" />
    <glyph glyph-name="Cacute" unicode="&#x106;" horiz-adv-x="510" 
d="M80.5 38.5c-39 36.333 -58.5 90.499 -58.5 162.499v958c0 71.333 19.667 125.333 59 162s97.333 55 174 55c74.667 0 131.667 -17.833 171 -53.5s60 -88.167 62 -157.5v-454h-205v470c0 19.333 -9.33301 29 -28 29c-19.333 0 -29 -9.66699 -29 -29v-1002
c0 -19.333 9.66699 -29 29 -29c18.667 0 28 9.66699 28 29v470h205v-455c-2 -69.333 -22.5 -121.666 -61.5 -156.999s-96.167 -53 -171.5 -53c-77.333 0 -135.5 18.167 -174.5 54.5zM227 1717l168 -2l-76 -296h-140z" />
    <glyph glyph-name="cacute" unicode="&#x107;" horiz-adv-x="465" 
d="M75.5 30.5c-35 31 -52.5 76.832 -52.5 137.499v731c0 60.667 17.5 106.5 52.5 137.5s87.167 46.5 156.5 46.5c68 0 119.667 -15 155 -45s53.666 -74.667 54.999 -134v-343h-181v351c0 19.333 -9.66699 29 -29 29c-18.667 0 -28 -9.66699 -28 -29v-757
c0 -19.333 9.33301 -29 28 -29c19.333 0 29 9.66699 29 29v360h181v-351c-1.33301 -59.333 -19.666 -104.166 -54.999 -134.499s-87 -45.5 -155 -45.5c-69.333 0 -121.5 15.5 -156.5 46.5zM204 1424l168 -2l-76 -296h-140z" />
    <glyph glyph-name="Ccircumflex" unicode="&#x108;" horiz-adv-x="510" 
d="M80.5 38.5c-39 36.333 -58.5 90.499 -58.5 162.499v958c0 71.333 19.667 125.333 59 162s97.333 55 174 55c74.667 0 131.667 -17.833 171 -53.5s60 -88.167 62 -157.5v-454h-205v470c0 19.333 -9.33301 29 -28 29c-19.333 0 -29 -9.66699 -29 -29v-1002
c0 -19.333 9.66699 -29 29 -29c18.667 0 28 9.66699 28 29v470h205v-455c-2 -69.333 -22.5 -121.666 -61.5 -156.999s-96.167 -53 -171.5 -53c-77.333 0 -135.5 18.167 -174.5 54.5zM104 1420l52 294h199l52 -294l-115 -1l-37 205l-36 -205z" />
    <glyph glyph-name="ccircumflex" unicode="&#x109;" horiz-adv-x="465" 
d="M75.5 30.5c-35 31 -52.5 76.832 -52.5 137.499v731c0 60.667 17.5 106.5 52.5 137.5s87.167 46.5 156.5 46.5c68 0 119.667 -15 155 -45s53.666 -74.667 54.999 -134v-343h-181v351c0 19.333 -9.66699 29 -29 29c-18.667 0 -28 -9.66699 -28 -29v-757
c0 -19.333 9.33301 -29 28 -29c19.333 0 29 9.66699 29 29v360h181v-351c-1.33301 -59.333 -19.666 -104.166 -54.999 -134.499s-87 -45.5 -155 -45.5c-69.333 0 -121.5 15.5 -156.5 46.5zM81 1127l52 294h199l52 -294l-115 -1l-37 205l-36 -205z" />
    <glyph glyph-name="Cdotaccent" unicode="&#x10a;" horiz-adv-x="510" 
d="M80.5 38.5c-39 36.333 -58.5 90.499 -58.5 162.499v958c0 71.333 19.667 125.333 59 162s97.333 55 174 55c74.667 0 131.667 -17.833 171 -53.5s60 -88.167 62 -157.5v-454h-205v470c0 19.333 -9.33301 29 -28 29c-19.333 0 -29 -9.66699 -29 -29v-1002
c0 -19.333 9.66699 -29 29 -29c18.667 0 28 9.66699 28 29v470h205v-455c-2 -69.333 -22.5 -121.666 -61.5 -156.999s-96.167 -53 -171.5 -53c-77.333 0 -135.5 18.167 -174.5 54.5zM206 1426.5c-10.667 5.66699 -18.334 16.5 -23.001 32.5s-7 41 -7 75
c0 38 2.33301 66 7 84s12.334 30 23.001 36s27 9 49 9s38.333 -3 49 -9s18.334 -17.833 23.001 -35.5s7 -45.834 7 -84.501c0 -34 -2.33301 -59.167 -7 -75.5s-12.334 -27.166 -23.001 -32.499s-27 -8 -49 -8s-38.333 2.83301 -49 8.5z" />
    <glyph glyph-name="cdotaccent" unicode="&#x10b;" horiz-adv-x="465" 
d="M75.5 30.5c-35 31 -52.5 76.832 -52.5 137.499v731c0 60.667 17.5 106.5 52.5 137.5s87.167 46.5 156.5 46.5c68 0 119.667 -15 155 -45s53.666 -74.667 54.999 -134v-343h-181v351c0 19.333 -9.66699 29 -29 29c-18.667 0 -28 -9.66699 -28 -29v-757
c0 -19.333 9.33301 -29 28 -29c19.333 0 29 9.66699 29 29v360h181v-351c-1.33301 -59.333 -19.666 -104.166 -54.999 -134.499s-87 -45.5 -155 -45.5c-69.333 0 -121.5 15.5 -156.5 46.5zM183 1133.5c-10.667 5.66699 -18.334 16.5 -23.001 32.5s-7 41 -7 75
c0 38 2.33301 66 7 84s12.334 30 23.001 36s27 9 49 9s38.333 -3 49 -9s18.334 -17.833 23.001 -35.5s7 -45.834 7 -84.501c0 -34 -2.33301 -59.167 -7 -75.5s-12.334 -27.166 -23.001 -32.499s-27 -8 -49 -8s-38.333 2.83301 -49 8.5z" />
    <glyph glyph-name="Ccaron" unicode="&#x10c;" horiz-adv-x="510" 
d="M80.5 38.5c-39 36.333 -58.5 90.499 -58.5 162.499v958c0 71.333 19.667 125.333 59 162s97.333 55 174 55c74.667 0 131.667 -17.833 171 -53.5s60 -88.167 62 -157.5v-454h-205v470c0 19.333 -9.33301 29 -28 29c-19.333 0 -29 -9.66699 -29 -29v-1002
c0 -19.333 9.66699 -29 29 -29c18.667 0 28 9.66699 28 29v470h205v-455c-2 -69.333 -22.5 -121.666 -61.5 -156.999s-96.167 -53 -171.5 -53c-77.333 0 -135.5 18.167 -174.5 54.5zM95 1713l122 1l37 -204l37 204l123 -1l-68 -294h-183z" />
    <glyph glyph-name="ccaron" unicode="&#x10d;" horiz-adv-x="465" 
d="M75.5 30.5c-35 31 -52.5 76.832 -52.5 137.499v731c0 60.667 17.5 106.5 52.5 137.5s87.167 46.5 156.5 46.5c68 0 119.667 -15 155 -45s53.666 -74.667 54.999 -134v-343h-181v351c0 19.333 -9.66699 29 -29 29c-18.667 0 -28 -9.66699 -28 -29v-757
c0 -19.333 9.33301 -29 28 -29c19.333 0 29 9.66699 29 29v360h181v-351c-1.33301 -59.333 -19.666 -104.166 -54.999 -134.499s-87 -45.5 -155 -45.5c-69.333 0 -121.5 15.5 -156.5 46.5zM73 1420l122 1l37 -204l37 204l123 -1l-68 -294h-183z" />
    <glyph glyph-name="Dcaron" unicode="&#x10e;" horiz-adv-x="500" 
d="M26 1360h222c76 0 133.333 -17.5 172 -52.5s58 -86.833 58 -155.5v-943c0 -68.667 -19.333 -120.667 -58 -156s-95.667 -53 -171 -53h-223v1360zM246 161c11.333 0 19.166 3.5 23.499 10.5s6.5 19.167 6.5 36.5v943c0 18 -2.16699 30.5 -6.5 37.5
s-12.166 10.5 -23.499 10.5h-26v-1038h26zM89 1697l122 1l37 -204l37 204l123 -1l-68 -294h-183z" />
    <glyph glyph-name="dcaron" unicode="&#x10f;" horiz-adv-x="660" 
d="M52.5 28.5c-20.333 31 -30.5 77.167 -30.5 138.5v732c0 61.333 10.667 107.5 32 138.5s53 46.5 95 46.5c46.667 0 80 -11.667 100 -35l-4 25v286h195v-1360h-168l-20 54c-16 -48 -52.333 -72 -109 -72c-40 0 -70.167 15.5 -90.5 46.5zM259 160v776
c-10.667 7.33301 -21 11 -31 11c-16.667 0 -25 -15.667 -25 -47v-728c0 -16 2.16699 -28.667 6.5 -38s10.5 -14 18.5 -14c20.667 0 31 13.333 31 40zM506 1191h-24.001l-1 231h171v-205c0 -38.667 -4.16699 -74.667 -12.5 -108s-18.166 -62 -29.499 -86h-142
c25.333 62.667 38 118.667 38 168z" />
    <glyph glyph-name="Dcroat" unicode="&#x110;" horiz-adv-x="509" 
d="M424 1307.5c42 -35 63 -86.833 63 -155.5v-944c0 -66 -19.667 -117.167 -59 -153.5s-96 -54.5 -170 -54.5h-222v609h-28v119h28v632h222c68.667 0 124 -17.5 166 -52.5zM288 1152c0 28 -2.16699 46.5 -6.5 55.5s-12.5 13.5 -24.5 13.5h-26v-493h17v-119h-17v-470h26
c12 0 20.167 4.5 24.5 13.5s6.5 27.5 6.5 55.5v944z" />
    <glyph glyph-name="dcroat" unicode="&#x111;" horiz-adv-x="488" 
d="M476 1152h-36v-1152h-168l-20 54c-16 -48 -52.333 -72 -109 -72c-40 0 -70.167 15.5 -90.5 46.5s-30.5 77.167 -30.5 138.5v732c0 61.333 10.667 107.5 32 138.5s53 46.5 95 46.5c46.667 0 80 -11.667 100 -35l-4 25v78h-76v120h76v88h195v-88h36v-120zM259 936
c-10.667 7.33301 -21 11 -31 11c-16.667 0 -25 -15.667 -25 -47v-728c0 -16 2.16699 -28.667 6.5 -38s10.5 -14 18.5 -14c20.667 0 31 13.333 31 40v776z" />
    <glyph glyph-name="Emacron" unicode="&#x112;" horiz-adv-x="375" 
d="M26 1360h340v-141h-138v-489h109v-110h-109v-483h140v-137h-342v1360zM58 1505h279v-102h-279v102z" />
    <glyph glyph-name="emacron" unicode="&#x113;" horiz-adv-x="466" 
d="M204 485v-368c0 -19.333 9.33301 -29 28 -29c19.333 0 29 9.66699 29 29v311h173v-307c-17.333 -91.333 -84.666 -137 -201.999 -137c-69.333 0 -121.5 15.5 -156.5 46.5s-52.5 76.833 -52.5 137.5v731c0 60.667 17.5 106.5 52.5 137.5s87.167 46.5 156.5 46.5
s121.666 -15 156.999 -45s53 -74.667 53 -134l-4 -419h-234zM204 938v-360h57v360c0 19.333 -9.66699 29 -29 29c-18.667 0 -28 -9.66699 -28 -29zM94 1237h279v-102h-279v102z" />
    <glyph glyph-name="Ebreve" unicode="&#x114;" horiz-adv-x="375" 
d="M26 1360h340v-141h-138v-489h109v-110h-109v-483h140v-137h-342v1360zM83.5 1432c-23 20 -34.5 53 -34.5 99v154h125v-154c0 -32 8 -48 24 -48s24 16 24 48v154h124v-154c0 -46 -11.5 -79 -34.5 -99s-60.833 -30 -113.5 -30c-53.333 0 -91.5 10 -114.5 30z" />
    <glyph glyph-name="ebreve" unicode="&#x115;" horiz-adv-x="466" 
d="M204 485v-368c0 -19.333 9.33301 -29 28 -29c19.333 0 29 9.66699 29 29v311h173v-307c-17.333 -91.333 -84.666 -137 -201.999 -137c-69.333 0 -121.5 15.5 -156.5 46.5s-52.5 76.833 -52.5 137.5v731c0 60.667 17.5 106.5 52.5 137.5s87.167 46.5 156.5 46.5
s121.666 -15 156.999 -45s53 -74.667 53 -134l-4 -419h-234zM204 938v-360h57v360c0 19.333 -9.66699 29 -29 29c-18.667 0 -28 -9.66699 -28 -29zM119 1160.5c-22 17.667 -33.335 48.167 -34.002 91.5v133h125v-130c0 -16.667 1.83301 -28.334 5.5 -35.001
s9.83398 -10 18.501 -10s14.834 3.33301 18.501 10s5.5 18.334 5.5 35.001v130h125v-133c-0.666992 -43.333 -12.167 -73.833 -34.5 -91.5s-60.5 -26.5 -114.5 -26.5c-54.667 0 -93 8.83301 -115 26.5z" />
    <glyph glyph-name="Edotaccent" unicode="&#x116;" horiz-adv-x="375" 
d="M26 1360h340v-141h-138v-489h109v-110h-109v-483h140v-137h-342v1360zM148 1410.5c-10.667 5.66699 -18.334 16.5 -23.001 32.5s-7 41 -7 75c0 38 2.33301 66 7 84s12.334 30 23.001 36s27 9 49 9s38.333 -3 49 -9s18.334 -17.833 23.001 -35.5s7 -45.834 7 -84.501
c0 -34 -2.33301 -59.167 -7 -75.5s-12.334 -27.166 -23.001 -32.499s-27 -8 -49 -8s-38.333 2.83301 -49 8.5z" />
    <glyph glyph-name="edotaccent" unicode="&#x117;" horiz-adv-x="466" 
d="M204 485v-368c0 -19.333 9.33301 -29 28 -29c19.333 0 29 9.66699 29 29v311h173v-307c-17.333 -91.333 -84.666 -137 -201.999 -137c-69.333 0 -121.5 15.5 -156.5 46.5s-52.5 76.833 -52.5 137.5v731c0 60.667 17.5 106.5 52.5 137.5s87.167 46.5 156.5 46.5
s121.666 -15 156.999 -45s53 -74.667 53 -134l-4 -419h-234zM204 938v-360h57v360c0 19.333 -9.66699 29 -29 29c-18.667 0 -28 -9.66699 -28 -29zM185 1142.5c-10.667 5.66699 -18.334 16.5 -23.001 32.5s-7 41 -7 75c0 38 2.33301 66 7 84s12.334 30 23.001 36s27 9 49 9
s38.333 -3 49 -9s18.334 -17.833 23.001 -35.5s7 -45.834 7 -84.501c0 -34 -2.33301 -59.167 -7 -75.5s-12.334 -27.166 -23.001 -32.499s-27 -8 -49 -8s-38.333 2.83301 -49 8.5z" />
    <glyph glyph-name="Eogonek" unicode="&#x118;" horiz-adv-x="375" 
d="M378 -287c-31.333 -46.667 -81.668 -69.999 -151.001 -69.999c-44.667 0 -78.5 9 -101.5 27s-34.5 44.667 -34.5 80c0 92.667 39.667 176 119 250h-184v1360h340v-141h-138v-489h109v-110h-109v-483h140v-137c-66.667 -68.667 -100 -142.334 -100 -221.001
c0 -17.333 7 -26 21 -26c10.667 0 23.334 9.33301 38.001 28z" />
    <glyph glyph-name="eogonek" unicode="&#x119;" horiz-adv-x="466" 
d="M204 485l0.00195312 -368c0 -19.333 9.33301 -29 28 -29c19.333 0 29 9.66699 29 29v311h173v-307c-10.667 -57.333 -41.667 -97 -93 -119c-30.667 -32.667 -54 -67.167 -70 -103.5s-23.667 -73.166 -23 -110.499c0 -16.667 7 -25 21 -25
c11.333 0 23.666 9.33301 36.999 28l52 -68c-30.667 -46.667 -81 -70 -151 -70c-45.333 0 -79.5 9 -102.5 27s-34.5 44.667 -34.5 80c0 83.333 33 159.666 99 228.999c-97.333 17.333 -146 77 -146 179v731c0 60.667 17.5 106.5 52.5 137.5s87.167 46.5 156.5 46.5
s121.666 -15 156.999 -45s53 -74.667 53 -134l-4 -419h-234zM204.002 938v-360h57v360c0 19.333 -9.66699 29 -29 29c-18.667 0 -28 -9.66699 -28 -29z" />
    <glyph glyph-name="Ecaron" unicode="&#x11a;" horiz-adv-x="375" 
d="M26 1360h340v-141h-138v-489h109v-110h-109v-483h140v-137h-342v1360zM38 1697l122 1l37 -204l37 204l123 -1l-68 -294h-183z" />
    <glyph glyph-name="ecaron" unicode="&#x11b;" horiz-adv-x="466" 
d="M204 485v-368c0 -19.333 9.33301 -29 28 -29c19.333 0 29 9.66699 29 29v311h173v-307c-17.333 -91.333 -84.666 -137 -201.999 -137c-69.333 0 -121.5 15.5 -156.5 46.5s-52.5 76.833 -52.5 137.5v731c0 60.667 17.5 106.5 52.5 137.5s87.167 46.5 156.5 46.5
s121.666 -15 156.999 -45s53 -74.667 53 -134l-4 -419h-234zM204 938v-360h57v360c0 19.333 -9.66699 29 -29 29c-18.667 0 -28 -9.66699 -28 -29zM74 1429l122 1l37 -204l37 204l123 -1l-68 -294h-183z" />
    <glyph glyph-name="Gcircumflex" unicode="&#x11c;" horiz-adv-x="510" 
d="M81 38c-39.333 36 -59.001 89.6689 -59.001 161.002v962c0 71.333 19.667 125 59 161s97.333 54 174 54c75.333 0 132.333 -15.833 171 -47.5s58 -78.834 58 -141.501v-427h-201v439c0 19.333 -9.33301 29 -28 29c-19.333 0 -29 -9.66699 -29 -29v-1057
c0 -20.667 9.66699 -30.334 29 -29.001c12.667 0 22.334 2.66699 29.001 8v486h-25v107h226v-677c-56 -35.333 -132.667 -53 -230 -53c-76.667 0 -134.667 18 -174 54zM103.999 1420l52 294h199l52 -294l-115 -1l-37 205l-36 -205z" />
    <glyph glyph-name="gcircumflex" unicode="&#x11d;" 
d="M84 -322.5c-30.667 19.667 -45.999 50.501 -45.999 92.501v318c0 15.333 4 27.333 12 36s20.667 14.667 38 18c-16.667 6 -28.834 15.5 -36.501 28.5s-11.5 30.167 -11.5 51.5v45c0 18.667 2.66699 34.667 8 48s14.333 25.666 27 36.999c-18.667 19.333 -28 50 -28 92
v492c0.666992 51.333 15.667 88.666 45 111.999s75.666 35 138.999 35c49.333 0 88.666 -7.33301 117.999 -22c12 16 30.333 24 55 24h65v-112h-40c-1.33301 8 -3.66602 14 -6.99902 18s-8.66602 6.33301 -15.999 7c6 -12 9 -32.667 9 -62v-492
c0 -50 -14.667 -86.667 -44 -110s-76 -35 -140 -35c-13.333 0 -29.333 1 -48 3l-7 -5v-45c0 -14 11.667 -21.333 35 -22c28 -1.33301 51.667 -0.666016 71 2.00098c16 1.33301 27.667 2 35 2c42.667 0 74.167 -10.833 94.5 -32.5s30.833 -55.167 31.5 -100.5v-301
c0 -52.667 -17 -91.167 -51 -115.5s-88.333 -36.5 -163 -36.5c-66 0 -114.333 9.83301 -145 29.5zM253.501 417.001c4.33301 6 6.5 16 6.5 30v490c0 14 -2.16699 24.167 -6.5 30.5s-11.5 9.5 -21.5 9.5s-17.333 -3.16699 -22 -9.5s-7 -16.5 -7 -30.5v-490
c0 -14 2.33301 -24 7 -30s12 -9 22 -9s17.167 3 21.5 9zM260.001 -209.999v299c0 24.667 -9 37 -27 37h-30v-337c0 -21.333 9.33301 -32 28 -32c19.333 0 29 11 29 33zM78.001 1137l52 294h199l52 -294l-115 -1l-37 205l-36 -205z" />
    <glyph glyph-name="Gbreve" unicode="&#x11e;" horiz-adv-x="510" 
d="M81 38c-39.333 36 -59.001 89.6689 -59.001 161.002v962c0 71.333 19.667 125 59 161s97.333 54 174 54c75.333 0 132.333 -15.833 171 -47.5s58 -78.834 58 -141.501v-427h-201v439c0 19.333 -9.33301 29 -28 29c-19.333 0 -29 -9.66699 -29 -29v-1057
c0 -20.667 9.66699 -30.334 29 -29.001c12.667 0 22.334 2.66699 29.001 8v486h-25v107h226v-677c-56 -35.333 -132.667 -53 -230 -53c-76.667 0 -134.667 18 -174 54zM140.499 1448c-23 20 -34.5 53 -34.5 99v154h125v-154c0 -32 8 -48 24 -48s24 16 24 48v154h124v-154
c0 -46 -11.5 -79 -34.5 -99s-60.833 -30 -113.5 -30c-53.333 0 -91.5 10 -114.5 30z" />
    <glyph glyph-name="gbreve" unicode="&#x11f;" horiz-adv-x="450" 
d="M66 -322.5c-30.667 19.667 -45.999 50.501 -45.999 92.501v318c0 15.333 4 27.333 12 36s20.667 14.667 38 18c-16.667 6 -28.834 15.5 -36.501 28.5s-11.5 30.167 -11.5 51.5v45c0 18.667 2.66699 34.667 8 48s14.333 25.666 27 36.999c-18.667 19.333 -28 50 -28 92
v492c0.666992 51.333 15.667 88.666 45 111.999s75.666 35 138.999 35c49.333 0 88.666 -7.33301 117.999 -22c12 16 30.333 24 55 24h65v-112h-40c-1.33301 8 -3.66602 14 -6.99902 18s-8.66602 6.33301 -15.999 7c6 -12 9 -32.667 9 -62v-492
c0 -50 -14.667 -86.667 -44 -110s-76 -35 -140 -35c-13.333 0 -29.333 1 -48 3l-7 -5v-45c0 -14 11.667 -21.333 35 -22c28 -1.33301 51.667 -0.666016 71 2.00098c16 1.33301 27.667 2 35 2c42.667 0 74.167 -10.833 94.5 -32.5s30.833 -55.167 31.5 -100.5v-301
c0 -52.667 -17 -91.167 -51 -115.5s-88.333 -36.5 -163 -36.5c-66 0 -114.333 9.83301 -145 29.5zM235.501 417.001c4.33301 6 6.5 16 6.5 30v490c0 14 -2.16699 24.167 -6.5 30.5s-11.5 9.5 -21.5 9.5s-17.333 -3.16699 -22 -9.5s-7 -16.5 -7 -30.5v-490
c0 -14 2.33301 -24 7 -30s12 -9 22 -9s17.167 3 21.5 9zM242.001 -209.999v299c0 24.667 -9 37 -27 37h-30v-337c0 -21.333 9.33301 -32 28 -32c19.333 0 29 11 29 33zM99.501 1155c-23 20 -34.5 53 -34.5 99v154h125v-154c0 -32 8 -48 24 -48s24 16 24 48v154h124v-154
c0 -46 -11.5 -79 -34.5 -99s-60.833 -30 -113.5 -30c-53.333 0 -91.5 10 -114.5 30z" />
    <glyph glyph-name="Gdotaccent" unicode="&#x120;" horiz-adv-x="510" 
d="M81 38c-39.333 36 -59.001 89.6689 -59.001 161.002v962c0 71.333 19.667 125 59 161s97.333 54 174 54c75.333 0 132.333 -15.833 171 -47.5s58 -78.834 58 -141.501v-427h-201v439c0 19.333 -9.33301 29 -28 29c-19.333 0 -29 -9.66699 -29 -29v-1057
c0 -20.667 9.66699 -30.334 29 -29.001c12.667 0 22.334 2.66699 29.001 8v486h-25v107h226v-677c-56 -35.333 -132.667 -53 -230 -53c-76.667 0 -134.667 18 -174 54zM205.999 1426.5c-10.667 5.66699 -18.334 16.5 -23.001 32.5s-7 41 -7 75c0 38 2.33301 66 7 84
s12.334 30 23.001 36s27 9 49 9s38.333 -3 49 -9s18.334 -17.833 23.001 -35.5s7 -45.834 7 -84.501c0 -34 -2.33301 -59.167 -7 -75.5s-12.334 -27.166 -23.001 -32.499s-27 -8 -49 -8s-38.333 2.83301 -49 8.5z" />
    <glyph glyph-name="gdotaccent" unicode="&#x121;" horiz-adv-x="450" 
d="M66 -322.5c-30.667 19.667 -45.999 50.501 -45.999 92.501v318c0 15.333 4 27.333 12 36s20.667 14.667 38 18c-16.667 6 -28.834 15.5 -36.501 28.5s-11.5 30.167 -11.5 51.5v45c0 18.667 2.66699 34.667 8 48s14.333 25.666 27 36.999c-18.667 19.333 -28 50 -28 92
v492c0.666992 51.333 15.667 88.666 45 111.999s75.666 35 138.999 35c49.333 0 88.666 -7.33301 117.999 -22c12 16 30.333 24 55 24h65v-112h-40c-1.33301 8 -3.66602 14 -6.99902 18s-8.66602 6.33301 -15.999 7c6 -12 9 -32.667 9 -62v-492
c0 -50 -14.667 -86.667 -44 -110s-76 -35 -140 -35c-13.333 0 -29.333 1 -48 3l-7 -5v-45c0 -14 11.667 -21.333 35 -22c28 -1.33301 51.667 -0.666016 71 2.00098c16 1.33301 27.667 2 35 2c42.667 0 74.167 -10.833 94.5 -32.5s30.833 -55.167 31.5 -100.5v-301
c0 -52.667 -17 -91.167 -51 -115.5s-88.333 -36.5 -163 -36.5c-66 0 -114.333 9.83301 -145 29.5zM235.501 417.001c4.33301 6 6.5 16 6.5 30v490c0 14 -2.16699 24.167 -6.5 30.5s-11.5 9.5 -21.5 9.5s-17.333 -3.16699 -22 -9.5s-7 -16.5 -7 -30.5v-490
c0 -14 2.33301 -24 7 -30s12 -9 22 -9s17.167 3 21.5 9zM242.001 -209.999v299c0 24.667 -9 37 -27 37h-30v-337c0 -21.333 9.33301 -32 28 -32c19.333 0 29 11 29 33zM164.001 1133.5c-10.667 5.66699 -18.334 16.5 -23.001 32.5s-7 41 -7 75c0 38 2.33301 66 7 84
s12.334 30 23.001 36s27 9 49 9s38.333 -3 49 -9s18.334 -17.833 23.001 -35.5s7 -45.834 7 -84.501c0 -34 -2.33301 -59.167 -7 -75.5s-12.334 -27.166 -23.001 -32.499s-27 -8 -49 -8s-38.333 2.83301 -49 8.5z" />
    <glyph glyph-name="uni0122" unicode="&#x122;" horiz-adv-x="510" 
d="M81 38c-39.333 36 -59.001 89.6689 -59.001 161.002v962c0 71.333 19.667 125 59 161s97.333 54 174 54c75.333 0 132.333 -15.833 171 -47.5s58 -78.834 58 -141.501v-427h-201v439c0 19.333 -9.33301 29 -28 29c-19.333 0 -29 -9.66699 -29 -29v-1057
c0 -20.667 9.66699 -30.334 29 -29.001c12.667 0 22.334 2.66699 29.001 8v486h-25v107h226v-677c-56 -35.333 -132.667 -53 -230 -53c-76.667 0 -134.667 18 -174 54zM165.999 -63.998h179l-61 -334h-145z" />
    <glyph glyph-name="uni0123" unicode="&#x123;" horiz-adv-x="450" 
d="M66 -322.5c-30.667 19.667 -45.999 50.501 -45.999 92.501v318c0 15.333 4 27.333 12 36s20.667 14.667 38 18c-16.667 6 -28.834 15.5 -36.501 28.5s-11.5 30.167 -11.5 51.5v45c0 18.667 2.66699 34.667 8 48s14.333 25.666 27 36.999c-18.667 19.333 -28 50 -28 92
v492c0.666992 51.333 15.667 88.666 45 111.999s75.666 35 138.999 35c49.333 0 88.666 -7.33301 117.999 -22c12 16 30.333 24 55 24h65v-112h-40c-1.33301 8 -3.66602 14 -6.99902 18s-8.66602 6.33301 -15.999 7c6 -12 9 -32.667 9 -62v-492
c0 -50 -14.667 -86.667 -44 -110s-76 -35 -140 -35c-13.333 0 -29.333 1 -48 3l-7 -5v-45c0 -14 11.667 -21.333 35 -22c28 -1.33301 51.667 -0.666016 71 2.00098c16 1.33301 27.667 2 35 2c42.667 0 74.167 -10.833 94.5 -32.5s30.833 -55.167 31.5 -100.5v-301
c0 -52.667 -17 -91.167 -51 -115.5s-88.333 -36.5 -163 -36.5c-66 0 -114.333 9.83301 -145 29.5zM235.501 417.001c4.33301 6 6.5 16 6.5 30v490c0 14 -2.16699 24.167 -6.5 30.5s-11.5 9.5 -21.5 9.5s-17.333 -3.16699 -22 -9.5s-7 -16.5 -7 -30.5v-490
c0 -14 2.33301 -24 7 -30s12 -9 22 -9s17.167 3 21.5 9zM242.001 -209.999v299c0 24.667 -9 37 -27 37h-30v-337c0 -21.333 9.33301 -32 28 -32c19.333 0 29 11 29 33zM178.001 1420h145l-27 -294h-178z" />
    <glyph glyph-name="Hcircumflex" unicode="&#x124;" horiz-adv-x="498" 
d="M26 1360h195v-613h56v613h195v-1360h-195v608h-56v-608h-195v1360zM97 1404l52 294h199l52 -294l-115 -1l-37 205l-36 -205z" />
    <glyph glyph-name="hcircumflex" unicode="&#x125;" horiz-adv-x="470" 
d="M25 1360h194.001l2 -298c31.333 11.333 63.666 17 96.999 17c32 0 57 -5.83301 75 -17.5s30.833 -30.5 38.5 -56.5s11.5 -61.667 11.5 -107v-898h-182v895c0 21.333 -1.16699 35.333 -3.5 42s-8.16602 10 -17.499 10c-14.667 0 -26.334 -11.667 -35.001 -35v-912h-180
v1360zM-11.999 1403l52 294h199l52 -294l-115 -1l-37 205l-36 -205z" />
    <glyph glyph-name="Hbar" unicode="&#x126;" horiz-adv-x="499" 
d="M27 1360h194v-333h57v333h195v-1360h-195v625h-57v-625h-194v1360zM278 727v199h-57v-199h57z" />
    <glyph glyph-name="hbar" unicode="&#x127;" horiz-adv-x="471" 
d="M393.5 1061.5c17.667 -11.667 30.334 -30.5 38.001 -56.5s11.5 -61.667 11.5 -107v-898h-181v895c0 21.333 -1.33301 35.333 -4 42s-8.66699 10 -18 10c-13.333 0 -25 -11.667 -35 -35v-912h-179v1150h-35v120h35v90h194l1 -90h78v-120h-78l1 -88
c31.333 11.333 63.666 17 96.999 17c32 0 56.833 -5.83301 74.5 -17.5z" />
    <glyph glyph-name="Itilde" unicode="&#x128;" horiz-adv-x="251" 
d="M26 1360h199v-1360h-199v1360zM-31 1481v47.001c0 40.667 8.5 70 25.5 88s44.5 27 82.5 27c27.333 0 47.333 -4.16699 60 -12.5s20.334 -22.166 23.001 -41.499v-78c1.33301 -8 3.16602 -13.667 5.49902 -17s5.5 -5 9.5 -5c8 0 12 9 12 27v123h94
c0 -38.667 0.333008 -63.667 1 -75v-50c0 -39.333 -8.5 -68 -25.5 -86s-44.5 -27 -82.5 -27c-26.667 0 -46.5 4.16699 -59.5 12.5s-20.833 22.166 -23.5 41.499v77c-2.66699 15.333 -7.66699 23 -15 23c-8 0 -12 -9.33301 -12 -28v-122h-94
c0 39.333 -0.333008 64.666 -1 75.999z" />
    <glyph glyph-name="itilde" unicode="&#x129;" horiz-adv-x="247" 
d="M26 1065h195v-1065h-195v1065zM-33 1186v47.001c0 40.667 8.5 70 25.5 88s44.5 27 82.5 27c27.333 0 47.333 -4.16699 60 -12.5s20.334 -22.166 23.001 -41.499v-78c1.33301 -8 3.16602 -13.667 5.49902 -17s5.5 -5 9.5 -5c8 0 12 9 12 27v123h94
c0 -38.667 0.333008 -63.667 1 -75v-50c0 -39.333 -8.5 -68 -25.5 -86s-44.5 -27 -82.5 -27c-26.667 0 -46.5 4.16699 -59.5 12.5s-20.833 22.166 -23.5 41.499v77c-2.66699 15.333 -7.66699 23 -15 23c-8 0 -12 -9.33301 -12 -28v-122h-94
c0 39.333 -0.333008 64.666 -1 75.999z" />
    <glyph glyph-name="Imacron" unicode="&#x12a;" horiz-adv-x="251" 
d="M26 1360h199v-1360h-199v1360zM-14 1505h279v-102h-279v102z" />
    <glyph glyph-name="imacron" unicode="&#x12b;" horiz-adv-x="247" 
d="M26 1065h195v-1065h-195v1065zM-15 1210h279v-102h-279v102z" />
    <glyph glyph-name="Ibreve" unicode="&#x12c;" horiz-adv-x="788" 
d="M26 1360h199v-1360h-199v1360zM-7.5 1432c-23 20 -34.5 53 -34.5 99v154h125v-154c0 -32 8 -48 24 -48s24 16 24 48v154h124v-154c0 -46 -11.5 -79 -34.5 -99s-60.833 -30 -113.5 -30c-53.333 0 -91.5 10 -114.5 30z" />
    <glyph glyph-name="ibreve" unicode="&#x12d;" horiz-adv-x="247" 
d="M26 1065h195v-1065h-195v1065zM10.5 1137c-23 20 -34.5 53 -34.5 99v154h125v-154c0 -32 8 -48 24 -48s24 16 24 48v154h124v-154c0 -46 -11.5 -79 -34.5 -99s-60.833 -30 -113.5 -30c-53.333 0 -91.5 10 -114.5 30z" />
    <glyph glyph-name="Iogonek" unicode="&#x12e;" horiz-adv-x="251" 
d="M235 -286c-30.667 -46.667 -81.001 -70.002 -151.001 -70.002c-90.667 0 -136 35.667 -136 107c0 92 39.667 175 119 249h-41v1360h199v-1360c-32.667 -33.333 -57.5 -68.666 -74.5 -105.999s-25.5 -75.666 -25.5 -114.999c0 -16.667 7 -25 21 -25
c10.667 0 23.334 9.33301 38.001 28z" />
    <glyph glyph-name="iogonek" unicode="&#x12f;" horiz-adv-x="248" 
d="M57 1099.5c-14 5.66699 -23.833 17.667 -29.5 36s-8.5 48.5 -8.5 90.5s2.83301 72.5 8.5 91.5s15.5 31.333 29.5 37s36.333 8.5 67 8.5s53.167 -2.83301 67.5 -8.5s24.333 -18 30 -37s8.5 -49.5 8.5 -91.5s-2.83301 -72.167 -8.5 -90.5s-15.667 -30.333 -30 -36
s-36.833 -8.5 -67.5 -8.5s-53 2.83301 -67 8.5zM232 -287c-31.333 -46.667 -81.666 -69.999 -150.999 -69.999c-44.667 0 -78.5 9 -101.5 27s-34.5 44.667 -34.5 80c0 93.333 39.333 176.666 118 249.999h-37v1060c34.667 -4 67 -6 97 -6c37.333 0 70.333 2 99 6v-1060h-1
c-66 -69.333 -99 -143 -99 -221c0 -17.333 7 -26 21 -26c11.333 0 23.666 9.33301 36.999 28z" />
    <glyph glyph-name="Idotaccent" unicode="&#x130;" horiz-adv-x="251" 
d="M26 1360h199v-1360h-199v1360zM77 1410.5c-10.667 5.66699 -18.334 16.5 -23.001 32.5s-7 41 -7 75c0 38 2.33301 66 7 84s12.334 30 23.001 36s27 9 49 9s38.333 -3 49 -9s18.334 -17.833 23.001 -35.5s7 -45.834 7 -84.501c0 -34 -2.33301 -59.167 -7 -75.5
s-12.334 -27.166 -23.001 -32.499s-27 -8 -49 -8s-38.333 2.83301 -49 8.5z" />
    <glyph glyph-name="dotlessi" unicode="&#x131;" horiz-adv-x="247" 
d="M26 1065h195v-1065h-195v1065z" />
    <glyph glyph-name="IJ" unicode="&#x132;" horiz-adv-x="504" 
d="M26 140h221c22 0 33 12 33 36v1184h199v-1195c0 -54 -14 -95 -42 -123s-67.333 -42 -118 -42h-293v140zM26 1360h199v-1170h-199v1170z" />
    <glyph glyph-name="ij" unicode="&#x133;" horiz-adv-x="496" 
d="M57 1099.5c-14 5.66699 -23.833 17.667 -29.5 36s-8.5 48.5 -8.5 90.5s2.83301 72.5 8.5 91.5s15.5 31.333 29.5 37s36.333 8.5 67 8.5s53.167 -2.83301 67.5 -8.5s24.333 -18 30 -37s8.5 -49.5 8.5 -91.5s-2.83301 -72.167 -8.5 -90.5s-15.667 -30.333 -30 -36
s-36.833 -8.5 -67.5 -8.5s-53 2.83301 -67 8.5zM26 1060c34.667 -4 67 -6 97 -6c37.333 0 70.333 2 99 6v-1060h-196v1060zM305 1099.5c-14 5.66699 -23.833 17.667 -29.5 36s-8.5 48.5 -8.5 90.5s2.83301 72.5 8.5 91.5s15.5 31.333 29.5 37s36.333 8.5 67 8.5
s53.167 -2.83301 67.5 -8.5s24.333 -18 30 -37s8.5 -49.5 8.5 -91.5s-2.83301 -72.167 -8.5 -90.5s-15.667 -30.333 -30 -36s-36.833 -8.5 -67.5 -8.5s-53 2.83301 -67 8.5zM215 -203l23 0.00195312c12 0 21 2.66699 27 8s9 14.666 9 27.999v1227c34 -4 65.333 -6 94 -6
c26.667 0 49.5 1 68.5 3s30.167 3 33.5 3v-1220c0 -44 -7.83301 -77.333 -23.5 -100s-37.167 -37.834 -64.5 -45.501s-63 -11.5 -107 -11.5h-60v114z" />
    <glyph glyph-name="Jcircumflex" unicode="&#x134;" horiz-adv-x="357" 
d="M13 140h42c22 0 33 12 33 36v1184h198v-1195c0 -110 -53 -165 -159 -165h-114v140zM42 1404l52 294h199l52 -294l-115 -1l-37 205l-36 -205z" />
    <glyph glyph-name="jcircumflex" unicode="&#x135;" horiz-adv-x="247" 
d="M-33 -203l22.999 0.00195312c12 0 21 2.66699 27 8s9 14.666 9 27.999v1232h195v-1225c0 -44 -7.66699 -77.333 -23 -100s-36.666 -37.834 -63.999 -45.501s-63 -11.5 -107 -11.5h-60v114zM-25.001 1109l52 294h199l52 -294l-115 -1l-37 205l-36 -205z" />
    <glyph glyph-name="uni0136" unicode="&#x136;" horiz-adv-x="509" 
d="M26 1360h199l-3 -613h24l37 613h208l-65 -680l69 -680h-210l-39 607h-24l3 -607h-199v1360zM163 -47h179l-61 -334h-145z" />
    <glyph glyph-name="uni0137" unicode="&#x137;" horiz-adv-x="473" 
d="M26 1360h199l-10 -782l24 2l33 485h191l-54 -530l58 -535h-194l-35 461l-23 1l3 -462h-192v1360zM157 -47h179l-61 -334h-145z" />
    <glyph glyph-name="kgreenlandic" unicode="&#x138;" horiz-adv-x="473" 
d="M26 1065h195l-6 -485l24 1l33 484h191l-54 -529l58 -536h-194l-35 463l-23 1l3 -464h-192v1065z" />
    <glyph glyph-name="Lacute" unicode="&#x139;" horiz-adv-x="350" 
d="M26 1360h199v-1213h111v-147h-310v1360zM103 1701l168 -2l-76 -296h-140z" />
    <glyph glyph-name="lacute" unicode="&#x13a;" horiz-adv-x="248" 
d="M26 1360h196v-1360h-196v1360zM97 1701l168 -2l-76 -296h-140z" />
    <glyph glyph-name="uni013B" unicode="&#x13b;" horiz-adv-x="350" 
d="M26 1360h199v-1213h111v-147h-310v1360zM99 -47h179l-61 -334h-145z" />
    <glyph glyph-name="uni013C" unicode="&#x13c;" horiz-adv-x="248" 
d="M26 1360h196v-1360h-196v1360zM50 -47h179l-61 -334h-145z" />
    <glyph glyph-name="Lcaron" unicode="&#x13d;" horiz-adv-x="452" 
d="M26 1360h199v-1213h111v-147h-310v1360zM288 1128h-24.001l-1 231h171v-205c0 -38.667 -4.16699 -74.667 -12.5 -108s-18.166 -62 -29.499 -86h-142c25.333 62.667 38 118.667 38 168z" />
    <glyph glyph-name="lcaron" unicode="&#x13e;" horiz-adv-x="385" 
d="M26 1360h196v-1360h-196v1360zM248 977l1 382l143 1l-17 -384z" />
    <glyph glyph-name="Ldot" unicode="&#x13f;" horiz-adv-x="378" 
d="M27 1360h199v-512c-4.66699 0 -9.83398 -5.33301 -15.501 -16s-10.5 -26.5 -14.5 -47.5s-6 -46.167 -6 -75.5c0 -30 2 -55.5 6 -76.5s8.83301 -36.667 14.5 -47s10.834 -15.5 15.501 -15.5v-423h110v-147h-309v1360zM252 614.5c-10 5 -17.333 14.666 -22 28.999
s-7 35.833 -7 64.5c0 29.333 2.33301 51.333 7 66s12 24.667 22 30s24.333 8 43 8c18 0 32.167 -2.66699 42.5 -8s17.833 -15.333 22.5 -30s7 -36.667 7 -66s-2.33301 -51.166 -7 -65.499s-12 -23.833 -22 -28.5s-24.333 -7 -43 -7s-33 2.5 -43 7.5z" />
    <glyph glyph-name="ldot" unicode="&#x140;" horiz-adv-x="388" 
d="M26 1360h196v-1360h-196v1360zM276.5 553.5c-9 6.33301 -15.501 18.3311 -19.501 35.998s-6 44.834 -6 81.501c0 41.333 2 71.833 6 91.5s10.333 32.667 19 39s22.334 9.5 41.001 9.5c18 0 31.5 -3.16699 40.5 -9.5s15.333 -19.166 19 -38.499s5.5 -50 5.5 -92
c0 -37.333 -1.83301 -64.833 -5.5 -82.5s-10 -29.5 -19 -35.5s-22.5 -9 -40.5 -9s-31.5 3.16699 -40.5 9.5z" />
    <glyph glyph-name="Lslash" unicode="&#x141;" horiz-adv-x="340" 
d="M336 147v-147h-310v627l-27 -9v92l27 9v641h199v-572l42 14v-92l-42 -14v-549h111z" />
    <glyph glyph-name="lslash" unicode="&#x142;" horiz-adv-x="265" 
d="M260 146v-146.001h-104c-40.667 0 -72.5 10.333 -95.5 31s-34.5 60.334 -34.5 119.001v477l-27 -9v92l27 9v641h196v-573l33 11v-92l-33 -11v-519c0 -19.333 9.33301 -29 28 -29z" />
    <glyph glyph-name="Nacute" unicode="&#x143;" horiz-adv-x="494" 
d="M26 1360h208l21 -199l60 -719h10l-33 918h176v-1360h-208l-22 198l-64 750h-12l37 -948h-173v1360zM223 1701l168 -2l-76 -296h-140z" />
    <glyph glyph-name="nacute" unicode="&#x144;" horiz-adv-x="469" 
d="M26 1065l162.001 -0.00195312l21 -49c9.33301 20.667 23.333 36.834 42 48.501s41.667 17.5 69 17.5c42 0 73 -14.667 93 -44s30 -73.666 30 -132.999v-905h-182v902c0 18 -2 30 -6 36s-10.667 9 -20 9c-10.667 0 -18.334 -4.16699 -23.001 -12.5s-7 -22.5 -7 -42.5v-892
h-179v1065zM203.001 1419l168 -2l-76 -296h-140z" />
    <glyph glyph-name="uni0145" unicode="&#x145;" horiz-adv-x="494" 
d="M26 1360h208l21 -199l60 -719h10l-33 918h176v-1360h-208l-22 198l-64 750h-12l37 -948h-173v1360zM156 -47h179l-61 -334h-145z" />
    <glyph glyph-name="uni0146" unicode="&#x146;" horiz-adv-x="469" 
d="M26 1065l162.001 -0.00195312l21 -49c9.33301 20.667 23.333 36.834 42 48.501s41.667 17.5 69 17.5c42 0 73 -14.667 93 -44s30 -73.666 30 -132.999v-905h-182v902c0 18 -2 30 -6 36s-10.667 9 -20 9c-10.667 0 -18.334 -4.16699 -23.001 -12.5s-7 -22.5 -7 -42.5v-892
h-179v1065zM144.001 -47.002h179l-61 -334h-145z" />
    <glyph glyph-name="Ncaron" unicode="&#x147;" horiz-adv-x="494" 
d="M26 1360h208l21 -199l60 -719h10l-33 918h176v-1360h-208l-22 198l-64 750h-12l37 -948h-173v1360zM91 1697l122 1l37 -204l37 204l123 -1l-68 -294h-183z" />
    <glyph glyph-name="ncaron" unicode="&#x148;" horiz-adv-x="469" 
d="M26 1065l162.001 -0.00195312l21 -49c9.33301 20.667 23.333 36.834 42 48.501s41.667 17.5 69 17.5c42 0 73 -14.667 93 -44s30 -73.666 30 -132.999v-905h-182v902c0 18 -2 30 -6 36s-10.667 9 -20 9c-10.667 0 -18.334 -4.16699 -23.001 -12.5s-7 -22.5 -7 -42.5v-892
h-179v1065zM72.001 1415l122 1l37 -204l37 204l123 -1l-68 -294h-183z" />
    <glyph glyph-name="napostrophe" unicode="&#x149;" horiz-adv-x="646" 
d="M19 1367h161l-28 -491l-134 -1zM203 1065l162.001 -0.00195312l21 -49c9.33301 20.667 23.333 36.834 42 48.501s41.667 17.5 69 17.5c42 0 73 -14.667 93 -44s30 -73.666 30 -132.999v-905h-182v902c0 18 -2 30 -6 36s-10.667 9 -20 9
c-10.667 0 -18.334 -4.16699 -23.001 -12.5s-7 -22.5 -7 -42.5v-892h-179v1065z" />
    <glyph glyph-name="Eng" unicode="&#x14a;" horiz-adv-x="494" 
d="M193 -124h41c11.333 0 19.833 3 25.5 9s8.16699 14.667 7.5 26v109l-108 909l-6 1l55 -930h-182v1360h199l22 -187l87 -742l6 -1l-54 930h182l-2 -1459c0 -54 -14 -95 -42 -123s-67.333 -42 -118 -42h-113v140z" />
    <glyph glyph-name="eng" unicode="&#x14b;" horiz-adv-x="469" 
d="M203 -95h23.001c12.667 0 21.667 3 27 9s8 15.667 8 29v959c0 18 -2 30 -6 36s-10.667 9 -20 9c-10.667 0 -18.334 -4.16699 -23.001 -12.5s-7 -22.5 -7 -42.5v-892h-179v1065h162l21 -49c9.33301 20.667 23.333 36.834 42 48.501s41.667 17.5 69 17.5
c42 0 73 -14.667 93 -44s30 -73.666 30 -132.999v-939c0 -42.667 -6.5 -76.334 -19.5 -101.001s-33.167 -42.334 -60.5 -53.001s-64.333 -16 -111 -16h-49v109z" />
    <glyph glyph-name="Omacron" unicode="&#x14c;" horiz-adv-x="510" 
d="M22 1166c0 68.667 19.667 120.833 59 156.5s97.333 53.5 174 53.5s134.667 -18.333 174 -55s59 -90.667 59 -162v-957c0 -72 -19.667 -126.333 -59 -163s-97.333 -55 -174 -55c-76 0 -132.5 18 -169.5 54s-58.167 90.667 -63.5 164v964zM255 149.999
c18.667 0 28 9.66699 28 29v1002c0 19.333 -9.33301 29 -28 29s-28 -9.66699 -28 -29v-1002c0 -19.333 9.33301 -29 28 -29zM115 1521h279v-102h-279v102z" />
    <glyph glyph-name="omacron" unicode="&#x14d;" 
d="M77 29.5c-35.333 30.333 -53 75.166 -53 134.499v739c0 59.333 17.667 104.166 53 134.499s87.666 45.5 156.999 45.5s121.5 -15.167 156.5 -45.5s52.5 -75.166 52.5 -134.499v-739c0 -59.333 -17.5 -104.166 -52.5 -134.499s-87.167 -45.5 -156.5 -45.5
s-121.666 15.167 -156.999 45.5zM262 155v757c0 22 -9.33301 33 -28 33c-19.333 0 -29 -11 -29 -33v-757c0 -22.667 9.66699 -34 29 -34c18.667 0 28 11.333 28 34zM94 1228h279v-102h-279v102z" />
    <glyph glyph-name="Obreve" unicode="&#x14e;" horiz-adv-x="510" 
d="M22 1166c0 68.667 19.667 120.833 59 156.5s97.333 53.5 174 53.5s134.667 -18.333 174 -55s59 -90.667 59 -162v-957c0 -72 -19.667 -126.333 -59 -163s-97.333 -55 -174 -55c-76 0 -132.5 18 -169.5 54s-58.167 90.667 -63.5 164v964zM255 149.999
c18.667 0 28 9.66699 28 29v1002c0 19.333 -9.33301 29 -28 29s-28 -9.66699 -28 -29v-1002c0 -19.333 9.33301 -29 28 -29zM144.5 1477c-23 20 -34.5 53 -34.5 99v154h125v-154c0 -32 8 -48 24 -48s24 16 24 48v154h124v-154c0 -46 -11.5 -79 -34.5 -99
s-60.833 -30 -113.5 -30c-53.333 0 -91.5 10 -114.5 30z" />
    <glyph glyph-name="obreve" unicode="&#x14f;" 
d="M77 29.5c-35.333 30.333 -53 75.166 -53 134.499v739c0 59.333 17.667 104.166 53 134.499s87.666 45.5 156.999 45.5s121.5 -15.167 156.5 -45.5s52.5 -75.166 52.5 -134.499v-739c0 -59.333 -17.5 -104.166 -52.5 -134.499s-87.167 -45.5 -156.5 -45.5
s-121.666 15.167 -156.999 45.5zM262 155v757c0 22 -9.33301 33 -28 33c-19.333 0 -29 -11 -29 -33v-757c0 -22.667 9.66699 -34 29 -34c18.667 0 28 11.333 28 34zM124.5 1173c-23 20 -34.5 53 -34.5 99v154h125v-154c0 -32 8 -48 24 -48s24 16 24 48v154h124v-154
c0 -46 -11.5 -79 -34.5 -99s-60.833 -30 -113.5 -30c-53.333 0 -91.5 10 -114.5 30z" />
    <glyph glyph-name="Ohungarumlaut" unicode="&#x150;" horiz-adv-x="510" 
d="M22 1166c0 68.667 19.667 120.833 59 156.5s97.333 53.5 174 53.5s134.667 -18.333 174 -55s59 -90.667 59 -162v-957c0 -72 -19.667 -126.333 -59 -163s-97.333 -55 -174 -55c-76 0 -132.5 18 -169.5 54s-58.167 90.667 -63.5 164v964zM255 149.999
c18.667 0 28 9.66699 28 29v1002c0 19.333 -9.33301 29 -28 29s-28 -9.66699 -28 -29v-1002c0 -19.333 9.33301 -29 28 -29zM185 1717l122 -2l-76 -296h-94zM330 1717l121 -2l-76 -296h-93z" />
    <glyph glyph-name="ohungarumlaut" unicode="&#x151;" 
d="M77 29.5c-35.333 30.333 -53 75.166 -53 134.499v739c0 59.333 17.667 104.166 53 134.499s87.666 45.5 156.999 45.5s121.5 -15.167 156.5 -45.5s52.5 -75.166 52.5 -134.499v-739c0 -59.333 -17.5 -104.166 -52.5 -134.499s-87.167 -45.5 -156.5 -45.5
s-121.666 15.167 -156.999 45.5zM262 155v757c0 22 -9.33301 33 -28 33c-19.333 0 -29 -11 -29 -33v-757c0 -22.667 9.66699 -34 29 -34c18.667 0 28 11.333 28 34zM164 1424l122 -2l-76 -296h-94zM309 1424l121 -2l-76 -296h-93z" />
    <glyph glyph-name="OE" unicode="&#x152;" horiz-adv-x="637" 
d="M81 39c-39.333 36.667 -59 90.999 -59 162.999v961c0.666992 70.667 20.667 123.834 60 159.501s97 53.5 173 53.5c14 0 37 -2.66699 69 -8s55 -8 69 -8h235v-141h-139v-489h110v-110h-110v-483h141v-137h-236c-14.667 -0 -38 -2.66699 -70 -8s-55 -8 -69 -8
c-76.667 0 -134.667 18.333 -174 55zM283 178.999v1002c0 19.333 -9.33301 29 -28 29c-19.333 0 -29 -9.66699 -29 -29v-1002c0 -19.333 9.66699 -29 29 -29c18.667 0 28 9.66699 28 29z" />
    <glyph glyph-name="oe" unicode="&#x153;" horiz-adv-x="704" 
d="M75.5 29.5c-35 30.333 -52.5 75.168 -52.5 134.501v739c0 59.333 17.5 104.166 52.5 134.499s87.167 45.5 156.5 45.5c54 0 94.667 -10 122 -30c29.333 20 68.333 30 117 30c69.333 0 121.666 -15.167 156.999 -45.5s53 -74.833 53 -133.5
c0 -50.667 -0.666992 -124.667 -2 -222c-1.33301 -92 -2 -157.667 -2 -197h-234v-368c0 -19.333 9.33301 -29 28 -29s28 9.66699 28 29v311h174v-307c-17.333 -91.333 -84.666 -137 -201.999 -137c-49.333 0 -88 9.66699 -116 29c-26 -19.333 -67 -29 -123 -29
c-69.333 0 -121.5 15.167 -156.5 45.5zM499 574.002v360c0 19.333 -9.33301 29 -28 29s-28 -9.66699 -28 -29v-360h56zM261 155.002v757c0 22 -9.66699 33 -29 33c-18.667 0 -28 -11 -28 -33v-757c0 -22.667 9.33301 -34 28 -34c19.333 0 29 11.333 29 34z" />
    <glyph glyph-name="Racute" unicode="&#x154;" horiz-adv-x="485" 
d="M273 0l-20 509.001h-3h-33v-509h-191v1360h212c74.667 0 130.667 -12.5 168 -37.5s56 -70.167 56 -135.5v-515c0 -52.667 -15.333 -92.334 -46 -119.001l47 -553h-190zM266 636.501c4.66699 6.33301 6.99902 16.499 6.99902 30.499v515c0 12.667 -2.5 21.834 -7.5 27.501
s-12.833 8.5 -23.5 8.5h-25v-591h26c10.667 0 18.334 3.16699 23.001 9.5zM214.999 1741l168 -2l-76 -296h-140z" />
    <glyph glyph-name="racute" unicode="&#x155;" horiz-adv-x="325" 
d="M26 1065h156.999l26 -45c14 38 36 57 66 57c16.667 0 31.667 -3 45 -9v-138c-2.66699 2 -8.16699 3.66699 -16.5 5s-15.166 2 -20.499 2c-40.667 0 -61 -22 -61 -66v-871h-196v1065zM142.999 1411l168 -2l-76 -296h-140z" />
    <glyph glyph-name="uni0156" unicode="&#x156;" horiz-adv-x="485" 
d="M273 0l-20 509.001h-3h-33v-509h-191v1360h212c74.667 0 130.667 -12.5 168 -37.5s56 -70.167 56 -135.5v-515c0 -52.667 -15.333 -92.334 -46 -119.001l47 -553h-190zM266 636.501c4.66699 6.33301 6.99902 16.499 6.99902 30.499v515c0 12.667 -2.5 21.834 -7.5 27.501
s-12.833 8.5 -23.5 8.5h-25v-591h26c10.667 0 18.334 3.16699 23.001 9.5zM154.999 -92h179l-61 -334h-145z" />
    <glyph glyph-name="uni0157" unicode="&#x157;" horiz-adv-x="325" 
d="M26 1065h156.999l26 -45c14 38 36 57 66 57c16.667 0 31.667 -3 45 -9v-138c-2.66699 2 -8.16699 3.66699 -16.5 5s-15.166 2 -20.499 2c-40.667 0 -61 -22 -61 -66v-871h-196v1065zM40.999 -47h179l-61 -334h-145z" />
    <glyph glyph-name="Rcaron" unicode="&#x158;" horiz-adv-x="485" 
d="M273 0l-20 509.001h-3h-33v-509h-191v1360h212c74.667 0 130.667 -12.5 168 -37.5s56 -70.167 56 -135.5v-515c0 -52.667 -15.333 -92.334 -46 -119.001l47 -553h-190zM266 636.501c4.66699 6.33301 6.99902 16.499 6.99902 30.499v515c0 12.667 -2.5 21.834 -7.5 27.501
s-12.833 8.5 -23.5 8.5h-25v-591h26c10.667 0 18.334 3.16699 23.001 9.5zM83.999 1737l122 1l37 -204l37 204l123 -1l-68 -294h-183z" />
    <glyph glyph-name="rcaron" unicode="&#x159;" horiz-adv-x="325" 
d="M26 1065h156.999l26 -45c14 38 36 57 66 57c16.667 0 31.667 -3 45 -9v-138c-2.66699 2 -8.16699 3.66699 -16.5 5s-15.166 2 -20.499 2c-40.667 0 -61 -22 -61 -66v-871h-196v1065zM11.999 1407l122 1l37 -204l37 204l123 -1l-68 -294h-183z" />
    <glyph glyph-name="Sacute" unicode="&#x15a;" horiz-adv-x="473" 
d="M25 148v306h181v-307c1.33301 -19.333 11 -29 29 -29c8.66699 0 15.5 2.5 20.5 7.5s7.5 12.167 7.5 21.5c0 80.667 -3 144.667 -9 192c-6 58.667 -15.167 111.167 -27.5 157.5s-25.5 86 -39.5 119s-32 71.833 -54 116.5c-24.667 49.333 -44 91.333 -58 126
s-25.667 76.5 -35 125.5s-14 106.167 -14 171.5v54c0.666992 58 18.167 100.333 52.5 127s84.833 40 151.5 40c70.667 0 123.5 -14.5 158.5 -43.5s52.5 -69.5 52.5 -121.5v-229h-175v230c0 9.33301 -2.5 16.5 -7.5 21.5s-11.833 7.5 -20.5 7.5s-15.667 -2.5 -21 -7.5
s-8 -12.167 -8 -21.5c0 -44.667 3.33301 -88.667 10 -132c7.33301 -48 18.333 -90.833 33 -128.5s34.667 -82.834 60 -135.501c29.333 -59.333 53 -112.833 71 -160.5s33.333 -108.167 46 -181.5s19 -160.666 19 -261.999v-72c-0.666992 -51.333 -19.167 -90.333 -55.5 -117
s-85.833 -40 -148.5 -40c-146 0 -219 55 -219 165zM209 1718l168 -2l-76 -296h-140z" />
    <glyph glyph-name="sacute" unicode="&#x15b;" horiz-adv-x="436" 
d="M70.5 23.5c-31 27 -46.5 60.8369 -46.5 101.504v242l167 -4v-241c0 -8 2.33301 -14.667 7 -20s11.667 -8 21 -8c8.66699 0 15.5 2.5 20.5 7.5s7.5 12.167 7.5 21.5c0 42 -2.66699 93.667 -8 155l-3 38c-4.66699 41.333 -14 75.166 -28 101.499s-34.333 56.5 -61 90.5
s-48 64.667 -64 92s-29.667 64.166 -41 110.499s-17 103.5 -17 171.5v56c0 47.333 16.167 83 48.5 107s78.833 36 139.5 36c62 0 109.667 -12.5 143 -37.5s50.333 -59.833 51 -104.5v-207l-162 3v210c0 6 -2.33301 11.667 -7 17s-11.667 8 -21 8
c-10 0 -17.167 -2.83301 -21.5 -8.5s-6.5 -11.5 -6.5 -17.5c0 -52.667 4.66699 -97.667 14 -135c4.66699 -36.667 11.667 -67 21 -91s19.5 -43.333 30.5 -58s25.167 -31.334 42.5 -50.001c25.333 -26.667 45.5 -52.834 60.5 -78.501s27.833 -65.667 38.5 -120
s16 -127.833 16 -220.5v-72c0 -42.667 -17.167 -76 -51.5 -100s-79.5 -36 -135.5 -36c-72 0 -123.5 13.5 -154.5 40.5zM188 1422l168 -2l-76 -296h-140z" />
    <glyph glyph-name="Scircumflex" unicode="&#x15c;" horiz-adv-x="476" 
d="M25 148v306h181v-307c1.33301 -19.333 11 -29 29 -29c8.66699 0 15.5 2.5 20.5 7.5s7.5 12.167 7.5 21.5c0 80.667 -3 144.667 -9 192c-6 58.667 -15.167 111.167 -27.5 157.5s-25.5 86 -39.5 119s-32 71.833 -54 116.5c-24.667 49.333 -44 91.333 -58 126
s-25.667 76.5 -35 125.5s-14 106.167 -14 171.5v54c0.666992 58 18.167 100.333 52.5 127s84.833 40 151.5 40c70.667 0 123.5 -14.5 158.5 -43.5s52.5 -69.5 52.5 -121.5v-229h-175v230c0 9.33301 -2.5 16.5 -7.5 21.5s-11.833 7.5 -20.5 7.5s-15.667 -2.5 -21 -7.5
s-8 -12.167 -8 -21.5c0 -44.667 3.33301 -88.667 10 -132c7.33301 -48 18.333 -90.833 33 -128.5s34.667 -82.834 60 -135.501c29.333 -59.333 53 -112.833 71 -160.5s33.333 -108.167 46 -181.5s19 -160.666 19 -261.999v-72c-0.666992 -51.333 -19.167 -90.333 -55.5 -117
s-85.833 -40 -148.5 -40c-146 0 -219 55 -219 165zM92 1422l52 294h199l52 -294l-115 -1l-37 205l-36 -205z" />
    <glyph glyph-name="scircumflex" unicode="&#x15d;" horiz-adv-x="440" 
d="M72.5 23.5c-31 27 -46.5 60.8369 -46.5 101.504v242l167 -4v-241c0 -8 2.33301 -14.667 7 -20s11.667 -8 21 -8c8.66699 0 15.5 2.5 20.5 7.5s7.5 12.167 7.5 21.5c0 42 -2.66699 93.667 -8 155l-3 38c-4.66699 41.333 -14 75.166 -28 101.499s-34.333 56.5 -61 90.5
s-48 64.667 -64 92s-29.667 64.166 -41 110.499s-17 103.5 -17 171.5v56c0 47.333 16.167 83 48.5 107s78.833 36 139.5 36c62 0 109.667 -12.5 143 -37.5s50.333 -59.833 51 -104.5v-207l-162 3v210c0 6 -2.33301 11.667 -7 17s-11.667 8 -21 8
c-10 0 -17.167 -2.83301 -21.5 -8.5s-6.5 -11.5 -6.5 -17.5c0 -52.667 4.66699 -97.667 14 -135c4.66699 -36.667 11.667 -67 21 -91s19.5 -43.333 30.5 -58s25.167 -31.334 42.5 -50.001c25.333 -26.667 45.5 -52.834 60.5 -78.501s27.833 -65.667 38.5 -120
s16 -127.833 16 -220.5v-72c0 -42.667 -17.167 -76 -51.5 -100s-79.5 -36 -135.5 -36c-72 0 -123.5 13.5 -154.5 40.5zM66 1140l52 294h199l52 -294l-115 -1l-37 205l-36 -205z" />
    <glyph glyph-name="Scedilla" unicode="&#x15e;" horiz-adv-x="473" 
d="M252 951.5c14.667 -37.667 34.668 -82.834 60.001 -135.501c29.333 -59.333 53 -112.833 71 -160.5s33.333 -108.167 46 -181.5s19 -160.666 19 -261.999v-72c-0.666992 -44 -14.5 -79 -41.5 -105s-64.167 -42.333 -111.5 -49l-7 -104c52 -10 78 -45 78 -105v-126
c0 -82.667 -46.333 -124 -139 -124c-36.667 0 -67 5.66699 -91 17l17 95c9.33301 -4 21.666 -6 36.999 -6c24 0 36 8.66699 36 26v127c0 18 -20.667 27.667 -62 29l13 173c-101.333 14.667 -152 68 -152 160v306h181v-307c1.33301 -19.333 11 -29 29 -29
c8.66699 0 15.5 2.5 20.5 7.5s7.5 12.167 7.5 21.5c0 80.667 -3 144.667 -9 192c-6 58.667 -15.167 111.167 -27.5 157.5s-25.5 86 -39.5 119s-32 71.833 -54 116.5c-24.667 49.333 -44 91.333 -58 126s-25.667 76.5 -35 125.5s-14 106.167 -14 171.5v54
c0.666992 58 18.167 100.333 52.5 127s84.833 40 151.5 40c70.667 0 123.5 -14.5 158.5 -43.5s52.5 -69.5 52.5 -121.5v-229h-175v230c0 9.33301 -2.5 16.5 -7.5 21.5s-11.833 7.5 -20.5 7.5s-15.667 -2.5 -21 -7.5s-8 -12.167 -8 -21.5c0 -44.667 3.33301 -88.667 10 -132
c7.33301 -48 18.333 -90.833 33 -128.5z" />
    <glyph glyph-name="scedilla" unicode="&#x15f;" horiz-adv-x="436" 
d="M224 718c9.33301 -24 19.501 -43.3281 30.501 -57.9951s25.167 -31.334 42.5 -50.001c25.333 -26.667 45.5 -52.834 60.5 -78.501s27.833 -65.667 38.5 -120s16 -127.833 16 -220.5v-72c0 -35.333 -12 -64.333 -36 -87s-56.667 -37.667 -98 -45l-6 -105
c25.333 -4.66699 44.666 -15.834 57.999 -33.501s20 -41.167 20 -70.5v-127c0 -40.667 -11.833 -71.5 -35.5 -92.5s-58.5 -31.5 -104.5 -31.5c-36 0 -66 5.66699 -90 17l17 95c6.66699 -3.33301 19 -5 37 -5c24 0 36 8.66699 36 26v126c0 18 -21 27.667 -63 29l14 173
c-48.667 8 -83.667 24.5 -105 49.5s-32 54.167 -32 87.5v242l167 -4v-241c0 -8 2.33301 -14.667 7 -20s11.667 -8 21 -8c8.66699 0 15.5 2.5 20.5 7.5s7.5 12.167 7.5 21.5c0 42 -2.66699 93.667 -8 155l-3 38c-4.66699 41.333 -14 75.166 -28 101.499
s-34.333 56.5 -61 90.5s-48 64.667 -64 92s-29.667 64.166 -41 110.499s-17 103.5 -17 171.5v56c0 47.333 16.167 83 48.5 107s78.833 36 139.5 36c62 0 109.667 -12.5 143 -37.5s50.333 -59.833 51 -104.5v-207l-162 3v210c0 6 -2.33301 11.667 -7 17s-11.667 8 -21 8
c-10 0 -17.167 -2.83301 -21.5 -8.5s-6.5 -11.5 -6.5 -17.5c0 -52.667 4.66699 -97.667 14 -135c4.66699 -36.667 11.667 -67 21 -91z" />
    <glyph glyph-name="Scaron" unicode="&#x160;" horiz-adv-x="473" 
d="M25 148v306h181v-307c1.33301 -19.333 11 -29 29 -29c8.66699 0 15.5 2.5 20.5 7.5s7.5 12.167 7.5 21.5c0 80.667 -3 144.667 -9 192c-6 58.667 -15.167 111.167 -27.5 157.5s-25.5 86 -39.5 119s-32 71.833 -54 116.5c-24.667 49.333 -44 91.333 -58 126
s-25.667 76.5 -35 125.5s-14 106.167 -14 171.5v54c0.666992 58 18.167 100.333 52.5 127s84.833 40 151.5 40c70.667 0 123.5 -14.5 158.5 -43.5s52.5 -69.5 52.5 -121.5v-229h-175v230c0 9.33301 -2.5 16.5 -7.5 21.5s-11.833 7.5 -20.5 7.5s-15.667 -2.5 -21 -7.5
s-8 -12.167 -8 -21.5c0 -44.667 3.33301 -88.667 10 -132c7.33301 -48 18.333 -90.833 33 -128.5s34.667 -82.834 60 -135.501c29.333 -59.333 53 -112.833 71 -160.5s33.333 -108.167 46 -181.5s19 -160.666 19 -261.999v-72c-0.666992 -51.333 -19.167 -90.333 -55.5 -117
s-85.833 -40 -148.5 -40c-146 0 -219 55 -219 165zM77 1714l122 1l37 -204l37 204l123 -1l-68 -294h-183z" />
    <glyph glyph-name="scaron" unicode="&#x161;" horiz-adv-x="436" 
d="M70.5 23.5c-31 27 -46.5 60.8369 -46.5 101.504v242l167 -4v-241c0 -8 2.33301 -14.667 7 -20s11.667 -8 21 -8c8.66699 0 15.5 2.5 20.5 7.5s7.5 12.167 7.5 21.5c0 42 -2.66699 93.667 -8 155l-3 38c-4.66699 41.333 -14 75.166 -28 101.499s-34.333 56.5 -61 90.5
s-48 64.667 -64 92s-29.667 64.166 -41 110.499s-17 103.5 -17 171.5v56c0 47.333 16.167 83 48.5 107s78.833 36 139.5 36c62 0 109.667 -12.5 143 -37.5s50.333 -59.833 51 -104.5v-207l-162 3v210c0 6 -2.33301 11.667 -7 17s-11.667 8 -21 8
c-10 0 -17.167 -2.83301 -21.5 -8.5s-6.5 -11.5 -6.5 -17.5c0 -52.667 4.66699 -97.667 14 -135c4.66699 -36.667 11.667 -67 21 -91s19.5 -43.333 30.5 -58s25.167 -31.334 42.5 -50.001c25.333 -26.667 45.5 -52.834 60.5 -78.501s27.833 -65.667 38.5 -120
s16 -127.833 16 -220.5v-72c0 -42.667 -17.167 -76 -51.5 -100s-79.5 -36 -135.5 -36c-72 0 -123.5 13.5 -154.5 40.5zM57 1418l122 1l37 -204l37 204l123 -1l-68 -294h-183z" />
    <glyph glyph-name="uni0162" unicode="&#x162;" horiz-adv-x="369" 
d="M241 0l-5.99902 -100.999c25.333 -4.66699 44.666 -15.834 57.999 -33.501s20 -41.5 20 -71.5v-126c0 -40.667 -11.833 -71.5 -35.5 -92.5s-58.5 -31.5 -104.5 -31.5c-36 0 -66 5.66699 -90 17l17 95c8 -4 20.333 -6 37 -6c24 0 36 8.66699 36 26v127
c0 18 -21 27.667 -63 29l13 168h-38v1208h-79v152h356v-152h-79v-1208h-42z" />
    <glyph glyph-name="uni0163" unicode="&#x163;" horiz-adv-x="307" 
d="M245 929v-758.002c0 -9.33301 2.83301 -17.166 8.5 -23.499s13.167 -9.5 22.5 -9.5h35v-138h-77l-7 -101c52 -9.33301 78 -44.333 78 -105v-126c0 -82.667 -46.333 -124 -139 -124c-36 0 -66.333 5.66699 -91 17l17 95c9.33301 -4 22 -6 38 -6c24 0 36 8.66699 36 26
l-1 127c0 18 -20.667 27.667 -62 29l14 187c-44 24.667 -66 70.334 -66 137.001v773h-45v121l52 30l45 231l143 1v-247h65v-136h-66z" />
    <glyph glyph-name="Tcaron" unicode="&#x164;" horiz-adv-x="369" 
d="M85 1208h-79v152h356v-152h-79v-1208h-198v1208zM26 1697l122 1l37 -204l37 204l123 -1l-68 -294h-183z" />
    <glyph glyph-name="tcaron" unicode="&#x165;" horiz-adv-x="307" 
d="M89.5 40.5c-25.667 27 -38.5 65.499 -38.5 115.499v773h-45v121l52 30l45 231l143 1v-247h65v-136h-66v-758c0 -9.33301 2.83301 -17.166 8.5 -23.499s13.167 -9.5 22.5 -9.5h35v-138h-114c-46 0 -81.833 13.5 -107.5 40.5zM5 1648l122 1l37 -204l37 204l123 -1l-68 -294
h-183z" />
    <glyph glyph-name="Tbar" unicode="&#x166;" horiz-adv-x="369" 
d="M283 1208v-522h39v-60h-39v-626h-198v626h-37v60h37v522h-79v152h356v-152h-79z" />
    <glyph glyph-name="tbar" unicode="&#x167;" horiz-adv-x="315" 
d="M102 34c-34 22.667 -51 63.333 -51 122v385h-41v76h41v325h-45v108l52 30l46 231l142 1v-247h65v-123h-66v-325h66v-76h-66v-385c0 -9.33301 2.66699 -17.333 8 -24s13.333 -10 24 -10h34v-122h-71c-58 -0 -104 11.333 -138 34z" />
    <glyph glyph-name="Utilde" unicode="&#x168;" horiz-adv-x="497" 
d="M25 151v1209h196v-1188c0 -12.667 2.5 -22.334 7.5 -29.001s11.833 -10 20.5 -10s15.5 3.33301 20.5 10s7.5 16.334 7.5 29.001v1188h195v-1209c0 -56 -18.833 -98.167 -56.5 -126.5s-93.5 -42.5 -167.5 -42.5c-148.667 0 -223 56.333 -223 169zM92 1481v47.001
c0 40.667 8.5 70 25.5 88s44.5 27 82.5 27c27.333 0 47.333 -4.16699 60 -12.5s20.334 -22.166 23.001 -41.499v-78c1.33301 -8 3.16602 -13.667 5.49902 -17s5.5 -5 9.5 -5c8 0 12 9 12 27v123h94c0 -38.667 0.333008 -63.667 1 -75v-50c0 -39.333 -8.5 -68 -25.5 -86
s-44.5 -27 -82.5 -27c-26.667 0 -46.5 4.16699 -59.5 12.5s-20.833 22.166 -23.5 41.499v77c-2.66699 15.333 -7.66699 23 -15 23c-8 0 -12 -9.33301 -12 -28v-122h-94c0 39.333 -0.333008 64.666 -1 75.999z" />
    <glyph glyph-name="utilde" unicode="&#x169;" horiz-adv-x="463" 
d="M77 27c-34.667 28.667 -51.999 71.332 -51.999 127.999v910h178v-910c0 -22.667 9.66699 -34 29 -34c18.667 0 28 11.333 28 34v910h178v-913c0 -55.333 -17.333 -97.166 -52 -125.499s-86 -42.5 -154 -42.5c-68.667 0 -120.334 14.333 -155.001 43zM73.001 1186v47.001
c0 40.667 8.5 70 25.5 88s44.5 27 82.5 27c27.333 0 47.333 -4.16699 60 -12.5s20.334 -22.166 23.001 -41.499v-78c1.33301 -8 3.16602 -13.667 5.49902 -17s5.5 -5 9.5 -5c8 0 12 9 12 27v123h94c0 -38.667 0.333008 -63.667 1 -75v-50c0 -39.333 -8.5 -68 -25.5 -86
s-44.5 -27 -82.5 -27c-26.667 0 -46.5 4.16699 -59.5 12.5s-20.833 22.166 -23.5 41.499v77c-2.66699 15.333 -7.66699 23 -15 23c-8 0 -12 -9.33301 -12 -28v-122h-94c0 39.333 -0.333008 64.666 -1 75.999z" />
    <glyph glyph-name="Umacron" unicode="&#x16a;" horiz-adv-x="497" 
d="M25 151v1209h196v-1188c0 -12.667 2.5 -22.334 7.5 -29.001s11.833 -10 20.5 -10s15.5 3.33301 20.5 10s7.5 16.334 7.5 29.001v1188h195v-1209c0 -56 -18.833 -98.167 -56.5 -126.5s-93.5 -42.5 -167.5 -42.5c-148.667 0 -223 56.333 -223 169zM110 1505h279v-102h-279
v102z" />
    <glyph glyph-name="umacron" unicode="&#x16b;" horiz-adv-x="463" 
d="M77 27c-34.667 28.667 -51.999 71.332 -51.999 127.999v910h178v-910c0 -22.667 9.66699 -34 29 -34c18.667 0 28 11.333 28 34v910h178v-913c0 -55.333 -17.333 -97.166 -52 -125.499s-86 -42.5 -154 -42.5c-68.667 0 -120.334 14.333 -155.001 43zM90.001 1210h279
v-102h-279v102z" />
    <glyph glyph-name="Ubreve" unicode="&#x16c;" horiz-adv-x="497" 
d="M25 151v1209h196v-1188c0 -12.667 2.5 -22.334 7.5 -29.001s11.833 -10 20.5 -10s15.5 3.33301 20.5 10s7.5 16.334 7.5 29.001v1188h195v-1209c0 -56 -18.833 -98.167 -56.5 -126.5s-93.5 -42.5 -167.5 -42.5c-148.667 0 -223 56.333 -223 169zM135.5 1432
c-23 20 -34.5 53 -34.5 99v154h125v-154c0 -32 8 -48 24 -48s24 16 24 48v154h124v-154c0 -46 -11.5 -79 -34.5 -99s-60.833 -30 -113.5 -30c-53.333 0 -91.5 10 -114.5 30z" />
    <glyph glyph-name="ubreve" unicode="&#x16d;" horiz-adv-x="463" 
d="M77 27c-34.667 28.667 -51.999 71.332 -51.999 127.999v910h178v-910c0 -22.667 9.66699 -34 29 -34c18.667 0 28 11.333 28 34v910h178v-913c0 -55.333 -17.333 -97.166 -52 -125.499s-86 -42.5 -154 -42.5c-68.667 0 -120.334 14.333 -155.001 43zM117.501 1135
c-23 20 -34.5 53 -34.5 99v154h125v-154c0 -32 8 -48 24 -48s24 16 24 48v154h124v-154c0 -46 -11.5 -79 -34.5 -99s-60.833 -30 -113.5 -30c-53.333 0 -91.5 10 -114.5 30z" />
    <glyph glyph-name="Uring" unicode="&#x16e;" horiz-adv-x="497" 
d="M25 151v1209h196v-1188c0 -12.667 2.5 -22.334 7.5 -29.001s11.833 -10 20.5 -10s15.5 3.33301 20.5 10s7.5 16.334 7.5 29.001v1188h195v-1209c0 -56 -18.833 -98.167 -56.5 -126.5s-93.5 -42.5 -167.5 -42.5c-148.667 0 -223 56.333 -223 169zM155 1429
c-21.333 17.333 -32.001 42.666 -32.001 75.999v78c0 33.333 10.667 58.5 32 75.5s52.666 25.5 93.999 25.5c84 0 126 -33.667 126 -101v-78c0 -33.333 -10.667 -58.666 -32 -75.999s-52.666 -26 -93.999 -26s-72.666 8.66699 -93.999 26zM272.499 1483.5
c5.66699 5 8.5 12.167 8.5 21.5v78c0 18 -10.667 27 -32 27c-22 0 -33 -9 -33 -27v-78c0 -19.333 11 -29 33 -29c10 0 17.833 2.5 23.5 7.5z" />
    <glyph glyph-name="uring" unicode="&#x16f;" horiz-adv-x="463" 
d="M77 27c-34.667 28.667 -51.999 71.332 -51.999 127.999v910h178v-910c0 -22.667 9.66699 -34 29 -34c18.667 0 28 11.333 28 34v910h178v-913c0 -55.333 -17.333 -97.166 -52 -125.499s-86 -42.5 -154 -42.5c-68.667 0 -120.334 14.333 -155.001 43zM136.001 1134
c-21.333 17.333 -32.001 42.666 -32.001 75.999v78c0 33.333 10.667 58.5 32 75.5s52.666 25.5 93.999 25.5c84 0 126 -33.667 126 -101v-78c0 -33.333 -10.667 -58.666 -32 -75.999s-52.666 -26 -93.999 -26s-72.666 8.66699 -93.999 26zM253.5 1188.5
c5.66699 5 8.5 12.167 8.5 21.5v78c0 18 -10.667 27 -32 27c-22 0 -33 -9 -33 -27v-78c0 -19.333 11 -29 33 -29c10 0 17.833 2.5 23.5 7.5z" />
    <glyph glyph-name="Uhungarumlaut" unicode="&#x170;" horiz-adv-x="497" 
d="M25 151v1209h196v-1188c0 -12.667 2.5 -22.334 7.5 -29.001s11.833 -10 20.5 -10s15.5 3.33301 20.5 10s7.5 16.334 7.5 29.001v1188h195v-1209c0 -56 -18.833 -98.167 -56.5 -126.5s-93.5 -42.5 -167.5 -42.5c-148.667 0 -223 56.333 -223 169zM179 1701l122 -2
l-76 -296h-94zM324 1701l121 -2l-76 -296h-93z" />
    <glyph glyph-name="uhungarumlaut" unicode="&#x171;" horiz-adv-x="463" 
d="M77 27c-34.667 28.667 -51.999 71.332 -51.999 127.999v910h178v-910c0 -22.667 9.66699 -34 29 -34c18.667 0 28 11.333 28 34v910h178v-913c0 -55.333 -17.333 -97.166 -52 -125.499s-86 -42.5 -154 -42.5c-68.667 0 -120.334 14.333 -155.001 43zM160.001 1406l122 -2
l-76 -296h-94zM305.001 1406l121 -2l-76 -296h-93z" />
    <glyph glyph-name="Uogonek" unicode="&#x172;" horiz-adv-x="497" 
d="M472 1360l-0.00195312 -1209c0 -70.667 -29.667 -119 -89 -145c-60.667 -66.667 -91 -137.334 -91 -212.001c0 -17.333 7 -26 21 -26c10.667 0 23.334 9.33301 38.001 28l51 -68c-31.333 -46.667 -81.666 -70 -150.999 -70c-44.667 0 -78.5 9 -101.5 27
s-34.5 44.667 -34.5 80c0 79.333 29.667 152.333 89 219c-59.333 4.66699 -104 21.167 -134 49.5s-45 67.5 -45 117.5v1209h196v-1188c0 -12.667 2.5 -22.334 7.5 -29.001s11.833 -10 20.5 -10s15.5 3.33301 20.5 10s7.5 16.334 7.5 29.001v1188h195z" />
    <glyph glyph-name="uogonek" unicode="&#x173;" horiz-adv-x="463" 
d="M438 1065l-0.000976562 -913c0 -71.333 -28.333 -120 -85 -146c-32 -32.667 -56.167 -67.5 -72.5 -104.5s-24.5 -74.833 -24.5 -113.5c0 -16.667 7 -25 21 -25c10.667 0 23.334 9.33301 38.001 28l51 -68c-30.667 -46.667 -80.667 -70 -150 -70
c-91.333 0 -137 35.667 -137 107c0 83.333 32.667 159.333 98 228c-101.333 14 -152 69.667 -152 167v910h178v-910c0 -22.667 9.66699 -34 29 -34c18.667 0 28 11.333 28 34v910h178z" />
    <glyph glyph-name="Wcircumflex" unicode="&#x174;" horiz-adv-x="751" 
d="M207 1360l29 -1022h9l30 1022h201l31 -1022h8l30 1022h199l-111 -1360h-225l-29 938h-7l-29 -938h-225l-111 1360h200zM224 1404l52 294h199l52 -294l-115 -1l-37 205l-36 -205z" />
    <glyph glyph-name="wcircumflex" unicode="&#x175;" horiz-adv-x="700" 
d="M14 1065h180l22 -669l3 -183h12l2 183l23 669h187l23 -669l2 -183h12l3 183l22 669h181l-95 -1065h-211l-25 843h-12l-23 -843h-212zM197 1109l52 294h199l52 -294l-115 -1l-37 205l-36 -205z" />
    <glyph glyph-name="Ycircumflex" unicode="&#x176;" horiz-adv-x="485" 
d="M144 425l-136 935h201l29 -693h9l26 693h204l-134 -934v-426h-199v425zM91 1404l52 294h199l52 -294l-115 -1l-37 205l-36 -205z" />
    <glyph glyph-name="ycircumflex" unicode="&#x177;" horiz-adv-x="460" 
d="M78 -177h63.999c13.333 0 21.833 6.5 25.5 19.5s5.5 28.167 5.5 45.5l6 141h-79l-86 1036h185l22 -683l3 -171h12l3 171l22 683h185l-79 -1197c-11.333 -66.667 -30.666 -112.667 -57.999 -138s-64 -38 -110 -38h-121v131zM77.999 1109l52 294h199l52 -294l-115 -1
l-37 205l-36 -205z" />
    <glyph glyph-name="Ydieresis" unicode="&#x178;" horiz-adv-x="485" 
d="M144 425l-136 935h201l29 -693h9l26 693h204l-134 -934v-426h-199v425zM114.5 1410.5c-8.33301 5 -14.166 15.667 -17.499 32s-5 42.833 -5 79.5c0 40.667 1.66699 70 5 88s9.16602 29.667 17.499 35s21.5 8 39.5 8c18.667 0 32.167 -2.66699 40.5 -8s14.333 -17 18 -35
s5.5 -47.333 5.5 -88c0 -36 -1.83301 -62.333 -5.5 -79s-9.66699 -27.5 -18 -32.5s-21.5 -7.5 -39.5 -7.5c-18.667 0 -32.167 2.5 -40.5 7.5zM286.5 1410.5c-8.33301 5 -14.332 15.834 -17.999 32.501s-5.5 43 -5.5 79c0 40 1.66699 69.167 5 87.5
s9.16602 30.166 17.499 35.499s21.5 8 39.5 8c18.667 0 32.167 -2.66699 40.5 -8s14.333 -17 18 -35s5.5 -47.333 5.5 -88c0 -36 -1.83301 -62.333 -5.5 -79s-9.66699 -27.5 -18 -32.5s-21.5 -7.5 -39.5 -7.5s-31.167 2.5 -39.5 7.5z" />
    <glyph glyph-name="Zacute" unicode="&#x179;" horiz-adv-x="425" 
d="M16 124l160 1088h-154v148h383v-123l-159 -1089h162v-148h-392v124zM188 1701l168 -2l-76 -296h-140z" />
    <glyph glyph-name="zacute" unicode="&#x17a;" horiz-adv-x="411" 
d="M16 94l138 825h-133v146h371v-92l-137 -826h139v-147h-378v94zM176 1406l168 -2l-76 -296h-140z" />
    <glyph glyph-name="Zdotaccent" unicode="&#x17b;" horiz-adv-x="425" 
d="M16 124l160 1088h-154v148h383v-123l-159 -1089h162v-148h-392v124zM168 1410.5c-10.667 5.66699 -18.334 16.5 -23.001 32.5s-7 41 -7 75c0 38 2.33301 66 7 84s12.334 30 23.001 36s27 9 49 9s38.333 -3 49 -9s18.334 -17.833 23.001 -35.5s7 -45.834 7 -84.501
c0 -34 -2.33301 -59.167 -7 -75.5s-12.334 -27.166 -23.001 -32.499s-27 -8 -49 -8s-38.333 2.83301 -49 8.5z" />
    <glyph glyph-name="zdotaccent" unicode="&#x17c;" horiz-adv-x="411" 
d="M16 94l138 825h-133v146h371v-92l-137 -826h139v-147h-378v94zM155 1115.5c-10.667 5.66699 -18.334 16.5 -23.001 32.5s-7 41 -7 75c0 38 2.33301 66 7 84s12.334 30 23.001 36s27 9 49 9s38.333 -3 49 -9s18.334 -17.833 23.001 -35.5s7 -45.834 7 -84.501
c0 -34 -2.33301 -59.167 -7 -75.5s-12.334 -27.166 -23.001 -32.499s-27 -8 -49 -8s-38.333 2.83301 -49 8.5z" />
    <glyph glyph-name="Zcaron" unicode="&#x17d;" horiz-adv-x="425" 
d="M16 124l160 1088h-154v148h383v-123l-159 -1089h162v-148h-392v124zM57 1697l122 1l37 -204l37 204l123 -1l-68 -294h-183z" />
    <glyph glyph-name="zcaron" unicode="&#x17e;" horiz-adv-x="411" 
d="M16 94l138 825h-133v146h371v-92l-137 -826h139v-147h-378v94zM45 1402l122 1l37 -204l37 204l123 -1l-68 -294h-183z" />
    <glyph glyph-name="longs" unicode="&#x17f;" horiz-adv-x="338" 
d="M54 930h-56.001v135h56v183c0 48.667 12 84.834 36 108.501s64.667 35.5 122 35.5c46.667 0 87.334 -4 122.001 -12v-113l-56 1c-10 0 -17.333 -2.33301 -22 -7s-7 -12.334 -7 -23.001v-1238h-195v930z" />
    <glyph glyph-name="florin" unicode="&#x192;" horiz-adv-x="376" 
d="M-4 114l39.999 -0.000976562c11.333 0 19.833 2.66699 25.5 8s8.83398 14.333 9.50098 27l4 781h-44v134h55l1 184c3.33301 48.667 18 84.834 44 108.501s67.667 35.5 125 35.5c46.667 0 83.667 -4 111 -12v-115l-57 2c-18.667 0 -28 -8.66699 -28 -26l-1 -177h86v-134
h-97l-6 -796c-3.33301 -48.667 -18.166 -85 -44.499 -109s-67.833 -36 -124.5 -36c-36 0 -61.333 1.83301 -76 5.5s-22.334 5.5 -23.001 5.5v114z" />
    <glyph glyph-name="Ohorn" unicode="&#x1a0;" horiz-adv-x="566" 
d="M562 1418l-0.000976562 -87c0 -44.667 -25.333 -73.334 -76 -86.001l-9 -2c7.33301 -26 11 -54 11 -84v-957c0 -72 -19.667 -126.333 -59 -163s-97.333 -55 -174 -55c-76 0 -132.5 18 -169.5 54s-58.167 90.667 -63.5 164v964c0 68.667 19.667 120.834 59 156.501
s97.333 53.5 174 53.5c78.667 0 137.334 -19 176.001 -57c4 4 6 8.33301 6 13l1 86h124zM282.999 1181c0 19.333 -9.33301 29 -28 29s-28 -9.66699 -28 -29v-1002c0 -19.333 9.33301 -29 28 -29s28 9.66699 28 29v1002z" />
    <glyph glyph-name="ohorn" unicode="&#x1a1;" 
d="M532 1107v-85.999c0 -45.333 -25.333 -74.333 -76 -87l-14 -3c0.666992 -6 1 -15.333 1 -28v-739c0 -59.333 -17.5 -104.166 -52.5 -134.499s-87.167 -45.5 -156.5 -45.5s-121.666 15.167 -156.999 45.5s-53 75.166 -53 134.499v739c0 59.333 17.667 104.166 53 134.499
s87.666 45.5 156.999 45.5c82 0 140 -21.333 174 -64v3v85h124zM262 912.001c0 22 -9.33301 33 -28 33c-19.333 0 -29 -11 -29 -33v-757c0 -22.667 9.66699 -34 29 -34c18.667 0 28 11.333 28 34v757z" />
    <glyph glyph-name="Uhorn" unicode="&#x1af;" horiz-adv-x="597" 
d="M620 1398v-87.001c0 -22.667 -6.16699 -41 -18.5 -55s-31.5 -24.333 -57.5 -31c-14.667 -3.33301 -38.667 -5.66602 -72 -6.99902v-1067c0 -56 -18.833 -98.167 -56.5 -126.5s-93.5 -42.5 -167.5 -42.5c-148.667 0 -223 56.333 -223 169v1209h196v-1188
c0 -12.667 2.5 -22.334 7.5 -29.001s11.833 -10 20.5 -10s15.5 3.33301 20.5 10s7.5 16.334 7.5 29.001v1188h195v-69c15.333 3.33301 23 10.333 23 21l1 86h124z" />
    <glyph glyph-name="uhorn" unicode="&#x1b0;" horiz-adv-x="463" 
d="M588 1105l0.000976562 -87.0029c0 -44 -25.667 -72.667 -77 -86c-14.667 -3.33301 -39 -5.66602 -73 -6.99902v-773c0 -55.333 -17.333 -97.166 -52 -125.499s-86 -42.5 -154 -42.5c-68.667 0 -120.334 14.333 -155.001 43s-52 71.334 -52 128.001v910h178v-910
c0 -22.667 9.66699 -34 29 -34c18.667 0 28 11.333 28 34v910h178v-67c16.667 3.33301 25 10.333 25 21v86h125z" />
    <glyph glyph-name="uni01CD" unicode="&#x1cd;" horiz-adv-x="481" 
d="M269 212h-56l-6 -212h-200l121 1360h225l121 -1360h-199zM265 330l-21 692h-8l-20 -692h49zM80 1697l122 1l37 -204l37 204l123 -1l-68 -294h-183z" />
    <glyph glyph-name="uni01CE" unicode="&#x1ce;" horiz-adv-x="462" 
d="M57 20c-22.667 24 -34 57 -34 99v384c0 35.333 7.16699 62.5 21.5 81.5s35.5 32 63.5 39s65.667 10.5 113 10.5l39 -1v293c0 24.667 -9.66699 37 -29 37c-18.667 0 -28 -11 -28 -33v-260h-166v259c0.666992 53.333 17.5 92.333 50.5 117s86.833 37 161.5 37
c56.667 0 102 -12.167 136 -36.5s51 -61.5 51 -111.5v-935h-165l-20 56c-18.667 -48 -54 -72 -106 -72c-36 0 -65.333 12 -88 36zM260 149v408h-23c-22.667 -0.666992 -34 -13.334 -34 -38.001v-383c0 -9.33301 2.16699 -16.333 6.5 -21s10.5 -7 18.5 -7
c20 -1.33301 30.667 12.334 32 41.001zM75 1420l122 1l37 -204l37 204l123 -1l-68 -294h-183z" />
    <glyph glyph-name="uni01CF" unicode="&#x1cf;" horiz-adv-x="251" 
d="M26 1360h199v-1360h-199v1360zM-33 1697l122 1l37 -204l37 204l123 -1l-68 -294h-183z" />
    <glyph glyph-name="uni01D0" unicode="&#x1d0;" horiz-adv-x="247" 
d="M26 1065h195v-1065h-195v1065zM-35 1402l122 1l37 -204l37 204l123 -1l-68 -294h-183z" />
    <glyph glyph-name="uni01D1" unicode="&#x1d1;" horiz-adv-x="510" 
d="M22 1166c0 68.667 19.667 120.833 59 156.5s97.333 53.5 174 53.5s134.667 -18.333 174 -55s59 -90.667 59 -162v-957c0 -72 -19.667 -126.333 -59 -163s-97.333 -55 -174 -55c-76 0 -132.5 18 -169.5 54s-58.167 90.667 -63.5 164v964zM255 149.999
c18.667 0 28 9.66699 28 29v1002c0 19.333 -9.33301 29 -28 29s-28 -9.66699 -28 -29v-1002c0 -19.333 9.33301 -29 28 -29zM96 1713l122 1l37 -204l37 204l123 -1l-68 -294h-183z" />
    <glyph glyph-name="uni01D2" unicode="&#x1d2;" 
d="M77 29.5c-35.333 30.333 -53 75.166 -53 134.499v739c0 59.333 17.667 104.166 53 134.499s87.666 45.5 156.999 45.5s121.5 -15.167 156.5 -45.5s52.5 -75.166 52.5 -134.499v-739c0 -59.333 -17.5 -104.166 -52.5 -134.499s-87.167 -45.5 -156.5 -45.5
s-121.666 15.167 -156.999 45.5zM262 155v757c0 22 -9.33301 33 -28 33c-19.333 0 -29 -11 -29 -33v-757c0 -22.667 9.66699 -34 29 -34c18.667 0 28 11.333 28 34zM74 1420l122 1l37 -204l37 204l123 -1l-68 -294h-183z" />
    <glyph glyph-name="uni01D3" unicode="&#x1d3;" horiz-adv-x="497" 
d="M25 151v1209h196v-1188c0 -12.667 2.5 -22.334 7.5 -29.001s11.833 -10 20.5 -10s15.5 3.33301 20.5 10s7.5 16.334 7.5 29.001v1188h195v-1209c0 -56 -18.833 -98.167 -56.5 -126.5s-93.5 -42.5 -167.5 -42.5c-148.667 0 -223 56.333 -223 169zM90 1697l122 1l37 -204
l37 204l123 -1l-68 -294h-183z" />
    <glyph glyph-name="uni01D4" unicode="&#x1d4;" horiz-adv-x="463" 
d="M77 27c-34.667 28.667 -51.999 71.332 -51.999 127.999v910h178v-910c0 -22.667 9.66699 -34 29 -34c18.667 0 28 11.333 28 34v910h178v-913c0 -55.333 -17.333 -97.166 -52 -125.499s-86 -42.5 -154 -42.5c-68.667 0 -120.334 14.333 -155.001 43zM70.001 1402l122 1
l37 -204l37 204l123 -1l-68 -294h-183z" />
    <glyph glyph-name="uni01D5" unicode="&#x1d5;" horiz-adv-x="497" 
d="M25 151v1209h196v-1188c0 -12.667 2.5 -22.334 7.5 -29.001s11.833 -10 20.5 -10s15.5 3.33301 20.5 10s7.5 16.334 7.5 29.001v1188h195v-1209c0 -56 -18.833 -98.167 -56.5 -126.5s-93.5 -42.5 -167.5 -42.5c-148.667 0 -223 56.333 -223 169zM122.5 1410.5
c-8.33301 5 -14.166 15.667 -17.499 32s-5 42.833 -5 79.5c0 40.667 1.66699 70 5 88s9.16602 29.667 17.499 35s21.5 8 39.5 8c18.667 0 32.167 -2.66699 40.5 -8s14.333 -17 18 -35s5.5 -47.333 5.5 -88c0 -36 -1.83301 -62.333 -5.5 -79s-9.66699 -27.5 -18 -32.5
s-21.5 -7.5 -39.5 -7.5c-18.667 0 -32.167 2.5 -40.5 7.5zM294.5 1410.5c-8.33301 5 -14.332 15.834 -17.999 32.501s-5.5 43 -5.5 79c0 40 1.66699 69.167 5 87.5s9.16602 30.166 17.499 35.499s21.5 8 39.5 8c18.667 0 32.167 -2.66699 40.5 -8s14.333 -17 18 -35
s5.5 -47.333 5.5 -88c0 -36 -1.83301 -62.333 -5.5 -79s-9.66699 -27.5 -18 -32.5s-21.5 -7.5 -39.5 -7.5s-31.167 2.5 -39.5 7.5zM109.001 1799h279v-102h-279v102z" />
    <glyph glyph-name="uni01D6" unicode="&#x1d6;" horiz-adv-x="463" 
d="M77 27c-34.667 28.667 -51.999 71.332 -51.999 127.999v910h178v-910c0 -22.667 9.66699 -34 29 -34c18.667 0 28 11.333 28 34v910h178v-913c0 -55.333 -17.333 -97.166 -52 -125.499s-86 -42.5 -154 -42.5c-68.667 0 -120.334 14.333 -155.001 43zM102.501 1115.5
c-8.33301 5 -14.166 15.667 -17.499 32s-5 42.833 -5 79.5c0 40.667 1.66699 70 5 88s9.16602 29.667 17.499 35s21.5 8 39.5 8c18.667 0 32.167 -2.66699 40.5 -8s14.333 -17 18 -35s5.5 -47.333 5.5 -88c0 -36 -1.83301 -62.333 -5.5 -79s-9.66699 -27.5 -18 -32.5
s-21.5 -7.5 -39.5 -7.5c-18.667 0 -32.167 2.5 -40.5 7.5zM274.501 1115.5c-8.33301 5 -14.332 15.834 -17.999 32.501s-5.5 43 -5.5 79c0 40 1.66699 69.167 5 87.5s9.16602 30.166 17.499 35.499s21.5 8 39.5 8c18.667 0 32.167 -2.66699 40.5 -8s14.333 -17 18 -35
s5.5 -47.333 5.5 -88c0 -36 -1.83301 -62.333 -5.5 -79s-9.66699 -27.5 -18 -32.5s-21.5 -7.5 -39.5 -7.5s-31.167 2.5 -39.5 7.5zM89.002 1504h279v-102h-279v102z" />
    <glyph glyph-name="uni01D7" unicode="&#x1d7;" horiz-adv-x="497" 
d="M25 151v1209h196v-1188c0 -12.667 2.5 -22.334 7.5 -29.001s11.833 -10 20.5 -10s15.5 3.33301 20.5 10s7.5 16.334 7.5 29.001v1188h195v-1209c0 -56 -18.833 -98.167 -56.5 -126.5s-93.5 -42.5 -167.5 -42.5c-148.667 0 -223 56.333 -223 169zM122.5 1410.5
c-8.33301 5 -14.166 15.667 -17.499 32s-5 42.833 -5 79.5c0 40.667 1.66699 70 5 88s9.16602 29.667 17.499 35s21.5 8 39.5 8c18.667 0 32.167 -2.66699 40.5 -8s14.333 -17 18 -35s5.5 -47.333 5.5 -88c0 -36 -1.83301 -62.333 -5.5 -79s-9.66699 -27.5 -18 -32.5
s-21.5 -7.5 -39.5 -7.5c-18.667 0 -32.167 2.5 -40.5 7.5zM294.5 1410.5c-8.33301 5 -14.332 15.834 -17.999 32.501s-5.5 43 -5.5 79c0 40 1.66699 69.167 5 87.5s9.16602 30.166 17.499 35.499s21.5 8 39.5 8c18.667 0 32.167 -2.66699 40.5 -8s14.333 -17 18 -35
s5.5 -47.333 5.5 -88c0 -36 -1.83301 -62.333 -5.5 -79s-9.66699 -27.5 -18 -32.5s-21.5 -7.5 -39.5 -7.5s-31.167 2.5 -39.5 7.5zM220.001 1995l168 -2l-76 -296h-140z" />
    <glyph glyph-name="uni01D8" unicode="&#x1d8;" horiz-adv-x="463" 
d="M77 27c-34.667 28.667 -51.999 71.332 -51.999 127.999v910h178v-910c0 -22.667 9.66699 -34 29 -34c18.667 0 28 11.333 28 34v910h178v-913c0 -55.333 -17.333 -97.166 -52 -125.499s-86 -42.5 -154 -42.5c-68.667 0 -120.334 14.333 -155.001 43zM102.501 1115.5
c-8.33301 5 -14.166 15.667 -17.499 32s-5 42.833 -5 79.5c0 40.667 1.66699 70 5 88s9.16602 29.667 17.499 35s21.5 8 39.5 8c18.667 0 32.167 -2.66699 40.5 -8s14.333 -17 18 -35s5.5 -47.333 5.5 -88c0 -36 -1.83301 -62.333 -5.5 -79s-9.66699 -27.5 -18 -32.5
s-21.5 -7.5 -39.5 -7.5c-18.667 0 -32.167 2.5 -40.5 7.5zM274.501 1115.5c-8.33301 5 -14.332 15.834 -17.999 32.501s-5.5 43 -5.5 79c0 40 1.66699 69.167 5 87.5s9.16602 30.166 17.499 35.499s21.5 8 39.5 8c18.667 0 32.167 -2.66699 40.5 -8s14.333 -17 18 -35
s5.5 -47.333 5.5 -88c0 -36 -1.83301 -62.333 -5.5 -79s-9.66699 -27.5 -18 -32.5s-21.5 -7.5 -39.5 -7.5s-31.167 2.5 -39.5 7.5zM200.002 1700l168 -2l-76 -296h-140z" />
    <glyph glyph-name="uni01D9" unicode="&#x1d9;" horiz-adv-x="497" 
d="M25 151v1209h196v-1188c0 -12.667 2.5 -22.334 7.5 -29.001s11.833 -10 20.5 -10s15.5 3.33301 20.5 10s7.5 16.334 7.5 29.001v1188h195v-1209c0 -56 -18.833 -98.167 -56.5 -126.5s-93.5 -42.5 -167.5 -42.5c-148.667 0 -223 56.333 -223 169zM122.5 1410.5
c-8.33301 5 -14.166 15.667 -17.499 32s-5 42.833 -5 79.5c0 40.667 1.66699 70 5 88s9.16602 29.667 17.499 35s21.5 8 39.5 8c18.667 0 32.167 -2.66699 40.5 -8s14.333 -17 18 -35s5.5 -47.333 5.5 -88c0 -36 -1.83301 -62.333 -5.5 -79s-9.66699 -27.5 -18 -32.5
s-21.5 -7.5 -39.5 -7.5c-18.667 0 -32.167 2.5 -40.5 7.5zM294.5 1410.5c-8.33301 5 -14.332 15.834 -17.999 32.501s-5.5 43 -5.5 79c0 40 1.66699 69.167 5 87.5s9.16602 30.166 17.499 35.499s21.5 8 39.5 8c18.667 0 32.167 -2.66699 40.5 -8s14.333 -17 18 -35
s5.5 -47.333 5.5 -88c0 -36 -1.83301 -62.333 -5.5 -79s-9.66699 -27.5 -18 -32.5s-21.5 -7.5 -39.5 -7.5s-31.167 2.5 -39.5 7.5zM89.001 1991l122 1l37 -204l37 204l123 -1l-68 -294h-183z" />
    <glyph glyph-name="uni01DA" unicode="&#x1da;" horiz-adv-x="463" 
d="M77 27c-34.667 28.667 -51.999 71.332 -51.999 127.999v910h178v-910c0 -22.667 9.66699 -34 29 -34c18.667 0 28 11.333 28 34v910h178v-913c0 -55.333 -17.333 -97.166 -52 -125.499s-86 -42.5 -154 -42.5c-68.667 0 -120.334 14.333 -155.001 43zM102.501 1115.5
c-8.33301 5 -14.166 15.667 -17.499 32s-5 42.833 -5 79.5c0 40.667 1.66699 70 5 88s9.16602 29.667 17.499 35s21.5 8 39.5 8c18.667 0 32.167 -2.66699 40.5 -8s14.333 -17 18 -35s5.5 -47.333 5.5 -88c0 -36 -1.83301 -62.333 -5.5 -79s-9.66699 -27.5 -18 -32.5
s-21.5 -7.5 -39.5 -7.5c-18.667 0 -32.167 2.5 -40.5 7.5zM274.501 1115.5c-8.33301 5 -14.332 15.834 -17.999 32.501s-5.5 43 -5.5 79c0 40 1.66699 69.167 5 87.5s9.16602 30.166 17.499 35.499s21.5 8 39.5 8c18.667 0 32.167 -2.66699 40.5 -8s14.333 -17 18 -35
s5.5 -47.333 5.5 -88c0 -36 -1.83301 -62.333 -5.5 -79s-9.66699 -27.5 -18 -32.5s-21.5 -7.5 -39.5 -7.5s-31.167 2.5 -39.5 7.5zM69.002 1696l122 1l37 -204l37 204l123 -1l-68 -294h-183z" />
    <glyph glyph-name="uni01DB" unicode="&#x1db;" horiz-adv-x="497" 
d="M25 151v1209h196v-1188c0 -12.667 2.5 -22.334 7.5 -29.001s11.833 -10 20.5 -10s15.5 3.33301 20.5 10s7.5 16.334 7.5 29.001v1188h195v-1209c0 -56 -18.833 -98.167 -56.5 -126.5s-93.5 -42.5 -167.5 -42.5c-148.667 0 -223 56.333 -223 169zM122.5 1410.5
c-8.33301 5 -14.166 15.667 -17.499 32s-5 42.833 -5 79.5c0 40.667 1.66699 70 5 88s9.16602 29.667 17.499 35s21.5 8 39.5 8c18.667 0 32.167 -2.66699 40.5 -8s14.333 -17 18 -35s5.5 -47.333 5.5 -88c0 -36 -1.83301 -62.333 -5.5 -79s-9.66699 -27.5 -18 -32.5
s-21.5 -7.5 -39.5 -7.5c-18.667 0 -32.167 2.5 -40.5 7.5zM294.5 1410.5c-8.33301 5 -14.332 15.834 -17.999 32.501s-5.5 43 -5.5 79c0 40 1.66699 69.167 5 87.5s9.16602 30.166 17.499 35.499s21.5 8 39.5 8c18.667 0 32.167 -2.66699 40.5 -8s14.333 -17 18 -35
s5.5 -47.333 5.5 -88c0 -36 -1.83301 -62.333 -5.5 -79s-9.66699 -27.5 -18 -32.5s-21.5 -7.5 -39.5 -7.5s-31.167 2.5 -39.5 7.5zM104.001 1993l168 2l48 -298h-140z" />
    <glyph glyph-name="uni01DC" unicode="&#x1dc;" horiz-adv-x="463" 
d="M77 27c-34.667 28.667 -51.999 71.332 -51.999 127.999v910h178v-910c0 -22.667 9.66699 -34 29 -34c18.667 0 28 11.333 28 34v910h178v-913c0 -55.333 -17.333 -97.166 -52 -125.499s-86 -42.5 -154 -42.5c-68.667 0 -120.334 14.333 -155.001 43zM102.501 1115.5
c-8.33301 5 -14.166 15.667 -17.499 32s-5 42.833 -5 79.5c0 40.667 1.66699 70 5 88s9.16602 29.667 17.499 35s21.5 8 39.5 8c18.667 0 32.167 -2.66699 40.5 -8s14.333 -17 18 -35s5.5 -47.333 5.5 -88c0 -36 -1.83301 -62.333 -5.5 -79s-9.66699 -27.5 -18 -32.5
s-21.5 -7.5 -39.5 -7.5c-18.667 0 -32.167 2.5 -40.5 7.5zM274.501 1115.5c-8.33301 5 -14.332 15.834 -17.999 32.501s-5.5 43 -5.5 79c0 40 1.66699 69.167 5 87.5s9.16602 30.166 17.499 35.499s21.5 8 39.5 8c18.667 0 32.167 -2.66699 40.5 -8s14.333 -17 18 -35
s5.5 -47.333 5.5 -88c0 -36 -1.83301 -62.333 -5.5 -79s-9.66699 -27.5 -18 -32.5s-21.5 -7.5 -39.5 -7.5s-31.167 2.5 -39.5 7.5zM84.002 1698l168 2l48 -298h-140z" />
    <glyph glyph-name="uni01DE" unicode="&#x1de;" horiz-adv-x="481" 
d="M269 212h-56l-6 -212h-200l121 1360h225l121 -1360h-199zM265 330l-21 692h-8l-20 -692h49zM111.5 1410.5c-8.33301 5 -14.166 15.667 -17.499 32s-5 42.833 -5 79.5c0 40.667 1.66699 70 5 88s9.16602 29.667 17.499 35s21.5 8 39.5 8c18.667 0 32.167 -2.66699 40.5 -8
s14.333 -17 18 -35s5.5 -47.333 5.5 -88c0 -36 -1.83301 -62.333 -5.5 -79s-9.66699 -27.5 -18 -32.5s-21.5 -7.5 -39.5 -7.5c-18.667 0 -32.167 2.5 -40.5 7.5zM283.5 1410.5c-8.33301 5 -14.332 15.834 -17.999 32.501s-5.5 43 -5.5 79c0 40 1.66699 69.167 5 87.5
s9.16602 30.166 17.499 35.499s21.5 8 39.5 8c18.667 0 32.167 -2.66699 40.5 -8s14.333 -17 18 -35s5.5 -47.333 5.5 -88c0 -36 -1.83301 -62.333 -5.5 -79s-9.66699 -27.5 -18 -32.5s-21.5 -7.5 -39.5 -7.5s-31.167 2.5 -39.5 7.5zM98.001 1799h279v-102h-279v102z" />
    <glyph glyph-name="uni01DF" unicode="&#x1df;" horiz-adv-x="462" 
d="M57 20c-22.667 24 -34 57 -34 99v384c0 35.333 7.16699 62.5 21.5 81.5s35.5 32 63.5 39s65.667 10.5 113 10.5l39 -1v293c0 24.667 -9.66699 37 -29 37c-18.667 0 -28 -11 -28 -33v-260h-166v259c0.666992 53.333 17.5 92.333 50.5 117s86.833 37 161.5 37
c56.667 0 102 -12.167 136 -36.5s51 -61.5 51 -111.5v-935h-165l-20 56c-18.667 -48 -54 -72 -106 -72c-36 0 -65.333 12 -88 36zM260 149v408h-23c-22.667 -0.666992 -34 -13.334 -34 -38.001v-383c0 -9.33301 2.16699 -16.333 6.5 -21s10.5 -7 18.5 -7
c20 -1.33301 30.667 12.334 32 41.001zM107.5 1133.5c-8.33301 5 -14.166 15.667 -17.499 32s-5 42.833 -5 79.5c0 40.667 1.66699 70 5 88s9.16602 29.667 17.499 35s21.5 8 39.5 8c18.667 0 32.167 -2.66699 40.5 -8s14.333 -17 18 -35s5.5 -47.333 5.5 -88
c0 -36 -1.83301 -62.333 -5.5 -79s-9.66699 -27.5 -18 -32.5s-21.5 -7.5 -39.5 -7.5c-18.667 0 -32.167 2.5 -40.5 7.5zM279.5 1133.5c-8.33301 5 -14.332 15.834 -17.999 32.501s-5.5 43 -5.5 79c0 40 1.66699 69.167 5 87.5s9.16602 30.166 17.499 35.499s21.5 8 39.5 8
c18.667 0 32.167 -2.66699 40.5 -8s14.333 -17 18 -35s5.5 -47.333 5.5 -88c0 -36 -1.83301 -62.333 -5.5 -79s-9.66699 -27.5 -18 -32.5s-21.5 -7.5 -39.5 -7.5s-31.167 2.5 -39.5 7.5zM94.001 1522h279v-102h-279v102z" />
    <glyph glyph-name="Gcaron" unicode="&#x1e6;" horiz-adv-x="510" 
d="M81 38c-39.333 36 -59.001 89.6689 -59.001 161.002v962c0 71.333 19.667 125 59 161s97.333 54 174 54c75.333 0 132.333 -15.833 171 -47.5s58 -78.834 58 -141.501v-427h-201v439c0 19.333 -9.33301 29 -28 29c-19.333 0 -29 -9.66699 -29 -29v-1057
c0 -20.667 9.66699 -30.334 29 -29.001c12.667 0 22.334 2.66699 29.001 8v486h-25v107h226v-677c-56 -35.333 -132.667 -53 -230 -53c-76.667 0 -134.667 18 -174 54zM94.999 1673l122 1l37 -164l37 164l123 -1l-68 -254h-183z" />
    <glyph glyph-name="gcaron" unicode="&#x1e7;" horiz-adv-x="450" 
d="M66 -322.5c-30.667 19.667 -45.999 50.501 -45.999 92.501v318c0 15.333 4 27.333 12 36s20.667 14.667 38 18c-16.667 6 -28.834 15.5 -36.501 28.5s-11.5 30.167 -11.5 51.5v45c0 18.667 2.66699 34.667 8 48s14.333 25.666 27 36.999c-18.667 19.333 -28 50 -28 92
v492c0.666992 51.333 15.667 88.666 45 111.999s75.666 35 138.999 35c49.333 0 88.666 -7.33301 117.999 -22c12 16 30.333 24 55 24h65v-112h-40c-1.33301 8 -3.66602 14 -6.99902 18s-8.66602 6.33301 -15.999 7c6 -12 9 -32.667 9 -62v-492
c0 -50 -14.667 -86.667 -44 -110s-76 -35 -140 -35c-13.333 0 -29.333 1 -48 3l-7 -5v-45c0 -14 11.667 -21.333 35 -22c28 -1.33301 51.667 -0.666016 71 2.00098c16 1.33301 27.667 2 35 2c42.667 0 74.167 -10.833 94.5 -32.5s30.833 -55.167 31.5 -100.5v-301
c0 -52.667 -17 -91.167 -51 -115.5s-88.333 -36.5 -163 -36.5c-66 0 -114.333 9.83301 -145 29.5zM235.501 417.001c4.33301 6 6.5 16 6.5 30v490c0 14 -2.16699 24.167 -6.5 30.5s-11.5 9.5 -21.5 9.5s-17.333 -3.16699 -22 -9.5s-7 -16.5 -7 -30.5v-490
c0 -14 2.33301 -24 7 -30s12 -9 22 -9s17.167 3 21.5 9zM242.001 -209.999v299c0 24.667 -9 37 -27 37h-30v-337c0 -21.333 9.33301 -32 28 -32c19.333 0 29 11 29 33zM54.001 1380l122 1l37 -164l37 164l123 -1l-68 -254h-183z" />
    <glyph glyph-name="Aringacute" unicode="&#x1fa;" horiz-adv-x="481" 
d="M269 212h-56l-6 -212h-200l121 1360h225l121 -1360h-199zM265 330l-21 692h-8l-20 -692h49zM145 1429c-21.333 17.333 -32.001 42.666 -32.001 75.999v78c0 33.333 10.667 58.5 32 75.5s52.666 25.5 93.999 25.5c84 0 126 -33.667 126 -101v-78
c0 -33.333 -10.667 -58.666 -32 -75.999s-52.666 -26 -93.999 -26s-72.666 8.66699 -93.999 26zM262.499 1483.5c5.66699 5 8.5 12.167 8.5 21.5v78c0 18 -10.667 27 -32 27c-22 0 -33 -9 -33 -27v-78c0 -19.333 11 -29 33 -29c10 0 17.833 2.5 23.5 7.5zM209.999 1976
l168 -3l-76 -252h-140z" />
    <glyph glyph-name="aringacute" unicode="&#x1fb;" horiz-adv-x="462" 
d="M57 20c-22.667 24 -34 57 -34 99v384c0 35.333 7.16699 62.5 21.5 81.5s35.5 32 63.5 39s65.667 10.5 113 10.5l39 -1v293c0 24.667 -9.66699 37 -29 37c-18.667 0 -28 -11 -28 -33v-260h-166v259c0.666992 53.333 17.5 92.333 50.5 117s86.833 37 161.5 37
c56.667 0 102 -12.167 136 -36.5s51 -61.5 51 -111.5v-935h-165l-20 56c-18.667 -48 -54 -72 -106 -72c-36 0 -65.333 12 -88 36zM260 149v408h-23c-22.667 -0.666992 -34 -13.334 -34 -38.001v-383c0 -9.33301 2.16699 -16.333 6.5 -21s10.5 -7 18.5 -7
c20 -1.33301 30.667 12.334 32 41.001zM140 1152c-21.333 17.333 -32.001 42.666 -32.001 75.999v78c0 33.333 10.667 58.5 32 75.5s52.666 25.5 93.999 25.5c84 0 126 -33.667 126 -101v-78c0 -33.333 -10.667 -58.666 -32 -75.999s-52.666 -26 -93.999 -26
s-72.666 8.66699 -93.999 26zM257.499 1206.5c5.66699 5 8.5 12.167 8.5 21.5v78c0 18 -10.667 27 -32 27c-22 0 -33 -9 -33 -27v-78c0 -19.333 11 -29 33 -29c10 0 17.833 2.5 23.5 7.5zM205.999 1700l168 -3l-76 -252h-140z" />
    <glyph glyph-name="AEacute" unicode="&#x1fc;" horiz-adv-x="643" 
d="M183 1360h441v-141h-141v-489h112v-110h-112v-483h143v-137h-342v214h-55l-14 -214h-199zM284 332l2 690h-8l-7 -201l-32 -489h45zM411 1701l168 -2l-76 -296h-140z" />
    <glyph glyph-name="aeacute" unicode="&#x1fd;" horiz-adv-x="704" 
d="M334 39c-14 -16.667 -34.832 -30 -62.499 -40s-57.834 -15 -90.501 -15c-51.333 0 -90.333 11.333 -117 34s-40 56.334 -40 101.001v390c0 41.333 14.5 72.5 43.5 93.5s71.833 31.5 128.5 31.5l65 -1v293c0 24.667 -9.33301 37 -28 37s-28 -9.66699 -28 -29v-264h-166
v270c0 95.333 65.333 143 196 143c54.667 0 96.667 -8.33301 126 -25c28 16.667 69.667 25 125 25c64 0 112.667 -15.167 146 -45.5s50 -74.833 50 -133.5c0 -50 -0.333008 -93.5 -1 -130.5s-1.33398 -67.5 -2.00098 -91.5c-2 -68.667 -3 -134.334 -3 -197.001h-234v-368
c0 -19.333 9.33301 -29 28 -29s28 9.66699 28 29v311h174v-307c-8.66699 -44 -30 -77.833 -64 -101.5s-80 -35.5 -138 -35.5c-63.333 0 -108.666 18.333 -135.999 55zM498.001 574v360c0 19.333 -9.33301 29 -28 29s-28 -9.66699 -28 -29v-360h56zM261.001 149v408h-23
c-22 -0.666992 -33 -13.334 -33 -38.001v-383c0 -18.667 8.33301 -28 25 -28c20.667 -1.33301 31 12.334 31 41.001zM333.001 1424l168 -2l-76 -296h-140z" />
    <glyph glyph-name="Oslashacute" unicode="&#x1fe;" horiz-adv-x="514" 
d="M488 1159v-957.001c0 -72 -19.667 -126.333 -59 -163s-97.333 -55 -174 -55c-38 0 -70.333 4.33301 -97 13l-14 -65l-92 34l19 87c-28.667 35.333 -45 85 -49 149v964c0 68.667 19.667 120.834 59 156.501s97.333 53.5 174 53.5c40 0 75 -5 105 -15l14 63l93 -39l-19 -85
c26.667 -34.667 40 -81.667 40 -141zM227 757.999l56 254v169c0 19.333 -9.33301 29 -28 29s-28 -9.66699 -28 -29v-423zM283 178.999v378l-56 -252v-126c0 -19.333 9.33301 -29 28 -29s28 9.66699 28 29zM227 1717l168 -2l-76 -296h-140z" />
    <glyph glyph-name="oslashacute" unicode="&#x1ff;" horiz-adv-x="460" 
d="M409 1018c22.667 -28.667 34.001 -67 34.001 -115v-739c0 -59.333 -17.5 -104.166 -52.5 -134.499s-87.167 -45.5 -156.5 -45.5c-16.667 0 -32.667 1 -48 3l-21 -73l-143 60l34 77c-21.333 29.333 -32 67 -32 113v739c0 59.333 17.667 104.166 53 134.499
s87.666 45.5 156.999 45.5c20 0 40.667 -1.66699 62 -5l23 69l125 -57zM262.001 912c0 22 -9.33301 33 -28 33c-19.333 0 -29 -11 -29 -33v-757c0 -22.667 9.66699 -34 29 -34c18.667 0 28 11.333 28 34v757zM199.001 1425l168 -3l-76 -252h-140z" />
    <glyph glyph-name="uni0218" unicode="&#x218;" horiz-adv-x="473" 
d="M25 148v306h181v-307c1.33301 -19.333 11 -29 29 -29c8.66699 0 15.5 2.5 20.5 7.5s7.5 12.167 7.5 21.5c0 80.667 -3 144.667 -9 192c-6 58.667 -15.167 111.167 -27.5 157.5s-25.5 86 -39.5 119s-32 71.833 -54 116.5c-24.667 49.333 -44 91.333 -58 126
s-25.667 76.5 -35 125.5s-14 106.167 -14 171.5v54c0.666992 58 18.167 100.333 52.5 127s84.833 40 151.5 40c70.667 0 123.5 -14.5 158.5 -43.5s52.5 -69.5 52.5 -121.5v-229h-175v230c0 9.33301 -2.5 16.5 -7.5 21.5s-11.833 7.5 -20.5 7.5s-15.667 -2.5 -21 -7.5
s-8 -12.167 -8 -21.5c0 -44.667 3.33301 -88.667 10 -132c7.33301 -48 18.333 -90.833 33 -128.5s34.667 -82.834 60 -135.501c29.333 -59.333 53 -112.833 71 -160.5s33.333 -108.167 46 -181.5s19 -160.666 19 -261.999v-72c-0.666992 -51.333 -19.167 -90.333 -55.5 -117
s-85.833 -40 -148.5 -40c-146 0 -219 55 -219 165zM148 -64h179l-61 -334h-145z" />
    <glyph glyph-name="uni0219" unicode="&#x219;" horiz-adv-x="436" 
d="M70.5 23.5c-31 27 -46.5 60.8369 -46.5 101.504v242l167 -4v-241c0 -8 2.33301 -14.667 7 -20s11.667 -8 21 -8c8.66699 0 15.5 2.5 20.5 7.5s7.5 12.167 7.5 21.5c0 42 -2.66699 93.667 -8 155l-3 38c-4.66699 41.333 -14 75.166 -28 101.499s-34.333 56.5 -61 90.5
s-48 64.667 -64 92s-29.667 64.166 -41 110.499s-17 103.5 -17 171.5v56c0 47.333 16.167 83 48.5 107s78.833 36 139.5 36c62 0 109.667 -12.5 143 -37.5s50.333 -59.833 51 -104.5v-207l-162 3v210c0 6 -2.33301 11.667 -7 17s-11.667 8 -21 8
c-10 0 -17.167 -2.83301 -21.5 -8.5s-6.5 -11.5 -6.5 -17.5c0 -52.667 4.66699 -97.667 14 -135c4.66699 -36.667 11.667 -67 21 -91s19.5 -43.333 30.5 -58s25.167 -31.334 42.5 -50.001c25.333 -26.667 45.5 -52.834 60.5 -78.501s27.833 -65.667 38.5 -120
s16 -127.833 16 -220.5v-72c0 -42.667 -17.167 -76 -51.5 -100s-79.5 -36 -135.5 -36c-72 0 -123.5 13.5 -154.5 40.5zM132 -63.9961h179l-61 -334h-145z" />
    <glyph glyph-name="uni021A" unicode="&#x21a;" horiz-adv-x="370" 
d="M85 1208h-79v152h356v-152h-79v-1208h-198v1208zM98 -47h179l-61 -334h-145z" />
    <glyph glyph-name="uni021B" unicode="&#x21b;" horiz-adv-x="302" 
d="M84.5 40.5c-25.667 27 -38.5 65.499 -38.5 115.499v773h-45v121l52 30l45 231l143 1v-247h65v-136h-66v-758c0 -9.33301 2.83301 -17.166 8.5 -23.499s13.167 -9.5 22.5 -9.5h35v-138h-114c-46 0 -81.833 13.5 -107.5 40.5zM107 -47.001h179l-61 -334h-145z" />
    <glyph glyph-name="uni0228" unicode="&#x228;" horiz-adv-x="375" 
d="M255 0l-5.99902 -100.999c25.333 -4.66699 44.666 -15.834 57.999 -33.501s20 -41.5 20 -71.5v-126c0 -40.667 -11.833 -71.5 -35.5 -92.5s-58.5 -31.5 -104.5 -31.5c-36 0 -66 5.66699 -90 17l17 95c8 -4 20.333 -6 37 -6c24 0 36 8.66699 36 26v127
c0 18 -21 27.667 -63 29l13 168h-111v1360h340v-141h-138v-489h109v-110h-109v-483h140v-137h-113z" />
    <glyph glyph-name="uni0229" unicode="&#x229;" horiz-adv-x="466" 
d="M204 485l0.000976562 -368c0 -19.333 9.33301 -29 28 -29c19.333 0 29 9.66699 29 29v311h173v-307c-14 -74 -61 -118 -141 -132l-8 -116c52 -10 78 -45 78 -105v-126c0 -82.667 -46.667 -124 -140 -124c-38 0 -68 5.66699 -90 17l17 94c10 -3.33301 22.333 -5 37 -5
c24 0 36 8.66699 36 26v126c0 19.333 -20.667 29 -62 29l13 183c-100.667 16 -151 76 -151 180v731c0 60.667 17.5 106.5 52.5 137.5s87.167 46.5 156.5 46.5s121.666 -15 156.999 -45s53 -74.667 53 -134l-4 -419h-234zM204.001 938v-360h57v360
c0 19.333 -9.66699 29 -29 29c-18.667 0 -28 -9.66699 -28 -29z" />
    <glyph glyph-name="uni022A" unicode="&#x22a;" horiz-adv-x="510" 
d="M22 1166c0 68.667 19.667 120.833 59 156.5s97.333 53.5 174 53.5s134.667 -18.333 174 -55s59 -90.667 59 -162v-957c0 -72 -19.667 -126.333 -59 -163s-97.333 -55 -174 -55c-76 0 -132.5 18 -169.5 54s-58.167 90.667 -63.5 164v964zM255 149.999
c18.667 0 28 9.66699 28 29v1002c0 19.333 -9.33301 29 -28 29s-28 -9.66699 -28 -29v-1002c0 -19.333 9.33301 -29 28 -29zM127.5 1426.5c-8.33301 5 -14.166 15.667 -17.499 32s-5 42.833 -5 79.5c0 40.667 1.66699 70 5 88s9.16602 29.667 17.499 35s21.5 8 39.5 8
c18.667 0 32.167 -2.66699 40.5 -8s14.333 -17 18 -35s5.5 -47.333 5.5 -88c0 -36 -1.83301 -62.333 -5.5 -79s-9.66699 -27.5 -18 -32.5s-21.5 -7.5 -39.5 -7.5c-18.667 0 -32.167 2.5 -40.5 7.5zM299.5 1426.5c-8.33301 5 -14.332 15.834 -17.999 32.501s-5.5 43 -5.5 79
c0 40 1.66699 69.167 5 87.5s9.16602 30.166 17.499 35.499s21.5 8 39.5 8c18.667 0 32.167 -2.66699 40.5 -8s14.333 -17 18 -35s5.5 -47.333 5.5 -88c0 -36 -1.83301 -62.333 -5.5 -79s-9.66699 -27.5 -18 -32.5s-21.5 -7.5 -39.5 -7.5s-31.167 2.5 -39.5 7.5z
M115.001 1815h279v-102h-279v102z" />
    <glyph glyph-name="uni022B" unicode="&#x22b;" 
d="M77 29.5c-35.333 30.333 -53 75.166 -53 134.499v739c0 59.333 17.667 104.166 53 134.499s87.666 45.5 156.999 45.5s121.5 -15.167 156.5 -45.5s52.5 -75.166 52.5 -134.499v-739c0 -59.333 -17.5 -104.166 -52.5 -134.499s-87.167 -45.5 -156.5 -45.5
s-121.666 15.167 -156.999 45.5zM262 155v757c0 22 -9.33301 33 -28 33c-19.333 0 -29 -11 -29 -33v-757c0 -22.667 9.66699 -34 29 -34c18.667 0 28 11.333 28 34zM106.5 1133.5c-8.33301 5 -14.166 15.667 -17.499 32s-5 42.833 -5 79.5c0 40.667 1.66699 70 5 88
s9.16602 29.667 17.499 35s21.5 8 39.5 8c18.667 0 32.167 -2.66699 40.5 -8s14.333 -17 18 -35s5.5 -47.333 5.5 -88c0 -36 -1.83301 -62.333 -5.5 -79s-9.66699 -27.5 -18 -32.5s-21.5 -7.5 -39.5 -7.5c-18.667 0 -32.167 2.5 -40.5 7.5zM278.5 1133.5
c-8.33301 5 -14.332 15.834 -17.999 32.501s-5.5 43 -5.5 79c0 40 1.66699 69.167 5 87.5s9.16602 30.166 17.499 35.499s21.5 8 39.5 8c18.667 0 32.167 -2.66699 40.5 -8s14.333 -17 18 -35s5.5 -47.333 5.5 -88c0 -36 -1.83301 -62.333 -5.5 -79
s-9.66699 -27.5 -18 -32.5s-21.5 -7.5 -39.5 -7.5s-31.167 2.5 -39.5 7.5zM93.001 1522h279v-102h-279v102z" />
    <glyph glyph-name="uni0237" unicode="&#x237;" horiz-adv-x="247" 
d="M-33 -203l22.999 0.00195312c12 0 21 2.66699 27 8s9 14.666 9 27.999v1232h195v-1225c0 -44 -7.66699 -77.333 -23 -100s-36.666 -37.834 -63.999 -45.501s-63 -11.5 -107 -11.5h-60v114z" />
    <glyph glyph-name="uni02B0" unicode="&#x2b0;" horiz-adv-x="470" 
d="M25 1360h194.001l2 -298c31.333 11.333 63.666 17 96.999 17c32 0 57 -5.83301 75 -17.5s30.833 -30.5 38.5 -56.5s11.5 -61.667 11.5 -107v-898h-182v895c0 21.333 -1.16699 35.333 -3.5 42s-8.16602 10 -17.499 10c-14.667 0 -26.334 -11.667 -35.001 -35v-912h-180
v1360z" />
    <glyph glyph-name="uni02B2" unicode="&#x2b2;" horiz-adv-x="248" 
d="M57 1099.5c-14 5.66699 -23.833 17.667 -29.5 36s-8.5 48.5 -8.5 90.5s2.83301 72.5 8.5 91.5s15.5 31.333 29.5 37s36.333 8.5 67 8.5s53.167 -2.83301 67.5 -8.5s24.333 -18 30 -37s8.5 -49.5 8.5 -91.5s-2.83301 -72.167 -8.5 -90.5s-15.667 -30.333 -30 -36
s-36.833 -8.5 -67.5 -8.5s-53 2.83301 -67 8.5zM-33 -203l23 0.00195312c12 0 21 2.66699 27 8s9 14.666 9 27.999v1227c34 -4 65.333 -6 94 -6c26.667 0 49.5 1 68.5 3s30.167 3 33.5 3v-1220c0 -44 -7.83301 -77.333 -23.5 -100s-37.167 -37.834 -64.5 -45.501
s-63 -11.5 -107 -11.5h-60v114z" />
    <glyph glyph-name="uni02B7" unicode="&#x2b7;" horiz-adv-x="700" 
d="M14 1065h180l22 -669l3 -183h12l2 183l23 669h187l23 -669l2 -183h12l3 183l22 669h181l-95 -1065h-211l-25 843h-12l-23 -843h-212z" />
    <glyph glyph-name="circumflex" unicode="&#x2c6;" horiz-adv-x="289" 
d="M-7 1109l52 294h199l52 -294l-115 -1l-37 205l-36 -205z" />
    <glyph glyph-name="caron" unicode="&#x2c7;" horiz-adv-x="311" 
d="M-3 1402l122 1l37 -204l37 204l123 -1l-68 -294h-183z" />
    <glyph glyph-name="uni02C9" unicode="&#x2c9;" horiz-adv-x="364" 
d="M37 1220h290v-112h-290v112z" />
    <glyph glyph-name="breve" unicode="&#x2d8;" horiz-adv-x="304" 
d="M38.5 1137c-23 20 -34.5 53 -34.5 99v154h125v-154c0 -32 8 -48 24 -48s24 16 24 48v154h124v-154c0 -46 -11.5 -79 -34.5 -99s-60.833 -30 -113.5 -30c-53.333 0 -91.5 10 -114.5 30z" />
    <glyph glyph-name="dotaccent" unicode="&#x2d9;" horiz-adv-x="204" 
d="M53 1115.5c-10.667 5.66699 -18.334 16.5 -23.001 32.5s-7 41 -7 75c0 38 2.33301 66 7 84s12.334 30 23.001 36s27 9 49 9s38.333 -3 49 -9s18.334 -17.833 23.001 -35.5s7 -45.834 7 -84.501c0 -34 -2.33301 -59.167 -7 -75.5s-12.334 -27.166 -23.001 -32.499
s-27 -8 -49 -8s-38.333 2.83301 -49 8.5z" />
    <glyph glyph-name="ring" unicode="&#x2da;" horiz-adv-x="303" 
d="M58.5 1137c-21.667 19.333 -32.5 47 -32.5 83v124c0 35.333 10.833 62.5 32.5 81.5s52.834 28.5 93.501 28.5s71.834 -9.33301 93.501 -28s32.5 -45.667 32.5 -81v-125c0 -36 -10.833 -63.667 -32.5 -83s-52.834 -29 -93.501 -29s-71.834 9.66699 -93.501 29zM175.5 1196
c5.66699 6 8.5 14.333 8.5 25v123c0 10.667 -2.83301 18.667 -8.5 24s-13.5 8 -23.5 8c-22 0 -33 -10.667 -33 -32v-123c0 -22.667 11 -34 33 -34c10 0 17.833 3 23.5 9z" />
    <glyph glyph-name="ogonek" unicode="&#x2db;" horiz-adv-x="337" 
d="M65.5 -315c-23 18 -34.502 44.668 -34.502 80.001c0 104 50.667 196.667 152 278l125 -28c-66.667 -68.667 -100 -142.334 -100 -221.001c0 -17.333 7 -26 21 -26c10.667 0 23.334 9.33301 38.001 28l51 -68c-31.333 -46.667 -81.666 -70 -150.999 -70
c-44.667 0 -78.5 9 -101.5 27z" />
    <glyph glyph-name="tilde" unicode="&#x2dc;" horiz-adv-x="349" 
d="M18 1191v47.001c0 40.667 8.5 70 25.5 88s44.5 27 82.5 27c27.333 0 47.333 -4.16699 60 -12.5s20.334 -22.166 23.001 -41.499v-78c1.33301 -8 3.16602 -13.667 5.49902 -17s5.5 -5 9.5 -5c8 0 12 9 12 27v123h94c0 -38.667 0.333008 -63.667 1 -75v-50
c0 -39.333 -8.5 -68 -25.5 -86s-44.5 -27 -82.5 -27c-26.667 0 -46.5 4.16699 -59.5 12.5s-20.833 22.166 -23.5 41.499v77c-2.66699 15.333 -7.66699 23 -15 23c-8 0 -12 -9.33301 -12 -28v-122h-94c0 39.333 -0.333008 64.666 -1 75.999z" />
    <glyph glyph-name="hungarumlaut" unicode="&#x2dd;" horiz-adv-x="322" 
d="M71 1406l122 -2l-76 -296h-94zM216 1406l121 -2l-76 -296h-93z" />
    <glyph glyph-name="uni02E1" unicode="&#x2e1;" horiz-adv-x="248" 
d="M26 1360h196v-1360h-196v1360z" />
    <glyph glyph-name="gravecomb" unicode="&#x300;" horiz-adv-x="0" 
d="M-224 1360l168 2l48 -254h-140z" />
    <glyph glyph-name="acutecomb" unicode="&#x301;" horiz-adv-x="0" 
d="M-177 1363l168 -3l-76 -252h-140z" />
    <glyph glyph-name="uni0302" unicode="&#x302;" horiz-adv-x="0" 
d="M-296 1109l52 254h199l52 -254l-115 -1l-37 205l-36 -205z" />
    <glyph glyph-name="tildecomb" unicode="&#x303;" horiz-adv-x="0" 
d="M-331 1238c0 39.333 8.16797 65.833 24.501 79.5s44.166 20.5 83.499 20.5c27.333 0 47.333 -4.16699 60 -12.5s20.334 -22.5 23.001 -42.5v-77c1.33301 -8 3.16602 -13.833 5.49902 -17.5s5.5 -5.5 9.5 -5.5c8 0 12 9 12 27v123h94l1 -122
c0 -38.667 -8.16699 -65 -24.5 -79s-44.166 -21 -83.499 -21c-27.333 0 -47.333 3.83301 -60 11.5s-20.334 21.167 -23.001 40.5v77c-2.66699 15.333 -7.66699 23 -15 23c-8 0 -12 -9.33301 -12 -28v-122l-94 2z" />
    <glyph glyph-name="uni0304" unicode="&#x304;" horiz-adv-x="0" 
d="M-344 1210h279v-102h-279v102z" />
    <glyph glyph-name="uni0306" unicode="&#x306;" horiz-adv-x="0" 
d="M-294 1133.5c-22 17.667 -33.335 48.167 -34.002 91.5v133h125v-130c0 -16.667 1.83301 -28.334 5.5 -35.001s9.83398 -10 18.501 -10s14.834 3.33301 18.501 10s5.5 18.334 5.5 35.001v130h125v-133c-0.666992 -43.333 -12.167 -73.833 -34.5 -91.5
s-60.5 -26.5 -114.5 -26.5c-54.667 0 -93 8.83301 -115 26.5z" />
    <glyph glyph-name="uni0307" unicode="&#x307;" horiz-adv-x="0" 
d="M-152 1112c-10.667 4.66699 -18.167 14.667 -22.5 30s-6.5 40 -6.5 74c0 38 2.16699 65.667 6.5 83s11.833 28.5 22.5 33.5s27.334 7.5 50.001 7.5s39.334 -2.5 50.001 -7.5s18.167 -16 22.5 -33s6.5 -44.833 6.5 -83.5c0 -34 -2.16699 -58.667 -6.5 -74
s-11.833 -25.333 -22.5 -30s-27.334 -7 -50.001 -7s-39.334 2.33301 -50.001 7z" />
    <glyph glyph-name="uni0308" unicode="&#x308;" horiz-adv-x="0" 
d="M-292.5 1115.5c-8.33301 5 -14.166 15.667 -17.499 32s-5 42.833 -5 79.5c0 40.667 1.66699 70 5 88s9.16602 29.667 17.499 35s21.5 8 39.5 8c18.667 0 32.167 -2.66699 40.5 -8s14.333 -17 18 -35s5.5 -47.333 5.5 -88c0 -36 -1.83301 -62.333 -5.5 -79
s-9.66699 -27.5 -18 -32.5s-21.5 -7.5 -39.5 -7.5c-18.667 0 -32.167 2.5 -40.5 7.5zM-120.5 1115.5c-8.33301 5 -14.332 15.834 -17.999 32.501s-5.5 43 -5.5 79c0 40 1.66699 69.167 5 87.5s9.16602 30.166 17.499 35.499s21.5 8 39.5 8c18.667 0 32.167 -2.66699 40.5 -8
s14.333 -17 18 -35s5.5 -47.333 5.5 -88c0 -36 -1.83301 -62.333 -5.5 -79s-9.66699 -27.5 -18 -32.5s-21.5 -7.5 -39.5 -7.5s-31.167 2.5 -39.5 7.5z" />
    <glyph glyph-name="hookabovecomb" unicode="&#x309;" horiz-adv-x="0" 
d="M-211 1177c18.667 0.666992 31.833 2.66797 39.5 6.00098s11.5 8.66602 11.5 15.999l1 126c0 16 -14.333 24 -43 24c-21.333 -1.33301 -35.666 -3 -42.999 -5l-14 75c33.333 9.33301 64.666 14 93.999 14c86.667 0 130 -34 130 -102v-126c0 -46 -25.667 -75.667 -77 -89
c-20 -5.33301 -52.667 -8 -98 -8z" />
    <glyph glyph-name="uni030A" unicode="&#x30a;" horiz-adv-x="0" 
d="M-246 1134c-21.333 17.333 -32.001 42.666 -32.001 75.999v78c0 33.333 10.667 58.5 32 75.5s52.666 25.5 93.999 25.5c84 0 126 -33.667 126 -101v-78c0 -33.333 -10.667 -58.666 -32 -75.999s-52.666 -26 -93.999 -26s-72.666 8.66699 -93.999 26zM-128.501 1188.5
c5.66699 5 8.5 12.167 8.5 21.5v78c0 18 -10.667 27 -32 27c-22 0 -33 -9 -33 -27v-78c0 -19.333 11 -29 33 -29c10 0 17.833 2.5 23.5 7.5z" />
    <glyph glyph-name="uni030B" unicode="&#x30b;" horiz-adv-x="0" 
d="M-253 1366l121 -2l-73 -256h-94zM-108 1366l121 -2l-74 -256h-93z" />
    <glyph glyph-name="uni030C" unicode="&#x30c;" horiz-adv-x="0" 
d="M-314 1362l122 1l37 -164l37 164l123 -1l-68 -254h-183z" />
    <glyph glyph-name="uni0312" unicode="&#x312;" horiz-adv-x="0" 
d="M-182 1402h145l-27 -294h-178z" />
    <glyph glyph-name="uni031B" unicode="&#x31b;" horiz-adv-x="0" 
d="M-220 1167c20 0 35 1.83301 45 5.5s15 9.83398 15 18.501l1 86h124v-87c0 -44.667 -25.333 -73.334 -76 -86.001c-17.333 -4 -51 -6.66699 -101 -8z" />
    <glyph glyph-name="dotbelowcomb" unicode="&#x323;" horiz-adv-x="0" 
d="M-151.5 -297.5c-10.333 5 -17.834 15.167 -22.501 30.5s-7 40 -7 74c0 38 2.16699 65.5 6.5 82.5s11.833 28 22.5 33s27.334 7.5 50.001 7.5s39.334 -2.5 50.001 -7.5s18.167 -16 22.5 -33s6.5 -44.5 6.5 -82.5c0 -34 -2.16699 -58.667 -6.5 -74
s-11.833 -25.5 -22.5 -30.5s-27.334 -7.5 -50.001 -7.5s-39.167 2.5 -49.5 7.5z" />
    <glyph glyph-name="uni0326" unicode="&#x326;" horiz-adv-x="0" 
d="M-295 -55h179l-61 -334h-145z" />
    <glyph glyph-name="uni0327" unicode="&#x327;" horiz-adv-x="0" 
d="M-277 -456l17 94c6.66699 -3.33301 19 -5 37 -5c24 0 36 8.66699 36 26v126c0 19.333 -20.667 29 -62 29l15 204l117 -2l-8 -134c52 -10 78 -45 78 -105v-126c0 -82.667 -46.667 -124 -140 -124c-38 0 -68 5.66699 -90 17z" />
    <glyph glyph-name="uni0328" unicode="&#x328;" horiz-adv-x="0" 
d="M-176.5 -315c-23 18 -34.502 44.668 -34.502 80.001c0 104 50.667 196.667 152 278l125 -28c-66.667 -68.667 -100 -142.334 -100 -221.001c0 -17.333 7 -26 21 -26c10.667 0 23.334 9.33301 38.001 28l51 -68c-31.333 -46.667 -81.666 -70 -150.999 -70
c-44.667 0 -78.5 9 -101.5 27z" />
    <glyph glyph-name="uni037E" unicode="&#x37e;" horiz-adv-x="249" 
d="M44 246h178l-63 -396h-146zM72 643c-12.667 6.66699 -21.667 19.502 -27 38.502s-8 48.5 -8 88.5c0 44.667 2.66699 77.334 8 98.001s14.5 34.5 27.5 41.5s32.833 10.5 59.5 10.5s46.334 -3.5 59.001 -10.5s21.667 -20.833 27 -41.5s8 -53.334 8 -98.001
c0 -40.667 -2.66699 -70.334 -8 -89.001s-14.5 -31.334 -27.5 -38.001s-32.833 -10 -59.5 -10s-46.334 3.33301 -59.001 10z" />
    <glyph glyph-name="tonos" unicode="&#x384;" horiz-adv-x="147" 
d="M41 1070l-17 286h100l-2 -286h-81z" />
    <glyph glyph-name="dieresistonos" unicode="&#x385;" horiz-adv-x="385" 
d="M149 1282l-15 261h116l-16 -262zM37.5 1118.5c-8.33301 5 -14.166 15.667 -17.499 32s-5 42.833 -5 79.5c0 40.667 1.66699 70 5 88s9.16602 29.667 17.499 35s21.5 8 39.5 8c18.667 0 32.167 -2.66699 40.5 -8s14.333 -17 18 -35s5.5 -47.333 5.5 -88
c0 -36 -1.83301 -62.333 -5.5 -79s-9.66699 -27.5 -18 -32.5s-21.5 -7.5 -39.5 -7.5c-18.667 0 -32.167 2.5 -40.5 7.5zM266.5 1118.5c-8.33301 5 -14.333 15.834 -18 32.501s-5.5 43 -5.5 79c0 40 1.83301 69.167 5.5 87.5s9.66699 30.166 18 35.499s21.5 8 39.5 8
c18.667 0 32.167 -2.66699 40.5 -8s14.333 -17 18 -35s5.5 -47.333 5.5 -88c0 -36.667 -1.83301 -63.167 -5.5 -79.5s-9.66699 -27 -18 -32s-21.833 -7.5 -40.5 -7.5c-18 0 -31.167 2.5 -39.5 7.5z" />
    <glyph glyph-name="Alphatonos" unicode="&#x386;" horiz-adv-x="481" 
d="M269 212h-56l-6 -212h-200l121 1360h225l121 -1360h-199zM265 330l-21 692h-8l-20 -692h49zM-41 1074l-17 286h100l-2 -286h-81z" />
    <glyph glyph-name="anoteleia" unicode="&#x387;" horiz-adv-x="236" 
d="M58 483c-12.667 6.66699 -21.667 19.502 -27 38.502s-8 48.5 -8 88.5c0 44.667 2.66699 77.334 8 98.001s14.5 34.5 27.5 41.5s32.833 10.5 59.5 10.5s46.334 -3.5 59.001 -10.5s21.667 -20.833 27 -41.5s8 -53.334 8 -98.001c0 -40.667 -2.66699 -70.334 -8 -89.001
s-14.5 -31.334 -27.5 -38.001s-32.833 -10 -59.5 -10s-46.334 3.33301 -59.001 10z" />
    <glyph glyph-name="Epsilontonos" unicode="&#x388;" horiz-adv-x="375" 
d="M26 1360h340v-141h-138v-489h109v-110h-109v-483h140v-137h-342v1360zM-94 1074l-17 286h100l-2 -286h-81z" />
    <glyph glyph-name="Etatonos" unicode="&#x389;" horiz-adv-x="498" 
d="M26 1360h195v-613h56v613h195v-1360h-195v608h-56v-608h-195v1360zM-94 1074l-17 286h100l-2 -286h-81z" />
    <glyph glyph-name="Iotatonos" unicode="&#x38a;" horiz-adv-x="251" 
d="M26 1360h199v-1360h-199v1360zM-94 1074l-17 286h100l-2 -286h-81z" />
    <glyph glyph-name="Omicrontonos" unicode="&#x38c;" horiz-adv-x="510" 
d="M22 1166c0 68.667 19.667 120.833 59 156.5s97.333 53.5 174 53.5s134.667 -18.333 174 -55s59 -90.667 59 -162v-957c0 -72 -19.667 -126.333 -59 -163s-97.333 -55 -174 -55c-76 0 -132.5 18 -169.5 54s-58.167 90.667 -63.5 164v964zM255 149.999
c18.667 0 28 9.66699 28 29v1002c0 19.333 -9.33301 29 -28 29s-28 -9.66699 -28 -29v-1002c0 -19.333 9.33301 -29 28 -29zM-82 1074l-17 286h100l-2 -286h-81z" />
    <glyph glyph-name="Upsilontonos" unicode="&#x38e;" horiz-adv-x="485" 
d="M144 425l-136 935h201l29 -693h9l26 693h204l-134 -934v-426h-199v425zM-108 1074l-17 286h100l-2 -286h-81z" />
    <glyph glyph-name="Omegatonos" unicode="&#x38f;" horiz-adv-x="523" 
d="M503 139v-139.003h-222c0.666992 116.667 2 293 4 529s4.33301 445 7 627c1.33301 15.333 -0.166992 27.333 -4.5 36s-12.833 13 -25.5 13h-1c-11.333 0 -19.5 -4.66699 -24.5 -14s-6.83301 -21 -5.5 -35c2.66699 -222.667 5 -442 7 -658s3.33301 -382 4 -498h-223v139
c14.667 -5.33301 36.334 -11.666 65.001 -18.999c-13.333 96.667 -25.666 250.334 -36.999 461.001s-17 413.334 -17 608.001c0 57.333 19.667 102.666 59 135.999s96.666 50 171.999 50s132.666 -16.667 171.999 -50s59 -78.666 59 -135.999
c0 -192.667 -5.83301 -394.5 -17.5 -605.5s-23.834 -365.5 -36.501 -463.5c30.667 8 52.334 14.333 65.001 19zM-86 1074l-17 286h100l-2 -286h-81z" />
    <glyph glyph-name="iotadieresistonos" unicode="&#x390;" horiz-adv-x="247" 
d="M88 1238l-12 231h96l-13 -231h-71zM-3.5 1094c-7 4.66699 -12 14.167 -15 28.5s-4.5 37.5 -4.5 69.5c0 36 1.5 62 4.5 78s7.83301 26.333 14.5 31s17.667 7 33 7s26.5 -2.33301 33.5 -7s12 -15 15 -31s4.5 -42 4.5 -78c0 -32 -1.5 -55.167 -4.5 -69.5
s-8 -23.833 -15 -28.5s-18.167 -7 -33.5 -7c-14.667 0 -25.5 2.33301 -32.5 7zM185.5 1094c-7 4.66699 -12 14.167 -15 28.5s-4.5 37.5 -4.5 69.5c0 36 1.5 62 4.5 78s7.83301 26.333 14.5 31s17.667 7 33 7s26.5 -2.33301 33.5 -7s12 -15 15 -31s4.5 -42 4.5 -78
c0 -32 -1.5 -55.167 -4.5 -69.5s-8 -23.833 -15 -28.5s-18.167 -7 -33.5 -7c-14.667 0 -25.5 2.33301 -32.5 7zM26 1065h195v-1065h-195v1065z" />
    <glyph glyph-name="Alpha" unicode="&#x391;" horiz-adv-x="481" 
d="M269 212h-56l-6 -212h-200l121 1360h225l121 -1360h-199zM265 330l-21 692h-8l-20 -692h49z" />
    <glyph glyph-name="Beta" unicode="&#x392;" horiz-adv-x="490" 
d="M26 1360l220 -0.00195312c76.667 0 131.834 -11.167 165.501 -33.5s50.5 -58.5 50.5 -108.5v-425c0 -59.333 -20.333 -97.666 -61 -114.999c21.333 -8.66699 37.5 -22.667 48.5 -42s16.5 -42.666 16.5 -69.999v-424c0 -50 -16.833 -86.167 -50.5 -108.5
s-88.834 -33.5 -165.501 -33.5h-224v1360zM232 732.998c14 0 24.333 3.49902 31 10.499s10 18.167 10 33.5v423c0 12.667 -2.5 21.834 -7.5 27.501s-12.833 8.5 -23.5 8.5h-25v-503h15zM242 124.997c10.667 0 18.5 2.83301 23.5 8.5s7.5 14.5 7.5 26.5v421
c0 15.333 -3.33301 26.5 -10 33.5s-17 10.5 -31 10.5h-15v-500h25z" />
    <glyph glyph-name="Gamma" unicode="&#x393;" horiz-adv-x="343" 
d="M26 1360h310v-148h-111v-1212h-199v1360z" />
    <glyph glyph-name="uni0394" unicode="&#x394;" horiz-adv-x="481" 
d="M128 1360h225l121 -1360h-467zM270 118l-26 904h-8l-26 -904h60z" />
    <glyph glyph-name="Epsilon" unicode="&#x395;" horiz-adv-x="375" 
d="M26 1360h340v-141h-138v-489h109v-110h-109v-483h140v-137h-342v1360z" />
    <glyph glyph-name="Zeta" unicode="&#x396;" horiz-adv-x="425" 
d="M16 124l160 1088h-154v148h383v-123l-159 -1089h162v-148h-392v124z" />
    <glyph glyph-name="Eta" unicode="&#x397;" horiz-adv-x="498" 
d="M26 1360h195v-613h56v613h195v-1360h-195v608h-56v-608h-195v1360z" />
    <glyph glyph-name="Theta" unicode="&#x398;" horiz-adv-x="510" 
d="M80.5 38.5c-39 36.333 -58.5 90.5 -58.5 162.5v958c0 71.333 19.667 125.333 59 162s97.333 55 174 55s134.667 -18.333 174 -55s59 -90.667 59 -162v-958c0 -72 -19.5 -126.167 -58.5 -162.5s-97.167 -54.5 -174.5 -54.5s-135.5 18.167 -174.5 54.5zM289 164v1033
c0 23.333 -11.333 35 -34 35c-23.333 0 -35 -11.667 -35 -35v-1033c0 -23.333 11.667 -35 35 -35c22.667 0 34 11.667 34 35zM231 734h48v-108h-48v108z" />
    <glyph glyph-name="Iota" unicode="&#x399;" horiz-adv-x="251" 
d="M26 1360h199v-1360h-199v1360z" />
    <glyph glyph-name="Kappa" unicode="&#x39a;" horiz-adv-x="514" 
d="M26 1360h199l-3 -613h24l37 613h208l-65 -680l69 -680h-210l-39 607h-24l3 -607h-199v1360z" />
    <glyph glyph-name="Lambda" unicode="&#x39b;" horiz-adv-x="480" 
d="M127 1360h225l121 -1360h-199l-18 599l-13 423h-8l-14 -424l-15 -598h-200z" />
    <glyph glyph-name="Mu" unicode="&#x39c;" horiz-adv-x="659" 
d="M26 1360h250l49 -973h9l49 973h250v-1360h-173l30 951h-11l-78 -951h-143l-81 952h-12l34 -952h-173v1360z" />
    <glyph glyph-name="Nu" unicode="&#x39d;" horiz-adv-x="493" 
d="M268 0l-21 187l-88 742l-6 1l55 -930h-182v1360h199l22 -187l87 -742l6 -1l-54 930h182v-1360h-200z" />
    <glyph glyph-name="Xi" unicode="&#x39e;" horiz-adv-x="418" 
d="M29 1360h360v-141h-360v141zM45 731h325v-109h-325v109zM26 137h366v-137h-366v137z" />
    <glyph glyph-name="Omicron" unicode="&#x39f;" horiz-adv-x="510" 
d="M22 1166c0 68.667 19.667 120.833 59 156.5s97.333 53.5 174 53.5s134.667 -18.333 174 -55s59 -90.667 59 -162v-957c0 -72 -19.667 -126.333 -59 -163s-97.333 -55 -174 -55c-76 0 -132.5 18 -169.5 54s-58.167 90.667 -63.5 164v964zM255 149.999
c18.667 0 28 9.66699 28 29v1002c0 19.333 -9.33301 29 -28 29s-28 -9.66699 -28 -29v-1002c0 -19.333 9.33301 -29 28 -29z" />
    <glyph glyph-name="Pi" unicode="&#x3a0;" horiz-adv-x="506" 
d="M26 1360h454v-1360h-198v1221h-57v-1221h-199v1360z" />
    <glyph glyph-name="Rho" unicode="&#x3a1;" horiz-adv-x="486" 
d="M26 1360h212c74.667 0 130.667 -12.5 168 -37.5s56 -70.167 56 -135.5v-697c-0.666992 -64 -19.5 -108.833 -56.5 -134.5s-88.833 -38.5 -155.5 -38.5h-25v-317h-199v1360zM243 448c10.667 0 18.333 2.99902 23 8.99902s7 15.333 7 28v697
c0 12.667 -2.5 21.834 -7.5 27.501s-12.833 8.5 -23.5 8.5h-25v-770h26z" />
    <glyph glyph-name="Sigma" unicode="&#x3a3;" horiz-adv-x="387" 
d="M10 92l93 587l-91 588v93h365v-140h-151l63 -541l-64 -542h154v-137h-369v92z" />
    <glyph glyph-name="Tau" unicode="&#x3a4;" horiz-adv-x="370" 
d="M85 1208h-79v152h356v-152h-79v-1208h-198v1208z" />
    <glyph glyph-name="Upsilon" unicode="&#x3a5;" horiz-adv-x="485" 
d="M144 425l-136 935h201l29 -693h9l26 693h204l-134 -934v-426h-199v425z" />
    <glyph glyph-name="Phi" unicode="&#x3a6;" horiz-adv-x="585" 
d="M232 106c-74 4 -127.835 21.002 -161.502 51.002s-50.5 75 -50.5 135v772c0.666992 59.333 17.834 103.666 51.501 132.999s87.167 46.333 160.5 51v112h122v-112c74 -4.66699 127.667 -22 161 -52s50 -74.667 50 -134v-773
c-0.666992 -58.667 -17.667 -102.834 -51 -132.501s-86.666 -46.5 -159.999 -50.5v-106h-122v106zM231.998 1110c-14 -1.33301 -24 -5.50098 -30 -12.501s-9 -18.5 -9 -34.5v-771c0 -16.667 3 -28.667 9 -36s16 -11.666 30 -12.999v867zM383.998 256.501
c6 7.66699 9.00098 19.5 9.00098 35.5v771c0 16 -3.33301 27.5 -10 34.5s-16.334 11.167 -29.001 12.5v-867c14 1.33301 24 5.83301 30 13.5z" />
    <glyph glyph-name="Chi" unicode="&#x3a7;" horiz-adv-x="512" 
d="M84 679l-57 681h199l25 -604h10l27 604h199l-59 -675l65 -685h-203l-28 599h-9l-29 -599h-203z" />
    </font>
</defs>
</svg>
